<?xml version="1.0" encoding="utf-8"?>
<svg xmlns="http://www.w3.org/2000/svg" xmlns:xlink="http://www.w3.org/1999/xlink" width="600" height="400" viewBox="0 0 2400 1600">
<defs>
  <clipPath id="clip740">
    <rect x="0" y="0" width="2400" height="1600"/>
  </clipPath>
</defs>
<path clip-path="url(#clip740)" d="M0 1600 L2400 1600 L2400 0 L0 0  Z" fill="#ffffff" fill-rule="evenodd" fill-opacity="1"/>
<defs>
  <clipPath id="clip741">
    <rect x="480" y="0" width="1681" height="1600"/>
  </clipPath>
</defs>
<path clip-path="url(#clip740)" d="M219.866 1423.18 L2352.76 1423.18 L2352.76 47.2441 L219.866 47.2441  Z" fill="#ffffff" fill-rule="evenodd" fill-opacity="1"/>
<defs>
  <clipPath id="clip742">
    <rect x="219" y="47" width="2134" height="1377"/>
  </clipPath>
</defs>
<polyline clip-path="url(#clip742)" style="stroke:#000000; stroke-linecap:round; stroke-linejoin:round; stroke-width:2; stroke-opacity:0.1; fill:none" points="229.927,1423.18 229.927,47.2441 "/>
<polyline clip-path="url(#clip742)" style="stroke:#000000; stroke-linecap:round; stroke-linejoin:round; stroke-width:2; stroke-opacity:0.1; fill:none" points="732.967,1423.18 732.967,47.2441 "/>
<polyline clip-path="url(#clip742)" style="stroke:#000000; stroke-linecap:round; stroke-linejoin:round; stroke-width:2; stroke-opacity:0.1; fill:none" points="1236.01,1423.18 1236.01,47.2441 "/>
<polyline clip-path="url(#clip742)" style="stroke:#000000; stroke-linecap:round; stroke-linejoin:round; stroke-width:2; stroke-opacity:0.1; fill:none" points="1739.05,1423.18 1739.05,47.2441 "/>
<polyline clip-path="url(#clip742)" style="stroke:#000000; stroke-linecap:round; stroke-linejoin:round; stroke-width:2; stroke-opacity:0.1; fill:none" points="2242.09,1423.18 2242.09,47.2441 "/>
<polyline clip-path="url(#clip740)" style="stroke:#000000; stroke-linecap:round; stroke-linejoin:round; stroke-width:4; stroke-opacity:1; fill:none" points="219.866,1423.18 2352.76,1423.18 "/>
<polyline clip-path="url(#clip740)" style="stroke:#000000; stroke-linecap:round; stroke-linejoin:round; stroke-width:4; stroke-opacity:1; fill:none" points="229.927,1423.18 229.927,1404.28 "/>
<polyline clip-path="url(#clip740)" style="stroke:#000000; stroke-linecap:round; stroke-linejoin:round; stroke-width:4; stroke-opacity:1; fill:none" points="732.967,1423.18 732.967,1404.28 "/>
<polyline clip-path="url(#clip740)" style="stroke:#000000; stroke-linecap:round; stroke-linejoin:round; stroke-width:4; stroke-opacity:1; fill:none" points="1236.01,1423.18 1236.01,1404.28 "/>
<polyline clip-path="url(#clip740)" style="stroke:#000000; stroke-linecap:round; stroke-linejoin:round; stroke-width:4; stroke-opacity:1; fill:none" points="1739.05,1423.18 1739.05,1404.28 "/>
<polyline clip-path="url(#clip740)" style="stroke:#000000; stroke-linecap:round; stroke-linejoin:round; stroke-width:4; stroke-opacity:1; fill:none" points="2242.09,1423.18 2242.09,1404.28 "/>
<path clip-path="url(#clip740)" d="M229.927 1454.1 Q226.316 1454.1 224.487 1457.66 Q222.682 1461.2 222.682 1468.33 Q222.682 1475.44 224.487 1479.01 Q226.316 1482.55 229.927 1482.55 Q233.561 1482.55 235.367 1479.01 Q237.196 1475.44 237.196 1468.33 Q237.196 1461.2 235.367 1457.66 Q233.561 1454.1 229.927 1454.1 M229.927 1450.39 Q235.737 1450.39 238.793 1455 Q241.871 1459.58 241.871 1468.33 Q241.871 1477.06 238.793 1481.67 Q235.737 1486.25 229.927 1486.25 Q224.117 1486.25 221.038 1481.67 Q217.983 1477.06 217.983 1468.33 Q217.983 1459.58 221.038 1455 Q224.117 1450.39 229.927 1450.39 Z" fill="#000000" fill-rule="nonzero" fill-opacity="1" /><path clip-path="url(#clip740)" d="M707.655 1481.64 L715.294 1481.64 L715.294 1455.28 L706.983 1456.95 L706.983 1452.69 L715.247 1451.02 L719.923 1451.02 L719.923 1481.64 L727.562 1481.64 L727.562 1485.58 L707.655 1485.58 L707.655 1481.64 Z" fill="#000000" fill-rule="nonzero" fill-opacity="1" /><path clip-path="url(#clip740)" d="M747.006 1454.1 Q743.395 1454.1 741.567 1457.66 Q739.761 1461.2 739.761 1468.33 Q739.761 1475.44 741.567 1479.01 Q743.395 1482.55 747.006 1482.55 Q750.641 1482.55 752.446 1479.01 Q754.275 1475.44 754.275 1468.33 Q754.275 1461.2 752.446 1457.66 Q750.641 1454.1 747.006 1454.1 M747.006 1450.39 Q752.817 1450.39 755.872 1455 Q758.951 1459.58 758.951 1468.33 Q758.951 1477.06 755.872 1481.67 Q752.817 1486.25 747.006 1486.25 Q741.196 1486.25 738.118 1481.67 Q735.062 1477.06 735.062 1468.33 Q735.062 1459.58 738.118 1455 Q741.196 1450.39 747.006 1450.39 Z" fill="#000000" fill-rule="nonzero" fill-opacity="1" /><path clip-path="url(#clip740)" d="M1214.78 1481.64 L1231.1 1481.64 L1231.1 1485.58 L1209.16 1485.58 L1209.16 1481.64 Q1211.82 1478.89 1216.4 1474.26 Q1221.01 1469.61 1222.19 1468.27 Q1224.43 1465.74 1225.31 1464.01 Q1226.22 1462.25 1226.22 1460.56 Q1226.22 1457.8 1224.27 1456.07 Q1222.35 1454.33 1219.25 1454.33 Q1217.05 1454.33 1214.6 1455.09 Q1212.16 1455.86 1209.39 1457.41 L1209.39 1452.69 Q1212.21 1451.55 1214.66 1450.97 Q1217.12 1450.39 1219.16 1450.39 Q1224.53 1450.39 1227.72 1453.08 Q1230.91 1455.77 1230.91 1460.26 Q1230.91 1462.39 1230.1 1464.31 Q1229.32 1466.2 1227.21 1468.8 Q1226.63 1469.47 1223.53 1472.69 Q1220.43 1475.88 1214.78 1481.64 Z" fill="#000000" fill-rule="nonzero" fill-opacity="1" /><path clip-path="url(#clip740)" d="M1250.91 1454.1 Q1247.3 1454.1 1245.47 1457.66 Q1243.67 1461.2 1243.67 1468.33 Q1243.67 1475.44 1245.47 1479.01 Q1247.3 1482.55 1250.91 1482.55 Q1254.55 1482.55 1256.35 1479.01 Q1258.18 1475.44 1258.18 1468.33 Q1258.18 1461.2 1256.35 1457.66 Q1254.55 1454.1 1250.91 1454.1 M1250.91 1450.39 Q1256.72 1450.39 1259.78 1455 Q1262.86 1459.58 1262.86 1468.33 Q1262.86 1477.06 1259.78 1481.67 Q1256.72 1486.25 1250.91 1486.25 Q1245.1 1486.25 1242.03 1481.67 Q1238.97 1477.06 1238.97 1468.33 Q1238.97 1459.58 1242.03 1455 Q1245.1 1450.39 1250.91 1450.39 Z" fill="#000000" fill-rule="nonzero" fill-opacity="1" /><path clip-path="url(#clip740)" d="M1727.89 1466.95 Q1731.25 1467.66 1733.12 1469.93 Q1735.02 1472.2 1735.02 1475.53 Q1735.02 1480.65 1731.5 1483.45 Q1727.98 1486.25 1721.5 1486.25 Q1719.32 1486.25 1717.01 1485.81 Q1714.72 1485.39 1712.26 1484.54 L1712.26 1480.02 Q1714.21 1481.16 1716.52 1481.74 Q1718.84 1482.32 1721.36 1482.32 Q1725.76 1482.32 1728.05 1480.58 Q1730.37 1478.84 1730.37 1475.53 Q1730.37 1472.48 1728.21 1470.77 Q1726.08 1469.03 1722.26 1469.03 L1718.24 1469.03 L1718.24 1465.19 L1722.45 1465.19 Q1725.9 1465.19 1727.73 1463.82 Q1729.56 1462.43 1729.56 1459.84 Q1729.56 1457.18 1727.66 1455.77 Q1725.78 1454.33 1722.26 1454.33 Q1720.34 1454.33 1718.14 1454.75 Q1715.95 1455.16 1713.31 1456.04 L1713.31 1451.88 Q1715.97 1451.14 1718.28 1450.77 Q1720.62 1450.39 1722.68 1450.39 Q1728.01 1450.39 1731.11 1452.83 Q1734.21 1455.23 1734.21 1459.35 Q1734.21 1462.22 1732.57 1464.21 Q1730.92 1466.18 1727.89 1466.95 Z" fill="#000000" fill-rule="nonzero" fill-opacity="1" /><path clip-path="url(#clip740)" d="M1753.88 1454.1 Q1750.27 1454.1 1748.45 1457.66 Q1746.64 1461.2 1746.64 1468.33 Q1746.64 1475.44 1748.45 1479.01 Q1750.27 1482.55 1753.88 1482.55 Q1757.52 1482.55 1759.32 1479.01 Q1761.15 1475.44 1761.15 1468.33 Q1761.15 1461.2 1759.32 1457.66 Q1757.52 1454.1 1753.88 1454.1 M1753.88 1450.39 Q1759.7 1450.39 1762.75 1455 Q1765.83 1459.58 1765.83 1468.33 Q1765.83 1477.06 1762.75 1481.67 Q1759.7 1486.25 1753.88 1486.25 Q1748.07 1486.25 1745 1481.67 Q1741.94 1477.06 1741.94 1468.33 Q1741.94 1459.58 1745 1455 Q1748.07 1450.39 1753.88 1450.39 Z" fill="#000000" fill-rule="nonzero" fill-opacity="1" /><path clip-path="url(#clip740)" d="M2230.26 1455.09 L2218.45 1473.54 L2230.26 1473.54 L2230.26 1455.09 M2229.03 1451.02 L2234.91 1451.02 L2234.91 1473.54 L2239.84 1473.54 L2239.84 1477.43 L2234.91 1477.43 L2234.91 1485.58 L2230.26 1485.58 L2230.26 1477.43 L2214.66 1477.43 L2214.66 1472.92 L2229.03 1451.02 Z" fill="#000000" fill-rule="nonzero" fill-opacity="1" /><path clip-path="url(#clip740)" d="M2257.57 1454.1 Q2253.96 1454.1 2252.13 1457.66 Q2250.33 1461.2 2250.33 1468.33 Q2250.33 1475.44 2252.13 1479.01 Q2253.96 1482.55 2257.57 1482.55 Q2261.21 1482.55 2263.01 1479.01 Q2264.84 1475.44 2264.84 1468.33 Q2264.84 1461.2 2263.01 1457.66 Q2261.21 1454.1 2257.57 1454.1 M2257.57 1450.39 Q2263.38 1450.39 2266.44 1455 Q2269.52 1459.58 2269.52 1468.33 Q2269.52 1477.06 2266.44 1481.67 Q2263.38 1486.25 2257.57 1486.25 Q2251.76 1486.25 2248.68 1481.67 Q2245.63 1477.06 2245.63 1468.33 Q2245.63 1459.58 2248.68 1455 Q2251.76 1450.39 2257.57 1450.39 Z" fill="#000000" fill-rule="nonzero" fill-opacity="1" /><path clip-path="url(#clip740)" d="M1013.65 1520.52 L1022.31 1520.52 L1043.38 1560.28 L1043.38 1520.52 L1049.62 1520.52 L1049.62 1568.04 L1040.96 1568.04 L1019.89 1528.29 L1019.89 1568.04 L1013.65 1568.04 L1013.65 1520.52 Z" fill="#000000" fill-rule="nonzero" fill-opacity="1" /><path clip-path="url(#clip740)" d="M1061.55 1553.98 L1061.55 1532.4 L1067.41 1532.4 L1067.41 1553.75 Q1067.41 1558.81 1069.38 1561.36 Q1071.36 1563.87 1075.3 1563.87 Q1080.05 1563.87 1082.78 1560.85 Q1085.55 1557.83 1085.55 1552.61 L1085.55 1532.4 L1091.41 1532.4 L1091.41 1568.04 L1085.55 1568.04 L1085.55 1562.57 Q1083.42 1565.82 1080.59 1567.41 Q1077.79 1568.97 1074.06 1568.97 Q1067.92 1568.97 1064.74 1565.15 Q1061.55 1561.33 1061.55 1553.98 M1076.29 1531.54 L1076.29 1531.54 Z" fill="#000000" fill-rule="nonzero" fill-opacity="1" /><path clip-path="url(#clip740)" d="M1131.23 1539.24 Q1133.42 1535.29 1136.48 1533.41 Q1139.53 1531.54 1143.67 1531.54 Q1149.24 1531.54 1152.27 1535.45 Q1155.29 1539.33 1155.29 1546.53 L1155.29 1568.04 L1149.4 1568.04 L1149.4 1546.72 Q1149.4 1541.59 1147.59 1539.11 Q1145.77 1536.63 1142.05 1536.63 Q1137.5 1536.63 1134.86 1539.65 Q1132.21 1542.68 1132.21 1547.9 L1132.21 1568.04 L1126.32 1568.04 L1126.32 1546.72 Q1126.32 1541.56 1124.51 1539.11 Q1122.7 1536.63 1118.91 1536.63 Q1114.42 1536.63 1111.78 1539.68 Q1109.14 1542.71 1109.14 1547.9 L1109.14 1568.04 L1103.25 1568.04 L1103.25 1532.4 L1109.14 1532.4 L1109.14 1537.93 Q1111.14 1534.66 1113.94 1533.1 Q1116.74 1531.54 1120.6 1531.54 Q1124.48 1531.54 1127.18 1533.51 Q1129.92 1535.48 1131.23 1539.24 Z" fill="#000000" fill-rule="nonzero" fill-opacity="1" /><path clip-path="url(#clip740)" d="M1192.56 1550.25 Q1192.56 1543.79 1189.89 1540.13 Q1187.24 1536.44 1182.6 1536.44 Q1177.95 1536.44 1175.28 1540.13 Q1172.64 1543.79 1172.64 1550.25 Q1172.64 1556.71 1175.28 1560.4 Q1177.95 1564.07 1182.6 1564.07 Q1187.24 1564.07 1189.89 1560.4 Q1192.56 1556.71 1192.56 1550.25 M1172.64 1537.81 Q1174.48 1534.62 1177.28 1533.1 Q1180.12 1531.54 1184.03 1531.54 Q1190.52 1531.54 1194.57 1536.69 Q1198.64 1541.85 1198.64 1550.25 Q1198.64 1558.65 1194.57 1563.81 Q1190.52 1568.97 1184.03 1568.97 Q1180.12 1568.97 1177.28 1567.44 Q1174.48 1565.88 1172.64 1562.7 L1172.64 1568.04 L1166.75 1568.04 L1166.75 1518.52 L1172.64 1518.52 L1172.64 1537.81 Z" fill="#000000" fill-rule="nonzero" fill-opacity="1" /><path clip-path="url(#clip740)" d="M1238.84 1548.76 L1238.84 1551.62 L1211.91 1551.62 Q1212.29 1557.67 1215.54 1560.85 Q1218.82 1564 1224.64 1564 Q1228.02 1564 1231.17 1563.17 Q1234.35 1562.35 1237.47 1560.69 L1237.47 1566.23 Q1234.32 1567.57 1231.01 1568.27 Q1227.7 1568.97 1224.29 1568.97 Q1215.76 1568.97 1210.77 1564 Q1205.8 1559.04 1205.8 1550.57 Q1205.8 1541.82 1210.51 1536.69 Q1215.25 1531.54 1223.27 1531.54 Q1230.47 1531.54 1234.64 1536.18 Q1238.84 1540.8 1238.84 1548.76 M1232.98 1547.04 Q1232.92 1542.23 1230.28 1539.37 Q1227.67 1536.5 1223.34 1536.5 Q1218.44 1536.5 1215.48 1539.27 Q1212.55 1542.04 1212.1 1547.07 L1232.98 1547.04 Z" fill="#000000" fill-rule="nonzero" fill-opacity="1" /><path clip-path="url(#clip740)" d="M1269.11 1537.87 Q1268.12 1537.3 1266.94 1537.04 Q1265.8 1536.76 1264.4 1536.76 Q1259.43 1536.76 1256.76 1540 Q1254.12 1543.22 1254.12 1549.27 L1254.12 1568.04 L1248.23 1568.04 L1248.23 1532.4 L1254.12 1532.4 L1254.12 1537.93 Q1255.96 1534.69 1258.92 1533.13 Q1261.88 1531.54 1266.12 1531.54 Q1266.72 1531.54 1267.45 1531.63 Q1268.18 1531.7 1269.08 1531.85 L1269.11 1537.87 Z" fill="#000000" fill-rule="nonzero" fill-opacity="1" /><path clip-path="url(#clip740)" d="M1309.78 1536.5 Q1305.07 1536.5 1302.34 1540.19 Q1299.6 1543.85 1299.6 1550.25 Q1299.6 1556.65 1302.3 1560.34 Q1305.04 1564 1309.78 1564 Q1314.46 1564 1317.2 1560.31 Q1319.94 1556.62 1319.94 1550.25 Q1319.94 1543.92 1317.2 1540.23 Q1314.46 1536.5 1309.78 1536.5 M1309.78 1531.54 Q1317.42 1531.54 1321.78 1536.5 Q1326.14 1541.47 1326.14 1550.25 Q1326.14 1559 1321.78 1564 Q1317.42 1568.97 1309.78 1568.97 Q1302.11 1568.97 1297.75 1564 Q1293.42 1559 1293.42 1550.25 Q1293.42 1541.47 1297.75 1536.5 Q1302.11 1531.54 1309.78 1531.54 Z" fill="#000000" fill-rule="nonzero" fill-opacity="1" /><path clip-path="url(#clip740)" d="M1353.9 1518.52 L1353.9 1523.39 L1348.3 1523.39 Q1345.15 1523.39 1343.9 1524.66 Q1342.7 1525.93 1342.7 1529.24 L1342.7 1532.4 L1352.34 1532.4 L1352.34 1536.95 L1342.7 1536.95 L1342.7 1568.04 L1336.81 1568.04 L1336.81 1536.95 L1331.21 1536.95 L1331.21 1532.4 L1336.81 1532.4 L1336.81 1529.91 Q1336.81 1523.96 1339.58 1521.26 Q1342.35 1518.52 1348.36 1518.52 L1353.9 1518.52 Z" fill="#000000" fill-rule="nonzero" fill-opacity="1" /><path clip-path="url(#clip740)" d="M1385.31 1522.27 L1385.31 1532.4 L1397.38 1532.4 L1397.38 1536.95 L1385.31 1536.95 L1385.31 1556.3 Q1385.31 1560.66 1386.49 1561.9 Q1387.7 1563.14 1391.36 1563.14 L1397.38 1563.14 L1397.38 1568.04 L1391.36 1568.04 Q1384.58 1568.04 1382 1565.53 Q1379.43 1562.98 1379.43 1556.3 L1379.43 1536.95 L1375.13 1536.95 L1375.13 1532.4 L1379.43 1532.4 L1379.43 1522.27 L1385.31 1522.27 Z" fill="#000000" fill-rule="nonzero" fill-opacity="1" /><path clip-path="url(#clip740)" d="M1435.57 1548.76 L1435.57 1551.62 L1408.64 1551.62 Q1409.03 1557.67 1412.27 1560.85 Q1415.55 1564 1421.38 1564 Q1424.75 1564 1427.9 1563.17 Q1431.08 1562.35 1434.2 1560.69 L1434.2 1566.23 Q1431.05 1567.57 1427.74 1568.27 Q1424.43 1568.97 1421.03 1568.97 Q1412.5 1568.97 1407.5 1564 Q1402.53 1559.04 1402.53 1550.57 Q1402.53 1541.82 1407.24 1536.69 Q1411.99 1531.54 1420.01 1531.54 Q1427.2 1531.54 1431.37 1536.18 Q1435.57 1540.8 1435.57 1548.76 M1429.71 1547.04 Q1429.65 1542.23 1427.01 1539.37 Q1424.4 1536.5 1420.07 1536.5 Q1415.17 1536.5 1412.21 1539.27 Q1409.28 1542.04 1408.84 1547.07 L1429.71 1547.04 Z" fill="#000000" fill-rule="nonzero" fill-opacity="1" /><path clip-path="url(#clip740)" d="M1465.84 1537.87 Q1464.85 1537.3 1463.68 1537.04 Q1462.53 1536.76 1461.13 1536.76 Q1456.16 1536.76 1453.49 1540 Q1450.85 1543.22 1450.85 1549.27 L1450.85 1568.04 L1444.96 1568.04 L1444.96 1532.4 L1450.85 1532.4 L1450.85 1537.93 Q1452.69 1534.69 1455.65 1533.13 Q1458.61 1531.54 1462.85 1531.54 Q1463.45 1531.54 1464.18 1531.63 Q1464.92 1531.7 1465.81 1531.85 L1465.84 1537.87 Z" fill="#000000" fill-rule="nonzero" fill-opacity="1" /><path clip-path="url(#clip740)" d="M1498.59 1539.24 Q1500.79 1535.29 1503.84 1533.41 Q1506.9 1531.54 1511.04 1531.54 Q1516.61 1531.54 1519.63 1535.45 Q1522.65 1539.33 1522.65 1546.53 L1522.65 1568.04 L1516.77 1568.04 L1516.77 1546.72 Q1516.77 1541.59 1514.95 1539.11 Q1513.14 1536.63 1509.41 1536.63 Q1504.86 1536.63 1502.22 1539.65 Q1499.58 1542.68 1499.58 1547.9 L1499.58 1568.04 L1493.69 1568.04 L1493.69 1546.72 Q1493.69 1541.56 1491.88 1539.11 Q1490.06 1536.63 1486.27 1536.63 Q1481.79 1536.63 1479.14 1539.68 Q1476.5 1542.71 1476.5 1547.9 L1476.5 1568.04 L1470.61 1568.04 L1470.61 1532.4 L1476.5 1532.4 L1476.5 1537.93 Q1478.51 1534.66 1481.31 1533.1 Q1484.11 1531.54 1487.96 1531.54 Q1491.84 1531.54 1494.55 1533.51 Q1497.29 1535.48 1498.59 1539.24 Z" fill="#000000" fill-rule="nonzero" fill-opacity="1" /><path clip-path="url(#clip740)" d="M1557.06 1533.45 L1557.06 1538.98 Q1554.58 1537.71 1551.9 1537.07 Q1549.23 1536.44 1546.37 1536.44 Q1542.01 1536.44 1539.81 1537.77 Q1537.65 1539.11 1537.65 1541.79 Q1537.65 1543.82 1539.2 1545 Q1540.76 1546.15 1545.47 1547.2 L1547.48 1547.64 Q1553.72 1548.98 1556.33 1551.43 Q1558.97 1553.85 1558.97 1558.21 Q1558.97 1563.17 1555.02 1566.07 Q1551.11 1568.97 1544.23 1568.97 Q1541.37 1568.97 1538.25 1568.39 Q1535.16 1567.85 1531.72 1566.74 L1531.72 1560.69 Q1534.97 1562.38 1538.12 1563.24 Q1541.27 1564.07 1544.36 1564.07 Q1548.5 1564.07 1550.73 1562.66 Q1552.95 1561.23 1552.95 1558.65 Q1552.95 1556.27 1551.33 1554.99 Q1549.74 1553.72 1544.3 1552.54 L1542.26 1552.07 Q1536.82 1550.92 1534.4 1548.56 Q1531.98 1546.18 1531.98 1542.04 Q1531.98 1537.01 1535.54 1534.27 Q1539.11 1531.54 1545.67 1531.54 Q1548.91 1531.54 1551.78 1532.01 Q1554.64 1532.49 1557.06 1533.45 Z" fill="#000000" fill-rule="nonzero" fill-opacity="1" /><polyline clip-path="url(#clip742)" style="stroke:#000000; stroke-linecap:round; stroke-linejoin:round; stroke-width:2; stroke-opacity:0.1; fill:none" points="219.866,1384.24 2352.76,1384.24 "/>
<polyline clip-path="url(#clip742)" style="stroke:#000000; stroke-linecap:round; stroke-linejoin:round; stroke-width:2; stroke-opacity:0.1; fill:none" points="219.866,1104 2352.76,1104 "/>
<polyline clip-path="url(#clip742)" style="stroke:#000000; stroke-linecap:round; stroke-linejoin:round; stroke-width:2; stroke-opacity:0.1; fill:none" points="219.866,823.77 2352.76,823.77 "/>
<polyline clip-path="url(#clip742)" style="stroke:#000000; stroke-linecap:round; stroke-linejoin:round; stroke-width:2; stroke-opacity:0.1; fill:none" points="219.866,543.537 2352.76,543.537 "/>
<polyline clip-path="url(#clip742)" style="stroke:#000000; stroke-linecap:round; stroke-linejoin:round; stroke-width:2; stroke-opacity:0.1; fill:none" points="219.866,263.303 2352.76,263.303 "/>
<polyline clip-path="url(#clip740)" style="stroke:#000000; stroke-linecap:round; stroke-linejoin:round; stroke-width:4; stroke-opacity:1; fill:none" points="219.866,1423.18 219.866,47.2441 "/>
<polyline clip-path="url(#clip740)" style="stroke:#000000; stroke-linecap:round; stroke-linejoin:round; stroke-width:4; stroke-opacity:1; fill:none" points="219.866,1384.24 238.764,1384.24 "/>
<polyline clip-path="url(#clip740)" style="stroke:#000000; stroke-linecap:round; stroke-linejoin:round; stroke-width:4; stroke-opacity:1; fill:none" points="219.866,1104 238.764,1104 "/>
<polyline clip-path="url(#clip740)" style="stroke:#000000; stroke-linecap:round; stroke-linejoin:round; stroke-width:4; stroke-opacity:1; fill:none" points="219.866,823.77 238.764,823.77 "/>
<polyline clip-path="url(#clip740)" style="stroke:#000000; stroke-linecap:round; stroke-linejoin:round; stroke-width:4; stroke-opacity:1; fill:none" points="219.866,543.537 238.764,543.537 "/>
<polyline clip-path="url(#clip740)" style="stroke:#000000; stroke-linecap:round; stroke-linejoin:round; stroke-width:4; stroke-opacity:1; fill:none" points="219.866,263.303 238.764,263.303 "/>
<path clip-path="url(#clip740)" d="M126.691 1370.04 Q123.08 1370.04 121.251 1373.6 Q119.445 1377.14 119.445 1384.27 Q119.445 1391.38 121.251 1394.94 Q123.08 1398.49 126.691 1398.49 Q130.325 1398.49 132.13 1394.94 Q133.959 1391.38 133.959 1384.27 Q133.959 1377.14 132.13 1373.6 Q130.325 1370.04 126.691 1370.04 M126.691 1366.33 Q132.501 1366.33 135.556 1370.94 Q138.635 1375.52 138.635 1384.27 Q138.635 1393 135.556 1397.61 Q132.501 1402.19 126.691 1402.19 Q120.88 1402.19 117.802 1397.61 Q114.746 1393 114.746 1384.27 Q114.746 1375.52 117.802 1370.94 Q120.88 1366.33 126.691 1366.33 Z" fill="#000000" fill-rule="nonzero" fill-opacity="1" /><path clip-path="url(#clip740)" d="M146.853 1395.64 L151.737 1395.64 L151.737 1401.52 L146.853 1401.52 L146.853 1395.64 Z" fill="#000000" fill-rule="nonzero" fill-opacity="1" /><path clip-path="url(#clip740)" d="M171.922 1370.04 Q168.311 1370.04 166.482 1373.6 Q164.677 1377.14 164.677 1384.27 Q164.677 1391.38 166.482 1394.94 Q168.311 1398.49 171.922 1398.49 Q175.556 1398.49 177.362 1394.94 Q179.19 1391.38 179.19 1384.27 Q179.19 1377.14 177.362 1373.6 Q175.556 1370.04 171.922 1370.04 M171.922 1366.33 Q177.732 1366.33 180.788 1370.94 Q183.866 1375.52 183.866 1384.27 Q183.866 1393 180.788 1397.61 Q177.732 1402.19 171.922 1402.19 Q166.112 1402.19 163.033 1397.61 Q159.978 1393 159.978 1384.27 Q159.978 1375.52 163.033 1370.94 Q166.112 1366.33 171.922 1366.33 Z" fill="#000000" fill-rule="nonzero" fill-opacity="1" /><path clip-path="url(#clip740)" d="M128.288 1089.8 Q124.677 1089.8 122.848 1093.37 Q121.043 1096.91 121.043 1104.04 Q121.043 1111.15 122.848 1114.71 Q124.677 1118.25 128.288 1118.25 Q131.922 1118.25 133.728 1114.71 Q135.556 1111.15 135.556 1104.04 Q135.556 1096.91 133.728 1093.37 Q131.922 1089.8 128.288 1089.8 M128.288 1086.1 Q134.098 1086.1 137.154 1090.71 Q140.232 1095.29 140.232 1104.04 Q140.232 1112.77 137.154 1117.37 Q134.098 1121.96 128.288 1121.96 Q122.478 1121.96 119.399 1117.37 Q116.343 1112.77 116.343 1104.04 Q116.343 1095.29 119.399 1090.71 Q122.478 1086.1 128.288 1086.1 Z" fill="#000000" fill-rule="nonzero" fill-opacity="1" /><path clip-path="url(#clip740)" d="M148.45 1115.4 L153.334 1115.4 L153.334 1121.28 L148.45 1121.28 L148.45 1115.4 Z" fill="#000000" fill-rule="nonzero" fill-opacity="1" /><path clip-path="url(#clip740)" d="M167.547 1117.35 L183.866 1117.35 L183.866 1121.28 L161.922 1121.28 L161.922 1117.35 Q164.584 1114.59 169.167 1109.96 Q173.774 1105.31 174.954 1103.97 Q177.2 1101.45 178.079 1099.71 Q178.982 1097.95 178.982 1096.26 Q178.982 1093.51 177.038 1091.77 Q175.116 1090.03 172.014 1090.03 Q169.815 1090.03 167.362 1090.8 Q164.931 1091.56 162.153 1093.11 L162.153 1088.39 Q164.977 1087.26 167.431 1086.68 Q169.885 1086.1 171.922 1086.1 Q177.292 1086.1 180.487 1088.78 Q183.681 1091.47 183.681 1095.96 Q183.681 1098.09 182.871 1100.01 Q182.084 1101.91 179.977 1104.5 Q179.399 1105.17 176.297 1108.39 Q173.195 1111.59 167.547 1117.35 Z" fill="#000000" fill-rule="nonzero" fill-opacity="1" /><path clip-path="url(#clip740)" d="M126.205 809.569 Q122.593 809.569 120.765 813.134 Q118.959 816.676 118.959 823.805 Q118.959 830.912 120.765 834.476 Q122.593 838.018 126.205 838.018 Q129.839 838.018 131.644 834.476 Q133.473 830.912 133.473 823.805 Q133.473 816.676 131.644 813.134 Q129.839 809.569 126.205 809.569 M126.205 805.865 Q132.015 805.865 135.07 810.472 Q138.149 815.055 138.149 823.805 Q138.149 832.532 135.07 837.138 Q132.015 841.722 126.205 841.722 Q120.394 841.722 117.316 837.138 Q114.26 832.532 114.26 823.805 Q114.26 815.055 117.316 810.472 Q120.394 805.865 126.205 805.865 Z" fill="#000000" fill-rule="nonzero" fill-opacity="1" /><path clip-path="url(#clip740)" d="M146.366 835.171 L151.251 835.171 L151.251 841.05 L146.366 841.05 L146.366 835.171 Z" fill="#000000" fill-rule="nonzero" fill-opacity="1" /><path clip-path="url(#clip740)" d="M174.283 810.565 L162.477 829.014 L174.283 829.014 L174.283 810.565 M173.056 806.49 L178.936 806.49 L178.936 829.014 L183.866 829.014 L183.866 832.902 L178.936 832.902 L178.936 841.05 L174.283 841.05 L174.283 832.902 L158.681 832.902 L158.681 828.389 L173.056 806.49 Z" fill="#000000" fill-rule="nonzero" fill-opacity="1" /><path clip-path="url(#clip740)" d="M126.529 529.335 Q122.918 529.335 121.089 532.9 Q119.283 536.442 119.283 543.571 Q119.283 550.678 121.089 554.243 Q122.918 557.784 126.529 557.784 Q130.163 557.784 131.968 554.243 Q133.797 550.678 133.797 543.571 Q133.797 536.442 131.968 532.9 Q130.163 529.335 126.529 529.335 M126.529 525.632 Q132.339 525.632 135.394 530.238 Q138.473 534.821 138.473 543.571 Q138.473 552.298 135.394 556.905 Q132.339 561.488 126.529 561.488 Q120.718 561.488 117.64 556.905 Q114.584 552.298 114.584 543.571 Q114.584 534.821 117.64 530.238 Q120.718 525.632 126.529 525.632 Z" fill="#000000" fill-rule="nonzero" fill-opacity="1" /><path clip-path="url(#clip740)" d="M146.691 554.937 L151.575 554.937 L151.575 560.817 L146.691 560.817 L146.691 554.937 Z" fill="#000000" fill-rule="nonzero" fill-opacity="1" /><path clip-path="url(#clip740)" d="M172.339 541.673 Q169.19 541.673 167.339 543.826 Q165.51 545.979 165.51 549.729 Q165.51 553.456 167.339 555.631 Q169.19 557.784 172.339 557.784 Q175.487 557.784 177.315 555.631 Q179.167 553.456 179.167 549.729 Q179.167 545.979 177.315 543.826 Q175.487 541.673 172.339 541.673 M181.621 527.02 L181.621 531.28 Q179.862 530.446 178.056 530.007 Q176.274 529.567 174.514 529.567 Q169.885 529.567 167.431 532.692 Q165.001 535.817 164.653 542.136 Q166.019 540.122 168.079 539.057 Q170.139 537.969 172.616 537.969 Q177.825 537.969 180.834 541.141 Q183.866 544.289 183.866 549.729 Q183.866 555.053 180.718 558.27 Q177.57 561.488 172.339 561.488 Q166.343 561.488 163.172 556.905 Q160.001 552.298 160.001 543.571 Q160.001 535.377 163.89 530.516 Q167.778 525.632 174.329 525.632 Q176.089 525.632 177.871 525.979 Q179.676 526.326 181.621 527.02 Z" fill="#000000" fill-rule="nonzero" fill-opacity="1" /><path clip-path="url(#clip740)" d="M126.783 249.101 Q123.172 249.101 121.343 252.666 Q119.538 256.208 119.538 263.337 Q119.538 270.444 121.343 274.009 Q123.172 277.55 126.783 277.55 Q130.417 277.55 132.223 274.009 Q134.052 270.444 134.052 263.337 Q134.052 256.208 132.223 252.666 Q130.417 249.101 126.783 249.101 M126.783 245.398 Q132.593 245.398 135.649 250.004 Q138.728 254.587 138.728 263.337 Q138.728 272.064 135.649 276.671 Q132.593 281.254 126.783 281.254 Q120.973 281.254 117.894 276.671 Q114.839 272.064 114.839 263.337 Q114.839 254.587 117.894 250.004 Q120.973 245.398 126.783 245.398 Z" fill="#000000" fill-rule="nonzero" fill-opacity="1" /><path clip-path="url(#clip740)" d="M146.945 274.703 L151.829 274.703 L151.829 280.583 L146.945 280.583 L146.945 274.703 Z" fill="#000000" fill-rule="nonzero" fill-opacity="1" /><path clip-path="url(#clip740)" d="M172.014 264.171 Q168.681 264.171 166.76 265.953 Q164.862 267.736 164.862 270.861 Q164.862 273.986 166.76 275.768 Q168.681 277.55 172.014 277.55 Q175.348 277.55 177.269 275.768 Q179.19 273.962 179.19 270.861 Q179.19 267.736 177.269 265.953 Q175.371 264.171 172.014 264.171 M167.339 262.18 Q164.329 261.439 162.64 259.379 Q160.973 257.319 160.973 254.356 Q160.973 250.213 163.913 247.805 Q166.876 245.398 172.014 245.398 Q177.176 245.398 180.116 247.805 Q183.056 250.213 183.056 254.356 Q183.056 257.319 181.366 259.379 Q179.7 261.439 176.714 262.18 Q180.093 262.967 181.968 265.259 Q183.866 267.55 183.866 270.861 Q183.866 275.884 180.788 278.569 Q177.732 281.254 172.014 281.254 Q166.297 281.254 163.218 278.569 Q160.163 275.884 160.163 270.861 Q160.163 267.55 162.061 265.259 Q163.959 262.967 167.339 262.18 M165.626 254.796 Q165.626 257.481 167.292 258.986 Q168.982 260.49 172.014 260.49 Q175.024 260.49 176.714 258.986 Q178.426 257.481 178.426 254.796 Q178.426 252.111 176.714 250.606 Q175.024 249.101 172.014 249.101 Q168.982 249.101 167.292 250.606 Q165.626 252.111 165.626 254.796 Z" fill="#000000" fill-rule="nonzero" fill-opacity="1" /><path clip-path="url(#clip740)" d="M41.7242 749.598 Q42.4244 747.53 44.7161 745.588 Q47.0077 743.615 51.0181 741.641 L64.0042 735.116 L64.0042 742.023 L51.8138 748.103 Q47.0395 750.458 45.48 752.686 Q43.9204 754.882 43.9204 758.701 L43.9204 765.704 L64.0042 765.704 L64.0042 772.133 L16.4842 772.133 L16.4842 757.619 Q16.4842 749.471 19.8898 745.461 Q23.2955 741.45 30.1704 741.45 Q34.6582 741.45 37.6183 743.551 Q40.5784 745.62 41.7242 749.598 M21.7677 765.704 L38.6368 765.704 L38.6368 757.619 Q38.6368 752.972 36.5043 750.617 Q34.34 748.23 30.1704 748.23 Q26.0009 748.23 23.9002 750.617 Q21.7677 752.972 21.7677 757.619 L21.7677 765.704 Z" fill="#000000" fill-rule="nonzero" fill-opacity="1" /><path clip-path="url(#clip740)" d="M58.5933 720.73 L58.5933 698.291 L64.0042 698.291 L64.0042 728.464 L58.5933 728.464 Q54.8057 724.804 48.44 718.502 Q42.0425 712.168 40.1964 710.545 Q36.7271 707.457 34.34 706.248 Q31.921 705.007 29.5975 705.007 Q25.8099 705.007 23.4228 707.68 Q21.0356 710.322 21.0356 714.587 Q21.0356 717.611 22.086 720.985 Q23.1363 724.327 25.2688 728.146 L18.7758 728.146 Q17.2162 724.263 16.4205 720.889 Q15.6248 717.515 15.6248 714.714 Q15.6248 707.33 19.3169 702.938 Q23.009 698.545 29.1837 698.545 Q32.112 698.545 34.7537 699.659 Q37.3637 700.742 40.9285 703.638 Q41.8515 704.434 46.2757 708.699 Q50.668 712.964 58.5933 720.73 Z" fill="#000000" fill-rule="nonzero" fill-opacity="1" /><polyline clip-path="url(#clip742)" style="stroke:#009af9; stroke-linecap:round; stroke-linejoin:round; stroke-width:4; stroke-opacity:1; fill:none" points="280.231,1384.24 330.535,678.261 380.839,425.054 431.143,344.28 481.447,298.113 531.751,250.325 582.055,227.343 632.359,211.008 682.663,197.56 732.967,186.793 783.271,176.597 833.575,169.862 883.879,164.112 934.183,158.834 984.487,153.823 1034.79,148.682 1085.1,142.409 1135.4,132.341 1185.7,126.397 1236.01,122.236 1286.31,118.167 1336.62,114.321 1386.92,111.92 1437.22,109.599 1487.53,107.315 1537.83,105.293 1588.14,103.811 1638.44,102.295 1688.74,100.541 1739.05,99.1198 1789.35,97.4721 1839.66,96.3046 1889.96,95.2017 1940.26,94.1314 1990.57,93.1743 2040.87,92.2992 2091.18,91.6374 2141.48,88.5728 2191.78,87.7589 2242.09,87.0196 2292.39,86.1857 "/>
<polyline clip-path="url(#clip742)" style="stroke:#e26f46; stroke-linecap:round; stroke-linejoin:round; stroke-width:4; stroke-opacity:1; fill:none" points="280.231,1384.24 330.535,678.261 380.839,425.054 431.143,344.28 481.447,298.113 531.751,250.325 582.055,227.343 632.359,211.008 682.663,197.56 732.967,186.793 783.271,176.597 833.575,169.862 883.879,164.112 934.183,158.834 984.487,153.823 1034.79,148.682 1085.1,142.409 1135.4,132.341 1185.7,126.397 1236.01,122.236 1286.31,118.167 1336.62,114.321 1386.92,111.92 1437.22,109.599 1487.53,107.315 1537.83,105.293 1588.14,103.811 1638.44,102.295 1688.74,100.541 1739.05,99.1198 1789.35,97.4721 1839.66,96.3046 1889.96,95.2017 1940.26,94.1314 1990.57,93.1743 2040.87,92.2992 2091.18,91.6374 2141.48,88.5728 2191.78,87.7589 2242.09,87.0196 2292.39,86.1857 "/>
<path clip-path="url(#clip740)" d="M2015.94 1377.32 L2281.66 1377.32 L2281.66 1221.8 L2015.94 1221.8  Z" fill="#ffffff" fill-rule="evenodd" fill-opacity="1"/>
<polyline clip-path="url(#clip740)" style="stroke:#000000; stroke-linecap:round; stroke-linejoin:round; stroke-width:4; stroke-opacity:1; fill:none" points="2015.94,1377.32 2281.66,1377.32 2281.66,1221.8 2015.94,1221.8 2015.94,1377.32 "/>
<polyline clip-path="url(#clip740)" style="stroke:#009af9; stroke-linecap:round; stroke-linejoin:round; stroke-width:4; stroke-opacity:1; fill:none" points="2039.64,1273.64 2181.83,1273.64 "/>
<path clip-path="url(#clip740)" d="M2219.37 1293.32 Q2217.57 1297.95 2215.85 1299.36 Q2214.14 1300.78 2211.27 1300.78 L2207.87 1300.78 L2207.87 1297.21 L2210.37 1297.21 Q2212.13 1297.21 2213.1 1296.38 Q2214.07 1295.54 2215.25 1292.44 L2216.02 1290.5 L2205.53 1264.99 L2210.04 1264.99 L2218.15 1285.27 L2226.25 1264.99 L2230.76 1264.99 L2219.37 1293.32 Z" fill="#000000" fill-rule="nonzero" fill-opacity="1" /><path clip-path="url(#clip740)" d="M2238.05 1286.98 L2245.69 1286.98 L2245.69 1260.61 L2237.38 1262.28 L2237.38 1258.02 L2245.65 1256.36 L2250.32 1256.36 L2250.32 1286.98 L2257.96 1286.98 L2257.96 1290.92 L2238.05 1290.92 L2238.05 1286.98 Z" fill="#000000" fill-rule="nonzero" fill-opacity="1" /><polyline clip-path="url(#clip740)" style="stroke:#e26f46; stroke-linecap:round; stroke-linejoin:round; stroke-width:4; stroke-opacity:1; fill:none" points="2039.64,1325.48 2181.83,1325.48 "/>
<path clip-path="url(#clip740)" d="M2211.16 1338.82 L2227.47 1338.82 L2227.47 1342.76 L2205.53 1342.76 L2205.53 1338.82 Q2208.19 1336.07 2212.78 1331.44 Q2217.38 1326.78 2218.56 1325.44 Q2220.81 1322.92 2221.69 1321.18 Q2222.59 1319.42 2222.59 1317.73 Q2222.59 1314.98 2220.65 1313.24 Q2218.72 1311.51 2215.62 1311.51 Q2213.42 1311.51 2210.97 1312.27 Q2208.54 1313.03 2205.76 1314.58 L2205.76 1309.86 Q2208.59 1308.73 2211.04 1308.15 Q2213.49 1307.57 2215.53 1307.57 Q2220.9 1307.57 2224.1 1310.26 Q2227.29 1312.94 2227.29 1317.43 Q2227.29 1319.56 2226.48 1321.48 Q2225.69 1323.38 2223.59 1325.97 Q2223.01 1326.64 2219.91 1329.86 Q2216.8 1333.06 2211.16 1338.82 Z" fill="#000000" fill-rule="nonzero" fill-opacity="1" /></svg>
