<?xml version="1.0" encoding="utf-8"?>
<svg xmlns="http://www.w3.org/2000/svg" xmlns:xlink="http://www.w3.org/1999/xlink" width="600" height="400" viewBox="0 0 2400 1600">
<defs>
  <clipPath id="clip100">
    <rect x="0" y="0" width="2400" height="1600"/>
  </clipPath>
</defs>
<path clip-path="url(#clip100)" d="M0 1600 L2400 1600 L2400 0 L0 0  Z" fill="#ffffff" fill-rule="evenodd" fill-opacity="1"/>
<defs>
  <clipPath id="clip101">
    <rect x="480" y="0" width="1681" height="1600"/>
  </clipPath>
</defs>
<path clip-path="url(#clip100)" d="M232.389 1423.18 L2352.76 1423.18 L2352.76 47.2441 L232.389 47.2441  Z" fill="#ffffff" fill-rule="evenodd" fill-opacity="1"/>
<defs>
  <clipPath id="clip102">
    <rect x="232" y="47" width="2121" height="1377"/>
  </clipPath>
</defs>
<polyline clip-path="url(#clip102)" style="stroke:#000000; stroke-linecap:round; stroke-linejoin:round; stroke-width:2; stroke-opacity:0.1; fill:none" points="356.927,1423.18 356.927,47.2441 "/>
<polyline clip-path="url(#clip102)" style="stroke:#000000; stroke-linecap:round; stroke-linejoin:round; stroke-width:2; stroke-opacity:0.1; fill:none" points="679.563,1423.18 679.563,47.2441 "/>
<polyline clip-path="url(#clip102)" style="stroke:#000000; stroke-linecap:round; stroke-linejoin:round; stroke-width:2; stroke-opacity:0.1; fill:none" points="1002.2,1423.18 1002.2,47.2441 "/>
<polyline clip-path="url(#clip102)" style="stroke:#000000; stroke-linecap:round; stroke-linejoin:round; stroke-width:2; stroke-opacity:0.1; fill:none" points="1324.84,1423.18 1324.84,47.2441 "/>
<polyline clip-path="url(#clip102)" style="stroke:#000000; stroke-linecap:round; stroke-linejoin:round; stroke-width:2; stroke-opacity:0.1; fill:none" points="1647.47,1423.18 1647.47,47.2441 "/>
<polyline clip-path="url(#clip102)" style="stroke:#000000; stroke-linecap:round; stroke-linejoin:round; stroke-width:2; stroke-opacity:0.1; fill:none" points="1970.11,1423.18 1970.11,47.2441 "/>
<polyline clip-path="url(#clip102)" style="stroke:#000000; stroke-linecap:round; stroke-linejoin:round; stroke-width:2; stroke-opacity:0.1; fill:none" points="2292.75,1423.18 2292.75,47.2441 "/>
<polyline clip-path="url(#clip100)" style="stroke:#000000; stroke-linecap:round; stroke-linejoin:round; stroke-width:4; stroke-opacity:1; fill:none" points="232.389,1423.18 2352.76,1423.18 "/>
<polyline clip-path="url(#clip100)" style="stroke:#000000; stroke-linecap:round; stroke-linejoin:round; stroke-width:4; stroke-opacity:1; fill:none" points="356.927,1423.18 356.927,1404.28 "/>
<polyline clip-path="url(#clip100)" style="stroke:#000000; stroke-linecap:round; stroke-linejoin:round; stroke-width:4; stroke-opacity:1; fill:none" points="679.563,1423.18 679.563,1404.28 "/>
<polyline clip-path="url(#clip100)" style="stroke:#000000; stroke-linecap:round; stroke-linejoin:round; stroke-width:4; stroke-opacity:1; fill:none" points="1002.2,1423.18 1002.2,1404.28 "/>
<polyline clip-path="url(#clip100)" style="stroke:#000000; stroke-linecap:round; stroke-linejoin:round; stroke-width:4; stroke-opacity:1; fill:none" points="1324.84,1423.18 1324.84,1404.28 "/>
<polyline clip-path="url(#clip100)" style="stroke:#000000; stroke-linecap:round; stroke-linejoin:round; stroke-width:4; stroke-opacity:1; fill:none" points="1647.47,1423.18 1647.47,1404.28 "/>
<polyline clip-path="url(#clip100)" style="stroke:#000000; stroke-linecap:round; stroke-linejoin:round; stroke-width:4; stroke-opacity:1; fill:none" points="1970.11,1423.18 1970.11,1404.28 "/>
<polyline clip-path="url(#clip100)" style="stroke:#000000; stroke-linecap:round; stroke-linejoin:round; stroke-width:4; stroke-opacity:1; fill:none" points="2292.75,1423.18 2292.75,1404.28 "/>
<path clip-path="url(#clip100)" d="M335.7 1481.64 L352.02 1481.64 L352.02 1485.58 L330.075 1485.58 L330.075 1481.64 Q332.737 1478.89 337.321 1474.26 Q341.927 1469.61 343.108 1468.27 Q345.353 1465.74 346.233 1464.01 Q347.135 1462.25 347.135 1460.56 Q347.135 1457.8 345.191 1456.07 Q343.27 1454.33 340.168 1454.33 Q337.969 1454.33 335.515 1455.09 Q333.085 1455.86 330.307 1457.41 L330.307 1452.69 Q333.131 1451.55 335.585 1450.97 Q338.038 1450.39 340.075 1450.39 Q345.446 1450.39 348.64 1453.08 Q351.834 1455.77 351.834 1460.26 Q351.834 1462.39 351.024 1464.31 Q350.237 1466.2 348.131 1468.8 Q347.552 1469.47 344.45 1472.69 Q341.348 1475.88 335.7 1481.64 Z" fill="#000000" fill-rule="nonzero" fill-opacity="1" /><path clip-path="url(#clip100)" d="M371.834 1454.1 Q368.223 1454.1 366.395 1457.66 Q364.589 1461.2 364.589 1468.33 Q364.589 1475.44 366.395 1479.01 Q368.223 1482.55 371.834 1482.55 Q375.469 1482.55 377.274 1479.01 Q379.103 1475.44 379.103 1468.33 Q379.103 1461.2 377.274 1457.66 Q375.469 1454.1 371.834 1454.1 M371.834 1450.39 Q377.644 1450.39 380.7 1455 Q383.779 1459.58 383.779 1468.33 Q383.779 1477.06 380.7 1481.67 Q377.644 1486.25 371.834 1486.25 Q366.024 1486.25 362.945 1481.67 Q359.89 1477.06 359.89 1468.33 Q359.89 1459.58 362.945 1455 Q366.024 1450.39 371.834 1450.39 Z" fill="#000000" fill-rule="nonzero" fill-opacity="1" /><path clip-path="url(#clip100)" d="M668.406 1466.95 Q671.763 1467.66 673.638 1469.93 Q675.536 1472.2 675.536 1475.53 Q675.536 1480.65 672.017 1483.45 Q668.499 1486.25 662.017 1486.25 Q659.841 1486.25 657.527 1485.81 Q655.235 1485.39 652.781 1484.54 L652.781 1480.02 Q654.726 1481.16 657.04 1481.74 Q659.355 1482.32 661.878 1482.32 Q666.276 1482.32 668.568 1480.58 Q670.883 1478.84 670.883 1475.53 Q670.883 1472.48 668.73 1470.77 Q666.601 1469.03 662.781 1469.03 L658.753 1469.03 L658.753 1465.19 L662.966 1465.19 Q666.415 1465.19 668.244 1463.82 Q670.073 1462.43 670.073 1459.84 Q670.073 1457.18 668.175 1455.77 Q666.3 1454.33 662.781 1454.33 Q660.86 1454.33 658.661 1454.75 Q656.462 1455.16 653.823 1456.04 L653.823 1451.88 Q656.485 1451.14 658.8 1450.77 Q661.138 1450.39 663.198 1450.39 Q668.522 1450.39 671.624 1452.83 Q674.725 1455.23 674.725 1459.35 Q674.725 1462.22 673.082 1464.21 Q671.438 1466.18 668.406 1466.95 Z" fill="#000000" fill-rule="nonzero" fill-opacity="1" /><path clip-path="url(#clip100)" d="M694.401 1454.1 Q690.79 1454.1 688.962 1457.66 Q687.156 1461.2 687.156 1468.33 Q687.156 1475.44 688.962 1479.01 Q690.79 1482.55 694.401 1482.55 Q698.036 1482.55 699.841 1479.01 Q701.67 1475.44 701.67 1468.33 Q701.67 1461.2 699.841 1457.66 Q698.036 1454.1 694.401 1454.1 M694.401 1450.39 Q700.211 1450.39 703.267 1455 Q706.346 1459.58 706.346 1468.33 Q706.346 1477.06 703.267 1481.67 Q700.211 1486.25 694.401 1486.25 Q688.591 1486.25 685.512 1481.67 Q682.457 1477.06 682.457 1468.33 Q682.457 1459.58 685.512 1455 Q688.591 1450.39 694.401 1450.39 Z" fill="#000000" fill-rule="nonzero" fill-opacity="1" /><path clip-path="url(#clip100)" d="M990.371 1455.09 L978.566 1473.54 L990.371 1473.54 L990.371 1455.09 M989.144 1451.02 L995.024 1451.02 L995.024 1473.54 L999.954 1473.54 L999.954 1477.43 L995.024 1477.43 L995.024 1485.58 L990.371 1485.58 L990.371 1477.43 L974.769 1477.43 L974.769 1472.92 L989.144 1451.02 Z" fill="#000000" fill-rule="nonzero" fill-opacity="1" /><path clip-path="url(#clip100)" d="M1017.69 1454.1 Q1014.07 1454.1 1012.25 1457.66 Q1010.44 1461.2 1010.44 1468.33 Q1010.44 1475.44 1012.25 1479.01 Q1014.07 1482.55 1017.69 1482.55 Q1021.32 1482.55 1023.13 1479.01 Q1024.95 1475.44 1024.95 1468.33 Q1024.95 1461.2 1023.13 1457.66 Q1021.32 1454.1 1017.69 1454.1 M1017.69 1450.39 Q1023.5 1450.39 1026.55 1455 Q1029.63 1459.58 1029.63 1468.33 Q1029.63 1477.06 1026.55 1481.67 Q1023.5 1486.25 1017.69 1486.25 Q1011.88 1486.25 1008.8 1481.67 Q1005.74 1477.06 1005.74 1468.33 Q1005.74 1459.58 1008.8 1455 Q1011.88 1450.39 1017.69 1450.39 Z" fill="#000000" fill-rule="nonzero" fill-opacity="1" /><path clip-path="url(#clip100)" d="M1299.54 1451.02 L1317.89 1451.02 L1317.89 1454.96 L1303.82 1454.96 L1303.82 1463.43 Q1304.84 1463.08 1305.85 1462.92 Q1306.87 1462.73 1307.89 1462.73 Q1313.68 1462.73 1317.06 1465.9 Q1320.44 1469.08 1320.44 1474.49 Q1320.44 1480.07 1316.97 1483.17 Q1313.49 1486.25 1307.17 1486.25 Q1305 1486.25 1302.73 1485.88 Q1300.48 1485.51 1298.08 1484.77 L1298.08 1480.07 Q1300.16 1481.2 1302.38 1481.76 Q1304.6 1482.32 1307.08 1482.32 Q1311.09 1482.32 1313.42 1480.21 Q1315.76 1478.1 1315.76 1474.49 Q1315.76 1470.88 1313.42 1468.77 Q1311.09 1466.67 1307.08 1466.67 Q1305.21 1466.67 1303.33 1467.08 Q1301.48 1467.5 1299.54 1468.38 L1299.54 1451.02 Z" fill="#000000" fill-rule="nonzero" fill-opacity="1" /><path clip-path="url(#clip100)" d="M1339.65 1454.1 Q1336.04 1454.1 1334.21 1457.66 Q1332.41 1461.2 1332.41 1468.33 Q1332.41 1475.44 1334.21 1479.01 Q1336.04 1482.55 1339.65 1482.55 Q1343.29 1482.55 1345.09 1479.01 Q1346.92 1475.44 1346.92 1468.33 Q1346.92 1461.2 1345.09 1457.66 Q1343.29 1454.1 1339.65 1454.1 M1339.65 1450.39 Q1345.46 1450.39 1348.52 1455 Q1351.6 1459.58 1351.6 1468.33 Q1351.6 1477.06 1348.52 1481.67 Q1345.46 1486.25 1339.65 1486.25 Q1333.84 1486.25 1330.76 1481.67 Q1327.71 1477.06 1327.71 1468.33 Q1327.71 1459.58 1330.76 1455 Q1333.84 1450.39 1339.65 1450.39 Z" fill="#000000" fill-rule="nonzero" fill-opacity="1" /><path clip-path="url(#clip100)" d="M1632.88 1466.44 Q1629.73 1466.44 1627.88 1468.59 Q1626.05 1470.74 1626.05 1474.49 Q1626.05 1478.22 1627.88 1480.39 Q1629.73 1482.55 1632.88 1482.55 Q1636.03 1482.55 1637.85 1480.39 Q1639.71 1478.22 1639.71 1474.49 Q1639.71 1470.74 1637.85 1468.59 Q1636.03 1466.44 1632.88 1466.44 M1642.16 1451.78 L1642.16 1456.04 Q1640.4 1455.21 1638.6 1454.77 Q1636.81 1454.33 1635.05 1454.33 Q1630.42 1454.33 1627.97 1457.45 Q1625.54 1460.58 1625.19 1466.9 Q1626.56 1464.89 1628.62 1463.82 Q1630.68 1462.73 1633.16 1462.73 Q1638.36 1462.73 1641.37 1465.9 Q1644.41 1469.05 1644.41 1474.49 Q1644.41 1479.82 1641.26 1483.03 Q1638.11 1486.25 1632.88 1486.25 Q1626.88 1486.25 1623.71 1481.67 Q1620.54 1477.06 1620.54 1468.33 Q1620.54 1460.14 1624.43 1455.28 Q1628.32 1450.39 1634.87 1450.39 Q1636.63 1450.39 1638.41 1450.74 Q1640.22 1451.09 1642.16 1451.78 Z" fill="#000000" fill-rule="nonzero" fill-opacity="1" /><path clip-path="url(#clip100)" d="M1662.46 1454.1 Q1658.85 1454.1 1657.02 1457.66 Q1655.22 1461.2 1655.22 1468.33 Q1655.22 1475.44 1657.02 1479.01 Q1658.85 1482.55 1662.46 1482.55 Q1666.1 1482.55 1667.9 1479.01 Q1669.73 1475.44 1669.73 1468.33 Q1669.73 1461.2 1667.9 1457.66 Q1666.1 1454.1 1662.46 1454.1 M1662.46 1450.39 Q1668.27 1450.39 1671.33 1455 Q1674.41 1459.58 1674.41 1468.33 Q1674.41 1477.06 1671.33 1481.67 Q1668.27 1486.25 1662.46 1486.25 Q1656.65 1486.25 1653.57 1481.67 Q1650.52 1477.06 1650.52 1468.33 Q1650.52 1459.58 1653.57 1455 Q1656.65 1450.39 1662.46 1450.39 Z" fill="#000000" fill-rule="nonzero" fill-opacity="1" /><path clip-path="url(#clip100)" d="M1943.47 1451.02 L1965.69 1451.02 L1965.69 1453.01 L1953.14 1485.58 L1948.26 1485.58 L1960.06 1454.96 L1943.47 1454.96 L1943.47 1451.02 Z" fill="#000000" fill-rule="nonzero" fill-opacity="1" /><path clip-path="url(#clip100)" d="M1984.81 1454.1 Q1981.2 1454.1 1979.37 1457.66 Q1977.56 1461.2 1977.56 1468.33 Q1977.56 1475.44 1979.37 1479.01 Q1981.2 1482.55 1984.81 1482.55 Q1988.44 1482.55 1990.25 1479.01 Q1992.08 1475.44 1992.08 1468.33 Q1992.08 1461.2 1990.25 1457.66 Q1988.44 1454.1 1984.81 1454.1 M1984.81 1450.39 Q1990.62 1450.39 1993.67 1455 Q1996.75 1459.58 1996.75 1468.33 Q1996.75 1477.06 1993.67 1481.67 Q1990.62 1486.25 1984.81 1486.25 Q1979 1486.25 1975.92 1481.67 Q1972.86 1477.06 1972.86 1468.33 Q1972.86 1459.58 1975.92 1455 Q1979 1450.39 1984.81 1450.39 Z" fill="#000000" fill-rule="nonzero" fill-opacity="1" /><path clip-path="url(#clip100)" d="M2277.62 1469.17 Q2274.28 1469.17 2272.36 1470.95 Q2270.47 1472.73 2270.47 1475.86 Q2270.47 1478.98 2272.36 1480.77 Q2274.28 1482.55 2277.62 1482.55 Q2280.95 1482.55 2282.87 1480.77 Q2284.79 1478.96 2284.79 1475.86 Q2284.79 1472.73 2282.87 1470.95 Q2280.97 1469.17 2277.62 1469.17 M2272.94 1467.18 Q2269.93 1466.44 2268.24 1464.38 Q2266.58 1462.32 2266.58 1459.35 Q2266.58 1455.21 2269.52 1452.8 Q2272.48 1450.39 2277.62 1450.39 Q2282.78 1450.39 2285.72 1452.8 Q2288.66 1455.21 2288.66 1459.35 Q2288.66 1462.32 2286.97 1464.38 Q2285.3 1466.44 2282.32 1467.18 Q2285.7 1467.96 2287.57 1470.26 Q2289.47 1472.55 2289.47 1475.86 Q2289.47 1480.88 2286.39 1483.57 Q2283.34 1486.25 2277.62 1486.25 Q2271.9 1486.25 2268.82 1483.57 Q2265.77 1480.88 2265.77 1475.86 Q2265.77 1472.55 2267.66 1470.26 Q2269.56 1467.96 2272.94 1467.18 M2271.23 1459.79 Q2271.23 1462.48 2272.9 1463.98 Q2274.59 1465.49 2277.62 1465.49 Q2280.63 1465.49 2282.32 1463.98 Q2284.03 1462.48 2284.03 1459.79 Q2284.03 1457.11 2282.32 1455.6 Q2280.63 1454.1 2277.62 1454.1 Q2274.59 1454.1 2272.9 1455.6 Q2271.23 1457.11 2271.23 1459.79 Z" fill="#000000" fill-rule="nonzero" fill-opacity="1" /><path clip-path="url(#clip100)" d="M2307.78 1454.1 Q2304.17 1454.1 2302.34 1457.66 Q2300.53 1461.2 2300.53 1468.33 Q2300.53 1475.44 2302.34 1479.01 Q2304.17 1482.55 2307.78 1482.55 Q2311.41 1482.55 2313.22 1479.01 Q2315.05 1475.44 2315.05 1468.33 Q2315.05 1461.2 2313.22 1457.66 Q2311.41 1454.1 2307.78 1454.1 M2307.78 1450.39 Q2313.59 1450.39 2316.65 1455 Q2319.72 1459.58 2319.72 1468.33 Q2319.72 1477.06 2316.65 1481.67 Q2313.59 1486.25 2307.78 1486.25 Q2301.97 1486.25 2298.89 1481.67 Q2295.84 1477.06 2295.84 1468.33 Q2295.84 1459.58 2298.89 1455 Q2301.97 1450.39 2307.78 1450.39 Z" fill="#000000" fill-rule="nonzero" fill-opacity="1" /><path clip-path="url(#clip100)" d="M1253.3 1526.86 L1244.58 1550.51 L1262.05 1550.51 L1253.3 1526.86 M1249.67 1520.52 L1256.96 1520.52 L1275.07 1568.04 L1268.38 1568.04 L1264.05 1555.85 L1242.63 1555.85 L1238.3 1568.04 L1231.53 1568.04 L1249.67 1520.52 Z" fill="#000000" fill-rule="nonzero" fill-opacity="1" /><path clip-path="url(#clip100)" d="M1305.21 1549.81 Q1305.21 1543.44 1302.57 1539.94 Q1299.96 1536.44 1295.21 1536.44 Q1290.5 1536.44 1287.86 1539.94 Q1285.25 1543.44 1285.25 1549.81 Q1285.25 1556.14 1287.86 1559.64 Q1290.5 1563.14 1295.21 1563.14 Q1299.96 1563.14 1302.57 1559.64 Q1305.21 1556.14 1305.21 1549.81 M1311.07 1563.62 Q1311.07 1572.72 1307.02 1577.15 Q1302.98 1581.6 1294.64 1581.6 Q1291.55 1581.6 1288.82 1581.13 Q1286.08 1580.68 1283.5 1579.72 L1283.5 1574.03 Q1286.08 1575.43 1288.59 1576.1 Q1291.11 1576.76 1293.72 1576.76 Q1299.48 1576.76 1302.34 1573.74 Q1305.21 1570.75 1305.21 1564.67 L1305.21 1561.77 Q1303.39 1564.92 1300.56 1566.48 Q1297.73 1568.04 1293.78 1568.04 Q1287.23 1568.04 1283.22 1563.05 Q1279.2 1558.05 1279.2 1549.81 Q1279.2 1541.53 1283.22 1536.53 Q1287.23 1531.54 1293.78 1531.54 Q1297.73 1531.54 1300.56 1533.1 Q1303.39 1534.66 1305.21 1537.81 L1305.21 1532.4 L1311.07 1532.4 L1311.07 1563.62 Z" fill="#000000" fill-rule="nonzero" fill-opacity="1" /><path clip-path="url(#clip100)" d="M1353.62 1548.76 L1353.62 1551.62 L1326.69 1551.62 Q1327.07 1557.67 1330.32 1560.85 Q1333.6 1564 1339.42 1564 Q1342.8 1564 1345.95 1563.17 Q1349.13 1562.35 1352.25 1560.69 L1352.25 1566.23 Q1349.1 1567.57 1345.79 1568.27 Q1342.48 1568.97 1339.07 1568.97 Q1330.54 1568.97 1325.55 1564 Q1320.58 1559.04 1320.58 1550.57 Q1320.58 1541.82 1325.29 1536.69 Q1330.03 1531.54 1338.06 1531.54 Q1345.25 1531.54 1349.42 1536.18 Q1353.62 1540.8 1353.62 1548.76 M1347.76 1547.04 Q1347.7 1542.23 1345.06 1539.37 Q1342.45 1536.5 1338.12 1536.5 Q1333.22 1536.5 1330.26 1539.27 Q1327.33 1542.04 1326.88 1547.07 L1347.76 1547.04 Z" fill="#000000" fill-rule="nonzero" fill-opacity="1" /><polyline clip-path="url(#clip102)" style="stroke:#000000; stroke-linecap:round; stroke-linejoin:round; stroke-width:2; stroke-opacity:0.1; fill:none" points="232.389,1329.77 2352.76,1329.77 "/>
<polyline clip-path="url(#clip102)" style="stroke:#000000; stroke-linecap:round; stroke-linejoin:round; stroke-width:2; stroke-opacity:0.1; fill:none" points="232.389,1145.55 2352.76,1145.55 "/>
<polyline clip-path="url(#clip102)" style="stroke:#000000; stroke-linecap:round; stroke-linejoin:round; stroke-width:2; stroke-opacity:0.1; fill:none" points="232.389,961.325 2352.76,961.325 "/>
<polyline clip-path="url(#clip102)" style="stroke:#000000; stroke-linecap:round; stroke-linejoin:round; stroke-width:2; stroke-opacity:0.1; fill:none" points="232.389,777.103 2352.76,777.103 "/>
<polyline clip-path="url(#clip102)" style="stroke:#000000; stroke-linecap:round; stroke-linejoin:round; stroke-width:2; stroke-opacity:0.1; fill:none" points="232.389,592.881 2352.76,592.881 "/>
<polyline clip-path="url(#clip102)" style="stroke:#000000; stroke-linecap:round; stroke-linejoin:round; stroke-width:2; stroke-opacity:0.1; fill:none" points="232.389,408.659 2352.76,408.659 "/>
<polyline clip-path="url(#clip102)" style="stroke:#000000; stroke-linecap:round; stroke-linejoin:round; stroke-width:2; stroke-opacity:0.1; fill:none" points="232.389,224.436 2352.76,224.436 "/>
<polyline clip-path="url(#clip100)" style="stroke:#000000; stroke-linecap:round; stroke-linejoin:round; stroke-width:4; stroke-opacity:1; fill:none" points="232.389,1423.18 232.389,47.2441 "/>
<polyline clip-path="url(#clip100)" style="stroke:#000000; stroke-linecap:round; stroke-linejoin:round; stroke-width:4; stroke-opacity:1; fill:none" points="232.389,1329.77 251.287,1329.77 "/>
<polyline clip-path="url(#clip100)" style="stroke:#000000; stroke-linecap:round; stroke-linejoin:round; stroke-width:4; stroke-opacity:1; fill:none" points="232.389,1145.55 251.287,1145.55 "/>
<polyline clip-path="url(#clip100)" style="stroke:#000000; stroke-linecap:round; stroke-linejoin:round; stroke-width:4; stroke-opacity:1; fill:none" points="232.389,961.325 251.287,961.325 "/>
<polyline clip-path="url(#clip100)" style="stroke:#000000; stroke-linecap:round; stroke-linejoin:round; stroke-width:4; stroke-opacity:1; fill:none" points="232.389,777.103 251.287,777.103 "/>
<polyline clip-path="url(#clip100)" style="stroke:#000000; stroke-linecap:round; stroke-linejoin:round; stroke-width:4; stroke-opacity:1; fill:none" points="232.389,592.881 251.287,592.881 "/>
<polyline clip-path="url(#clip100)" style="stroke:#000000; stroke-linecap:round; stroke-linejoin:round; stroke-width:4; stroke-opacity:1; fill:none" points="232.389,408.659 251.287,408.659 "/>
<polyline clip-path="url(#clip100)" style="stroke:#000000; stroke-linecap:round; stroke-linejoin:round; stroke-width:4; stroke-opacity:1; fill:none" points="232.389,224.436 251.287,224.436 "/>
<path clip-path="url(#clip100)" d="M115.927 1343.11 L123.566 1343.11 L123.566 1316.75 L115.256 1318.42 L115.256 1314.16 L123.519 1312.49 L128.195 1312.49 L128.195 1343.11 L135.834 1343.11 L135.834 1347.05 L115.927 1347.05 L115.927 1343.11 Z" fill="#000000" fill-rule="nonzero" fill-opacity="1" /><path clip-path="url(#clip100)" d="M146.089 1343.11 L153.728 1343.11 L153.728 1316.75 L145.417 1318.42 L145.417 1314.16 L153.681 1312.49 L158.357 1312.49 L158.357 1343.11 L165.996 1343.11 L165.996 1347.05 L146.089 1347.05 L146.089 1343.11 Z" fill="#000000" fill-rule="nonzero" fill-opacity="1" /><path clip-path="url(#clip100)" d="M175.487 1312.49 L193.843 1312.49 L193.843 1316.43 L179.769 1316.43 L179.769 1324.9 Q180.788 1324.55 181.806 1324.39 Q182.825 1324.2 183.843 1324.2 Q189.63 1324.2 193.01 1327.37 Q196.389 1330.55 196.389 1335.96 Q196.389 1341.54 192.917 1344.64 Q189.445 1347.72 183.126 1347.72 Q180.95 1347.72 178.681 1347.35 Q176.436 1346.98 174.028 1346.24 L174.028 1341.54 Q176.112 1342.67 178.334 1343.23 Q180.556 1343.79 183.033 1343.79 Q187.038 1343.79 189.375 1341.68 Q191.713 1339.57 191.713 1335.96 Q191.713 1332.35 189.375 1330.24 Q187.038 1328.14 183.033 1328.14 Q181.158 1328.14 179.283 1328.55 Q177.431 1328.97 175.487 1329.85 L175.487 1312.49 Z" fill="#000000" fill-rule="nonzero" fill-opacity="1" /><path clip-path="url(#clip100)" d="M114.931 1158.89 L122.57 1158.89 L122.57 1132.53 L114.26 1134.19 L114.26 1129.93 L122.524 1128.27 L127.2 1128.27 L127.2 1158.89 L134.839 1158.89 L134.839 1162.83 L114.931 1162.83 L114.931 1158.89 Z" fill="#000000" fill-rule="nonzero" fill-opacity="1" /><path clip-path="url(#clip100)" d="M148.311 1158.89 L164.63 1158.89 L164.63 1162.83 L142.686 1162.83 L142.686 1158.89 Q145.348 1156.14 149.931 1151.51 Q154.538 1146.86 155.718 1145.51 Q157.964 1142.99 158.843 1141.25 Q159.746 1139.49 159.746 1137.8 Q159.746 1135.05 157.802 1133.31 Q155.88 1131.58 152.778 1131.58 Q150.579 1131.58 148.126 1132.34 Q145.695 1133.11 142.917 1134.66 L142.917 1129.93 Q145.741 1128.8 148.195 1128.22 Q150.649 1127.64 152.686 1127.64 Q158.056 1127.64 161.251 1130.33 Q164.445 1133.01 164.445 1137.5 Q164.445 1139.63 163.635 1141.55 Q162.848 1143.45 160.741 1146.05 Q160.163 1146.72 157.061 1149.93 Q153.959 1153.13 148.311 1158.89 Z" fill="#000000" fill-rule="nonzero" fill-opacity="1" /><path clip-path="url(#clip100)" d="M184.445 1131.35 Q180.834 1131.35 179.005 1134.91 Q177.2 1138.45 177.2 1145.58 Q177.2 1152.69 179.005 1156.25 Q180.834 1159.8 184.445 1159.8 Q188.079 1159.8 189.885 1156.25 Q191.713 1152.69 191.713 1145.58 Q191.713 1138.45 189.885 1134.91 Q188.079 1131.35 184.445 1131.35 M184.445 1127.64 Q190.255 1127.64 193.311 1132.25 Q196.389 1136.83 196.389 1145.58 Q196.389 1154.31 193.311 1158.92 Q190.255 1163.5 184.445 1163.5 Q178.635 1163.5 175.556 1158.92 Q172.501 1154.31 172.501 1145.58 Q172.501 1136.83 175.556 1132.25 Q178.635 1127.64 184.445 1127.64 Z" fill="#000000" fill-rule="nonzero" fill-opacity="1" /><path clip-path="url(#clip100)" d="M115.927 974.67 L123.566 974.67 L123.566 948.305 L115.256 949.971 L115.256 945.712 L123.519 944.045 L128.195 944.045 L128.195 974.67 L135.834 974.67 L135.834 978.605 L115.927 978.605 L115.927 974.67 Z" fill="#000000" fill-rule="nonzero" fill-opacity="1" /><path clip-path="url(#clip100)" d="M149.306 974.67 L165.626 974.67 L165.626 978.605 L143.681 978.605 L143.681 974.67 Q146.343 971.916 150.927 967.286 Q155.533 962.633 156.714 961.291 Q158.959 958.767 159.839 957.031 Q160.741 955.272 160.741 953.582 Q160.741 950.828 158.797 949.092 Q156.876 947.355 153.774 947.355 Q151.575 947.355 149.121 948.119 Q146.691 948.883 143.913 950.434 L143.913 945.712 Q146.737 944.578 149.191 943.999 Q151.644 943.42 153.681 943.42 Q159.052 943.42 162.246 946.105 Q165.44 948.791 165.44 953.281 Q165.44 955.411 164.63 957.332 Q163.843 959.23 161.737 961.823 Q161.158 962.494 158.056 965.712 Q154.954 968.906 149.306 974.67 Z" fill="#000000" fill-rule="nonzero" fill-opacity="1" /><path clip-path="url(#clip100)" d="M175.487 944.045 L193.843 944.045 L193.843 947.98 L179.769 947.98 L179.769 956.453 Q180.788 956.105 181.806 955.943 Q182.825 955.758 183.843 955.758 Q189.63 955.758 193.01 958.93 Q196.389 962.101 196.389 967.517 Q196.389 973.096 192.917 976.198 Q189.445 979.277 183.126 979.277 Q180.95 979.277 178.681 978.906 Q176.436 978.536 174.028 977.795 L174.028 973.096 Q176.112 974.23 178.334 974.786 Q180.556 975.341 183.033 975.341 Q187.038 975.341 189.375 973.235 Q191.713 971.129 191.713 967.517 Q191.713 963.906 189.375 961.8 Q187.038 959.693 183.033 959.693 Q181.158 959.693 179.283 960.11 Q177.431 960.527 175.487 961.406 L175.487 944.045 Z" fill="#000000" fill-rule="nonzero" fill-opacity="1" /><path clip-path="url(#clip100)" d="M114.931 790.448 L122.57 790.448 L122.57 764.082 L114.26 765.749 L114.26 761.49 L122.524 759.823 L127.2 759.823 L127.2 790.448 L134.839 790.448 L134.839 794.383 L114.931 794.383 L114.931 790.448 Z" fill="#000000" fill-rule="nonzero" fill-opacity="1" /><path clip-path="url(#clip100)" d="M158.45 775.749 Q161.806 776.466 163.681 778.735 Q165.579 781.004 165.579 784.337 Q165.579 789.453 162.061 792.253 Q158.542 795.054 152.061 795.054 Q149.885 795.054 147.57 794.615 Q145.279 794.198 142.825 793.341 L142.825 788.828 Q144.769 789.962 147.084 790.54 Q149.399 791.119 151.922 791.119 Q156.32 791.119 158.612 789.383 Q160.927 787.647 160.927 784.337 Q160.927 781.281 158.774 779.568 Q156.644 777.832 152.825 777.832 L148.797 777.832 L148.797 773.99 L153.01 773.99 Q156.459 773.99 158.288 772.624 Q160.116 771.235 160.116 768.642 Q160.116 765.98 158.218 764.568 Q156.343 763.133 152.825 763.133 Q150.903 763.133 148.704 763.55 Q146.505 763.967 143.866 764.846 L143.866 760.68 Q146.529 759.939 148.843 759.568 Q151.181 759.198 153.241 759.198 Q158.565 759.198 161.667 761.629 Q164.769 764.036 164.769 768.156 Q164.769 771.027 163.126 773.017 Q161.482 774.985 158.45 775.749 Z" fill="#000000" fill-rule="nonzero" fill-opacity="1" /><path clip-path="url(#clip100)" d="M184.445 762.902 Q180.834 762.902 179.005 766.467 Q177.2 770.008 177.2 777.138 Q177.2 784.244 179.005 787.809 Q180.834 791.351 184.445 791.351 Q188.079 791.351 189.885 787.809 Q191.713 784.244 191.713 777.138 Q191.713 770.008 189.885 766.467 Q188.079 762.902 184.445 762.902 M184.445 759.198 Q190.255 759.198 193.311 763.805 Q196.389 768.388 196.389 777.138 Q196.389 785.865 193.311 790.471 Q190.255 795.054 184.445 795.054 Q178.635 795.054 175.556 790.471 Q172.501 785.865 172.501 777.138 Q172.501 768.388 175.556 763.805 Q178.635 759.198 184.445 759.198 Z" fill="#000000" fill-rule="nonzero" fill-opacity="1" /><path clip-path="url(#clip100)" d="M115.927 606.226 L123.566 606.226 L123.566 579.86 L115.256 581.527 L115.256 577.267 L123.519 575.601 L128.195 575.601 L128.195 606.226 L135.834 606.226 L135.834 610.161 L115.927 610.161 L115.927 606.226 Z" fill="#000000" fill-rule="nonzero" fill-opacity="1" /><path clip-path="url(#clip100)" d="M159.445 591.527 Q162.802 592.244 164.677 594.513 Q166.575 596.781 166.575 600.115 Q166.575 605.23 163.056 608.031 Q159.538 610.832 153.056 610.832 Q150.88 610.832 148.566 610.392 Q146.274 609.976 143.82 609.119 L143.82 604.605 Q145.765 605.74 148.079 606.318 Q150.394 606.897 152.917 606.897 Q157.315 606.897 159.607 605.161 Q161.922 603.425 161.922 600.115 Q161.922 597.059 159.769 595.346 Q157.64 593.61 153.82 593.61 L149.792 593.61 L149.792 589.767 L154.005 589.767 Q157.454 589.767 159.283 588.402 Q161.112 587.013 161.112 584.42 Q161.112 581.758 159.214 580.346 Q157.339 578.911 153.82 578.911 Q151.899 578.911 149.7 579.328 Q147.501 579.744 144.862 580.624 L144.862 576.457 Q147.524 575.717 149.839 575.346 Q152.177 574.976 154.237 574.976 Q159.561 574.976 162.663 577.406 Q165.765 579.814 165.765 583.934 Q165.765 586.804 164.121 588.795 Q162.477 590.763 159.445 591.527 Z" fill="#000000" fill-rule="nonzero" fill-opacity="1" /><path clip-path="url(#clip100)" d="M175.487 575.601 L193.843 575.601 L193.843 579.536 L179.769 579.536 L179.769 588.008 Q180.788 587.661 181.806 587.499 Q182.825 587.314 183.843 587.314 Q189.63 587.314 193.01 590.485 Q196.389 593.656 196.389 599.073 Q196.389 604.652 192.917 607.753 Q189.445 610.832 183.126 610.832 Q180.95 610.832 178.681 610.462 Q176.436 610.091 174.028 609.351 L174.028 604.652 Q176.112 605.786 178.334 606.341 Q180.556 606.897 183.033 606.897 Q187.038 606.897 189.375 604.79 Q191.713 602.684 191.713 599.073 Q191.713 595.462 189.375 593.355 Q187.038 591.249 183.033 591.249 Q181.158 591.249 179.283 591.666 Q177.431 592.082 175.487 592.962 L175.487 575.601 Z" fill="#000000" fill-rule="nonzero" fill-opacity="1" /><path clip-path="url(#clip100)" d="M114.931 422.003 L122.57 422.003 L122.57 395.638 L114.26 397.304 L114.26 393.045 L122.524 391.379 L127.2 391.379 L127.2 422.003 L134.839 422.003 L134.839 425.939 L114.931 425.939 L114.931 422.003 Z" fill="#000000" fill-rule="nonzero" fill-opacity="1" /><path clip-path="url(#clip100)" d="M157.13 395.453 L145.325 413.902 L157.13 413.902 L157.13 395.453 M155.903 391.379 L161.783 391.379 L161.783 413.902 L166.714 413.902 L166.714 417.79 L161.783 417.79 L161.783 425.939 L157.13 425.939 L157.13 417.79 L141.529 417.79 L141.529 413.277 L155.903 391.379 Z" fill="#000000" fill-rule="nonzero" fill-opacity="1" /><path clip-path="url(#clip100)" d="M184.445 394.457 Q180.834 394.457 179.005 398.022 Q177.2 401.564 177.2 408.693 Q177.2 415.8 179.005 419.365 Q180.834 422.906 184.445 422.906 Q188.079 422.906 189.885 419.365 Q191.713 415.8 191.713 408.693 Q191.713 401.564 189.885 398.022 Q188.079 394.457 184.445 394.457 M184.445 390.754 Q190.255 390.754 193.311 395.36 Q196.389 399.943 196.389 408.693 Q196.389 417.42 193.311 422.027 Q190.255 426.61 184.445 426.61 Q178.635 426.61 175.556 422.027 Q172.501 417.42 172.501 408.693 Q172.501 399.943 175.556 395.36 Q178.635 390.754 184.445 390.754 Z" fill="#000000" fill-rule="nonzero" fill-opacity="1" /><path clip-path="url(#clip100)" d="M115.927 237.781 L123.566 237.781 L123.566 211.416 L115.256 213.082 L115.256 208.823 L123.519 207.156 L128.195 207.156 L128.195 237.781 L135.834 237.781 L135.834 241.716 L115.927 241.716 L115.927 237.781 Z" fill="#000000" fill-rule="nonzero" fill-opacity="1" /><path clip-path="url(#clip100)" d="M158.126 211.23 L146.32 229.679 L158.126 229.679 L158.126 211.23 M156.899 207.156 L162.778 207.156 L162.778 229.679 L167.709 229.679 L167.709 233.568 L162.778 233.568 L162.778 241.716 L158.126 241.716 L158.126 233.568 L142.524 233.568 L142.524 229.054 L156.899 207.156 Z" fill="#000000" fill-rule="nonzero" fill-opacity="1" /><path clip-path="url(#clip100)" d="M175.487 207.156 L193.843 207.156 L193.843 211.091 L179.769 211.091 L179.769 219.564 Q180.788 219.216 181.806 219.054 Q182.825 218.869 183.843 218.869 Q189.63 218.869 193.01 222.04 Q196.389 225.212 196.389 230.628 Q196.389 236.207 192.917 239.309 Q189.445 242.388 183.126 242.388 Q180.95 242.388 178.681 242.017 Q176.436 241.647 174.028 240.906 L174.028 236.207 Q176.112 237.341 178.334 237.897 Q180.556 238.452 183.033 238.452 Q187.038 238.452 189.375 236.346 Q191.713 234.239 191.713 230.628 Q191.713 227.017 189.375 224.911 Q187.038 222.804 183.033 222.804 Q181.158 222.804 179.283 223.221 Q177.431 223.638 175.487 224.517 L175.487 207.156 Z" fill="#000000" fill-rule="nonzero" fill-opacity="1" /><path clip-path="url(#clip100)" d="M18.0438 764.065 L24.314 764.065 Q22.5634 767.725 21.704 770.971 Q20.8447 774.218 20.8447 777.242 Q20.8447 782.493 22.8817 785.358 Q24.9187 788.191 28.6745 788.191 Q31.8255 788.191 33.4488 786.313 Q35.0402 784.403 36.0269 779.119 L36.8226 775.236 Q38.1912 768.043 41.6605 764.637 Q45.098 761.2 50.8908 761.2 Q57.7976 761.2 61.3624 765.847 Q64.9272 770.462 64.9272 779.406 Q64.9272 782.78 64.1633 786.599 Q63.3994 790.387 61.9035 794.461 L55.2831 794.461 Q57.4793 790.546 58.5933 786.79 Q59.7073 783.034 59.7073 779.406 Q59.7073 773.9 57.543 770.908 Q55.3786 767.916 51.3682 767.916 Q47.8671 767.916 45.8937 770.08 Q43.9204 772.213 42.9337 777.114 L42.1698 781.029 Q40.7375 788.222 37.682 791.437 Q34.6264 794.652 29.1837 794.652 Q22.8817 794.652 19.2532 790.228 Q15.6248 785.772 15.6248 777.974 Q15.6248 774.632 16.2295 771.162 Q16.8343 767.693 18.0438 764.065 Z" fill="#000000" fill-rule="nonzero" fill-opacity="1" /><path clip-path="url(#clip100)" d="M41.3104 744.745 L58.7206 744.745 L58.7206 734.432 Q58.7206 729.244 56.5881 726.761 Q54.4238 724.247 49.9996 724.247 Q45.5436 724.247 43.4429 726.761 Q41.3104 729.244 41.3104 734.432 L41.3104 744.745 M21.7677 744.745 L36.0905 744.745 L36.0905 735.228 Q36.0905 730.517 34.34 728.226 Q32.5576 725.902 28.9291 725.902 Q25.3325 725.902 23.5501 728.226 Q21.7677 730.517 21.7677 735.228 L21.7677 744.745 M16.4842 751.174 L16.4842 734.75 Q16.4842 727.398 19.5397 723.419 Q22.5952 719.441 28.2289 719.441 Q32.5894 719.441 35.1675 721.478 Q37.7456 723.515 38.3822 727.462 Q39.4007 722.719 42.6472 720.109 Q45.8619 717.468 50.6998 717.468 Q57.0655 717.468 60.5348 721.796 Q64.0042 726.125 64.0042 734.114 L64.0042 751.174 L16.4842 751.174 Z" fill="#000000" fill-rule="nonzero" fill-opacity="1" /><path clip-path="url(#clip100)" d="M21.7677 700.026 L39.6235 700.026 L39.6235 691.941 Q39.6235 687.453 37.3 685.002 Q34.9765 682.552 30.6797 682.552 Q26.4147 682.552 24.0912 685.002 Q21.7677 687.453 21.7677 691.941 L21.7677 700.026 M16.4842 706.455 L16.4842 691.941 Q16.4842 683.952 20.1126 679.878 Q23.7092 675.772 30.6797 675.772 Q37.7138 675.772 41.3104 679.878 Q44.907 683.952 44.907 691.941 L44.907 700.026 L64.0042 700.026 L64.0042 706.455 L16.4842 706.455 Z" fill="#000000" fill-rule="nonzero" fill-opacity="1" /><polyline clip-path="url(#clip102)" style="stroke:#009af9; stroke-linecap:round; stroke-linejoin:round; stroke-width:4; stroke-opacity:1; fill:none" points="292.4,1384.24 312.605,1378.85 332.811,1373.47 353.016,1368.08 373.222,1362.69 393.427,1357.31 413.633,1351.92 433.838,1346.53 454.044,1341.15 474.249,1335.76 494.455,1330.37 514.66,1324.99 534.866,1319.6 555.071,1314.21 575.277,1308.83 595.482,1303.44 615.688,1298.05 635.893,1292.67 656.099,1287.28 676.304,1281.89 696.51,1276.51 716.715,1271.12 736.921,1265.73 757.127,1260.35 777.332,1254.96 797.538,1249.57 817.743,1237.33 837.949,1217.86 858.154,1199.85 878.36,1183.26 898.565,1168.03 918.771,1154.12 938.976,1141.47 959.182,1130.03 979.387,1119.75 999.593,1110.57 1019.8,1102.44 1040,1095.32 1060.21,1089.15 1080.41,1083.88 1100.62,1079.45 1120.83,1075.82 1141.03,1072.94 1161.24,1070.74 1181.44,1069.19 1201.65,1068.22 1221.85,1067.79 1242.06,1067.84 1262.26,1068.33 1282.47,1069.2 1302.68,1042.77 1322.88,990.889 1343.09,942.175 1363.29,897.032 1383.5,855.813 1403.7,818.824 1423.91,786.319 1444.11,758.502 1464.32,735.529 1484.53,717.504 1504.73,702.624 1524.94,683.214 1545.14,668.766 1565.35,659.186 1585.55,654.329 1605.76,653.999 1625.96,657.952 1646.17,665.893 1666.37,677.477 1686.58,681.611 1706.79,666.536 1726.99,652.437 1747.2,639.248 1767.4,626.897 1787.61,615.3 1807.81,604.366 1828.02,593.992 1848.22,584.069 1868.43,574.476 1888.64,565.084 1908.84,555.754 1929.05,546.338 1949.25,536.679 1969.46,526.609 1989.66,515.954 2009.87,504.528 2030.07,492.137 2050.28,478.576 2070.48,463.633 2090.69,447.085 2110.9,428.7 2131.1,408.237 2151.31,382.756 2171.51,357.009 2191.72,331.058 2211.92,304.904 2232.13,278.546 2252.33,251.985 2272.54,225.22 2292.75,198.251 "/>
<polyline clip-path="url(#clip102)" style="stroke:#e26f46; stroke-linecap:round; stroke-linejoin:round; stroke-width:4; stroke-opacity:1; fill:none" points="292.4,1340.12 312.605,1334.73 332.811,1329.34 353.016,1323.96 373.222,1318.57 393.427,1313.18 413.633,1307.8 433.838,1302.41 454.044,1297.03 474.249,1291.64 494.455,1286.25 514.66,1280.87 534.866,1275.48 555.071,1270.09 575.277,1264.71 595.482,1259.32 615.688,1253.93 635.893,1248.55 656.099,1243.16 676.304,1237.77 696.51,1232.39 716.715,1227 736.921,1221.61 757.127,1216.23 777.332,1210.84 797.538,1205.45 817.743,1193.21 837.949,1173.73 858.154,1155.73 878.36,1139.14 898.565,1123.91 918.771,1110 938.976,1097.35 959.182,1085.91 979.387,1075.62 999.593,1066.45 1019.8,1058.32 1040,1051.2 1060.21,1045.03 1080.41,1039.76 1100.62,1035.33 1120.83,1031.7 1141.03,1028.82 1161.24,1026.62 1181.44,1025.07 1201.65,1024.1 1221.85,1023.67 1242.06,1023.72 1262.26,1024.21 1282.47,1025.08 1302.68,998.649 1322.88,946.768 1343.09,898.054 1363.29,852.911 1383.5,811.692 1403.7,774.703 1423.91,742.198 1444.11,714.381 1464.32,691.408 1484.53,673.383 1504.73,658.503 1524.94,639.093 1545.14,624.645 1565.35,615.065 1585.55,610.208 1605.76,609.878 1625.96,613.831 1646.17,621.772 1666.37,633.356 1686.58,637.49 1706.79,622.415 1726.99,608.316 1747.2,595.127 1767.4,582.776 1787.61,571.179 1807.81,560.245 1828.02,549.871 1848.22,539.948 1868.43,530.355 1888.64,520.963 1908.84,511.633 1929.05,502.217 1949.25,492.558 1969.46,482.488 1989.66,471.833 2009.87,460.407 2030.07,448.016 2050.28,434.455 2070.48,419.512 2090.69,402.964 2110.9,384.579 2131.1,364.116 2151.31,338.635 2171.51,312.888 2191.72,286.937 2211.92,260.783 2232.13,234.425 2252.33,207.864 2272.54,181.099 2292.75,154.13 "/>
<polyline clip-path="url(#clip102)" style="stroke:#3da44d; stroke-linecap:round; stroke-linejoin:round; stroke-width:4; stroke-opacity:1; fill:none" points="292.4,1272.17 312.605,1266.79 332.811,1261.4 353.016,1256.01 373.222,1250.63 393.427,1245.24 413.633,1239.85 433.838,1234.47 454.044,1229.08 474.249,1223.69 494.455,1218.31 514.66,1212.92 534.866,1207.53 555.071,1202.15 575.277,1196.76 595.482,1191.38 615.688,1185.99 635.893,1180.6 656.099,1175.22 676.304,1169.83 696.51,1164.44 716.715,1159.06 736.921,1153.67 757.127,1148.28 777.332,1142.9 797.538,1137.51 817.743,1125.27 837.949,1105.79 858.154,1087.78 878.36,1071.19 898.565,1055.97 918.771,1042.06 938.976,1029.41 959.182,1017.96 979.387,1007.68 999.593,998.502 1019.8,990.378 1040,983.257 1060.21,977.086 1080.41,971.814 1100.62,967.389 1120.83,963.759 1141.03,960.872 1161.24,958.677 1181.44,957.122 1201.65,956.155 1221.85,955.724 1242.06,955.778 1262.26,956.264 1282.47,957.131 1302.68,930.704 1322.88,878.824 1343.09,830.11 1363.29,784.967 1383.5,743.748 1403.7,706.759 1423.91,674.254 1444.11,646.437 1464.32,623.464 1484.53,605.439 1504.73,590.559 1524.94,571.149 1545.14,556.701 1565.35,547.121 1585.55,542.264 1605.76,541.934 1625.96,545.887 1646.17,553.828 1666.37,565.412 1686.58,569.546 1706.79,554.471 1726.99,540.371 1747.2,527.183 1767.4,514.831 1787.61,503.235 1807.81,492.301 1828.02,481.927 1848.22,472.004 1868.43,462.411 1888.64,453.019 1908.84,443.689 1929.05,434.273 1949.25,424.613 1969.46,414.544 1989.66,403.889 2009.87,392.463 2030.07,380.072 2050.28,366.511 2070.48,351.568 2090.69,335.02 2110.9,316.635 2131.1,296.172 2151.31,270.691 2171.51,244.944 2191.72,218.993 2211.92,192.839 2232.13,166.481 2252.33,139.919 2272.54,113.154 2292.75,86.1857 "/>
<path clip-path="url(#clip100)" d="M303.068 300.469 L694.757 300.469 L694.757 93.1086 L303.068 93.1086  Z" fill="#ffffff" fill-rule="evenodd" fill-opacity="1"/>
<polyline clip-path="url(#clip100)" style="stroke:#000000; stroke-linecap:round; stroke-linejoin:round; stroke-width:4; stroke-opacity:1; fill:none" points="303.068,300.469 694.757,300.469 694.757,93.1086 303.068,93.1086 303.068,300.469 "/>
<polyline clip-path="url(#clip100)" style="stroke:#009af9; stroke-linecap:round; stroke-linejoin:round; stroke-width:4; stroke-opacity:1; fill:none" points="326.628,144.949 467.986,144.949 "/>
<path clip-path="url(#clip100)" d="M496.221 145.724 L496.221 158.386 L503.721 158.386 Q507.494 158.386 509.3 156.835 Q511.128 155.261 511.128 152.043 Q511.128 148.803 509.3 147.275 Q507.494 145.724 503.721 145.724 L496.221 145.724 M496.221 131.511 L496.221 141.928 L503.142 141.928 Q506.568 141.928 508.235 140.655 Q509.925 139.358 509.925 136.719 Q509.925 134.104 508.235 132.807 Q506.568 131.511 503.142 131.511 L496.221 131.511 M491.545 127.669 L503.49 127.669 Q508.837 127.669 511.73 129.891 Q514.624 132.113 514.624 136.21 Q514.624 139.382 513.142 141.257 Q511.661 143.131 508.791 143.594 Q512.24 144.335 514.138 146.696 Q516.059 149.034 516.059 152.553 Q516.059 157.182 512.911 159.705 Q509.763 162.229 503.953 162.229 L491.545 162.229 L491.545 127.669 Z" fill="#000000" fill-rule="nonzero" fill-opacity="1" /><path clip-path="url(#clip100)" d="M524.068 127.669 L531.036 127.669 L539.855 151.187 L548.721 127.669 L555.688 127.669 L555.688 162.229 L551.128 162.229 L551.128 131.882 L542.216 155.585 L537.517 155.585 L528.605 131.882 L528.605 162.229 L524.068 162.229 L524.068 127.669 Z" fill="#000000" fill-rule="nonzero" fill-opacity="1" /><path clip-path="url(#clip100)" d="M564.971 127.669 L569.647 127.669 L569.647 162.229 L564.971 162.229 L564.971 127.669 Z" fill="#000000" fill-rule="nonzero" fill-opacity="1" /><path clip-path="url(#clip100)" d="M579.323 140.701 L608.998 140.701 L608.998 144.59 L579.323 144.59 L579.323 140.701 M579.323 150.145 L608.998 150.145 L608.998 154.081 L579.323 154.081 L579.323 150.145 Z" fill="#000000" fill-rule="nonzero" fill-opacity="1" /><path clip-path="url(#clip100)" d="M623.119 158.293 L639.438 158.293 L639.438 162.229 L617.494 162.229 L617.494 158.293 Q620.156 155.539 624.739 150.909 Q629.345 146.256 630.526 144.914 Q632.771 142.391 633.651 140.655 Q634.554 138.895 634.554 137.206 Q634.554 134.451 632.609 132.715 Q630.688 130.979 627.586 130.979 Q625.387 130.979 622.933 131.743 Q620.503 132.507 617.725 134.057 L617.725 129.335 Q620.549 128.201 623.003 127.622 Q625.457 127.044 627.494 127.044 Q632.864 127.044 636.058 129.729 Q639.253 132.414 639.253 136.905 Q639.253 139.034 638.443 140.956 Q637.656 142.854 635.549 145.446 Q634.97 146.118 631.869 149.335 Q628.767 152.53 623.119 158.293 Z" fill="#000000" fill-rule="nonzero" fill-opacity="1" /><path clip-path="url(#clip100)" d="M649.299 127.669 L667.655 127.669 L667.655 131.604 L653.581 131.604 L653.581 140.076 Q654.6 139.729 655.618 139.567 Q656.637 139.382 657.655 139.382 Q663.442 139.382 666.822 142.553 Q670.202 145.724 670.202 151.141 Q670.202 156.719 666.73 159.821 Q663.257 162.9 656.938 162.9 Q654.762 162.9 652.493 162.53 Q650.248 162.159 647.841 161.418 L647.841 156.719 Q649.924 157.854 652.146 158.409 Q654.368 158.965 656.845 158.965 Q660.85 158.965 663.188 156.858 Q665.526 154.752 665.526 151.141 Q665.526 147.53 663.188 145.423 Q660.85 143.317 656.845 143.317 Q654.97 143.317 653.095 143.733 Q651.243 144.15 649.299 145.03 L649.299 127.669 Z" fill="#000000" fill-rule="nonzero" fill-opacity="1" /><polyline clip-path="url(#clip100)" style="stroke:#e26f46; stroke-linecap:round; stroke-linejoin:round; stroke-width:4; stroke-opacity:1; fill:none" points="326.628,196.789 467.986,196.789 "/>
<path clip-path="url(#clip100)" d="M496.221 197.564 L496.221 210.226 L503.721 210.226 Q507.494 210.226 509.3 208.675 Q511.128 207.101 511.128 203.883 Q511.128 200.643 509.3 199.115 Q507.494 197.564 503.721 197.564 L496.221 197.564 M496.221 183.351 L496.221 193.768 L503.142 193.768 Q506.568 193.768 508.235 192.495 Q509.925 191.198 509.925 188.559 Q509.925 185.944 508.235 184.647 Q506.568 183.351 503.142 183.351 L496.221 183.351 M491.545 179.509 L503.49 179.509 Q508.837 179.509 511.73 181.731 Q514.624 183.953 514.624 188.05 Q514.624 191.222 513.142 193.097 Q511.661 194.971 508.791 195.434 Q512.24 196.175 514.138 198.536 Q516.059 200.874 516.059 204.393 Q516.059 209.022 512.911 211.545 Q509.763 214.069 503.953 214.069 L491.545 214.069 L491.545 179.509 Z" fill="#000000" fill-rule="nonzero" fill-opacity="1" /><path clip-path="url(#clip100)" d="M524.068 179.509 L531.036 179.509 L539.855 203.027 L548.721 179.509 L555.688 179.509 L555.688 214.069 L551.128 214.069 L551.128 183.722 L542.216 207.425 L537.517 207.425 L528.605 183.722 L528.605 214.069 L524.068 214.069 L524.068 179.509 Z" fill="#000000" fill-rule="nonzero" fill-opacity="1" /><path clip-path="url(#clip100)" d="M564.971 179.509 L569.647 179.509 L569.647 214.069 L564.971 214.069 L564.971 179.509 Z" fill="#000000" fill-rule="nonzero" fill-opacity="1" /><path clip-path="url(#clip100)" d="M579.323 192.541 L608.998 192.541 L608.998 196.43 L579.323 196.43 L579.323 192.541 M579.323 201.985 L608.998 201.985 L608.998 205.921 L579.323 205.921 L579.323 201.985 Z" fill="#000000" fill-rule="nonzero" fill-opacity="1" /><path clip-path="url(#clip100)" d="M633.257 195.434 Q636.614 196.152 638.489 198.421 Q640.387 200.689 640.387 204.022 Q640.387 209.138 636.869 211.939 Q633.35 214.74 626.869 214.74 Q624.693 214.74 622.378 214.3 Q620.086 213.883 617.633 213.027 L617.633 208.513 Q619.577 209.647 621.892 210.226 Q624.207 210.805 626.73 210.805 Q631.128 210.805 633.419 209.069 Q635.734 207.333 635.734 204.022 Q635.734 200.967 633.582 199.254 Q631.452 197.518 627.632 197.518 L623.605 197.518 L623.605 193.675 L627.818 193.675 Q631.267 193.675 633.095 192.309 Q634.924 190.921 634.924 188.328 Q634.924 185.666 633.026 184.254 Q631.151 182.819 627.632 182.819 Q625.711 182.819 623.512 183.235 Q621.313 183.652 618.674 184.532 L618.674 180.365 Q621.336 179.624 623.651 179.254 Q625.989 178.884 628.049 178.884 Q633.373 178.884 636.475 181.314 Q639.577 183.722 639.577 187.842 Q639.577 190.712 637.933 192.703 Q636.29 194.671 633.257 195.434 Z" fill="#000000" fill-rule="nonzero" fill-opacity="1" /><path clip-path="url(#clip100)" d="M659.253 182.587 Q655.642 182.587 653.813 186.152 Q652.007 189.694 652.007 196.823 Q652.007 203.93 653.813 207.495 Q655.642 211.036 659.253 211.036 Q662.887 211.036 664.692 207.495 Q666.521 203.93 666.521 196.823 Q666.521 189.694 664.692 186.152 Q662.887 182.587 659.253 182.587 M659.253 178.884 Q665.063 178.884 668.118 183.49 Q671.197 188.073 671.197 196.823 Q671.197 205.55 668.118 210.157 Q665.063 214.74 659.253 214.74 Q653.443 214.74 650.364 210.157 Q647.308 205.55 647.308 196.823 Q647.308 188.073 650.364 183.49 Q653.443 178.884 659.253 178.884 Z" fill="#000000" fill-rule="nonzero" fill-opacity="1" /><polyline clip-path="url(#clip100)" style="stroke:#3da44d; stroke-linecap:round; stroke-linejoin:round; stroke-width:4; stroke-opacity:1; fill:none" points="326.628,248.629 467.986,248.629 "/>
<path clip-path="url(#clip100)" d="M496.221 249.404 L496.221 262.066 L503.721 262.066 Q507.494 262.066 509.3 260.515 Q511.128 258.941 511.128 255.723 Q511.128 252.483 509.3 250.955 Q507.494 249.404 503.721 249.404 L496.221 249.404 M496.221 235.191 L496.221 245.608 L503.142 245.608 Q506.568 245.608 508.235 244.335 Q509.925 243.038 509.925 240.399 Q509.925 237.784 508.235 236.487 Q506.568 235.191 503.142 235.191 L496.221 235.191 M491.545 231.349 L503.49 231.349 Q508.837 231.349 511.73 233.571 Q514.624 235.793 514.624 239.89 Q514.624 243.062 513.142 244.937 Q511.661 246.811 508.791 247.274 Q512.24 248.015 514.138 250.376 Q516.059 252.714 516.059 256.233 Q516.059 260.862 512.911 263.385 Q509.763 265.909 503.953 265.909 L491.545 265.909 L491.545 231.349 Z" fill="#000000" fill-rule="nonzero" fill-opacity="1" /><path clip-path="url(#clip100)" d="M524.068 231.349 L531.036 231.349 L539.855 254.867 L548.721 231.349 L555.688 231.349 L555.688 265.909 L551.128 265.909 L551.128 235.562 L542.216 259.265 L537.517 259.265 L528.605 235.562 L528.605 265.909 L524.068 265.909 L524.068 231.349 Z" fill="#000000" fill-rule="nonzero" fill-opacity="1" /><path clip-path="url(#clip100)" d="M564.971 231.349 L569.647 231.349 L569.647 265.909 L564.971 265.909 L564.971 231.349 Z" fill="#000000" fill-rule="nonzero" fill-opacity="1" /><path clip-path="url(#clip100)" d="M579.323 244.381 L608.998 244.381 L608.998 248.27 L579.323 248.27 L579.323 244.381 M579.323 253.825 L608.998 253.825 L608.998 257.761 L579.323 257.761 L579.323 253.825 Z" fill="#000000" fill-rule="nonzero" fill-opacity="1" /><path clip-path="url(#clip100)" d="M633.257 247.274 Q636.614 247.992 638.489 250.261 Q640.387 252.529 640.387 255.862 Q640.387 260.978 636.869 263.779 Q633.35 266.58 626.869 266.58 Q624.693 266.58 622.378 266.14 Q620.086 265.723 617.633 264.867 L617.633 260.353 Q619.577 261.487 621.892 262.066 Q624.207 262.645 626.73 262.645 Q631.128 262.645 633.419 260.909 Q635.734 259.173 635.734 255.862 Q635.734 252.807 633.582 251.094 Q631.452 249.358 627.632 249.358 L623.605 249.358 L623.605 245.515 L627.818 245.515 Q631.267 245.515 633.095 244.149 Q634.924 242.761 634.924 240.168 Q634.924 237.506 633.026 236.094 Q631.151 234.659 627.632 234.659 Q625.711 234.659 623.512 235.075 Q621.313 235.492 618.674 236.372 L618.674 232.205 Q621.336 231.464 623.651 231.094 Q625.989 230.724 628.049 230.724 Q633.373 230.724 636.475 233.154 Q639.577 235.562 639.577 239.682 Q639.577 242.552 637.933 244.543 Q636.29 246.511 633.257 247.274 Z" fill="#000000" fill-rule="nonzero" fill-opacity="1" /><path clip-path="url(#clip100)" d="M649.299 231.349 L667.655 231.349 L667.655 235.284 L653.581 235.284 L653.581 243.756 Q654.6 243.409 655.618 243.247 Q656.637 243.062 657.655 243.062 Q663.442 243.062 666.822 246.233 Q670.202 249.404 670.202 254.821 Q670.202 260.399 666.73 263.501 Q663.257 266.58 656.938 266.58 Q654.762 266.58 652.493 266.21 Q650.248 265.839 647.841 265.098 L647.841 260.399 Q649.924 261.534 652.146 262.089 Q654.368 262.645 656.845 262.645 Q660.85 262.645 663.188 260.538 Q665.526 258.432 665.526 254.821 Q665.526 251.21 663.188 249.103 Q660.85 246.997 656.845 246.997 Q654.97 246.997 653.095 247.413 Q651.243 247.83 649.299 248.71 L649.299 231.349 Z" fill="#000000" fill-rule="nonzero" fill-opacity="1" /></svg>
