<?xml version="1.0" encoding="utf-8"?>
<svg xmlns="http://www.w3.org/2000/svg" xmlns:xlink="http://www.w3.org/1999/xlink" width="600" height="400" viewBox="0 0 2400 1600">
<defs>
  <clipPath id="clip160">
    <rect x="0" y="0" width="2400" height="1600"/>
  </clipPath>
</defs>
<path clip-path="url(#clip160)" d="M0 1600 L2400 1600 L2400 0 L0 0  Z" fill="#ffffff" fill-rule="evenodd" fill-opacity="1"/>
<defs>
  <clipPath id="clip161">
    <rect x="480" y="0" width="1681" height="1600"/>
  </clipPath>
</defs>
<path clip-path="url(#clip160)" d="M256.209 1423.18 L2352.76 1423.18 L2352.76 47.2441 L256.209 47.2441  Z" fill="#ffffff" fill-rule="evenodd" fill-opacity="1"/>
<defs>
  <clipPath id="clip162">
    <rect x="256" y="47" width="2098" height="1377"/>
  </clipPath>
</defs>
<polyline clip-path="url(#clip162)" style="stroke:#000000; stroke-linecap:round; stroke-linejoin:round; stroke-width:2; stroke-opacity:0.1; fill:none" points="379.347,1423.18 379.347,47.2441 "/>
<polyline clip-path="url(#clip162)" style="stroke:#000000; stroke-linecap:round; stroke-linejoin:round; stroke-width:2; stroke-opacity:0.1; fill:none" points="698.359,1423.18 698.359,47.2441 "/>
<polyline clip-path="url(#clip162)" style="stroke:#000000; stroke-linecap:round; stroke-linejoin:round; stroke-width:2; stroke-opacity:0.1; fill:none" points="1017.37,1423.18 1017.37,47.2441 "/>
<polyline clip-path="url(#clip162)" style="stroke:#000000; stroke-linecap:round; stroke-linejoin:round; stroke-width:2; stroke-opacity:0.1; fill:none" points="1336.38,1423.18 1336.38,47.2441 "/>
<polyline clip-path="url(#clip162)" style="stroke:#000000; stroke-linecap:round; stroke-linejoin:round; stroke-width:2; stroke-opacity:0.1; fill:none" points="1655.4,1423.18 1655.4,47.2441 "/>
<polyline clip-path="url(#clip162)" style="stroke:#000000; stroke-linecap:round; stroke-linejoin:round; stroke-width:2; stroke-opacity:0.1; fill:none" points="1974.41,1423.18 1974.41,47.2441 "/>
<polyline clip-path="url(#clip162)" style="stroke:#000000; stroke-linecap:round; stroke-linejoin:round; stroke-width:2; stroke-opacity:0.1; fill:none" points="2293.42,1423.18 2293.42,47.2441 "/>
<polyline clip-path="url(#clip160)" style="stroke:#000000; stroke-linecap:round; stroke-linejoin:round; stroke-width:4; stroke-opacity:1; fill:none" points="256.209,1423.18 2352.76,1423.18 "/>
<polyline clip-path="url(#clip160)" style="stroke:#000000; stroke-linecap:round; stroke-linejoin:round; stroke-width:4; stroke-opacity:1; fill:none" points="379.347,1423.18 379.347,1404.28 "/>
<polyline clip-path="url(#clip160)" style="stroke:#000000; stroke-linecap:round; stroke-linejoin:round; stroke-width:4; stroke-opacity:1; fill:none" points="698.359,1423.18 698.359,1404.28 "/>
<polyline clip-path="url(#clip160)" style="stroke:#000000; stroke-linecap:round; stroke-linejoin:round; stroke-width:4; stroke-opacity:1; fill:none" points="1017.37,1423.18 1017.37,1404.28 "/>
<polyline clip-path="url(#clip160)" style="stroke:#000000; stroke-linecap:round; stroke-linejoin:round; stroke-width:4; stroke-opacity:1; fill:none" points="1336.38,1423.18 1336.38,1404.28 "/>
<polyline clip-path="url(#clip160)" style="stroke:#000000; stroke-linecap:round; stroke-linejoin:round; stroke-width:4; stroke-opacity:1; fill:none" points="1655.4,1423.18 1655.4,1404.28 "/>
<polyline clip-path="url(#clip160)" style="stroke:#000000; stroke-linecap:round; stroke-linejoin:round; stroke-width:4; stroke-opacity:1; fill:none" points="1974.41,1423.18 1974.41,1404.28 "/>
<polyline clip-path="url(#clip160)" style="stroke:#000000; stroke-linecap:round; stroke-linejoin:round; stroke-width:4; stroke-opacity:1; fill:none" points="2293.42,1423.18 2293.42,1404.28 "/>
<path clip-path="url(#clip160)" d="M358.121 1481.64 L374.44 1481.64 L374.44 1485.58 L352.496 1485.58 L352.496 1481.64 Q355.158 1478.89 359.741 1474.26 Q364.347 1469.61 365.528 1468.27 Q367.773 1465.74 368.653 1464.01 Q369.556 1462.25 369.556 1460.56 Q369.556 1457.8 367.611 1456.07 Q365.69 1454.33 362.588 1454.33 Q360.389 1454.33 357.935 1455.09 Q355.505 1455.86 352.727 1457.41 L352.727 1452.69 Q355.551 1451.55 358.005 1450.97 Q360.459 1450.39 362.496 1450.39 Q367.866 1450.39 371.06 1453.08 Q374.255 1455.77 374.255 1460.26 Q374.255 1462.39 373.445 1464.31 Q372.658 1466.2 370.551 1468.8 Q369.972 1469.47 366.871 1472.69 Q363.769 1475.88 358.121 1481.64 Z" fill="#000000" fill-rule="nonzero" fill-opacity="1" /><path clip-path="url(#clip160)" d="M394.255 1454.1 Q390.644 1454.1 388.815 1457.66 Q387.009 1461.2 387.009 1468.33 Q387.009 1475.44 388.815 1479.01 Q390.644 1482.55 394.255 1482.55 Q397.889 1482.55 399.694 1479.01 Q401.523 1475.44 401.523 1468.33 Q401.523 1461.2 399.694 1457.66 Q397.889 1454.1 394.255 1454.1 M394.255 1450.39 Q400.065 1450.39 403.12 1455 Q406.199 1459.58 406.199 1468.33 Q406.199 1477.06 403.12 1481.67 Q400.065 1486.25 394.255 1486.25 Q388.444 1486.25 385.366 1481.67 Q382.31 1477.06 382.31 1468.33 Q382.31 1459.58 385.366 1455 Q388.444 1450.39 394.255 1450.39 Z" fill="#000000" fill-rule="nonzero" fill-opacity="1" /><path clip-path="url(#clip160)" d="M687.202 1466.95 Q690.558 1467.66 692.433 1469.93 Q694.332 1472.2 694.332 1475.53 Q694.332 1480.65 690.813 1483.45 Q687.295 1486.25 680.813 1486.25 Q678.637 1486.25 676.322 1485.81 Q674.031 1485.39 671.577 1484.54 L671.577 1480.02 Q673.522 1481.16 675.836 1481.74 Q678.151 1482.32 680.674 1482.32 Q685.072 1482.32 687.364 1480.58 Q689.679 1478.84 689.679 1475.53 Q689.679 1472.48 687.526 1470.77 Q685.396 1469.03 681.577 1469.03 L677.549 1469.03 L677.549 1465.19 L681.762 1465.19 Q685.211 1465.19 687.04 1463.82 Q688.869 1462.43 688.869 1459.84 Q688.869 1457.18 686.971 1455.77 Q685.096 1454.33 681.577 1454.33 Q679.656 1454.33 677.457 1454.75 Q675.258 1455.16 672.619 1456.04 L672.619 1451.88 Q675.281 1451.14 677.596 1450.77 Q679.934 1450.39 681.994 1450.39 Q687.318 1450.39 690.42 1452.83 Q693.521 1455.23 693.521 1459.35 Q693.521 1462.22 691.878 1464.21 Q690.234 1466.18 687.202 1466.95 Z" fill="#000000" fill-rule="nonzero" fill-opacity="1" /><path clip-path="url(#clip160)" d="M713.197 1454.1 Q709.586 1454.1 707.757 1457.66 Q705.952 1461.2 705.952 1468.33 Q705.952 1475.44 707.757 1479.01 Q709.586 1482.55 713.197 1482.55 Q716.831 1482.55 718.637 1479.01 Q720.466 1475.44 720.466 1468.33 Q720.466 1461.2 718.637 1457.66 Q716.831 1454.1 713.197 1454.1 M713.197 1450.39 Q719.007 1450.39 722.063 1455 Q725.142 1459.58 725.142 1468.33 Q725.142 1477.06 722.063 1481.67 Q719.007 1486.25 713.197 1486.25 Q707.387 1486.25 704.308 1481.67 Q701.253 1477.06 701.253 1468.33 Q701.253 1459.58 704.308 1455 Q707.387 1450.39 713.197 1450.39 Z" fill="#000000" fill-rule="nonzero" fill-opacity="1" /><path clip-path="url(#clip160)" d="M1005.54 1455.09 L993.737 1473.54 L1005.54 1473.54 L1005.54 1455.09 M1004.32 1451.02 L1010.2 1451.02 L1010.2 1473.54 L1015.13 1473.54 L1015.13 1477.43 L1010.2 1477.43 L1010.2 1485.58 L1005.54 1485.58 L1005.54 1477.43 L989.941 1477.43 L989.941 1472.92 L1004.32 1451.02 Z" fill="#000000" fill-rule="nonzero" fill-opacity="1" /><path clip-path="url(#clip160)" d="M1032.86 1454.1 Q1029.25 1454.1 1027.42 1457.66 Q1025.61 1461.2 1025.61 1468.33 Q1025.61 1475.44 1027.42 1479.01 Q1029.25 1482.55 1032.86 1482.55 Q1036.49 1482.55 1038.3 1479.01 Q1040.13 1475.44 1040.13 1468.33 Q1040.13 1461.2 1038.3 1457.66 Q1036.49 1454.1 1032.86 1454.1 M1032.86 1450.39 Q1038.67 1450.39 1041.72 1455 Q1044.8 1459.58 1044.8 1468.33 Q1044.8 1477.06 1041.72 1481.67 Q1038.67 1486.25 1032.86 1486.25 Q1027.05 1486.25 1023.97 1481.67 Q1020.91 1477.06 1020.91 1468.33 Q1020.91 1459.58 1023.97 1455 Q1027.05 1450.39 1032.86 1450.39 Z" fill="#000000" fill-rule="nonzero" fill-opacity="1" /><path clip-path="url(#clip160)" d="M1311.08 1451.02 L1329.44 1451.02 L1329.44 1454.96 L1315.37 1454.96 L1315.37 1463.43 Q1316.38 1463.08 1317.4 1462.92 Q1318.42 1462.73 1319.44 1462.73 Q1325.23 1462.73 1328.61 1465.9 Q1331.99 1469.08 1331.99 1474.49 Q1331.99 1480.07 1328.51 1483.17 Q1325.04 1486.25 1318.72 1486.25 Q1316.55 1486.25 1314.28 1485.88 Q1312.03 1485.51 1309.62 1484.77 L1309.62 1480.07 Q1311.71 1481.2 1313.93 1481.76 Q1316.15 1482.32 1318.63 1482.32 Q1322.63 1482.32 1324.97 1480.21 Q1327.31 1478.1 1327.31 1474.49 Q1327.31 1470.88 1324.97 1468.77 Q1322.63 1466.67 1318.63 1466.67 Q1316.75 1466.67 1314.88 1467.08 Q1313.03 1467.5 1311.08 1468.38 L1311.08 1451.02 Z" fill="#000000" fill-rule="nonzero" fill-opacity="1" /><path clip-path="url(#clip160)" d="M1351.2 1454.1 Q1347.59 1454.1 1345.76 1457.66 Q1343.95 1461.2 1343.95 1468.33 Q1343.95 1475.44 1345.76 1479.01 Q1347.59 1482.55 1351.2 1482.55 Q1354.83 1482.55 1356.64 1479.01 Q1358.47 1475.44 1358.47 1468.33 Q1358.47 1461.2 1356.64 1457.66 Q1354.83 1454.1 1351.2 1454.1 M1351.2 1450.39 Q1357.01 1450.39 1360.06 1455 Q1363.14 1459.58 1363.14 1468.33 Q1363.14 1477.06 1360.06 1481.67 Q1357.01 1486.25 1351.2 1486.25 Q1345.39 1486.25 1342.31 1481.67 Q1339.25 1477.06 1339.25 1468.33 Q1339.25 1459.58 1342.31 1455 Q1345.39 1450.39 1351.2 1450.39 Z" fill="#000000" fill-rule="nonzero" fill-opacity="1" /><path clip-path="url(#clip160)" d="M1640.8 1466.44 Q1637.65 1466.44 1635.8 1468.59 Q1633.97 1470.74 1633.97 1474.49 Q1633.97 1478.22 1635.8 1480.39 Q1637.65 1482.55 1640.8 1482.55 Q1643.95 1482.55 1645.78 1480.39 Q1647.63 1478.22 1647.63 1474.49 Q1647.63 1470.74 1645.78 1468.59 Q1643.95 1466.44 1640.8 1466.44 M1650.08 1451.78 L1650.08 1456.04 Q1648.32 1455.21 1646.52 1454.77 Q1644.74 1454.33 1642.98 1454.33 Q1638.35 1454.33 1635.89 1457.45 Q1633.46 1460.58 1633.12 1466.9 Q1634.48 1464.89 1636.54 1463.82 Q1638.6 1462.73 1641.08 1462.73 Q1646.29 1462.73 1649.3 1465.9 Q1652.33 1469.05 1652.33 1474.49 Q1652.33 1479.82 1649.18 1483.03 Q1646.03 1486.25 1640.8 1486.25 Q1634.81 1486.25 1631.63 1481.67 Q1628.46 1477.06 1628.46 1468.33 Q1628.46 1460.14 1632.35 1455.28 Q1636.24 1450.39 1642.79 1450.39 Q1644.55 1450.39 1646.33 1450.74 Q1648.14 1451.09 1650.08 1451.78 Z" fill="#000000" fill-rule="nonzero" fill-opacity="1" /><path clip-path="url(#clip160)" d="M1670.38 1454.1 Q1666.77 1454.1 1664.94 1457.66 Q1663.14 1461.2 1663.14 1468.33 Q1663.14 1475.44 1664.94 1479.01 Q1666.77 1482.55 1670.38 1482.55 Q1674.02 1482.55 1675.82 1479.01 Q1677.65 1475.44 1677.65 1468.33 Q1677.65 1461.2 1675.82 1457.66 Q1674.02 1454.1 1670.38 1454.1 M1670.38 1450.39 Q1676.19 1450.39 1679.25 1455 Q1682.33 1459.58 1682.33 1468.33 Q1682.33 1477.06 1679.25 1481.67 Q1676.19 1486.25 1670.38 1486.25 Q1664.57 1486.25 1661.5 1481.67 Q1658.44 1477.06 1658.44 1468.33 Q1658.44 1459.58 1661.5 1455 Q1664.57 1450.39 1670.38 1450.39 Z" fill="#000000" fill-rule="nonzero" fill-opacity="1" /><path clip-path="url(#clip160)" d="M1947.76 1451.02 L1969.99 1451.02 L1969.99 1453.01 L1957.44 1485.58 L1952.56 1485.58 L1964.36 1454.96 L1947.76 1454.96 L1947.76 1451.02 Z" fill="#000000" fill-rule="nonzero" fill-opacity="1" /><path clip-path="url(#clip160)" d="M1989.11 1454.1 Q1985.5 1454.1 1983.67 1457.66 Q1981.86 1461.2 1981.86 1468.33 Q1981.86 1475.44 1983.67 1479.01 Q1985.5 1482.55 1989.11 1482.55 Q1992.74 1482.55 1994.55 1479.01 Q1996.38 1475.44 1996.38 1468.33 Q1996.38 1461.2 1994.55 1457.66 Q1992.74 1454.1 1989.11 1454.1 M1989.11 1450.39 Q1994.92 1450.39 1997.97 1455 Q2001.05 1459.58 2001.05 1468.33 Q2001.05 1477.06 1997.97 1481.67 Q1994.92 1486.25 1989.11 1486.25 Q1983.3 1486.25 1980.22 1481.67 Q1977.16 1477.06 1977.16 1468.33 Q1977.16 1459.58 1980.22 1455 Q1983.3 1450.39 1989.11 1450.39 Z" fill="#000000" fill-rule="nonzero" fill-opacity="1" /><path clip-path="url(#clip160)" d="M2278.29 1469.17 Q2274.96 1469.17 2273.04 1470.95 Q2271.14 1472.73 2271.14 1475.86 Q2271.14 1478.98 2273.04 1480.77 Q2274.96 1482.55 2278.29 1482.55 Q2281.63 1482.55 2283.55 1480.77 Q2285.47 1478.96 2285.47 1475.86 Q2285.47 1472.73 2283.55 1470.95 Q2281.65 1469.17 2278.29 1469.17 M2273.62 1467.18 Q2270.61 1466.44 2268.92 1464.38 Q2267.25 1462.32 2267.25 1459.35 Q2267.25 1455.21 2270.19 1452.8 Q2273.15 1450.39 2278.29 1450.39 Q2283.45 1450.39 2286.39 1452.8 Q2289.33 1455.21 2289.33 1459.35 Q2289.33 1462.32 2287.64 1464.38 Q2285.98 1466.44 2282.99 1467.18 Q2286.37 1467.96 2288.25 1470.26 Q2290.14 1472.55 2290.14 1475.86 Q2290.14 1480.88 2287.07 1483.57 Q2284.01 1486.25 2278.29 1486.25 Q2272.57 1486.25 2269.5 1483.57 Q2266.44 1480.88 2266.44 1475.86 Q2266.44 1472.55 2268.34 1470.26 Q2270.24 1467.96 2273.62 1467.18 M2271.9 1459.79 Q2271.9 1462.48 2273.57 1463.98 Q2275.26 1465.49 2278.29 1465.49 Q2281.3 1465.49 2282.99 1463.98 Q2284.7 1462.48 2284.7 1459.79 Q2284.7 1457.11 2282.99 1455.6 Q2281.3 1454.1 2278.29 1454.1 Q2275.26 1454.1 2273.57 1455.6 Q2271.9 1457.11 2271.9 1459.79 Z" fill="#000000" fill-rule="nonzero" fill-opacity="1" /><path clip-path="url(#clip160)" d="M2308.45 1454.1 Q2304.84 1454.1 2303.01 1457.66 Q2301.21 1461.2 2301.21 1468.33 Q2301.21 1475.44 2303.01 1479.01 Q2304.84 1482.55 2308.45 1482.55 Q2312.09 1482.55 2313.89 1479.01 Q2315.72 1475.44 2315.72 1468.33 Q2315.72 1461.2 2313.89 1457.66 Q2312.09 1454.1 2308.45 1454.1 M2308.45 1450.39 Q2314.26 1450.39 2317.32 1455 Q2320.4 1459.58 2320.4 1468.33 Q2320.4 1477.06 2317.32 1481.67 Q2314.26 1486.25 2308.45 1486.25 Q2302.64 1486.25 2299.57 1481.67 Q2296.51 1477.06 2296.51 1468.33 Q2296.51 1459.58 2299.57 1455 Q2302.64 1450.39 2308.45 1450.39 Z" fill="#000000" fill-rule="nonzero" fill-opacity="1" /><path clip-path="url(#clip160)" d="M1265.21 1526.86 L1256.48 1550.51 L1273.96 1550.51 L1265.21 1526.86 M1261.58 1520.52 L1268.87 1520.52 L1286.98 1568.04 L1280.29 1568.04 L1275.96 1555.85 L1254.54 1555.85 L1250.21 1568.04 L1243.44 1568.04 L1261.58 1520.52 Z" fill="#000000" fill-rule="nonzero" fill-opacity="1" /><path clip-path="url(#clip160)" d="M1317.12 1549.81 Q1317.12 1543.44 1314.48 1539.94 Q1311.87 1536.44 1307.12 1536.44 Q1302.41 1536.44 1299.77 1539.94 Q1297.16 1543.44 1297.16 1549.81 Q1297.16 1556.14 1299.77 1559.64 Q1302.41 1563.14 1307.12 1563.14 Q1311.87 1563.14 1314.48 1559.64 Q1317.12 1556.14 1317.12 1549.81 M1322.97 1563.62 Q1322.97 1572.72 1318.93 1577.15 Q1314.89 1581.6 1306.55 1581.6 Q1303.46 1581.6 1300.73 1581.13 Q1297.99 1580.68 1295.41 1579.72 L1295.41 1574.03 Q1297.99 1575.43 1300.5 1576.1 Q1303.02 1576.76 1305.63 1576.76 Q1311.39 1576.76 1314.25 1573.74 Q1317.12 1570.75 1317.12 1564.67 L1317.12 1561.77 Q1315.3 1564.92 1312.47 1566.48 Q1309.64 1568.04 1305.69 1568.04 Q1299.14 1568.04 1295.12 1563.05 Q1291.11 1558.05 1291.11 1549.81 Q1291.11 1541.53 1295.12 1536.53 Q1299.14 1531.54 1305.69 1531.54 Q1309.64 1531.54 1312.47 1533.1 Q1315.3 1534.66 1317.12 1537.81 L1317.12 1532.4 L1322.97 1532.4 L1322.97 1563.62 Z" fill="#000000" fill-rule="nonzero" fill-opacity="1" /><path clip-path="url(#clip160)" d="M1365.53 1548.76 L1365.53 1551.62 L1338.6 1551.62 Q1338.98 1557.67 1342.23 1560.85 Q1345.51 1564 1351.33 1564 Q1354.71 1564 1357.86 1563.17 Q1361.04 1562.35 1364.16 1560.69 L1364.16 1566.23 Q1361.01 1567.57 1357.7 1568.27 Q1354.39 1568.97 1350.98 1568.97 Q1342.45 1568.97 1337.46 1564 Q1332.49 1559.04 1332.49 1550.57 Q1332.49 1541.82 1337.2 1536.69 Q1341.94 1531.54 1349.97 1531.54 Q1357.16 1531.54 1361.33 1536.18 Q1365.53 1540.8 1365.53 1548.76 M1359.67 1547.04 Q1359.61 1542.23 1356.97 1539.37 Q1354.36 1536.5 1350.03 1536.5 Q1345.13 1536.5 1342.17 1539.27 Q1339.24 1542.04 1338.79 1547.07 L1359.67 1547.04 Z" fill="#000000" fill-rule="nonzero" fill-opacity="1" /><polyline clip-path="url(#clip162)" style="stroke:#000000; stroke-linecap:round; stroke-linejoin:round; stroke-width:2; stroke-opacity:0.1; fill:none" points="256.209,1141.55 2352.76,1141.55 "/>
<polyline clip-path="url(#clip162)" style="stroke:#000000; stroke-linecap:round; stroke-linejoin:round; stroke-width:2; stroke-opacity:0.1; fill:none" points="256.209,842.402 2352.76,842.402 "/>
<polyline clip-path="url(#clip162)" style="stroke:#000000; stroke-linecap:round; stroke-linejoin:round; stroke-width:2; stroke-opacity:0.1; fill:none" points="256.209,543.257 2352.76,543.257 "/>
<polyline clip-path="url(#clip162)" style="stroke:#000000; stroke-linecap:round; stroke-linejoin:round; stroke-width:2; stroke-opacity:0.1; fill:none" points="256.209,244.112 2352.76,244.112 "/>
<polyline clip-path="url(#clip160)" style="stroke:#000000; stroke-linecap:round; stroke-linejoin:round; stroke-width:4; stroke-opacity:1; fill:none" points="256.209,1423.18 256.209,47.2441 "/>
<polyline clip-path="url(#clip160)" style="stroke:#000000; stroke-linecap:round; stroke-linejoin:round; stroke-width:4; stroke-opacity:1; fill:none" points="256.209,1141.55 275.106,1141.55 "/>
<polyline clip-path="url(#clip160)" style="stroke:#000000; stroke-linecap:round; stroke-linejoin:round; stroke-width:4; stroke-opacity:1; fill:none" points="256.209,842.402 275.106,842.402 "/>
<polyline clip-path="url(#clip160)" style="stroke:#000000; stroke-linecap:round; stroke-linejoin:round; stroke-width:4; stroke-opacity:1; fill:none" points="256.209,543.257 275.106,543.257 "/>
<polyline clip-path="url(#clip160)" style="stroke:#000000; stroke-linecap:round; stroke-linejoin:round; stroke-width:4; stroke-opacity:1; fill:none" points="256.209,244.112 275.106,244.112 "/>
<path clip-path="url(#clip160)" d="M114.26 1142 L143.936 1142 L143.936 1145.93 L114.26 1145.93 L114.26 1142 Z" fill="#000000" fill-rule="nonzero" fill-opacity="1" /><path clip-path="url(#clip160)" d="M164.028 1127.34 Q160.417 1127.34 158.589 1130.91 Q156.783 1134.45 156.783 1141.58 Q156.783 1148.69 158.589 1152.25 Q160.417 1155.79 164.028 1155.79 Q167.663 1155.79 169.468 1152.25 Q171.297 1148.69 171.297 1141.58 Q171.297 1134.45 169.468 1130.91 Q167.663 1127.34 164.028 1127.34 M164.028 1123.64 Q169.839 1123.64 172.894 1128.25 Q175.973 1132.83 175.973 1141.58 Q175.973 1150.31 172.894 1154.91 Q169.839 1159.5 164.028 1159.5 Q158.218 1159.5 155.14 1154.91 Q152.084 1150.31 152.084 1141.58 Q152.084 1132.83 155.14 1128.25 Q158.218 1123.64 164.028 1123.64 Z" fill="#000000" fill-rule="nonzero" fill-opacity="1" /><path clip-path="url(#clip160)" d="M184.19 1152.95 L189.075 1152.95 L189.075 1158.83 L184.19 1158.83 L184.19 1152.95 Z" fill="#000000" fill-rule="nonzero" fill-opacity="1" /><path clip-path="url(#clip160)" d="M199.306 1124.27 L217.662 1124.27 L217.662 1128.2 L203.588 1128.2 L203.588 1136.67 Q204.607 1136.33 205.625 1136.16 Q206.644 1135.98 207.662 1135.98 Q213.449 1135.98 216.829 1139.15 Q220.209 1142.32 220.209 1147.74 Q220.209 1153.32 216.736 1156.42 Q213.264 1159.5 206.945 1159.5 Q204.769 1159.5 202.5 1159.13 Q200.255 1158.76 197.848 1158.02 L197.848 1153.32 Q199.931 1154.45 202.153 1155.01 Q204.375 1155.56 206.852 1155.56 Q210.857 1155.56 213.195 1153.46 Q215.533 1151.35 215.533 1147.74 Q215.533 1144.13 213.195 1142.02 Q210.857 1139.91 206.852 1139.91 Q204.977 1139.91 203.102 1140.33 Q201.25 1140.75 199.306 1141.63 L199.306 1124.27 Z" fill="#000000" fill-rule="nonzero" fill-opacity="1" /><path clip-path="url(#clip160)" d="M163.033 828.2 Q159.422 828.2 157.593 831.765 Q155.788 835.307 155.788 842.436 Q155.788 849.543 157.593 853.108 Q159.422 856.649 163.033 856.649 Q166.667 856.649 168.473 853.108 Q170.302 849.543 170.302 842.436 Q170.302 835.307 168.473 831.765 Q166.667 828.2 163.033 828.2 M163.033 824.497 Q168.843 824.497 171.899 829.103 Q174.977 833.686 174.977 842.436 Q174.977 851.163 171.899 855.77 Q168.843 860.353 163.033 860.353 Q157.223 860.353 154.144 855.77 Q151.089 851.163 151.089 842.436 Q151.089 833.686 154.144 829.103 Q157.223 824.497 163.033 824.497 Z" fill="#000000" fill-rule="nonzero" fill-opacity="1" /><path clip-path="url(#clip160)" d="M183.195 853.802 L188.079 853.802 L188.079 859.682 L183.195 859.682 L183.195 853.802 Z" fill="#000000" fill-rule="nonzero" fill-opacity="1" /><path clip-path="url(#clip160)" d="M208.264 828.2 Q204.653 828.2 202.824 831.765 Q201.019 835.307 201.019 842.436 Q201.019 849.543 202.824 853.108 Q204.653 856.649 208.264 856.649 Q211.899 856.649 213.704 853.108 Q215.533 849.543 215.533 842.436 Q215.533 835.307 213.704 831.765 Q211.899 828.2 208.264 828.2 M208.264 824.497 Q214.074 824.497 217.13 829.103 Q220.209 833.686 220.209 842.436 Q220.209 851.163 217.13 855.77 Q214.074 860.353 208.264 860.353 Q202.454 860.353 199.375 855.77 Q196.32 851.163 196.32 842.436 Q196.32 833.686 199.375 829.103 Q202.454 824.497 208.264 824.497 Z" fill="#000000" fill-rule="nonzero" fill-opacity="1" /><path clip-path="url(#clip160)" d="M164.028 529.056 Q160.417 529.056 158.589 532.621 Q156.783 536.162 156.783 543.292 Q156.783 550.398 158.589 553.963 Q160.417 557.505 164.028 557.505 Q167.663 557.505 169.468 553.963 Q171.297 550.398 171.297 543.292 Q171.297 536.162 169.468 532.621 Q167.663 529.056 164.028 529.056 M164.028 525.352 Q169.839 525.352 172.894 529.959 Q175.973 534.542 175.973 543.292 Q175.973 552.019 172.894 556.625 Q169.839 561.208 164.028 561.208 Q158.218 561.208 155.14 556.625 Q152.084 552.019 152.084 543.292 Q152.084 534.542 155.14 529.959 Q158.218 525.352 164.028 525.352 Z" fill="#000000" fill-rule="nonzero" fill-opacity="1" /><path clip-path="url(#clip160)" d="M184.19 554.657 L189.075 554.657 L189.075 560.537 L184.19 560.537 L184.19 554.657 Z" fill="#000000" fill-rule="nonzero" fill-opacity="1" /><path clip-path="url(#clip160)" d="M199.306 525.977 L217.662 525.977 L217.662 529.912 L203.588 529.912 L203.588 538.384 Q204.607 538.037 205.625 537.875 Q206.644 537.69 207.662 537.69 Q213.449 537.69 216.829 540.861 Q220.209 544.033 220.209 549.449 Q220.209 555.028 216.736 558.13 Q213.264 561.208 206.945 561.208 Q204.769 561.208 202.5 560.838 Q200.255 560.468 197.848 559.727 L197.848 555.028 Q199.931 556.162 202.153 556.718 Q204.375 557.273 206.852 557.273 Q210.857 557.273 213.195 555.167 Q215.533 553.06 215.533 549.449 Q215.533 545.838 213.195 543.732 Q210.857 541.625 206.852 541.625 Q204.977 541.625 203.102 542.042 Q201.25 542.458 199.306 543.338 L199.306 525.977 Z" fill="#000000" fill-rule="nonzero" fill-opacity="1" /><path clip-path="url(#clip160)" d="M153.843 257.457 L161.482 257.457 L161.482 231.092 L153.172 232.758 L153.172 228.499 L161.436 226.832 L166.112 226.832 L166.112 257.457 L173.751 257.457 L173.751 261.392 L153.843 261.392 L153.843 257.457 Z" fill="#000000" fill-rule="nonzero" fill-opacity="1" /><path clip-path="url(#clip160)" d="M183.195 255.513 L188.079 255.513 L188.079 261.392 L183.195 261.392 L183.195 255.513 Z" fill="#000000" fill-rule="nonzero" fill-opacity="1" /><path clip-path="url(#clip160)" d="M208.264 229.911 Q204.653 229.911 202.824 233.476 Q201.019 237.018 201.019 244.147 Q201.019 251.254 202.824 254.818 Q204.653 258.36 208.264 258.36 Q211.899 258.36 213.704 254.818 Q215.533 251.254 215.533 244.147 Q215.533 237.018 213.704 233.476 Q211.899 229.911 208.264 229.911 M208.264 226.207 Q214.074 226.207 217.13 230.814 Q220.209 235.397 220.209 244.147 Q220.209 252.874 217.13 257.48 Q214.074 262.064 208.264 262.064 Q202.454 262.064 199.375 257.48 Q196.32 252.874 196.32 244.147 Q196.32 235.397 199.375 230.814 Q202.454 226.207 208.264 226.207 Z" fill="#000000" fill-rule="nonzero" fill-opacity="1" /><path clip-path="url(#clip160)" d="M18.0438 764.065 L24.314 764.065 Q22.5634 767.725 21.704 770.971 Q20.8447 774.218 20.8447 777.242 Q20.8447 782.493 22.8817 785.358 Q24.9187 788.191 28.6745 788.191 Q31.8255 788.191 33.4488 786.313 Q35.0402 784.403 36.0269 779.119 L36.8226 775.236 Q38.1912 768.043 41.6605 764.637 Q45.098 761.2 50.8908 761.2 Q57.7976 761.2 61.3624 765.847 Q64.9272 770.462 64.9272 779.406 Q64.9272 782.78 64.1633 786.599 Q63.3994 790.387 61.9035 794.461 L55.2831 794.461 Q57.4793 790.546 58.5933 786.79 Q59.7073 783.034 59.7073 779.406 Q59.7073 773.9 57.543 770.908 Q55.3786 767.916 51.3682 767.916 Q47.8671 767.916 45.8937 770.08 Q43.9204 772.213 42.9337 777.114 L42.1698 781.029 Q40.7375 788.222 37.682 791.437 Q34.6264 794.652 29.1837 794.652 Q22.8817 794.652 19.2532 790.228 Q15.6248 785.772 15.6248 777.974 Q15.6248 774.632 16.2295 771.162 Q16.8343 767.693 18.0438 764.065 Z" fill="#000000" fill-rule="nonzero" fill-opacity="1" /><path clip-path="url(#clip160)" d="M41.3104 744.745 L58.7206 744.745 L58.7206 734.432 Q58.7206 729.244 56.5881 726.761 Q54.4238 724.247 49.9996 724.247 Q45.5436 724.247 43.4429 726.761 Q41.3104 729.244 41.3104 734.432 L41.3104 744.745 M21.7677 744.745 L36.0905 744.745 L36.0905 735.228 Q36.0905 730.517 34.34 728.226 Q32.5576 725.902 28.9291 725.902 Q25.3325 725.902 23.5501 728.226 Q21.7677 730.517 21.7677 735.228 L21.7677 744.745 M16.4842 751.174 L16.4842 734.75 Q16.4842 727.398 19.5397 723.419 Q22.5952 719.441 28.2289 719.441 Q32.5894 719.441 35.1675 721.478 Q37.7456 723.515 38.3822 727.462 Q39.4007 722.719 42.6472 720.109 Q45.8619 717.468 50.6998 717.468 Q57.0655 717.468 60.5348 721.796 Q64.0042 726.125 64.0042 734.114 L64.0042 751.174 L16.4842 751.174 Z" fill="#000000" fill-rule="nonzero" fill-opacity="1" /><path clip-path="url(#clip160)" d="M21.7677 700.026 L39.6235 700.026 L39.6235 691.941 Q39.6235 687.453 37.3 685.002 Q34.9765 682.552 30.6797 682.552 Q26.4147 682.552 24.0912 685.002 Q21.7677 687.453 21.7677 691.941 L21.7677 700.026 M16.4842 706.455 L16.4842 691.941 Q16.4842 683.952 20.1126 679.878 Q23.7092 675.772 30.6797 675.772 Q37.7138 675.772 41.3104 679.878 Q44.907 683.952 44.907 691.941 L44.907 700.026 L64.0042 700.026 L64.0042 706.455 L16.4842 706.455 Z" fill="#000000" fill-rule="nonzero" fill-opacity="1" /><polyline clip-path="url(#clip162)" style="stroke:#009af9; stroke-linecap:round; stroke-linejoin:round; stroke-width:4; stroke-opacity:1; fill:none" points="315.545,1384.24 335.523,1379.26 355.502,1374.28 375.481,1369.29 395.459,1364.31 415.438,1359.33 435.416,1354.35 455.395,1349.37 475.373,1344.39 495.352,1339.4 515.33,1334.42 535.309,1329.44 555.287,1324.46 575.266,1319.48 595.244,1314.5 615.223,1309.52 635.201,1304.53 655.18,1299.55 675.158,1294.57 695.137,1289.59 715.116,1284.61 735.094,1279.63 755.073,1274.65 775.051,1269.66 795.03,1264.68 815.008,1259.7 834.987,1251.52 854.965,1239.46 874.944,1227.41 894.922,1215.35 914.901,1203.29 934.879,1191.23 954.858,1179.17 974.836,1167.11 994.815,1155.05 1014.79,1143 1034.77,1130.94 1054.75,1116.07 1074.73,1093.76 1094.71,1071.46 1114.69,1049.15 1134.66,1026.85 1154.64,1004.54 1174.62,982.24 1194.6,959.935 1214.58,937.63 1234.56,915.325 1254.54,893.02 1274.51,870.715 1294.49,848.41 1314.47,826.105 1334.45,803.8 1354.43,781.495 1374.41,759.19 1394.39,736.885 1414.36,714.58 1434.34,692.275 1454.32,669.97 1474.3,647.665 1494.28,625.36 1514.26,604.525 1534.24,591.234 1554.21,577.943 1574.19,564.652 1594.17,551.362 1614.15,538.071 1634.13,524.78 1654.11,511.489 1674.09,498.199 1694.06,484.908 1714.04,471.617 1734.02,458.326 1754,445.036 1773.98,431.745 1793.96,418.454 1813.93,405.164 1833.91,391.873 1853.89,378.582 1873.87,365.291 1893.85,352.001 1913.83,338.71 1933.81,325.419 1953.78,312.128 1973.76,298.838 1993.74,285.547 2013.72,272.256 2033.7,258.965 2053.68,245.675 2073.66,232.384 2093.63,219.093 2113.61,205.802 2133.59,192.512 2153.57,179.221 2173.55,165.93 2193.53,152.639 2213.51,139.349 2233.48,126.058 2253.46,112.767 2273.44,99.4764 2293.42,86.1857 "/>
<polyline clip-path="url(#clip162)" style="stroke:#e26f46; stroke-linecap:round; stroke-linejoin:round; stroke-width:4; stroke-opacity:1; fill:none" points="315.545,1335.82 335.523,1328.63 355.502,1321.44 375.481,1314.25 395.459,1307.05 415.438,1299.86 435.416,1292.67 455.395,1285.48 475.373,1278.28 495.352,1271.09 515.33,1263.9 535.309,1256.71 555.287,1249.52 575.266,1242.32 595.244,1235.13 615.223,1227.94 635.201,1220.75 655.18,1213.55 675.158,1206.36 695.137,1199.17 715.116,1191.98 735.094,1184.79 755.073,1177.59 775.051,1170.4 795.03,1163.21 815.008,1156.02 834.987,1145.63 854.965,1131.36 874.944,1117.09 894.922,1102.82 914.901,1088.55 934.879,1074.28 954.858,1060.01 974.836,1045.74 994.815,1031.47 1014.79,1017.2 1034.77,1002.93 1054.75,987.602 1074.73,969.457 1094.71,951.312 1114.69,933.166 1134.66,915.021 1154.64,896.876 1174.62,878.73 1194.6,860.585 1214.58,842.44 1234.56,824.295 1254.54,806.149 1274.51,788.004 1294.49,769.859 1314.47,751.714 1334.45,733.568 1354.43,715.423 1374.41,697.278 1394.39,679.133 1414.36,660.987 1434.34,642.842 1454.32,624.697 1474.3,606.551 1494.28,588.406 1514.26,571.73 1534.24,562.599 1554.21,553.468 1574.19,544.337 1594.17,535.206 1614.15,526.075 1634.13,516.944 1654.11,507.813 1674.09,498.682 1694.06,489.551 1714.04,480.42 1734.02,471.289 1754,462.157 1773.98,453.026 1793.96,443.895 1813.93,434.764 1833.91,425.633 1853.89,416.502 1873.87,407.371 1893.85,398.24 1913.83,389.109 1933.81,379.978 1953.78,370.847 1973.76,361.716 1993.74,352.585 2013.72,343.454 2033.7,334.323 2053.68,325.192 2073.66,316.06 2093.63,306.929 2113.61,297.798 2133.59,288.667 2153.57,279.536 2173.55,270.405 2193.53,261.274 2213.51,252.143 2233.48,243.012 2253.46,233.881 2273.44,224.75 2293.42,215.619 "/>
<polyline clip-path="url(#clip162)" style="stroke:#3da44d; stroke-linecap:round; stroke-linejoin:round; stroke-width:4; stroke-opacity:1; fill:none" points="315.545,1283.96 335.523,1275.42 355.502,1266.88 375.481,1258.35 395.459,1249.81 415.438,1241.27 435.416,1232.73 455.395,1224.2 475.373,1215.66 495.352,1207.12 515.33,1198.59 535.309,1190.05 555.287,1181.51 575.266,1172.97 595.244,1164.44 615.223,1155.9 635.201,1147.36 655.18,1138.82 675.158,1130.29 695.137,1121.75 715.116,1113.21 735.094,1104.67 755.073,1096.14 775.051,1087.6 795.03,1079.06 815.008,1070.52 834.987,1058.79 854.965,1043.18 874.944,1027.56 894.922,1011.95 914.901,996.333 934.879,980.719 954.858,965.104 974.836,949.49 994.815,933.876 1014.79,918.261 1034.77,902.647 1054.75,887.032 1074.73,871.418 1094.71,855.804 1114.69,840.189 1134.66,824.575 1154.64,808.96 1174.62,793.346 1194.6,777.731 1214.58,762.117 1234.56,746.503 1254.54,730.888 1274.51,715.274 1294.49,699.659 1314.47,684.045 1334.45,668.43 1354.43,652.816 1374.41,637.202 1394.39,621.587 1414.36,605.973 1434.34,590.358 1454.32,574.744 1474.3,559.129 1494.28,543.515 1514.26,529.37 1534.24,522.77 1554.21,516.169 1574.19,509.569 1594.17,502.969 1614.15,496.369 1634.13,489.768 1654.11,483.168 1674.09,476.568 1694.06,469.968 1714.04,463.368 1734.02,456.767 1754,450.167 1773.98,443.567 1793.96,436.967 1813.93,430.366 1833.91,423.766 1853.89,417.166 1873.87,410.566 1893.85,403.966 1913.83,397.365 1933.81,390.765 1953.78,384.165 1973.76,377.565 1993.74,370.964 2013.72,364.364 2033.7,357.764 2053.68,351.164 2073.66,344.564 2093.63,337.963 2113.61,331.363 2133.59,324.763 2153.57,318.163 2173.55,311.562 2193.53,304.962 2213.51,298.362 2233.48,291.762 2253.46,285.162 2273.44,278.561 2293.42,271.961 "/>
<path clip-path="url(#clip160)" d="M326.094 300.469 L715.4 300.469 L715.4 93.1086 L326.094 93.1086  Z" fill="#ffffff" fill-rule="evenodd" fill-opacity="1"/>
<polyline clip-path="url(#clip160)" style="stroke:#000000; stroke-linecap:round; stroke-linejoin:round; stroke-width:4; stroke-opacity:1; fill:none" points="326.094,300.469 715.4,300.469 715.4,93.1086 326.094,93.1086 326.094,300.469 "/>
<polyline clip-path="url(#clip160)" style="stroke:#009af9; stroke-linecap:round; stroke-linejoin:round; stroke-width:4; stroke-opacity:1; fill:none" points="349.389,144.949 489.158,144.949 "/>
<path clip-path="url(#clip160)" d="M517.129 145.724 L517.129 158.386 L524.629 158.386 Q528.402 158.386 530.208 156.835 Q532.037 155.261 532.037 152.043 Q532.037 148.803 530.208 147.275 Q528.402 145.724 524.629 145.724 L517.129 145.724 M517.129 131.511 L517.129 141.928 L524.05 141.928 Q527.476 141.928 529.143 140.655 Q530.833 139.358 530.833 136.719 Q530.833 134.104 529.143 132.807 Q527.476 131.511 524.05 131.511 L517.129 131.511 M512.453 127.669 L524.398 127.669 Q529.745 127.669 532.638 129.891 Q535.532 132.113 535.532 136.21 Q535.532 139.382 534.05 141.257 Q532.569 143.131 529.699 143.594 Q533.148 144.335 535.046 146.696 Q536.967 149.034 536.967 152.553 Q536.967 157.182 533.819 159.705 Q530.671 162.229 524.861 162.229 L512.453 162.229 L512.453 127.669 Z" fill="#000000" fill-rule="nonzero" fill-opacity="1" /><path clip-path="url(#clip160)" d="M544.976 127.669 L551.944 127.669 L560.763 151.187 L569.629 127.669 L576.597 127.669 L576.597 162.229 L572.036 162.229 L572.036 131.882 L563.124 155.585 L558.425 155.585 L549.513 131.882 L549.513 162.229 L544.976 162.229 L544.976 127.669 Z" fill="#000000" fill-rule="nonzero" fill-opacity="1" /><path clip-path="url(#clip160)" d="M585.879 127.669 L590.555 127.669 L590.555 162.229 L585.879 162.229 L585.879 127.669 Z" fill="#000000" fill-rule="nonzero" fill-opacity="1" /><path clip-path="url(#clip160)" d="M600.231 140.701 L629.906 140.701 L629.906 144.59 L600.231 144.59 L600.231 140.701 M600.231 150.145 L629.906 150.145 L629.906 154.081 L600.231 154.081 L600.231 150.145 Z" fill="#000000" fill-rule="nonzero" fill-opacity="1" /><path clip-path="url(#clip160)" d="M644.027 158.293 L660.346 158.293 L660.346 162.229 L638.402 162.229 L638.402 158.293 Q641.064 155.539 645.647 150.909 Q650.254 146.256 651.434 144.914 Q653.679 142.391 654.559 140.655 Q655.462 138.895 655.462 137.206 Q655.462 134.451 653.517 132.715 Q651.596 130.979 648.494 130.979 Q646.295 130.979 643.842 131.743 Q641.411 132.507 638.633 134.057 L638.633 129.335 Q641.457 128.201 643.911 127.622 Q646.365 127.044 648.402 127.044 Q653.772 127.044 656.966 129.729 Q660.161 132.414 660.161 136.905 Q660.161 139.034 659.351 140.956 Q658.564 142.854 656.457 145.446 Q655.878 146.118 652.777 149.335 Q649.675 152.53 644.027 158.293 Z" fill="#000000" fill-rule="nonzero" fill-opacity="1" /><path clip-path="url(#clip160)" d="M670.207 127.669 L688.563 127.669 L688.563 131.604 L674.489 131.604 L674.489 140.076 Q675.508 139.729 676.527 139.567 Q677.545 139.382 678.564 139.382 Q684.351 139.382 687.73 142.553 Q691.11 145.724 691.11 151.141 Q691.11 156.719 687.638 159.821 Q684.165 162.9 677.846 162.9 Q675.67 162.9 673.402 162.53 Q671.156 162.159 668.749 161.418 L668.749 156.719 Q670.832 157.854 673.054 158.409 Q675.277 158.965 677.753 158.965 Q681.758 158.965 684.096 156.858 Q686.434 154.752 686.434 151.141 Q686.434 147.53 684.096 145.423 Q681.758 143.317 677.753 143.317 Q675.878 143.317 674.003 143.733 Q672.152 144.15 670.207 145.03 L670.207 127.669 Z" fill="#000000" fill-rule="nonzero" fill-opacity="1" /><polyline clip-path="url(#clip160)" style="stroke:#e26f46; stroke-linecap:round; stroke-linejoin:round; stroke-width:4; stroke-opacity:1; fill:none" points="349.389,196.789 489.158,196.789 "/>
<path clip-path="url(#clip160)" d="M517.129 197.564 L517.129 210.226 L524.629 210.226 Q528.402 210.226 530.208 208.675 Q532.037 207.101 532.037 203.883 Q532.037 200.643 530.208 199.115 Q528.402 197.564 524.629 197.564 L517.129 197.564 M517.129 183.351 L517.129 193.768 L524.05 193.768 Q527.476 193.768 529.143 192.495 Q530.833 191.198 530.833 188.559 Q530.833 185.944 529.143 184.647 Q527.476 183.351 524.05 183.351 L517.129 183.351 M512.453 179.509 L524.398 179.509 Q529.745 179.509 532.638 181.731 Q535.532 183.953 535.532 188.05 Q535.532 191.222 534.05 193.097 Q532.569 194.971 529.699 195.434 Q533.148 196.175 535.046 198.536 Q536.967 200.874 536.967 204.393 Q536.967 209.022 533.819 211.545 Q530.671 214.069 524.861 214.069 L512.453 214.069 L512.453 179.509 Z" fill="#000000" fill-rule="nonzero" fill-opacity="1" /><path clip-path="url(#clip160)" d="M544.976 179.509 L551.944 179.509 L560.763 203.027 L569.629 179.509 L576.597 179.509 L576.597 214.069 L572.036 214.069 L572.036 183.722 L563.124 207.425 L558.425 207.425 L549.513 183.722 L549.513 214.069 L544.976 214.069 L544.976 179.509 Z" fill="#000000" fill-rule="nonzero" fill-opacity="1" /><path clip-path="url(#clip160)" d="M585.879 179.509 L590.555 179.509 L590.555 214.069 L585.879 214.069 L585.879 179.509 Z" fill="#000000" fill-rule="nonzero" fill-opacity="1" /><path clip-path="url(#clip160)" d="M600.231 192.541 L629.906 192.541 L629.906 196.43 L600.231 196.43 L600.231 192.541 M600.231 201.985 L629.906 201.985 L629.906 205.921 L600.231 205.921 L600.231 201.985 Z" fill="#000000" fill-rule="nonzero" fill-opacity="1" /><path clip-path="url(#clip160)" d="M654.166 195.434 Q657.522 196.152 659.397 198.421 Q661.295 200.689 661.295 204.022 Q661.295 209.138 657.777 211.939 Q654.258 214.74 647.777 214.74 Q645.601 214.74 643.286 214.3 Q640.994 213.883 638.541 213.027 L638.541 208.513 Q640.485 209.647 642.8 210.226 Q645.115 210.805 647.638 210.805 Q652.036 210.805 654.328 209.069 Q656.642 207.333 656.642 204.022 Q656.642 200.967 654.49 199.254 Q652.36 197.518 648.541 197.518 L644.513 197.518 L644.513 193.675 L648.726 193.675 Q652.175 193.675 654.003 192.309 Q655.832 190.921 655.832 188.328 Q655.832 185.666 653.934 184.254 Q652.059 182.819 648.541 182.819 Q646.619 182.819 644.42 183.235 Q642.221 183.652 639.582 184.532 L639.582 180.365 Q642.244 179.624 644.559 179.254 Q646.897 178.884 648.957 178.884 Q654.281 178.884 657.383 181.314 Q660.485 183.722 660.485 187.842 Q660.485 190.712 658.841 192.703 Q657.198 194.671 654.166 195.434 Z" fill="#000000" fill-rule="nonzero" fill-opacity="1" /><path clip-path="url(#clip160)" d="M680.161 182.587 Q676.55 182.587 674.721 186.152 Q672.915 189.694 672.915 196.823 Q672.915 203.93 674.721 207.495 Q676.55 211.036 680.161 211.036 Q683.795 211.036 685.601 207.495 Q687.429 203.93 687.429 196.823 Q687.429 189.694 685.601 186.152 Q683.795 182.587 680.161 182.587 M680.161 178.884 Q685.971 178.884 689.026 183.49 Q692.105 188.073 692.105 196.823 Q692.105 205.55 689.026 210.157 Q685.971 214.74 680.161 214.74 Q674.351 214.74 671.272 210.157 Q668.216 205.55 668.216 196.823 Q668.216 188.073 671.272 183.49 Q674.351 178.884 680.161 178.884 Z" fill="#000000" fill-rule="nonzero" fill-opacity="1" /><polyline clip-path="url(#clip160)" style="stroke:#3da44d; stroke-linecap:round; stroke-linejoin:round; stroke-width:4; stroke-opacity:1; fill:none" points="349.389,248.629 489.158,248.629 "/>
<path clip-path="url(#clip160)" d="M517.129 249.404 L517.129 262.066 L524.629 262.066 Q528.402 262.066 530.208 260.515 Q532.037 258.941 532.037 255.723 Q532.037 252.483 530.208 250.955 Q528.402 249.404 524.629 249.404 L517.129 249.404 M517.129 235.191 L517.129 245.608 L524.05 245.608 Q527.476 245.608 529.143 244.335 Q530.833 243.038 530.833 240.399 Q530.833 237.784 529.143 236.487 Q527.476 235.191 524.05 235.191 L517.129 235.191 M512.453 231.349 L524.398 231.349 Q529.745 231.349 532.638 233.571 Q535.532 235.793 535.532 239.89 Q535.532 243.062 534.05 244.937 Q532.569 246.811 529.699 247.274 Q533.148 248.015 535.046 250.376 Q536.967 252.714 536.967 256.233 Q536.967 260.862 533.819 263.385 Q530.671 265.909 524.861 265.909 L512.453 265.909 L512.453 231.349 Z" fill="#000000" fill-rule="nonzero" fill-opacity="1" /><path clip-path="url(#clip160)" d="M544.976 231.349 L551.944 231.349 L560.763 254.867 L569.629 231.349 L576.597 231.349 L576.597 265.909 L572.036 265.909 L572.036 235.562 L563.124 259.265 L558.425 259.265 L549.513 235.562 L549.513 265.909 L544.976 265.909 L544.976 231.349 Z" fill="#000000" fill-rule="nonzero" fill-opacity="1" /><path clip-path="url(#clip160)" d="M585.879 231.349 L590.555 231.349 L590.555 265.909 L585.879 265.909 L585.879 231.349 Z" fill="#000000" fill-rule="nonzero" fill-opacity="1" /><path clip-path="url(#clip160)" d="M600.231 244.381 L629.906 244.381 L629.906 248.27 L600.231 248.27 L600.231 244.381 M600.231 253.825 L629.906 253.825 L629.906 257.761 L600.231 257.761 L600.231 253.825 Z" fill="#000000" fill-rule="nonzero" fill-opacity="1" /><path clip-path="url(#clip160)" d="M654.166 247.274 Q657.522 247.992 659.397 250.261 Q661.295 252.529 661.295 255.862 Q661.295 260.978 657.777 263.779 Q654.258 266.58 647.777 266.58 Q645.601 266.58 643.286 266.14 Q640.994 265.723 638.541 264.867 L638.541 260.353 Q640.485 261.487 642.8 262.066 Q645.115 262.645 647.638 262.645 Q652.036 262.645 654.328 260.909 Q656.642 259.173 656.642 255.862 Q656.642 252.807 654.49 251.094 Q652.36 249.358 648.541 249.358 L644.513 249.358 L644.513 245.515 L648.726 245.515 Q652.175 245.515 654.003 244.149 Q655.832 242.761 655.832 240.168 Q655.832 237.506 653.934 236.094 Q652.059 234.659 648.541 234.659 Q646.619 234.659 644.42 235.075 Q642.221 235.492 639.582 236.372 L639.582 232.205 Q642.244 231.464 644.559 231.094 Q646.897 230.724 648.957 230.724 Q654.281 230.724 657.383 233.154 Q660.485 235.562 660.485 239.682 Q660.485 242.552 658.841 244.543 Q657.198 246.511 654.166 247.274 Z" fill="#000000" fill-rule="nonzero" fill-opacity="1" /><path clip-path="url(#clip160)" d="M670.207 231.349 L688.563 231.349 L688.563 235.284 L674.489 235.284 L674.489 243.756 Q675.508 243.409 676.527 243.247 Q677.545 243.062 678.564 243.062 Q684.351 243.062 687.73 246.233 Q691.11 249.404 691.11 254.821 Q691.11 260.399 687.638 263.501 Q684.165 266.58 677.846 266.58 Q675.67 266.58 673.402 266.21 Q671.156 265.839 668.749 265.098 L668.749 260.399 Q670.832 261.534 673.054 262.089 Q675.277 262.645 677.753 262.645 Q681.758 262.645 684.096 260.538 Q686.434 258.432 686.434 254.821 Q686.434 251.21 684.096 249.103 Q681.758 246.997 677.753 246.997 Q675.878 246.997 674.003 247.413 Q672.152 247.83 670.207 248.71 L670.207 231.349 Z" fill="#000000" fill-rule="nonzero" fill-opacity="1" /></svg>
