<?xml version="1.0" encoding="utf-8"?>
<svg xmlns="http://www.w3.org/2000/svg" xmlns:xlink="http://www.w3.org/1999/xlink" width="600" height="400" viewBox="0 0 2400 1600">
<defs>
  <clipPath id="clip970">
    <rect x="0" y="0" width="2400" height="1600"/>
  </clipPath>
</defs>
<path clip-path="url(#clip970)" d="M0 1600 L2400 1600 L2400 0 L0 0  Z" fill="#ffffff" fill-rule="evenodd" fill-opacity="1"/>
<defs>
  <clipPath id="clip971">
    <rect x="480" y="0" width="1681" height="1600"/>
  </clipPath>
</defs>
<path clip-path="url(#clip970)" d="M249.542 1423.18 L2352.76 1423.18 L2352.76 47.2441 L249.542 47.2441  Z" fill="#ffffff" fill-rule="evenodd" fill-opacity="1"/>
<defs>
  <clipPath id="clip972">
    <rect x="249" y="47" width="2104" height="1377"/>
  </clipPath>
</defs>
<polyline clip-path="url(#clip972)" style="stroke:#000000; stroke-linecap:round; stroke-linejoin:round; stroke-width:2; stroke-opacity:0.1; fill:none" points="507.483,1423.18 507.483,47.2441 "/>
<polyline clip-path="url(#clip972)" style="stroke:#000000; stroke-linecap:round; stroke-linejoin:round; stroke-width:2; stroke-opacity:0.1; fill:none" points="904.316,1423.18 904.316,47.2441 "/>
<polyline clip-path="url(#clip972)" style="stroke:#000000; stroke-linecap:round; stroke-linejoin:round; stroke-width:2; stroke-opacity:0.1; fill:none" points="1301.15,1423.18 1301.15,47.2441 "/>
<polyline clip-path="url(#clip972)" style="stroke:#000000; stroke-linecap:round; stroke-linejoin:round; stroke-width:2; stroke-opacity:0.1; fill:none" points="1697.98,1423.18 1697.98,47.2441 "/>
<polyline clip-path="url(#clip972)" style="stroke:#000000; stroke-linecap:round; stroke-linejoin:round; stroke-width:2; stroke-opacity:0.1; fill:none" points="2094.81,1423.18 2094.81,47.2441 "/>
<polyline clip-path="url(#clip970)" style="stroke:#000000; stroke-linecap:round; stroke-linejoin:round; stroke-width:4; stroke-opacity:1; fill:none" points="249.542,1423.18 2352.76,1423.18 "/>
<polyline clip-path="url(#clip970)" style="stroke:#000000; stroke-linecap:round; stroke-linejoin:round; stroke-width:4; stroke-opacity:1; fill:none" points="507.483,1423.18 507.483,1404.28 "/>
<polyline clip-path="url(#clip970)" style="stroke:#000000; stroke-linecap:round; stroke-linejoin:round; stroke-width:4; stroke-opacity:1; fill:none" points="904.316,1423.18 904.316,1404.28 "/>
<polyline clip-path="url(#clip970)" style="stroke:#000000; stroke-linecap:round; stroke-linejoin:round; stroke-width:4; stroke-opacity:1; fill:none" points="1301.15,1423.18 1301.15,1404.28 "/>
<polyline clip-path="url(#clip970)" style="stroke:#000000; stroke-linecap:round; stroke-linejoin:round; stroke-width:4; stroke-opacity:1; fill:none" points="1697.98,1423.18 1697.98,1404.28 "/>
<polyline clip-path="url(#clip970)" style="stroke:#000000; stroke-linecap:round; stroke-linejoin:round; stroke-width:4; stroke-opacity:1; fill:none" points="2094.81,1423.18 2094.81,1404.28 "/>
<path clip-path="url(#clip970)" d="M502.136 1481.64 L518.456 1481.64 L518.456 1485.58 L496.511 1485.58 L496.511 1481.64 Q499.173 1478.89 503.757 1474.26 Q508.363 1469.61 509.544 1468.27 Q511.789 1465.74 512.669 1464.01 Q513.571 1462.25 513.571 1460.56 Q513.571 1457.8 511.627 1456.07 Q509.706 1454.33 506.604 1454.33 Q504.405 1454.33 501.951 1455.09 Q499.52 1455.86 496.743 1457.41 L496.743 1452.69 Q499.567 1451.55 502.02 1450.97 Q504.474 1450.39 506.511 1450.39 Q511.881 1450.39 515.076 1453.08 Q518.27 1455.77 518.27 1460.26 Q518.27 1462.39 517.46 1464.31 Q516.673 1466.2 514.567 1468.8 Q513.988 1469.47 510.886 1472.69 Q507.784 1475.88 502.136 1481.64 Z" fill="#000000" fill-rule="nonzero" fill-opacity="1" /><path clip-path="url(#clip970)" d="M907.325 1455.09 L895.52 1473.54 L907.325 1473.54 L907.325 1455.09 M906.099 1451.02 L911.978 1451.02 L911.978 1473.54 L916.909 1473.54 L916.909 1477.43 L911.978 1477.43 L911.978 1485.58 L907.325 1485.58 L907.325 1477.43 L891.724 1477.43 L891.724 1472.92 L906.099 1451.02 Z" fill="#000000" fill-rule="nonzero" fill-opacity="1" /><path clip-path="url(#clip970)" d="M1301.55 1466.44 Q1298.41 1466.44 1296.55 1468.59 Q1294.73 1470.74 1294.73 1474.49 Q1294.73 1478.22 1296.55 1480.39 Q1298.41 1482.55 1301.55 1482.55 Q1304.7 1482.55 1306.53 1480.39 Q1308.38 1478.22 1308.38 1474.49 Q1308.38 1470.74 1306.53 1468.59 Q1304.7 1466.44 1301.55 1466.44 M1310.84 1451.78 L1310.84 1456.04 Q1309.08 1455.21 1307.27 1454.77 Q1305.49 1454.33 1303.73 1454.33 Q1299.1 1454.33 1296.65 1457.45 Q1294.22 1460.58 1293.87 1466.9 Q1295.23 1464.89 1297.29 1463.82 Q1299.35 1462.73 1301.83 1462.73 Q1307.04 1462.73 1310.05 1465.9 Q1313.08 1469.05 1313.08 1474.49 Q1313.08 1479.82 1309.93 1483.03 Q1306.79 1486.25 1301.55 1486.25 Q1295.56 1486.25 1292.39 1481.67 Q1289.22 1477.06 1289.22 1468.33 Q1289.22 1460.14 1293.11 1455.28 Q1296.99 1450.39 1303.54 1450.39 Q1305.3 1450.39 1307.09 1450.74 Q1308.89 1451.09 1310.84 1451.78 Z" fill="#000000" fill-rule="nonzero" fill-opacity="1" /><path clip-path="url(#clip970)" d="M1697.98 1469.17 Q1694.65 1469.17 1692.73 1470.95 Q1690.83 1472.73 1690.83 1475.86 Q1690.83 1478.98 1692.73 1480.77 Q1694.65 1482.55 1697.98 1482.55 Q1701.32 1482.55 1703.24 1480.77 Q1705.16 1478.96 1705.16 1475.86 Q1705.16 1472.73 1703.24 1470.95 Q1701.34 1469.17 1697.98 1469.17 M1693.31 1467.18 Q1690.3 1466.44 1688.61 1464.38 Q1686.94 1462.32 1686.94 1459.35 Q1686.94 1455.21 1689.88 1452.8 Q1692.84 1450.39 1697.98 1450.39 Q1703.14 1450.39 1706.08 1452.8 Q1709.02 1455.21 1709.02 1459.35 Q1709.02 1462.32 1707.33 1464.38 Q1705.67 1466.44 1702.68 1467.18 Q1706.06 1467.96 1707.94 1470.26 Q1709.83 1472.55 1709.83 1475.86 Q1709.83 1480.88 1706.75 1483.57 Q1703.7 1486.25 1697.98 1486.25 Q1692.26 1486.25 1689.19 1483.57 Q1686.13 1480.88 1686.13 1475.86 Q1686.13 1472.55 1688.03 1470.26 Q1689.93 1467.96 1693.31 1467.18 M1691.59 1459.79 Q1691.59 1462.48 1693.26 1463.98 Q1694.95 1465.49 1697.98 1465.49 Q1700.99 1465.49 1702.68 1463.98 Q1704.39 1462.48 1704.39 1459.79 Q1704.39 1457.11 1702.68 1455.6 Q1700.99 1454.1 1697.98 1454.1 Q1694.95 1454.1 1693.26 1455.6 Q1691.59 1457.11 1691.59 1459.79 Z" fill="#000000" fill-rule="nonzero" fill-opacity="1" /><path clip-path="url(#clip970)" d="M2069.5 1481.64 L2077.14 1481.64 L2077.14 1455.28 L2068.83 1456.95 L2068.83 1452.69 L2077.09 1451.02 L2081.77 1451.02 L2081.77 1481.64 L2089.41 1481.64 L2089.41 1485.58 L2069.5 1485.58 L2069.5 1481.64 Z" fill="#000000" fill-rule="nonzero" fill-opacity="1" /><path clip-path="url(#clip970)" d="M2108.85 1454.1 Q2105.24 1454.1 2103.41 1457.66 Q2101.61 1461.2 2101.61 1468.33 Q2101.61 1475.44 2103.41 1479.01 Q2105.24 1482.55 2108.85 1482.55 Q2112.49 1482.55 2114.29 1479.01 Q2116.12 1475.44 2116.12 1468.33 Q2116.12 1461.2 2114.29 1457.66 Q2112.49 1454.1 2108.85 1454.1 M2108.85 1450.39 Q2114.66 1450.39 2117.72 1455 Q2120.8 1459.58 2120.8 1468.33 Q2120.8 1477.06 2117.72 1481.67 Q2114.66 1486.25 2108.85 1486.25 Q2103.04 1486.25 2099.97 1481.67 Q2096.91 1477.06 2096.91 1468.33 Q2096.91 1459.58 2099.97 1455 Q2103.04 1450.39 2108.85 1450.39 Z" fill="#000000" fill-rule="nonzero" fill-opacity="1" /><path clip-path="url(#clip970)" d="M1028.49 1520.52 L1037.15 1520.52 L1058.22 1560.28 L1058.22 1520.52 L1064.46 1520.52 L1064.46 1568.04 L1055.8 1568.04 L1034.73 1528.29 L1034.73 1568.04 L1028.49 1568.04 L1028.49 1520.52 Z" fill="#000000" fill-rule="nonzero" fill-opacity="1" /><path clip-path="url(#clip970)" d="M1076.39 1553.98 L1076.39 1532.4 L1082.25 1532.4 L1082.25 1553.75 Q1082.25 1558.81 1084.22 1561.36 Q1086.19 1563.87 1090.14 1563.87 Q1094.88 1563.87 1097.62 1560.85 Q1100.39 1557.83 1100.39 1552.61 L1100.39 1532.4 L1106.25 1532.4 L1106.25 1568.04 L1100.39 1568.04 L1100.39 1562.57 Q1098.26 1565.82 1095.43 1567.41 Q1092.62 1568.97 1088.9 1568.97 Q1082.76 1568.97 1079.57 1565.15 Q1076.39 1561.33 1076.39 1553.98 M1091.13 1531.54 L1091.13 1531.54 Z" fill="#000000" fill-rule="nonzero" fill-opacity="1" /><path clip-path="url(#clip970)" d="M1146.06 1539.24 Q1148.26 1535.29 1151.32 1533.41 Q1154.37 1531.54 1158.51 1531.54 Q1164.08 1531.54 1167.1 1535.45 Q1170.13 1539.33 1170.13 1546.53 L1170.13 1568.04 L1164.24 1568.04 L1164.24 1546.72 Q1164.24 1541.59 1162.42 1539.11 Q1160.61 1536.63 1156.89 1536.63 Q1152.33 1536.63 1149.69 1539.65 Q1147.05 1542.68 1147.05 1547.9 L1147.05 1568.04 L1141.16 1568.04 L1141.16 1546.72 Q1141.16 1541.56 1139.35 1539.11 Q1137.53 1536.63 1133.75 1536.63 Q1129.26 1536.63 1126.62 1539.68 Q1123.98 1542.71 1123.98 1547.9 L1123.98 1568.04 L1118.09 1568.04 L1118.09 1532.4 L1123.98 1532.4 L1123.98 1537.93 Q1125.98 1534.66 1128.78 1533.1 Q1131.58 1531.54 1135.43 1531.54 Q1139.32 1531.54 1142.02 1533.51 Q1144.76 1535.48 1146.06 1539.24 Z" fill="#000000" fill-rule="nonzero" fill-opacity="1" /><path clip-path="url(#clip970)" d="M1207.4 1550.25 Q1207.4 1543.79 1204.72 1540.13 Q1202.08 1536.44 1197.44 1536.44 Q1192.79 1536.44 1190.12 1540.13 Q1187.47 1543.79 1187.47 1550.25 Q1187.47 1556.71 1190.12 1560.4 Q1192.79 1564.07 1197.44 1564.07 Q1202.08 1564.07 1204.72 1560.4 Q1207.4 1556.71 1207.4 1550.25 M1187.47 1537.81 Q1189.32 1534.62 1192.12 1533.1 Q1194.95 1531.54 1198.87 1531.54 Q1205.36 1531.54 1209.4 1536.69 Q1213.48 1541.85 1213.48 1550.25 Q1213.48 1558.65 1209.4 1563.81 Q1205.36 1568.97 1198.87 1568.97 Q1194.95 1568.97 1192.12 1567.44 Q1189.32 1565.88 1187.47 1562.7 L1187.47 1568.04 L1181.59 1568.04 L1181.59 1518.52 L1187.47 1518.52 L1187.47 1537.81 Z" fill="#000000" fill-rule="nonzero" fill-opacity="1" /><path clip-path="url(#clip970)" d="M1253.68 1548.76 L1253.68 1551.62 L1226.75 1551.62 Q1227.13 1557.67 1230.38 1560.85 Q1233.66 1564 1239.48 1564 Q1242.86 1564 1246.01 1563.17 Q1249.19 1562.35 1252.31 1560.69 L1252.31 1566.23 Q1249.16 1567.57 1245.85 1568.27 Q1242.54 1568.97 1239.13 1568.97 Q1230.6 1568.97 1225.6 1564 Q1220.64 1559.04 1220.64 1550.57 Q1220.64 1541.82 1225.35 1536.69 Q1230.09 1531.54 1238.11 1531.54 Q1245.31 1531.54 1249.48 1536.18 Q1253.68 1540.8 1253.68 1548.76 M1247.82 1547.04 Q1247.76 1542.23 1245.11 1539.37 Q1242.5 1536.5 1238.18 1536.5 Q1233.27 1536.5 1230.31 1539.27 Q1227.39 1542.04 1226.94 1547.07 L1247.82 1547.04 Z" fill="#000000" fill-rule="nonzero" fill-opacity="1" /><path clip-path="url(#clip970)" d="M1283.95 1537.87 Q1282.96 1537.3 1281.78 1537.04 Q1280.64 1536.76 1279.24 1536.76 Q1274.27 1536.76 1271.6 1540 Q1268.95 1543.22 1268.95 1549.27 L1268.95 1568.04 L1263.07 1568.04 L1263.07 1532.4 L1268.95 1532.4 L1268.95 1537.93 Q1270.8 1534.69 1273.76 1533.13 Q1276.72 1531.54 1280.95 1531.54 Q1281.56 1531.54 1282.29 1531.63 Q1283.02 1531.7 1283.91 1531.85 L1283.95 1537.87 Z" fill="#000000" fill-rule="nonzero" fill-opacity="1" /><path clip-path="url(#clip970)" d="M1324.62 1536.5 Q1319.91 1536.5 1317.17 1540.19 Q1314.44 1543.85 1314.44 1550.25 Q1314.44 1556.65 1317.14 1560.34 Q1319.88 1564 1324.62 1564 Q1329.3 1564 1332.04 1560.31 Q1334.78 1556.62 1334.78 1550.25 Q1334.78 1543.92 1332.04 1540.23 Q1329.3 1536.5 1324.62 1536.5 M1324.62 1531.54 Q1332.26 1531.54 1336.62 1536.5 Q1340.98 1541.47 1340.98 1550.25 Q1340.98 1559 1336.62 1564 Q1332.26 1568.97 1324.62 1568.97 Q1316.95 1568.97 1312.59 1564 Q1308.26 1559 1308.26 1550.25 Q1308.26 1541.47 1312.59 1536.5 Q1316.95 1531.54 1324.62 1531.54 Z" fill="#000000" fill-rule="nonzero" fill-opacity="1" /><path clip-path="url(#clip970)" d="M1368.74 1518.52 L1368.74 1523.39 L1363.14 1523.39 Q1359.98 1523.39 1358.74 1524.66 Q1357.53 1525.93 1357.53 1529.24 L1357.53 1532.4 L1367.18 1532.4 L1367.18 1536.95 L1357.53 1536.95 L1357.53 1568.04 L1351.64 1568.04 L1351.64 1536.95 L1346.04 1536.95 L1346.04 1532.4 L1351.64 1532.4 L1351.64 1529.91 Q1351.64 1523.96 1354.41 1521.26 Q1357.18 1518.52 1363.2 1518.52 L1368.74 1518.52 Z" fill="#000000" fill-rule="nonzero" fill-opacity="1" /><path clip-path="url(#clip970)" d="M1400.15 1522.27 L1400.15 1532.4 L1412.21 1532.4 L1412.21 1536.95 L1400.15 1536.95 L1400.15 1556.3 Q1400.15 1560.66 1401.33 1561.9 Q1402.54 1563.14 1406.2 1563.14 L1412.21 1563.14 L1412.21 1568.04 L1406.2 1568.04 Q1399.42 1568.04 1396.84 1565.53 Q1394.26 1562.98 1394.26 1556.3 L1394.26 1536.95 L1389.97 1536.95 L1389.97 1532.4 L1394.26 1532.4 L1394.26 1522.27 L1400.15 1522.27 Z" fill="#000000" fill-rule="nonzero" fill-opacity="1" /><path clip-path="url(#clip970)" d="M1450.41 1548.76 L1450.41 1551.62 L1423.48 1551.62 Q1423.86 1557.67 1427.11 1560.85 Q1430.39 1564 1436.21 1564 Q1439.59 1564 1442.74 1563.17 Q1445.92 1562.35 1449.04 1560.69 L1449.04 1566.23 Q1445.89 1567.57 1442.58 1568.27 Q1439.27 1568.97 1435.86 1568.97 Q1427.33 1568.97 1422.34 1564 Q1417.37 1559.04 1417.37 1550.57 Q1417.37 1541.82 1422.08 1536.69 Q1426.82 1531.54 1434.84 1531.54 Q1442.04 1531.54 1446.21 1536.18 Q1450.41 1540.8 1450.41 1548.76 M1444.55 1547.04 Q1444.49 1542.23 1441.85 1539.37 Q1439.24 1536.5 1434.91 1536.5 Q1430.01 1536.5 1427.05 1539.27 Q1424.12 1542.04 1423.67 1547.07 L1444.55 1547.04 Z" fill="#000000" fill-rule="nonzero" fill-opacity="1" /><path clip-path="url(#clip970)" d="M1480.68 1537.87 Q1479.69 1537.3 1478.51 1537.04 Q1477.37 1536.76 1475.97 1536.76 Q1471 1536.76 1468.33 1540 Q1465.69 1543.22 1465.69 1549.27 L1465.69 1568.04 L1459.8 1568.04 L1459.8 1532.4 L1465.69 1532.4 L1465.69 1537.93 Q1467.53 1534.69 1470.49 1533.13 Q1473.45 1531.54 1477.69 1531.54 Q1478.29 1531.54 1479.02 1531.63 Q1479.75 1531.7 1480.65 1531.85 L1480.68 1537.87 Z" fill="#000000" fill-rule="nonzero" fill-opacity="1" /><path clip-path="url(#clip970)" d="M1513.43 1539.24 Q1515.63 1535.29 1518.68 1533.41 Q1521.74 1531.54 1525.87 1531.54 Q1531.44 1531.54 1534.47 1535.45 Q1537.49 1539.33 1537.49 1546.53 L1537.49 1568.04 L1531.6 1568.04 L1531.6 1546.72 Q1531.6 1541.59 1529.79 1539.11 Q1527.98 1536.63 1524.25 1536.63 Q1519.7 1536.63 1517.06 1539.65 Q1514.42 1542.68 1514.42 1547.9 L1514.42 1568.04 L1508.53 1568.04 L1508.53 1546.72 Q1508.53 1541.56 1506.71 1539.11 Q1504.9 1536.63 1501.11 1536.63 Q1496.62 1536.63 1493.98 1539.68 Q1491.34 1542.71 1491.34 1547.9 L1491.34 1568.04 L1485.45 1568.04 L1485.45 1532.4 L1491.34 1532.4 L1491.34 1537.93 Q1493.35 1534.66 1496.15 1533.1 Q1498.95 1531.54 1502.8 1531.54 Q1506.68 1531.54 1509.39 1533.51 Q1512.12 1535.48 1513.43 1539.24 Z" fill="#000000" fill-rule="nonzero" fill-opacity="1" /><path clip-path="url(#clip970)" d="M1571.9 1533.45 L1571.9 1538.98 Q1569.42 1537.71 1566.74 1537.07 Q1564.07 1536.44 1561.2 1536.44 Q1556.84 1536.44 1554.65 1537.77 Q1552.48 1539.11 1552.48 1541.79 Q1552.48 1543.82 1554.04 1545 Q1555.6 1546.15 1560.31 1547.2 L1562.32 1547.64 Q1568.56 1548.98 1571.17 1551.43 Q1573.81 1553.85 1573.81 1558.21 Q1573.81 1563.17 1569.86 1566.07 Q1565.95 1568.97 1559.07 1568.97 Q1556.21 1568.97 1553.09 1568.39 Q1550 1567.85 1546.56 1566.74 L1546.56 1560.69 Q1549.81 1562.38 1552.96 1563.24 Q1556.11 1564.07 1559.2 1564.07 Q1563.34 1564.07 1565.56 1562.66 Q1567.79 1561.23 1567.79 1558.65 Q1567.79 1556.27 1566.17 1554.99 Q1564.58 1553.72 1559.14 1552.54 L1557.1 1552.07 Q1551.66 1550.92 1549.24 1548.56 Q1546.82 1546.18 1546.82 1542.04 Q1546.82 1537.01 1550.38 1534.27 Q1553.95 1531.54 1560.5 1531.54 Q1563.75 1531.54 1566.61 1532.01 Q1569.48 1532.49 1571.9 1533.45 Z" fill="#000000" fill-rule="nonzero" fill-opacity="1" /><polyline clip-path="url(#clip972)" style="stroke:#000000; stroke-linecap:round; stroke-linejoin:round; stroke-width:2; stroke-opacity:0.1; fill:none" points="249.542,1384.24 2352.76,1384.24 "/>
<polyline clip-path="url(#clip972)" style="stroke:#000000; stroke-linecap:round; stroke-linejoin:round; stroke-width:2; stroke-opacity:0.1; fill:none" points="249.542,1148.95 2352.76,1148.95 "/>
<polyline clip-path="url(#clip972)" style="stroke:#000000; stroke-linecap:round; stroke-linejoin:round; stroke-width:2; stroke-opacity:0.1; fill:none" points="249.542,913.663 2352.76,913.663 "/>
<polyline clip-path="url(#clip972)" style="stroke:#000000; stroke-linecap:round; stroke-linejoin:round; stroke-width:2; stroke-opacity:0.1; fill:none" points="249.542,678.375 2352.76,678.375 "/>
<polyline clip-path="url(#clip972)" style="stroke:#000000; stroke-linecap:round; stroke-linejoin:round; stroke-width:2; stroke-opacity:0.1; fill:none" points="249.542,443.087 2352.76,443.087 "/>
<polyline clip-path="url(#clip972)" style="stroke:#000000; stroke-linecap:round; stroke-linejoin:round; stroke-width:2; stroke-opacity:0.1; fill:none" points="249.542,207.799 2352.76,207.799 "/>
<polyline clip-path="url(#clip970)" style="stroke:#000000; stroke-linecap:round; stroke-linejoin:round; stroke-width:4; stroke-opacity:1; fill:none" points="249.542,1423.18 249.542,47.2441 "/>
<polyline clip-path="url(#clip970)" style="stroke:#000000; stroke-linecap:round; stroke-linejoin:round; stroke-width:4; stroke-opacity:1; fill:none" points="249.542,1384.24 268.44,1384.24 "/>
<polyline clip-path="url(#clip970)" style="stroke:#000000; stroke-linecap:round; stroke-linejoin:round; stroke-width:4; stroke-opacity:1; fill:none" points="249.542,1148.95 268.44,1148.95 "/>
<polyline clip-path="url(#clip970)" style="stroke:#000000; stroke-linecap:round; stroke-linejoin:round; stroke-width:4; stroke-opacity:1; fill:none" points="249.542,913.663 268.44,913.663 "/>
<polyline clip-path="url(#clip970)" style="stroke:#000000; stroke-linecap:round; stroke-linejoin:round; stroke-width:4; stroke-opacity:1; fill:none" points="249.542,678.375 268.44,678.375 "/>
<polyline clip-path="url(#clip970)" style="stroke:#000000; stroke-linecap:round; stroke-linejoin:round; stroke-width:4; stroke-opacity:1; fill:none" points="249.542,443.087 268.44,443.087 "/>
<polyline clip-path="url(#clip970)" style="stroke:#000000; stroke-linecap:round; stroke-linejoin:round; stroke-width:4; stroke-opacity:1; fill:none" points="249.542,207.799 268.44,207.799 "/>
<path clip-path="url(#clip970)" d="M126.205 1370.04 Q122.593 1370.04 120.765 1373.6 Q118.959 1377.14 118.959 1384.27 Q118.959 1391.38 120.765 1394.94 Q122.593 1398.49 126.205 1398.49 Q129.839 1398.49 131.644 1394.94 Q133.473 1391.38 133.473 1384.27 Q133.473 1377.14 131.644 1373.6 Q129.839 1370.04 126.205 1370.04 M126.205 1366.33 Q132.015 1366.33 135.07 1370.94 Q138.149 1375.52 138.149 1384.27 Q138.149 1393 135.07 1397.61 Q132.015 1402.19 126.205 1402.19 Q120.394 1402.19 117.316 1397.61 Q114.26 1393 114.26 1384.27 Q114.26 1375.52 117.316 1370.94 Q120.394 1366.33 126.205 1366.33 Z" fill="#000000" fill-rule="nonzero" fill-opacity="1" /><path clip-path="url(#clip970)" d="M146.366 1395.64 L151.251 1395.64 L151.251 1401.52 L146.366 1401.52 L146.366 1395.64 Z" fill="#000000" fill-rule="nonzero" fill-opacity="1" /><path clip-path="url(#clip970)" d="M171.436 1370.04 Q167.825 1370.04 165.996 1373.6 Q164.19 1377.14 164.19 1384.27 Q164.19 1391.38 165.996 1394.94 Q167.825 1398.49 171.436 1398.49 Q175.07 1398.49 176.876 1394.94 Q178.704 1391.38 178.704 1384.27 Q178.704 1377.14 176.876 1373.6 Q175.07 1370.04 171.436 1370.04 M171.436 1366.33 Q177.246 1366.33 180.301 1370.94 Q183.38 1375.52 183.38 1384.27 Q183.38 1393 180.301 1397.61 Q177.246 1402.19 171.436 1402.19 Q165.626 1402.19 162.547 1397.61 Q159.491 1393 159.491 1384.27 Q159.491 1375.52 162.547 1370.94 Q165.626 1366.33 171.436 1366.33 Z" fill="#000000" fill-rule="nonzero" fill-opacity="1" /><path clip-path="url(#clip970)" d="M201.598 1370.04 Q197.987 1370.04 196.158 1373.6 Q194.352 1377.14 194.352 1384.27 Q194.352 1391.38 196.158 1394.94 Q197.987 1398.49 201.598 1398.49 Q205.232 1398.49 207.037 1394.94 Q208.866 1391.38 208.866 1384.27 Q208.866 1377.14 207.037 1373.6 Q205.232 1370.04 201.598 1370.04 M201.598 1366.33 Q207.408 1366.33 210.463 1370.94 Q213.542 1375.52 213.542 1384.27 Q213.542 1393 210.463 1397.61 Q207.408 1402.19 201.598 1402.19 Q195.787 1402.19 192.709 1397.61 Q189.653 1393 189.653 1384.27 Q189.653 1375.52 192.709 1370.94 Q195.787 1366.33 201.598 1366.33 Z" fill="#000000" fill-rule="nonzero" fill-opacity="1" /><path clip-path="url(#clip970)" d="M127.2 1134.75 Q123.589 1134.75 121.76 1138.31 Q119.955 1141.86 119.955 1148.99 Q119.955 1156.09 121.76 1159.66 Q123.589 1163.2 127.2 1163.2 Q130.834 1163.2 132.64 1159.66 Q134.468 1156.09 134.468 1148.99 Q134.468 1141.86 132.64 1138.31 Q130.834 1134.75 127.2 1134.75 M127.2 1131.05 Q133.01 1131.05 136.066 1135.65 Q139.144 1140.24 139.144 1148.99 Q139.144 1157.71 136.066 1162.32 Q133.01 1166.9 127.2 1166.9 Q121.39 1166.9 118.311 1162.32 Q115.256 1157.71 115.256 1148.99 Q115.256 1140.24 118.311 1135.65 Q121.39 1131.05 127.2 1131.05 Z" fill="#000000" fill-rule="nonzero" fill-opacity="1" /><path clip-path="url(#clip970)" d="M147.362 1160.35 L152.246 1160.35 L152.246 1166.23 L147.362 1166.23 L147.362 1160.35 Z" fill="#000000" fill-rule="nonzero" fill-opacity="1" /><path clip-path="url(#clip970)" d="M172.431 1134.75 Q168.82 1134.75 166.991 1138.31 Q165.186 1141.86 165.186 1148.99 Q165.186 1156.09 166.991 1159.66 Q168.82 1163.2 172.431 1163.2 Q176.065 1163.2 177.871 1159.66 Q179.7 1156.09 179.7 1148.99 Q179.7 1141.86 177.871 1138.31 Q176.065 1134.75 172.431 1134.75 M172.431 1131.05 Q178.241 1131.05 181.297 1135.65 Q184.376 1140.24 184.376 1148.99 Q184.376 1157.71 181.297 1162.32 Q178.241 1166.9 172.431 1166.9 Q166.621 1166.9 163.542 1162.32 Q160.487 1157.71 160.487 1148.99 Q160.487 1140.24 163.542 1135.65 Q166.621 1131.05 172.431 1131.05 Z" fill="#000000" fill-rule="nonzero" fill-opacity="1" /><path clip-path="url(#clip970)" d="M192.639 1131.67 L210.996 1131.67 L210.996 1135.61 L196.922 1135.61 L196.922 1144.08 Q197.94 1143.73 198.959 1143.57 Q199.977 1143.38 200.996 1143.38 Q206.783 1143.38 210.162 1146.55 Q213.542 1149.73 213.542 1155.14 Q213.542 1160.72 210.07 1163.82 Q206.598 1166.9 200.278 1166.9 Q198.102 1166.9 195.834 1166.53 Q193.588 1166.16 191.181 1165.42 L191.181 1160.72 Q193.264 1161.86 195.487 1162.41 Q197.709 1162.97 200.186 1162.97 Q204.19 1162.97 206.528 1160.86 Q208.866 1158.75 208.866 1155.14 Q208.866 1151.53 206.528 1149.42 Q204.19 1147.32 200.186 1147.32 Q198.311 1147.32 196.436 1147.74 Q194.584 1148.15 192.639 1149.03 L192.639 1131.67 Z" fill="#000000" fill-rule="nonzero" fill-opacity="1" /><path clip-path="url(#clip970)" d="M126.205 899.461 Q122.593 899.461 120.765 903.026 Q118.959 906.568 118.959 913.697 Q118.959 920.804 120.765 924.369 Q122.593 927.91 126.205 927.91 Q129.839 927.91 131.644 924.369 Q133.473 920.804 133.473 913.697 Q133.473 906.568 131.644 903.026 Q129.839 899.461 126.205 899.461 M126.205 895.758 Q132.015 895.758 135.07 900.364 Q138.149 904.947 138.149 913.697 Q138.149 922.424 135.07 927.031 Q132.015 931.614 126.205 931.614 Q120.394 931.614 117.316 927.031 Q114.26 922.424 114.26 913.697 Q114.26 904.947 117.316 900.364 Q120.394 895.758 126.205 895.758 Z" fill="#000000" fill-rule="nonzero" fill-opacity="1" /><path clip-path="url(#clip970)" d="M146.366 925.063 L151.251 925.063 L151.251 930.943 L146.366 930.943 L146.366 925.063 Z" fill="#000000" fill-rule="nonzero" fill-opacity="1" /><path clip-path="url(#clip970)" d="M162.246 927.008 L169.885 927.008 L169.885 900.642 L161.575 902.309 L161.575 898.049 L169.839 896.383 L174.514 896.383 L174.514 927.008 L182.153 927.008 L182.153 930.943 L162.246 930.943 L162.246 927.008 Z" fill="#000000" fill-rule="nonzero" fill-opacity="1" /><path clip-path="url(#clip970)" d="M201.598 899.461 Q197.987 899.461 196.158 903.026 Q194.352 906.568 194.352 913.697 Q194.352 920.804 196.158 924.369 Q197.987 927.91 201.598 927.91 Q205.232 927.91 207.037 924.369 Q208.866 920.804 208.866 913.697 Q208.866 906.568 207.037 903.026 Q205.232 899.461 201.598 899.461 M201.598 895.758 Q207.408 895.758 210.463 900.364 Q213.542 904.947 213.542 913.697 Q213.542 922.424 210.463 927.031 Q207.408 931.614 201.598 931.614 Q195.787 931.614 192.709 927.031 Q189.653 922.424 189.653 913.697 Q189.653 904.947 192.709 900.364 Q195.787 895.758 201.598 895.758 Z" fill="#000000" fill-rule="nonzero" fill-opacity="1" /><path clip-path="url(#clip970)" d="M127.2 664.174 Q123.589 664.174 121.76 667.738 Q119.955 671.28 119.955 678.41 Q119.955 685.516 121.76 689.081 Q123.589 692.622 127.2 692.622 Q130.834 692.622 132.64 689.081 Q134.468 685.516 134.468 678.41 Q134.468 671.28 132.64 667.738 Q130.834 664.174 127.2 664.174 M127.2 660.47 Q133.01 660.47 136.066 665.076 Q139.144 669.66 139.144 678.41 Q139.144 687.136 136.066 691.743 Q133.01 696.326 127.2 696.326 Q121.39 696.326 118.311 691.743 Q115.256 687.136 115.256 678.41 Q115.256 669.66 118.311 665.076 Q121.39 660.47 127.2 660.47 Z" fill="#000000" fill-rule="nonzero" fill-opacity="1" /><path clip-path="url(#clip970)" d="M147.362 689.775 L152.246 689.775 L152.246 695.655 L147.362 695.655 L147.362 689.775 Z" fill="#000000" fill-rule="nonzero" fill-opacity="1" /><path clip-path="url(#clip970)" d="M163.241 691.72 L170.88 691.72 L170.88 665.354 L162.57 667.021 L162.57 662.762 L170.834 661.095 L175.51 661.095 L175.51 691.72 L183.149 691.72 L183.149 695.655 L163.241 695.655 L163.241 691.72 Z" fill="#000000" fill-rule="nonzero" fill-opacity="1" /><path clip-path="url(#clip970)" d="M192.639 661.095 L210.996 661.095 L210.996 665.03 L196.922 665.03 L196.922 673.502 Q197.94 673.155 198.959 672.993 Q199.977 672.808 200.996 672.808 Q206.783 672.808 210.162 675.979 Q213.542 679.15 213.542 684.567 Q213.542 690.146 210.07 693.247 Q206.598 696.326 200.278 696.326 Q198.102 696.326 195.834 695.956 Q193.588 695.585 191.181 694.845 L191.181 690.146 Q193.264 691.28 195.487 691.835 Q197.709 692.391 200.186 692.391 Q204.19 692.391 206.528 690.285 Q208.866 688.178 208.866 684.567 Q208.866 680.956 206.528 678.849 Q204.19 676.743 200.186 676.743 Q198.311 676.743 196.436 677.16 Q194.584 677.576 192.639 678.456 L192.639 661.095 Z" fill="#000000" fill-rule="nonzero" fill-opacity="1" /><path clip-path="url(#clip970)" d="M126.205 428.886 Q122.593 428.886 120.765 432.451 Q118.959 435.992 118.959 443.122 Q118.959 450.228 120.765 453.793 Q122.593 457.335 126.205 457.335 Q129.839 457.335 131.644 453.793 Q133.473 450.228 133.473 443.122 Q133.473 435.992 131.644 432.451 Q129.839 428.886 126.205 428.886 M126.205 425.182 Q132.015 425.182 135.07 429.789 Q138.149 434.372 138.149 443.122 Q138.149 451.849 135.07 456.455 Q132.015 461.038 126.205 461.038 Q120.394 461.038 117.316 456.455 Q114.26 451.849 114.26 443.122 Q114.26 434.372 117.316 429.789 Q120.394 425.182 126.205 425.182 Z" fill="#000000" fill-rule="nonzero" fill-opacity="1" /><path clip-path="url(#clip970)" d="M146.366 454.487 L151.251 454.487 L151.251 460.367 L146.366 460.367 L146.366 454.487 Z" fill="#000000" fill-rule="nonzero" fill-opacity="1" /><path clip-path="url(#clip970)" d="M165.464 456.432 L181.783 456.432 L181.783 460.367 L159.839 460.367 L159.839 456.432 Q162.501 453.677 167.084 449.048 Q171.69 444.395 172.871 443.052 Q175.116 440.529 175.996 438.793 Q176.899 437.034 176.899 435.344 Q176.899 432.589 174.954 430.853 Q173.033 429.117 169.931 429.117 Q167.732 429.117 165.278 429.881 Q162.848 430.645 160.07 432.196 L160.07 427.474 Q162.894 426.339 165.348 425.761 Q167.802 425.182 169.839 425.182 Q175.209 425.182 178.403 427.867 Q181.598 430.552 181.598 435.043 Q181.598 437.173 180.788 439.094 Q180.001 440.992 177.894 443.585 Q177.315 444.256 174.214 447.474 Q171.112 450.668 165.464 456.432 Z" fill="#000000" fill-rule="nonzero" fill-opacity="1" /><path clip-path="url(#clip970)" d="M201.598 428.886 Q197.987 428.886 196.158 432.451 Q194.352 435.992 194.352 443.122 Q194.352 450.228 196.158 453.793 Q197.987 457.335 201.598 457.335 Q205.232 457.335 207.037 453.793 Q208.866 450.228 208.866 443.122 Q208.866 435.992 207.037 432.451 Q205.232 428.886 201.598 428.886 M201.598 425.182 Q207.408 425.182 210.463 429.789 Q213.542 434.372 213.542 443.122 Q213.542 451.849 210.463 456.455 Q207.408 461.038 201.598 461.038 Q195.787 461.038 192.709 456.455 Q189.653 451.849 189.653 443.122 Q189.653 434.372 192.709 429.789 Q195.787 425.182 201.598 425.182 Z" fill="#000000" fill-rule="nonzero" fill-opacity="1" /><path clip-path="url(#clip970)" d="M127.2 193.598 Q123.589 193.598 121.76 197.163 Q119.955 200.704 119.955 207.834 Q119.955 214.94 121.76 218.505 Q123.589 222.047 127.2 222.047 Q130.834 222.047 132.64 218.505 Q134.468 214.94 134.468 207.834 Q134.468 200.704 132.64 197.163 Q130.834 193.598 127.2 193.598 M127.2 189.894 Q133.01 189.894 136.066 194.501 Q139.144 199.084 139.144 207.834 Q139.144 216.561 136.066 221.167 Q133.01 225.751 127.2 225.751 Q121.39 225.751 118.311 221.167 Q115.256 216.561 115.256 207.834 Q115.256 199.084 118.311 194.501 Q121.39 189.894 127.2 189.894 Z" fill="#000000" fill-rule="nonzero" fill-opacity="1" /><path clip-path="url(#clip970)" d="M147.362 219.2 L152.246 219.2 L152.246 225.079 L147.362 225.079 L147.362 219.2 Z" fill="#000000" fill-rule="nonzero" fill-opacity="1" /><path clip-path="url(#clip970)" d="M166.459 221.144 L182.778 221.144 L182.778 225.079 L160.834 225.079 L160.834 221.144 Q163.496 218.389 168.079 213.76 Q172.686 209.107 173.866 207.765 Q176.112 205.241 176.991 203.505 Q177.894 201.746 177.894 200.056 Q177.894 197.302 175.95 195.566 Q174.028 193.829 170.927 193.829 Q168.727 193.829 166.274 194.593 Q163.843 195.357 161.065 196.908 L161.065 192.186 Q163.89 191.052 166.343 190.473 Q168.797 189.894 170.834 189.894 Q176.204 189.894 179.399 192.579 Q182.593 195.265 182.593 199.755 Q182.593 201.885 181.783 203.806 Q180.996 205.704 178.889 208.297 Q178.311 208.968 175.209 212.186 Q172.107 215.38 166.459 221.144 Z" fill="#000000" fill-rule="nonzero" fill-opacity="1" /><path clip-path="url(#clip970)" d="M192.639 190.519 L210.996 190.519 L210.996 194.454 L196.922 194.454 L196.922 202.927 Q197.94 202.579 198.959 202.417 Q199.977 202.232 200.996 202.232 Q206.783 202.232 210.162 205.403 Q213.542 208.575 213.542 213.991 Q213.542 219.57 210.07 222.672 Q206.598 225.751 200.278 225.751 Q198.102 225.751 195.834 225.38 Q193.588 225.01 191.181 224.269 L191.181 219.57 Q193.264 220.704 195.487 221.26 Q197.709 221.815 200.186 221.815 Q204.19 221.815 206.528 219.709 Q208.866 217.602 208.866 213.991 Q208.866 210.38 206.528 208.274 Q204.19 206.167 200.186 206.167 Q198.311 206.167 196.436 206.584 Q194.584 207.001 192.639 207.88 L192.639 190.519 Z" fill="#000000" fill-rule="nonzero" fill-opacity="1" /><path clip-path="url(#clip970)" d="M41.7242 749.598 Q42.4244 747.53 44.7161 745.588 Q47.0077 743.615 51.0181 741.641 L64.0042 735.116 L64.0042 742.023 L51.8138 748.103 Q47.0395 750.458 45.48 752.686 Q43.9204 754.882 43.9204 758.701 L43.9204 765.704 L64.0042 765.704 L64.0042 772.133 L16.4842 772.133 L16.4842 757.619 Q16.4842 749.471 19.8898 745.461 Q23.2955 741.45 30.1704 741.45 Q34.6582 741.45 37.6183 743.551 Q40.5784 745.62 41.7242 749.598 M21.7677 765.704 L38.6368 765.704 L38.6368 757.619 Q38.6368 752.972 36.5043 750.617 Q34.34 748.23 30.1704 748.23 Q26.0009 748.23 23.9002 750.617 Q21.7677 752.972 21.7677 757.619 L21.7677 765.704 Z" fill="#000000" fill-rule="nonzero" fill-opacity="1" /><path clip-path="url(#clip970)" d="M58.5933 720.73 L58.5933 698.291 L64.0042 698.291 L64.0042 728.464 L58.5933 728.464 Q54.8057 724.804 48.44 718.502 Q42.0425 712.168 40.1964 710.545 Q36.7271 707.457 34.34 706.248 Q31.921 705.007 29.5975 705.007 Q25.8099 705.007 23.4228 707.68 Q21.0356 710.322 21.0356 714.587 Q21.0356 717.611 22.086 720.985 Q23.1363 724.327 25.2688 728.146 L18.7758 728.146 Q17.2162 724.263 16.4205 720.889 Q15.6248 717.515 15.6248 714.714 Q15.6248 707.33 19.3169 702.938 Q23.009 698.545 29.1837 698.545 Q32.112 698.545 34.7537 699.659 Q37.3637 700.742 40.9285 703.638 Q41.8515 704.434 46.2757 708.699 Q50.668 712.964 58.5933 720.73 Z" fill="#000000" fill-rule="nonzero" fill-opacity="1" /><polyline clip-path="url(#clip972)" style="stroke:#009af9; stroke-linecap:round; stroke-linejoin:round; stroke-width:4; stroke-opacity:1; fill:none" points="309.067,1384.24 507.483,235.745 705.9,166.476 904.316,117.425 1102.73,101.589 1301.15,86.2338 1499.57,87.9933 1697.98,87.7287 1896.4,88.0893 2094.81,86.1857 2293.23,88.2819 "/>
<polyline clip-path="url(#clip972)" style="stroke:#e26f46; stroke-linecap:round; stroke-linejoin:round; stroke-width:4; stroke-opacity:1; fill:none" points="309.067,1384.24 507.483,235.745 705.9,166.476 904.316,117.425 1102.73,101.589 1301.15,86.2338 1499.57,87.9933 1697.98,87.7287 1896.4,88.0893 2094.81,86.1857 2293.23,88.2819 "/>
<path clip-path="url(#clip970)" d="M2050.38 1377.32 L2282.65 1377.32 L2282.65 1221.8 L2050.38 1221.8  Z" fill="#ffffff" fill-rule="evenodd" fill-opacity="1"/>
<polyline clip-path="url(#clip970)" style="stroke:#000000; stroke-linecap:round; stroke-linejoin:round; stroke-width:4; stroke-opacity:1; fill:none" points="2050.38,1377.32 2282.65,1377.32 2282.65,1221.8 2050.38,1221.8 2050.38,1377.32 "/>
<polyline clip-path="url(#clip970)" style="stroke:#009af9; stroke-linecap:round; stroke-linejoin:round; stroke-width:4; stroke-opacity:1; fill:none" points="2073.75,1273.64 2213.97,1273.64 "/>
<path clip-path="url(#clip970)" d="M2238.01 1286.98 L2245.65 1286.98 L2245.65 1260.61 L2237.34 1262.28 L2237.34 1258.02 L2245.6 1256.36 L2250.28 1256.36 L2250.28 1286.98 L2257.91 1286.98 L2257.91 1290.92 L2238.01 1290.92 L2238.01 1286.98 Z" fill="#000000" fill-rule="nonzero" fill-opacity="1" /><polyline clip-path="url(#clip970)" style="stroke:#e26f46; stroke-linecap:round; stroke-linejoin:round; stroke-width:4; stroke-opacity:1; fill:none" points="2073.75,1325.48 2213.97,1325.48 "/>
<path clip-path="url(#clip970)" d="M2242.96 1338.82 L2259.28 1338.82 L2259.28 1342.76 L2237.34 1342.76 L2237.34 1338.82 Q2240 1336.07 2244.58 1331.44 Q2249.19 1326.78 2250.37 1325.44 Q2252.61 1322.92 2253.49 1321.18 Q2254.4 1319.42 2254.4 1317.73 Q2254.4 1314.98 2252.45 1313.24 Q2250.53 1311.51 2247.43 1311.51 Q2245.23 1311.51 2242.78 1312.27 Q2240.34 1313.03 2237.57 1314.58 L2237.57 1309.86 Q2240.39 1308.73 2242.84 1308.15 Q2245.3 1307.57 2247.34 1307.57 Q2252.71 1307.57 2255.9 1310.26 Q2259.09 1312.94 2259.09 1317.43 Q2259.09 1319.56 2258.28 1321.48 Q2257.5 1323.38 2255.39 1325.97 Q2254.81 1326.64 2251.71 1329.86 Q2248.61 1333.06 2242.96 1338.82 Z" fill="#000000" fill-rule="nonzero" fill-opacity="1" /></svg>
