<?xml version="1.0" encoding="utf-8"?>
<svg xmlns="http://www.w3.org/2000/svg" xmlns:xlink="http://www.w3.org/1999/xlink" width="600" height="400" viewBox="0 0 2400 1600">
<defs>
  <clipPath id="clip440">
    <rect x="0" y="0" width="2400" height="1600"/>
  </clipPath>
</defs>
<path clip-path="url(#clip440)" d="M0 1600 L2400 1600 L2400 0 L0 0  Z" fill="#ffffff" fill-rule="evenodd" fill-opacity="1"/>
<defs>
  <clipPath id="clip441">
    <rect x="480" y="0" width="1681" height="1600"/>
  </clipPath>
</defs>
<path clip-path="url(#clip440)" d="M219.38 1423.18 L2352.76 1423.18 L2352.76 47.2441 L219.38 47.2441  Z" fill="#ffffff" fill-rule="evenodd" fill-opacity="1"/>
<defs>
  <clipPath id="clip442">
    <rect x="219" y="47" width="2134" height="1377"/>
  </clipPath>
</defs>
<polyline clip-path="url(#clip442)" style="stroke:#000000; stroke-linecap:round; stroke-linejoin:round; stroke-width:2; stroke-opacity:0.1; fill:none" points="423.517,1423.18 423.517,47.2441 "/>
<polyline clip-path="url(#clip442)" style="stroke:#000000; stroke-linecap:round; stroke-linejoin:round; stroke-width:2; stroke-opacity:0.1; fill:none" points="711.034,1423.18 711.034,47.2441 "/>
<polyline clip-path="url(#clip442)" style="stroke:#000000; stroke-linecap:round; stroke-linejoin:round; stroke-width:2; stroke-opacity:0.1; fill:none" points="998.551,1423.18 998.551,47.2441 "/>
<polyline clip-path="url(#clip442)" style="stroke:#000000; stroke-linecap:round; stroke-linejoin:round; stroke-width:2; stroke-opacity:0.1; fill:none" points="1286.07,1423.18 1286.07,47.2441 "/>
<polyline clip-path="url(#clip442)" style="stroke:#000000; stroke-linecap:round; stroke-linejoin:round; stroke-width:2; stroke-opacity:0.1; fill:none" points="1573.58,1423.18 1573.58,47.2441 "/>
<polyline clip-path="url(#clip442)" style="stroke:#000000; stroke-linecap:round; stroke-linejoin:round; stroke-width:2; stroke-opacity:0.1; fill:none" points="1861.1,1423.18 1861.1,47.2441 "/>
<polyline clip-path="url(#clip442)" style="stroke:#000000; stroke-linecap:round; stroke-linejoin:round; stroke-width:2; stroke-opacity:0.1; fill:none" points="2148.62,1423.18 2148.62,47.2441 "/>
<polyline clip-path="url(#clip440)" style="stroke:#000000; stroke-linecap:round; stroke-linejoin:round; stroke-width:4; stroke-opacity:1; fill:none" points="219.38,1423.18 2352.76,1423.18 "/>
<polyline clip-path="url(#clip440)" style="stroke:#000000; stroke-linecap:round; stroke-linejoin:round; stroke-width:4; stroke-opacity:1; fill:none" points="423.517,1423.18 423.517,1404.28 "/>
<polyline clip-path="url(#clip440)" style="stroke:#000000; stroke-linecap:round; stroke-linejoin:round; stroke-width:4; stroke-opacity:1; fill:none" points="711.034,1423.18 711.034,1404.28 "/>
<polyline clip-path="url(#clip440)" style="stroke:#000000; stroke-linecap:round; stroke-linejoin:round; stroke-width:4; stroke-opacity:1; fill:none" points="998.551,1423.18 998.551,1404.28 "/>
<polyline clip-path="url(#clip440)" style="stroke:#000000; stroke-linecap:round; stroke-linejoin:round; stroke-width:4; stroke-opacity:1; fill:none" points="1286.07,1423.18 1286.07,1404.28 "/>
<polyline clip-path="url(#clip440)" style="stroke:#000000; stroke-linecap:round; stroke-linejoin:round; stroke-width:4; stroke-opacity:1; fill:none" points="1573.58,1423.18 1573.58,1404.28 "/>
<polyline clip-path="url(#clip440)" style="stroke:#000000; stroke-linecap:round; stroke-linejoin:round; stroke-width:4; stroke-opacity:1; fill:none" points="1861.1,1423.18 1861.1,1404.28 "/>
<polyline clip-path="url(#clip440)" style="stroke:#000000; stroke-linecap:round; stroke-linejoin:round; stroke-width:4; stroke-opacity:1; fill:none" points="2148.62,1423.18 2148.62,1404.28 "/>
<path clip-path="url(#clip440)" d="M418.17 1481.64 L434.489 1481.64 L434.489 1485.58 L412.545 1485.58 L412.545 1481.64 Q415.207 1478.89 419.79 1474.26 Q424.397 1469.61 425.577 1468.27 Q427.823 1465.74 428.702 1464.01 Q429.605 1462.25 429.605 1460.56 Q429.605 1457.8 427.661 1456.07 Q425.739 1454.33 422.638 1454.33 Q420.439 1454.33 417.985 1455.09 Q415.554 1455.86 412.777 1457.41 L412.777 1452.69 Q415.601 1451.55 418.054 1450.97 Q420.508 1450.39 422.545 1450.39 Q427.915 1450.39 431.11 1453.08 Q434.304 1455.77 434.304 1460.26 Q434.304 1462.39 433.494 1464.31 Q432.707 1466.2 430.6 1468.8 Q430.022 1469.47 426.92 1472.69 Q423.818 1475.88 418.17 1481.64 Z" fill="#000000" fill-rule="nonzero" fill-opacity="1" /><path clip-path="url(#clip440)" d="M714.043 1455.09 L702.238 1473.54 L714.043 1473.54 L714.043 1455.09 M712.817 1451.02 L718.696 1451.02 L718.696 1473.54 L723.627 1473.54 L723.627 1477.43 L718.696 1477.43 L718.696 1485.58 L714.043 1485.58 L714.043 1477.43 L698.442 1477.43 L698.442 1472.92 L712.817 1451.02 Z" fill="#000000" fill-rule="nonzero" fill-opacity="1" /><path clip-path="url(#clip440)" d="M998.956 1466.44 Q995.808 1466.44 993.956 1468.59 Q992.128 1470.74 992.128 1474.49 Q992.128 1478.22 993.956 1480.39 Q995.808 1482.55 998.956 1482.55 Q1002.1 1482.55 1003.93 1480.39 Q1005.78 1478.22 1005.78 1474.49 Q1005.78 1470.74 1003.93 1468.59 Q1002.1 1466.44 998.956 1466.44 M1008.24 1451.78 L1008.24 1456.04 Q1006.48 1455.21 1004.67 1454.77 Q1002.89 1454.33 1001.13 1454.33 Q996.502 1454.33 994.049 1457.45 Q991.618 1460.58 991.271 1466.9 Q992.637 1464.89 994.697 1463.82 Q996.757 1462.73 999.234 1462.73 Q1004.44 1462.73 1007.45 1465.9 Q1010.48 1469.05 1010.48 1474.49 Q1010.48 1479.82 1007.34 1483.03 Q1004.19 1486.25 998.956 1486.25 Q992.961 1486.25 989.79 1481.67 Q986.618 1477.06 986.618 1468.33 Q986.618 1460.14 990.507 1455.28 Q994.396 1450.39 1000.95 1450.39 Q1002.71 1450.39 1004.49 1450.74 Q1006.29 1451.09 1008.24 1451.78 Z" fill="#000000" fill-rule="nonzero" fill-opacity="1" /><path clip-path="url(#clip440)" d="M1286.07 1469.17 Q1282.73 1469.17 1280.81 1470.95 Q1278.92 1472.73 1278.92 1475.86 Q1278.92 1478.98 1280.81 1480.77 Q1282.73 1482.55 1286.07 1482.55 Q1289.4 1482.55 1291.32 1480.77 Q1293.24 1478.96 1293.24 1475.86 Q1293.24 1472.73 1291.32 1470.95 Q1289.42 1469.17 1286.07 1469.17 M1281.39 1467.18 Q1278.38 1466.44 1276.69 1464.38 Q1275.03 1462.32 1275.03 1459.35 Q1275.03 1455.21 1277.97 1452.8 Q1280.93 1450.39 1286.07 1450.39 Q1291.23 1450.39 1294.17 1452.8 Q1297.11 1455.21 1297.11 1459.35 Q1297.11 1462.32 1295.42 1464.38 Q1293.75 1466.44 1290.77 1467.18 Q1294.15 1467.96 1296.02 1470.26 Q1297.92 1472.55 1297.92 1475.86 Q1297.92 1480.88 1294.84 1483.57 Q1291.79 1486.25 1286.07 1486.25 Q1280.35 1486.25 1277.27 1483.57 Q1274.22 1480.88 1274.22 1475.86 Q1274.22 1472.55 1276.11 1470.26 Q1278.01 1467.96 1281.39 1467.18 M1279.68 1459.79 Q1279.68 1462.48 1281.35 1463.98 Q1283.04 1465.49 1286.07 1465.49 Q1289.08 1465.49 1290.77 1463.98 Q1292.48 1462.48 1292.48 1459.79 Q1292.48 1457.11 1290.77 1455.6 Q1289.08 1454.1 1286.07 1454.1 Q1283.04 1454.1 1281.35 1455.6 Q1279.68 1457.11 1279.68 1459.79 Z" fill="#000000" fill-rule="nonzero" fill-opacity="1" /><path clip-path="url(#clip440)" d="M1548.27 1481.64 L1555.91 1481.64 L1555.91 1455.28 L1547.6 1456.95 L1547.6 1452.69 L1555.87 1451.02 L1560.54 1451.02 L1560.54 1481.64 L1568.18 1481.64 L1568.18 1485.58 L1548.27 1485.58 L1548.27 1481.64 Z" fill="#000000" fill-rule="nonzero" fill-opacity="1" /><path clip-path="url(#clip440)" d="M1587.62 1454.1 Q1584.01 1454.1 1582.18 1457.66 Q1580.38 1461.2 1580.38 1468.33 Q1580.38 1475.44 1582.18 1479.01 Q1584.01 1482.55 1587.62 1482.55 Q1591.26 1482.55 1593.06 1479.01 Q1594.89 1475.44 1594.89 1468.33 Q1594.89 1461.2 1593.06 1457.66 Q1591.26 1454.1 1587.62 1454.1 M1587.62 1450.39 Q1593.43 1450.39 1596.49 1455 Q1599.57 1459.58 1599.57 1468.33 Q1599.57 1477.06 1596.49 1481.67 Q1593.43 1486.25 1587.62 1486.25 Q1581.81 1486.25 1578.74 1481.67 Q1575.68 1477.06 1575.68 1468.33 Q1575.68 1459.58 1578.74 1455 Q1581.81 1450.39 1587.62 1450.39 Z" fill="#000000" fill-rule="nonzero" fill-opacity="1" /><path clip-path="url(#clip440)" d="M1836.59 1481.64 L1844.23 1481.64 L1844.23 1455.28 L1835.92 1456.95 L1835.92 1452.69 L1844.18 1451.02 L1848.86 1451.02 L1848.86 1481.64 L1856.5 1481.64 L1856.5 1485.58 L1836.59 1485.58 L1836.59 1481.64 Z" fill="#000000" fill-rule="nonzero" fill-opacity="1" /><path clip-path="url(#clip440)" d="M1869.97 1481.64 L1886.29 1481.64 L1886.29 1485.58 L1864.34 1485.58 L1864.34 1481.64 Q1867 1478.89 1871.59 1474.26 Q1876.19 1469.61 1877.37 1468.27 Q1879.62 1465.74 1880.5 1464.01 Q1881.4 1462.25 1881.4 1460.56 Q1881.4 1457.8 1879.46 1456.07 Q1877.54 1454.33 1874.44 1454.33 Q1872.24 1454.33 1869.78 1455.09 Q1867.35 1455.86 1864.57 1457.41 L1864.57 1452.69 Q1867.4 1451.55 1869.85 1450.97 Q1872.31 1450.39 1874.34 1450.39 Q1879.71 1450.39 1882.91 1453.08 Q1886.1 1455.77 1886.1 1460.26 Q1886.1 1462.39 1885.29 1464.31 Q1884.5 1466.2 1882.4 1468.8 Q1881.82 1469.47 1878.72 1472.69 Q1875.62 1475.88 1869.97 1481.64 Z" fill="#000000" fill-rule="nonzero" fill-opacity="1" /><path clip-path="url(#clip440)" d="M2123.06 1481.64 L2130.7 1481.64 L2130.7 1455.28 L2122.39 1456.95 L2122.39 1452.69 L2130.66 1451.02 L2135.33 1451.02 L2135.33 1481.64 L2142.97 1481.64 L2142.97 1485.58 L2123.06 1485.58 L2123.06 1481.64 Z" fill="#000000" fill-rule="nonzero" fill-opacity="1" /><path clip-path="url(#clip440)" d="M2165.26 1455.09 L2153.46 1473.54 L2165.26 1473.54 L2165.26 1455.09 M2164.04 1451.02 L2169.92 1451.02 L2169.92 1473.54 L2174.85 1473.54 L2174.85 1477.43 L2169.92 1477.43 L2169.92 1485.58 L2165.26 1485.58 L2165.26 1477.43 L2149.66 1477.43 L2149.66 1472.92 L2164.04 1451.02 Z" fill="#000000" fill-rule="nonzero" fill-opacity="1" /><path clip-path="url(#clip440)" d="M1013.41 1520.52 L1022.07 1520.52 L1043.14 1560.28 L1043.14 1520.52 L1049.38 1520.52 L1049.38 1568.04 L1040.72 1568.04 L1019.65 1528.29 L1019.65 1568.04 L1013.41 1568.04 L1013.41 1520.52 Z" fill="#000000" fill-rule="nonzero" fill-opacity="1" /><path clip-path="url(#clip440)" d="M1061.31 1553.98 L1061.31 1532.4 L1067.17 1532.4 L1067.17 1553.75 Q1067.17 1558.81 1069.14 1561.36 Q1071.11 1563.87 1075.06 1563.87 Q1079.8 1563.87 1082.54 1560.85 Q1085.31 1557.83 1085.31 1552.61 L1085.31 1532.4 L1091.17 1532.4 L1091.17 1568.04 L1085.31 1568.04 L1085.31 1562.57 Q1083.18 1565.82 1080.34 1567.41 Q1077.54 1568.97 1073.82 1568.97 Q1067.68 1568.97 1064.49 1565.15 Q1061.31 1561.33 1061.31 1553.98 M1076.05 1531.54 L1076.05 1531.54 Z" fill="#000000" fill-rule="nonzero" fill-opacity="1" /><path clip-path="url(#clip440)" d="M1130.98 1539.24 Q1133.18 1535.29 1136.24 1533.41 Q1139.29 1531.54 1143.43 1531.54 Q1149 1531.54 1152.02 1535.45 Q1155.05 1539.33 1155.05 1546.53 L1155.05 1568.04 L1149.16 1568.04 L1149.16 1546.72 Q1149.16 1541.59 1147.34 1539.11 Q1145.53 1536.63 1141.81 1536.63 Q1137.25 1536.63 1134.61 1539.65 Q1131.97 1542.68 1131.97 1547.9 L1131.97 1568.04 L1126.08 1568.04 L1126.08 1546.72 Q1126.08 1541.56 1124.27 1539.11 Q1122.45 1536.63 1118.67 1536.63 Q1114.18 1536.63 1111.54 1539.68 Q1108.89 1542.71 1108.89 1547.9 L1108.89 1568.04 L1103.01 1568.04 L1103.01 1532.4 L1108.89 1532.4 L1108.89 1537.93 Q1110.9 1534.66 1113.7 1533.1 Q1116.5 1531.54 1120.35 1531.54 Q1124.24 1531.54 1126.94 1533.51 Q1129.68 1535.48 1130.98 1539.24 Z" fill="#000000" fill-rule="nonzero" fill-opacity="1" /><path clip-path="url(#clip440)" d="M1192.32 1550.25 Q1192.32 1543.79 1189.64 1540.13 Q1187 1536.44 1182.35 1536.44 Q1177.71 1536.44 1175.03 1540.13 Q1172.39 1543.79 1172.39 1550.25 Q1172.39 1556.71 1175.03 1560.4 Q1177.71 1564.07 1182.35 1564.07 Q1187 1564.07 1189.64 1560.4 Q1192.32 1556.71 1192.32 1550.25 M1172.39 1537.81 Q1174.24 1534.62 1177.04 1533.1 Q1179.87 1531.54 1183.79 1531.54 Q1190.28 1531.54 1194.32 1536.69 Q1198.4 1541.85 1198.4 1550.25 Q1198.4 1558.65 1194.32 1563.81 Q1190.28 1568.97 1183.79 1568.97 Q1179.87 1568.97 1177.04 1567.44 Q1174.24 1565.88 1172.39 1562.7 L1172.39 1568.04 L1166.5 1568.04 L1166.5 1518.52 L1172.39 1518.52 L1172.39 1537.81 Z" fill="#000000" fill-rule="nonzero" fill-opacity="1" /><path clip-path="url(#clip440)" d="M1238.6 1548.76 L1238.6 1551.62 L1211.67 1551.62 Q1212.05 1557.67 1215.3 1560.85 Q1218.58 1564 1224.4 1564 Q1227.77 1564 1230.93 1563.17 Q1234.11 1562.35 1237.23 1560.69 L1237.23 1566.23 Q1234.08 1567.57 1230.77 1568.27 Q1227.46 1568.97 1224.05 1568.97 Q1215.52 1568.97 1210.52 1564 Q1205.56 1559.04 1205.56 1550.57 Q1205.56 1541.82 1210.27 1536.69 Q1215.01 1531.54 1223.03 1531.54 Q1230.22 1531.54 1234.39 1536.18 Q1238.6 1540.8 1238.6 1548.76 M1232.74 1547.04 Q1232.68 1542.23 1230.03 1539.37 Q1227.42 1536.5 1223.1 1536.5 Q1218.19 1536.5 1215.23 1539.27 Q1212.31 1542.04 1211.86 1547.07 L1232.74 1547.04 Z" fill="#000000" fill-rule="nonzero" fill-opacity="1" /><path clip-path="url(#clip440)" d="M1268.86 1537.87 Q1267.88 1537.3 1266.7 1537.04 Q1265.55 1536.76 1264.15 1536.76 Q1259.19 1536.76 1256.52 1540 Q1253.87 1543.22 1253.87 1549.27 L1253.87 1568.04 L1247.99 1568.04 L1247.99 1532.4 L1253.87 1532.4 L1253.87 1537.93 Q1255.72 1534.69 1258.68 1533.13 Q1261.64 1531.54 1265.87 1531.54 Q1266.48 1531.54 1267.21 1531.63 Q1267.94 1531.7 1268.83 1531.85 L1268.86 1537.87 Z" fill="#000000" fill-rule="nonzero" fill-opacity="1" /><path clip-path="url(#clip440)" d="M1309.54 1536.5 Q1304.83 1536.5 1302.09 1540.19 Q1299.36 1543.85 1299.36 1550.25 Q1299.36 1556.65 1302.06 1560.34 Q1304.8 1564 1309.54 1564 Q1314.22 1564 1316.96 1560.31 Q1319.69 1556.62 1319.69 1550.25 Q1319.69 1543.92 1316.96 1540.23 Q1314.22 1536.5 1309.54 1536.5 M1309.54 1531.54 Q1317.18 1531.54 1321.54 1536.5 Q1325.9 1541.47 1325.9 1550.25 Q1325.9 1559 1321.54 1564 Q1317.18 1568.97 1309.54 1568.97 Q1301.87 1568.97 1297.51 1564 Q1293.18 1559 1293.18 1550.25 Q1293.18 1541.47 1297.51 1536.5 Q1301.87 1531.54 1309.54 1531.54 Z" fill="#000000" fill-rule="nonzero" fill-opacity="1" /><path clip-path="url(#clip440)" d="M1353.66 1518.52 L1353.66 1523.39 L1348.05 1523.39 Q1344.9 1523.39 1343.66 1524.66 Q1342.45 1525.93 1342.45 1529.24 L1342.45 1532.4 L1352.1 1532.4 L1352.1 1536.95 L1342.45 1536.95 L1342.45 1568.04 L1336.56 1568.04 L1336.56 1536.95 L1330.96 1536.95 L1330.96 1532.4 L1336.56 1532.4 L1336.56 1529.91 Q1336.56 1523.96 1339.33 1521.26 Q1342.1 1518.52 1348.12 1518.52 L1353.66 1518.52 Z" fill="#000000" fill-rule="nonzero" fill-opacity="1" /><path clip-path="url(#clip440)" d="M1385.07 1522.27 L1385.07 1532.4 L1397.13 1532.4 L1397.13 1536.95 L1385.07 1536.95 L1385.07 1556.3 Q1385.07 1560.66 1386.25 1561.9 Q1387.46 1563.14 1391.12 1563.14 L1397.13 1563.14 L1397.13 1568.04 L1391.12 1568.04 Q1384.34 1568.04 1381.76 1565.53 Q1379.18 1562.98 1379.18 1556.3 L1379.18 1536.95 L1374.89 1536.95 L1374.89 1532.4 L1379.18 1532.4 L1379.18 1522.27 L1385.07 1522.27 Z" fill="#000000" fill-rule="nonzero" fill-opacity="1" /><path clip-path="url(#clip440)" d="M1435.33 1548.76 L1435.33 1551.62 L1408.4 1551.62 Q1408.78 1557.67 1412.03 1560.85 Q1415.31 1564 1421.13 1564 Q1424.51 1564 1427.66 1563.17 Q1430.84 1562.35 1433.96 1560.69 L1433.96 1566.23 Q1430.81 1567.57 1427.5 1568.27 Q1424.19 1568.97 1420.78 1568.97 Q1412.25 1568.97 1407.26 1564 Q1402.29 1559.04 1402.29 1550.57 Q1402.29 1541.82 1407 1536.69 Q1411.74 1531.54 1419.76 1531.54 Q1426.96 1531.54 1431.13 1536.18 Q1435.33 1540.8 1435.33 1548.76 M1429.47 1547.04 Q1429.41 1542.23 1426.77 1539.37 Q1424.16 1536.5 1419.83 1536.5 Q1414.93 1536.5 1411.97 1539.27 Q1409.04 1542.04 1408.59 1547.07 L1429.47 1547.04 Z" fill="#000000" fill-rule="nonzero" fill-opacity="1" /><path clip-path="url(#clip440)" d="M1465.6 1537.87 Q1464.61 1537.3 1463.43 1537.04 Q1462.29 1536.76 1460.89 1536.76 Q1455.92 1536.76 1453.25 1540 Q1450.61 1543.22 1450.61 1549.27 L1450.61 1568.04 L1444.72 1568.04 L1444.72 1532.4 L1450.61 1532.4 L1450.61 1537.93 Q1452.45 1534.69 1455.41 1533.13 Q1458.37 1531.54 1462.6 1531.54 Q1463.21 1531.54 1463.94 1531.63 Q1464.67 1531.7 1465.57 1531.85 L1465.6 1537.87 Z" fill="#000000" fill-rule="nonzero" fill-opacity="1" /><path clip-path="url(#clip440)" d="M1498.35 1539.24 Q1500.54 1535.29 1503.6 1533.41 Q1506.66 1531.54 1510.79 1531.54 Q1516.36 1531.54 1519.39 1535.45 Q1522.41 1539.33 1522.41 1546.53 L1522.41 1568.04 L1516.52 1568.04 L1516.52 1546.72 Q1516.52 1541.59 1514.71 1539.11 Q1512.89 1536.63 1509.17 1536.63 Q1504.62 1536.63 1501.98 1539.65 Q1499.34 1542.68 1499.34 1547.9 L1499.34 1568.04 L1493.45 1568.04 L1493.45 1546.72 Q1493.45 1541.56 1491.63 1539.11 Q1489.82 1536.63 1486.03 1536.63 Q1481.54 1536.63 1478.9 1539.68 Q1476.26 1542.71 1476.26 1547.9 L1476.26 1568.04 L1470.37 1568.04 L1470.37 1532.4 L1476.26 1532.4 L1476.26 1537.93 Q1478.26 1534.66 1481.07 1533.1 Q1483.87 1531.54 1487.72 1531.54 Q1491.6 1531.54 1494.31 1533.51 Q1497.04 1535.48 1498.35 1539.24 Z" fill="#000000" fill-rule="nonzero" fill-opacity="1" /><path clip-path="url(#clip440)" d="M1556.82 1533.45 L1556.82 1538.98 Q1554.33 1537.71 1551.66 1537.07 Q1548.99 1536.44 1546.12 1536.44 Q1541.76 1536.44 1539.57 1537.77 Q1537.4 1539.11 1537.4 1541.79 Q1537.4 1543.82 1538.96 1545 Q1540.52 1546.15 1545.23 1547.2 L1547.24 1547.64 Q1553.48 1548.98 1556.09 1551.43 Q1558.73 1553.85 1558.73 1558.21 Q1558.73 1563.17 1554.78 1566.07 Q1550.87 1568.97 1543.99 1568.97 Q1541.13 1568.97 1538.01 1568.39 Q1534.92 1567.85 1531.48 1566.74 L1531.48 1560.69 Q1534.73 1562.38 1537.88 1563.24 Q1541.03 1564.07 1544.12 1564.07 Q1548.26 1564.07 1550.48 1562.66 Q1552.71 1561.23 1552.71 1558.65 Q1552.71 1556.27 1551.09 1554.99 Q1549.5 1553.72 1544.05 1552.54 L1542.02 1552.07 Q1536.57 1550.92 1534.16 1548.56 Q1531.74 1546.18 1531.74 1542.04 Q1531.74 1537.01 1535.3 1534.27 Q1538.87 1531.54 1545.42 1531.54 Q1548.67 1531.54 1551.53 1532.01 Q1554.4 1532.49 1556.82 1533.45 Z" fill="#000000" fill-rule="nonzero" fill-opacity="1" /><polyline clip-path="url(#clip442)" style="stroke:#000000; stroke-linecap:round; stroke-linejoin:round; stroke-width:2; stroke-opacity:0.1; fill:none" points="219.38,1384.24 2352.76,1384.24 "/>
<polyline clip-path="url(#clip442)" style="stroke:#000000; stroke-linecap:round; stroke-linejoin:round; stroke-width:2; stroke-opacity:0.1; fill:none" points="219.38,963.126 2352.76,963.126 "/>
<polyline clip-path="url(#clip442)" style="stroke:#000000; stroke-linecap:round; stroke-linejoin:round; stroke-width:2; stroke-opacity:0.1; fill:none" points="219.38,542.015 2352.76,542.015 "/>
<polyline clip-path="url(#clip442)" style="stroke:#000000; stroke-linecap:round; stroke-linejoin:round; stroke-width:2; stroke-opacity:0.1; fill:none" points="219.38,120.903 2352.76,120.903 "/>
<polyline clip-path="url(#clip440)" style="stroke:#000000; stroke-linecap:round; stroke-linejoin:round; stroke-width:4; stroke-opacity:1; fill:none" points="219.38,1423.18 219.38,47.2441 "/>
<polyline clip-path="url(#clip440)" style="stroke:#000000; stroke-linecap:round; stroke-linejoin:round; stroke-width:4; stroke-opacity:1; fill:none" points="219.38,1384.24 238.278,1384.24 "/>
<polyline clip-path="url(#clip440)" style="stroke:#000000; stroke-linecap:round; stroke-linejoin:round; stroke-width:4; stroke-opacity:1; fill:none" points="219.38,963.126 238.278,963.126 "/>
<polyline clip-path="url(#clip440)" style="stroke:#000000; stroke-linecap:round; stroke-linejoin:round; stroke-width:4; stroke-opacity:1; fill:none" points="219.38,542.015 238.278,542.015 "/>
<polyline clip-path="url(#clip440)" style="stroke:#000000; stroke-linecap:round; stroke-linejoin:round; stroke-width:4; stroke-opacity:1; fill:none" points="219.38,120.903 238.278,120.903 "/>
<path clip-path="url(#clip440)" d="M126.205 1370.04 Q122.593 1370.04 120.765 1373.6 Q118.959 1377.14 118.959 1384.27 Q118.959 1391.38 120.765 1394.94 Q122.593 1398.49 126.205 1398.49 Q129.839 1398.49 131.644 1394.94 Q133.473 1391.38 133.473 1384.27 Q133.473 1377.14 131.644 1373.6 Q129.839 1370.04 126.205 1370.04 M126.205 1366.33 Q132.015 1366.33 135.07 1370.94 Q138.149 1375.52 138.149 1384.27 Q138.149 1393 135.07 1397.61 Q132.015 1402.19 126.205 1402.19 Q120.394 1402.19 117.316 1397.61 Q114.26 1393 114.26 1384.27 Q114.26 1375.52 117.316 1370.94 Q120.394 1366.33 126.205 1366.33 Z" fill="#000000" fill-rule="nonzero" fill-opacity="1" /><path clip-path="url(#clip440)" d="M146.366 1395.64 L151.251 1395.64 L151.251 1401.52 L146.366 1401.52 L146.366 1395.64 Z" fill="#000000" fill-rule="nonzero" fill-opacity="1" /><path clip-path="url(#clip440)" d="M171.436 1370.04 Q167.825 1370.04 165.996 1373.6 Q164.19 1377.14 164.19 1384.27 Q164.19 1391.38 165.996 1394.94 Q167.825 1398.49 171.436 1398.49 Q175.07 1398.49 176.876 1394.94 Q178.704 1391.38 178.704 1384.27 Q178.704 1377.14 176.876 1373.6 Q175.07 1370.04 171.436 1370.04 M171.436 1366.33 Q177.246 1366.33 180.301 1370.94 Q183.38 1375.52 183.38 1384.27 Q183.38 1393 180.301 1397.61 Q177.246 1402.19 171.436 1402.19 Q165.626 1402.19 162.547 1397.61 Q159.491 1393 159.491 1384.27 Q159.491 1375.52 162.547 1370.94 Q165.626 1366.33 171.436 1366.33 Z" fill="#000000" fill-rule="nonzero" fill-opacity="1" /><path clip-path="url(#clip440)" d="M127.431 948.925 Q123.82 948.925 121.992 952.49 Q120.186 956.032 120.186 963.161 Q120.186 970.268 121.992 973.832 Q123.82 977.374 127.431 977.374 Q131.066 977.374 132.871 973.832 Q134.7 970.268 134.7 963.161 Q134.7 956.032 132.871 952.49 Q131.066 948.925 127.431 948.925 M127.431 945.221 Q133.242 945.221 136.297 949.828 Q139.376 954.411 139.376 963.161 Q139.376 971.888 136.297 976.494 Q133.242 981.078 127.431 981.078 Q121.621 981.078 118.543 976.494 Q115.487 971.888 115.487 963.161 Q115.487 954.411 118.543 949.828 Q121.621 945.221 127.431 945.221 Z" fill="#000000" fill-rule="nonzero" fill-opacity="1" /><path clip-path="url(#clip440)" d="M147.593 974.527 L152.478 974.527 L152.478 980.406 L147.593 980.406 L147.593 974.527 Z" fill="#000000" fill-rule="nonzero" fill-opacity="1" /><path clip-path="url(#clip440)" d="M163.473 976.471 L171.112 976.471 L171.112 950.106 L162.802 951.772 L162.802 947.513 L171.065 945.846 L175.741 945.846 L175.741 976.471 L183.38 976.471 L183.38 980.406 L163.473 980.406 L163.473 976.471 Z" fill="#000000" fill-rule="nonzero" fill-opacity="1" /><path clip-path="url(#clip440)" d="M127.802 527.813 Q124.191 527.813 122.362 531.378 Q120.556 534.92 120.556 542.049 Q120.556 549.156 122.362 552.721 Q124.191 556.262 127.802 556.262 Q131.436 556.262 133.242 552.721 Q135.07 549.156 135.07 542.049 Q135.07 534.92 133.242 531.378 Q131.436 527.813 127.802 527.813 M127.802 524.11 Q133.612 524.11 136.667 528.716 Q139.746 533.299 139.746 542.049 Q139.746 550.776 136.667 555.383 Q133.612 559.966 127.802 559.966 Q121.992 559.966 118.913 555.383 Q115.857 550.776 115.857 542.049 Q115.857 533.299 118.913 528.716 Q121.992 524.11 127.802 524.11 Z" fill="#000000" fill-rule="nonzero" fill-opacity="1" /><path clip-path="url(#clip440)" d="M147.964 553.415 L152.848 553.415 L152.848 559.295 L147.964 559.295 L147.964 553.415 Z" fill="#000000" fill-rule="nonzero" fill-opacity="1" /><path clip-path="url(#clip440)" d="M167.061 555.36 L183.38 555.36 L183.38 559.295 L161.436 559.295 L161.436 555.36 Q164.098 552.605 168.681 547.975 Q173.288 543.323 174.468 541.98 Q176.714 539.457 177.593 537.721 Q178.496 535.961 178.496 534.272 Q178.496 531.517 176.551 529.781 Q174.63 528.045 171.528 528.045 Q169.329 528.045 166.876 528.809 Q164.445 529.573 161.667 531.124 L161.667 526.401 Q164.491 525.267 166.945 524.688 Q169.399 524.11 171.436 524.11 Q176.806 524.11 180.001 526.795 Q183.195 529.48 183.195 533.971 Q183.195 536.1 182.385 538.022 Q181.598 539.92 179.491 542.512 Q178.913 543.184 175.811 546.401 Q172.709 549.596 167.061 555.36 Z" fill="#000000" fill-rule="nonzero" fill-opacity="1" /><path clip-path="url(#clip440)" d="M126.853 106.702 Q123.242 106.702 121.413 110.266 Q119.607 113.808 119.607 120.938 Q119.607 128.044 121.413 131.609 Q123.242 135.151 126.853 135.151 Q130.487 135.151 132.292 131.609 Q134.121 128.044 134.121 120.938 Q134.121 113.808 132.292 110.266 Q130.487 106.702 126.853 106.702 M126.853 102.998 Q132.663 102.998 135.718 107.604 Q138.797 112.188 138.797 120.938 Q138.797 129.664 135.718 134.271 Q132.663 138.854 126.853 138.854 Q121.043 138.854 117.964 134.271 Q114.908 129.664 114.908 120.938 Q114.908 112.188 117.964 107.604 Q121.043 102.998 126.853 102.998 Z" fill="#000000" fill-rule="nonzero" fill-opacity="1" /><path clip-path="url(#clip440)" d="M147.015 132.303 L151.899 132.303 L151.899 138.183 L147.015 138.183 L147.015 132.303 Z" fill="#000000" fill-rule="nonzero" fill-opacity="1" /><path clip-path="url(#clip440)" d="M176.251 119.549 Q179.607 120.266 181.482 122.535 Q183.38 124.803 183.38 128.137 Q183.38 133.252 179.862 136.053 Q176.343 138.854 169.862 138.854 Q167.686 138.854 165.371 138.414 Q163.079 137.998 160.626 137.141 L160.626 132.627 Q162.57 133.762 164.885 134.34 Q167.2 134.919 169.723 134.919 Q174.121 134.919 176.413 133.183 Q178.727 131.447 178.727 128.137 Q178.727 125.081 176.575 123.368 Q174.445 121.632 170.626 121.632 L166.598 121.632 L166.598 117.79 L170.811 117.79 Q174.26 117.79 176.089 116.424 Q177.917 115.035 177.917 112.442 Q177.917 109.78 176.019 108.368 Q174.144 106.933 170.626 106.933 Q168.704 106.933 166.505 107.35 Q164.306 107.766 161.667 108.646 L161.667 104.479 Q164.329 103.739 166.644 103.368 Q168.982 102.998 171.042 102.998 Q176.366 102.998 179.468 105.428 Q182.57 107.836 182.57 111.956 Q182.57 114.827 180.926 116.817 Q179.283 118.785 176.251 119.549 Z" fill="#000000" fill-rule="nonzero" fill-opacity="1" /><path clip-path="url(#clip440)" d="M41.7242 749.598 Q42.4244 747.53 44.7161 745.588 Q47.0077 743.615 51.0181 741.641 L64.0042 735.116 L64.0042 742.023 L51.8138 748.103 Q47.0395 750.458 45.48 752.686 Q43.9204 754.882 43.9204 758.701 L43.9204 765.704 L64.0042 765.704 L64.0042 772.133 L16.4842 772.133 L16.4842 757.619 Q16.4842 749.471 19.8898 745.461 Q23.2955 741.45 30.1704 741.45 Q34.6582 741.45 37.6183 743.551 Q40.5784 745.62 41.7242 749.598 M21.7677 765.704 L38.6368 765.704 L38.6368 757.619 Q38.6368 752.972 36.5043 750.617 Q34.34 748.23 30.1704 748.23 Q26.0009 748.23 23.9002 750.617 Q21.7677 752.972 21.7677 757.619 L21.7677 765.704 Z" fill="#000000" fill-rule="nonzero" fill-opacity="1" /><path clip-path="url(#clip440)" d="M58.5933 720.73 L58.5933 698.291 L64.0042 698.291 L64.0042 728.464 L58.5933 728.464 Q54.8057 724.804 48.44 718.502 Q42.0425 712.168 40.1964 710.545 Q36.7271 707.457 34.34 706.248 Q31.921 705.007 29.5975 705.007 Q25.8099 705.007 23.4228 707.68 Q21.0356 710.322 21.0356 714.587 Q21.0356 717.611 22.086 720.985 Q23.1363 724.327 25.2688 728.146 L18.7758 728.146 Q17.2162 724.263 16.4205 720.889 Q15.6248 717.515 15.6248 714.714 Q15.6248 707.33 19.3169 702.938 Q23.009 698.545 29.1837 698.545 Q32.112 698.545 34.7537 699.659 Q37.3637 700.742 40.9285 703.638 Q41.8515 704.434 46.2757 708.699 Q50.668 712.964 58.5933 720.73 Z" fill="#000000" fill-rule="nonzero" fill-opacity="1" /><polyline clip-path="url(#clip442)" style="stroke:#009af9; stroke-linecap:round; stroke-linejoin:round; stroke-width:4; stroke-opacity:1; fill:none" points="279.759,1384.24 567.276,356.467 854.793,294.48 998.551,250.584 1142.31,236.412 1286.07,222.672 1429.83,223.728 "/>
<polyline clip-path="url(#clip442)" style="stroke:#e26f46; stroke-linecap:round; stroke-linejoin:round; stroke-width:4; stroke-opacity:1; fill:none" points="279.759,1384.24 567.276,357.786 854.793,297.069 998.551,241.671 1286.07,192.965 1429.83,157.111 1573.58,141.256 1861.1,137.367 2004.86,132.811 2148.62,86.1857 2292.38,86.6804 "/>
<path clip-path="url(#clip440)" d="M1778.86 1377.32 L2281.64 1377.32 L2281.64 1221.8 L1778.86 1221.8  Z" fill="#ffffff" fill-rule="evenodd" fill-opacity="1"/>
<polyline clip-path="url(#clip440)" style="stroke:#000000; stroke-linecap:round; stroke-linejoin:round; stroke-width:4; stroke-opacity:1; fill:none" points="1778.86,1377.32 2281.64,1377.32 2281.64,1221.8 1778.86,1221.8 1778.86,1377.32 "/>
<polyline clip-path="url(#clip440)" style="stroke:#009af9; stroke-linecap:round; stroke-linejoin:round; stroke-width:4; stroke-opacity:1; fill:none" points="1802.57,1273.64 1944.79,1273.64 "/>
<path clip-path="url(#clip440)" d="M1988.84 1269.97 Q1990.44 1267.1 1992.66 1265.73 Q1994.89 1264.36 1997.89 1264.36 Q2001.95 1264.36 2004.14 1267.21 Q2006.34 1270.04 2006.34 1275.27 L2006.34 1290.92 L2002.06 1290.92 L2002.06 1275.41 Q2002.06 1271.68 2000.74 1269.87 Q1999.42 1268.07 1996.71 1268.07 Q1993.4 1268.07 1991.48 1270.27 Q1989.56 1272.47 1989.56 1276.26 L1989.56 1290.92 L1985.28 1290.92 L1985.28 1275.41 Q1985.28 1271.66 1983.96 1269.87 Q1982.64 1268.07 1979.89 1268.07 Q1976.62 1268.07 1974.7 1270.29 Q1972.78 1272.49 1972.78 1276.26 L1972.78 1290.92 L1968.5 1290.92 L1968.5 1264.99 L1972.78 1264.99 L1972.78 1269.02 Q1974.24 1266.63 1976.27 1265.5 Q1978.31 1264.36 1981.11 1264.36 Q1983.94 1264.36 1985.9 1265.8 Q1987.89 1267.23 1988.84 1269.97 Z" fill="#000000" fill-rule="nonzero" fill-opacity="1" /><path clip-path="url(#clip440)" d="M2026.62 1277.88 Q2021.46 1277.88 2019.47 1279.06 Q2017.48 1280.24 2017.48 1283.09 Q2017.48 1285.36 2018.96 1286.7 Q2020.46 1288.02 2023.03 1288.02 Q2026.57 1288.02 2028.7 1285.52 Q2030.86 1283 2030.86 1278.83 L2030.86 1277.88 L2026.62 1277.88 M2035.12 1276.12 L2035.12 1290.92 L2030.86 1290.92 L2030.86 1286.98 Q2029.4 1289.34 2027.22 1290.48 Q2025.05 1291.59 2021.9 1291.59 Q2017.92 1291.59 2015.56 1289.36 Q2013.22 1287.12 2013.22 1283.37 Q2013.22 1278.99 2016.13 1276.77 Q2019.07 1274.55 2024.88 1274.55 L2030.86 1274.55 L2030.86 1274.13 Q2030.86 1271.19 2028.91 1269.6 Q2026.99 1267.98 2023.5 1267.98 Q2021.27 1267.98 2019.17 1268.51 Q2017.06 1269.04 2015.12 1270.11 L2015.12 1266.17 Q2017.45 1265.27 2019.65 1264.83 Q2021.85 1264.36 2023.94 1264.36 Q2029.56 1264.36 2032.34 1267.28 Q2035.12 1270.2 2035.12 1276.12 Z" fill="#000000" fill-rule="nonzero" fill-opacity="1" /><path clip-path="url(#clip440)" d="M2065.44 1264.99 L2056.07 1277.61 L2065.93 1290.92 L2060.9 1290.92 L2053.36 1280.73 L2045.81 1290.92 L2040.79 1290.92 L2050.86 1277.35 L2041.64 1264.99 L2046.67 1264.99 L2053.54 1274.23 L2060.42 1264.99 L2065.44 1264.99 Z" fill="#000000" fill-rule="nonzero" fill-opacity="1" /><path clip-path="url(#clip440)" d="M2080.53 1267.98 Q2077.11 1267.98 2075.12 1270.66 Q2073.13 1273.32 2073.13 1277.98 Q2073.13 1282.63 2075.09 1285.31 Q2077.08 1287.98 2080.53 1287.98 Q2083.94 1287.98 2085.93 1285.29 Q2087.92 1282.61 2087.92 1277.98 Q2087.92 1273.37 2085.93 1270.68 Q2083.94 1267.98 2080.53 1267.98 M2080.53 1264.36 Q2086.09 1264.36 2089.26 1267.98 Q2092.43 1271.59 2092.43 1277.98 Q2092.43 1284.34 2089.26 1287.98 Q2086.09 1291.59 2080.53 1291.59 Q2074.95 1291.59 2071.78 1287.98 Q2068.63 1284.34 2068.63 1277.98 Q2068.63 1271.59 2071.78 1267.98 Q2074.95 1264.36 2080.53 1264.36 Z" fill="#000000" fill-rule="nonzero" fill-opacity="1" /><path clip-path="url(#clip440)" d="M2114.51 1268.97 Q2113.8 1268.55 2112.94 1268.37 Q2112.11 1268.16 2111.09 1268.16 Q2107.48 1268.16 2105.53 1270.52 Q2103.61 1272.86 2103.61 1277.26 L2103.61 1290.92 L2099.33 1290.92 L2099.33 1264.99 L2103.61 1264.99 L2103.61 1269.02 Q2104.95 1266.66 2107.11 1265.52 Q2109.26 1264.36 2112.34 1264.36 Q2112.78 1264.36 2113.31 1264.43 Q2113.84 1264.48 2114.49 1264.6 L2114.51 1268.97 Z" fill="#000000" fill-rule="nonzero" fill-opacity="1" /><path clip-path="url(#clip440)" d="M2135.21 1268.92 L2135.21 1254.9 L2139.47 1254.9 L2139.47 1290.92 L2135.21 1290.92 L2135.21 1287.03 Q2133.87 1289.34 2131.81 1290.48 Q2129.77 1291.59 2126.9 1291.59 Q2122.2 1291.59 2119.24 1287.84 Q2116.3 1284.09 2116.3 1277.98 Q2116.3 1271.86 2119.24 1268.11 Q2122.2 1264.36 2126.9 1264.36 Q2129.77 1264.36 2131.81 1265.5 Q2133.87 1266.61 2135.21 1268.92 M2120.69 1277.98 Q2120.69 1282.67 2122.62 1285.36 Q2124.56 1288.02 2127.94 1288.02 Q2131.32 1288.02 2133.26 1285.36 Q2135.21 1282.67 2135.21 1277.98 Q2135.21 1273.28 2133.26 1270.61 Q2131.32 1267.93 2127.94 1267.93 Q2124.56 1267.93 2122.62 1270.61 Q2120.69 1273.28 2120.69 1277.98 Z" fill="#000000" fill-rule="nonzero" fill-opacity="1" /><path clip-path="url(#clip440)" d="M2170.42 1276.89 L2170.42 1278.97 L2150.83 1278.97 Q2151.11 1283.37 2153.47 1285.68 Q2155.86 1287.98 2160.09 1287.98 Q2162.55 1287.98 2164.84 1287.37 Q2167.15 1286.77 2169.42 1285.57 L2169.42 1289.6 Q2167.13 1290.57 2164.72 1291.08 Q2162.31 1291.59 2159.84 1291.59 Q2153.63 1291.59 2150 1287.98 Q2146.39 1284.36 2146.39 1278.21 Q2146.39 1271.84 2149.81 1268.11 Q2153.26 1264.36 2159.1 1264.36 Q2164.33 1264.36 2167.36 1267.74 Q2170.42 1271.1 2170.42 1276.89 M2166.16 1275.64 Q2166.11 1272.14 2164.19 1270.06 Q2162.29 1267.98 2159.14 1267.98 Q2155.58 1267.98 2153.43 1269.99 Q2151.3 1272 2150.97 1275.66 L2166.16 1275.64 Z" fill="#000000" fill-rule="nonzero" fill-opacity="1" /><path clip-path="url(#clip440)" d="M2192.43 1268.97 Q2191.71 1268.55 2190.86 1268.37 Q2190.02 1268.16 2189 1268.16 Q2185.39 1268.16 2183.45 1270.52 Q2181.53 1272.86 2181.53 1277.26 L2181.53 1290.92 L2177.25 1290.92 L2177.25 1264.99 L2181.53 1264.99 L2181.53 1269.02 Q2182.87 1266.66 2185.02 1265.52 Q2187.18 1264.36 2190.25 1264.36 Q2190.69 1264.36 2191.23 1264.43 Q2191.76 1264.48 2192.41 1264.6 L2192.43 1268.97 Z" fill="#000000" fill-rule="nonzero" fill-opacity="1" /><path clip-path="url(#clip440)" d="M2197.45 1269.39 L2227.13 1269.39 L2227.13 1273.28 L2197.45 1273.28 L2197.45 1269.39 M2197.45 1278.83 L2227.13 1278.83 L2227.13 1282.77 L2197.45 1282.77 L2197.45 1278.83 Z" fill="#000000" fill-rule="nonzero" fill-opacity="1" /><path clip-path="url(#clip440)" d="M2238.03 1286.98 L2245.67 1286.98 L2245.67 1260.61 L2237.36 1262.28 L2237.36 1258.02 L2245.62 1256.36 L2250.3 1256.36 L2250.3 1286.98 L2257.94 1286.98 L2257.94 1290.92 L2238.03 1290.92 L2238.03 1286.98 Z" fill="#000000" fill-rule="nonzero" fill-opacity="1" /><polyline clip-path="url(#clip440)" style="stroke:#e26f46; stroke-linecap:round; stroke-linejoin:round; stroke-width:4; stroke-opacity:1; fill:none" points="1802.57,1325.48 1944.79,1325.48 "/>
<path clip-path="url(#clip440)" d="M1988.84 1321.81 Q1990.44 1318.94 1992.66 1317.57 Q1994.89 1316.2 1997.89 1316.2 Q2001.95 1316.2 2004.14 1319.05 Q2006.34 1321.88 2006.34 1327.11 L2006.34 1342.76 L2002.06 1342.76 L2002.06 1327.25 Q2002.06 1323.52 2000.74 1321.71 Q1999.42 1319.91 1996.71 1319.91 Q1993.4 1319.91 1991.48 1322.11 Q1989.56 1324.31 1989.56 1328.1 L1989.56 1342.76 L1985.28 1342.76 L1985.28 1327.25 Q1985.28 1323.5 1983.96 1321.71 Q1982.64 1319.91 1979.89 1319.91 Q1976.62 1319.91 1974.7 1322.13 Q1972.78 1324.33 1972.78 1328.1 L1972.78 1342.76 L1968.5 1342.76 L1968.5 1316.83 L1972.78 1316.83 L1972.78 1320.86 Q1974.24 1318.47 1976.27 1317.34 Q1978.31 1316.2 1981.11 1316.2 Q1983.94 1316.2 1985.9 1317.64 Q1987.89 1319.07 1988.84 1321.81 Z" fill="#000000" fill-rule="nonzero" fill-opacity="1" /><path clip-path="url(#clip440)" d="M2026.62 1329.72 Q2021.46 1329.72 2019.47 1330.9 Q2017.48 1332.08 2017.48 1334.93 Q2017.48 1337.2 2018.96 1338.54 Q2020.46 1339.86 2023.03 1339.86 Q2026.57 1339.86 2028.7 1337.36 Q2030.86 1334.84 2030.86 1330.67 L2030.86 1329.72 L2026.62 1329.72 M2035.12 1327.96 L2035.12 1342.76 L2030.86 1342.76 L2030.86 1338.82 Q2029.4 1341.18 2027.22 1342.32 Q2025.05 1343.43 2021.9 1343.43 Q2017.92 1343.43 2015.56 1341.2 Q2013.22 1338.96 2013.22 1335.21 Q2013.22 1330.83 2016.13 1328.61 Q2019.07 1326.39 2024.88 1326.39 L2030.86 1326.39 L2030.86 1325.97 Q2030.86 1323.03 2028.91 1321.44 Q2026.99 1319.82 2023.5 1319.82 Q2021.27 1319.82 2019.17 1320.35 Q2017.06 1320.88 2015.12 1321.95 L2015.12 1318.01 Q2017.45 1317.11 2019.65 1316.67 Q2021.85 1316.2 2023.94 1316.2 Q2029.56 1316.2 2032.34 1319.12 Q2035.12 1322.04 2035.12 1327.96 Z" fill="#000000" fill-rule="nonzero" fill-opacity="1" /><path clip-path="url(#clip440)" d="M2065.44 1316.83 L2056.07 1329.45 L2065.93 1342.76 L2060.9 1342.76 L2053.36 1332.57 L2045.81 1342.76 L2040.79 1342.76 L2050.86 1329.19 L2041.64 1316.83 L2046.67 1316.83 L2053.54 1326.07 L2060.42 1316.83 L2065.44 1316.83 Z" fill="#000000" fill-rule="nonzero" fill-opacity="1" /><path clip-path="url(#clip440)" d="M2080.53 1319.82 Q2077.11 1319.82 2075.12 1322.5 Q2073.13 1325.16 2073.13 1329.82 Q2073.13 1334.47 2075.09 1337.15 Q2077.08 1339.82 2080.53 1339.82 Q2083.94 1339.82 2085.93 1337.13 Q2087.92 1334.45 2087.92 1329.82 Q2087.92 1325.21 2085.93 1322.52 Q2083.94 1319.82 2080.53 1319.82 M2080.53 1316.2 Q2086.09 1316.2 2089.26 1319.82 Q2092.43 1323.43 2092.43 1329.82 Q2092.43 1336.18 2089.26 1339.82 Q2086.09 1343.43 2080.53 1343.43 Q2074.95 1343.43 2071.78 1339.82 Q2068.63 1336.18 2068.63 1329.82 Q2068.63 1323.43 2071.78 1319.82 Q2074.95 1316.2 2080.53 1316.2 Z" fill="#000000" fill-rule="nonzero" fill-opacity="1" /><path clip-path="url(#clip440)" d="M2114.51 1320.81 Q2113.8 1320.39 2112.94 1320.21 Q2112.11 1320 2111.09 1320 Q2107.48 1320 2105.53 1322.36 Q2103.61 1324.7 2103.61 1329.1 L2103.61 1342.76 L2099.33 1342.76 L2099.33 1316.83 L2103.61 1316.83 L2103.61 1320.86 Q2104.95 1318.5 2107.11 1317.36 Q2109.26 1316.2 2112.34 1316.2 Q2112.78 1316.2 2113.31 1316.27 Q2113.84 1316.32 2114.49 1316.44 L2114.51 1320.81 Z" fill="#000000" fill-rule="nonzero" fill-opacity="1" /><path clip-path="url(#clip440)" d="M2135.21 1320.76 L2135.21 1306.74 L2139.47 1306.74 L2139.47 1342.76 L2135.21 1342.76 L2135.21 1338.87 Q2133.87 1341.18 2131.81 1342.32 Q2129.77 1343.43 2126.9 1343.43 Q2122.2 1343.43 2119.24 1339.68 Q2116.3 1335.93 2116.3 1329.82 Q2116.3 1323.7 2119.24 1319.95 Q2122.2 1316.2 2126.9 1316.2 Q2129.77 1316.2 2131.81 1317.34 Q2133.87 1318.45 2135.21 1320.76 M2120.69 1329.82 Q2120.69 1334.51 2122.62 1337.2 Q2124.56 1339.86 2127.94 1339.86 Q2131.32 1339.86 2133.26 1337.2 Q2135.21 1334.51 2135.21 1329.82 Q2135.21 1325.12 2133.26 1322.45 Q2131.32 1319.77 2127.94 1319.77 Q2124.56 1319.77 2122.62 1322.45 Q2120.69 1325.12 2120.69 1329.82 Z" fill="#000000" fill-rule="nonzero" fill-opacity="1" /><path clip-path="url(#clip440)" d="M2170.42 1328.73 L2170.42 1330.81 L2150.83 1330.81 Q2151.11 1335.21 2153.47 1337.52 Q2155.86 1339.82 2160.09 1339.82 Q2162.55 1339.82 2164.84 1339.21 Q2167.15 1338.61 2169.42 1337.41 L2169.42 1341.44 Q2167.13 1342.41 2164.72 1342.92 Q2162.31 1343.43 2159.84 1343.43 Q2153.63 1343.43 2150 1339.82 Q2146.39 1336.2 2146.39 1330.05 Q2146.39 1323.68 2149.81 1319.95 Q2153.26 1316.2 2159.1 1316.2 Q2164.33 1316.2 2167.36 1319.58 Q2170.42 1322.94 2170.42 1328.73 M2166.16 1327.48 Q2166.11 1323.98 2164.19 1321.9 Q2162.29 1319.82 2159.14 1319.82 Q2155.58 1319.82 2153.43 1321.83 Q2151.3 1323.84 2150.97 1327.5 L2166.16 1327.48 Z" fill="#000000" fill-rule="nonzero" fill-opacity="1" /><path clip-path="url(#clip440)" d="M2192.43 1320.81 Q2191.71 1320.39 2190.86 1320.21 Q2190.02 1320 2189 1320 Q2185.39 1320 2183.45 1322.36 Q2181.53 1324.7 2181.53 1329.1 L2181.53 1342.76 L2177.25 1342.76 L2177.25 1316.83 L2181.53 1316.83 L2181.53 1320.86 Q2182.87 1318.5 2185.02 1317.36 Q2187.18 1316.2 2190.25 1316.2 Q2190.69 1316.2 2191.23 1316.27 Q2191.76 1316.32 2192.41 1316.44 L2192.43 1320.81 Z" fill="#000000" fill-rule="nonzero" fill-opacity="1" /><path clip-path="url(#clip440)" d="M2197.45 1321.23 L2227.13 1321.23 L2227.13 1325.12 L2197.45 1325.12 L2197.45 1321.23 M2197.45 1330.67 L2227.13 1330.67 L2227.13 1334.61 L2197.45 1334.61 L2197.45 1330.67 Z" fill="#000000" fill-rule="nonzero" fill-opacity="1" /><path clip-path="url(#clip440)" d="M2241.25 1338.82 L2257.57 1338.82 L2257.57 1342.76 L2235.62 1342.76 L2235.62 1338.82 Q2238.29 1336.07 2242.87 1331.44 Q2247.48 1326.78 2248.66 1325.44 Q2250.9 1322.92 2251.78 1321.18 Q2252.68 1319.42 2252.68 1317.73 Q2252.68 1314.98 2250.74 1313.24 Q2248.82 1311.51 2245.72 1311.51 Q2243.52 1311.51 2241.06 1312.27 Q2238.63 1313.03 2235.86 1314.58 L2235.86 1309.86 Q2238.68 1308.73 2241.13 1308.15 Q2243.59 1307.57 2245.62 1307.57 Q2250.99 1307.57 2254.19 1310.26 Q2257.38 1312.94 2257.38 1317.43 Q2257.38 1319.56 2256.57 1321.48 Q2255.79 1323.38 2253.68 1325.97 Q2253.1 1326.64 2250 1329.86 Q2246.9 1333.06 2241.25 1338.82 Z" fill="#000000" fill-rule="nonzero" fill-opacity="1" /></svg>
