<?xml version="1.0" encoding="utf-8"?>
<svg xmlns="http://www.w3.org/2000/svg" xmlns:xlink="http://www.w3.org/1999/xlink" width="600" height="400" viewBox="0 0 2400 1600">
<defs>
  <clipPath id="clip000">
    <rect x="0" y="0" width="2400" height="1600"/>
  </clipPath>
</defs>
<path clip-path="url(#clip000)" d="M0 1600 L2400 1600 L2400 0 L0 0  Z" fill="#ffffff" fill-rule="evenodd" fill-opacity="1"/>
<defs>
  <clipPath id="clip001">
    <rect x="480" y="0" width="1681" height="1600"/>
  </clipPath>
</defs>
<path clip-path="url(#clip000)" d="M232.389 1423.18 L2352.76 1423.18 L2352.76 47.2441 L232.389 47.2441  Z" fill="#ffffff" fill-rule="evenodd" fill-opacity="1"/>
<defs>
  <clipPath id="clip002">
    <rect x="232" y="47" width="2121" height="1377"/>
  </clipPath>
</defs>
<polyline clip-path="url(#clip002)" style="stroke:#000000; stroke-linecap:round; stroke-linejoin:round; stroke-width:2; stroke-opacity:0.1; fill:none" points="356.927,1423.18 356.927,47.2441 "/>
<polyline clip-path="url(#clip002)" style="stroke:#000000; stroke-linecap:round; stroke-linejoin:round; stroke-width:2; stroke-opacity:0.1; fill:none" points="679.563,1423.18 679.563,47.2441 "/>
<polyline clip-path="url(#clip002)" style="stroke:#000000; stroke-linecap:round; stroke-linejoin:round; stroke-width:2; stroke-opacity:0.1; fill:none" points="1002.2,1423.18 1002.2,47.2441 "/>
<polyline clip-path="url(#clip002)" style="stroke:#000000; stroke-linecap:round; stroke-linejoin:round; stroke-width:2; stroke-opacity:0.1; fill:none" points="1324.84,1423.18 1324.84,47.2441 "/>
<polyline clip-path="url(#clip002)" style="stroke:#000000; stroke-linecap:round; stroke-linejoin:round; stroke-width:2; stroke-opacity:0.1; fill:none" points="1647.47,1423.18 1647.47,47.2441 "/>
<polyline clip-path="url(#clip002)" style="stroke:#000000; stroke-linecap:round; stroke-linejoin:round; stroke-width:2; stroke-opacity:0.1; fill:none" points="1970.11,1423.18 1970.11,47.2441 "/>
<polyline clip-path="url(#clip002)" style="stroke:#000000; stroke-linecap:round; stroke-linejoin:round; stroke-width:2; stroke-opacity:0.1; fill:none" points="2292.75,1423.18 2292.75,47.2441 "/>
<polyline clip-path="url(#clip000)" style="stroke:#000000; stroke-linecap:round; stroke-linejoin:round; stroke-width:4; stroke-opacity:1; fill:none" points="232.389,1423.18 2352.76,1423.18 "/>
<polyline clip-path="url(#clip000)" style="stroke:#000000; stroke-linecap:round; stroke-linejoin:round; stroke-width:4; stroke-opacity:1; fill:none" points="356.927,1423.18 356.927,1404.28 "/>
<polyline clip-path="url(#clip000)" style="stroke:#000000; stroke-linecap:round; stroke-linejoin:round; stroke-width:4; stroke-opacity:1; fill:none" points="679.563,1423.18 679.563,1404.28 "/>
<polyline clip-path="url(#clip000)" style="stroke:#000000; stroke-linecap:round; stroke-linejoin:round; stroke-width:4; stroke-opacity:1; fill:none" points="1002.2,1423.18 1002.2,1404.28 "/>
<polyline clip-path="url(#clip000)" style="stroke:#000000; stroke-linecap:round; stroke-linejoin:round; stroke-width:4; stroke-opacity:1; fill:none" points="1324.84,1423.18 1324.84,1404.28 "/>
<polyline clip-path="url(#clip000)" style="stroke:#000000; stroke-linecap:round; stroke-linejoin:round; stroke-width:4; stroke-opacity:1; fill:none" points="1647.47,1423.18 1647.47,1404.28 "/>
<polyline clip-path="url(#clip000)" style="stroke:#000000; stroke-linecap:round; stroke-linejoin:round; stroke-width:4; stroke-opacity:1; fill:none" points="1970.11,1423.18 1970.11,1404.28 "/>
<polyline clip-path="url(#clip000)" style="stroke:#000000; stroke-linecap:round; stroke-linejoin:round; stroke-width:4; stroke-opacity:1; fill:none" points="2292.75,1423.18 2292.75,1404.28 "/>
<path clip-path="url(#clip000)" d="M335.7 1481.64 L352.02 1481.64 L352.02 1485.58 L330.075 1485.58 L330.075 1481.64 Q332.737 1478.89 337.321 1474.26 Q341.927 1469.61 343.108 1468.27 Q345.353 1465.74 346.233 1464.01 Q347.135 1462.25 347.135 1460.56 Q347.135 1457.8 345.191 1456.07 Q343.27 1454.33 340.168 1454.33 Q337.969 1454.33 335.515 1455.09 Q333.085 1455.86 330.307 1457.41 L330.307 1452.69 Q333.131 1451.55 335.585 1450.97 Q338.038 1450.39 340.075 1450.39 Q345.446 1450.39 348.64 1453.08 Q351.834 1455.77 351.834 1460.26 Q351.834 1462.39 351.024 1464.31 Q350.237 1466.2 348.131 1468.8 Q347.552 1469.47 344.45 1472.69 Q341.348 1475.88 335.7 1481.64 Z" fill="#000000" fill-rule="nonzero" fill-opacity="1" /><path clip-path="url(#clip000)" d="M371.834 1454.1 Q368.223 1454.1 366.395 1457.66 Q364.589 1461.2 364.589 1468.33 Q364.589 1475.44 366.395 1479.01 Q368.223 1482.55 371.834 1482.55 Q375.469 1482.55 377.274 1479.01 Q379.103 1475.44 379.103 1468.33 Q379.103 1461.2 377.274 1457.66 Q375.469 1454.1 371.834 1454.1 M371.834 1450.39 Q377.644 1450.39 380.7 1455 Q383.779 1459.58 383.779 1468.33 Q383.779 1477.06 380.7 1481.67 Q377.644 1486.25 371.834 1486.25 Q366.024 1486.25 362.945 1481.67 Q359.89 1477.06 359.89 1468.33 Q359.89 1459.58 362.945 1455 Q366.024 1450.39 371.834 1450.39 Z" fill="#000000" fill-rule="nonzero" fill-opacity="1" /><path clip-path="url(#clip000)" d="M668.406 1466.95 Q671.763 1467.66 673.638 1469.93 Q675.536 1472.2 675.536 1475.53 Q675.536 1480.65 672.017 1483.45 Q668.499 1486.25 662.017 1486.25 Q659.841 1486.25 657.527 1485.81 Q655.235 1485.39 652.781 1484.54 L652.781 1480.02 Q654.726 1481.16 657.04 1481.74 Q659.355 1482.32 661.878 1482.32 Q666.276 1482.32 668.568 1480.58 Q670.883 1478.84 670.883 1475.53 Q670.883 1472.48 668.73 1470.77 Q666.601 1469.03 662.781 1469.03 L658.753 1469.03 L658.753 1465.19 L662.966 1465.19 Q666.415 1465.19 668.244 1463.82 Q670.073 1462.43 670.073 1459.84 Q670.073 1457.18 668.175 1455.77 Q666.3 1454.33 662.781 1454.33 Q660.86 1454.33 658.661 1454.75 Q656.462 1455.16 653.823 1456.04 L653.823 1451.88 Q656.485 1451.14 658.8 1450.77 Q661.138 1450.39 663.198 1450.39 Q668.522 1450.39 671.624 1452.83 Q674.725 1455.23 674.725 1459.35 Q674.725 1462.22 673.082 1464.21 Q671.438 1466.18 668.406 1466.95 Z" fill="#000000" fill-rule="nonzero" fill-opacity="1" /><path clip-path="url(#clip000)" d="M694.401 1454.1 Q690.79 1454.1 688.962 1457.66 Q687.156 1461.2 687.156 1468.33 Q687.156 1475.44 688.962 1479.01 Q690.79 1482.55 694.401 1482.55 Q698.036 1482.55 699.841 1479.01 Q701.67 1475.44 701.67 1468.33 Q701.67 1461.2 699.841 1457.66 Q698.036 1454.1 694.401 1454.1 M694.401 1450.39 Q700.211 1450.39 703.267 1455 Q706.346 1459.58 706.346 1468.33 Q706.346 1477.06 703.267 1481.67 Q700.211 1486.25 694.401 1486.25 Q688.591 1486.25 685.512 1481.67 Q682.457 1477.06 682.457 1468.33 Q682.457 1459.58 685.512 1455 Q688.591 1450.39 694.401 1450.39 Z" fill="#000000" fill-rule="nonzero" fill-opacity="1" /><path clip-path="url(#clip000)" d="M990.371 1455.09 L978.566 1473.54 L990.371 1473.54 L990.371 1455.09 M989.144 1451.02 L995.024 1451.02 L995.024 1473.54 L999.954 1473.54 L999.954 1477.43 L995.024 1477.43 L995.024 1485.58 L990.371 1485.58 L990.371 1477.43 L974.769 1477.43 L974.769 1472.92 L989.144 1451.02 Z" fill="#000000" fill-rule="nonzero" fill-opacity="1" /><path clip-path="url(#clip000)" d="M1017.69 1454.1 Q1014.07 1454.1 1012.25 1457.66 Q1010.44 1461.2 1010.44 1468.33 Q1010.44 1475.44 1012.25 1479.01 Q1014.07 1482.55 1017.69 1482.55 Q1021.32 1482.55 1023.13 1479.01 Q1024.95 1475.44 1024.95 1468.33 Q1024.95 1461.2 1023.13 1457.66 Q1021.32 1454.1 1017.69 1454.1 M1017.69 1450.39 Q1023.5 1450.39 1026.55 1455 Q1029.63 1459.58 1029.63 1468.33 Q1029.63 1477.06 1026.55 1481.67 Q1023.5 1486.25 1017.69 1486.25 Q1011.88 1486.25 1008.8 1481.67 Q1005.74 1477.06 1005.74 1468.33 Q1005.74 1459.58 1008.8 1455 Q1011.88 1450.39 1017.69 1450.39 Z" fill="#000000" fill-rule="nonzero" fill-opacity="1" /><path clip-path="url(#clip000)" d="M1299.54 1451.02 L1317.89 1451.02 L1317.89 1454.96 L1303.82 1454.96 L1303.82 1463.43 Q1304.84 1463.08 1305.85 1462.92 Q1306.87 1462.73 1307.89 1462.73 Q1313.68 1462.73 1317.06 1465.9 Q1320.44 1469.08 1320.44 1474.49 Q1320.44 1480.07 1316.97 1483.17 Q1313.49 1486.25 1307.17 1486.25 Q1305 1486.25 1302.73 1485.88 Q1300.48 1485.51 1298.08 1484.77 L1298.08 1480.07 Q1300.16 1481.2 1302.38 1481.76 Q1304.6 1482.32 1307.08 1482.32 Q1311.09 1482.32 1313.42 1480.21 Q1315.76 1478.1 1315.76 1474.49 Q1315.76 1470.88 1313.42 1468.77 Q1311.09 1466.67 1307.08 1466.67 Q1305.21 1466.67 1303.33 1467.08 Q1301.48 1467.5 1299.54 1468.38 L1299.54 1451.02 Z" fill="#000000" fill-rule="nonzero" fill-opacity="1" /><path clip-path="url(#clip000)" d="M1339.65 1454.1 Q1336.04 1454.1 1334.21 1457.66 Q1332.41 1461.2 1332.41 1468.33 Q1332.41 1475.44 1334.21 1479.01 Q1336.04 1482.55 1339.65 1482.55 Q1343.29 1482.55 1345.09 1479.01 Q1346.92 1475.44 1346.92 1468.33 Q1346.92 1461.2 1345.09 1457.66 Q1343.29 1454.1 1339.65 1454.1 M1339.65 1450.39 Q1345.46 1450.39 1348.52 1455 Q1351.6 1459.58 1351.6 1468.33 Q1351.6 1477.06 1348.52 1481.67 Q1345.46 1486.25 1339.65 1486.25 Q1333.84 1486.25 1330.76 1481.67 Q1327.71 1477.06 1327.71 1468.33 Q1327.71 1459.58 1330.76 1455 Q1333.84 1450.39 1339.65 1450.39 Z" fill="#000000" fill-rule="nonzero" fill-opacity="1" /><path clip-path="url(#clip000)" d="M1632.88 1466.44 Q1629.73 1466.44 1627.88 1468.59 Q1626.05 1470.74 1626.05 1474.49 Q1626.05 1478.22 1627.88 1480.39 Q1629.73 1482.55 1632.88 1482.55 Q1636.03 1482.55 1637.85 1480.39 Q1639.71 1478.22 1639.71 1474.49 Q1639.71 1470.74 1637.85 1468.59 Q1636.03 1466.44 1632.88 1466.44 M1642.16 1451.78 L1642.16 1456.04 Q1640.4 1455.21 1638.6 1454.77 Q1636.81 1454.33 1635.05 1454.33 Q1630.42 1454.33 1627.97 1457.45 Q1625.54 1460.58 1625.19 1466.9 Q1626.56 1464.89 1628.62 1463.82 Q1630.68 1462.73 1633.16 1462.73 Q1638.36 1462.73 1641.37 1465.9 Q1644.41 1469.05 1644.41 1474.49 Q1644.41 1479.82 1641.26 1483.03 Q1638.11 1486.25 1632.88 1486.25 Q1626.88 1486.25 1623.71 1481.67 Q1620.54 1477.06 1620.54 1468.33 Q1620.54 1460.14 1624.43 1455.28 Q1628.32 1450.39 1634.87 1450.39 Q1636.63 1450.39 1638.41 1450.74 Q1640.22 1451.09 1642.16 1451.78 Z" fill="#000000" fill-rule="nonzero" fill-opacity="1" /><path clip-path="url(#clip000)" d="M1662.46 1454.1 Q1658.85 1454.1 1657.02 1457.66 Q1655.22 1461.2 1655.22 1468.33 Q1655.22 1475.44 1657.02 1479.01 Q1658.85 1482.55 1662.46 1482.55 Q1666.1 1482.55 1667.9 1479.01 Q1669.73 1475.44 1669.73 1468.33 Q1669.73 1461.2 1667.9 1457.66 Q1666.1 1454.1 1662.46 1454.1 M1662.46 1450.39 Q1668.27 1450.39 1671.33 1455 Q1674.41 1459.58 1674.41 1468.33 Q1674.41 1477.06 1671.33 1481.67 Q1668.27 1486.25 1662.46 1486.25 Q1656.65 1486.25 1653.57 1481.67 Q1650.52 1477.06 1650.52 1468.33 Q1650.52 1459.58 1653.57 1455 Q1656.65 1450.39 1662.46 1450.39 Z" fill="#000000" fill-rule="nonzero" fill-opacity="1" /><path clip-path="url(#clip000)" d="M1943.47 1451.02 L1965.69 1451.02 L1965.69 1453.01 L1953.14 1485.58 L1948.26 1485.58 L1960.06 1454.96 L1943.47 1454.96 L1943.47 1451.02 Z" fill="#000000" fill-rule="nonzero" fill-opacity="1" /><path clip-path="url(#clip000)" d="M1984.81 1454.1 Q1981.2 1454.1 1979.37 1457.66 Q1977.56 1461.2 1977.56 1468.33 Q1977.56 1475.44 1979.37 1479.01 Q1981.2 1482.55 1984.81 1482.55 Q1988.44 1482.55 1990.25 1479.01 Q1992.08 1475.44 1992.08 1468.33 Q1992.08 1461.2 1990.25 1457.66 Q1988.44 1454.1 1984.81 1454.1 M1984.81 1450.39 Q1990.62 1450.39 1993.67 1455 Q1996.75 1459.58 1996.75 1468.33 Q1996.75 1477.06 1993.67 1481.67 Q1990.62 1486.25 1984.81 1486.25 Q1979 1486.25 1975.92 1481.67 Q1972.86 1477.06 1972.86 1468.33 Q1972.86 1459.58 1975.92 1455 Q1979 1450.39 1984.81 1450.39 Z" fill="#000000" fill-rule="nonzero" fill-opacity="1" /><path clip-path="url(#clip000)" d="M2277.62 1469.17 Q2274.28 1469.17 2272.36 1470.95 Q2270.47 1472.73 2270.47 1475.86 Q2270.47 1478.98 2272.36 1480.77 Q2274.28 1482.55 2277.62 1482.55 Q2280.95 1482.55 2282.87 1480.77 Q2284.79 1478.96 2284.79 1475.86 Q2284.79 1472.73 2282.87 1470.95 Q2280.97 1469.17 2277.62 1469.17 M2272.94 1467.18 Q2269.93 1466.44 2268.24 1464.38 Q2266.58 1462.32 2266.58 1459.35 Q2266.58 1455.21 2269.52 1452.8 Q2272.48 1450.39 2277.62 1450.39 Q2282.78 1450.39 2285.72 1452.8 Q2288.66 1455.21 2288.66 1459.35 Q2288.66 1462.32 2286.97 1464.38 Q2285.3 1466.44 2282.32 1467.18 Q2285.7 1467.96 2287.57 1470.26 Q2289.47 1472.55 2289.47 1475.86 Q2289.47 1480.88 2286.39 1483.57 Q2283.34 1486.25 2277.62 1486.25 Q2271.9 1486.25 2268.82 1483.57 Q2265.77 1480.88 2265.77 1475.86 Q2265.77 1472.55 2267.66 1470.26 Q2269.56 1467.96 2272.94 1467.18 M2271.23 1459.79 Q2271.23 1462.48 2272.9 1463.98 Q2274.59 1465.49 2277.62 1465.49 Q2280.63 1465.49 2282.32 1463.98 Q2284.03 1462.48 2284.03 1459.79 Q2284.03 1457.11 2282.32 1455.6 Q2280.63 1454.1 2277.62 1454.1 Q2274.59 1454.1 2272.9 1455.6 Q2271.23 1457.11 2271.23 1459.79 Z" fill="#000000" fill-rule="nonzero" fill-opacity="1" /><path clip-path="url(#clip000)" d="M2307.78 1454.1 Q2304.17 1454.1 2302.34 1457.66 Q2300.53 1461.2 2300.53 1468.33 Q2300.53 1475.44 2302.34 1479.01 Q2304.17 1482.55 2307.78 1482.55 Q2311.41 1482.55 2313.22 1479.01 Q2315.05 1475.44 2315.05 1468.33 Q2315.05 1461.2 2313.22 1457.66 Q2311.41 1454.1 2307.78 1454.1 M2307.78 1450.39 Q2313.59 1450.39 2316.65 1455 Q2319.72 1459.58 2319.72 1468.33 Q2319.72 1477.06 2316.65 1481.67 Q2313.59 1486.25 2307.78 1486.25 Q2301.97 1486.25 2298.89 1481.67 Q2295.84 1477.06 2295.84 1468.33 Q2295.84 1459.58 2298.89 1455 Q2301.97 1450.39 2307.78 1450.39 Z" fill="#000000" fill-rule="nonzero" fill-opacity="1" /><path clip-path="url(#clip000)" d="M1253.3 1526.86 L1244.58 1550.51 L1262.05 1550.51 L1253.3 1526.86 M1249.67 1520.52 L1256.96 1520.52 L1275.07 1568.04 L1268.38 1568.04 L1264.05 1555.85 L1242.63 1555.85 L1238.3 1568.04 L1231.53 1568.04 L1249.67 1520.52 Z" fill="#000000" fill-rule="nonzero" fill-opacity="1" /><path clip-path="url(#clip000)" d="M1305.21 1549.81 Q1305.21 1543.44 1302.57 1539.94 Q1299.96 1536.44 1295.21 1536.44 Q1290.5 1536.44 1287.86 1539.94 Q1285.25 1543.44 1285.25 1549.81 Q1285.25 1556.14 1287.86 1559.64 Q1290.5 1563.14 1295.21 1563.14 Q1299.96 1563.14 1302.57 1559.64 Q1305.21 1556.14 1305.21 1549.81 M1311.07 1563.62 Q1311.07 1572.72 1307.02 1577.15 Q1302.98 1581.6 1294.64 1581.6 Q1291.55 1581.6 1288.82 1581.13 Q1286.08 1580.68 1283.5 1579.72 L1283.5 1574.03 Q1286.08 1575.43 1288.59 1576.1 Q1291.11 1576.76 1293.72 1576.76 Q1299.48 1576.76 1302.34 1573.74 Q1305.21 1570.75 1305.21 1564.67 L1305.21 1561.77 Q1303.39 1564.92 1300.56 1566.48 Q1297.73 1568.04 1293.78 1568.04 Q1287.23 1568.04 1283.22 1563.05 Q1279.2 1558.05 1279.2 1549.81 Q1279.2 1541.53 1283.22 1536.53 Q1287.23 1531.54 1293.78 1531.54 Q1297.73 1531.54 1300.56 1533.1 Q1303.39 1534.66 1305.21 1537.81 L1305.21 1532.4 L1311.07 1532.4 L1311.07 1563.62 Z" fill="#000000" fill-rule="nonzero" fill-opacity="1" /><path clip-path="url(#clip000)" d="M1353.62 1548.76 L1353.62 1551.62 L1326.69 1551.62 Q1327.07 1557.67 1330.32 1560.85 Q1333.6 1564 1339.42 1564 Q1342.8 1564 1345.95 1563.17 Q1349.13 1562.35 1352.25 1560.69 L1352.25 1566.23 Q1349.1 1567.57 1345.79 1568.27 Q1342.48 1568.97 1339.07 1568.97 Q1330.54 1568.97 1325.55 1564 Q1320.58 1559.04 1320.58 1550.57 Q1320.58 1541.82 1325.29 1536.69 Q1330.03 1531.54 1338.06 1531.54 Q1345.25 1531.54 1349.42 1536.18 Q1353.62 1540.8 1353.62 1548.76 M1347.76 1547.04 Q1347.7 1542.23 1345.06 1539.37 Q1342.45 1536.5 1338.12 1536.5 Q1333.22 1536.5 1330.26 1539.27 Q1327.33 1542.04 1326.88 1547.07 L1347.76 1547.04 Z" fill="#000000" fill-rule="nonzero" fill-opacity="1" /><polyline clip-path="url(#clip002)" style="stroke:#000000; stroke-linecap:round; stroke-linejoin:round; stroke-width:2; stroke-opacity:0.1; fill:none" points="232.389,1329.01 2352.76,1329.01 "/>
<polyline clip-path="url(#clip002)" style="stroke:#000000; stroke-linecap:round; stroke-linejoin:round; stroke-width:2; stroke-opacity:0.1; fill:none" points="232.389,1030.88 2352.76,1030.88 "/>
<polyline clip-path="url(#clip002)" style="stroke:#000000; stroke-linecap:round; stroke-linejoin:round; stroke-width:2; stroke-opacity:0.1; fill:none" points="232.389,732.753 2352.76,732.753 "/>
<polyline clip-path="url(#clip002)" style="stroke:#000000; stroke-linecap:round; stroke-linejoin:round; stroke-width:2; stroke-opacity:0.1; fill:none" points="232.389,434.625 2352.76,434.625 "/>
<polyline clip-path="url(#clip002)" style="stroke:#000000; stroke-linecap:round; stroke-linejoin:round; stroke-width:2; stroke-opacity:0.1; fill:none" points="232.389,136.497 2352.76,136.497 "/>
<polyline clip-path="url(#clip000)" style="stroke:#000000; stroke-linecap:round; stroke-linejoin:round; stroke-width:4; stroke-opacity:1; fill:none" points="232.389,1423.18 232.389,47.2441 "/>
<polyline clip-path="url(#clip000)" style="stroke:#000000; stroke-linecap:round; stroke-linejoin:round; stroke-width:4; stroke-opacity:1; fill:none" points="232.389,1329.01 251.287,1329.01 "/>
<polyline clip-path="url(#clip000)" style="stroke:#000000; stroke-linecap:round; stroke-linejoin:round; stroke-width:4; stroke-opacity:1; fill:none" points="232.389,1030.88 251.287,1030.88 "/>
<polyline clip-path="url(#clip000)" style="stroke:#000000; stroke-linecap:round; stroke-linejoin:round; stroke-width:4; stroke-opacity:1; fill:none" points="232.389,732.753 251.287,732.753 "/>
<polyline clip-path="url(#clip000)" style="stroke:#000000; stroke-linecap:round; stroke-linejoin:round; stroke-width:4; stroke-opacity:1; fill:none" points="232.389,434.625 251.287,434.625 "/>
<polyline clip-path="url(#clip000)" style="stroke:#000000; stroke-linecap:round; stroke-linejoin:round; stroke-width:4; stroke-opacity:1; fill:none" points="232.389,136.497 251.287,136.497 "/>
<path clip-path="url(#clip000)" d="M114.931 1342.35 L122.57 1342.35 L122.57 1315.99 L114.26 1317.65 L114.26 1313.4 L122.524 1311.73 L127.2 1311.73 L127.2 1342.35 L134.839 1342.35 L134.839 1346.29 L114.931 1346.29 L114.931 1342.35 Z" fill="#000000" fill-rule="nonzero" fill-opacity="1" /><path clip-path="url(#clip000)" d="M145.093 1342.35 L152.732 1342.35 L152.732 1315.99 L144.422 1317.65 L144.422 1313.4 L152.686 1311.73 L157.362 1311.73 L157.362 1342.35 L165.001 1342.35 L165.001 1346.29 L145.093 1346.29 L145.093 1342.35 Z" fill="#000000" fill-rule="nonzero" fill-opacity="1" /><path clip-path="url(#clip000)" d="M184.445 1314.81 Q180.834 1314.81 179.005 1318.37 Q177.2 1321.91 177.2 1329.04 Q177.2 1336.15 179.005 1339.71 Q180.834 1343.26 184.445 1343.26 Q188.079 1343.26 189.885 1339.71 Q191.713 1336.15 191.713 1329.04 Q191.713 1321.91 189.885 1318.37 Q188.079 1314.81 184.445 1314.81 M184.445 1311.1 Q190.255 1311.1 193.311 1315.71 Q196.389 1320.29 196.389 1329.04 Q196.389 1337.77 193.311 1342.38 Q190.255 1346.96 184.445 1346.96 Q178.635 1346.96 175.556 1342.38 Q172.501 1337.77 172.501 1329.04 Q172.501 1320.29 175.556 1315.71 Q178.635 1311.1 184.445 1311.1 Z" fill="#000000" fill-rule="nonzero" fill-opacity="1" /><path clip-path="url(#clip000)" d="M114.931 1044.23 L122.57 1044.23 L122.57 1017.86 L114.26 1019.53 L114.26 1015.27 L122.524 1013.6 L127.2 1013.6 L127.2 1044.23 L134.839 1044.23 L134.839 1048.16 L114.931 1048.16 L114.931 1044.23 Z" fill="#000000" fill-rule="nonzero" fill-opacity="1" /><path clip-path="url(#clip000)" d="M148.311 1044.23 L164.63 1044.23 L164.63 1048.16 L142.686 1048.16 L142.686 1044.23 Q145.348 1041.47 149.931 1036.84 Q154.538 1032.19 155.718 1030.85 Q157.964 1028.32 158.843 1026.59 Q159.746 1024.83 159.746 1023.14 Q159.746 1020.38 157.802 1018.65 Q155.88 1016.91 152.778 1016.91 Q150.579 1016.91 148.126 1017.67 Q145.695 1018.44 142.917 1019.99 L142.917 1015.27 Q145.741 1014.13 148.195 1013.55 Q150.649 1012.98 152.686 1012.98 Q158.056 1012.98 161.251 1015.66 Q164.445 1018.35 164.445 1022.84 Q164.445 1024.97 163.635 1026.89 Q162.848 1028.79 160.741 1031.38 Q160.163 1032.05 157.061 1035.27 Q153.959 1038.46 148.311 1044.23 Z" fill="#000000" fill-rule="nonzero" fill-opacity="1" /><path clip-path="url(#clip000)" d="M184.445 1016.68 Q180.834 1016.68 179.005 1020.24 Q177.2 1023.79 177.2 1030.92 Q177.2 1038.02 179.005 1041.59 Q180.834 1045.13 184.445 1045.13 Q188.079 1045.13 189.885 1041.59 Q191.713 1038.02 191.713 1030.92 Q191.713 1023.79 189.885 1020.24 Q188.079 1016.68 184.445 1016.68 M184.445 1012.98 Q190.255 1012.98 193.311 1017.58 Q196.389 1022.17 196.389 1030.92 Q196.389 1039.64 193.311 1044.25 Q190.255 1048.83 184.445 1048.83 Q178.635 1048.83 175.556 1044.25 Q172.501 1039.64 172.501 1030.92 Q172.501 1022.17 175.556 1017.58 Q178.635 1012.98 184.445 1012.98 Z" fill="#000000" fill-rule="nonzero" fill-opacity="1" /><path clip-path="url(#clip000)" d="M114.931 746.098 L122.57 746.098 L122.57 719.732 L114.26 721.399 L114.26 717.14 L122.524 715.473 L127.2 715.473 L127.2 746.098 L134.839 746.098 L134.839 750.033 L114.931 750.033 L114.931 746.098 Z" fill="#000000" fill-rule="nonzero" fill-opacity="1" /><path clip-path="url(#clip000)" d="M158.45 731.399 Q161.806 732.116 163.681 734.385 Q165.579 736.653 165.579 739.987 Q165.579 745.102 162.061 747.903 Q158.542 750.704 152.061 750.704 Q149.885 750.704 147.57 750.264 Q145.279 749.848 142.825 748.991 L142.825 744.477 Q144.769 745.612 147.084 746.19 Q149.399 746.769 151.922 746.769 Q156.32 746.769 158.612 745.033 Q160.927 743.297 160.927 739.987 Q160.927 736.931 158.774 735.218 Q156.644 733.482 152.825 733.482 L148.797 733.482 L148.797 729.64 L153.01 729.64 Q156.459 729.64 158.288 728.274 Q160.116 726.885 160.116 724.292 Q160.116 721.63 158.218 720.218 Q156.343 718.783 152.825 718.783 Q150.903 718.783 148.704 719.2 Q146.505 719.616 143.866 720.496 L143.866 716.329 Q146.529 715.589 148.843 715.218 Q151.181 714.848 153.241 714.848 Q158.565 714.848 161.667 717.279 Q164.769 719.686 164.769 723.806 Q164.769 726.677 163.126 728.667 Q161.482 730.635 158.45 731.399 Z" fill="#000000" fill-rule="nonzero" fill-opacity="1" /><path clip-path="url(#clip000)" d="M184.445 718.552 Q180.834 718.552 179.005 722.116 Q177.2 725.658 177.2 732.788 Q177.2 739.894 179.005 743.459 Q180.834 747.001 184.445 747.001 Q188.079 747.001 189.885 743.459 Q191.713 739.894 191.713 732.788 Q191.713 725.658 189.885 722.116 Q188.079 718.552 184.445 718.552 M184.445 714.848 Q190.255 714.848 193.311 719.454 Q196.389 724.038 196.389 732.788 Q196.389 741.515 193.311 746.121 Q190.255 750.704 184.445 750.704 Q178.635 750.704 175.556 746.121 Q172.501 741.515 172.501 732.788 Q172.501 724.038 175.556 719.454 Q178.635 714.848 184.445 714.848 Z" fill="#000000" fill-rule="nonzero" fill-opacity="1" /><path clip-path="url(#clip000)" d="M114.931 447.97 L122.57 447.97 L122.57 421.604 L114.26 423.271 L114.26 419.012 L122.524 417.345 L127.2 417.345 L127.2 447.97 L134.839 447.97 L134.839 451.905 L114.931 451.905 L114.931 447.97 Z" fill="#000000" fill-rule="nonzero" fill-opacity="1" /><path clip-path="url(#clip000)" d="M157.13 421.419 L145.325 439.868 L157.13 439.868 L157.13 421.419 M155.903 417.345 L161.783 417.345 L161.783 439.868 L166.714 439.868 L166.714 443.757 L161.783 443.757 L161.783 451.905 L157.13 451.905 L157.13 443.757 L141.529 443.757 L141.529 439.243 L155.903 417.345 Z" fill="#000000" fill-rule="nonzero" fill-opacity="1" /><path clip-path="url(#clip000)" d="M184.445 420.424 Q180.834 420.424 179.005 423.989 Q177.2 427.53 177.2 434.66 Q177.2 441.766 179.005 445.331 Q180.834 448.873 184.445 448.873 Q188.079 448.873 189.885 445.331 Q191.713 441.766 191.713 434.66 Q191.713 427.53 189.885 423.989 Q188.079 420.424 184.445 420.424 M184.445 416.72 Q190.255 416.72 193.311 421.327 Q196.389 425.91 196.389 434.66 Q196.389 443.387 193.311 447.993 Q190.255 452.577 184.445 452.577 Q178.635 452.577 175.556 447.993 Q172.501 443.387 172.501 434.66 Q172.501 425.91 175.556 421.327 Q178.635 416.72 184.445 416.72 Z" fill="#000000" fill-rule="nonzero" fill-opacity="1" /><path clip-path="url(#clip000)" d="M114.931 149.842 L122.57 149.842 L122.57 123.477 L114.26 125.143 L114.26 120.884 L122.524 119.217 L127.2 119.217 L127.2 149.842 L134.839 149.842 L134.839 153.777 L114.931 153.777 L114.931 149.842 Z" fill="#000000" fill-rule="nonzero" fill-opacity="1" /><path clip-path="url(#clip000)" d="M144.329 119.217 L162.686 119.217 L162.686 123.153 L148.612 123.153 L148.612 131.625 Q149.63 131.278 150.649 131.116 Q151.667 130.93 152.686 130.93 Q158.473 130.93 161.852 134.102 Q165.232 137.273 165.232 142.69 Q165.232 148.268 161.76 151.37 Q158.288 154.449 151.968 154.449 Q149.792 154.449 147.524 154.078 Q145.279 153.708 142.871 152.967 L142.871 148.268 Q144.954 149.402 147.177 149.958 Q149.399 150.514 151.876 150.514 Q155.88 150.514 158.218 148.407 Q160.556 146.301 160.556 142.69 Q160.556 139.078 158.218 136.972 Q155.88 134.865 151.876 134.865 Q150.001 134.865 148.126 135.282 Q146.274 135.699 144.329 136.578 L144.329 119.217 Z" fill="#000000" fill-rule="nonzero" fill-opacity="1" /><path clip-path="url(#clip000)" d="M184.445 122.296 Q180.834 122.296 179.005 125.861 Q177.2 129.403 177.2 136.532 Q177.2 143.639 179.005 147.203 Q180.834 150.745 184.445 150.745 Q188.079 150.745 189.885 147.203 Q191.713 143.639 191.713 136.532 Q191.713 129.403 189.885 125.861 Q188.079 122.296 184.445 122.296 M184.445 118.592 Q190.255 118.592 193.311 123.199 Q196.389 127.782 196.389 136.532 Q196.389 145.259 193.311 149.865 Q190.255 154.449 184.445 154.449 Q178.635 154.449 175.556 149.865 Q172.501 145.259 172.501 136.532 Q172.501 127.782 175.556 123.199 Q178.635 118.592 184.445 118.592 Z" fill="#000000" fill-rule="nonzero" fill-opacity="1" /><path clip-path="url(#clip000)" d="M18.0438 764.065 L24.314 764.065 Q22.5634 767.725 21.704 770.971 Q20.8447 774.218 20.8447 777.242 Q20.8447 782.493 22.8817 785.358 Q24.9187 788.191 28.6745 788.191 Q31.8255 788.191 33.4488 786.313 Q35.0402 784.403 36.0269 779.119 L36.8226 775.236 Q38.1912 768.043 41.6605 764.637 Q45.098 761.2 50.8908 761.2 Q57.7976 761.2 61.3624 765.847 Q64.9272 770.462 64.9272 779.406 Q64.9272 782.78 64.1633 786.599 Q63.3994 790.387 61.9035 794.461 L55.2831 794.461 Q57.4793 790.546 58.5933 786.79 Q59.7073 783.034 59.7073 779.406 Q59.7073 773.9 57.543 770.908 Q55.3786 767.916 51.3682 767.916 Q47.8671 767.916 45.8937 770.08 Q43.9204 772.213 42.9337 777.114 L42.1698 781.029 Q40.7375 788.222 37.682 791.437 Q34.6264 794.652 29.1837 794.652 Q22.8817 794.652 19.2532 790.228 Q15.6248 785.772 15.6248 777.974 Q15.6248 774.632 16.2295 771.162 Q16.8343 767.693 18.0438 764.065 Z" fill="#000000" fill-rule="nonzero" fill-opacity="1" /><path clip-path="url(#clip000)" d="M41.3104 744.745 L58.7206 744.745 L58.7206 734.432 Q58.7206 729.244 56.5881 726.761 Q54.4238 724.247 49.9996 724.247 Q45.5436 724.247 43.4429 726.761 Q41.3104 729.244 41.3104 734.432 L41.3104 744.745 M21.7677 744.745 L36.0905 744.745 L36.0905 735.228 Q36.0905 730.517 34.34 728.226 Q32.5576 725.902 28.9291 725.902 Q25.3325 725.902 23.5501 728.226 Q21.7677 730.517 21.7677 735.228 L21.7677 744.745 M16.4842 751.174 L16.4842 734.75 Q16.4842 727.398 19.5397 723.419 Q22.5952 719.441 28.2289 719.441 Q32.5894 719.441 35.1675 721.478 Q37.7456 723.515 38.3822 727.462 Q39.4007 722.719 42.6472 720.109 Q45.8619 717.468 50.6998 717.468 Q57.0655 717.468 60.5348 721.796 Q64.0042 726.125 64.0042 734.114 L64.0042 751.174 L16.4842 751.174 Z" fill="#000000" fill-rule="nonzero" fill-opacity="1" /><path clip-path="url(#clip000)" d="M21.7677 700.026 L39.6235 700.026 L39.6235 691.941 Q39.6235 687.453 37.3 685.002 Q34.9765 682.552 30.6797 682.552 Q26.4147 682.552 24.0912 685.002 Q21.7677 687.453 21.7677 691.941 L21.7677 700.026 M16.4842 706.455 L16.4842 691.941 Q16.4842 683.952 20.1126 679.878 Q23.7092 675.772 30.6797 675.772 Q37.7138 675.772 41.3104 679.878 Q44.907 683.952 44.907 691.941 L44.907 700.026 L64.0042 700.026 L64.0042 706.455 L16.4842 706.455 Z" fill="#000000" fill-rule="nonzero" fill-opacity="1" /><polyline clip-path="url(#clip002)" style="stroke:#009af9; stroke-linecap:round; stroke-linejoin:round; stroke-width:4; stroke-opacity:1; fill:none" points="292.4,1384.24 312.605,1379.49 332.811,1374.75 353.016,1370 373.222,1365.25 393.427,1360.51 413.633,1355.76 433.838,1351.02 454.044,1346.27 474.249,1341.52 494.455,1336.78 514.66,1332.03 534.866,1327.28 555.071,1322.54 575.277,1317.79 595.482,1313.05 615.688,1308.3 635.893,1303.55 656.099,1298.81 676.304,1294.06 696.51,1289.31 716.715,1284.57 736.921,1279.82 757.127,1275.08 777.332,1270.33 797.538,1265.58 817.743,1258.04 837.949,1247.1 858.154,1236.16 878.36,1225.22 898.565,1214.28 918.771,1203.34 938.976,1192.4 959.182,1181.46 979.387,1170.52 999.593,1159.58 1019.8,1148.64 1040,1134.77 1060.21,1113.15 1080.41,1091.52 1100.62,1069.9 1120.83,1048.28 1141.03,1026.66 1161.24,1005.03 1181.44,983.411 1201.65,961.788 1221.85,940.165 1242.06,918.543 1262.26,896.92 1282.47,875.298 1302.68,853.675 1322.88,832.052 1343.09,810.43 1363.29,788.807 1383.5,767.184 1403.7,745.562 1423.91,723.939 1444.11,702.316 1464.32,680.694 1484.53,659.071 1504.73,615.369 1524.94,489.58 1545.14,417.612 1565.35,399.467 1585.55,435.145 1605.76,524.645 1625.96,579.278 1646.17,568.365 1666.37,557.201 1686.58,545.784 1706.79,534.116 1726.99,522.196 1747.2,510.024 1767.4,497.601 1787.61,484.925 1807.81,471.998 1828.02,458.818 1848.22,445.387 1868.43,431.704 1888.64,417.77 1908.84,403.583 1929.05,389.145 1949.25,374.454 1969.46,359.512 1989.66,344.318 2009.87,328.872 2030.07,313.174 2050.28,297.225 2070.48,281.023 2090.69,264.57 2110.9,247.865 2131.1,230.908 2151.31,213.699 2171.51,196.239 2191.72,178.526 2211.92,160.562 2232.13,142.345 2252.33,123.877 2272.54,105.157 2292.75,86.1857 "/>
<polyline clip-path="url(#clip002)" style="stroke:#e26f46; stroke-linecap:round; stroke-linejoin:round; stroke-width:4; stroke-opacity:1; fill:none" points="292.4,1341.9 312.605,1334.69 332.811,1327.48 353.016,1320.26 373.222,1313.05 393.427,1305.84 413.633,1298.62 433.838,1291.41 454.044,1284.2 474.249,1276.98 494.455,1269.77 514.66,1262.56 534.866,1255.35 555.071,1248.13 575.277,1240.92 595.482,1233.71 615.688,1226.49 635.893,1219.28 656.099,1212.07 676.304,1204.86 696.51,1197.64 716.715,1190.43 736.921,1183.22 757.127,1176 777.332,1168.79 797.538,1161.58 817.743,1151.57 837.949,1138.16 858.154,1124.75 878.36,1111.35 898.565,1097.94 918.771,1084.53 938.976,1071.13 959.182,1057.72 979.387,1044.31 999.593,1030.91 1019.8,1017.5 1040,1002.98 1060.21,985.536 1080.41,968.088 1100.62,950.64 1120.83,933.192 1141.03,915.744 1161.24,898.296 1181.44,880.849 1201.65,863.401 1221.85,845.953 1242.06,828.505 1262.26,811.057 1282.47,793.609 1302.68,776.162 1322.88,758.714 1343.09,741.266 1363.29,723.818 1383.5,706.37 1403.7,688.923 1423.91,671.475 1444.11,654.027 1464.32,636.579 1484.53,619.131 1504.73,579.604 1524.94,457.989 1545.14,390.197 1565.35,376.227 1585.55,416.079 1605.76,509.754 1625.96,568.561 1646.17,561.823 1666.37,554.834 1686.58,547.592 1706.79,540.099 1726.99,532.354 1747.2,524.357 1767.4,516.108 1787.61,507.607 1807.81,498.855 1828.02,489.85 1848.22,480.594 1868.43,471.086 1888.64,461.326 1908.84,451.314 1929.05,441.05 1949.25,430.535 1969.46,419.767 1989.66,408.748 2009.87,397.477 2030.07,385.954 2050.28,374.179 2070.48,362.153 2090.69,349.874 2110.9,337.344 2131.1,324.562 2151.31,311.528 2171.51,298.242 2191.72,284.704 2211.92,270.915 2232.13,256.873 2252.33,242.58 2272.54,228.035 2292.75,213.238 "/>
<polyline clip-path="url(#clip002)" style="stroke:#3da44d; stroke-linecap:round; stroke-linejoin:round; stroke-width:4; stroke-opacity:1; fill:none" points="292.4,1293.11 312.605,1284.4 332.811,1275.68 353.016,1266.97 373.222,1258.26 393.427,1249.54 413.633,1240.83 433.838,1232.11 454.044,1223.4 474.249,1214.69 494.455,1205.97 514.66,1197.26 534.866,1188.55 555.071,1179.83 575.277,1171.12 595.482,1162.4 615.688,1153.69 635.893,1144.98 656.099,1136.26 676.304,1127.55 696.51,1118.84 716.715,1110.12 736.921,1101.41 757.127,1092.69 777.332,1083.98 797.538,1075.27 817.743,1063.76 837.949,1048.85 858.154,1033.94 878.36,1019.03 898.565,1004.13 918.771,989.217 938.976,974.31 959.182,959.402 979.387,944.494 999.593,929.586 1019.8,914.678 1040,899.771 1060.21,884.863 1080.41,869.955 1100.62,855.047 1120.83,840.139 1141.03,825.232 1161.24,810.324 1181.44,795.416 1201.65,780.508 1221.85,765.601 1242.06,750.693 1262.26,735.785 1282.47,720.877 1302.68,705.969 1322.88,691.062 1343.09,676.154 1363.29,661.246 1383.5,646.338 1403.7,631.43 1423.91,616.523 1444.11,601.615 1464.32,586.707 1484.53,571.799 1504.73,534.812 1524.94,415.737 1545.14,350.485 1565.35,339.055 1585.55,381.447 1605.76,477.662 1625.96,539.01 1646.17,534.812 1666.37,530.362 1686.58,525.661 1706.79,520.708 1726.99,515.502 1747.2,510.045 1767.4,504.337 1787.61,498.376 1807.81,492.163 1828.02,485.699 1848.22,478.983 1868.43,472.015 1888.64,464.795 1908.84,457.323 1929.05,449.599 1949.25,441.624 1969.46,433.396 1989.66,424.917 2009.87,416.186 2030.07,407.203 2050.28,397.969 2070.48,388.482 2090.69,378.744 2110.9,368.753 2131.1,358.511 2151.31,348.017 2171.51,337.271 2191.72,326.274 2211.92,315.024 2232.13,303.523 2252.33,291.77 2272.54,279.764 2292.75,267.508 "/>
<path clip-path="url(#clip000)" d="M303.068 300.469 L694.757 300.469 L694.757 93.1086 L303.068 93.1086  Z" fill="#ffffff" fill-rule="evenodd" fill-opacity="1"/>
<polyline clip-path="url(#clip000)" style="stroke:#000000; stroke-linecap:round; stroke-linejoin:round; stroke-width:4; stroke-opacity:1; fill:none" points="303.068,300.469 694.757,300.469 694.757,93.1086 303.068,93.1086 303.068,300.469 "/>
<polyline clip-path="url(#clip000)" style="stroke:#009af9; stroke-linecap:round; stroke-linejoin:round; stroke-width:4; stroke-opacity:1; fill:none" points="326.628,144.949 467.986,144.949 "/>
<path clip-path="url(#clip000)" d="M496.221 145.724 L496.221 158.386 L503.721 158.386 Q507.494 158.386 509.3 156.835 Q511.128 155.261 511.128 152.043 Q511.128 148.803 509.3 147.275 Q507.494 145.724 503.721 145.724 L496.221 145.724 M496.221 131.511 L496.221 141.928 L503.142 141.928 Q506.568 141.928 508.235 140.655 Q509.925 139.358 509.925 136.719 Q509.925 134.104 508.235 132.807 Q506.568 131.511 503.142 131.511 L496.221 131.511 M491.545 127.669 L503.49 127.669 Q508.837 127.669 511.73 129.891 Q514.624 132.113 514.624 136.21 Q514.624 139.382 513.142 141.257 Q511.661 143.131 508.791 143.594 Q512.24 144.335 514.138 146.696 Q516.059 149.034 516.059 152.553 Q516.059 157.182 512.911 159.705 Q509.763 162.229 503.953 162.229 L491.545 162.229 L491.545 127.669 Z" fill="#000000" fill-rule="nonzero" fill-opacity="1" /><path clip-path="url(#clip000)" d="M524.068 127.669 L531.036 127.669 L539.855 151.187 L548.721 127.669 L555.688 127.669 L555.688 162.229 L551.128 162.229 L551.128 131.882 L542.216 155.585 L537.517 155.585 L528.605 131.882 L528.605 162.229 L524.068 162.229 L524.068 127.669 Z" fill="#000000" fill-rule="nonzero" fill-opacity="1" /><path clip-path="url(#clip000)" d="M564.971 127.669 L569.647 127.669 L569.647 162.229 L564.971 162.229 L564.971 127.669 Z" fill="#000000" fill-rule="nonzero" fill-opacity="1" /><path clip-path="url(#clip000)" d="M579.323 140.701 L608.998 140.701 L608.998 144.59 L579.323 144.59 L579.323 140.701 M579.323 150.145 L608.998 150.145 L608.998 154.081 L579.323 154.081 L579.323 150.145 Z" fill="#000000" fill-rule="nonzero" fill-opacity="1" /><path clip-path="url(#clip000)" d="M623.119 158.293 L639.438 158.293 L639.438 162.229 L617.494 162.229 L617.494 158.293 Q620.156 155.539 624.739 150.909 Q629.345 146.256 630.526 144.914 Q632.771 142.391 633.651 140.655 Q634.554 138.895 634.554 137.206 Q634.554 134.451 632.609 132.715 Q630.688 130.979 627.586 130.979 Q625.387 130.979 622.933 131.743 Q620.503 132.507 617.725 134.057 L617.725 129.335 Q620.549 128.201 623.003 127.622 Q625.457 127.044 627.494 127.044 Q632.864 127.044 636.058 129.729 Q639.253 132.414 639.253 136.905 Q639.253 139.034 638.443 140.956 Q637.656 142.854 635.549 145.446 Q634.97 146.118 631.869 149.335 Q628.767 152.53 623.119 158.293 Z" fill="#000000" fill-rule="nonzero" fill-opacity="1" /><path clip-path="url(#clip000)" d="M649.299 127.669 L667.655 127.669 L667.655 131.604 L653.581 131.604 L653.581 140.076 Q654.6 139.729 655.618 139.567 Q656.637 139.382 657.655 139.382 Q663.442 139.382 666.822 142.553 Q670.202 145.724 670.202 151.141 Q670.202 156.719 666.73 159.821 Q663.257 162.9 656.938 162.9 Q654.762 162.9 652.493 162.53 Q650.248 162.159 647.841 161.418 L647.841 156.719 Q649.924 157.854 652.146 158.409 Q654.368 158.965 656.845 158.965 Q660.85 158.965 663.188 156.858 Q665.526 154.752 665.526 151.141 Q665.526 147.53 663.188 145.423 Q660.85 143.317 656.845 143.317 Q654.97 143.317 653.095 143.733 Q651.243 144.15 649.299 145.03 L649.299 127.669 Z" fill="#000000" fill-rule="nonzero" fill-opacity="1" /><polyline clip-path="url(#clip000)" style="stroke:#e26f46; stroke-linecap:round; stroke-linejoin:round; stroke-width:4; stroke-opacity:1; fill:none" points="326.628,196.789 467.986,196.789 "/>
<path clip-path="url(#clip000)" d="M496.221 197.564 L496.221 210.226 L503.721 210.226 Q507.494 210.226 509.3 208.675 Q511.128 207.101 511.128 203.883 Q511.128 200.643 509.3 199.115 Q507.494 197.564 503.721 197.564 L496.221 197.564 M496.221 183.351 L496.221 193.768 L503.142 193.768 Q506.568 193.768 508.235 192.495 Q509.925 191.198 509.925 188.559 Q509.925 185.944 508.235 184.647 Q506.568 183.351 503.142 183.351 L496.221 183.351 M491.545 179.509 L503.49 179.509 Q508.837 179.509 511.73 181.731 Q514.624 183.953 514.624 188.05 Q514.624 191.222 513.142 193.097 Q511.661 194.971 508.791 195.434 Q512.24 196.175 514.138 198.536 Q516.059 200.874 516.059 204.393 Q516.059 209.022 512.911 211.545 Q509.763 214.069 503.953 214.069 L491.545 214.069 L491.545 179.509 Z" fill="#000000" fill-rule="nonzero" fill-opacity="1" /><path clip-path="url(#clip000)" d="M524.068 179.509 L531.036 179.509 L539.855 203.027 L548.721 179.509 L555.688 179.509 L555.688 214.069 L551.128 214.069 L551.128 183.722 L542.216 207.425 L537.517 207.425 L528.605 183.722 L528.605 214.069 L524.068 214.069 L524.068 179.509 Z" fill="#000000" fill-rule="nonzero" fill-opacity="1" /><path clip-path="url(#clip000)" d="M564.971 179.509 L569.647 179.509 L569.647 214.069 L564.971 214.069 L564.971 179.509 Z" fill="#000000" fill-rule="nonzero" fill-opacity="1" /><path clip-path="url(#clip000)" d="M579.323 192.541 L608.998 192.541 L608.998 196.43 L579.323 196.43 L579.323 192.541 M579.323 201.985 L608.998 201.985 L608.998 205.921 L579.323 205.921 L579.323 201.985 Z" fill="#000000" fill-rule="nonzero" fill-opacity="1" /><path clip-path="url(#clip000)" d="M633.257 195.434 Q636.614 196.152 638.489 198.421 Q640.387 200.689 640.387 204.022 Q640.387 209.138 636.869 211.939 Q633.35 214.74 626.869 214.74 Q624.693 214.74 622.378 214.3 Q620.086 213.883 617.633 213.027 L617.633 208.513 Q619.577 209.647 621.892 210.226 Q624.207 210.805 626.73 210.805 Q631.128 210.805 633.419 209.069 Q635.734 207.333 635.734 204.022 Q635.734 200.967 633.582 199.254 Q631.452 197.518 627.632 197.518 L623.605 197.518 L623.605 193.675 L627.818 193.675 Q631.267 193.675 633.095 192.309 Q634.924 190.921 634.924 188.328 Q634.924 185.666 633.026 184.254 Q631.151 182.819 627.632 182.819 Q625.711 182.819 623.512 183.235 Q621.313 183.652 618.674 184.532 L618.674 180.365 Q621.336 179.624 623.651 179.254 Q625.989 178.884 628.049 178.884 Q633.373 178.884 636.475 181.314 Q639.577 183.722 639.577 187.842 Q639.577 190.712 637.933 192.703 Q636.29 194.671 633.257 195.434 Z" fill="#000000" fill-rule="nonzero" fill-opacity="1" /><path clip-path="url(#clip000)" d="M659.253 182.587 Q655.642 182.587 653.813 186.152 Q652.007 189.694 652.007 196.823 Q652.007 203.93 653.813 207.495 Q655.642 211.036 659.253 211.036 Q662.887 211.036 664.692 207.495 Q666.521 203.93 666.521 196.823 Q666.521 189.694 664.692 186.152 Q662.887 182.587 659.253 182.587 M659.253 178.884 Q665.063 178.884 668.118 183.49 Q671.197 188.073 671.197 196.823 Q671.197 205.55 668.118 210.157 Q665.063 214.74 659.253 214.74 Q653.443 214.74 650.364 210.157 Q647.308 205.55 647.308 196.823 Q647.308 188.073 650.364 183.49 Q653.443 178.884 659.253 178.884 Z" fill="#000000" fill-rule="nonzero" fill-opacity="1" /><polyline clip-path="url(#clip000)" style="stroke:#3da44d; stroke-linecap:round; stroke-linejoin:round; stroke-width:4; stroke-opacity:1; fill:none" points="326.628,248.629 467.986,248.629 "/>
<path clip-path="url(#clip000)" d="M496.221 249.404 L496.221 262.066 L503.721 262.066 Q507.494 262.066 509.3 260.515 Q511.128 258.941 511.128 255.723 Q511.128 252.483 509.3 250.955 Q507.494 249.404 503.721 249.404 L496.221 249.404 M496.221 235.191 L496.221 245.608 L503.142 245.608 Q506.568 245.608 508.235 244.335 Q509.925 243.038 509.925 240.399 Q509.925 237.784 508.235 236.487 Q506.568 235.191 503.142 235.191 L496.221 235.191 M491.545 231.349 L503.49 231.349 Q508.837 231.349 511.73 233.571 Q514.624 235.793 514.624 239.89 Q514.624 243.062 513.142 244.937 Q511.661 246.811 508.791 247.274 Q512.24 248.015 514.138 250.376 Q516.059 252.714 516.059 256.233 Q516.059 260.862 512.911 263.385 Q509.763 265.909 503.953 265.909 L491.545 265.909 L491.545 231.349 Z" fill="#000000" fill-rule="nonzero" fill-opacity="1" /><path clip-path="url(#clip000)" d="M524.068 231.349 L531.036 231.349 L539.855 254.867 L548.721 231.349 L555.688 231.349 L555.688 265.909 L551.128 265.909 L551.128 235.562 L542.216 259.265 L537.517 259.265 L528.605 235.562 L528.605 265.909 L524.068 265.909 L524.068 231.349 Z" fill="#000000" fill-rule="nonzero" fill-opacity="1" /><path clip-path="url(#clip000)" d="M564.971 231.349 L569.647 231.349 L569.647 265.909 L564.971 265.909 L564.971 231.349 Z" fill="#000000" fill-rule="nonzero" fill-opacity="1" /><path clip-path="url(#clip000)" d="M579.323 244.381 L608.998 244.381 L608.998 248.27 L579.323 248.27 L579.323 244.381 M579.323 253.825 L608.998 253.825 L608.998 257.761 L579.323 257.761 L579.323 253.825 Z" fill="#000000" fill-rule="nonzero" fill-opacity="1" /><path clip-path="url(#clip000)" d="M633.257 247.274 Q636.614 247.992 638.489 250.261 Q640.387 252.529 640.387 255.862 Q640.387 260.978 636.869 263.779 Q633.35 266.58 626.869 266.58 Q624.693 266.58 622.378 266.14 Q620.086 265.723 617.633 264.867 L617.633 260.353 Q619.577 261.487 621.892 262.066 Q624.207 262.645 626.73 262.645 Q631.128 262.645 633.419 260.909 Q635.734 259.173 635.734 255.862 Q635.734 252.807 633.582 251.094 Q631.452 249.358 627.632 249.358 L623.605 249.358 L623.605 245.515 L627.818 245.515 Q631.267 245.515 633.095 244.149 Q634.924 242.761 634.924 240.168 Q634.924 237.506 633.026 236.094 Q631.151 234.659 627.632 234.659 Q625.711 234.659 623.512 235.075 Q621.313 235.492 618.674 236.372 L618.674 232.205 Q621.336 231.464 623.651 231.094 Q625.989 230.724 628.049 230.724 Q633.373 230.724 636.475 233.154 Q639.577 235.562 639.577 239.682 Q639.577 242.552 637.933 244.543 Q636.29 246.511 633.257 247.274 Z" fill="#000000" fill-rule="nonzero" fill-opacity="1" /><path clip-path="url(#clip000)" d="M649.299 231.349 L667.655 231.349 L667.655 235.284 L653.581 235.284 L653.581 243.756 Q654.6 243.409 655.618 243.247 Q656.637 243.062 657.655 243.062 Q663.442 243.062 666.822 246.233 Q670.202 249.404 670.202 254.821 Q670.202 260.399 666.73 263.501 Q663.257 266.58 656.938 266.58 Q654.762 266.58 652.493 266.21 Q650.248 265.839 647.841 265.098 L647.841 260.399 Q649.924 261.534 652.146 262.089 Q654.368 262.645 656.845 262.645 Q660.85 262.645 663.188 260.538 Q665.526 258.432 665.526 254.821 Q665.526 251.21 663.188 249.103 Q660.85 246.997 656.845 246.997 Q654.97 246.997 653.095 247.413 Q651.243 247.83 649.299 248.71 L649.299 231.349 Z" fill="#000000" fill-rule="nonzero" fill-opacity="1" /></svg>
