<?xml version="1.0" encoding="utf-8"?>
<svg xmlns="http://www.w3.org/2000/svg" xmlns:xlink="http://www.w3.org/1999/xlink" width="600" height="400" viewBox="0 0 2400 1600">
<defs>
  <clipPath id="clip050">
    <rect x="0" y="0" width="2400" height="1600"/>
  </clipPath>
</defs>
<path clip-path="url(#clip050)" d="M0 1600 L2400 1600 L2400 0 L0 0  Z" fill="#ffffff" fill-rule="evenodd" fill-opacity="1"/>
<defs>
  <clipPath id="clip051">
    <rect x="480" y="0" width="1681" height="1600"/>
  </clipPath>
</defs>
<path clip-path="url(#clip050)" d="M232.389 1423.18 L2352.76 1423.18 L2352.76 47.2441 L232.389 47.2441  Z" fill="#ffffff" fill-rule="evenodd" fill-opacity="1"/>
<defs>
  <clipPath id="clip052">
    <rect x="232" y="47" width="2121" height="1377"/>
  </clipPath>
</defs>
<polyline clip-path="url(#clip052)" style="stroke:#000000; stroke-linecap:round; stroke-linejoin:round; stroke-width:2; stroke-opacity:0.1; fill:none" points="356.927,1423.18 356.927,47.2441 "/>
<polyline clip-path="url(#clip052)" style="stroke:#000000; stroke-linecap:round; stroke-linejoin:round; stroke-width:2; stroke-opacity:0.1; fill:none" points="679.563,1423.18 679.563,47.2441 "/>
<polyline clip-path="url(#clip052)" style="stroke:#000000; stroke-linecap:round; stroke-linejoin:round; stroke-width:2; stroke-opacity:0.1; fill:none" points="1002.2,1423.18 1002.2,47.2441 "/>
<polyline clip-path="url(#clip052)" style="stroke:#000000; stroke-linecap:round; stroke-linejoin:round; stroke-width:2; stroke-opacity:0.1; fill:none" points="1324.84,1423.18 1324.84,47.2441 "/>
<polyline clip-path="url(#clip052)" style="stroke:#000000; stroke-linecap:round; stroke-linejoin:round; stroke-width:2; stroke-opacity:0.1; fill:none" points="1647.47,1423.18 1647.47,47.2441 "/>
<polyline clip-path="url(#clip052)" style="stroke:#000000; stroke-linecap:round; stroke-linejoin:round; stroke-width:2; stroke-opacity:0.1; fill:none" points="1970.11,1423.18 1970.11,47.2441 "/>
<polyline clip-path="url(#clip052)" style="stroke:#000000; stroke-linecap:round; stroke-linejoin:round; stroke-width:2; stroke-opacity:0.1; fill:none" points="2292.75,1423.18 2292.75,47.2441 "/>
<polyline clip-path="url(#clip050)" style="stroke:#000000; stroke-linecap:round; stroke-linejoin:round; stroke-width:4; stroke-opacity:1; fill:none" points="232.389,1423.18 2352.76,1423.18 "/>
<polyline clip-path="url(#clip050)" style="stroke:#000000; stroke-linecap:round; stroke-linejoin:round; stroke-width:4; stroke-opacity:1; fill:none" points="356.927,1423.18 356.927,1404.28 "/>
<polyline clip-path="url(#clip050)" style="stroke:#000000; stroke-linecap:round; stroke-linejoin:round; stroke-width:4; stroke-opacity:1; fill:none" points="679.563,1423.18 679.563,1404.28 "/>
<polyline clip-path="url(#clip050)" style="stroke:#000000; stroke-linecap:round; stroke-linejoin:round; stroke-width:4; stroke-opacity:1; fill:none" points="1002.2,1423.18 1002.2,1404.28 "/>
<polyline clip-path="url(#clip050)" style="stroke:#000000; stroke-linecap:round; stroke-linejoin:round; stroke-width:4; stroke-opacity:1; fill:none" points="1324.84,1423.18 1324.84,1404.28 "/>
<polyline clip-path="url(#clip050)" style="stroke:#000000; stroke-linecap:round; stroke-linejoin:round; stroke-width:4; stroke-opacity:1; fill:none" points="1647.47,1423.18 1647.47,1404.28 "/>
<polyline clip-path="url(#clip050)" style="stroke:#000000; stroke-linecap:round; stroke-linejoin:round; stroke-width:4; stroke-opacity:1; fill:none" points="1970.11,1423.18 1970.11,1404.28 "/>
<polyline clip-path="url(#clip050)" style="stroke:#000000; stroke-linecap:round; stroke-linejoin:round; stroke-width:4; stroke-opacity:1; fill:none" points="2292.75,1423.18 2292.75,1404.28 "/>
<path clip-path="url(#clip050)" d="M335.7 1481.64 L352.02 1481.64 L352.02 1485.58 L330.075 1485.58 L330.075 1481.64 Q332.737 1478.89 337.321 1474.26 Q341.927 1469.61 343.108 1468.27 Q345.353 1465.74 346.233 1464.01 Q347.135 1462.25 347.135 1460.56 Q347.135 1457.8 345.191 1456.07 Q343.27 1454.33 340.168 1454.33 Q337.969 1454.33 335.515 1455.09 Q333.085 1455.86 330.307 1457.41 L330.307 1452.69 Q333.131 1451.55 335.585 1450.97 Q338.038 1450.39 340.075 1450.39 Q345.446 1450.39 348.64 1453.08 Q351.834 1455.77 351.834 1460.26 Q351.834 1462.39 351.024 1464.31 Q350.237 1466.2 348.131 1468.8 Q347.552 1469.47 344.45 1472.69 Q341.348 1475.88 335.7 1481.64 Z" fill="#000000" fill-rule="nonzero" fill-opacity="1" /><path clip-path="url(#clip050)" d="M371.834 1454.1 Q368.223 1454.1 366.395 1457.66 Q364.589 1461.2 364.589 1468.33 Q364.589 1475.44 366.395 1479.01 Q368.223 1482.55 371.834 1482.55 Q375.469 1482.55 377.274 1479.01 Q379.103 1475.44 379.103 1468.33 Q379.103 1461.2 377.274 1457.66 Q375.469 1454.1 371.834 1454.1 M371.834 1450.39 Q377.644 1450.39 380.7 1455 Q383.779 1459.58 383.779 1468.33 Q383.779 1477.06 380.7 1481.67 Q377.644 1486.25 371.834 1486.25 Q366.024 1486.25 362.945 1481.67 Q359.89 1477.06 359.89 1468.33 Q359.89 1459.58 362.945 1455 Q366.024 1450.39 371.834 1450.39 Z" fill="#000000" fill-rule="nonzero" fill-opacity="1" /><path clip-path="url(#clip050)" d="M668.406 1466.95 Q671.763 1467.66 673.638 1469.93 Q675.536 1472.2 675.536 1475.53 Q675.536 1480.65 672.017 1483.45 Q668.499 1486.25 662.017 1486.25 Q659.841 1486.25 657.527 1485.81 Q655.235 1485.39 652.781 1484.54 L652.781 1480.02 Q654.726 1481.16 657.04 1481.74 Q659.355 1482.32 661.878 1482.32 Q666.276 1482.32 668.568 1480.58 Q670.883 1478.84 670.883 1475.53 Q670.883 1472.48 668.73 1470.77 Q666.601 1469.03 662.781 1469.03 L658.753 1469.03 L658.753 1465.19 L662.966 1465.19 Q666.415 1465.19 668.244 1463.82 Q670.073 1462.43 670.073 1459.84 Q670.073 1457.18 668.175 1455.77 Q666.3 1454.33 662.781 1454.33 Q660.86 1454.33 658.661 1454.75 Q656.462 1455.16 653.823 1456.04 L653.823 1451.88 Q656.485 1451.14 658.8 1450.77 Q661.138 1450.39 663.198 1450.39 Q668.522 1450.39 671.624 1452.83 Q674.725 1455.23 674.725 1459.35 Q674.725 1462.22 673.082 1464.21 Q671.438 1466.18 668.406 1466.95 Z" fill="#000000" fill-rule="nonzero" fill-opacity="1" /><path clip-path="url(#clip050)" d="M694.401 1454.1 Q690.79 1454.1 688.962 1457.66 Q687.156 1461.2 687.156 1468.33 Q687.156 1475.44 688.962 1479.01 Q690.79 1482.55 694.401 1482.55 Q698.036 1482.55 699.841 1479.01 Q701.67 1475.44 701.67 1468.33 Q701.67 1461.2 699.841 1457.66 Q698.036 1454.1 694.401 1454.1 M694.401 1450.39 Q700.211 1450.39 703.267 1455 Q706.346 1459.58 706.346 1468.33 Q706.346 1477.06 703.267 1481.67 Q700.211 1486.25 694.401 1486.25 Q688.591 1486.25 685.512 1481.67 Q682.457 1477.06 682.457 1468.33 Q682.457 1459.58 685.512 1455 Q688.591 1450.39 694.401 1450.39 Z" fill="#000000" fill-rule="nonzero" fill-opacity="1" /><path clip-path="url(#clip050)" d="M990.371 1455.09 L978.566 1473.54 L990.371 1473.54 L990.371 1455.09 M989.144 1451.02 L995.024 1451.02 L995.024 1473.54 L999.954 1473.54 L999.954 1477.43 L995.024 1477.43 L995.024 1485.58 L990.371 1485.58 L990.371 1477.43 L974.769 1477.43 L974.769 1472.92 L989.144 1451.02 Z" fill="#000000" fill-rule="nonzero" fill-opacity="1" /><path clip-path="url(#clip050)" d="M1017.69 1454.1 Q1014.07 1454.1 1012.25 1457.66 Q1010.44 1461.2 1010.44 1468.33 Q1010.44 1475.44 1012.25 1479.01 Q1014.07 1482.55 1017.69 1482.55 Q1021.32 1482.55 1023.13 1479.01 Q1024.95 1475.44 1024.95 1468.33 Q1024.95 1461.2 1023.13 1457.66 Q1021.32 1454.1 1017.69 1454.1 M1017.69 1450.39 Q1023.5 1450.39 1026.55 1455 Q1029.63 1459.58 1029.63 1468.33 Q1029.63 1477.06 1026.55 1481.67 Q1023.5 1486.25 1017.69 1486.25 Q1011.88 1486.25 1008.8 1481.67 Q1005.74 1477.06 1005.74 1468.33 Q1005.74 1459.58 1008.8 1455 Q1011.88 1450.39 1017.69 1450.39 Z" fill="#000000" fill-rule="nonzero" fill-opacity="1" /><path clip-path="url(#clip050)" d="M1299.54 1451.02 L1317.89 1451.02 L1317.89 1454.96 L1303.82 1454.96 L1303.82 1463.43 Q1304.84 1463.08 1305.85 1462.92 Q1306.87 1462.73 1307.89 1462.73 Q1313.68 1462.73 1317.06 1465.9 Q1320.44 1469.08 1320.44 1474.49 Q1320.44 1480.07 1316.97 1483.17 Q1313.49 1486.25 1307.17 1486.25 Q1305 1486.25 1302.73 1485.88 Q1300.48 1485.51 1298.08 1484.77 L1298.08 1480.07 Q1300.16 1481.2 1302.38 1481.76 Q1304.6 1482.32 1307.08 1482.32 Q1311.09 1482.32 1313.42 1480.21 Q1315.76 1478.1 1315.76 1474.49 Q1315.76 1470.88 1313.42 1468.77 Q1311.09 1466.67 1307.08 1466.67 Q1305.21 1466.67 1303.33 1467.08 Q1301.48 1467.5 1299.54 1468.38 L1299.54 1451.02 Z" fill="#000000" fill-rule="nonzero" fill-opacity="1" /><path clip-path="url(#clip050)" d="M1339.65 1454.1 Q1336.04 1454.1 1334.21 1457.66 Q1332.41 1461.2 1332.41 1468.33 Q1332.41 1475.44 1334.21 1479.01 Q1336.04 1482.55 1339.65 1482.55 Q1343.29 1482.55 1345.09 1479.01 Q1346.92 1475.44 1346.92 1468.33 Q1346.92 1461.2 1345.09 1457.66 Q1343.29 1454.1 1339.65 1454.1 M1339.65 1450.39 Q1345.46 1450.39 1348.52 1455 Q1351.6 1459.58 1351.6 1468.33 Q1351.6 1477.06 1348.52 1481.67 Q1345.46 1486.25 1339.65 1486.25 Q1333.84 1486.25 1330.76 1481.67 Q1327.71 1477.06 1327.71 1468.33 Q1327.71 1459.58 1330.76 1455 Q1333.84 1450.39 1339.65 1450.39 Z" fill="#000000" fill-rule="nonzero" fill-opacity="1" /><path clip-path="url(#clip050)" d="M1632.88 1466.44 Q1629.73 1466.44 1627.88 1468.59 Q1626.05 1470.74 1626.05 1474.49 Q1626.05 1478.22 1627.88 1480.39 Q1629.73 1482.55 1632.88 1482.55 Q1636.03 1482.55 1637.85 1480.39 Q1639.71 1478.22 1639.71 1474.49 Q1639.71 1470.74 1637.85 1468.59 Q1636.03 1466.44 1632.88 1466.44 M1642.16 1451.78 L1642.16 1456.04 Q1640.4 1455.21 1638.6 1454.77 Q1636.81 1454.33 1635.05 1454.33 Q1630.42 1454.33 1627.97 1457.45 Q1625.54 1460.58 1625.19 1466.9 Q1626.56 1464.89 1628.62 1463.82 Q1630.68 1462.73 1633.16 1462.73 Q1638.36 1462.73 1641.37 1465.9 Q1644.41 1469.05 1644.41 1474.49 Q1644.41 1479.82 1641.26 1483.03 Q1638.11 1486.25 1632.88 1486.25 Q1626.88 1486.25 1623.71 1481.67 Q1620.54 1477.06 1620.54 1468.33 Q1620.54 1460.14 1624.43 1455.28 Q1628.32 1450.39 1634.87 1450.39 Q1636.63 1450.39 1638.41 1450.74 Q1640.22 1451.09 1642.16 1451.78 Z" fill="#000000" fill-rule="nonzero" fill-opacity="1" /><path clip-path="url(#clip050)" d="M1662.46 1454.1 Q1658.85 1454.1 1657.02 1457.66 Q1655.22 1461.2 1655.22 1468.33 Q1655.22 1475.44 1657.02 1479.01 Q1658.85 1482.55 1662.46 1482.55 Q1666.1 1482.55 1667.9 1479.01 Q1669.73 1475.44 1669.73 1468.33 Q1669.73 1461.2 1667.9 1457.66 Q1666.1 1454.1 1662.46 1454.1 M1662.46 1450.39 Q1668.27 1450.39 1671.33 1455 Q1674.41 1459.58 1674.41 1468.33 Q1674.41 1477.06 1671.33 1481.67 Q1668.27 1486.25 1662.46 1486.25 Q1656.65 1486.25 1653.57 1481.67 Q1650.52 1477.06 1650.52 1468.33 Q1650.52 1459.58 1653.57 1455 Q1656.65 1450.39 1662.46 1450.39 Z" fill="#000000" fill-rule="nonzero" fill-opacity="1" /><path clip-path="url(#clip050)" d="M1943.47 1451.02 L1965.69 1451.02 L1965.69 1453.01 L1953.14 1485.58 L1948.26 1485.58 L1960.06 1454.96 L1943.47 1454.96 L1943.47 1451.02 Z" fill="#000000" fill-rule="nonzero" fill-opacity="1" /><path clip-path="url(#clip050)" d="M1984.81 1454.1 Q1981.2 1454.1 1979.37 1457.66 Q1977.56 1461.2 1977.56 1468.33 Q1977.56 1475.44 1979.37 1479.01 Q1981.2 1482.55 1984.81 1482.55 Q1988.44 1482.55 1990.25 1479.01 Q1992.08 1475.44 1992.08 1468.33 Q1992.08 1461.2 1990.25 1457.66 Q1988.44 1454.1 1984.81 1454.1 M1984.81 1450.39 Q1990.62 1450.39 1993.67 1455 Q1996.75 1459.58 1996.75 1468.33 Q1996.75 1477.06 1993.67 1481.67 Q1990.62 1486.25 1984.81 1486.25 Q1979 1486.25 1975.92 1481.67 Q1972.86 1477.06 1972.86 1468.33 Q1972.86 1459.58 1975.92 1455 Q1979 1450.39 1984.81 1450.39 Z" fill="#000000" fill-rule="nonzero" fill-opacity="1" /><path clip-path="url(#clip050)" d="M2277.62 1469.17 Q2274.28 1469.17 2272.36 1470.95 Q2270.47 1472.73 2270.47 1475.86 Q2270.47 1478.98 2272.36 1480.77 Q2274.28 1482.55 2277.62 1482.55 Q2280.95 1482.55 2282.87 1480.77 Q2284.79 1478.96 2284.79 1475.86 Q2284.79 1472.73 2282.87 1470.95 Q2280.97 1469.17 2277.62 1469.17 M2272.94 1467.18 Q2269.93 1466.44 2268.24 1464.38 Q2266.58 1462.32 2266.58 1459.35 Q2266.58 1455.21 2269.52 1452.8 Q2272.48 1450.39 2277.62 1450.39 Q2282.78 1450.39 2285.72 1452.8 Q2288.66 1455.21 2288.66 1459.35 Q2288.66 1462.32 2286.97 1464.38 Q2285.3 1466.44 2282.32 1467.18 Q2285.7 1467.96 2287.57 1470.26 Q2289.47 1472.55 2289.47 1475.86 Q2289.47 1480.88 2286.39 1483.57 Q2283.34 1486.25 2277.62 1486.25 Q2271.9 1486.25 2268.82 1483.57 Q2265.77 1480.88 2265.77 1475.86 Q2265.77 1472.55 2267.66 1470.26 Q2269.56 1467.96 2272.94 1467.18 M2271.23 1459.79 Q2271.23 1462.48 2272.9 1463.98 Q2274.59 1465.49 2277.62 1465.49 Q2280.63 1465.49 2282.32 1463.98 Q2284.03 1462.48 2284.03 1459.79 Q2284.03 1457.11 2282.32 1455.6 Q2280.63 1454.1 2277.62 1454.1 Q2274.59 1454.1 2272.9 1455.6 Q2271.23 1457.11 2271.23 1459.79 Z" fill="#000000" fill-rule="nonzero" fill-opacity="1" /><path clip-path="url(#clip050)" d="M2307.78 1454.1 Q2304.17 1454.1 2302.34 1457.66 Q2300.53 1461.2 2300.53 1468.33 Q2300.53 1475.44 2302.34 1479.01 Q2304.17 1482.55 2307.78 1482.55 Q2311.41 1482.55 2313.22 1479.01 Q2315.05 1475.44 2315.05 1468.33 Q2315.05 1461.2 2313.22 1457.66 Q2311.41 1454.1 2307.78 1454.1 M2307.78 1450.39 Q2313.59 1450.39 2316.65 1455 Q2319.72 1459.58 2319.72 1468.33 Q2319.72 1477.06 2316.65 1481.67 Q2313.59 1486.25 2307.78 1486.25 Q2301.97 1486.25 2298.89 1481.67 Q2295.84 1477.06 2295.84 1468.33 Q2295.84 1459.58 2298.89 1455 Q2301.97 1450.39 2307.78 1450.39 Z" fill="#000000" fill-rule="nonzero" fill-opacity="1" /><path clip-path="url(#clip050)" d="M1253.3 1526.86 L1244.58 1550.51 L1262.05 1550.51 L1253.3 1526.86 M1249.67 1520.52 L1256.96 1520.52 L1275.07 1568.04 L1268.38 1568.04 L1264.05 1555.85 L1242.63 1555.85 L1238.3 1568.04 L1231.53 1568.04 L1249.67 1520.52 Z" fill="#000000" fill-rule="nonzero" fill-opacity="1" /><path clip-path="url(#clip050)" d="M1305.21 1549.81 Q1305.21 1543.44 1302.57 1539.94 Q1299.96 1536.44 1295.21 1536.44 Q1290.5 1536.44 1287.86 1539.94 Q1285.25 1543.44 1285.25 1549.81 Q1285.25 1556.14 1287.86 1559.64 Q1290.5 1563.14 1295.21 1563.14 Q1299.96 1563.14 1302.57 1559.64 Q1305.21 1556.14 1305.21 1549.81 M1311.07 1563.62 Q1311.07 1572.72 1307.02 1577.15 Q1302.98 1581.6 1294.64 1581.6 Q1291.55 1581.6 1288.82 1581.13 Q1286.08 1580.68 1283.5 1579.72 L1283.5 1574.03 Q1286.08 1575.43 1288.59 1576.1 Q1291.11 1576.76 1293.72 1576.76 Q1299.48 1576.76 1302.34 1573.74 Q1305.21 1570.75 1305.21 1564.67 L1305.21 1561.77 Q1303.39 1564.92 1300.56 1566.48 Q1297.73 1568.04 1293.78 1568.04 Q1287.23 1568.04 1283.22 1563.05 Q1279.2 1558.05 1279.2 1549.81 Q1279.2 1541.53 1283.22 1536.53 Q1287.23 1531.54 1293.78 1531.54 Q1297.73 1531.54 1300.56 1533.1 Q1303.39 1534.66 1305.21 1537.81 L1305.21 1532.4 L1311.07 1532.4 L1311.07 1563.62 Z" fill="#000000" fill-rule="nonzero" fill-opacity="1" /><path clip-path="url(#clip050)" d="M1353.62 1548.76 L1353.62 1551.62 L1326.69 1551.62 Q1327.07 1557.67 1330.32 1560.85 Q1333.6 1564 1339.42 1564 Q1342.8 1564 1345.95 1563.17 Q1349.13 1562.35 1352.25 1560.69 L1352.25 1566.23 Q1349.1 1567.57 1345.79 1568.27 Q1342.48 1568.97 1339.07 1568.97 Q1330.54 1568.97 1325.55 1564 Q1320.58 1559.04 1320.58 1550.57 Q1320.58 1541.82 1325.29 1536.69 Q1330.03 1531.54 1338.06 1531.54 Q1345.25 1531.54 1349.42 1536.18 Q1353.62 1540.8 1353.62 1548.76 M1347.76 1547.04 Q1347.7 1542.23 1345.06 1539.37 Q1342.45 1536.5 1338.12 1536.5 Q1333.22 1536.5 1330.26 1539.27 Q1327.33 1542.04 1326.88 1547.07 L1347.76 1547.04 Z" fill="#000000" fill-rule="nonzero" fill-opacity="1" /><polyline clip-path="url(#clip052)" style="stroke:#000000; stroke-linecap:round; stroke-linejoin:round; stroke-width:2; stroke-opacity:0.1; fill:none" points="232.389,1345.3 2352.76,1345.3 "/>
<polyline clip-path="url(#clip052)" style="stroke:#000000; stroke-linecap:round; stroke-linejoin:round; stroke-width:2; stroke-opacity:0.1; fill:none" points="232.389,1156.15 2352.76,1156.15 "/>
<polyline clip-path="url(#clip052)" style="stroke:#000000; stroke-linecap:round; stroke-linejoin:round; stroke-width:2; stroke-opacity:0.1; fill:none" points="232.389,967.012 2352.76,967.012 "/>
<polyline clip-path="url(#clip052)" style="stroke:#000000; stroke-linecap:round; stroke-linejoin:round; stroke-width:2; stroke-opacity:0.1; fill:none" points="232.389,777.87 2352.76,777.87 "/>
<polyline clip-path="url(#clip052)" style="stroke:#000000; stroke-linecap:round; stroke-linejoin:round; stroke-width:2; stroke-opacity:0.1; fill:none" points="232.389,588.727 2352.76,588.727 "/>
<polyline clip-path="url(#clip052)" style="stroke:#000000; stroke-linecap:round; stroke-linejoin:round; stroke-width:2; stroke-opacity:0.1; fill:none" points="232.389,399.585 2352.76,399.585 "/>
<polyline clip-path="url(#clip052)" style="stroke:#000000; stroke-linecap:round; stroke-linejoin:round; stroke-width:2; stroke-opacity:0.1; fill:none" points="232.389,210.443 2352.76,210.443 "/>
<polyline clip-path="url(#clip050)" style="stroke:#000000; stroke-linecap:round; stroke-linejoin:round; stroke-width:4; stroke-opacity:1; fill:none" points="232.389,1423.18 232.389,47.2441 "/>
<polyline clip-path="url(#clip050)" style="stroke:#000000; stroke-linecap:round; stroke-linejoin:round; stroke-width:4; stroke-opacity:1; fill:none" points="232.389,1345.3 251.287,1345.3 "/>
<polyline clip-path="url(#clip050)" style="stroke:#000000; stroke-linecap:round; stroke-linejoin:round; stroke-width:4; stroke-opacity:1; fill:none" points="232.389,1156.15 251.287,1156.15 "/>
<polyline clip-path="url(#clip050)" style="stroke:#000000; stroke-linecap:round; stroke-linejoin:round; stroke-width:4; stroke-opacity:1; fill:none" points="232.389,967.012 251.287,967.012 "/>
<polyline clip-path="url(#clip050)" style="stroke:#000000; stroke-linecap:round; stroke-linejoin:round; stroke-width:4; stroke-opacity:1; fill:none" points="232.389,777.87 251.287,777.87 "/>
<polyline clip-path="url(#clip050)" style="stroke:#000000; stroke-linecap:round; stroke-linejoin:round; stroke-width:4; stroke-opacity:1; fill:none" points="232.389,588.727 251.287,588.727 "/>
<polyline clip-path="url(#clip050)" style="stroke:#000000; stroke-linecap:round; stroke-linejoin:round; stroke-width:4; stroke-opacity:1; fill:none" points="232.389,399.585 251.287,399.585 "/>
<polyline clip-path="url(#clip050)" style="stroke:#000000; stroke-linecap:round; stroke-linejoin:round; stroke-width:4; stroke-opacity:1; fill:none" points="232.389,210.443 251.287,210.443 "/>
<path clip-path="url(#clip050)" d="M115.927 1358.64 L123.566 1358.64 L123.566 1332.28 L115.256 1333.94 L115.256 1329.68 L123.519 1328.02 L128.195 1328.02 L128.195 1358.64 L135.834 1358.64 L135.834 1362.58 L115.927 1362.58 L115.927 1358.64 Z" fill="#000000" fill-rule="nonzero" fill-opacity="1" /><path clip-path="url(#clip050)" d="M146.089 1358.64 L153.728 1358.64 L153.728 1332.28 L145.417 1333.94 L145.417 1329.68 L153.681 1328.02 L158.357 1328.02 L158.357 1358.64 L165.996 1358.64 L165.996 1362.58 L146.089 1362.58 L146.089 1358.64 Z" fill="#000000" fill-rule="nonzero" fill-opacity="1" /><path clip-path="url(#clip050)" d="M175.487 1328.02 L193.843 1328.02 L193.843 1331.95 L179.769 1331.95 L179.769 1340.42 Q180.788 1340.08 181.806 1339.91 Q182.825 1339.73 183.843 1339.73 Q189.63 1339.73 193.01 1342.9 Q196.389 1346.07 196.389 1351.49 Q196.389 1357.07 192.917 1360.17 Q189.445 1363.25 183.126 1363.25 Q180.95 1363.25 178.681 1362.88 Q176.436 1362.51 174.028 1361.77 L174.028 1357.07 Q176.112 1358.2 178.334 1358.76 Q180.556 1359.31 183.033 1359.31 Q187.038 1359.31 189.375 1357.21 Q191.713 1355.1 191.713 1351.49 Q191.713 1347.88 189.375 1345.77 Q187.038 1343.66 183.033 1343.66 Q181.158 1343.66 179.283 1344.08 Q177.431 1344.5 175.487 1345.38 L175.487 1328.02 Z" fill="#000000" fill-rule="nonzero" fill-opacity="1" /><path clip-path="url(#clip050)" d="M114.931 1169.5 L122.57 1169.5 L122.57 1143.13 L114.26 1144.8 L114.26 1140.54 L122.524 1138.87 L127.2 1138.87 L127.2 1169.5 L134.839 1169.5 L134.839 1173.43 L114.931 1173.43 L114.931 1169.5 Z" fill="#000000" fill-rule="nonzero" fill-opacity="1" /><path clip-path="url(#clip050)" d="M148.311 1169.5 L164.63 1169.5 L164.63 1173.43 L142.686 1173.43 L142.686 1169.5 Q145.348 1166.74 149.931 1162.11 Q154.538 1157.46 155.718 1156.12 Q157.964 1153.6 158.843 1151.86 Q159.746 1150.1 159.746 1148.41 Q159.746 1145.66 157.802 1143.92 Q155.88 1142.18 152.778 1142.18 Q150.579 1142.18 148.126 1142.95 Q145.695 1143.71 142.917 1145.26 L142.917 1140.54 Q145.741 1139.41 148.195 1138.83 Q150.649 1138.25 152.686 1138.25 Q158.056 1138.25 161.251 1140.93 Q164.445 1143.62 164.445 1148.11 Q164.445 1150.24 163.635 1152.16 Q162.848 1154.06 160.741 1156.65 Q160.163 1157.32 157.061 1160.54 Q153.959 1163.74 148.311 1169.5 Z" fill="#000000" fill-rule="nonzero" fill-opacity="1" /><path clip-path="url(#clip050)" d="M184.445 1141.95 Q180.834 1141.95 179.005 1145.52 Q177.2 1149.06 177.2 1156.19 Q177.2 1163.3 179.005 1166.86 Q180.834 1170.4 184.445 1170.4 Q188.079 1170.4 189.885 1166.86 Q191.713 1163.3 191.713 1156.19 Q191.713 1149.06 189.885 1145.52 Q188.079 1141.95 184.445 1141.95 M184.445 1138.25 Q190.255 1138.25 193.311 1142.86 Q196.389 1147.44 196.389 1156.19 Q196.389 1164.92 193.311 1169.52 Q190.255 1174.11 184.445 1174.11 Q178.635 1174.11 175.556 1169.52 Q172.501 1164.92 172.501 1156.19 Q172.501 1147.44 175.556 1142.86 Q178.635 1138.25 184.445 1138.25 Z" fill="#000000" fill-rule="nonzero" fill-opacity="1" /><path clip-path="url(#clip050)" d="M115.927 980.357 L123.566 980.357 L123.566 953.991 L115.256 955.658 L115.256 951.399 L123.519 949.732 L128.195 949.732 L128.195 980.357 L135.834 980.357 L135.834 984.292 L115.927 984.292 L115.927 980.357 Z" fill="#000000" fill-rule="nonzero" fill-opacity="1" /><path clip-path="url(#clip050)" d="M149.306 980.357 L165.626 980.357 L165.626 984.292 L143.681 984.292 L143.681 980.357 Q146.343 977.602 150.927 972.973 Q155.533 968.32 156.714 966.977 Q158.959 964.454 159.839 962.718 Q160.741 960.959 160.741 959.269 Q160.741 956.514 158.797 954.778 Q156.876 953.042 153.774 953.042 Q151.575 953.042 149.121 953.806 Q146.691 954.57 143.913 956.121 L143.913 951.399 Q146.737 950.264 149.191 949.686 Q151.644 949.107 153.681 949.107 Q159.052 949.107 162.246 951.792 Q165.44 954.477 165.44 958.968 Q165.44 961.098 164.63 963.019 Q163.843 964.917 161.737 967.51 Q161.158 968.181 158.056 971.399 Q154.954 974.593 149.306 980.357 Z" fill="#000000" fill-rule="nonzero" fill-opacity="1" /><path clip-path="url(#clip050)" d="M175.487 949.732 L193.843 949.732 L193.843 953.667 L179.769 953.667 L179.769 962.139 Q180.788 961.792 181.806 961.63 Q182.825 961.445 183.843 961.445 Q189.63 961.445 193.01 964.616 Q196.389 967.787 196.389 973.204 Q196.389 978.783 192.917 981.885 Q189.445 984.963 183.126 984.963 Q180.95 984.963 178.681 984.593 Q176.436 984.223 174.028 983.482 L174.028 978.783 Q176.112 979.917 178.334 980.473 Q180.556 981.028 183.033 981.028 Q187.038 981.028 189.375 978.922 Q191.713 976.815 191.713 973.204 Q191.713 969.593 189.375 967.487 Q187.038 965.38 183.033 965.38 Q181.158 965.38 179.283 965.797 Q177.431 966.213 175.487 967.093 L175.487 949.732 Z" fill="#000000" fill-rule="nonzero" fill-opacity="1" /><path clip-path="url(#clip050)" d="M114.931 791.215 L122.57 791.215 L122.57 764.849 L114.26 766.516 L114.26 762.256 L122.524 760.59 L127.2 760.59 L127.2 791.215 L134.839 791.215 L134.839 795.15 L114.931 795.15 L114.931 791.215 Z" fill="#000000" fill-rule="nonzero" fill-opacity="1" /><path clip-path="url(#clip050)" d="M158.45 776.516 Q161.806 777.233 163.681 779.502 Q165.579 781.77 165.579 785.103 Q165.579 790.219 162.061 793.02 Q158.542 795.821 152.061 795.821 Q149.885 795.821 147.57 795.381 Q145.279 794.965 142.825 794.108 L142.825 789.594 Q144.769 790.728 147.084 791.307 Q149.399 791.886 151.922 791.886 Q156.32 791.886 158.612 790.15 Q160.927 788.414 160.927 785.103 Q160.927 782.048 158.774 780.335 Q156.644 778.599 152.825 778.599 L148.797 778.599 L148.797 774.756 L153.01 774.756 Q156.459 774.756 158.288 773.391 Q160.116 772.002 160.116 769.409 Q160.116 766.747 158.218 765.335 Q156.343 763.9 152.825 763.9 Q150.903 763.9 148.704 764.317 Q146.505 764.733 143.866 765.613 L143.866 761.446 Q146.529 760.705 148.843 760.335 Q151.181 759.965 153.241 759.965 Q158.565 759.965 161.667 762.395 Q164.769 764.803 164.769 768.923 Q164.769 771.793 163.126 773.784 Q161.482 775.752 158.45 776.516 Z" fill="#000000" fill-rule="nonzero" fill-opacity="1" /><path clip-path="url(#clip050)" d="M184.445 763.668 Q180.834 763.668 179.005 767.233 Q177.2 770.775 177.2 777.904 Q177.2 785.011 179.005 788.576 Q180.834 792.117 184.445 792.117 Q188.079 792.117 189.885 788.576 Q191.713 785.011 191.713 777.904 Q191.713 770.775 189.885 767.233 Q188.079 763.668 184.445 763.668 M184.445 759.965 Q190.255 759.965 193.311 764.571 Q196.389 769.154 196.389 777.904 Q196.389 786.631 193.311 791.238 Q190.255 795.821 184.445 795.821 Q178.635 795.821 175.556 791.238 Q172.501 786.631 172.501 777.904 Q172.501 769.154 175.556 764.571 Q178.635 759.965 184.445 759.965 Z" fill="#000000" fill-rule="nonzero" fill-opacity="1" /><path clip-path="url(#clip050)" d="M115.927 602.072 L123.566 602.072 L123.566 575.707 L115.256 577.373 L115.256 573.114 L123.519 571.447 L128.195 571.447 L128.195 602.072 L135.834 602.072 L135.834 606.007 L115.927 606.007 L115.927 602.072 Z" fill="#000000" fill-rule="nonzero" fill-opacity="1" /><path clip-path="url(#clip050)" d="M159.445 587.373 Q162.802 588.091 164.677 590.359 Q166.575 592.628 166.575 595.961 Q166.575 601.077 163.056 603.878 Q159.538 606.679 153.056 606.679 Q150.88 606.679 148.566 606.239 Q146.274 605.822 143.82 604.966 L143.82 600.452 Q145.765 601.586 148.079 602.165 Q150.394 602.743 152.917 602.743 Q157.315 602.743 159.607 601.007 Q161.922 599.271 161.922 595.961 Q161.922 592.906 159.769 591.193 Q157.64 589.457 153.82 589.457 L149.792 589.457 L149.792 585.614 L154.005 585.614 Q157.454 585.614 159.283 584.248 Q161.112 582.859 161.112 580.267 Q161.112 577.605 159.214 576.193 Q157.339 574.758 153.82 574.758 Q151.899 574.758 149.7 575.174 Q147.501 575.591 144.862 576.47 L144.862 572.304 Q147.524 571.563 149.839 571.193 Q152.177 570.822 154.237 570.822 Q159.561 570.822 162.663 573.253 Q165.765 575.66 165.765 579.781 Q165.765 582.651 164.121 584.642 Q162.477 586.609 159.445 587.373 Z" fill="#000000" fill-rule="nonzero" fill-opacity="1" /><path clip-path="url(#clip050)" d="M175.487 571.447 L193.843 571.447 L193.843 575.383 L179.769 575.383 L179.769 583.855 Q180.788 583.507 181.806 583.345 Q182.825 583.16 183.843 583.16 Q189.63 583.16 193.01 586.332 Q196.389 589.503 196.389 594.919 Q196.389 600.498 192.917 603.6 Q189.445 606.679 183.126 606.679 Q180.95 606.679 178.681 606.308 Q176.436 605.938 174.028 605.197 L174.028 600.498 Q176.112 601.632 178.334 602.188 Q180.556 602.743 183.033 602.743 Q187.038 602.743 189.375 600.637 Q191.713 598.531 191.713 594.919 Q191.713 591.308 189.375 589.202 Q187.038 587.095 183.033 587.095 Q181.158 587.095 179.283 587.512 Q177.431 587.929 175.487 588.808 L175.487 571.447 Z" fill="#000000" fill-rule="nonzero" fill-opacity="1" /><path clip-path="url(#clip050)" d="M114.931 412.93 L122.57 412.93 L122.57 386.564 L114.26 388.231 L114.26 383.972 L122.524 382.305 L127.2 382.305 L127.2 412.93 L134.839 412.93 L134.839 416.865 L114.931 416.865 L114.931 412.93 Z" fill="#000000" fill-rule="nonzero" fill-opacity="1" /><path clip-path="url(#clip050)" d="M157.13 386.379 L145.325 404.828 L157.13 404.828 L157.13 386.379 M155.903 382.305 L161.783 382.305 L161.783 404.828 L166.714 404.828 L166.714 408.717 L161.783 408.717 L161.783 416.865 L157.13 416.865 L157.13 408.717 L141.529 408.717 L141.529 404.203 L155.903 382.305 Z" fill="#000000" fill-rule="nonzero" fill-opacity="1" /><path clip-path="url(#clip050)" d="M184.445 385.384 Q180.834 385.384 179.005 388.949 Q177.2 392.49 177.2 399.62 Q177.2 406.726 179.005 410.291 Q180.834 413.833 184.445 413.833 Q188.079 413.833 189.885 410.291 Q191.713 406.726 191.713 399.62 Q191.713 392.49 189.885 388.949 Q188.079 385.384 184.445 385.384 M184.445 381.68 Q190.255 381.68 193.311 386.286 Q196.389 390.87 196.389 399.62 Q196.389 408.347 193.311 412.953 Q190.255 417.536 184.445 417.536 Q178.635 417.536 175.556 412.953 Q172.501 408.347 172.501 399.62 Q172.501 390.87 175.556 386.286 Q178.635 381.68 184.445 381.68 Z" fill="#000000" fill-rule="nonzero" fill-opacity="1" /><path clip-path="url(#clip050)" d="M115.927 223.788 L123.566 223.788 L123.566 197.422 L115.256 199.089 L115.256 194.829 L123.519 193.163 L128.195 193.163 L128.195 223.788 L135.834 223.788 L135.834 227.723 L115.927 227.723 L115.927 223.788 Z" fill="#000000" fill-rule="nonzero" fill-opacity="1" /><path clip-path="url(#clip050)" d="M158.126 197.237 L146.32 215.686 L158.126 215.686 L158.126 197.237 M156.899 193.163 L162.778 193.163 L162.778 215.686 L167.709 215.686 L167.709 219.575 L162.778 219.575 L162.778 227.723 L158.126 227.723 L158.126 219.575 L142.524 219.575 L142.524 215.061 L156.899 193.163 Z" fill="#000000" fill-rule="nonzero" fill-opacity="1" /><path clip-path="url(#clip050)" d="M175.487 193.163 L193.843 193.163 L193.843 197.098 L179.769 197.098 L179.769 205.57 Q180.788 205.223 181.806 205.061 Q182.825 204.876 183.843 204.876 Q189.63 204.876 193.01 208.047 Q196.389 211.218 196.389 216.635 Q196.389 222.213 192.917 225.315 Q189.445 228.394 183.126 228.394 Q180.95 228.394 178.681 228.024 Q176.436 227.653 174.028 226.913 L174.028 222.213 Q176.112 223.348 178.334 223.903 Q180.556 224.459 183.033 224.459 Q187.038 224.459 189.375 222.352 Q191.713 220.246 191.713 216.635 Q191.713 213.024 189.375 210.917 Q187.038 208.811 183.033 208.811 Q181.158 208.811 179.283 209.227 Q177.431 209.644 175.487 210.524 L175.487 193.163 Z" fill="#000000" fill-rule="nonzero" fill-opacity="1" /><path clip-path="url(#clip050)" d="M18.0438 764.065 L24.314 764.065 Q22.5634 767.725 21.704 770.971 Q20.8447 774.218 20.8447 777.242 Q20.8447 782.493 22.8817 785.358 Q24.9187 788.191 28.6745 788.191 Q31.8255 788.191 33.4488 786.313 Q35.0402 784.403 36.0269 779.119 L36.8226 775.236 Q38.1912 768.043 41.6605 764.637 Q45.098 761.2 50.8908 761.2 Q57.7976 761.2 61.3624 765.847 Q64.9272 770.462 64.9272 779.406 Q64.9272 782.78 64.1633 786.599 Q63.3994 790.387 61.9035 794.461 L55.2831 794.461 Q57.4793 790.546 58.5933 786.79 Q59.7073 783.034 59.7073 779.406 Q59.7073 773.9 57.543 770.908 Q55.3786 767.916 51.3682 767.916 Q47.8671 767.916 45.8937 770.08 Q43.9204 772.213 42.9337 777.114 L42.1698 781.029 Q40.7375 788.222 37.682 791.437 Q34.6264 794.652 29.1837 794.652 Q22.8817 794.652 19.2532 790.228 Q15.6248 785.772 15.6248 777.974 Q15.6248 774.632 16.2295 771.162 Q16.8343 767.693 18.0438 764.065 Z" fill="#000000" fill-rule="nonzero" fill-opacity="1" /><path clip-path="url(#clip050)" d="M41.3104 744.745 L58.7206 744.745 L58.7206 734.432 Q58.7206 729.244 56.5881 726.761 Q54.4238 724.247 49.9996 724.247 Q45.5436 724.247 43.4429 726.761 Q41.3104 729.244 41.3104 734.432 L41.3104 744.745 M21.7677 744.745 L36.0905 744.745 L36.0905 735.228 Q36.0905 730.517 34.34 728.226 Q32.5576 725.902 28.9291 725.902 Q25.3325 725.902 23.5501 728.226 Q21.7677 730.517 21.7677 735.228 L21.7677 744.745 M16.4842 751.174 L16.4842 734.75 Q16.4842 727.398 19.5397 723.419 Q22.5952 719.441 28.2289 719.441 Q32.5894 719.441 35.1675 721.478 Q37.7456 723.515 38.3822 727.462 Q39.4007 722.719 42.6472 720.109 Q45.8619 717.468 50.6998 717.468 Q57.0655 717.468 60.5348 721.796 Q64.0042 726.125 64.0042 734.114 L64.0042 751.174 L16.4842 751.174 Z" fill="#000000" fill-rule="nonzero" fill-opacity="1" /><path clip-path="url(#clip050)" d="M21.7677 700.026 L39.6235 700.026 L39.6235 691.941 Q39.6235 687.453 37.3 685.002 Q34.9765 682.552 30.6797 682.552 Q26.4147 682.552 24.0912 685.002 Q21.7677 687.453 21.7677 691.941 L21.7677 700.026 M16.4842 706.455 L16.4842 691.941 Q16.4842 683.952 20.1126 679.878 Q23.7092 675.772 30.6797 675.772 Q37.7138 675.772 41.3104 679.878 Q44.907 683.952 44.907 691.941 L44.907 700.026 L64.0042 700.026 L64.0042 706.455 L16.4842 706.455 Z" fill="#000000" fill-rule="nonzero" fill-opacity="1" /><polyline clip-path="url(#clip052)" style="stroke:#009af9; stroke-linecap:round; stroke-linejoin:round; stroke-width:4; stroke-opacity:1; fill:none" points="292.4,1384.24 312.605,1378.67 332.811,1373.11 353.016,1367.54 373.222,1361.98 393.427,1356.41 413.633,1350.84 433.838,1345.28 454.044,1339.71 474.249,1334.15 494.455,1328.58 514.66,1323.02 534.866,1317.45 555.071,1311.89 575.277,1306.32 595.482,1300.75 615.688,1295.19 635.893,1289.62 656.099,1284.06 676.304,1278.49 696.51,1272.93 716.715,1267.36 736.921,1261.79 757.127,1256.23 777.332,1250.66 797.538,1245.1 817.743,1236.69 837.949,1224.83 858.154,1212.97 878.36,1201.11 898.565,1189.25 918.771,1177.39 938.976,1165.53 959.182,1153.67 979.387,1141.81 999.593,1129.95 1019.8,1118.09 1040,1106.23 1060.21,1094.37 1080.41,1082.51 1100.62,1070.65 1120.83,1058.79 1141.03,1046.93 1161.24,1035.07 1181.44,1023.21 1201.65,1011.35 1221.85,999.486 1242.06,987.626 1262.26,975.766 1282.47,963.905 1302.68,948.421 1322.88,929.312 1343.09,910.203 1363.29,891.094 1383.5,871.985 1403.7,852.876 1423.91,833.767 1444.11,814.658 1464.32,795.549 1484.53,776.44 1504.73,757.331 1524.94,738.223 1545.14,719.114 1565.35,700.005 1585.55,680.896 1605.76,661.787 1625.96,648.99 1646.17,641.742 1666.37,634.493 1686.58,626.568 1706.79,617.323 1726.99,608.078 1747.2,598.833 1767.4,589.588 1787.61,580.344 1807.81,571.099 1828.02,561.854 1848.22,552.609 1868.43,543.364 1888.64,534.119 1908.84,524.874 1929.05,515.629 1949.25,506.384 1969.46,497.14 1989.66,487.895 2009.87,478.65 2030.07,469.405 2050.28,460.16 2070.48,450.915 2090.69,441.67 2110.9,432.425 2131.1,423.18 2151.31,391.662 2171.51,359.779 2191.72,327.896 2211.92,296.012 2232.13,264.129 2252.33,232.246 2272.54,200.363 2292.75,168.479 "/>
<polyline clip-path="url(#clip052)" style="stroke:#e26f46; stroke-linecap:round; stroke-linejoin:round; stroke-width:4; stroke-opacity:1; fill:none" points="292.4,1354.66 312.605,1349.09 332.811,1343.53 353.016,1337.96 373.222,1332.4 393.427,1326.83 413.633,1321.26 433.838,1315.7 454.044,1310.13 474.249,1304.57 494.455,1299 514.66,1293.44 534.866,1287.87 555.071,1282.3 575.277,1276.74 595.482,1271.17 615.688,1265.61 635.893,1260.04 656.099,1254.48 676.304,1248.91 696.51,1243.35 716.715,1237.78 736.921,1232.21 757.127,1226.65 777.332,1221.08 797.538,1215.52 817.743,1207.11 837.949,1195.25 858.154,1183.39 878.36,1171.53 898.565,1159.67 918.771,1147.81 938.976,1135.95 959.182,1124.09 979.387,1112.23 999.593,1100.37 1019.8,1088.51 1040,1076.65 1060.21,1064.79 1080.41,1052.93 1100.62,1041.07 1120.83,1029.21 1141.03,1017.35 1161.24,1005.49 1181.44,993.626 1201.65,981.766 1221.85,969.905 1242.06,958.045 1262.26,946.185 1282.47,934.325 1302.68,918.84 1322.88,899.731 1343.09,880.623 1363.29,861.514 1383.5,842.405 1403.7,823.296 1423.91,804.187 1444.11,785.078 1464.32,765.969 1484.53,746.86 1504.73,727.751 1524.94,708.642 1545.14,689.533 1565.35,670.424 1585.55,651.315 1605.76,632.206 1625.96,619.41 1646.17,612.161 1666.37,604.912 1686.58,596.987 1706.79,587.743 1726.99,578.498 1747.2,569.253 1767.4,560.008 1787.61,550.763 1807.81,541.518 1828.02,532.273 1848.22,523.028 1868.43,513.783 1888.64,504.539 1908.84,495.294 1929.05,486.049 1949.25,476.804 1969.46,467.559 1989.66,458.314 2009.87,449.069 2030.07,439.824 2050.28,430.579 2070.48,421.335 2090.69,412.09 2110.9,402.845 2131.1,393.6 2151.31,362.082 2171.51,330.198 2191.72,298.315 2211.92,266.432 2232.13,234.549 2252.33,202.665 2272.54,170.782 2292.75,138.899 "/>
<polyline clip-path="url(#clip052)" style="stroke:#3da44d; stroke-linecap:round; stroke-linejoin:round; stroke-width:4; stroke-opacity:1; fill:none" points="292.4,1301.94 312.605,1296.38 332.811,1290.81 353.016,1285.25 373.222,1279.68 393.427,1274.12 413.633,1268.55 433.838,1262.99 454.044,1257.42 474.249,1251.85 494.455,1246.29 514.66,1240.72 534.866,1235.16 555.071,1229.59 575.277,1224.03 595.482,1218.46 615.688,1212.89 635.893,1207.33 656.099,1201.76 676.304,1196.2 696.51,1190.63 716.715,1185.07 736.921,1179.5 757.127,1173.94 777.332,1168.37 797.538,1162.8 817.743,1154.4 837.949,1142.54 858.154,1130.68 878.36,1118.82 898.565,1106.96 918.771,1095.09 938.976,1083.23 959.182,1071.37 979.387,1059.51 999.593,1047.65 1019.8,1035.79 1040,1023.93 1060.21,1012.07 1080.41,1000.21 1100.62,988.353 1120.83,976.493 1141.03,964.633 1161.24,952.773 1181.44,940.913 1201.65,929.053 1221.85,917.192 1242.06,905.332 1262.26,893.472 1282.47,881.612 1302.68,866.127 1322.88,847.018 1343.09,827.91 1363.29,808.801 1383.5,789.692 1403.7,770.583 1423.91,751.474 1444.11,732.365 1464.32,713.256 1484.53,694.147 1504.73,675.038 1524.94,655.929 1545.14,636.82 1565.35,617.711 1585.55,598.602 1605.76,579.493 1625.96,566.697 1646.17,559.448 1666.37,552.199 1686.58,544.274 1706.79,535.03 1726.99,525.785 1747.2,516.54 1767.4,507.295 1787.61,498.05 1807.81,488.805 1828.02,479.56 1848.22,470.315 1868.43,461.07 1888.64,451.826 1908.84,442.581 1929.05,433.336 1949.25,424.091 1969.46,414.846 1989.66,405.601 2009.87,396.356 2030.07,387.111 2050.28,377.866 2070.48,368.622 2090.69,359.377 2110.9,350.132 2131.1,340.887 2151.31,309.369 2171.51,277.485 2191.72,245.602 2211.92,213.719 2232.13,181.836 2252.33,149.952 2272.54,118.069 2292.75,86.1857 "/>
<path clip-path="url(#clip050)" d="M303.068 300.469 L694.757 300.469 L694.757 93.1086 L303.068 93.1086  Z" fill="#ffffff" fill-rule="evenodd" fill-opacity="1"/>
<polyline clip-path="url(#clip050)" style="stroke:#000000; stroke-linecap:round; stroke-linejoin:round; stroke-width:4; stroke-opacity:1; fill:none" points="303.068,300.469 694.757,300.469 694.757,93.1086 303.068,93.1086 303.068,300.469 "/>
<polyline clip-path="url(#clip050)" style="stroke:#009af9; stroke-linecap:round; stroke-linejoin:round; stroke-width:4; stroke-opacity:1; fill:none" points="326.628,144.949 467.986,144.949 "/>
<path clip-path="url(#clip050)" d="M496.221 145.724 L496.221 158.386 L503.721 158.386 Q507.494 158.386 509.3 156.835 Q511.128 155.261 511.128 152.043 Q511.128 148.803 509.3 147.275 Q507.494 145.724 503.721 145.724 L496.221 145.724 M496.221 131.511 L496.221 141.928 L503.142 141.928 Q506.568 141.928 508.235 140.655 Q509.925 139.358 509.925 136.719 Q509.925 134.104 508.235 132.807 Q506.568 131.511 503.142 131.511 L496.221 131.511 M491.545 127.669 L503.49 127.669 Q508.837 127.669 511.73 129.891 Q514.624 132.113 514.624 136.21 Q514.624 139.382 513.142 141.257 Q511.661 143.131 508.791 143.594 Q512.24 144.335 514.138 146.696 Q516.059 149.034 516.059 152.553 Q516.059 157.182 512.911 159.705 Q509.763 162.229 503.953 162.229 L491.545 162.229 L491.545 127.669 Z" fill="#000000" fill-rule="nonzero" fill-opacity="1" /><path clip-path="url(#clip050)" d="M524.068 127.669 L531.036 127.669 L539.855 151.187 L548.721 127.669 L555.688 127.669 L555.688 162.229 L551.128 162.229 L551.128 131.882 L542.216 155.585 L537.517 155.585 L528.605 131.882 L528.605 162.229 L524.068 162.229 L524.068 127.669 Z" fill="#000000" fill-rule="nonzero" fill-opacity="1" /><path clip-path="url(#clip050)" d="M564.971 127.669 L569.647 127.669 L569.647 162.229 L564.971 162.229 L564.971 127.669 Z" fill="#000000" fill-rule="nonzero" fill-opacity="1" /><path clip-path="url(#clip050)" d="M579.323 140.701 L608.998 140.701 L608.998 144.59 L579.323 144.59 L579.323 140.701 M579.323 150.145 L608.998 150.145 L608.998 154.081 L579.323 154.081 L579.323 150.145 Z" fill="#000000" fill-rule="nonzero" fill-opacity="1" /><path clip-path="url(#clip050)" d="M623.119 158.293 L639.438 158.293 L639.438 162.229 L617.494 162.229 L617.494 158.293 Q620.156 155.539 624.739 150.909 Q629.345 146.256 630.526 144.914 Q632.771 142.391 633.651 140.655 Q634.554 138.895 634.554 137.206 Q634.554 134.451 632.609 132.715 Q630.688 130.979 627.586 130.979 Q625.387 130.979 622.933 131.743 Q620.503 132.507 617.725 134.057 L617.725 129.335 Q620.549 128.201 623.003 127.622 Q625.457 127.044 627.494 127.044 Q632.864 127.044 636.058 129.729 Q639.253 132.414 639.253 136.905 Q639.253 139.034 638.443 140.956 Q637.656 142.854 635.549 145.446 Q634.97 146.118 631.869 149.335 Q628.767 152.53 623.119 158.293 Z" fill="#000000" fill-rule="nonzero" fill-opacity="1" /><path clip-path="url(#clip050)" d="M649.299 127.669 L667.655 127.669 L667.655 131.604 L653.581 131.604 L653.581 140.076 Q654.6 139.729 655.618 139.567 Q656.637 139.382 657.655 139.382 Q663.442 139.382 666.822 142.553 Q670.202 145.724 670.202 151.141 Q670.202 156.719 666.73 159.821 Q663.257 162.9 656.938 162.9 Q654.762 162.9 652.493 162.53 Q650.248 162.159 647.841 161.418 L647.841 156.719 Q649.924 157.854 652.146 158.409 Q654.368 158.965 656.845 158.965 Q660.85 158.965 663.188 156.858 Q665.526 154.752 665.526 151.141 Q665.526 147.53 663.188 145.423 Q660.85 143.317 656.845 143.317 Q654.97 143.317 653.095 143.733 Q651.243 144.15 649.299 145.03 L649.299 127.669 Z" fill="#000000" fill-rule="nonzero" fill-opacity="1" /><polyline clip-path="url(#clip050)" style="stroke:#e26f46; stroke-linecap:round; stroke-linejoin:round; stroke-width:4; stroke-opacity:1; fill:none" points="326.628,196.789 467.986,196.789 "/>
<path clip-path="url(#clip050)" d="M496.221 197.564 L496.221 210.226 L503.721 210.226 Q507.494 210.226 509.3 208.675 Q511.128 207.101 511.128 203.883 Q511.128 200.643 509.3 199.115 Q507.494 197.564 503.721 197.564 L496.221 197.564 M496.221 183.351 L496.221 193.768 L503.142 193.768 Q506.568 193.768 508.235 192.495 Q509.925 191.198 509.925 188.559 Q509.925 185.944 508.235 184.647 Q506.568 183.351 503.142 183.351 L496.221 183.351 M491.545 179.509 L503.49 179.509 Q508.837 179.509 511.73 181.731 Q514.624 183.953 514.624 188.05 Q514.624 191.222 513.142 193.097 Q511.661 194.971 508.791 195.434 Q512.24 196.175 514.138 198.536 Q516.059 200.874 516.059 204.393 Q516.059 209.022 512.911 211.545 Q509.763 214.069 503.953 214.069 L491.545 214.069 L491.545 179.509 Z" fill="#000000" fill-rule="nonzero" fill-opacity="1" /><path clip-path="url(#clip050)" d="M524.068 179.509 L531.036 179.509 L539.855 203.027 L548.721 179.509 L555.688 179.509 L555.688 214.069 L551.128 214.069 L551.128 183.722 L542.216 207.425 L537.517 207.425 L528.605 183.722 L528.605 214.069 L524.068 214.069 L524.068 179.509 Z" fill="#000000" fill-rule="nonzero" fill-opacity="1" /><path clip-path="url(#clip050)" d="M564.971 179.509 L569.647 179.509 L569.647 214.069 L564.971 214.069 L564.971 179.509 Z" fill="#000000" fill-rule="nonzero" fill-opacity="1" /><path clip-path="url(#clip050)" d="M579.323 192.541 L608.998 192.541 L608.998 196.43 L579.323 196.43 L579.323 192.541 M579.323 201.985 L608.998 201.985 L608.998 205.921 L579.323 205.921 L579.323 201.985 Z" fill="#000000" fill-rule="nonzero" fill-opacity="1" /><path clip-path="url(#clip050)" d="M633.257 195.434 Q636.614 196.152 638.489 198.421 Q640.387 200.689 640.387 204.022 Q640.387 209.138 636.869 211.939 Q633.35 214.74 626.869 214.74 Q624.693 214.74 622.378 214.3 Q620.086 213.883 617.633 213.027 L617.633 208.513 Q619.577 209.647 621.892 210.226 Q624.207 210.805 626.73 210.805 Q631.128 210.805 633.419 209.069 Q635.734 207.333 635.734 204.022 Q635.734 200.967 633.582 199.254 Q631.452 197.518 627.632 197.518 L623.605 197.518 L623.605 193.675 L627.818 193.675 Q631.267 193.675 633.095 192.309 Q634.924 190.921 634.924 188.328 Q634.924 185.666 633.026 184.254 Q631.151 182.819 627.632 182.819 Q625.711 182.819 623.512 183.235 Q621.313 183.652 618.674 184.532 L618.674 180.365 Q621.336 179.624 623.651 179.254 Q625.989 178.884 628.049 178.884 Q633.373 178.884 636.475 181.314 Q639.577 183.722 639.577 187.842 Q639.577 190.712 637.933 192.703 Q636.29 194.671 633.257 195.434 Z" fill="#000000" fill-rule="nonzero" fill-opacity="1" /><path clip-path="url(#clip050)" d="M659.253 182.587 Q655.642 182.587 653.813 186.152 Q652.007 189.694 652.007 196.823 Q652.007 203.93 653.813 207.495 Q655.642 211.036 659.253 211.036 Q662.887 211.036 664.692 207.495 Q666.521 203.93 666.521 196.823 Q666.521 189.694 664.692 186.152 Q662.887 182.587 659.253 182.587 M659.253 178.884 Q665.063 178.884 668.118 183.49 Q671.197 188.073 671.197 196.823 Q671.197 205.55 668.118 210.157 Q665.063 214.74 659.253 214.74 Q653.443 214.74 650.364 210.157 Q647.308 205.55 647.308 196.823 Q647.308 188.073 650.364 183.49 Q653.443 178.884 659.253 178.884 Z" fill="#000000" fill-rule="nonzero" fill-opacity="1" /><polyline clip-path="url(#clip050)" style="stroke:#3da44d; stroke-linecap:round; stroke-linejoin:round; stroke-width:4; stroke-opacity:1; fill:none" points="326.628,248.629 467.986,248.629 "/>
<path clip-path="url(#clip050)" d="M496.221 249.404 L496.221 262.066 L503.721 262.066 Q507.494 262.066 509.3 260.515 Q511.128 258.941 511.128 255.723 Q511.128 252.483 509.3 250.955 Q507.494 249.404 503.721 249.404 L496.221 249.404 M496.221 235.191 L496.221 245.608 L503.142 245.608 Q506.568 245.608 508.235 244.335 Q509.925 243.038 509.925 240.399 Q509.925 237.784 508.235 236.487 Q506.568 235.191 503.142 235.191 L496.221 235.191 M491.545 231.349 L503.49 231.349 Q508.837 231.349 511.73 233.571 Q514.624 235.793 514.624 239.89 Q514.624 243.062 513.142 244.937 Q511.661 246.811 508.791 247.274 Q512.24 248.015 514.138 250.376 Q516.059 252.714 516.059 256.233 Q516.059 260.862 512.911 263.385 Q509.763 265.909 503.953 265.909 L491.545 265.909 L491.545 231.349 Z" fill="#000000" fill-rule="nonzero" fill-opacity="1" /><path clip-path="url(#clip050)" d="M524.068 231.349 L531.036 231.349 L539.855 254.867 L548.721 231.349 L555.688 231.349 L555.688 265.909 L551.128 265.909 L551.128 235.562 L542.216 259.265 L537.517 259.265 L528.605 235.562 L528.605 265.909 L524.068 265.909 L524.068 231.349 Z" fill="#000000" fill-rule="nonzero" fill-opacity="1" /><path clip-path="url(#clip050)" d="M564.971 231.349 L569.647 231.349 L569.647 265.909 L564.971 265.909 L564.971 231.349 Z" fill="#000000" fill-rule="nonzero" fill-opacity="1" /><path clip-path="url(#clip050)" d="M579.323 244.381 L608.998 244.381 L608.998 248.27 L579.323 248.27 L579.323 244.381 M579.323 253.825 L608.998 253.825 L608.998 257.761 L579.323 257.761 L579.323 253.825 Z" fill="#000000" fill-rule="nonzero" fill-opacity="1" /><path clip-path="url(#clip050)" d="M633.257 247.274 Q636.614 247.992 638.489 250.261 Q640.387 252.529 640.387 255.862 Q640.387 260.978 636.869 263.779 Q633.35 266.58 626.869 266.58 Q624.693 266.58 622.378 266.14 Q620.086 265.723 617.633 264.867 L617.633 260.353 Q619.577 261.487 621.892 262.066 Q624.207 262.645 626.73 262.645 Q631.128 262.645 633.419 260.909 Q635.734 259.173 635.734 255.862 Q635.734 252.807 633.582 251.094 Q631.452 249.358 627.632 249.358 L623.605 249.358 L623.605 245.515 L627.818 245.515 Q631.267 245.515 633.095 244.149 Q634.924 242.761 634.924 240.168 Q634.924 237.506 633.026 236.094 Q631.151 234.659 627.632 234.659 Q625.711 234.659 623.512 235.075 Q621.313 235.492 618.674 236.372 L618.674 232.205 Q621.336 231.464 623.651 231.094 Q625.989 230.724 628.049 230.724 Q633.373 230.724 636.475 233.154 Q639.577 235.562 639.577 239.682 Q639.577 242.552 637.933 244.543 Q636.29 246.511 633.257 247.274 Z" fill="#000000" fill-rule="nonzero" fill-opacity="1" /><path clip-path="url(#clip050)" d="M649.299 231.349 L667.655 231.349 L667.655 235.284 L653.581 235.284 L653.581 243.756 Q654.6 243.409 655.618 243.247 Q656.637 243.062 657.655 243.062 Q663.442 243.062 666.822 246.233 Q670.202 249.404 670.202 254.821 Q670.202 260.399 666.73 263.501 Q663.257 266.58 656.938 266.58 Q654.762 266.58 652.493 266.21 Q650.248 265.839 647.841 265.098 L647.841 260.399 Q649.924 261.534 652.146 262.089 Q654.368 262.645 656.845 262.645 Q660.85 262.645 663.188 260.538 Q665.526 258.432 665.526 254.821 Q665.526 251.21 663.188 249.103 Q660.85 246.997 656.845 246.997 Q654.97 246.997 653.095 247.413 Q651.243 247.83 649.299 248.71 L649.299 231.349 Z" fill="#000000" fill-rule="nonzero" fill-opacity="1" /></svg>
