<?xml version="1.0" encoding="utf-8"?>
<svg xmlns="http://www.w3.org/2000/svg" xmlns:xlink="http://www.w3.org/1999/xlink" width="600" height="400" viewBox="0 0 2400 1600">
<defs>
  <clipPath id="clip970">
    <rect x="0" y="0" width="2400" height="1600"/>
  </clipPath>
</defs>
<path clip-path="url(#clip970)" d="M0 1600 L2400 1600 L2400 0 L0 0  Z" fill="#ffffff" fill-rule="evenodd" fill-opacity="1"/>
<defs>
  <clipPath id="clip971">
    <rect x="480" y="0" width="1681" height="1600"/>
  </clipPath>
</defs>
<path clip-path="url(#clip970)" d="M219.38 1423.18 L2352.76 1423.18 L2352.76 47.2441 L219.38 47.2441  Z" fill="#ffffff" fill-rule="evenodd" fill-opacity="1"/>
<defs>
  <clipPath id="clip972">
    <rect x="219" y="47" width="2134" height="1377"/>
  </clipPath>
</defs>
<polyline clip-path="url(#clip972)" style="stroke:#000000; stroke-linecap:round; stroke-linejoin:round; stroke-width:2; stroke-opacity:0.1; fill:none" points="481.021,1423.18 481.021,47.2441 "/>
<polyline clip-path="url(#clip972)" style="stroke:#000000; stroke-linecap:round; stroke-linejoin:round; stroke-width:2; stroke-opacity:0.1; fill:none" points="883.544,1423.18 883.544,47.2441 "/>
<polyline clip-path="url(#clip972)" style="stroke:#000000; stroke-linecap:round; stroke-linejoin:round; stroke-width:2; stroke-opacity:0.1; fill:none" points="1286.07,1423.18 1286.07,47.2441 "/>
<polyline clip-path="url(#clip972)" style="stroke:#000000; stroke-linecap:round; stroke-linejoin:round; stroke-width:2; stroke-opacity:0.1; fill:none" points="1688.59,1423.18 1688.59,47.2441 "/>
<polyline clip-path="url(#clip972)" style="stroke:#000000; stroke-linecap:round; stroke-linejoin:round; stroke-width:2; stroke-opacity:0.1; fill:none" points="2091.12,1423.18 2091.12,47.2441 "/>
<polyline clip-path="url(#clip970)" style="stroke:#000000; stroke-linecap:round; stroke-linejoin:round; stroke-width:4; stroke-opacity:1; fill:none" points="219.38,1423.18 2352.76,1423.18 "/>
<polyline clip-path="url(#clip970)" style="stroke:#000000; stroke-linecap:round; stroke-linejoin:round; stroke-width:4; stroke-opacity:1; fill:none" points="481.021,1423.18 481.021,1404.28 "/>
<polyline clip-path="url(#clip970)" style="stroke:#000000; stroke-linecap:round; stroke-linejoin:round; stroke-width:4; stroke-opacity:1; fill:none" points="883.544,1423.18 883.544,1404.28 "/>
<polyline clip-path="url(#clip970)" style="stroke:#000000; stroke-linecap:round; stroke-linejoin:round; stroke-width:4; stroke-opacity:1; fill:none" points="1286.07,1423.18 1286.07,1404.28 "/>
<polyline clip-path="url(#clip970)" style="stroke:#000000; stroke-linecap:round; stroke-linejoin:round; stroke-width:4; stroke-opacity:1; fill:none" points="1688.59,1423.18 1688.59,1404.28 "/>
<polyline clip-path="url(#clip970)" style="stroke:#000000; stroke-linecap:round; stroke-linejoin:round; stroke-width:4; stroke-opacity:1; fill:none" points="2091.12,1423.18 2091.12,1404.28 "/>
<path clip-path="url(#clip970)" d="M475.673 1481.64 L491.993 1481.64 L491.993 1485.58 L470.048 1485.58 L470.048 1481.64 Q472.71 1478.89 477.294 1474.26 Q481.9 1469.61 483.081 1468.27 Q485.326 1465.74 486.206 1464.01 Q487.109 1462.25 487.109 1460.56 Q487.109 1457.8 485.164 1456.07 Q483.243 1454.33 480.141 1454.33 Q477.942 1454.33 475.488 1455.09 Q473.058 1455.86 470.28 1457.41 L470.28 1452.69 Q473.104 1451.55 475.558 1450.97 Q478.011 1450.39 480.048 1450.39 Q485.419 1450.39 488.613 1453.08 Q491.808 1455.77 491.808 1460.26 Q491.808 1462.39 490.997 1464.31 Q490.21 1466.2 488.104 1468.8 Q487.525 1469.47 484.423 1472.69 Q481.322 1475.88 475.673 1481.64 Z" fill="#000000" fill-rule="nonzero" fill-opacity="1" /><path clip-path="url(#clip970)" d="M886.554 1455.09 L874.748 1473.54 L886.554 1473.54 L886.554 1455.09 M885.327 1451.02 L891.206 1451.02 L891.206 1473.54 L896.137 1473.54 L896.137 1477.43 L891.206 1477.43 L891.206 1485.58 L886.554 1485.58 L886.554 1477.43 L870.952 1477.43 L870.952 1472.92 L885.327 1451.02 Z" fill="#000000" fill-rule="nonzero" fill-opacity="1" /><path clip-path="url(#clip970)" d="M1286.47 1466.44 Q1283.32 1466.44 1281.47 1468.59 Q1279.64 1470.74 1279.64 1474.49 Q1279.64 1478.22 1281.47 1480.39 Q1283.32 1482.55 1286.47 1482.55 Q1289.62 1482.55 1291.45 1480.39 Q1293.3 1478.22 1293.3 1474.49 Q1293.3 1470.74 1291.45 1468.59 Q1289.62 1466.44 1286.47 1466.44 M1295.76 1451.78 L1295.76 1456.04 Q1294 1455.21 1292.19 1454.77 Q1290.41 1454.33 1288.65 1454.33 Q1284.02 1454.33 1281.57 1457.45 Q1279.14 1460.58 1278.79 1466.9 Q1280.15 1464.89 1282.21 1463.82 Q1284.27 1462.73 1286.75 1462.73 Q1291.96 1462.73 1294.97 1465.9 Q1298 1469.05 1298 1474.49 Q1298 1479.82 1294.85 1483.03 Q1291.7 1486.25 1286.47 1486.25 Q1280.48 1486.25 1277.31 1481.67 Q1274.14 1477.06 1274.14 1468.33 Q1274.14 1460.14 1278.02 1455.28 Q1281.91 1450.39 1288.46 1450.39 Q1290.22 1450.39 1292.01 1450.74 Q1293.81 1451.09 1295.76 1451.78 Z" fill="#000000" fill-rule="nonzero" fill-opacity="1" /><path clip-path="url(#clip970)" d="M1688.59 1469.17 Q1685.26 1469.17 1683.34 1470.95 Q1681.44 1472.73 1681.44 1475.86 Q1681.44 1478.98 1683.34 1480.77 Q1685.26 1482.55 1688.59 1482.55 Q1691.93 1482.55 1693.85 1480.77 Q1695.77 1478.96 1695.77 1475.86 Q1695.77 1472.73 1693.85 1470.95 Q1691.95 1469.17 1688.59 1469.17 M1683.92 1467.18 Q1680.91 1466.44 1679.22 1464.38 Q1677.55 1462.32 1677.55 1459.35 Q1677.55 1455.21 1680.49 1452.8 Q1683.45 1450.39 1688.59 1450.39 Q1693.75 1450.39 1696.69 1452.8 Q1699.63 1455.21 1699.63 1459.35 Q1699.63 1462.32 1697.94 1464.38 Q1696.28 1466.44 1693.29 1467.18 Q1696.67 1467.96 1698.55 1470.26 Q1700.44 1472.55 1700.44 1475.86 Q1700.44 1480.88 1697.36 1483.57 Q1694.31 1486.25 1688.59 1486.25 Q1682.87 1486.25 1679.8 1483.57 Q1676.74 1480.88 1676.74 1475.86 Q1676.74 1472.55 1678.64 1470.26 Q1680.54 1467.96 1683.92 1467.18 M1682.2 1459.79 Q1682.2 1462.48 1683.87 1463.98 Q1685.56 1465.49 1688.59 1465.49 Q1691.6 1465.49 1693.29 1463.98 Q1695 1462.48 1695 1459.79 Q1695 1457.11 1693.29 1455.6 Q1691.6 1454.1 1688.59 1454.1 Q1685.56 1454.1 1683.87 1455.6 Q1682.2 1457.11 1682.2 1459.79 Z" fill="#000000" fill-rule="nonzero" fill-opacity="1" /><path clip-path="url(#clip970)" d="M2065.8 1481.64 L2073.44 1481.64 L2073.44 1455.28 L2065.13 1456.95 L2065.13 1452.69 L2073.4 1451.02 L2078.07 1451.02 L2078.07 1481.64 L2085.71 1481.64 L2085.71 1485.58 L2065.8 1485.58 L2065.8 1481.64 Z" fill="#000000" fill-rule="nonzero" fill-opacity="1" /><path clip-path="url(#clip970)" d="M2105.15 1454.1 Q2101.54 1454.1 2099.71 1457.66 Q2097.91 1461.2 2097.91 1468.33 Q2097.91 1475.44 2099.71 1479.01 Q2101.54 1482.55 2105.15 1482.55 Q2108.79 1482.55 2110.59 1479.01 Q2112.42 1475.44 2112.42 1468.33 Q2112.42 1461.2 2110.59 1457.66 Q2108.79 1454.1 2105.15 1454.1 M2105.15 1450.39 Q2110.96 1450.39 2114.02 1455 Q2117.1 1459.58 2117.1 1468.33 Q2117.1 1477.06 2114.02 1481.67 Q2110.96 1486.25 2105.15 1486.25 Q2099.34 1486.25 2096.27 1481.67 Q2093.21 1477.06 2093.21 1468.33 Q2093.21 1459.58 2096.27 1455 Q2099.34 1450.39 2105.15 1450.39 Z" fill="#000000" fill-rule="nonzero" fill-opacity="1" /><path clip-path="url(#clip970)" d="M1013.41 1520.52 L1022.07 1520.52 L1043.14 1560.28 L1043.14 1520.52 L1049.38 1520.52 L1049.38 1568.04 L1040.72 1568.04 L1019.65 1528.29 L1019.65 1568.04 L1013.41 1568.04 L1013.41 1520.52 Z" fill="#000000" fill-rule="nonzero" fill-opacity="1" /><path clip-path="url(#clip970)" d="M1061.31 1553.98 L1061.31 1532.4 L1067.17 1532.4 L1067.17 1553.75 Q1067.17 1558.81 1069.14 1561.36 Q1071.11 1563.87 1075.06 1563.87 Q1079.8 1563.87 1082.54 1560.85 Q1085.31 1557.83 1085.31 1552.61 L1085.31 1532.4 L1091.17 1532.4 L1091.17 1568.04 L1085.31 1568.04 L1085.31 1562.57 Q1083.18 1565.82 1080.34 1567.41 Q1077.54 1568.97 1073.82 1568.97 Q1067.68 1568.97 1064.49 1565.15 Q1061.31 1561.33 1061.31 1553.98 M1076.05 1531.54 L1076.05 1531.54 Z" fill="#000000" fill-rule="nonzero" fill-opacity="1" /><path clip-path="url(#clip970)" d="M1130.98 1539.24 Q1133.18 1535.29 1136.24 1533.41 Q1139.29 1531.54 1143.43 1531.54 Q1149 1531.54 1152.02 1535.45 Q1155.05 1539.33 1155.05 1546.53 L1155.05 1568.04 L1149.16 1568.04 L1149.16 1546.72 Q1149.16 1541.59 1147.34 1539.11 Q1145.53 1536.63 1141.81 1536.63 Q1137.25 1536.63 1134.61 1539.65 Q1131.97 1542.68 1131.97 1547.9 L1131.97 1568.04 L1126.08 1568.04 L1126.08 1546.72 Q1126.08 1541.56 1124.27 1539.11 Q1122.45 1536.63 1118.67 1536.63 Q1114.18 1536.63 1111.54 1539.68 Q1108.89 1542.71 1108.89 1547.9 L1108.89 1568.04 L1103.01 1568.04 L1103.01 1532.4 L1108.89 1532.4 L1108.89 1537.93 Q1110.9 1534.66 1113.7 1533.1 Q1116.5 1531.54 1120.35 1531.54 Q1124.24 1531.54 1126.94 1533.51 Q1129.68 1535.48 1130.98 1539.24 Z" fill="#000000" fill-rule="nonzero" fill-opacity="1" /><path clip-path="url(#clip970)" d="M1192.32 1550.25 Q1192.32 1543.79 1189.64 1540.13 Q1187 1536.44 1182.35 1536.44 Q1177.71 1536.44 1175.03 1540.13 Q1172.39 1543.79 1172.39 1550.25 Q1172.39 1556.71 1175.03 1560.4 Q1177.71 1564.07 1182.35 1564.07 Q1187 1564.07 1189.64 1560.4 Q1192.32 1556.71 1192.32 1550.25 M1172.39 1537.81 Q1174.24 1534.62 1177.04 1533.1 Q1179.87 1531.54 1183.79 1531.54 Q1190.28 1531.54 1194.32 1536.69 Q1198.4 1541.85 1198.4 1550.25 Q1198.4 1558.65 1194.32 1563.81 Q1190.28 1568.97 1183.79 1568.97 Q1179.87 1568.97 1177.04 1567.44 Q1174.24 1565.88 1172.39 1562.7 L1172.39 1568.04 L1166.5 1568.04 L1166.5 1518.52 L1172.39 1518.52 L1172.39 1537.81 Z" fill="#000000" fill-rule="nonzero" fill-opacity="1" /><path clip-path="url(#clip970)" d="M1238.6 1548.76 L1238.6 1551.62 L1211.67 1551.62 Q1212.05 1557.67 1215.3 1560.85 Q1218.58 1564 1224.4 1564 Q1227.77 1564 1230.93 1563.17 Q1234.11 1562.35 1237.23 1560.69 L1237.23 1566.23 Q1234.08 1567.57 1230.77 1568.27 Q1227.46 1568.97 1224.05 1568.97 Q1215.52 1568.97 1210.52 1564 Q1205.56 1559.04 1205.56 1550.57 Q1205.56 1541.82 1210.27 1536.69 Q1215.01 1531.54 1223.03 1531.54 Q1230.22 1531.54 1234.39 1536.18 Q1238.6 1540.8 1238.6 1548.76 M1232.74 1547.04 Q1232.68 1542.23 1230.03 1539.37 Q1227.42 1536.5 1223.1 1536.5 Q1218.19 1536.5 1215.23 1539.27 Q1212.31 1542.04 1211.86 1547.07 L1232.74 1547.04 Z" fill="#000000" fill-rule="nonzero" fill-opacity="1" /><path clip-path="url(#clip970)" d="M1268.86 1537.87 Q1267.88 1537.3 1266.7 1537.04 Q1265.55 1536.76 1264.15 1536.76 Q1259.19 1536.76 1256.52 1540 Q1253.87 1543.22 1253.87 1549.27 L1253.87 1568.04 L1247.99 1568.04 L1247.99 1532.4 L1253.87 1532.4 L1253.87 1537.93 Q1255.72 1534.69 1258.68 1533.13 Q1261.64 1531.54 1265.87 1531.54 Q1266.48 1531.54 1267.21 1531.63 Q1267.94 1531.7 1268.83 1531.85 L1268.86 1537.87 Z" fill="#000000" fill-rule="nonzero" fill-opacity="1" /><path clip-path="url(#clip970)" d="M1309.54 1536.5 Q1304.83 1536.5 1302.09 1540.19 Q1299.36 1543.85 1299.36 1550.25 Q1299.36 1556.65 1302.06 1560.34 Q1304.8 1564 1309.54 1564 Q1314.22 1564 1316.96 1560.31 Q1319.69 1556.62 1319.69 1550.25 Q1319.69 1543.92 1316.96 1540.23 Q1314.22 1536.5 1309.54 1536.5 M1309.54 1531.54 Q1317.18 1531.54 1321.54 1536.5 Q1325.9 1541.47 1325.9 1550.25 Q1325.9 1559 1321.54 1564 Q1317.18 1568.97 1309.54 1568.97 Q1301.87 1568.97 1297.51 1564 Q1293.18 1559 1293.18 1550.25 Q1293.18 1541.47 1297.51 1536.5 Q1301.87 1531.54 1309.54 1531.54 Z" fill="#000000" fill-rule="nonzero" fill-opacity="1" /><path clip-path="url(#clip970)" d="M1353.66 1518.52 L1353.66 1523.39 L1348.05 1523.39 Q1344.9 1523.39 1343.66 1524.66 Q1342.45 1525.93 1342.45 1529.24 L1342.45 1532.4 L1352.1 1532.4 L1352.1 1536.95 L1342.45 1536.95 L1342.45 1568.04 L1336.56 1568.04 L1336.56 1536.95 L1330.96 1536.95 L1330.96 1532.4 L1336.56 1532.4 L1336.56 1529.91 Q1336.56 1523.96 1339.33 1521.26 Q1342.1 1518.52 1348.12 1518.52 L1353.66 1518.52 Z" fill="#000000" fill-rule="nonzero" fill-opacity="1" /><path clip-path="url(#clip970)" d="M1385.07 1522.27 L1385.07 1532.4 L1397.13 1532.4 L1397.13 1536.95 L1385.07 1536.95 L1385.07 1556.3 Q1385.07 1560.66 1386.25 1561.9 Q1387.46 1563.14 1391.12 1563.14 L1397.13 1563.14 L1397.13 1568.04 L1391.12 1568.04 Q1384.34 1568.04 1381.76 1565.53 Q1379.18 1562.98 1379.18 1556.3 L1379.18 1536.95 L1374.89 1536.95 L1374.89 1532.4 L1379.18 1532.4 L1379.18 1522.27 L1385.07 1522.27 Z" fill="#000000" fill-rule="nonzero" fill-opacity="1" /><path clip-path="url(#clip970)" d="M1435.33 1548.76 L1435.33 1551.62 L1408.4 1551.62 Q1408.78 1557.67 1412.03 1560.85 Q1415.31 1564 1421.13 1564 Q1424.51 1564 1427.66 1563.17 Q1430.84 1562.35 1433.96 1560.69 L1433.96 1566.23 Q1430.81 1567.57 1427.5 1568.27 Q1424.19 1568.97 1420.78 1568.97 Q1412.25 1568.97 1407.26 1564 Q1402.29 1559.04 1402.29 1550.57 Q1402.29 1541.82 1407 1536.69 Q1411.74 1531.54 1419.76 1531.54 Q1426.96 1531.54 1431.13 1536.18 Q1435.33 1540.8 1435.33 1548.76 M1429.47 1547.04 Q1429.41 1542.23 1426.77 1539.37 Q1424.16 1536.5 1419.83 1536.5 Q1414.93 1536.5 1411.97 1539.27 Q1409.04 1542.04 1408.59 1547.07 L1429.47 1547.04 Z" fill="#000000" fill-rule="nonzero" fill-opacity="1" /><path clip-path="url(#clip970)" d="M1465.6 1537.87 Q1464.61 1537.3 1463.43 1537.04 Q1462.29 1536.76 1460.89 1536.76 Q1455.92 1536.76 1453.25 1540 Q1450.61 1543.22 1450.61 1549.27 L1450.61 1568.04 L1444.72 1568.04 L1444.72 1532.4 L1450.61 1532.4 L1450.61 1537.93 Q1452.45 1534.69 1455.41 1533.13 Q1458.37 1531.54 1462.6 1531.54 Q1463.21 1531.54 1463.94 1531.63 Q1464.67 1531.7 1465.57 1531.85 L1465.6 1537.87 Z" fill="#000000" fill-rule="nonzero" fill-opacity="1" /><path clip-path="url(#clip970)" d="M1498.35 1539.24 Q1500.54 1535.29 1503.6 1533.41 Q1506.66 1531.54 1510.79 1531.54 Q1516.36 1531.54 1519.39 1535.45 Q1522.41 1539.33 1522.41 1546.53 L1522.41 1568.04 L1516.52 1568.04 L1516.52 1546.72 Q1516.52 1541.59 1514.71 1539.11 Q1512.89 1536.63 1509.17 1536.63 Q1504.62 1536.63 1501.98 1539.65 Q1499.34 1542.68 1499.34 1547.9 L1499.34 1568.04 L1493.45 1568.04 L1493.45 1546.72 Q1493.45 1541.56 1491.63 1539.11 Q1489.82 1536.63 1486.03 1536.63 Q1481.54 1536.63 1478.9 1539.68 Q1476.26 1542.71 1476.26 1547.9 L1476.26 1568.04 L1470.37 1568.04 L1470.37 1532.4 L1476.26 1532.4 L1476.26 1537.93 Q1478.26 1534.66 1481.07 1533.1 Q1483.87 1531.54 1487.72 1531.54 Q1491.6 1531.54 1494.31 1533.51 Q1497.04 1535.48 1498.35 1539.24 Z" fill="#000000" fill-rule="nonzero" fill-opacity="1" /><path clip-path="url(#clip970)" d="M1556.82 1533.45 L1556.82 1538.98 Q1554.33 1537.71 1551.66 1537.07 Q1548.99 1536.44 1546.12 1536.44 Q1541.76 1536.44 1539.57 1537.77 Q1537.4 1539.11 1537.4 1541.79 Q1537.4 1543.82 1538.96 1545 Q1540.52 1546.15 1545.23 1547.2 L1547.24 1547.64 Q1553.48 1548.98 1556.09 1551.43 Q1558.73 1553.85 1558.73 1558.21 Q1558.73 1563.17 1554.78 1566.07 Q1550.87 1568.97 1543.99 1568.97 Q1541.13 1568.97 1538.01 1568.39 Q1534.92 1567.85 1531.48 1566.74 L1531.48 1560.69 Q1534.73 1562.38 1537.88 1563.24 Q1541.03 1564.07 1544.12 1564.07 Q1548.26 1564.07 1550.48 1562.66 Q1552.71 1561.23 1552.71 1558.65 Q1552.71 1556.27 1551.09 1554.99 Q1549.5 1553.72 1544.05 1552.54 L1542.02 1552.07 Q1536.57 1550.92 1534.16 1548.56 Q1531.74 1546.18 1531.74 1542.04 Q1531.74 1537.01 1535.3 1534.27 Q1538.87 1531.54 1545.42 1531.54 Q1548.67 1531.54 1551.53 1532.01 Q1554.4 1532.49 1556.82 1533.45 Z" fill="#000000" fill-rule="nonzero" fill-opacity="1" /><polyline clip-path="url(#clip972)" style="stroke:#000000; stroke-linecap:round; stroke-linejoin:round; stroke-width:2; stroke-opacity:0.1; fill:none" points="219.38,1384.24 2352.76,1384.24 "/>
<polyline clip-path="url(#clip972)" style="stroke:#000000; stroke-linecap:round; stroke-linejoin:round; stroke-width:2; stroke-opacity:0.1; fill:none" points="219.38,966.637 2352.76,966.637 "/>
<polyline clip-path="url(#clip972)" style="stroke:#000000; stroke-linecap:round; stroke-linejoin:round; stroke-width:2; stroke-opacity:0.1; fill:none" points="219.38,549.035 2352.76,549.035 "/>
<polyline clip-path="url(#clip972)" style="stroke:#000000; stroke-linecap:round; stroke-linejoin:round; stroke-width:2; stroke-opacity:0.1; fill:none" points="219.38,131.434 2352.76,131.434 "/>
<polyline clip-path="url(#clip970)" style="stroke:#000000; stroke-linecap:round; stroke-linejoin:round; stroke-width:4; stroke-opacity:1; fill:none" points="219.38,1423.18 219.38,47.2441 "/>
<polyline clip-path="url(#clip970)" style="stroke:#000000; stroke-linecap:round; stroke-linejoin:round; stroke-width:4; stroke-opacity:1; fill:none" points="219.38,1384.24 238.278,1384.24 "/>
<polyline clip-path="url(#clip970)" style="stroke:#000000; stroke-linecap:round; stroke-linejoin:round; stroke-width:4; stroke-opacity:1; fill:none" points="219.38,966.637 238.278,966.637 "/>
<polyline clip-path="url(#clip970)" style="stroke:#000000; stroke-linecap:round; stroke-linejoin:round; stroke-width:4; stroke-opacity:1; fill:none" points="219.38,549.035 238.278,549.035 "/>
<polyline clip-path="url(#clip970)" style="stroke:#000000; stroke-linecap:round; stroke-linejoin:round; stroke-width:4; stroke-opacity:1; fill:none" points="219.38,131.434 238.278,131.434 "/>
<path clip-path="url(#clip970)" d="M126.205 1370.04 Q122.593 1370.04 120.765 1373.6 Q118.959 1377.14 118.959 1384.27 Q118.959 1391.38 120.765 1394.94 Q122.593 1398.49 126.205 1398.49 Q129.839 1398.49 131.644 1394.94 Q133.473 1391.38 133.473 1384.27 Q133.473 1377.14 131.644 1373.6 Q129.839 1370.04 126.205 1370.04 M126.205 1366.33 Q132.015 1366.33 135.07 1370.94 Q138.149 1375.52 138.149 1384.27 Q138.149 1393 135.07 1397.61 Q132.015 1402.19 126.205 1402.19 Q120.394 1402.19 117.316 1397.61 Q114.26 1393 114.26 1384.27 Q114.26 1375.52 117.316 1370.94 Q120.394 1366.33 126.205 1366.33 Z" fill="#000000" fill-rule="nonzero" fill-opacity="1" /><path clip-path="url(#clip970)" d="M146.366 1395.64 L151.251 1395.64 L151.251 1401.52 L146.366 1401.52 L146.366 1395.64 Z" fill="#000000" fill-rule="nonzero" fill-opacity="1" /><path clip-path="url(#clip970)" d="M171.436 1370.04 Q167.825 1370.04 165.996 1373.6 Q164.19 1377.14 164.19 1384.27 Q164.19 1391.38 165.996 1394.94 Q167.825 1398.49 171.436 1398.49 Q175.07 1398.49 176.876 1394.94 Q178.704 1391.38 178.704 1384.27 Q178.704 1377.14 176.876 1373.6 Q175.07 1370.04 171.436 1370.04 M171.436 1366.33 Q177.246 1366.33 180.301 1370.94 Q183.38 1375.52 183.38 1384.27 Q183.38 1393 180.301 1397.61 Q177.246 1402.19 171.436 1402.19 Q165.626 1402.19 162.547 1397.61 Q159.491 1393 159.491 1384.27 Q159.491 1375.52 162.547 1370.94 Q165.626 1366.33 171.436 1366.33 Z" fill="#000000" fill-rule="nonzero" fill-opacity="1" /><path clip-path="url(#clip970)" d="M127.431 952.436 Q123.82 952.436 121.992 956 Q120.186 959.542 120.186 966.672 Q120.186 973.778 121.992 977.343 Q123.82 980.884 127.431 980.884 Q131.066 980.884 132.871 977.343 Q134.7 973.778 134.7 966.672 Q134.7 959.542 132.871 956 Q131.066 952.436 127.431 952.436 M127.431 948.732 Q133.242 948.732 136.297 953.338 Q139.376 957.922 139.376 966.672 Q139.376 975.398 136.297 980.005 Q133.242 984.588 127.431 984.588 Q121.621 984.588 118.543 980.005 Q115.487 975.398 115.487 966.672 Q115.487 957.922 118.543 953.338 Q121.621 948.732 127.431 948.732 Z" fill="#000000" fill-rule="nonzero" fill-opacity="1" /><path clip-path="url(#clip970)" d="M147.593 978.037 L152.478 978.037 L152.478 983.917 L147.593 983.917 L147.593 978.037 Z" fill="#000000" fill-rule="nonzero" fill-opacity="1" /><path clip-path="url(#clip970)" d="M163.473 979.982 L171.112 979.982 L171.112 953.616 L162.802 955.283 L162.802 951.024 L171.065 949.357 L175.741 949.357 L175.741 979.982 L183.38 979.982 L183.38 983.917 L163.473 983.917 L163.473 979.982 Z" fill="#000000" fill-rule="nonzero" fill-opacity="1" /><path clip-path="url(#clip970)" d="M127.802 534.834 Q124.191 534.834 122.362 538.399 Q120.556 541.941 120.556 549.07 Q120.556 556.177 122.362 559.741 Q124.191 563.283 127.802 563.283 Q131.436 563.283 133.242 559.741 Q135.07 556.177 135.07 549.07 Q135.07 541.941 133.242 538.399 Q131.436 534.834 127.802 534.834 M127.802 531.13 Q133.612 531.13 136.667 535.737 Q139.746 540.32 139.746 549.07 Q139.746 557.797 136.667 562.403 Q133.612 566.987 127.802 566.987 Q121.992 566.987 118.913 562.403 Q115.857 557.797 115.857 549.07 Q115.857 540.32 118.913 535.737 Q121.992 531.13 127.802 531.13 Z" fill="#000000" fill-rule="nonzero" fill-opacity="1" /><path clip-path="url(#clip970)" d="M147.964 560.436 L152.848 560.436 L152.848 566.315 L147.964 566.315 L147.964 560.436 Z" fill="#000000" fill-rule="nonzero" fill-opacity="1" /><path clip-path="url(#clip970)" d="M167.061 562.38 L183.38 562.38 L183.38 566.315 L161.436 566.315 L161.436 562.38 Q164.098 559.626 168.681 554.996 Q173.288 550.343 174.468 549.001 Q176.714 546.478 177.593 544.741 Q178.496 542.982 178.496 541.292 Q178.496 538.538 176.551 536.802 Q174.63 535.066 171.528 535.066 Q169.329 535.066 166.876 535.83 Q164.445 536.593 161.667 538.144 L161.667 533.422 Q164.491 532.288 166.945 531.709 Q169.399 531.13 171.436 531.13 Q176.806 531.13 180.001 533.816 Q183.195 536.501 183.195 540.992 Q183.195 543.121 182.385 545.042 Q181.598 546.941 179.491 549.533 Q178.913 550.204 175.811 553.422 Q172.709 556.616 167.061 562.38 Z" fill="#000000" fill-rule="nonzero" fill-opacity="1" /><path clip-path="url(#clip970)" d="M126.853 117.233 Q123.242 117.233 121.413 120.798 Q119.607 124.339 119.607 131.469 Q119.607 138.575 121.413 142.14 Q123.242 145.682 126.853 145.682 Q130.487 145.682 132.292 142.14 Q134.121 138.575 134.121 131.469 Q134.121 124.339 132.292 120.798 Q130.487 117.233 126.853 117.233 M126.853 113.529 Q132.663 113.529 135.718 118.136 Q138.797 122.719 138.797 131.469 Q138.797 140.196 135.718 144.802 Q132.663 149.385 126.853 149.385 Q121.043 149.385 117.964 144.802 Q114.908 140.196 114.908 131.469 Q114.908 122.719 117.964 118.136 Q121.043 113.529 126.853 113.529 Z" fill="#000000" fill-rule="nonzero" fill-opacity="1" /><path clip-path="url(#clip970)" d="M147.015 142.834 L151.899 142.834 L151.899 148.714 L147.015 148.714 L147.015 142.834 Z" fill="#000000" fill-rule="nonzero" fill-opacity="1" /><path clip-path="url(#clip970)" d="M176.251 130.08 Q179.607 130.797 181.482 133.066 Q183.38 135.334 183.38 138.668 Q183.38 143.784 179.862 146.584 Q176.343 149.385 169.862 149.385 Q167.686 149.385 165.371 148.946 Q163.079 148.529 160.626 147.672 L160.626 143.159 Q162.57 144.293 164.885 144.871 Q167.2 145.45 169.723 145.45 Q174.121 145.45 176.413 143.714 Q178.727 141.978 178.727 138.668 Q178.727 135.612 176.575 133.899 Q174.445 132.163 170.626 132.163 L166.598 132.163 L166.598 128.321 L170.811 128.321 Q174.26 128.321 176.089 126.955 Q177.917 125.566 177.917 122.973 Q177.917 120.311 176.019 118.899 Q174.144 117.464 170.626 117.464 Q168.704 117.464 166.505 117.881 Q164.306 118.298 161.667 119.177 L161.667 115.011 Q164.329 114.27 166.644 113.899 Q168.982 113.529 171.042 113.529 Q176.366 113.529 179.468 115.96 Q182.57 118.367 182.57 122.487 Q182.57 125.358 180.926 127.348 Q179.283 129.316 176.251 130.08 Z" fill="#000000" fill-rule="nonzero" fill-opacity="1" /><path clip-path="url(#clip970)" d="M41.7242 749.598 Q42.4244 747.53 44.7161 745.588 Q47.0077 743.615 51.0181 741.641 L64.0042 735.116 L64.0042 742.023 L51.8138 748.103 Q47.0395 750.458 45.48 752.686 Q43.9204 754.882 43.9204 758.701 L43.9204 765.704 L64.0042 765.704 L64.0042 772.133 L16.4842 772.133 L16.4842 757.619 Q16.4842 749.471 19.8898 745.461 Q23.2955 741.45 30.1704 741.45 Q34.6582 741.45 37.6183 743.551 Q40.5784 745.62 41.7242 749.598 M21.7677 765.704 L38.6368 765.704 L38.6368 757.619 Q38.6368 752.972 36.5043 750.617 Q34.34 748.23 30.1704 748.23 Q26.0009 748.23 23.9002 750.617 Q21.7677 752.972 21.7677 757.619 L21.7677 765.704 Z" fill="#000000" fill-rule="nonzero" fill-opacity="1" /><path clip-path="url(#clip970)" d="M58.5933 720.73 L58.5933 698.291 L64.0042 698.291 L64.0042 728.464 L58.5933 728.464 Q54.8057 724.804 48.44 718.502 Q42.0425 712.168 40.1964 710.545 Q36.7271 707.457 34.34 706.248 Q31.921 705.007 29.5975 705.007 Q25.8099 705.007 23.4228 707.68 Q21.0356 710.322 21.0356 714.587 Q21.0356 717.611 22.086 720.985 Q23.1363 724.327 25.2688 728.146 L18.7758 728.146 Q17.2162 724.263 16.4205 720.889 Q15.6248 717.515 15.6248 714.714 Q15.6248 707.33 19.3169 702.938 Q23.009 698.545 29.1837 698.545 Q32.112 698.545 34.7537 699.659 Q37.3637 700.742 40.9285 703.638 Q41.8515 704.434 46.2757 708.699 Q50.668 712.964 58.5933 720.73 Z" fill="#000000" fill-rule="nonzero" fill-opacity="1" /><polyline clip-path="url(#clip972)" style="stroke:#009af9; stroke-linecap:round; stroke-linejoin:round; stroke-width:4; stroke-opacity:1; fill:none" points="279.759,1384.24 481.021,365.035 682.282,303.564 883.544,247.409 1084.81,197.924 1286.07,161.196 1487.33,144.28 1688.59,139.206 1889.85,133.476 2091.12,86.1857 2292.38,86.5079 "/>
<polyline clip-path="url(#clip972)" style="stroke:#e26f46; stroke-linecap:round; stroke-linejoin:round; stroke-width:4; stroke-opacity:1; fill:none" points="279.759,1384.24 481.021,365.035 682.282,303.564 883.544,247.409 1084.81,197.924 1286.07,161.196 1487.33,144.28 1688.59,139.206 1889.85,133.476 2091.12,86.1857 2292.38,86.5079 "/>
<path clip-path="url(#clip970)" d="M2046.36 1377.32 L2281.64 1377.32 L2281.64 1221.8 L2046.36 1221.8  Z" fill="#ffffff" fill-rule="evenodd" fill-opacity="1"/>
<polyline clip-path="url(#clip970)" style="stroke:#000000; stroke-linecap:round; stroke-linejoin:round; stroke-width:4; stroke-opacity:1; fill:none" points="2046.36,1377.32 2281.64,1377.32 2281.64,1221.8 2046.36,1221.8 2046.36,1377.32 "/>
<polyline clip-path="url(#clip970)" style="stroke:#009af9; stroke-linecap:round; stroke-linejoin:round; stroke-width:4; stroke-opacity:1; fill:none" points="2070.07,1273.64 2212.29,1273.64 "/>
<path clip-path="url(#clip970)" d="M2236.67 1286.98 L2244.31 1286.98 L2244.31 1260.61 L2235.99 1262.28 L2235.99 1258.02 L2244.26 1256.36 L2248.93 1256.36 L2248.93 1286.98 L2256.57 1286.98 L2256.57 1290.92 L2236.67 1290.92 L2236.67 1286.98 Z" fill="#000000" fill-rule="nonzero" fill-opacity="1" /><polyline clip-path="url(#clip970)" style="stroke:#e26f46; stroke-linecap:round; stroke-linejoin:round; stroke-width:4; stroke-opacity:1; fill:none" points="2070.07,1325.48 2212.29,1325.48 "/>
<path clip-path="url(#clip970)" d="M2241.62 1338.82 L2257.94 1338.82 L2257.94 1342.76 L2235.99 1342.76 L2235.99 1338.82 Q2238.66 1336.07 2243.24 1331.44 Q2247.85 1326.78 2249.03 1325.44 Q2251.27 1322.92 2252.15 1321.18 Q2253.05 1319.42 2253.05 1317.73 Q2253.05 1314.98 2251.11 1313.24 Q2249.19 1311.51 2246.09 1311.51 Q2243.89 1311.51 2241.43 1312.27 Q2239 1313.03 2236.23 1314.58 L2236.23 1309.86 Q2239.05 1308.73 2241.5 1308.15 Q2243.96 1307.57 2245.99 1307.57 Q2251.37 1307.57 2254.56 1310.26 Q2257.75 1312.94 2257.75 1317.43 Q2257.75 1319.56 2256.94 1321.48 Q2256.16 1323.38 2254.05 1325.97 Q2253.47 1326.64 2250.37 1329.86 Q2247.27 1333.06 2241.62 1338.82 Z" fill="#000000" fill-rule="nonzero" fill-opacity="1" /></svg>
