<?xml version="1.0" encoding="utf-8"?>
<svg xmlns="http://www.w3.org/2000/svg" xmlns:xlink="http://www.w3.org/1999/xlink" width="600" height="400" viewBox="0 0 2400 1600">
<defs>
  <clipPath id="clip470">
    <rect x="0" y="0" width="2400" height="1600"/>
  </clipPath>
</defs>
<path clip-path="url(#clip470)" d="M0 1600 L2400 1600 L2400 0 L0 0  Z" fill="#ffffff" fill-rule="evenodd" fill-opacity="1"/>
<defs>
  <clipPath id="clip471">
    <rect x="480" y="0" width="1681" height="1600"/>
  </clipPath>
</defs>
<path clip-path="url(#clip470)" d="M256.209 1423.18 L2352.76 1423.18 L2352.76 47.2441 L256.209 47.2441  Z" fill="#ffffff" fill-rule="evenodd" fill-opacity="1"/>
<defs>
  <clipPath id="clip472">
    <rect x="256" y="47" width="2098" height="1377"/>
  </clipPath>
</defs>
<polyline clip-path="url(#clip472)" style="stroke:#000000; stroke-linecap:round; stroke-linejoin:round; stroke-width:2; stroke-opacity:0.1; fill:none" points="379.347,1423.18 379.347,47.2441 "/>
<polyline clip-path="url(#clip472)" style="stroke:#000000; stroke-linecap:round; stroke-linejoin:round; stroke-width:2; stroke-opacity:0.1; fill:none" points="698.359,1423.18 698.359,47.2441 "/>
<polyline clip-path="url(#clip472)" style="stroke:#000000; stroke-linecap:round; stroke-linejoin:round; stroke-width:2; stroke-opacity:0.1; fill:none" points="1017.37,1423.18 1017.37,47.2441 "/>
<polyline clip-path="url(#clip472)" style="stroke:#000000; stroke-linecap:round; stroke-linejoin:round; stroke-width:2; stroke-opacity:0.1; fill:none" points="1336.38,1423.18 1336.38,47.2441 "/>
<polyline clip-path="url(#clip472)" style="stroke:#000000; stroke-linecap:round; stroke-linejoin:round; stroke-width:2; stroke-opacity:0.1; fill:none" points="1655.4,1423.18 1655.4,47.2441 "/>
<polyline clip-path="url(#clip472)" style="stroke:#000000; stroke-linecap:round; stroke-linejoin:round; stroke-width:2; stroke-opacity:0.1; fill:none" points="1974.41,1423.18 1974.41,47.2441 "/>
<polyline clip-path="url(#clip472)" style="stroke:#000000; stroke-linecap:round; stroke-linejoin:round; stroke-width:2; stroke-opacity:0.1; fill:none" points="2293.42,1423.18 2293.42,47.2441 "/>
<polyline clip-path="url(#clip470)" style="stroke:#000000; stroke-linecap:round; stroke-linejoin:round; stroke-width:4; stroke-opacity:1; fill:none" points="256.209,1423.18 2352.76,1423.18 "/>
<polyline clip-path="url(#clip470)" style="stroke:#000000; stroke-linecap:round; stroke-linejoin:round; stroke-width:4; stroke-opacity:1; fill:none" points="379.347,1423.18 379.347,1404.28 "/>
<polyline clip-path="url(#clip470)" style="stroke:#000000; stroke-linecap:round; stroke-linejoin:round; stroke-width:4; stroke-opacity:1; fill:none" points="698.359,1423.18 698.359,1404.28 "/>
<polyline clip-path="url(#clip470)" style="stroke:#000000; stroke-linecap:round; stroke-linejoin:round; stroke-width:4; stroke-opacity:1; fill:none" points="1017.37,1423.18 1017.37,1404.28 "/>
<polyline clip-path="url(#clip470)" style="stroke:#000000; stroke-linecap:round; stroke-linejoin:round; stroke-width:4; stroke-opacity:1; fill:none" points="1336.38,1423.18 1336.38,1404.28 "/>
<polyline clip-path="url(#clip470)" style="stroke:#000000; stroke-linecap:round; stroke-linejoin:round; stroke-width:4; stroke-opacity:1; fill:none" points="1655.4,1423.18 1655.4,1404.28 "/>
<polyline clip-path="url(#clip470)" style="stroke:#000000; stroke-linecap:round; stroke-linejoin:round; stroke-width:4; stroke-opacity:1; fill:none" points="1974.41,1423.18 1974.41,1404.28 "/>
<polyline clip-path="url(#clip470)" style="stroke:#000000; stroke-linecap:round; stroke-linejoin:round; stroke-width:4; stroke-opacity:1; fill:none" points="2293.42,1423.18 2293.42,1404.28 "/>
<path clip-path="url(#clip470)" d="M358.121 1481.64 L374.44 1481.64 L374.44 1485.58 L352.496 1485.58 L352.496 1481.64 Q355.158 1478.89 359.741 1474.26 Q364.347 1469.61 365.528 1468.27 Q367.773 1465.74 368.653 1464.01 Q369.556 1462.25 369.556 1460.56 Q369.556 1457.8 367.611 1456.07 Q365.69 1454.33 362.588 1454.33 Q360.389 1454.33 357.935 1455.09 Q355.505 1455.86 352.727 1457.41 L352.727 1452.69 Q355.551 1451.55 358.005 1450.97 Q360.459 1450.39 362.496 1450.39 Q367.866 1450.39 371.06 1453.08 Q374.255 1455.77 374.255 1460.26 Q374.255 1462.39 373.445 1464.31 Q372.658 1466.2 370.551 1468.8 Q369.972 1469.47 366.871 1472.69 Q363.769 1475.88 358.121 1481.64 Z" fill="#000000" fill-rule="nonzero" fill-opacity="1" /><path clip-path="url(#clip470)" d="M394.255 1454.1 Q390.644 1454.1 388.815 1457.66 Q387.009 1461.2 387.009 1468.33 Q387.009 1475.44 388.815 1479.01 Q390.644 1482.55 394.255 1482.55 Q397.889 1482.55 399.694 1479.01 Q401.523 1475.44 401.523 1468.33 Q401.523 1461.2 399.694 1457.66 Q397.889 1454.1 394.255 1454.1 M394.255 1450.39 Q400.065 1450.39 403.12 1455 Q406.199 1459.58 406.199 1468.33 Q406.199 1477.06 403.12 1481.67 Q400.065 1486.25 394.255 1486.25 Q388.444 1486.25 385.366 1481.67 Q382.31 1477.06 382.31 1468.33 Q382.31 1459.58 385.366 1455 Q388.444 1450.39 394.255 1450.39 Z" fill="#000000" fill-rule="nonzero" fill-opacity="1" /><path clip-path="url(#clip470)" d="M687.202 1466.95 Q690.558 1467.66 692.433 1469.93 Q694.332 1472.2 694.332 1475.53 Q694.332 1480.65 690.813 1483.45 Q687.295 1486.25 680.813 1486.25 Q678.637 1486.25 676.322 1485.81 Q674.031 1485.39 671.577 1484.54 L671.577 1480.02 Q673.522 1481.16 675.836 1481.74 Q678.151 1482.32 680.674 1482.32 Q685.072 1482.32 687.364 1480.58 Q689.679 1478.84 689.679 1475.53 Q689.679 1472.48 687.526 1470.77 Q685.396 1469.03 681.577 1469.03 L677.549 1469.03 L677.549 1465.19 L681.762 1465.19 Q685.211 1465.19 687.04 1463.82 Q688.869 1462.43 688.869 1459.84 Q688.869 1457.18 686.971 1455.77 Q685.096 1454.33 681.577 1454.33 Q679.656 1454.33 677.457 1454.75 Q675.258 1455.16 672.619 1456.04 L672.619 1451.88 Q675.281 1451.14 677.596 1450.77 Q679.934 1450.39 681.994 1450.39 Q687.318 1450.39 690.42 1452.83 Q693.521 1455.23 693.521 1459.35 Q693.521 1462.22 691.878 1464.21 Q690.234 1466.18 687.202 1466.95 Z" fill="#000000" fill-rule="nonzero" fill-opacity="1" /><path clip-path="url(#clip470)" d="M713.197 1454.1 Q709.586 1454.1 707.757 1457.66 Q705.952 1461.2 705.952 1468.33 Q705.952 1475.44 707.757 1479.01 Q709.586 1482.55 713.197 1482.55 Q716.831 1482.55 718.637 1479.01 Q720.466 1475.44 720.466 1468.33 Q720.466 1461.2 718.637 1457.66 Q716.831 1454.1 713.197 1454.1 M713.197 1450.39 Q719.007 1450.39 722.063 1455 Q725.142 1459.58 725.142 1468.33 Q725.142 1477.06 722.063 1481.67 Q719.007 1486.25 713.197 1486.25 Q707.387 1486.25 704.308 1481.67 Q701.253 1477.06 701.253 1468.33 Q701.253 1459.58 704.308 1455 Q707.387 1450.39 713.197 1450.39 Z" fill="#000000" fill-rule="nonzero" fill-opacity="1" /><path clip-path="url(#clip470)" d="M1005.54 1455.09 L993.737 1473.54 L1005.54 1473.54 L1005.54 1455.09 M1004.32 1451.02 L1010.2 1451.02 L1010.2 1473.54 L1015.13 1473.54 L1015.13 1477.43 L1010.2 1477.43 L1010.2 1485.58 L1005.54 1485.58 L1005.54 1477.43 L989.941 1477.43 L989.941 1472.92 L1004.32 1451.02 Z" fill="#000000" fill-rule="nonzero" fill-opacity="1" /><path clip-path="url(#clip470)" d="M1032.86 1454.1 Q1029.25 1454.1 1027.42 1457.66 Q1025.61 1461.2 1025.61 1468.33 Q1025.61 1475.44 1027.42 1479.01 Q1029.25 1482.55 1032.86 1482.55 Q1036.49 1482.55 1038.3 1479.01 Q1040.13 1475.44 1040.13 1468.33 Q1040.13 1461.2 1038.3 1457.66 Q1036.49 1454.1 1032.86 1454.1 M1032.86 1450.39 Q1038.67 1450.39 1041.72 1455 Q1044.8 1459.58 1044.8 1468.33 Q1044.8 1477.06 1041.72 1481.67 Q1038.67 1486.25 1032.86 1486.25 Q1027.05 1486.25 1023.97 1481.67 Q1020.91 1477.06 1020.91 1468.33 Q1020.91 1459.58 1023.97 1455 Q1027.05 1450.39 1032.86 1450.39 Z" fill="#000000" fill-rule="nonzero" fill-opacity="1" /><path clip-path="url(#clip470)" d="M1311.08 1451.02 L1329.44 1451.02 L1329.44 1454.96 L1315.37 1454.96 L1315.37 1463.43 Q1316.38 1463.08 1317.4 1462.92 Q1318.42 1462.73 1319.44 1462.73 Q1325.23 1462.73 1328.61 1465.9 Q1331.99 1469.08 1331.99 1474.49 Q1331.99 1480.07 1328.51 1483.17 Q1325.04 1486.25 1318.72 1486.25 Q1316.55 1486.25 1314.28 1485.88 Q1312.03 1485.51 1309.62 1484.77 L1309.62 1480.07 Q1311.71 1481.2 1313.93 1481.76 Q1316.15 1482.32 1318.63 1482.32 Q1322.63 1482.32 1324.97 1480.21 Q1327.31 1478.1 1327.31 1474.49 Q1327.31 1470.88 1324.97 1468.77 Q1322.63 1466.67 1318.63 1466.67 Q1316.75 1466.67 1314.88 1467.08 Q1313.03 1467.5 1311.08 1468.38 L1311.08 1451.02 Z" fill="#000000" fill-rule="nonzero" fill-opacity="1" /><path clip-path="url(#clip470)" d="M1351.2 1454.1 Q1347.59 1454.1 1345.76 1457.66 Q1343.95 1461.2 1343.95 1468.33 Q1343.95 1475.44 1345.76 1479.01 Q1347.59 1482.55 1351.2 1482.55 Q1354.83 1482.55 1356.64 1479.01 Q1358.47 1475.44 1358.47 1468.33 Q1358.47 1461.2 1356.64 1457.66 Q1354.83 1454.1 1351.2 1454.1 M1351.2 1450.39 Q1357.01 1450.39 1360.06 1455 Q1363.14 1459.58 1363.14 1468.33 Q1363.14 1477.06 1360.06 1481.67 Q1357.01 1486.25 1351.2 1486.25 Q1345.39 1486.25 1342.31 1481.67 Q1339.25 1477.06 1339.25 1468.33 Q1339.25 1459.58 1342.31 1455 Q1345.39 1450.39 1351.2 1450.39 Z" fill="#000000" fill-rule="nonzero" fill-opacity="1" /><path clip-path="url(#clip470)" d="M1640.8 1466.44 Q1637.65 1466.44 1635.8 1468.59 Q1633.97 1470.74 1633.97 1474.49 Q1633.97 1478.22 1635.8 1480.39 Q1637.65 1482.55 1640.8 1482.55 Q1643.95 1482.55 1645.78 1480.39 Q1647.63 1478.22 1647.63 1474.49 Q1647.63 1470.74 1645.78 1468.59 Q1643.95 1466.44 1640.8 1466.44 M1650.08 1451.78 L1650.08 1456.04 Q1648.32 1455.21 1646.52 1454.77 Q1644.74 1454.33 1642.98 1454.33 Q1638.35 1454.33 1635.89 1457.45 Q1633.46 1460.58 1633.12 1466.9 Q1634.48 1464.89 1636.54 1463.82 Q1638.6 1462.73 1641.08 1462.73 Q1646.29 1462.73 1649.3 1465.9 Q1652.33 1469.05 1652.33 1474.49 Q1652.33 1479.82 1649.18 1483.03 Q1646.03 1486.25 1640.8 1486.25 Q1634.81 1486.25 1631.63 1481.67 Q1628.46 1477.06 1628.46 1468.33 Q1628.46 1460.14 1632.35 1455.28 Q1636.24 1450.39 1642.79 1450.39 Q1644.55 1450.39 1646.33 1450.74 Q1648.14 1451.09 1650.08 1451.78 Z" fill="#000000" fill-rule="nonzero" fill-opacity="1" /><path clip-path="url(#clip470)" d="M1670.38 1454.1 Q1666.77 1454.1 1664.94 1457.66 Q1663.14 1461.2 1663.14 1468.33 Q1663.14 1475.44 1664.94 1479.01 Q1666.77 1482.55 1670.38 1482.55 Q1674.02 1482.55 1675.82 1479.01 Q1677.65 1475.44 1677.65 1468.33 Q1677.65 1461.2 1675.82 1457.66 Q1674.02 1454.1 1670.38 1454.1 M1670.38 1450.39 Q1676.19 1450.39 1679.25 1455 Q1682.33 1459.58 1682.33 1468.33 Q1682.33 1477.06 1679.25 1481.67 Q1676.19 1486.25 1670.38 1486.25 Q1664.57 1486.25 1661.5 1481.67 Q1658.44 1477.06 1658.44 1468.33 Q1658.44 1459.58 1661.5 1455 Q1664.57 1450.39 1670.38 1450.39 Z" fill="#000000" fill-rule="nonzero" fill-opacity="1" /><path clip-path="url(#clip470)" d="M1947.76 1451.02 L1969.99 1451.02 L1969.99 1453.01 L1957.44 1485.58 L1952.56 1485.58 L1964.36 1454.96 L1947.76 1454.96 L1947.76 1451.02 Z" fill="#000000" fill-rule="nonzero" fill-opacity="1" /><path clip-path="url(#clip470)" d="M1989.11 1454.1 Q1985.5 1454.1 1983.67 1457.66 Q1981.86 1461.2 1981.86 1468.33 Q1981.86 1475.44 1983.67 1479.01 Q1985.5 1482.55 1989.11 1482.55 Q1992.74 1482.55 1994.55 1479.01 Q1996.38 1475.44 1996.38 1468.33 Q1996.38 1461.2 1994.55 1457.66 Q1992.74 1454.1 1989.11 1454.1 M1989.11 1450.39 Q1994.92 1450.39 1997.97 1455 Q2001.05 1459.58 2001.05 1468.33 Q2001.05 1477.06 1997.97 1481.67 Q1994.92 1486.25 1989.11 1486.25 Q1983.3 1486.25 1980.22 1481.67 Q1977.16 1477.06 1977.16 1468.33 Q1977.16 1459.58 1980.22 1455 Q1983.3 1450.39 1989.11 1450.39 Z" fill="#000000" fill-rule="nonzero" fill-opacity="1" /><path clip-path="url(#clip470)" d="M2278.29 1469.17 Q2274.96 1469.17 2273.04 1470.95 Q2271.14 1472.73 2271.14 1475.86 Q2271.14 1478.98 2273.04 1480.77 Q2274.96 1482.55 2278.29 1482.55 Q2281.63 1482.55 2283.55 1480.77 Q2285.47 1478.96 2285.47 1475.86 Q2285.47 1472.73 2283.55 1470.95 Q2281.65 1469.17 2278.29 1469.17 M2273.62 1467.18 Q2270.61 1466.44 2268.92 1464.38 Q2267.25 1462.32 2267.25 1459.35 Q2267.25 1455.21 2270.19 1452.8 Q2273.15 1450.39 2278.29 1450.39 Q2283.45 1450.39 2286.39 1452.8 Q2289.33 1455.21 2289.33 1459.35 Q2289.33 1462.32 2287.64 1464.38 Q2285.98 1466.44 2282.99 1467.18 Q2286.37 1467.96 2288.25 1470.26 Q2290.14 1472.55 2290.14 1475.86 Q2290.14 1480.88 2287.07 1483.57 Q2284.01 1486.25 2278.29 1486.25 Q2272.57 1486.25 2269.5 1483.57 Q2266.44 1480.88 2266.44 1475.86 Q2266.44 1472.55 2268.34 1470.26 Q2270.24 1467.96 2273.62 1467.18 M2271.9 1459.79 Q2271.9 1462.48 2273.57 1463.98 Q2275.26 1465.49 2278.29 1465.49 Q2281.3 1465.49 2282.99 1463.98 Q2284.7 1462.48 2284.7 1459.79 Q2284.7 1457.11 2282.99 1455.6 Q2281.3 1454.1 2278.29 1454.1 Q2275.26 1454.1 2273.57 1455.6 Q2271.9 1457.11 2271.9 1459.79 Z" fill="#000000" fill-rule="nonzero" fill-opacity="1" /><path clip-path="url(#clip470)" d="M2308.45 1454.1 Q2304.84 1454.1 2303.01 1457.66 Q2301.21 1461.2 2301.21 1468.33 Q2301.21 1475.44 2303.01 1479.01 Q2304.84 1482.55 2308.45 1482.55 Q2312.09 1482.55 2313.89 1479.01 Q2315.72 1475.44 2315.72 1468.33 Q2315.72 1461.2 2313.89 1457.66 Q2312.09 1454.1 2308.45 1454.1 M2308.45 1450.39 Q2314.26 1450.39 2317.32 1455 Q2320.4 1459.58 2320.4 1468.33 Q2320.4 1477.06 2317.32 1481.67 Q2314.26 1486.25 2308.45 1486.25 Q2302.64 1486.25 2299.57 1481.67 Q2296.51 1477.06 2296.51 1468.33 Q2296.51 1459.58 2299.57 1455 Q2302.64 1450.39 2308.45 1450.39 Z" fill="#000000" fill-rule="nonzero" fill-opacity="1" /><path clip-path="url(#clip470)" d="M1265.21 1526.86 L1256.48 1550.51 L1273.96 1550.51 L1265.21 1526.86 M1261.58 1520.52 L1268.87 1520.52 L1286.98 1568.04 L1280.29 1568.04 L1275.96 1555.85 L1254.54 1555.85 L1250.21 1568.04 L1243.44 1568.04 L1261.58 1520.52 Z" fill="#000000" fill-rule="nonzero" fill-opacity="1" /><path clip-path="url(#clip470)" d="M1317.12 1549.81 Q1317.12 1543.44 1314.48 1539.94 Q1311.87 1536.44 1307.12 1536.44 Q1302.41 1536.44 1299.77 1539.94 Q1297.16 1543.44 1297.16 1549.81 Q1297.16 1556.14 1299.77 1559.64 Q1302.41 1563.14 1307.12 1563.14 Q1311.87 1563.14 1314.48 1559.64 Q1317.12 1556.14 1317.12 1549.81 M1322.97 1563.62 Q1322.97 1572.72 1318.93 1577.15 Q1314.89 1581.6 1306.55 1581.6 Q1303.46 1581.6 1300.73 1581.13 Q1297.99 1580.68 1295.41 1579.72 L1295.41 1574.03 Q1297.99 1575.43 1300.5 1576.1 Q1303.02 1576.76 1305.63 1576.76 Q1311.39 1576.76 1314.25 1573.74 Q1317.12 1570.75 1317.12 1564.67 L1317.12 1561.77 Q1315.3 1564.92 1312.47 1566.48 Q1309.64 1568.04 1305.69 1568.04 Q1299.14 1568.04 1295.12 1563.05 Q1291.11 1558.05 1291.11 1549.81 Q1291.11 1541.53 1295.12 1536.53 Q1299.14 1531.54 1305.69 1531.54 Q1309.64 1531.54 1312.47 1533.1 Q1315.3 1534.66 1317.12 1537.81 L1317.12 1532.4 L1322.97 1532.4 L1322.97 1563.62 Z" fill="#000000" fill-rule="nonzero" fill-opacity="1" /><path clip-path="url(#clip470)" d="M1365.53 1548.76 L1365.53 1551.62 L1338.6 1551.62 Q1338.98 1557.67 1342.23 1560.85 Q1345.51 1564 1351.33 1564 Q1354.71 1564 1357.86 1563.17 Q1361.04 1562.35 1364.16 1560.69 L1364.16 1566.23 Q1361.01 1567.57 1357.7 1568.27 Q1354.39 1568.97 1350.98 1568.97 Q1342.45 1568.97 1337.46 1564 Q1332.49 1559.04 1332.49 1550.57 Q1332.49 1541.82 1337.2 1536.69 Q1341.94 1531.54 1349.97 1531.54 Q1357.16 1531.54 1361.33 1536.18 Q1365.53 1540.8 1365.53 1548.76 M1359.67 1547.04 Q1359.61 1542.23 1356.97 1539.37 Q1354.36 1536.5 1350.03 1536.5 Q1345.13 1536.5 1342.17 1539.27 Q1339.24 1542.04 1338.79 1547.07 L1359.67 1547.04 Z" fill="#000000" fill-rule="nonzero" fill-opacity="1" /><polyline clip-path="url(#clip472)" style="stroke:#000000; stroke-linecap:round; stroke-linejoin:round; stroke-width:2; stroke-opacity:0.1; fill:none" points="256.209,1294.9 2352.76,1294.9 "/>
<polyline clip-path="url(#clip472)" style="stroke:#000000; stroke-linecap:round; stroke-linejoin:round; stroke-width:2; stroke-opacity:0.1; fill:none" points="256.209,927.915 2352.76,927.915 "/>
<polyline clip-path="url(#clip472)" style="stroke:#000000; stroke-linecap:round; stroke-linejoin:round; stroke-width:2; stroke-opacity:0.1; fill:none" points="256.209,560.926 2352.76,560.926 "/>
<polyline clip-path="url(#clip472)" style="stroke:#000000; stroke-linecap:round; stroke-linejoin:round; stroke-width:2; stroke-opacity:0.1; fill:none" points="256.209,193.937 2352.76,193.937 "/>
<polyline clip-path="url(#clip470)" style="stroke:#000000; stroke-linecap:round; stroke-linejoin:round; stroke-width:4; stroke-opacity:1; fill:none" points="256.209,1423.18 256.209,47.2441 "/>
<polyline clip-path="url(#clip470)" style="stroke:#000000; stroke-linecap:round; stroke-linejoin:round; stroke-width:4; stroke-opacity:1; fill:none" points="256.209,1294.9 275.106,1294.9 "/>
<polyline clip-path="url(#clip470)" style="stroke:#000000; stroke-linecap:round; stroke-linejoin:round; stroke-width:4; stroke-opacity:1; fill:none" points="256.209,927.915 275.106,927.915 "/>
<polyline clip-path="url(#clip470)" style="stroke:#000000; stroke-linecap:round; stroke-linejoin:round; stroke-width:4; stroke-opacity:1; fill:none" points="256.209,560.926 275.106,560.926 "/>
<polyline clip-path="url(#clip470)" style="stroke:#000000; stroke-linecap:round; stroke-linejoin:round; stroke-width:4; stroke-opacity:1; fill:none" points="256.209,193.937 275.106,193.937 "/>
<path clip-path="url(#clip470)" d="M114.26 1295.36 L143.936 1295.36 L143.936 1299.29 L114.26 1299.29 L114.26 1295.36 Z" fill="#000000" fill-rule="nonzero" fill-opacity="1" /><path clip-path="url(#clip470)" d="M164.028 1280.7 Q160.417 1280.7 158.589 1284.27 Q156.783 1287.81 156.783 1294.94 Q156.783 1302.05 158.589 1305.61 Q160.417 1309.15 164.028 1309.15 Q167.663 1309.15 169.468 1305.61 Q171.297 1302.05 171.297 1294.94 Q171.297 1287.81 169.468 1284.27 Q167.663 1280.7 164.028 1280.7 M164.028 1277 Q169.839 1277 172.894 1281.61 Q175.973 1286.19 175.973 1294.94 Q175.973 1303.67 172.894 1308.27 Q169.839 1312.86 164.028 1312.86 Q158.218 1312.86 155.14 1308.27 Q152.084 1303.67 152.084 1294.94 Q152.084 1286.19 155.14 1281.61 Q158.218 1277 164.028 1277 Z" fill="#000000" fill-rule="nonzero" fill-opacity="1" /><path clip-path="url(#clip470)" d="M184.19 1306.3 L189.075 1306.3 L189.075 1312.18 L184.19 1312.18 L184.19 1306.3 Z" fill="#000000" fill-rule="nonzero" fill-opacity="1" /><path clip-path="url(#clip470)" d="M199.306 1277.62 L217.662 1277.62 L217.662 1281.56 L203.588 1281.56 L203.588 1290.03 Q204.607 1289.68 205.625 1289.52 Q206.644 1289.34 207.662 1289.34 Q213.449 1289.34 216.829 1292.51 Q220.209 1295.68 220.209 1301.1 Q220.209 1306.67 216.736 1309.78 Q213.264 1312.86 206.945 1312.86 Q204.769 1312.86 202.5 1312.49 Q200.255 1312.11 197.848 1311.37 L197.848 1306.67 Q199.931 1307.81 202.153 1308.36 Q204.375 1308.92 206.852 1308.92 Q210.857 1308.92 213.195 1306.81 Q215.533 1304.71 215.533 1301.1 Q215.533 1297.49 213.195 1295.38 Q210.857 1293.27 206.852 1293.27 Q204.977 1293.27 203.102 1293.69 Q201.25 1294.11 199.306 1294.99 L199.306 1277.62 Z" fill="#000000" fill-rule="nonzero" fill-opacity="1" /><path clip-path="url(#clip470)" d="M163.033 913.714 Q159.422 913.714 157.593 917.279 Q155.788 920.82 155.788 927.95 Q155.788 935.056 157.593 938.621 Q159.422 942.163 163.033 942.163 Q166.667 942.163 168.473 938.621 Q170.302 935.056 170.302 927.95 Q170.302 920.82 168.473 917.279 Q166.667 913.714 163.033 913.714 M163.033 910.01 Q168.843 910.01 171.899 914.617 Q174.977 919.2 174.977 927.95 Q174.977 936.677 171.899 941.283 Q168.843 945.866 163.033 945.866 Q157.223 945.866 154.144 941.283 Q151.089 936.677 151.089 927.95 Q151.089 919.2 154.144 914.617 Q157.223 910.01 163.033 910.01 Z" fill="#000000" fill-rule="nonzero" fill-opacity="1" /><path clip-path="url(#clip470)" d="M183.195 939.316 L188.079 939.316 L188.079 945.195 L183.195 945.195 L183.195 939.316 Z" fill="#000000" fill-rule="nonzero" fill-opacity="1" /><path clip-path="url(#clip470)" d="M208.264 913.714 Q204.653 913.714 202.824 917.279 Q201.019 920.82 201.019 927.95 Q201.019 935.056 202.824 938.621 Q204.653 942.163 208.264 942.163 Q211.899 942.163 213.704 938.621 Q215.533 935.056 215.533 927.95 Q215.533 920.82 213.704 917.279 Q211.899 913.714 208.264 913.714 M208.264 910.01 Q214.074 910.01 217.13 914.617 Q220.209 919.2 220.209 927.95 Q220.209 936.677 217.13 941.283 Q214.074 945.866 208.264 945.866 Q202.454 945.866 199.375 941.283 Q196.32 936.677 196.32 927.95 Q196.32 919.2 199.375 914.617 Q202.454 910.01 208.264 910.01 Z" fill="#000000" fill-rule="nonzero" fill-opacity="1" /><path clip-path="url(#clip470)" d="M164.028 546.725 Q160.417 546.725 158.589 550.289 Q156.783 553.831 156.783 560.961 Q156.783 568.067 158.589 571.632 Q160.417 575.174 164.028 575.174 Q167.663 575.174 169.468 571.632 Q171.297 568.067 171.297 560.961 Q171.297 553.831 169.468 550.289 Q167.663 546.725 164.028 546.725 M164.028 543.021 Q169.839 543.021 172.894 547.627 Q175.973 552.211 175.973 560.961 Q175.973 569.688 172.894 574.294 Q169.839 578.877 164.028 578.877 Q158.218 578.877 155.14 574.294 Q152.084 569.688 152.084 560.961 Q152.084 552.211 155.14 547.627 Q158.218 543.021 164.028 543.021 Z" fill="#000000" fill-rule="nonzero" fill-opacity="1" /><path clip-path="url(#clip470)" d="M184.19 572.326 L189.075 572.326 L189.075 578.206 L184.19 578.206 L184.19 572.326 Z" fill="#000000" fill-rule="nonzero" fill-opacity="1" /><path clip-path="url(#clip470)" d="M199.306 543.646 L217.662 543.646 L217.662 547.581 L203.588 547.581 L203.588 556.053 Q204.607 555.706 205.625 555.544 Q206.644 555.359 207.662 555.359 Q213.449 555.359 216.829 558.53 Q220.209 561.701 220.209 567.118 Q220.209 572.697 216.736 575.799 Q213.264 578.877 206.945 578.877 Q204.769 578.877 202.5 578.507 Q200.255 578.137 197.848 577.396 L197.848 572.697 Q199.931 573.831 202.153 574.387 Q204.375 574.942 206.852 574.942 Q210.857 574.942 213.195 572.836 Q215.533 570.729 215.533 567.118 Q215.533 563.507 213.195 561.401 Q210.857 559.294 206.852 559.294 Q204.977 559.294 203.102 559.711 Q201.25 560.127 199.306 561.007 L199.306 543.646 Z" fill="#000000" fill-rule="nonzero" fill-opacity="1" /><path clip-path="url(#clip470)" d="M153.843 207.282 L161.482 207.282 L161.482 180.916 L153.172 182.583 L153.172 178.324 L161.436 176.657 L166.112 176.657 L166.112 207.282 L173.751 207.282 L173.751 211.217 L153.843 211.217 L153.843 207.282 Z" fill="#000000" fill-rule="nonzero" fill-opacity="1" /><path clip-path="url(#clip470)" d="M183.195 205.337 L188.079 205.337 L188.079 211.217 L183.195 211.217 L183.195 205.337 Z" fill="#000000" fill-rule="nonzero" fill-opacity="1" /><path clip-path="url(#clip470)" d="M208.264 179.736 Q204.653 179.736 202.824 183.3 Q201.019 186.842 201.019 193.972 Q201.019 201.078 202.824 204.643 Q204.653 208.184 208.264 208.184 Q211.899 208.184 213.704 204.643 Q215.533 201.078 215.533 193.972 Q215.533 186.842 213.704 183.3 Q211.899 179.736 208.264 179.736 M208.264 176.032 Q214.074 176.032 217.13 180.638 Q220.209 185.222 220.209 193.972 Q220.209 202.698 217.13 207.305 Q214.074 211.888 208.264 211.888 Q202.454 211.888 199.375 207.305 Q196.32 202.698 196.32 193.972 Q196.32 185.222 199.375 180.638 Q202.454 176.032 208.264 176.032 Z" fill="#000000" fill-rule="nonzero" fill-opacity="1" /><path clip-path="url(#clip470)" d="M18.0438 764.065 L24.314 764.065 Q22.5634 767.725 21.704 770.971 Q20.8447 774.218 20.8447 777.242 Q20.8447 782.493 22.8817 785.358 Q24.9187 788.191 28.6745 788.191 Q31.8255 788.191 33.4488 786.313 Q35.0402 784.403 36.0269 779.119 L36.8226 775.236 Q38.1912 768.043 41.6605 764.637 Q45.098 761.2 50.8908 761.2 Q57.7976 761.2 61.3624 765.847 Q64.9272 770.462 64.9272 779.406 Q64.9272 782.78 64.1633 786.599 Q63.3994 790.387 61.9035 794.461 L55.2831 794.461 Q57.4793 790.546 58.5933 786.79 Q59.7073 783.034 59.7073 779.406 Q59.7073 773.9 57.543 770.908 Q55.3786 767.916 51.3682 767.916 Q47.8671 767.916 45.8937 770.08 Q43.9204 772.213 42.9337 777.114 L42.1698 781.029 Q40.7375 788.222 37.682 791.437 Q34.6264 794.652 29.1837 794.652 Q22.8817 794.652 19.2532 790.228 Q15.6248 785.772 15.6248 777.974 Q15.6248 774.632 16.2295 771.162 Q16.8343 767.693 18.0438 764.065 Z" fill="#000000" fill-rule="nonzero" fill-opacity="1" /><path clip-path="url(#clip470)" d="M41.3104 744.745 L58.7206 744.745 L58.7206 734.432 Q58.7206 729.244 56.5881 726.761 Q54.4238 724.247 49.9996 724.247 Q45.5436 724.247 43.4429 726.761 Q41.3104 729.244 41.3104 734.432 L41.3104 744.745 M21.7677 744.745 L36.0905 744.745 L36.0905 735.228 Q36.0905 730.517 34.34 728.226 Q32.5576 725.902 28.9291 725.902 Q25.3325 725.902 23.5501 728.226 Q21.7677 730.517 21.7677 735.228 L21.7677 744.745 M16.4842 751.174 L16.4842 734.75 Q16.4842 727.398 19.5397 723.419 Q22.5952 719.441 28.2289 719.441 Q32.5894 719.441 35.1675 721.478 Q37.7456 723.515 38.3822 727.462 Q39.4007 722.719 42.6472 720.109 Q45.8619 717.468 50.6998 717.468 Q57.0655 717.468 60.5348 721.796 Q64.0042 726.125 64.0042 734.114 L64.0042 751.174 L16.4842 751.174 Z" fill="#000000" fill-rule="nonzero" fill-opacity="1" /><path clip-path="url(#clip470)" d="M21.7677 700.026 L39.6235 700.026 L39.6235 691.941 Q39.6235 687.453 37.3 685.002 Q34.9765 682.552 30.6797 682.552 Q26.4147 682.552 24.0912 685.002 Q21.7677 687.453 21.7677 691.941 L21.7677 700.026 M16.4842 706.455 L16.4842 691.941 Q16.4842 683.952 20.1126 679.878 Q23.7092 675.772 30.6797 675.772 Q37.7138 675.772 41.3104 679.878 Q44.907 683.952 44.907 691.941 L44.907 700.026 L64.0042 700.026 L64.0042 706.455 L16.4842 706.455 Z" fill="#000000" fill-rule="nonzero" fill-opacity="1" /><polyline clip-path="url(#clip472)" style="stroke:#009af9; stroke-linecap:round; stroke-linejoin:round; stroke-width:4; stroke-opacity:1; fill:none" points="315.545,1384.24 335.523,1378.85 355.502,1373.47 375.481,1368.08 395.459,1362.69 415.438,1357.31 435.416,1351.92 455.395,1346.53 475.373,1341.15 495.352,1335.76 515.33,1330.38 535.309,1324.99 555.287,1319.6 575.266,1314.22 595.244,1308.83 615.223,1303.45 635.201,1298.06 655.18,1292.67 675.158,1287.29 695.137,1281.9 715.116,1276.51 735.094,1271.13 755.073,1265.74 775.051,1260.36 795.03,1254.97 815.008,1249.58 834.987,1240.6 854.965,1227.26 874.944,1213.91 894.922,1200.56 914.901,1187.22 934.879,1173.87 954.858,1160.52 974.836,1147.18 994.815,1133.83 1014.79,1120.49 1034.77,1107.14 1054.75,1093.79 1074.73,1080.45 1094.71,1067.1 1114.69,1053.75 1134.66,1040.41 1154.64,1027.06 1174.62,1013.72 1194.6,1000.37 1214.58,987.023 1234.56,973.677 1254.54,960.331 1274.51,946.985 1294.49,933.638 1314.47,920.292 1334.45,906.946 1354.43,893.599 1374.41,880.253 1394.39,866.907 1414.36,853.561 1434.34,840.214 1454.32,826.868 1474.3,813.522 1494.28,800.176 1514.26,786.829 1534.24,773.483 1554.21,760.137 1574.19,746.79 1594.17,733.444 1614.15,720.098 1634.13,706.752 1654.11,693.405 1674.09,680.059 1694.06,666.713 1714.04,653.367 1734.02,640.02 1754,626.674 1773.98,613.328 1793.96,599.981 1813.93,586.635 1833.91,573.289 1853.89,559.943 1873.87,546.596 1893.85,533.25 1913.83,519.904 1933.81,506.558 1953.78,493.211 1973.76,479.865 1993.74,466.519 2013.72,453.172 2033.7,439.826 2053.68,426.48 2073.66,413.134 2093.63,399.787 2113.61,386.441 2133.59,373.095 2153.57,349.791 2173.55,326.324 2193.53,302.856 2213.51,279.389 2233.48,255.922 2253.46,232.455 2273.44,208.987 2293.42,185.52 "/>
<polyline clip-path="url(#clip472)" style="stroke:#e26f46; stroke-linecap:round; stroke-linejoin:round; stroke-width:4; stroke-opacity:1; fill:none" points="315.545,1342.68 335.523,1337.29 355.502,1331.91 375.481,1326.52 395.459,1321.13 415.438,1315.75 435.416,1310.36 455.395,1304.97 475.373,1299.59 495.352,1294.2 515.33,1288.82 535.309,1283.43 555.287,1278.04 575.266,1272.66 595.244,1267.27 615.223,1261.89 635.201,1256.5 655.18,1251.11 675.158,1245.73 695.137,1240.34 715.116,1234.95 735.094,1229.57 755.073,1224.18 775.051,1218.8 795.03,1213.41 815.008,1208.02 834.987,1199.04 854.965,1185.7 874.944,1172.35 894.922,1159 914.901,1145.66 934.879,1132.31 954.858,1118.96 974.836,1105.62 994.815,1092.27 1014.79,1078.93 1034.77,1065.58 1054.75,1052.23 1074.73,1038.89 1094.71,1025.54 1114.69,1012.19 1134.66,998.848 1154.64,985.502 1174.62,972.156 1194.6,958.81 1214.58,945.463 1234.56,932.117 1254.54,918.771 1274.51,905.425 1294.49,892.078 1314.47,878.732 1334.45,865.386 1354.43,852.039 1374.41,838.693 1394.39,825.347 1414.36,812.001 1434.34,798.654 1454.32,785.308 1474.3,771.962 1494.28,758.616 1514.26,745.269 1534.24,731.923 1554.21,718.577 1574.19,705.231 1594.17,691.884 1614.15,678.538 1634.13,665.192 1654.11,651.845 1674.09,638.499 1694.06,625.153 1714.04,611.807 1734.02,598.46 1754,585.114 1773.98,571.768 1793.96,558.422 1813.93,545.075 1833.91,531.729 1853.89,518.383 1873.87,505.036 1893.85,491.69 1913.83,478.344 1933.81,464.998 1953.78,451.651 1973.76,438.305 1993.74,424.959 2013.72,411.613 2033.7,398.266 2053.68,384.92 2073.66,371.574 2093.63,358.227 2113.61,344.881 2133.59,331.535 2153.57,308.231 2173.55,284.764 2193.53,261.296 2213.51,237.829 2233.48,214.362 2253.46,190.895 2273.44,167.427 2293.42,143.96 "/>
<polyline clip-path="url(#clip472)" style="stroke:#3da44d; stroke-linecap:round; stroke-linejoin:round; stroke-width:4; stroke-opacity:1; fill:none" points="315.545,1284.9 335.523,1279.52 355.502,1274.13 375.481,1268.75 395.459,1263.36 415.438,1257.97 435.416,1252.59 455.395,1247.2 475.373,1241.81 495.352,1236.43 515.33,1231.04 535.309,1225.66 555.287,1220.27 575.266,1214.88 595.244,1209.5 615.223,1204.11 635.201,1198.72 655.18,1193.34 675.158,1187.95 695.137,1182.57 715.116,1177.18 735.094,1171.79 755.073,1166.41 775.051,1161.02 795.03,1155.64 815.008,1150.25 834.987,1141.27 854.965,1127.92 874.944,1114.58 894.922,1101.23 914.901,1087.88 934.879,1074.54 954.858,1061.19 974.836,1047.84 994.815,1034.5 1014.79,1021.15 1034.77,1007.81 1054.75,994.459 1074.73,981.113 1094.71,967.767 1114.69,954.42 1134.66,941.074 1154.64,927.728 1174.62,914.382 1194.6,901.035 1214.58,887.689 1234.56,874.343 1254.54,860.996 1274.51,847.65 1294.49,834.304 1314.47,820.958 1334.45,807.611 1354.43,794.265 1374.41,780.919 1394.39,767.573 1414.36,754.226 1434.34,740.88 1454.32,727.534 1474.3,714.188 1494.28,700.841 1514.26,687.495 1534.24,674.149 1554.21,660.802 1574.19,647.456 1594.17,634.11 1614.15,620.764 1634.13,607.417 1654.11,594.071 1674.09,580.725 1694.06,567.379 1714.04,554.032 1734.02,540.686 1754,527.34 1773.98,513.993 1793.96,500.647 1813.93,487.301 1833.91,473.955 1853.89,460.608 1873.87,447.262 1893.85,433.916 1913.83,420.57 1933.81,407.223 1953.78,393.877 1973.76,380.531 1993.74,367.184 2013.72,353.838 2033.7,340.492 2053.68,327.146 2073.66,313.799 2093.63,300.453 2113.61,287.107 2133.59,273.761 2153.57,250.457 2173.55,226.989 2193.53,203.522 2213.51,180.055 2233.48,156.587 2253.46,133.12 2273.44,109.653 2293.42,86.1857 "/>
<path clip-path="url(#clip470)" d="M326.094 300.469 L715.4 300.469 L715.4 93.1086 L326.094 93.1086  Z" fill="#ffffff" fill-rule="evenodd" fill-opacity="1"/>
<polyline clip-path="url(#clip470)" style="stroke:#000000; stroke-linecap:round; stroke-linejoin:round; stroke-width:4; stroke-opacity:1; fill:none" points="326.094,300.469 715.4,300.469 715.4,93.1086 326.094,93.1086 326.094,300.469 "/>
<polyline clip-path="url(#clip470)" style="stroke:#009af9; stroke-linecap:round; stroke-linejoin:round; stroke-width:4; stroke-opacity:1; fill:none" points="349.389,144.949 489.158,144.949 "/>
<path clip-path="url(#clip470)" d="M517.129 145.724 L517.129 158.386 L524.629 158.386 Q528.402 158.386 530.208 156.835 Q532.037 155.261 532.037 152.043 Q532.037 148.803 530.208 147.275 Q528.402 145.724 524.629 145.724 L517.129 145.724 M517.129 131.511 L517.129 141.928 L524.05 141.928 Q527.476 141.928 529.143 140.655 Q530.833 139.358 530.833 136.719 Q530.833 134.104 529.143 132.807 Q527.476 131.511 524.05 131.511 L517.129 131.511 M512.453 127.669 L524.398 127.669 Q529.745 127.669 532.638 129.891 Q535.532 132.113 535.532 136.21 Q535.532 139.382 534.05 141.257 Q532.569 143.131 529.699 143.594 Q533.148 144.335 535.046 146.696 Q536.967 149.034 536.967 152.553 Q536.967 157.182 533.819 159.705 Q530.671 162.229 524.861 162.229 L512.453 162.229 L512.453 127.669 Z" fill="#000000" fill-rule="nonzero" fill-opacity="1" /><path clip-path="url(#clip470)" d="M544.976 127.669 L551.944 127.669 L560.763 151.187 L569.629 127.669 L576.597 127.669 L576.597 162.229 L572.036 162.229 L572.036 131.882 L563.124 155.585 L558.425 155.585 L549.513 131.882 L549.513 162.229 L544.976 162.229 L544.976 127.669 Z" fill="#000000" fill-rule="nonzero" fill-opacity="1" /><path clip-path="url(#clip470)" d="M585.879 127.669 L590.555 127.669 L590.555 162.229 L585.879 162.229 L585.879 127.669 Z" fill="#000000" fill-rule="nonzero" fill-opacity="1" /><path clip-path="url(#clip470)" d="M600.231 140.701 L629.906 140.701 L629.906 144.59 L600.231 144.59 L600.231 140.701 M600.231 150.145 L629.906 150.145 L629.906 154.081 L600.231 154.081 L600.231 150.145 Z" fill="#000000" fill-rule="nonzero" fill-opacity="1" /><path clip-path="url(#clip470)" d="M644.027 158.293 L660.346 158.293 L660.346 162.229 L638.402 162.229 L638.402 158.293 Q641.064 155.539 645.647 150.909 Q650.254 146.256 651.434 144.914 Q653.679 142.391 654.559 140.655 Q655.462 138.895 655.462 137.206 Q655.462 134.451 653.517 132.715 Q651.596 130.979 648.494 130.979 Q646.295 130.979 643.842 131.743 Q641.411 132.507 638.633 134.057 L638.633 129.335 Q641.457 128.201 643.911 127.622 Q646.365 127.044 648.402 127.044 Q653.772 127.044 656.966 129.729 Q660.161 132.414 660.161 136.905 Q660.161 139.034 659.351 140.956 Q658.564 142.854 656.457 145.446 Q655.878 146.118 652.777 149.335 Q649.675 152.53 644.027 158.293 Z" fill="#000000" fill-rule="nonzero" fill-opacity="1" /><path clip-path="url(#clip470)" d="M670.207 127.669 L688.563 127.669 L688.563 131.604 L674.489 131.604 L674.489 140.076 Q675.508 139.729 676.527 139.567 Q677.545 139.382 678.564 139.382 Q684.351 139.382 687.73 142.553 Q691.11 145.724 691.11 151.141 Q691.11 156.719 687.638 159.821 Q684.165 162.9 677.846 162.9 Q675.67 162.9 673.402 162.53 Q671.156 162.159 668.749 161.418 L668.749 156.719 Q670.832 157.854 673.054 158.409 Q675.277 158.965 677.753 158.965 Q681.758 158.965 684.096 156.858 Q686.434 154.752 686.434 151.141 Q686.434 147.53 684.096 145.423 Q681.758 143.317 677.753 143.317 Q675.878 143.317 674.003 143.733 Q672.152 144.15 670.207 145.03 L670.207 127.669 Z" fill="#000000" fill-rule="nonzero" fill-opacity="1" /><polyline clip-path="url(#clip470)" style="stroke:#e26f46; stroke-linecap:round; stroke-linejoin:round; stroke-width:4; stroke-opacity:1; fill:none" points="349.389,196.789 489.158,196.789 "/>
<path clip-path="url(#clip470)" d="M517.129 197.564 L517.129 210.226 L524.629 210.226 Q528.402 210.226 530.208 208.675 Q532.037 207.101 532.037 203.883 Q532.037 200.643 530.208 199.115 Q528.402 197.564 524.629 197.564 L517.129 197.564 M517.129 183.351 L517.129 193.768 L524.05 193.768 Q527.476 193.768 529.143 192.495 Q530.833 191.198 530.833 188.559 Q530.833 185.944 529.143 184.647 Q527.476 183.351 524.05 183.351 L517.129 183.351 M512.453 179.509 L524.398 179.509 Q529.745 179.509 532.638 181.731 Q535.532 183.953 535.532 188.05 Q535.532 191.222 534.05 193.097 Q532.569 194.971 529.699 195.434 Q533.148 196.175 535.046 198.536 Q536.967 200.874 536.967 204.393 Q536.967 209.022 533.819 211.545 Q530.671 214.069 524.861 214.069 L512.453 214.069 L512.453 179.509 Z" fill="#000000" fill-rule="nonzero" fill-opacity="1" /><path clip-path="url(#clip470)" d="M544.976 179.509 L551.944 179.509 L560.763 203.027 L569.629 179.509 L576.597 179.509 L576.597 214.069 L572.036 214.069 L572.036 183.722 L563.124 207.425 L558.425 207.425 L549.513 183.722 L549.513 214.069 L544.976 214.069 L544.976 179.509 Z" fill="#000000" fill-rule="nonzero" fill-opacity="1" /><path clip-path="url(#clip470)" d="M585.879 179.509 L590.555 179.509 L590.555 214.069 L585.879 214.069 L585.879 179.509 Z" fill="#000000" fill-rule="nonzero" fill-opacity="1" /><path clip-path="url(#clip470)" d="M600.231 192.541 L629.906 192.541 L629.906 196.43 L600.231 196.43 L600.231 192.541 M600.231 201.985 L629.906 201.985 L629.906 205.921 L600.231 205.921 L600.231 201.985 Z" fill="#000000" fill-rule="nonzero" fill-opacity="1" /><path clip-path="url(#clip470)" d="M654.166 195.434 Q657.522 196.152 659.397 198.421 Q661.295 200.689 661.295 204.022 Q661.295 209.138 657.777 211.939 Q654.258 214.74 647.777 214.74 Q645.601 214.74 643.286 214.3 Q640.994 213.883 638.541 213.027 L638.541 208.513 Q640.485 209.647 642.8 210.226 Q645.115 210.805 647.638 210.805 Q652.036 210.805 654.328 209.069 Q656.642 207.333 656.642 204.022 Q656.642 200.967 654.49 199.254 Q652.36 197.518 648.541 197.518 L644.513 197.518 L644.513 193.675 L648.726 193.675 Q652.175 193.675 654.003 192.309 Q655.832 190.921 655.832 188.328 Q655.832 185.666 653.934 184.254 Q652.059 182.819 648.541 182.819 Q646.619 182.819 644.42 183.235 Q642.221 183.652 639.582 184.532 L639.582 180.365 Q642.244 179.624 644.559 179.254 Q646.897 178.884 648.957 178.884 Q654.281 178.884 657.383 181.314 Q660.485 183.722 660.485 187.842 Q660.485 190.712 658.841 192.703 Q657.198 194.671 654.166 195.434 Z" fill="#000000" fill-rule="nonzero" fill-opacity="1" /><path clip-path="url(#clip470)" d="M680.161 182.587 Q676.55 182.587 674.721 186.152 Q672.915 189.694 672.915 196.823 Q672.915 203.93 674.721 207.495 Q676.55 211.036 680.161 211.036 Q683.795 211.036 685.601 207.495 Q687.429 203.93 687.429 196.823 Q687.429 189.694 685.601 186.152 Q683.795 182.587 680.161 182.587 M680.161 178.884 Q685.971 178.884 689.026 183.49 Q692.105 188.073 692.105 196.823 Q692.105 205.55 689.026 210.157 Q685.971 214.74 680.161 214.74 Q674.351 214.74 671.272 210.157 Q668.216 205.55 668.216 196.823 Q668.216 188.073 671.272 183.49 Q674.351 178.884 680.161 178.884 Z" fill="#000000" fill-rule="nonzero" fill-opacity="1" /><polyline clip-path="url(#clip470)" style="stroke:#3da44d; stroke-linecap:round; stroke-linejoin:round; stroke-width:4; stroke-opacity:1; fill:none" points="349.389,248.629 489.158,248.629 "/>
<path clip-path="url(#clip470)" d="M517.129 249.404 L517.129 262.066 L524.629 262.066 Q528.402 262.066 530.208 260.515 Q532.037 258.941 532.037 255.723 Q532.037 252.483 530.208 250.955 Q528.402 249.404 524.629 249.404 L517.129 249.404 M517.129 235.191 L517.129 245.608 L524.05 245.608 Q527.476 245.608 529.143 244.335 Q530.833 243.038 530.833 240.399 Q530.833 237.784 529.143 236.487 Q527.476 235.191 524.05 235.191 L517.129 235.191 M512.453 231.349 L524.398 231.349 Q529.745 231.349 532.638 233.571 Q535.532 235.793 535.532 239.89 Q535.532 243.062 534.05 244.937 Q532.569 246.811 529.699 247.274 Q533.148 248.015 535.046 250.376 Q536.967 252.714 536.967 256.233 Q536.967 260.862 533.819 263.385 Q530.671 265.909 524.861 265.909 L512.453 265.909 L512.453 231.349 Z" fill="#000000" fill-rule="nonzero" fill-opacity="1" /><path clip-path="url(#clip470)" d="M544.976 231.349 L551.944 231.349 L560.763 254.867 L569.629 231.349 L576.597 231.349 L576.597 265.909 L572.036 265.909 L572.036 235.562 L563.124 259.265 L558.425 259.265 L549.513 235.562 L549.513 265.909 L544.976 265.909 L544.976 231.349 Z" fill="#000000" fill-rule="nonzero" fill-opacity="1" /><path clip-path="url(#clip470)" d="M585.879 231.349 L590.555 231.349 L590.555 265.909 L585.879 265.909 L585.879 231.349 Z" fill="#000000" fill-rule="nonzero" fill-opacity="1" /><path clip-path="url(#clip470)" d="M600.231 244.381 L629.906 244.381 L629.906 248.27 L600.231 248.27 L600.231 244.381 M600.231 253.825 L629.906 253.825 L629.906 257.761 L600.231 257.761 L600.231 253.825 Z" fill="#000000" fill-rule="nonzero" fill-opacity="1" /><path clip-path="url(#clip470)" d="M654.166 247.274 Q657.522 247.992 659.397 250.261 Q661.295 252.529 661.295 255.862 Q661.295 260.978 657.777 263.779 Q654.258 266.58 647.777 266.58 Q645.601 266.58 643.286 266.14 Q640.994 265.723 638.541 264.867 L638.541 260.353 Q640.485 261.487 642.8 262.066 Q645.115 262.645 647.638 262.645 Q652.036 262.645 654.328 260.909 Q656.642 259.173 656.642 255.862 Q656.642 252.807 654.49 251.094 Q652.36 249.358 648.541 249.358 L644.513 249.358 L644.513 245.515 L648.726 245.515 Q652.175 245.515 654.003 244.149 Q655.832 242.761 655.832 240.168 Q655.832 237.506 653.934 236.094 Q652.059 234.659 648.541 234.659 Q646.619 234.659 644.42 235.075 Q642.221 235.492 639.582 236.372 L639.582 232.205 Q642.244 231.464 644.559 231.094 Q646.897 230.724 648.957 230.724 Q654.281 230.724 657.383 233.154 Q660.485 235.562 660.485 239.682 Q660.485 242.552 658.841 244.543 Q657.198 246.511 654.166 247.274 Z" fill="#000000" fill-rule="nonzero" fill-opacity="1" /><path clip-path="url(#clip470)" d="M670.207 231.349 L688.563 231.349 L688.563 235.284 L674.489 235.284 L674.489 243.756 Q675.508 243.409 676.527 243.247 Q677.545 243.062 678.564 243.062 Q684.351 243.062 687.73 246.233 Q691.11 249.404 691.11 254.821 Q691.11 260.399 687.638 263.501 Q684.165 266.58 677.846 266.58 Q675.67 266.58 673.402 266.21 Q671.156 265.839 668.749 265.098 L668.749 260.399 Q670.832 261.534 673.054 262.089 Q675.277 262.645 677.753 262.645 Q681.758 262.645 684.096 260.538 Q686.434 258.432 686.434 254.821 Q686.434 251.21 684.096 249.103 Q681.758 246.997 677.753 246.997 Q675.878 246.997 674.003 247.413 Q672.152 247.83 670.207 248.71 L670.207 231.349 Z" fill="#000000" fill-rule="nonzero" fill-opacity="1" /></svg>
