<?xml version="1.0" encoding="utf-8"?>
<svg xmlns="http://www.w3.org/2000/svg" xmlns:xlink="http://www.w3.org/1999/xlink" width="600" height="400" viewBox="0 0 2400 1600">
<defs>
  <clipPath id="clip500">
    <rect x="0" y="0" width="2400" height="1600"/>
  </clipPath>
</defs>
<path clip-path="url(#clip500)" d="M0 1600 L2400 1600 L2400 0 L0 0  Z" fill="#ffffff" fill-rule="evenodd" fill-opacity="1"/>
<defs>
  <clipPath id="clip501">
    <rect x="480" y="0" width="1681" height="1600"/>
  </clipPath>
</defs>
<path clip-path="url(#clip500)" d="M256.209 1423.18 L2352.76 1423.18 L2352.76 47.2441 L256.209 47.2441  Z" fill="#ffffff" fill-rule="evenodd" fill-opacity="1"/>
<defs>
  <clipPath id="clip502">
    <rect x="256" y="47" width="2098" height="1377"/>
  </clipPath>
</defs>
<polyline clip-path="url(#clip502)" style="stroke:#000000; stroke-linecap:round; stroke-linejoin:round; stroke-width:2; stroke-opacity:0.1; fill:none" points="379.347,1423.18 379.347,47.2441 "/>
<polyline clip-path="url(#clip502)" style="stroke:#000000; stroke-linecap:round; stroke-linejoin:round; stroke-width:2; stroke-opacity:0.1; fill:none" points="698.359,1423.18 698.359,47.2441 "/>
<polyline clip-path="url(#clip502)" style="stroke:#000000; stroke-linecap:round; stroke-linejoin:round; stroke-width:2; stroke-opacity:0.1; fill:none" points="1017.37,1423.18 1017.37,47.2441 "/>
<polyline clip-path="url(#clip502)" style="stroke:#000000; stroke-linecap:round; stroke-linejoin:round; stroke-width:2; stroke-opacity:0.1; fill:none" points="1336.38,1423.18 1336.38,47.2441 "/>
<polyline clip-path="url(#clip502)" style="stroke:#000000; stroke-linecap:round; stroke-linejoin:round; stroke-width:2; stroke-opacity:0.1; fill:none" points="1655.4,1423.18 1655.4,47.2441 "/>
<polyline clip-path="url(#clip502)" style="stroke:#000000; stroke-linecap:round; stroke-linejoin:round; stroke-width:2; stroke-opacity:0.1; fill:none" points="1974.41,1423.18 1974.41,47.2441 "/>
<polyline clip-path="url(#clip502)" style="stroke:#000000; stroke-linecap:round; stroke-linejoin:round; stroke-width:2; stroke-opacity:0.1; fill:none" points="2293.42,1423.18 2293.42,47.2441 "/>
<polyline clip-path="url(#clip500)" style="stroke:#000000; stroke-linecap:round; stroke-linejoin:round; stroke-width:4; stroke-opacity:1; fill:none" points="256.209,1423.18 2352.76,1423.18 "/>
<polyline clip-path="url(#clip500)" style="stroke:#000000; stroke-linecap:round; stroke-linejoin:round; stroke-width:4; stroke-opacity:1; fill:none" points="379.347,1423.18 379.347,1404.28 "/>
<polyline clip-path="url(#clip500)" style="stroke:#000000; stroke-linecap:round; stroke-linejoin:round; stroke-width:4; stroke-opacity:1; fill:none" points="698.359,1423.18 698.359,1404.28 "/>
<polyline clip-path="url(#clip500)" style="stroke:#000000; stroke-linecap:round; stroke-linejoin:round; stroke-width:4; stroke-opacity:1; fill:none" points="1017.37,1423.18 1017.37,1404.28 "/>
<polyline clip-path="url(#clip500)" style="stroke:#000000; stroke-linecap:round; stroke-linejoin:round; stroke-width:4; stroke-opacity:1; fill:none" points="1336.38,1423.18 1336.38,1404.28 "/>
<polyline clip-path="url(#clip500)" style="stroke:#000000; stroke-linecap:round; stroke-linejoin:round; stroke-width:4; stroke-opacity:1; fill:none" points="1655.4,1423.18 1655.4,1404.28 "/>
<polyline clip-path="url(#clip500)" style="stroke:#000000; stroke-linecap:round; stroke-linejoin:round; stroke-width:4; stroke-opacity:1; fill:none" points="1974.41,1423.18 1974.41,1404.28 "/>
<polyline clip-path="url(#clip500)" style="stroke:#000000; stroke-linecap:round; stroke-linejoin:round; stroke-width:4; stroke-opacity:1; fill:none" points="2293.42,1423.18 2293.42,1404.28 "/>
<path clip-path="url(#clip500)" d="M358.121 1481.64 L374.44 1481.64 L374.44 1485.58 L352.496 1485.58 L352.496 1481.64 Q355.158 1478.89 359.741 1474.26 Q364.347 1469.61 365.528 1468.27 Q367.773 1465.74 368.653 1464.01 Q369.556 1462.25 369.556 1460.56 Q369.556 1457.8 367.611 1456.07 Q365.69 1454.33 362.588 1454.33 Q360.389 1454.33 357.935 1455.09 Q355.505 1455.86 352.727 1457.41 L352.727 1452.69 Q355.551 1451.55 358.005 1450.97 Q360.459 1450.39 362.496 1450.39 Q367.866 1450.39 371.06 1453.08 Q374.255 1455.77 374.255 1460.26 Q374.255 1462.39 373.445 1464.31 Q372.658 1466.2 370.551 1468.8 Q369.972 1469.47 366.871 1472.69 Q363.769 1475.88 358.121 1481.64 Z" fill="#000000" fill-rule="nonzero" fill-opacity="1" /><path clip-path="url(#clip500)" d="M394.255 1454.1 Q390.644 1454.1 388.815 1457.66 Q387.009 1461.2 387.009 1468.33 Q387.009 1475.44 388.815 1479.01 Q390.644 1482.55 394.255 1482.55 Q397.889 1482.55 399.694 1479.01 Q401.523 1475.44 401.523 1468.33 Q401.523 1461.2 399.694 1457.66 Q397.889 1454.1 394.255 1454.1 M394.255 1450.39 Q400.065 1450.39 403.12 1455 Q406.199 1459.58 406.199 1468.33 Q406.199 1477.06 403.12 1481.67 Q400.065 1486.25 394.255 1486.25 Q388.444 1486.25 385.366 1481.67 Q382.31 1477.06 382.31 1468.33 Q382.31 1459.58 385.366 1455 Q388.444 1450.39 394.255 1450.39 Z" fill="#000000" fill-rule="nonzero" fill-opacity="1" /><path clip-path="url(#clip500)" d="M687.202 1466.95 Q690.558 1467.66 692.433 1469.93 Q694.332 1472.2 694.332 1475.53 Q694.332 1480.65 690.813 1483.45 Q687.295 1486.25 680.813 1486.25 Q678.637 1486.25 676.322 1485.81 Q674.031 1485.39 671.577 1484.54 L671.577 1480.02 Q673.522 1481.16 675.836 1481.74 Q678.151 1482.32 680.674 1482.32 Q685.072 1482.32 687.364 1480.58 Q689.679 1478.84 689.679 1475.53 Q689.679 1472.48 687.526 1470.77 Q685.396 1469.03 681.577 1469.03 L677.549 1469.03 L677.549 1465.19 L681.762 1465.19 Q685.211 1465.19 687.04 1463.82 Q688.869 1462.43 688.869 1459.84 Q688.869 1457.18 686.971 1455.77 Q685.096 1454.33 681.577 1454.33 Q679.656 1454.33 677.457 1454.75 Q675.258 1455.16 672.619 1456.04 L672.619 1451.88 Q675.281 1451.14 677.596 1450.77 Q679.934 1450.39 681.994 1450.39 Q687.318 1450.39 690.42 1452.83 Q693.521 1455.23 693.521 1459.35 Q693.521 1462.22 691.878 1464.21 Q690.234 1466.18 687.202 1466.95 Z" fill="#000000" fill-rule="nonzero" fill-opacity="1" /><path clip-path="url(#clip500)" d="M713.197 1454.1 Q709.586 1454.1 707.757 1457.66 Q705.952 1461.2 705.952 1468.33 Q705.952 1475.44 707.757 1479.01 Q709.586 1482.55 713.197 1482.55 Q716.831 1482.55 718.637 1479.01 Q720.466 1475.44 720.466 1468.33 Q720.466 1461.2 718.637 1457.66 Q716.831 1454.1 713.197 1454.1 M713.197 1450.39 Q719.007 1450.39 722.063 1455 Q725.142 1459.58 725.142 1468.33 Q725.142 1477.06 722.063 1481.67 Q719.007 1486.25 713.197 1486.25 Q707.387 1486.25 704.308 1481.67 Q701.253 1477.06 701.253 1468.33 Q701.253 1459.58 704.308 1455 Q707.387 1450.39 713.197 1450.39 Z" fill="#000000" fill-rule="nonzero" fill-opacity="1" /><path clip-path="url(#clip500)" d="M1005.54 1455.09 L993.737 1473.54 L1005.54 1473.54 L1005.54 1455.09 M1004.32 1451.02 L1010.2 1451.02 L1010.2 1473.54 L1015.13 1473.54 L1015.13 1477.43 L1010.2 1477.43 L1010.2 1485.58 L1005.54 1485.58 L1005.54 1477.43 L989.941 1477.43 L989.941 1472.92 L1004.32 1451.02 Z" fill="#000000" fill-rule="nonzero" fill-opacity="1" /><path clip-path="url(#clip500)" d="M1032.86 1454.1 Q1029.25 1454.1 1027.42 1457.66 Q1025.61 1461.2 1025.61 1468.33 Q1025.61 1475.44 1027.42 1479.01 Q1029.25 1482.55 1032.86 1482.55 Q1036.49 1482.55 1038.3 1479.01 Q1040.13 1475.44 1040.13 1468.33 Q1040.13 1461.2 1038.3 1457.66 Q1036.49 1454.1 1032.86 1454.1 M1032.86 1450.39 Q1038.67 1450.39 1041.72 1455 Q1044.8 1459.58 1044.8 1468.33 Q1044.8 1477.06 1041.72 1481.67 Q1038.67 1486.25 1032.86 1486.25 Q1027.05 1486.25 1023.97 1481.67 Q1020.91 1477.06 1020.91 1468.33 Q1020.91 1459.58 1023.97 1455 Q1027.05 1450.39 1032.86 1450.39 Z" fill="#000000" fill-rule="nonzero" fill-opacity="1" /><path clip-path="url(#clip500)" d="M1311.08 1451.02 L1329.44 1451.02 L1329.44 1454.96 L1315.37 1454.96 L1315.37 1463.43 Q1316.38 1463.08 1317.4 1462.92 Q1318.42 1462.73 1319.44 1462.73 Q1325.23 1462.73 1328.61 1465.9 Q1331.99 1469.08 1331.99 1474.49 Q1331.99 1480.07 1328.51 1483.17 Q1325.04 1486.25 1318.72 1486.25 Q1316.55 1486.25 1314.28 1485.88 Q1312.03 1485.51 1309.62 1484.77 L1309.62 1480.07 Q1311.71 1481.2 1313.93 1481.76 Q1316.15 1482.32 1318.63 1482.32 Q1322.63 1482.32 1324.97 1480.21 Q1327.31 1478.1 1327.31 1474.49 Q1327.31 1470.88 1324.97 1468.77 Q1322.63 1466.67 1318.63 1466.67 Q1316.75 1466.67 1314.88 1467.08 Q1313.03 1467.5 1311.08 1468.38 L1311.08 1451.02 Z" fill="#000000" fill-rule="nonzero" fill-opacity="1" /><path clip-path="url(#clip500)" d="M1351.2 1454.1 Q1347.59 1454.1 1345.76 1457.66 Q1343.95 1461.2 1343.95 1468.33 Q1343.95 1475.44 1345.76 1479.01 Q1347.59 1482.55 1351.2 1482.55 Q1354.83 1482.55 1356.64 1479.01 Q1358.47 1475.44 1358.47 1468.33 Q1358.47 1461.2 1356.64 1457.66 Q1354.83 1454.1 1351.2 1454.1 M1351.2 1450.39 Q1357.01 1450.39 1360.06 1455 Q1363.14 1459.58 1363.14 1468.33 Q1363.14 1477.06 1360.06 1481.67 Q1357.01 1486.25 1351.2 1486.25 Q1345.39 1486.25 1342.31 1481.67 Q1339.25 1477.06 1339.25 1468.33 Q1339.25 1459.58 1342.31 1455 Q1345.39 1450.39 1351.2 1450.39 Z" fill="#000000" fill-rule="nonzero" fill-opacity="1" /><path clip-path="url(#clip500)" d="M1640.8 1466.44 Q1637.65 1466.44 1635.8 1468.59 Q1633.97 1470.74 1633.97 1474.49 Q1633.97 1478.22 1635.8 1480.39 Q1637.65 1482.55 1640.8 1482.55 Q1643.95 1482.55 1645.78 1480.39 Q1647.63 1478.22 1647.63 1474.49 Q1647.63 1470.74 1645.78 1468.59 Q1643.95 1466.44 1640.8 1466.44 M1650.08 1451.78 L1650.08 1456.04 Q1648.32 1455.21 1646.52 1454.77 Q1644.74 1454.33 1642.98 1454.33 Q1638.35 1454.33 1635.89 1457.45 Q1633.46 1460.58 1633.12 1466.9 Q1634.48 1464.89 1636.54 1463.82 Q1638.6 1462.73 1641.08 1462.73 Q1646.29 1462.73 1649.3 1465.9 Q1652.33 1469.05 1652.33 1474.49 Q1652.33 1479.82 1649.18 1483.03 Q1646.03 1486.25 1640.8 1486.25 Q1634.81 1486.25 1631.63 1481.67 Q1628.46 1477.06 1628.46 1468.33 Q1628.46 1460.14 1632.35 1455.28 Q1636.24 1450.39 1642.79 1450.39 Q1644.55 1450.39 1646.33 1450.74 Q1648.14 1451.09 1650.08 1451.78 Z" fill="#000000" fill-rule="nonzero" fill-opacity="1" /><path clip-path="url(#clip500)" d="M1670.38 1454.1 Q1666.77 1454.1 1664.94 1457.66 Q1663.14 1461.2 1663.14 1468.33 Q1663.14 1475.44 1664.94 1479.01 Q1666.77 1482.55 1670.38 1482.55 Q1674.02 1482.55 1675.82 1479.01 Q1677.65 1475.44 1677.65 1468.33 Q1677.65 1461.2 1675.82 1457.66 Q1674.02 1454.1 1670.38 1454.1 M1670.38 1450.39 Q1676.19 1450.39 1679.25 1455 Q1682.33 1459.58 1682.33 1468.33 Q1682.33 1477.06 1679.25 1481.67 Q1676.19 1486.25 1670.38 1486.25 Q1664.57 1486.25 1661.5 1481.67 Q1658.44 1477.06 1658.44 1468.33 Q1658.44 1459.58 1661.5 1455 Q1664.57 1450.39 1670.38 1450.39 Z" fill="#000000" fill-rule="nonzero" fill-opacity="1" /><path clip-path="url(#clip500)" d="M1947.76 1451.02 L1969.99 1451.02 L1969.99 1453.01 L1957.44 1485.58 L1952.56 1485.58 L1964.36 1454.96 L1947.76 1454.96 L1947.76 1451.02 Z" fill="#000000" fill-rule="nonzero" fill-opacity="1" /><path clip-path="url(#clip500)" d="M1989.11 1454.1 Q1985.5 1454.1 1983.67 1457.66 Q1981.86 1461.2 1981.86 1468.33 Q1981.86 1475.44 1983.67 1479.01 Q1985.5 1482.55 1989.11 1482.55 Q1992.74 1482.55 1994.55 1479.01 Q1996.38 1475.44 1996.38 1468.33 Q1996.38 1461.2 1994.55 1457.66 Q1992.74 1454.1 1989.11 1454.1 M1989.11 1450.39 Q1994.92 1450.39 1997.97 1455 Q2001.05 1459.58 2001.05 1468.33 Q2001.05 1477.06 1997.97 1481.67 Q1994.92 1486.25 1989.11 1486.25 Q1983.3 1486.25 1980.22 1481.67 Q1977.16 1477.06 1977.16 1468.33 Q1977.16 1459.58 1980.22 1455 Q1983.3 1450.39 1989.11 1450.39 Z" fill="#000000" fill-rule="nonzero" fill-opacity="1" /><path clip-path="url(#clip500)" d="M2278.29 1469.17 Q2274.96 1469.17 2273.04 1470.95 Q2271.14 1472.73 2271.14 1475.86 Q2271.14 1478.98 2273.04 1480.77 Q2274.96 1482.55 2278.29 1482.55 Q2281.63 1482.55 2283.55 1480.77 Q2285.47 1478.96 2285.47 1475.86 Q2285.47 1472.73 2283.55 1470.95 Q2281.65 1469.17 2278.29 1469.17 M2273.62 1467.18 Q2270.61 1466.44 2268.92 1464.38 Q2267.25 1462.32 2267.25 1459.35 Q2267.25 1455.21 2270.19 1452.8 Q2273.15 1450.39 2278.29 1450.39 Q2283.45 1450.39 2286.39 1452.8 Q2289.33 1455.21 2289.33 1459.35 Q2289.33 1462.32 2287.64 1464.38 Q2285.98 1466.44 2282.99 1467.18 Q2286.37 1467.96 2288.25 1470.26 Q2290.14 1472.55 2290.14 1475.86 Q2290.14 1480.88 2287.07 1483.57 Q2284.01 1486.25 2278.29 1486.25 Q2272.57 1486.25 2269.5 1483.57 Q2266.44 1480.88 2266.44 1475.86 Q2266.44 1472.55 2268.34 1470.26 Q2270.24 1467.96 2273.62 1467.18 M2271.9 1459.79 Q2271.9 1462.48 2273.57 1463.98 Q2275.26 1465.49 2278.29 1465.49 Q2281.3 1465.49 2282.99 1463.98 Q2284.7 1462.48 2284.7 1459.79 Q2284.7 1457.11 2282.99 1455.6 Q2281.3 1454.1 2278.29 1454.1 Q2275.26 1454.1 2273.57 1455.6 Q2271.9 1457.11 2271.9 1459.79 Z" fill="#000000" fill-rule="nonzero" fill-opacity="1" /><path clip-path="url(#clip500)" d="M2308.45 1454.1 Q2304.84 1454.1 2303.01 1457.66 Q2301.21 1461.2 2301.21 1468.33 Q2301.21 1475.44 2303.01 1479.01 Q2304.84 1482.55 2308.45 1482.55 Q2312.09 1482.55 2313.89 1479.01 Q2315.72 1475.44 2315.72 1468.33 Q2315.72 1461.2 2313.89 1457.66 Q2312.09 1454.1 2308.45 1454.1 M2308.45 1450.39 Q2314.26 1450.39 2317.32 1455 Q2320.4 1459.58 2320.4 1468.33 Q2320.4 1477.06 2317.32 1481.67 Q2314.26 1486.25 2308.45 1486.25 Q2302.64 1486.25 2299.57 1481.67 Q2296.51 1477.06 2296.51 1468.33 Q2296.51 1459.58 2299.57 1455 Q2302.64 1450.39 2308.45 1450.39 Z" fill="#000000" fill-rule="nonzero" fill-opacity="1" /><path clip-path="url(#clip500)" d="M1265.21 1526.86 L1256.48 1550.51 L1273.96 1550.51 L1265.21 1526.86 M1261.58 1520.52 L1268.87 1520.52 L1286.98 1568.04 L1280.29 1568.04 L1275.96 1555.85 L1254.54 1555.85 L1250.21 1568.04 L1243.44 1568.04 L1261.58 1520.52 Z" fill="#000000" fill-rule="nonzero" fill-opacity="1" /><path clip-path="url(#clip500)" d="M1317.12 1549.81 Q1317.12 1543.44 1314.48 1539.94 Q1311.87 1536.44 1307.12 1536.44 Q1302.41 1536.44 1299.77 1539.94 Q1297.16 1543.44 1297.16 1549.81 Q1297.16 1556.14 1299.77 1559.64 Q1302.41 1563.14 1307.12 1563.14 Q1311.87 1563.14 1314.48 1559.64 Q1317.12 1556.14 1317.12 1549.81 M1322.97 1563.62 Q1322.97 1572.72 1318.93 1577.15 Q1314.89 1581.6 1306.55 1581.6 Q1303.46 1581.6 1300.73 1581.13 Q1297.99 1580.68 1295.41 1579.72 L1295.41 1574.03 Q1297.99 1575.43 1300.5 1576.1 Q1303.02 1576.76 1305.63 1576.76 Q1311.39 1576.76 1314.25 1573.74 Q1317.12 1570.75 1317.12 1564.67 L1317.12 1561.77 Q1315.3 1564.92 1312.47 1566.48 Q1309.64 1568.04 1305.69 1568.04 Q1299.14 1568.04 1295.12 1563.05 Q1291.11 1558.05 1291.11 1549.81 Q1291.11 1541.53 1295.12 1536.53 Q1299.14 1531.54 1305.69 1531.54 Q1309.64 1531.54 1312.47 1533.1 Q1315.3 1534.66 1317.12 1537.81 L1317.12 1532.4 L1322.97 1532.4 L1322.97 1563.62 Z" fill="#000000" fill-rule="nonzero" fill-opacity="1" /><path clip-path="url(#clip500)" d="M1365.53 1548.76 L1365.53 1551.62 L1338.6 1551.62 Q1338.98 1557.67 1342.23 1560.85 Q1345.51 1564 1351.33 1564 Q1354.71 1564 1357.86 1563.17 Q1361.04 1562.35 1364.16 1560.69 L1364.16 1566.23 Q1361.01 1567.57 1357.7 1568.27 Q1354.39 1568.97 1350.98 1568.97 Q1342.45 1568.97 1337.46 1564 Q1332.49 1559.04 1332.49 1550.57 Q1332.49 1541.82 1337.2 1536.69 Q1341.94 1531.54 1349.97 1531.54 Q1357.16 1531.54 1361.33 1536.18 Q1365.53 1540.8 1365.53 1548.76 M1359.67 1547.04 Q1359.61 1542.23 1356.97 1539.37 Q1354.36 1536.5 1350.03 1536.5 Q1345.13 1536.5 1342.17 1539.27 Q1339.24 1542.04 1338.79 1547.07 L1359.67 1547.04 Z" fill="#000000" fill-rule="nonzero" fill-opacity="1" /><polyline clip-path="url(#clip502)" style="stroke:#000000; stroke-linecap:round; stroke-linejoin:round; stroke-width:2; stroke-opacity:0.1; fill:none" points="256.209,1142.99 2352.76,1142.99 "/>
<polyline clip-path="url(#clip502)" style="stroke:#000000; stroke-linecap:round; stroke-linejoin:round; stroke-width:2; stroke-opacity:0.1; fill:none" points="256.209,843.866 2352.76,843.866 "/>
<polyline clip-path="url(#clip502)" style="stroke:#000000; stroke-linecap:round; stroke-linejoin:round; stroke-width:2; stroke-opacity:0.1; fill:none" points="256.209,544.737 2352.76,544.737 "/>
<polyline clip-path="url(#clip502)" style="stroke:#000000; stroke-linecap:round; stroke-linejoin:round; stroke-width:2; stroke-opacity:0.1; fill:none" points="256.209,245.609 2352.76,245.609 "/>
<polyline clip-path="url(#clip500)" style="stroke:#000000; stroke-linecap:round; stroke-linejoin:round; stroke-width:4; stroke-opacity:1; fill:none" points="256.209,1423.18 256.209,47.2441 "/>
<polyline clip-path="url(#clip500)" style="stroke:#000000; stroke-linecap:round; stroke-linejoin:round; stroke-width:4; stroke-opacity:1; fill:none" points="256.209,1142.99 275.106,1142.99 "/>
<polyline clip-path="url(#clip500)" style="stroke:#000000; stroke-linecap:round; stroke-linejoin:round; stroke-width:4; stroke-opacity:1; fill:none" points="256.209,843.866 275.106,843.866 "/>
<polyline clip-path="url(#clip500)" style="stroke:#000000; stroke-linecap:round; stroke-linejoin:round; stroke-width:4; stroke-opacity:1; fill:none" points="256.209,544.737 275.106,544.737 "/>
<polyline clip-path="url(#clip500)" style="stroke:#000000; stroke-linecap:round; stroke-linejoin:round; stroke-width:4; stroke-opacity:1; fill:none" points="256.209,245.609 275.106,245.609 "/>
<path clip-path="url(#clip500)" d="M114.26 1143.45 L143.936 1143.45 L143.936 1147.38 L114.26 1147.38 L114.26 1143.45 Z" fill="#000000" fill-rule="nonzero" fill-opacity="1" /><path clip-path="url(#clip500)" d="M164.028 1128.79 Q160.417 1128.79 158.589 1132.36 Q156.783 1135.9 156.783 1143.03 Q156.783 1150.14 158.589 1153.7 Q160.417 1157.24 164.028 1157.24 Q167.663 1157.24 169.468 1153.7 Q171.297 1150.14 171.297 1143.03 Q171.297 1135.9 169.468 1132.36 Q167.663 1128.79 164.028 1128.79 M164.028 1125.09 Q169.839 1125.09 172.894 1129.7 Q175.973 1134.28 175.973 1143.03 Q175.973 1151.76 172.894 1156.36 Q169.839 1160.95 164.028 1160.95 Q158.218 1160.95 155.14 1156.36 Q152.084 1151.76 152.084 1143.03 Q152.084 1134.28 155.14 1129.7 Q158.218 1125.09 164.028 1125.09 Z" fill="#000000" fill-rule="nonzero" fill-opacity="1" /><path clip-path="url(#clip500)" d="M184.19 1154.39 L189.075 1154.39 L189.075 1160.27 L184.19 1160.27 L184.19 1154.39 Z" fill="#000000" fill-rule="nonzero" fill-opacity="1" /><path clip-path="url(#clip500)" d="M199.306 1125.71 L217.662 1125.71 L217.662 1129.65 L203.588 1129.65 L203.588 1138.12 Q204.607 1137.77 205.625 1137.61 Q206.644 1137.43 207.662 1137.43 Q213.449 1137.43 216.829 1140.6 Q220.209 1143.77 220.209 1149.19 Q220.209 1154.77 216.736 1157.87 Q213.264 1160.95 206.945 1160.95 Q204.769 1160.95 202.5 1160.58 Q200.255 1160.2 197.848 1159.46 L197.848 1154.77 Q199.931 1155.9 202.153 1156.45 Q204.375 1157.01 206.852 1157.01 Q210.857 1157.01 213.195 1154.9 Q215.533 1152.8 215.533 1149.19 Q215.533 1145.58 213.195 1143.47 Q210.857 1141.36 206.852 1141.36 Q204.977 1141.36 203.102 1141.78 Q201.25 1142.2 199.306 1143.08 L199.306 1125.71 Z" fill="#000000" fill-rule="nonzero" fill-opacity="1" /><path clip-path="url(#clip500)" d="M163.033 829.664 Q159.422 829.664 157.593 833.229 Q155.788 836.771 155.788 843.9 Q155.788 851.007 157.593 854.572 Q159.422 858.113 163.033 858.113 Q166.667 858.113 168.473 854.572 Q170.302 851.007 170.302 843.9 Q170.302 836.771 168.473 833.229 Q166.667 829.664 163.033 829.664 M163.033 825.961 Q168.843 825.961 171.899 830.567 Q174.977 835.15 174.977 843.9 Q174.977 852.627 171.899 857.234 Q168.843 861.817 163.033 861.817 Q157.223 861.817 154.144 857.234 Q151.089 852.627 151.089 843.9 Q151.089 835.15 154.144 830.567 Q157.223 825.961 163.033 825.961 Z" fill="#000000" fill-rule="nonzero" fill-opacity="1" /><path clip-path="url(#clip500)" d="M183.195 855.266 L188.079 855.266 L188.079 861.146 L183.195 861.146 L183.195 855.266 Z" fill="#000000" fill-rule="nonzero" fill-opacity="1" /><path clip-path="url(#clip500)" d="M208.264 829.664 Q204.653 829.664 202.824 833.229 Q201.019 836.771 201.019 843.9 Q201.019 851.007 202.824 854.572 Q204.653 858.113 208.264 858.113 Q211.899 858.113 213.704 854.572 Q215.533 851.007 215.533 843.9 Q215.533 836.771 213.704 833.229 Q211.899 829.664 208.264 829.664 M208.264 825.961 Q214.074 825.961 217.13 830.567 Q220.209 835.15 220.209 843.9 Q220.209 852.627 217.13 857.234 Q214.074 861.817 208.264 861.817 Q202.454 861.817 199.375 857.234 Q196.32 852.627 196.32 843.9 Q196.32 835.15 199.375 830.567 Q202.454 825.961 208.264 825.961 Z" fill="#000000" fill-rule="nonzero" fill-opacity="1" /><path clip-path="url(#clip500)" d="M164.028 530.536 Q160.417 530.536 158.589 534.101 Q156.783 537.642 156.783 544.772 Q156.783 551.878 158.589 555.443 Q160.417 558.985 164.028 558.985 Q167.663 558.985 169.468 555.443 Q171.297 551.878 171.297 544.772 Q171.297 537.642 169.468 534.101 Q167.663 530.536 164.028 530.536 M164.028 526.832 Q169.839 526.832 172.894 531.439 Q175.973 536.022 175.973 544.772 Q175.973 553.499 172.894 558.105 Q169.839 562.688 164.028 562.688 Q158.218 562.688 155.14 558.105 Q152.084 553.499 152.084 544.772 Q152.084 536.022 155.14 531.439 Q158.218 526.832 164.028 526.832 Z" fill="#000000" fill-rule="nonzero" fill-opacity="1" /><path clip-path="url(#clip500)" d="M184.19 556.138 L189.075 556.138 L189.075 562.017 L184.19 562.017 L184.19 556.138 Z" fill="#000000" fill-rule="nonzero" fill-opacity="1" /><path clip-path="url(#clip500)" d="M199.306 527.457 L217.662 527.457 L217.662 531.392 L203.588 531.392 L203.588 539.864 Q204.607 539.517 205.625 539.355 Q206.644 539.17 207.662 539.17 Q213.449 539.17 216.829 542.341 Q220.209 545.513 220.209 550.929 Q220.209 556.508 216.736 559.61 Q213.264 562.688 206.945 562.688 Q204.769 562.688 202.5 562.318 Q200.255 561.948 197.848 561.207 L197.848 556.508 Q199.931 557.642 202.153 558.198 Q204.375 558.753 206.852 558.753 Q210.857 558.753 213.195 556.647 Q215.533 554.54 215.533 550.929 Q215.533 547.318 213.195 545.212 Q210.857 543.105 206.852 543.105 Q204.977 543.105 203.102 543.522 Q201.25 543.939 199.306 544.818 L199.306 527.457 Z" fill="#000000" fill-rule="nonzero" fill-opacity="1" /><path clip-path="url(#clip500)" d="M153.843 258.953 L161.482 258.953 L161.482 232.588 L153.172 234.254 L153.172 229.995 L161.436 228.329 L166.112 228.329 L166.112 258.953 L173.751 258.953 L173.751 262.889 L153.843 262.889 L153.843 258.953 Z" fill="#000000" fill-rule="nonzero" fill-opacity="1" /><path clip-path="url(#clip500)" d="M183.195 257.009 L188.079 257.009 L188.079 262.889 L183.195 262.889 L183.195 257.009 Z" fill="#000000" fill-rule="nonzero" fill-opacity="1" /><path clip-path="url(#clip500)" d="M208.264 231.407 Q204.653 231.407 202.824 234.972 Q201.019 238.514 201.019 245.643 Q201.019 252.75 202.824 256.315 Q204.653 259.856 208.264 259.856 Q211.899 259.856 213.704 256.315 Q215.533 252.75 215.533 245.643 Q215.533 238.514 213.704 234.972 Q211.899 231.407 208.264 231.407 M208.264 227.704 Q214.074 227.704 217.13 232.31 Q220.209 236.893 220.209 245.643 Q220.209 254.37 217.13 258.977 Q214.074 263.56 208.264 263.56 Q202.454 263.56 199.375 258.977 Q196.32 254.37 196.32 245.643 Q196.32 236.893 199.375 232.31 Q202.454 227.704 208.264 227.704 Z" fill="#000000" fill-rule="nonzero" fill-opacity="1" /><path clip-path="url(#clip500)" d="M18.0438 764.065 L24.314 764.065 Q22.5634 767.725 21.704 770.971 Q20.8447 774.218 20.8447 777.242 Q20.8447 782.493 22.8817 785.358 Q24.9187 788.191 28.6745 788.191 Q31.8255 788.191 33.4488 786.313 Q35.0402 784.403 36.0269 779.119 L36.8226 775.236 Q38.1912 768.043 41.6605 764.637 Q45.098 761.2 50.8908 761.2 Q57.7976 761.2 61.3624 765.847 Q64.9272 770.462 64.9272 779.406 Q64.9272 782.78 64.1633 786.599 Q63.3994 790.387 61.9035 794.461 L55.2831 794.461 Q57.4793 790.546 58.5933 786.79 Q59.7073 783.034 59.7073 779.406 Q59.7073 773.9 57.543 770.908 Q55.3786 767.916 51.3682 767.916 Q47.8671 767.916 45.8937 770.08 Q43.9204 772.213 42.9337 777.114 L42.1698 781.029 Q40.7375 788.222 37.682 791.437 Q34.6264 794.652 29.1837 794.652 Q22.8817 794.652 19.2532 790.228 Q15.6248 785.772 15.6248 777.974 Q15.6248 774.632 16.2295 771.162 Q16.8343 767.693 18.0438 764.065 Z" fill="#000000" fill-rule="nonzero" fill-opacity="1" /><path clip-path="url(#clip500)" d="M41.3104 744.745 L58.7206 744.745 L58.7206 734.432 Q58.7206 729.244 56.5881 726.761 Q54.4238 724.247 49.9996 724.247 Q45.5436 724.247 43.4429 726.761 Q41.3104 729.244 41.3104 734.432 L41.3104 744.745 M21.7677 744.745 L36.0905 744.745 L36.0905 735.228 Q36.0905 730.517 34.34 728.226 Q32.5576 725.902 28.9291 725.902 Q25.3325 725.902 23.5501 728.226 Q21.7677 730.517 21.7677 735.228 L21.7677 744.745 M16.4842 751.174 L16.4842 734.75 Q16.4842 727.398 19.5397 723.419 Q22.5952 719.441 28.2289 719.441 Q32.5894 719.441 35.1675 721.478 Q37.7456 723.515 38.3822 727.462 Q39.4007 722.719 42.6472 720.109 Q45.8619 717.468 50.6998 717.468 Q57.0655 717.468 60.5348 721.796 Q64.0042 726.125 64.0042 734.114 L64.0042 751.174 L16.4842 751.174 Z" fill="#000000" fill-rule="nonzero" fill-opacity="1" /><path clip-path="url(#clip500)" d="M21.7677 700.026 L39.6235 700.026 L39.6235 691.941 Q39.6235 687.453 37.3 685.002 Q34.9765 682.552 30.6797 682.552 Q26.4147 682.552 24.0912 685.002 Q21.7677 687.453 21.7677 691.941 L21.7677 700.026 M16.4842 706.455 L16.4842 691.941 Q16.4842 683.952 20.1126 679.878 Q23.7092 675.772 30.6797 675.772 Q37.7138 675.772 41.3104 679.878 Q44.907 683.952 44.907 691.941 L44.907 700.026 L64.0042 700.026 L64.0042 706.455 L16.4842 706.455 Z" fill="#000000" fill-rule="nonzero" fill-opacity="1" /><polyline clip-path="url(#clip502)" style="stroke:#009af9; stroke-linecap:round; stroke-linejoin:round; stroke-width:4; stroke-opacity:1; fill:none" points="315.545,1384.24 335.523,1379.18 355.502,1374.13 375.481,1369.07 395.459,1364.02 415.438,1358.97 435.416,1353.91 455.395,1348.86 475.373,1343.8 495.352,1338.75 515.33,1333.69 535.309,1328.64 555.287,1323.58 575.266,1318.53 595.244,1313.47 615.223,1308.42 635.201,1303.36 655.18,1298.31 675.158,1293.25 695.137,1288.2 715.116,1283.15 735.094,1278.09 755.073,1273.04 775.051,1267.98 795.03,1262.93 815.008,1257.87 834.987,1249.77 854.965,1237.95 874.944,1226.14 894.922,1214.33 914.901,1202.52 934.879,1190.7 954.858,1178.89 974.836,1167.08 994.815,1155.27 1014.79,1143.45 1034.77,1131.64 1054.75,1117.01 1074.73,1094.91 1094.71,1072.82 1114.69,1050.72 1134.66,1028.63 1154.64,1006.53 1174.62,984.433 1194.6,962.337 1214.58,940.241 1234.56,918.145 1254.54,896.049 1274.51,873.953 1294.49,851.857 1314.47,829.761 1334.45,807.665 1354.43,785.569 1374.41,763.473 1394.39,741.377 1414.36,719.28 1434.34,697.184 1454.32,675.088 1474.3,652.992 1494.28,630.896 1514.26,610.212 1534.24,596.775 1554.21,583.338 1574.19,569.902 1594.17,556.465 1614.15,543.029 1634.13,529.592 1654.11,516.156 1674.09,502.719 1694.06,489.283 1714.04,475.846 1734.02,462.409 1754,448.973 1773.98,435.536 1793.96,422.1 1813.93,408.663 1833.91,395.227 1853.89,381.79 1873.87,368.353 1893.85,354.917 1913.83,341.48 1933.81,328.044 1953.78,314.607 1973.76,301.171 1993.74,287.734 2013.72,274.298 2033.7,260.861 2053.68,247.424 2073.66,233.988 2093.63,220.551 2113.61,207.115 2133.59,193.678 2153.57,180.242 2173.55,166.805 2193.53,153.368 2213.51,139.932 2233.48,126.495 2253.46,113.059 2273.44,99.6222 2293.42,86.1857 "/>
<polyline clip-path="url(#clip502)" style="stroke:#e26f46; stroke-linecap:round; stroke-linejoin:round; stroke-width:4; stroke-opacity:1; fill:none" points="315.545,1336.81 335.523,1329.52 355.502,1322.23 375.481,1314.93 395.459,1307.64 415.438,1300.35 435.416,1293.06 455.395,1285.76 475.373,1278.47 495.352,1271.18 515.33,1263.88 535.309,1256.59 555.287,1249.3 575.266,1242.01 595.244,1234.71 615.223,1227.42 635.201,1220.13 655.18,1212.83 675.158,1205.54 695.137,1198.25 715.116,1190.95 735.094,1183.66 755.073,1176.37 775.051,1169.08 795.03,1161.78 815.008,1154.49 834.987,1144.14 854.965,1130.09 874.944,1116.04 894.922,1101.99 914.901,1087.94 934.879,1073.89 954.858,1059.84 974.836,1045.79 994.815,1031.74 1014.79,1017.69 1034.77,1003.64 1054.75,988.519 1074.73,970.579 1094.71,952.638 1114.69,934.697 1134.66,916.756 1154.64,898.816 1174.62,880.875 1194.6,862.934 1214.58,844.993 1234.56,827.052 1254.54,809.112 1274.51,791.171 1294.49,773.23 1314.47,755.289 1334.45,737.348 1354.43,719.408 1374.41,701.467 1394.39,683.526 1414.36,665.585 1434.34,647.644 1454.32,629.704 1474.3,611.763 1494.28,593.822 1514.26,577.293 1534.24,568.011 1554.21,558.73 1574.19,549.449 1594.17,540.168 1614.15,530.886 1634.13,521.605 1654.11,512.324 1674.09,503.042 1694.06,493.761 1714.04,484.48 1734.02,475.199 1754,465.917 1773.98,456.636 1793.96,447.355 1813.93,438.073 1833.91,428.792 1853.89,419.511 1873.87,410.23 1893.85,400.948 1913.83,391.667 1933.81,382.386 1953.78,373.104 1973.76,363.823 1993.74,354.542 2013.72,345.261 2033.7,335.979 2053.68,326.698 2073.66,317.417 2093.63,308.135 2113.61,298.854 2133.59,289.573 2153.57,280.292 2173.55,271.01 2193.53,261.729 2213.51,252.448 2233.48,243.166 2253.46,233.885 2273.44,224.604 2293.42,215.323 "/>
<polyline clip-path="url(#clip502)" style="stroke:#3da44d; stroke-linecap:round; stroke-linejoin:round; stroke-width:4; stroke-opacity:1; fill:none" points="315.545,1285.58 335.523,1276.92 355.502,1268.27 375.481,1259.61 395.459,1250.96 415.438,1242.3 435.416,1233.65 455.395,1224.99 475.373,1216.34 495.352,1207.68 515.33,1199.03 535.309,1190.37 555.287,1181.72 575.266,1173.06 595.244,1164.41 615.223,1155.75 635.201,1147.1 655.18,1138.45 675.158,1129.79 695.137,1121.14 715.116,1112.48 735.094,1103.83 755.073,1095.17 775.051,1086.52 795.03,1077.86 815.008,1069.21 834.987,1057.5 854.965,1042.09 874.944,1026.67 894.922,1011.26 914.901,995.849 934.879,980.437 954.858,965.024 974.836,949.611 994.815,934.199 1014.79,918.786 1034.77,903.374 1054.75,887.961 1074.73,872.548 1094.71,857.136 1114.69,841.723 1134.66,826.31 1154.64,810.898 1174.62,795.485 1194.6,780.072 1214.58,764.66 1234.56,749.247 1254.54,733.835 1274.51,718.422 1294.49,703.009 1314.47,687.597 1334.45,672.184 1354.43,656.771 1374.41,641.359 1394.39,625.946 1414.36,610.534 1434.34,595.121 1454.32,579.708 1474.3,564.296 1494.28,548.883 1514.26,534.882 1534.24,528.129 1554.21,521.376 1574.19,514.622 1594.17,507.869 1614.15,501.116 1634.13,494.363 1654.11,487.61 1674.09,480.857 1694.06,474.104 1714.04,467.351 1734.02,460.597 1754,453.844 1773.98,447.091 1793.96,440.338 1813.93,433.585 1833.91,426.832 1853.89,420.079 1873.87,413.326 1893.85,406.572 1913.83,399.819 1933.81,393.066 1953.78,386.313 1973.76,379.56 1993.74,372.807 2013.72,366.054 2033.7,359.301 2053.68,352.547 2073.66,345.794 2093.63,339.041 2113.61,332.288 2133.59,325.535 2153.57,318.782 2173.55,312.029 2193.53,305.276 2213.51,298.522 2233.48,291.769 2253.46,285.016 2273.44,278.263 2293.42,271.51 "/>
<path clip-path="url(#clip500)" d="M326.094 300.469 L715.4 300.469 L715.4 93.1086 L326.094 93.1086  Z" fill="#ffffff" fill-rule="evenodd" fill-opacity="1"/>
<polyline clip-path="url(#clip500)" style="stroke:#000000; stroke-linecap:round; stroke-linejoin:round; stroke-width:4; stroke-opacity:1; fill:none" points="326.094,300.469 715.4,300.469 715.4,93.1086 326.094,93.1086 326.094,300.469 "/>
<polyline clip-path="url(#clip500)" style="stroke:#009af9; stroke-linecap:round; stroke-linejoin:round; stroke-width:4; stroke-opacity:1; fill:none" points="349.389,144.949 489.158,144.949 "/>
<path clip-path="url(#clip500)" d="M517.129 145.724 L517.129 158.386 L524.629 158.386 Q528.402 158.386 530.208 156.835 Q532.037 155.261 532.037 152.043 Q532.037 148.803 530.208 147.275 Q528.402 145.724 524.629 145.724 L517.129 145.724 M517.129 131.511 L517.129 141.928 L524.05 141.928 Q527.476 141.928 529.143 140.655 Q530.833 139.358 530.833 136.719 Q530.833 134.104 529.143 132.807 Q527.476 131.511 524.05 131.511 L517.129 131.511 M512.453 127.669 L524.398 127.669 Q529.745 127.669 532.638 129.891 Q535.532 132.113 535.532 136.21 Q535.532 139.382 534.05 141.257 Q532.569 143.131 529.699 143.594 Q533.148 144.335 535.046 146.696 Q536.967 149.034 536.967 152.553 Q536.967 157.182 533.819 159.705 Q530.671 162.229 524.861 162.229 L512.453 162.229 L512.453 127.669 Z" fill="#000000" fill-rule="nonzero" fill-opacity="1" /><path clip-path="url(#clip500)" d="M544.976 127.669 L551.944 127.669 L560.763 151.187 L569.629 127.669 L576.597 127.669 L576.597 162.229 L572.036 162.229 L572.036 131.882 L563.124 155.585 L558.425 155.585 L549.513 131.882 L549.513 162.229 L544.976 162.229 L544.976 127.669 Z" fill="#000000" fill-rule="nonzero" fill-opacity="1" /><path clip-path="url(#clip500)" d="M585.879 127.669 L590.555 127.669 L590.555 162.229 L585.879 162.229 L585.879 127.669 Z" fill="#000000" fill-rule="nonzero" fill-opacity="1" /><path clip-path="url(#clip500)" d="M600.231 140.701 L629.906 140.701 L629.906 144.59 L600.231 144.59 L600.231 140.701 M600.231 150.145 L629.906 150.145 L629.906 154.081 L600.231 154.081 L600.231 150.145 Z" fill="#000000" fill-rule="nonzero" fill-opacity="1" /><path clip-path="url(#clip500)" d="M644.027 158.293 L660.346 158.293 L660.346 162.229 L638.402 162.229 L638.402 158.293 Q641.064 155.539 645.647 150.909 Q650.254 146.256 651.434 144.914 Q653.679 142.391 654.559 140.655 Q655.462 138.895 655.462 137.206 Q655.462 134.451 653.517 132.715 Q651.596 130.979 648.494 130.979 Q646.295 130.979 643.842 131.743 Q641.411 132.507 638.633 134.057 L638.633 129.335 Q641.457 128.201 643.911 127.622 Q646.365 127.044 648.402 127.044 Q653.772 127.044 656.966 129.729 Q660.161 132.414 660.161 136.905 Q660.161 139.034 659.351 140.956 Q658.564 142.854 656.457 145.446 Q655.878 146.118 652.777 149.335 Q649.675 152.53 644.027 158.293 Z" fill="#000000" fill-rule="nonzero" fill-opacity="1" /><path clip-path="url(#clip500)" d="M670.207 127.669 L688.563 127.669 L688.563 131.604 L674.489 131.604 L674.489 140.076 Q675.508 139.729 676.527 139.567 Q677.545 139.382 678.564 139.382 Q684.351 139.382 687.73 142.553 Q691.11 145.724 691.11 151.141 Q691.11 156.719 687.638 159.821 Q684.165 162.9 677.846 162.9 Q675.67 162.9 673.402 162.53 Q671.156 162.159 668.749 161.418 L668.749 156.719 Q670.832 157.854 673.054 158.409 Q675.277 158.965 677.753 158.965 Q681.758 158.965 684.096 156.858 Q686.434 154.752 686.434 151.141 Q686.434 147.53 684.096 145.423 Q681.758 143.317 677.753 143.317 Q675.878 143.317 674.003 143.733 Q672.152 144.15 670.207 145.03 L670.207 127.669 Z" fill="#000000" fill-rule="nonzero" fill-opacity="1" /><polyline clip-path="url(#clip500)" style="stroke:#e26f46; stroke-linecap:round; stroke-linejoin:round; stroke-width:4; stroke-opacity:1; fill:none" points="349.389,196.789 489.158,196.789 "/>
<path clip-path="url(#clip500)" d="M517.129 197.564 L517.129 210.226 L524.629 210.226 Q528.402 210.226 530.208 208.675 Q532.037 207.101 532.037 203.883 Q532.037 200.643 530.208 199.115 Q528.402 197.564 524.629 197.564 L517.129 197.564 M517.129 183.351 L517.129 193.768 L524.05 193.768 Q527.476 193.768 529.143 192.495 Q530.833 191.198 530.833 188.559 Q530.833 185.944 529.143 184.647 Q527.476 183.351 524.05 183.351 L517.129 183.351 M512.453 179.509 L524.398 179.509 Q529.745 179.509 532.638 181.731 Q535.532 183.953 535.532 188.05 Q535.532 191.222 534.05 193.097 Q532.569 194.971 529.699 195.434 Q533.148 196.175 535.046 198.536 Q536.967 200.874 536.967 204.393 Q536.967 209.022 533.819 211.545 Q530.671 214.069 524.861 214.069 L512.453 214.069 L512.453 179.509 Z" fill="#000000" fill-rule="nonzero" fill-opacity="1" /><path clip-path="url(#clip500)" d="M544.976 179.509 L551.944 179.509 L560.763 203.027 L569.629 179.509 L576.597 179.509 L576.597 214.069 L572.036 214.069 L572.036 183.722 L563.124 207.425 L558.425 207.425 L549.513 183.722 L549.513 214.069 L544.976 214.069 L544.976 179.509 Z" fill="#000000" fill-rule="nonzero" fill-opacity="1" /><path clip-path="url(#clip500)" d="M585.879 179.509 L590.555 179.509 L590.555 214.069 L585.879 214.069 L585.879 179.509 Z" fill="#000000" fill-rule="nonzero" fill-opacity="1" /><path clip-path="url(#clip500)" d="M600.231 192.541 L629.906 192.541 L629.906 196.43 L600.231 196.43 L600.231 192.541 M600.231 201.985 L629.906 201.985 L629.906 205.921 L600.231 205.921 L600.231 201.985 Z" fill="#000000" fill-rule="nonzero" fill-opacity="1" /><path clip-path="url(#clip500)" d="M654.166 195.434 Q657.522 196.152 659.397 198.421 Q661.295 200.689 661.295 204.022 Q661.295 209.138 657.777 211.939 Q654.258 214.74 647.777 214.74 Q645.601 214.74 643.286 214.3 Q640.994 213.883 638.541 213.027 L638.541 208.513 Q640.485 209.647 642.8 210.226 Q645.115 210.805 647.638 210.805 Q652.036 210.805 654.328 209.069 Q656.642 207.333 656.642 204.022 Q656.642 200.967 654.49 199.254 Q652.36 197.518 648.541 197.518 L644.513 197.518 L644.513 193.675 L648.726 193.675 Q652.175 193.675 654.003 192.309 Q655.832 190.921 655.832 188.328 Q655.832 185.666 653.934 184.254 Q652.059 182.819 648.541 182.819 Q646.619 182.819 644.42 183.235 Q642.221 183.652 639.582 184.532 L639.582 180.365 Q642.244 179.624 644.559 179.254 Q646.897 178.884 648.957 178.884 Q654.281 178.884 657.383 181.314 Q660.485 183.722 660.485 187.842 Q660.485 190.712 658.841 192.703 Q657.198 194.671 654.166 195.434 Z" fill="#000000" fill-rule="nonzero" fill-opacity="1" /><path clip-path="url(#clip500)" d="M680.161 182.587 Q676.55 182.587 674.721 186.152 Q672.915 189.694 672.915 196.823 Q672.915 203.93 674.721 207.495 Q676.55 211.036 680.161 211.036 Q683.795 211.036 685.601 207.495 Q687.429 203.93 687.429 196.823 Q687.429 189.694 685.601 186.152 Q683.795 182.587 680.161 182.587 M680.161 178.884 Q685.971 178.884 689.026 183.49 Q692.105 188.073 692.105 196.823 Q692.105 205.55 689.026 210.157 Q685.971 214.74 680.161 214.74 Q674.351 214.74 671.272 210.157 Q668.216 205.55 668.216 196.823 Q668.216 188.073 671.272 183.49 Q674.351 178.884 680.161 178.884 Z" fill="#000000" fill-rule="nonzero" fill-opacity="1" /><polyline clip-path="url(#clip500)" style="stroke:#3da44d; stroke-linecap:round; stroke-linejoin:round; stroke-width:4; stroke-opacity:1; fill:none" points="349.389,248.629 489.158,248.629 "/>
<path clip-path="url(#clip500)" d="M517.129 249.404 L517.129 262.066 L524.629 262.066 Q528.402 262.066 530.208 260.515 Q532.037 258.941 532.037 255.723 Q532.037 252.483 530.208 250.955 Q528.402 249.404 524.629 249.404 L517.129 249.404 M517.129 235.191 L517.129 245.608 L524.05 245.608 Q527.476 245.608 529.143 244.335 Q530.833 243.038 530.833 240.399 Q530.833 237.784 529.143 236.487 Q527.476 235.191 524.05 235.191 L517.129 235.191 M512.453 231.349 L524.398 231.349 Q529.745 231.349 532.638 233.571 Q535.532 235.793 535.532 239.89 Q535.532 243.062 534.05 244.937 Q532.569 246.811 529.699 247.274 Q533.148 248.015 535.046 250.376 Q536.967 252.714 536.967 256.233 Q536.967 260.862 533.819 263.385 Q530.671 265.909 524.861 265.909 L512.453 265.909 L512.453 231.349 Z" fill="#000000" fill-rule="nonzero" fill-opacity="1" /><path clip-path="url(#clip500)" d="M544.976 231.349 L551.944 231.349 L560.763 254.867 L569.629 231.349 L576.597 231.349 L576.597 265.909 L572.036 265.909 L572.036 235.562 L563.124 259.265 L558.425 259.265 L549.513 235.562 L549.513 265.909 L544.976 265.909 L544.976 231.349 Z" fill="#000000" fill-rule="nonzero" fill-opacity="1" /><path clip-path="url(#clip500)" d="M585.879 231.349 L590.555 231.349 L590.555 265.909 L585.879 265.909 L585.879 231.349 Z" fill="#000000" fill-rule="nonzero" fill-opacity="1" /><path clip-path="url(#clip500)" d="M600.231 244.381 L629.906 244.381 L629.906 248.27 L600.231 248.27 L600.231 244.381 M600.231 253.825 L629.906 253.825 L629.906 257.761 L600.231 257.761 L600.231 253.825 Z" fill="#000000" fill-rule="nonzero" fill-opacity="1" /><path clip-path="url(#clip500)" d="M654.166 247.274 Q657.522 247.992 659.397 250.261 Q661.295 252.529 661.295 255.862 Q661.295 260.978 657.777 263.779 Q654.258 266.58 647.777 266.58 Q645.601 266.58 643.286 266.14 Q640.994 265.723 638.541 264.867 L638.541 260.353 Q640.485 261.487 642.8 262.066 Q645.115 262.645 647.638 262.645 Q652.036 262.645 654.328 260.909 Q656.642 259.173 656.642 255.862 Q656.642 252.807 654.49 251.094 Q652.36 249.358 648.541 249.358 L644.513 249.358 L644.513 245.515 L648.726 245.515 Q652.175 245.515 654.003 244.149 Q655.832 242.761 655.832 240.168 Q655.832 237.506 653.934 236.094 Q652.059 234.659 648.541 234.659 Q646.619 234.659 644.42 235.075 Q642.221 235.492 639.582 236.372 L639.582 232.205 Q642.244 231.464 644.559 231.094 Q646.897 230.724 648.957 230.724 Q654.281 230.724 657.383 233.154 Q660.485 235.562 660.485 239.682 Q660.485 242.552 658.841 244.543 Q657.198 246.511 654.166 247.274 Z" fill="#000000" fill-rule="nonzero" fill-opacity="1" /><path clip-path="url(#clip500)" d="M670.207 231.349 L688.563 231.349 L688.563 235.284 L674.489 235.284 L674.489 243.756 Q675.508 243.409 676.527 243.247 Q677.545 243.062 678.564 243.062 Q684.351 243.062 687.73 246.233 Q691.11 249.404 691.11 254.821 Q691.11 260.399 687.638 263.501 Q684.165 266.58 677.846 266.58 Q675.67 266.58 673.402 266.21 Q671.156 265.839 668.749 265.098 L668.749 260.399 Q670.832 261.534 673.054 262.089 Q675.277 262.645 677.753 262.645 Q681.758 262.645 684.096 260.538 Q686.434 258.432 686.434 254.821 Q686.434 251.21 684.096 249.103 Q681.758 246.997 677.753 246.997 Q675.878 246.997 674.003 247.413 Q672.152 247.83 670.207 248.71 L670.207 231.349 Z" fill="#000000" fill-rule="nonzero" fill-opacity="1" /></svg>
