<?xml version="1.0" encoding="utf-8"?>
<svg xmlns="http://www.w3.org/2000/svg" xmlns:xlink="http://www.w3.org/1999/xlink" width="600" height="400" viewBox="0 0 2400 1600">
<defs>
  <clipPath id="clip760">
    <rect x="0" y="0" width="2400" height="1600"/>
  </clipPath>
</defs>
<path clip-path="url(#clip760)" d="M0 1600 L2400 1600 L2400 0 L0 0  Z" fill="#ffffff" fill-rule="evenodd" fill-opacity="1"/>
<defs>
  <clipPath id="clip761">
    <rect x="480" y="0" width="1681" height="1600"/>
  </clipPath>
</defs>
<path clip-path="url(#clip760)" d="M102.74 1505.26 L2352.76 1505.26 L2352.76 47.2441 L102.74 47.2441  Z" fill="#ffffff" fill-rule="evenodd" fill-opacity="1"/>
<defs>
  <clipPath id="clip762">
    <rect x="102" y="47" width="2251" height="1459"/>
  </clipPath>
</defs>
<polyline clip-path="url(#clip762)" style="stroke:#000000; stroke-linecap:round; stroke-linejoin:round; stroke-width:2; stroke-opacity:0.1; fill:none" points="449.441,1505.26 449.441,47.2441 "/>
<polyline clip-path="url(#clip762)" style="stroke:#000000; stroke-linecap:round; stroke-linejoin:round; stroke-width:2; stroke-opacity:0.1; fill:none" points="803.217,1505.26 803.217,47.2441 "/>
<polyline clip-path="url(#clip762)" style="stroke:#000000; stroke-linecap:round; stroke-linejoin:round; stroke-width:2; stroke-opacity:0.1; fill:none" points="1156.99,1505.26 1156.99,47.2441 "/>
<polyline clip-path="url(#clip762)" style="stroke:#000000; stroke-linecap:round; stroke-linejoin:round; stroke-width:2; stroke-opacity:0.1; fill:none" points="1510.77,1505.26 1510.77,47.2441 "/>
<polyline clip-path="url(#clip762)" style="stroke:#000000; stroke-linecap:round; stroke-linejoin:round; stroke-width:2; stroke-opacity:0.1; fill:none" points="1864.54,1505.26 1864.54,47.2441 "/>
<polyline clip-path="url(#clip762)" style="stroke:#000000; stroke-linecap:round; stroke-linejoin:round; stroke-width:2; stroke-opacity:0.1; fill:none" points="2218.32,1505.26 2218.32,47.2441 "/>
<polyline clip-path="url(#clip760)" style="stroke:#000000; stroke-linecap:round; stroke-linejoin:round; stroke-width:4; stroke-opacity:1; fill:none" points="102.74,1505.26 2352.76,1505.26 "/>
<polyline clip-path="url(#clip760)" style="stroke:#000000; stroke-linecap:round; stroke-linejoin:round; stroke-width:4; stroke-opacity:1; fill:none" points="449.441,1505.26 449.441,1486.36 "/>
<polyline clip-path="url(#clip760)" style="stroke:#000000; stroke-linecap:round; stroke-linejoin:round; stroke-width:4; stroke-opacity:1; fill:none" points="803.217,1505.26 803.217,1486.36 "/>
<polyline clip-path="url(#clip760)" style="stroke:#000000; stroke-linecap:round; stroke-linejoin:round; stroke-width:4; stroke-opacity:1; fill:none" points="1156.99,1505.26 1156.99,1486.36 "/>
<polyline clip-path="url(#clip760)" style="stroke:#000000; stroke-linecap:round; stroke-linejoin:round; stroke-width:4; stroke-opacity:1; fill:none" points="1510.77,1505.26 1510.77,1486.36 "/>
<polyline clip-path="url(#clip760)" style="stroke:#000000; stroke-linecap:round; stroke-linejoin:round; stroke-width:4; stroke-opacity:1; fill:none" points="1864.54,1505.26 1864.54,1486.36 "/>
<polyline clip-path="url(#clip760)" style="stroke:#000000; stroke-linecap:round; stroke-linejoin:round; stroke-width:4; stroke-opacity:1; fill:none" points="2218.32,1505.26 2218.32,1486.36 "/>
<path clip-path="url(#clip760)" d="M439.719 1533.1 L458.075 1533.1 L458.075 1537.04 L444.001 1537.04 L444.001 1545.51 Q445.019 1545.16 446.038 1545 Q447.056 1544.81 448.075 1544.81 Q453.862 1544.81 457.242 1547.98 Q460.621 1551.16 460.621 1556.57 Q460.621 1562.15 457.149 1565.25 Q453.677 1568.33 447.357 1568.33 Q445.181 1568.33 442.913 1567.96 Q440.668 1567.59 438.26 1566.85 L438.26 1562.15 Q440.344 1563.28 442.566 1563.84 Q444.788 1564.4 447.265 1564.4 Q451.269 1564.4 453.607 1562.29 Q455.945 1560.18 455.945 1556.57 Q455.945 1552.96 453.607 1550.85 Q451.269 1548.75 447.265 1548.75 Q445.39 1548.75 443.515 1549.16 Q441.663 1549.58 439.719 1550.46 L439.719 1533.1 Z" fill="#000000" fill-rule="nonzero" fill-opacity="1" /><path clip-path="url(#clip760)" d="M777.904 1563.72 L785.543 1563.72 L785.543 1537.36 L777.233 1539.03 L777.233 1534.77 L785.497 1533.1 L790.173 1533.1 L790.173 1563.72 L797.812 1563.72 L797.812 1567.66 L777.904 1567.66 L777.904 1563.72 Z" fill="#000000" fill-rule="nonzero" fill-opacity="1" /><path clip-path="url(#clip760)" d="M817.256 1536.18 Q813.645 1536.18 811.816 1539.74 Q810.011 1543.28 810.011 1550.41 Q810.011 1557.52 811.816 1561.09 Q813.645 1564.63 817.256 1564.63 Q820.89 1564.63 822.696 1561.09 Q824.525 1557.52 824.525 1550.41 Q824.525 1543.28 822.696 1539.74 Q820.89 1536.18 817.256 1536.18 M817.256 1532.47 Q823.066 1532.47 826.122 1537.08 Q829.2 1541.66 829.2 1550.41 Q829.2 1559.14 826.122 1563.75 Q823.066 1568.33 817.256 1568.33 Q811.446 1568.33 808.367 1563.75 Q805.312 1559.14 805.312 1550.41 Q805.312 1541.66 808.367 1537.08 Q811.446 1532.47 817.256 1532.47 Z" fill="#000000" fill-rule="nonzero" fill-opacity="1" /><path clip-path="url(#clip760)" d="M1132.18 1563.72 L1139.82 1563.72 L1139.82 1537.36 L1131.51 1539.03 L1131.51 1534.77 L1139.77 1533.1 L1144.45 1533.1 L1144.45 1563.72 L1152.09 1563.72 L1152.09 1567.66 L1132.18 1567.66 L1132.18 1563.72 Z" fill="#000000" fill-rule="nonzero" fill-opacity="1" /><path clip-path="url(#clip760)" d="M1161.58 1533.1 L1179.93 1533.1 L1179.93 1537.04 L1165.86 1537.04 L1165.86 1545.51 Q1166.88 1545.16 1167.9 1545 Q1168.91 1544.81 1169.93 1544.81 Q1175.72 1544.81 1179.1 1547.98 Q1182.48 1551.16 1182.48 1556.57 Q1182.48 1562.15 1179.01 1565.25 Q1175.53 1568.33 1169.21 1568.33 Q1167.04 1568.33 1164.77 1567.96 Q1162.53 1567.59 1160.12 1566.85 L1160.12 1562.15 Q1162.2 1563.28 1164.42 1563.84 Q1166.65 1564.4 1169.12 1564.4 Q1173.13 1564.4 1175.46 1562.29 Q1177.8 1560.18 1177.8 1556.57 Q1177.8 1552.96 1175.46 1550.85 Q1173.13 1548.75 1169.12 1548.75 Q1167.25 1548.75 1165.37 1549.16 Q1163.52 1549.58 1161.58 1550.46 L1161.58 1533.1 Z" fill="#000000" fill-rule="nonzero" fill-opacity="1" /><path clip-path="url(#clip760)" d="M1489.54 1563.72 L1505.86 1563.72 L1505.86 1567.66 L1483.92 1567.66 L1483.92 1563.72 Q1486.58 1560.97 1491.16 1556.34 Q1495.77 1551.69 1496.95 1550.35 Q1499.19 1547.82 1500.07 1546.09 Q1500.98 1544.33 1500.98 1542.64 Q1500.98 1539.88 1499.03 1538.15 Q1497.11 1536.41 1494.01 1536.41 Q1491.81 1536.41 1489.36 1537.17 Q1486.93 1537.94 1484.15 1539.49 L1484.15 1534.77 Q1486.97 1533.63 1489.43 1533.05 Q1491.88 1532.47 1493.92 1532.47 Q1499.29 1532.47 1502.48 1535.16 Q1505.68 1537.85 1505.68 1542.34 Q1505.68 1544.47 1504.87 1546.39 Q1504.08 1548.28 1501.97 1550.88 Q1501.39 1551.55 1498.29 1554.77 Q1495.19 1557.96 1489.54 1563.72 Z" fill="#000000" fill-rule="nonzero" fill-opacity="1" /><path clip-path="url(#clip760)" d="M1525.68 1536.18 Q1522.07 1536.18 1520.24 1539.74 Q1518.43 1543.28 1518.43 1550.41 Q1518.43 1557.52 1520.24 1561.09 Q1522.07 1564.63 1525.68 1564.63 Q1529.31 1564.63 1531.12 1561.09 Q1532.94 1557.52 1532.94 1550.41 Q1532.94 1543.28 1531.12 1539.74 Q1529.31 1536.18 1525.68 1536.18 M1525.68 1532.47 Q1531.49 1532.47 1534.54 1537.08 Q1537.62 1541.66 1537.62 1550.41 Q1537.62 1559.14 1534.54 1563.75 Q1531.49 1568.33 1525.68 1568.33 Q1519.87 1568.33 1516.79 1563.75 Q1513.73 1559.14 1513.73 1550.41 Q1513.73 1541.66 1516.79 1537.08 Q1519.87 1532.47 1525.68 1532.47 Z" fill="#000000" fill-rule="nonzero" fill-opacity="1" /><path clip-path="url(#clip760)" d="M1843.82 1563.72 L1860.14 1563.72 L1860.14 1567.66 L1838.19 1567.66 L1838.19 1563.72 Q1840.85 1560.97 1845.44 1556.34 Q1850.04 1551.69 1851.22 1550.35 Q1853.47 1547.82 1854.35 1546.09 Q1855.25 1544.33 1855.25 1542.64 Q1855.25 1539.88 1853.31 1538.15 Q1851.39 1536.41 1848.28 1536.41 Q1846.08 1536.41 1843.63 1537.17 Q1841.2 1537.94 1838.42 1539.49 L1838.42 1534.77 Q1841.25 1533.63 1843.7 1533.05 Q1846.15 1532.47 1848.19 1532.47 Q1853.56 1532.47 1856.76 1535.16 Q1859.95 1537.85 1859.95 1542.34 Q1859.95 1544.47 1859.14 1546.39 Q1858.35 1548.28 1856.25 1550.88 Q1855.67 1551.55 1852.57 1554.77 Q1849.46 1557.96 1843.82 1563.72 Z" fill="#000000" fill-rule="nonzero" fill-opacity="1" /><path clip-path="url(#clip760)" d="M1870 1533.1 L1888.35 1533.1 L1888.35 1537.04 L1874.28 1537.04 L1874.28 1545.51 Q1875.3 1545.16 1876.32 1545 Q1877.33 1544.81 1878.35 1544.81 Q1884.14 1544.81 1887.52 1547.98 Q1890.9 1551.16 1890.9 1556.57 Q1890.9 1562.15 1887.43 1565.25 Q1883.95 1568.33 1877.64 1568.33 Q1875.46 1568.33 1873.19 1567.96 Q1870.95 1567.59 1868.54 1566.85 L1868.54 1562.15 Q1870.62 1563.28 1872.84 1563.84 Q1875.07 1564.4 1877.54 1564.4 Q1881.55 1564.4 1883.89 1562.29 Q1886.22 1560.18 1886.22 1556.57 Q1886.22 1552.96 1883.89 1550.85 Q1881.55 1548.75 1877.54 1548.75 Q1875.67 1548.75 1873.79 1549.16 Q1871.94 1549.58 1870 1550.46 L1870 1533.1 Z" fill="#000000" fill-rule="nonzero" fill-opacity="1" /><path clip-path="url(#clip760)" d="M2207.16 1549.03 Q2210.52 1549.74 2212.4 1552.01 Q2214.29 1554.28 2214.29 1557.61 Q2214.29 1562.73 2210.77 1565.53 Q2207.26 1568.33 2200.77 1568.33 Q2198.6 1568.33 2196.28 1567.89 Q2193.99 1567.47 2191.54 1566.62 L2191.54 1562.1 Q2193.48 1563.24 2195.8 1563.82 Q2198.11 1564.4 2200.64 1564.4 Q2205.03 1564.4 2207.33 1562.66 Q2209.64 1560.92 2209.64 1557.61 Q2209.64 1554.56 2207.49 1552.85 Q2205.36 1551.11 2201.54 1551.11 L2197.51 1551.11 L2197.51 1547.27 L2201.72 1547.27 Q2205.17 1547.27 2207 1545.9 Q2208.83 1544.51 2208.83 1541.92 Q2208.83 1539.26 2206.93 1537.85 Q2205.06 1536.41 2201.54 1536.41 Q2199.62 1536.41 2197.42 1536.83 Q2195.22 1537.24 2192.58 1538.12 L2192.58 1533.96 Q2195.24 1533.22 2197.56 1532.85 Q2199.9 1532.47 2201.96 1532.47 Q2207.28 1532.47 2210.38 1534.91 Q2213.48 1537.31 2213.48 1541.43 Q2213.48 1544.3 2211.84 1546.29 Q2210.2 1548.26 2207.16 1549.03 Z" fill="#000000" fill-rule="nonzero" fill-opacity="1" /><path clip-path="url(#clip760)" d="M2233.16 1536.18 Q2229.55 1536.18 2227.72 1539.74 Q2225.91 1543.28 2225.91 1550.41 Q2225.91 1557.52 2227.72 1561.09 Q2229.55 1564.63 2233.16 1564.63 Q2236.79 1564.63 2238.6 1561.09 Q2240.43 1557.52 2240.43 1550.41 Q2240.43 1543.28 2238.6 1539.74 Q2236.79 1536.18 2233.16 1536.18 M2233.16 1532.47 Q2238.97 1532.47 2242.02 1537.08 Q2245.1 1541.66 2245.1 1550.41 Q2245.1 1559.14 2242.02 1563.75 Q2238.97 1568.33 2233.16 1568.33 Q2227.35 1568.33 2224.27 1563.75 Q2221.21 1559.14 2221.21 1550.41 Q2221.21 1541.66 2224.27 1537.08 Q2227.35 1532.47 2233.16 1532.47 Z" fill="#000000" fill-rule="nonzero" fill-opacity="1" /><path clip-path="url(#clip760)" d="M955.089 1602.6 L963.746 1602.6 L984.817 1642.36 L984.817 1602.6 L991.055 1602.6 L991.055 1650.12 L982.398 1650.12 L961.327 1610.37 L961.327 1650.12 L955.089 1650.12 L955.089 1602.6 Z" fill="#000000" fill-rule="nonzero" fill-opacity="1" /><path clip-path="url(#clip760)" d="M1002.99 1636.06 L1002.99 1614.48 L1008.85 1614.48 L1008.85 1635.83 Q1008.85 1640.89 1010.82 1643.44 Q1012.79 1645.95 1016.74 1645.95 Q1021.48 1645.95 1024.22 1642.93 Q1026.99 1639.91 1026.99 1634.69 L1026.99 1614.48 L1032.85 1614.48 L1032.85 1650.12 L1026.99 1650.12 L1026.99 1644.65 Q1024.86 1647.9 1022.02 1649.49 Q1019.22 1651.05 1015.5 1651.05 Q1009.36 1651.05 1006.17 1647.23 Q1002.99 1643.41 1002.99 1636.06 M1017.73 1613.62 L1017.73 1613.62 Z" fill="#000000" fill-rule="nonzero" fill-opacity="1" /><path clip-path="url(#clip760)" d="M1072.66 1621.32 Q1074.86 1617.37 1077.92 1615.49 Q1080.97 1613.62 1085.11 1613.62 Q1090.68 1613.62 1093.7 1617.53 Q1096.73 1621.41 1096.73 1628.61 L1096.73 1650.12 L1090.84 1650.12 L1090.84 1628.8 Q1090.84 1623.67 1089.02 1621.19 Q1087.21 1618.71 1083.49 1618.71 Q1078.93 1618.71 1076.29 1621.73 Q1073.65 1624.76 1073.65 1629.98 L1073.65 1650.12 L1067.76 1650.12 L1067.76 1628.8 Q1067.76 1623.64 1065.95 1621.19 Q1064.13 1618.71 1060.35 1618.71 Q1055.86 1618.71 1053.22 1621.76 Q1050.57 1624.79 1050.57 1629.98 L1050.57 1650.12 L1044.69 1650.12 L1044.69 1614.48 L1050.57 1614.48 L1050.57 1620.01 Q1052.58 1616.74 1055.38 1615.18 Q1058.18 1613.62 1062.03 1613.62 Q1065.92 1613.62 1068.62 1615.59 Q1071.36 1617.56 1072.66 1621.32 Z" fill="#000000" fill-rule="nonzero" fill-opacity="1" /><path clip-path="url(#clip760)" d="M1134 1632.33 Q1134 1625.87 1131.32 1622.21 Q1128.68 1618.52 1124.03 1618.52 Q1119.39 1618.52 1116.71 1622.21 Q1114.07 1625.87 1114.07 1632.33 Q1114.07 1638.79 1116.71 1642.48 Q1119.39 1646.15 1124.03 1646.15 Q1128.68 1646.15 1131.32 1642.48 Q1134 1638.79 1134 1632.33 M1114.07 1619.89 Q1115.92 1616.7 1118.72 1615.18 Q1121.55 1613.62 1125.47 1613.62 Q1131.96 1613.62 1136 1618.77 Q1140.08 1623.93 1140.08 1632.33 Q1140.08 1640.73 1136 1645.89 Q1131.96 1651.05 1125.47 1651.05 Q1121.55 1651.05 1118.72 1649.52 Q1115.92 1647.96 1114.07 1644.78 L1114.07 1650.12 L1108.18 1650.12 L1108.18 1600.6 L1114.07 1600.6 L1114.07 1619.89 Z" fill="#000000" fill-rule="nonzero" fill-opacity="1" /><path clip-path="url(#clip760)" d="M1180.28 1630.84 L1180.28 1633.7 L1153.35 1633.7 Q1153.73 1639.75 1156.98 1642.93 Q1160.26 1646.08 1166.08 1646.08 Q1169.45 1646.08 1172.61 1645.25 Q1175.79 1644.43 1178.91 1642.77 L1178.91 1648.31 Q1175.76 1649.65 1172.45 1650.35 Q1169.14 1651.05 1165.73 1651.05 Q1157.2 1651.05 1152.2 1646.08 Q1147.24 1641.12 1147.24 1632.65 Q1147.24 1623.9 1151.95 1618.77 Q1156.69 1613.62 1164.71 1613.62 Q1171.9 1613.62 1176.07 1618.26 Q1180.28 1622.88 1180.28 1630.84 M1174.42 1629.12 Q1174.36 1624.31 1171.71 1621.45 Q1169.1 1618.58 1164.78 1618.58 Q1159.87 1618.58 1156.91 1621.35 Q1153.99 1624.12 1153.54 1629.15 L1174.42 1629.12 Z" fill="#000000" fill-rule="nonzero" fill-opacity="1" /><path clip-path="url(#clip760)" d="M1210.54 1619.95 Q1209.56 1619.38 1208.38 1619.12 Q1207.23 1618.84 1205.83 1618.84 Q1200.87 1618.84 1198.2 1622.08 Q1195.55 1625.3 1195.55 1631.35 L1195.55 1650.12 L1189.67 1650.12 L1189.67 1614.48 L1195.55 1614.48 L1195.55 1620.01 Q1197.4 1616.77 1200.36 1615.21 Q1203.32 1613.62 1207.55 1613.62 Q1208.16 1613.62 1208.89 1613.71 Q1209.62 1613.78 1210.51 1613.93 L1210.54 1619.95 Z" fill="#000000" fill-rule="nonzero" fill-opacity="1" /><path clip-path="url(#clip760)" d="M1251.22 1618.58 Q1246.51 1618.58 1243.77 1622.27 Q1241.04 1625.93 1241.04 1632.33 Q1241.04 1638.73 1243.74 1642.42 Q1246.48 1646.08 1251.22 1646.08 Q1255.9 1646.08 1258.64 1642.39 Q1261.37 1638.7 1261.37 1632.33 Q1261.37 1626 1258.64 1622.31 Q1255.9 1618.58 1251.22 1618.58 M1251.22 1613.62 Q1258.86 1613.62 1263.22 1618.58 Q1267.58 1623.55 1267.58 1632.33 Q1267.58 1641.08 1263.22 1646.08 Q1258.86 1651.05 1251.22 1651.05 Q1243.55 1651.05 1239.19 1646.08 Q1234.86 1641.08 1234.86 1632.33 Q1234.86 1623.55 1239.19 1618.58 Q1243.55 1613.62 1251.22 1613.62 Z" fill="#000000" fill-rule="nonzero" fill-opacity="1" /><path clip-path="url(#clip760)" d="M1295.34 1600.6 L1295.34 1605.47 L1289.73 1605.47 Q1286.58 1605.47 1285.34 1606.74 Q1284.13 1608.01 1284.13 1611.32 L1284.13 1614.48 L1293.78 1614.48 L1293.78 1619.03 L1284.13 1619.03 L1284.13 1650.12 L1278.24 1650.12 L1278.24 1619.03 L1272.64 1619.03 L1272.64 1614.48 L1278.24 1614.48 L1278.24 1611.99 Q1278.24 1606.04 1281.01 1603.34 Q1283.78 1600.6 1289.8 1600.6 L1295.34 1600.6 Z" fill="#000000" fill-rule="nonzero" fill-opacity="1" /><path clip-path="url(#clip760)" d="M1326.75 1604.35 L1326.75 1614.48 L1338.81 1614.48 L1338.81 1619.03 L1326.75 1619.03 L1326.75 1638.38 Q1326.75 1642.74 1327.93 1643.98 Q1329.14 1645.22 1332.8 1645.22 L1338.81 1645.22 L1338.81 1650.12 L1332.8 1650.12 Q1326.02 1650.12 1323.44 1647.61 Q1320.86 1645.06 1320.86 1638.38 L1320.86 1619.03 L1316.57 1619.03 L1316.57 1614.48 L1320.86 1614.48 L1320.86 1604.35 L1326.75 1604.35 Z" fill="#000000" fill-rule="nonzero" fill-opacity="1" /><path clip-path="url(#clip760)" d="M1377.01 1630.84 L1377.01 1633.7 L1350.08 1633.7 Q1350.46 1639.75 1353.71 1642.93 Q1356.99 1646.08 1362.81 1646.08 Q1366.19 1646.08 1369.34 1645.25 Q1372.52 1644.43 1375.64 1642.77 L1375.64 1648.31 Q1372.49 1649.65 1369.18 1650.35 Q1365.87 1651.05 1362.46 1651.05 Q1353.93 1651.05 1348.94 1646.08 Q1343.97 1641.12 1343.97 1632.65 Q1343.97 1623.9 1348.68 1618.77 Q1353.42 1613.62 1361.44 1613.62 Q1368.64 1613.62 1372.81 1618.26 Q1377.01 1622.88 1377.01 1630.84 M1371.15 1629.12 Q1371.09 1624.31 1368.45 1621.45 Q1365.84 1618.58 1361.51 1618.58 Q1356.61 1618.58 1353.65 1621.35 Q1350.72 1624.12 1350.27 1629.15 L1371.15 1629.12 Z" fill="#000000" fill-rule="nonzero" fill-opacity="1" /><path clip-path="url(#clip760)" d="M1407.28 1619.95 Q1406.29 1619.38 1405.11 1619.12 Q1403.97 1618.84 1402.57 1618.84 Q1397.6 1618.84 1394.93 1622.08 Q1392.29 1625.3 1392.29 1631.35 L1392.29 1650.12 L1386.4 1650.12 L1386.4 1614.48 L1392.29 1614.48 L1392.29 1620.01 Q1394.13 1616.77 1397.09 1615.21 Q1400.05 1613.62 1404.28 1613.62 Q1404.89 1613.62 1405.62 1613.71 Q1406.35 1613.78 1407.25 1613.93 L1407.28 1619.95 Z" fill="#000000" fill-rule="nonzero" fill-opacity="1" /><path clip-path="url(#clip760)" d="M1440.03 1621.32 Q1442.22 1617.37 1445.28 1615.49 Q1448.34 1613.62 1452.47 1613.62 Q1458.04 1613.62 1461.07 1617.53 Q1464.09 1621.41 1464.09 1628.61 L1464.09 1650.12 L1458.2 1650.12 L1458.2 1628.8 Q1458.2 1623.67 1456.39 1621.19 Q1454.57 1618.71 1450.85 1618.71 Q1446.3 1618.71 1443.66 1621.73 Q1441.02 1624.76 1441.02 1629.98 L1441.02 1650.12 L1435.13 1650.12 L1435.13 1628.8 Q1435.13 1623.64 1433.31 1621.19 Q1431.5 1618.71 1427.71 1618.71 Q1423.22 1618.71 1420.58 1621.76 Q1417.94 1624.79 1417.94 1629.98 L1417.94 1650.12 L1412.05 1650.12 L1412.05 1614.48 L1417.94 1614.48 L1417.94 1620.01 Q1419.94 1616.74 1422.75 1615.18 Q1425.55 1613.62 1429.4 1613.62 Q1433.28 1613.62 1435.99 1615.59 Q1438.72 1617.56 1440.03 1621.32 Z" fill="#000000" fill-rule="nonzero" fill-opacity="1" /><path clip-path="url(#clip760)" d="M1498.5 1615.53 L1498.5 1621.06 Q1496.01 1619.79 1493.34 1619.15 Q1490.67 1618.52 1487.8 1618.52 Q1483.44 1618.52 1481.25 1619.85 Q1479.08 1621.19 1479.08 1623.87 Q1479.08 1625.9 1480.64 1627.08 Q1482.2 1628.23 1486.91 1629.28 L1488.92 1629.72 Q1495.16 1631.06 1497.77 1633.51 Q1500.41 1635.93 1500.41 1640.29 Q1500.41 1645.25 1496.46 1648.15 Q1492.55 1651.05 1485.67 1651.05 Q1482.81 1651.05 1479.69 1650.47 Q1476.6 1649.93 1473.16 1648.82 L1473.16 1642.77 Q1476.41 1644.46 1479.56 1645.32 Q1482.71 1646.15 1485.8 1646.15 Q1489.94 1646.15 1492.16 1644.74 Q1494.39 1643.31 1494.39 1640.73 Q1494.39 1638.35 1492.77 1637.07 Q1491.18 1635.8 1485.73 1634.62 L1483.7 1634.15 Q1478.25 1633 1475.84 1630.64 Q1473.42 1628.26 1473.42 1624.12 Q1473.42 1619.09 1476.98 1616.35 Q1480.55 1613.62 1487.1 1613.62 Q1490.35 1613.62 1493.21 1614.09 Q1496.08 1614.57 1498.5 1615.53 Z" fill="#000000" fill-rule="nonzero" fill-opacity="1" /><polyline clip-path="url(#clip762)" style="stroke:#000000; stroke-linecap:round; stroke-linejoin:round; stroke-width:2; stroke-opacity:0.1; fill:none" points="102.74,1464 2352.76,1464 "/>
<polyline clip-path="url(#clip762)" style="stroke:#000000; stroke-linecap:round; stroke-linejoin:round; stroke-width:2; stroke-opacity:0.1; fill:none" points="102.74,1104.5 2352.76,1104.5 "/>
<polyline clip-path="url(#clip762)" style="stroke:#000000; stroke-linecap:round; stroke-linejoin:round; stroke-width:2; stroke-opacity:0.1; fill:none" points="102.74,745.003 2352.76,745.003 "/>
<polyline clip-path="url(#clip762)" style="stroke:#000000; stroke-linecap:round; stroke-linejoin:round; stroke-width:2; stroke-opacity:0.1; fill:none" points="102.74,385.507 2352.76,385.507 "/>
<polyline clip-path="url(#clip760)" style="stroke:#000000; stroke-linecap:round; stroke-linejoin:round; stroke-width:4; stroke-opacity:1; fill:none" points="102.74,1505.26 102.74,47.2441 "/>
<polyline clip-path="url(#clip760)" style="stroke:#000000; stroke-linecap:round; stroke-linejoin:round; stroke-width:4; stroke-opacity:1; fill:none" points="102.74,1464 121.638,1464 "/>
<polyline clip-path="url(#clip760)" style="stroke:#000000; stroke-linecap:round; stroke-linejoin:round; stroke-width:4; stroke-opacity:1; fill:none" points="102.74,1104.5 121.638,1104.5 "/>
<polyline clip-path="url(#clip760)" style="stroke:#000000; stroke-linecap:round; stroke-linejoin:round; stroke-width:4; stroke-opacity:1; fill:none" points="102.74,745.003 121.638,745.003 "/>
<polyline clip-path="url(#clip760)" style="stroke:#000000; stroke-linecap:round; stroke-linejoin:round; stroke-width:4; stroke-opacity:1; fill:none" points="102.74,385.507 121.638,385.507 "/>
<path clip-path="url(#clip760)" d="M9.56454 1449.79 Q5.95345 1449.79 4.12475 1453.36 Q2.31921 1456.9 2.31921 1464.03 Q2.31921 1471.14 4.12475 1474.7 Q5.95345 1478.24 9.56454 1478.24 Q13.1988 1478.24 15.0043 1474.7 Q16.833 1471.14 16.833 1464.03 Q16.833 1456.9 15.0043 1453.36 Q13.1988 1449.79 9.56454 1449.79 M9.56454 1446.09 Q15.3747 1446.09 18.4302 1450.7 Q21.5089 1455.28 21.5089 1464.03 Q21.5089 1472.76 18.4302 1477.36 Q15.3747 1481.95 9.56454 1481.95 Q3.75438 1481.95 0.675697 1477.36 Q-2.37984 1472.76 -2.37984 1464.03 Q-2.37984 1455.28 0.675697 1450.7 Q3.75438 1446.09 9.56454 1446.09 Z" fill="#000000" fill-rule="nonzero" fill-opacity="1" /><path clip-path="url(#clip760)" d="M29.7265 1475.4 L34.6107 1475.4 L34.6107 1481.28 L29.7265 1481.28 L29.7265 1475.4 Z" fill="#000000" fill-rule="nonzero" fill-opacity="1" /><path clip-path="url(#clip760)" d="M54.7958 1449.79 Q51.1847 1449.79 49.356 1453.36 Q47.5504 1456.9 47.5504 1464.03 Q47.5504 1471.14 49.356 1474.7 Q51.1847 1478.24 54.7958 1478.24 Q58.43 1478.24 60.2356 1474.7 Q62.0643 1471.14 62.0643 1464.03 Q62.0643 1456.9 60.2356 1453.36 Q58.43 1449.79 54.7958 1449.79 M54.7958 1446.09 Q60.6059 1446.09 63.6615 1450.7 Q66.7402 1455.28 66.7402 1464.03 Q66.7402 1472.76 63.6615 1477.36 Q60.6059 1481.95 54.7958 1481.95 Q48.9856 1481.95 45.9069 1477.36 Q42.8514 1472.76 42.8514 1464.03 Q42.8514 1455.28 45.9069 1450.7 Q48.9856 1446.09 54.7958 1446.09 Z" fill="#000000" fill-rule="nonzero" fill-opacity="1" /><path clip-path="url(#clip760)" d="M11.1618 1090.3 Q7.55066 1090.3 5.72197 1093.86 Q3.91642 1097.4 3.91642 1104.53 Q3.91642 1111.64 5.72197 1115.2 Q7.55066 1118.75 11.1618 1118.75 Q14.796 1118.75 16.6015 1115.2 Q18.4302 1111.64 18.4302 1104.53 Q18.4302 1097.4 16.6015 1093.86 Q14.796 1090.3 11.1618 1090.3 M11.1618 1086.59 Q16.9719 1086.59 20.0274 1091.2 Q23.1061 1095.78 23.1061 1104.53 Q23.1061 1113.26 20.0274 1117.87 Q16.9719 1122.45 11.1618 1122.45 Q5.3516 1122.45 2.27291 1117.87 Q-0.782629 1113.26 -0.782629 1104.53 Q-0.782629 1095.78 2.27291 1091.2 Q5.3516 1086.59 11.1618 1086.59 Z" fill="#000000" fill-rule="nonzero" fill-opacity="1" /><path clip-path="url(#clip760)" d="M31.3237 1115.9 L36.2079 1115.9 L36.2079 1121.78 L31.3237 1121.78 L31.3237 1115.9 Z" fill="#000000" fill-rule="nonzero" fill-opacity="1" /><path clip-path="url(#clip760)" d="M50.4208 1117.84 L66.7402 1117.84 L66.7402 1121.78 L44.7958 1121.78 L44.7958 1117.84 Q47.4579 1115.09 52.0412 1110.46 Q56.6476 1105.81 57.8282 1104.46 Q60.0735 1101.94 60.9532 1100.21 Q61.8559 1098.45 61.8559 1096.76 Q61.8559 1094 59.9115 1092.27 Q57.9902 1090.53 54.8884 1090.53 Q52.6893 1090.53 50.2356 1091.29 Q47.8051 1092.06 45.0273 1093.61 L45.0273 1088.89 Q47.8514 1087.75 50.3051 1087.17 Q52.7588 1086.59 54.7958 1086.59 Q60.1661 1086.59 63.3605 1089.28 Q66.555 1091.96 66.555 1096.46 Q66.555 1098.58 65.7448 1100.51 Q64.9578 1102.4 62.8513 1105 Q62.2726 1105.67 59.1708 1108.89 Q56.0689 1112.08 50.4208 1117.84 Z" fill="#000000" fill-rule="nonzero" fill-opacity="1" /><path clip-path="url(#clip760)" d="M9.07843 730.801 Q5.46734 730.801 3.63864 734.366 Q1.8331 737.908 1.8331 745.038 Q1.8331 752.144 3.63864 755.709 Q5.46734 759.25 9.07843 759.25 Q12.7127 759.25 14.5182 755.709 Q16.3469 752.144 16.3469 745.038 Q16.3469 737.908 14.5182 734.366 Q12.7127 730.801 9.07843 730.801 M9.07843 727.098 Q14.8886 727.098 17.9441 731.704 Q21.0228 736.288 21.0228 745.038 Q21.0228 753.764 17.9441 758.371 Q14.8886 762.954 9.07843 762.954 Q3.26828 762.954 0.189588 758.371 Q-2.86595 753.764 -2.86595 745.038 Q-2.86595 736.288 0.189588 731.704 Q3.26828 727.098 9.07843 727.098 Z" fill="#000000" fill-rule="nonzero" fill-opacity="1" /><path clip-path="url(#clip760)" d="M29.2404 756.403 L34.1246 756.403 L34.1246 762.283 L29.2404 762.283 L29.2404 756.403 Z" fill="#000000" fill-rule="nonzero" fill-opacity="1" /><path clip-path="url(#clip760)" d="M57.1569 731.797 L45.3514 750.246 L57.1569 750.246 L57.1569 731.797 M55.93 727.723 L61.8096 727.723 L61.8096 750.246 L66.7402 750.246 L66.7402 754.135 L61.8096 754.135 L61.8096 762.283 L57.1569 762.283 L57.1569 754.135 L41.5551 754.135 L41.5551 749.621 L55.93 727.723 Z" fill="#000000" fill-rule="nonzero" fill-opacity="1" /><path clip-path="url(#clip760)" d="M9.4025 371.305 Q5.79141 371.305 3.96272 374.87 Q2.15717 378.412 2.15717 385.541 Q2.15717 392.648 3.96272 396.213 Q5.79141 399.754 9.4025 399.754 Q13.0367 399.754 14.8423 396.213 Q16.671 392.648 16.671 385.541 Q16.671 378.412 14.8423 374.87 Q13.0367 371.305 9.4025 371.305 M9.4025 367.602 Q15.2127 367.602 18.2682 372.208 Q21.3469 376.791 21.3469 385.541 Q21.3469 394.268 18.2682 398.875 Q15.2127 403.458 9.4025 403.458 Q3.59235 403.458 0.51366 398.875 Q-2.54188 394.268 -2.54188 385.541 Q-2.54188 376.791 0.51366 372.208 Q3.59235 367.602 9.4025 367.602 Z" fill="#000000" fill-rule="nonzero" fill-opacity="1" /><path clip-path="url(#clip760)" d="M29.5644 396.907 L34.4487 396.907 L34.4487 402.787 L29.5644 402.787 L29.5644 396.907 Z" fill="#000000" fill-rule="nonzero" fill-opacity="1" /><path clip-path="url(#clip760)" d="M55.2124 383.643 Q52.0643 383.643 50.2125 385.796 Q48.3838 387.949 48.3838 391.699 Q48.3838 395.425 50.2125 397.601 Q52.0643 399.754 55.2124 399.754 Q58.3606 399.754 60.1893 397.601 Q62.0411 395.425 62.0411 391.699 Q62.0411 387.949 60.1893 385.796 Q58.3606 383.643 55.2124 383.643 M64.4948 368.99 L64.4948 373.25 Q62.7355 372.416 60.93 371.977 Q59.1476 371.537 57.3884 371.537 Q52.7588 371.537 50.3051 374.662 Q47.8745 377.787 47.5273 384.106 Q48.893 382.092 50.9532 381.027 Q53.0134 379.939 55.4902 379.939 Q60.6985 379.939 63.7078 383.111 Q66.7402 386.259 66.7402 391.699 Q66.7402 397.023 63.592 400.24 Q60.4439 403.458 55.2124 403.458 Q49.2171 403.458 46.0458 398.875 Q42.8745 394.268 42.8745 385.541 Q42.8745 377.347 46.7634 372.486 Q50.6523 367.602 57.2032 367.602 Q58.9624 367.602 60.7448 367.949 Q62.5504 368.296 64.4948 368.99 Z" fill="#000000" fill-rule="nonzero" fill-opacity="1" /><path clip-path="url(#clip760)" d="M-75.4019 790.638 Q-74.7017 788.57 -72.41 786.628 Q-70.1184 784.655 -66.108 782.681 L-53.122 776.156 L-53.122 783.063 L-65.3123 789.143 Q-70.0866 791.498 -71.6462 793.726 Q-73.2058 795.922 -73.2058 799.741 L-73.2058 806.744 L-53.122 806.744 L-53.122 813.173 L-100.642 813.173 L-100.642 798.659 Q-100.642 790.511 -97.2363 786.501 Q-93.8306 782.49 -86.9557 782.49 Q-82.4679 782.49 -79.5078 784.591 Q-76.5478 786.66 -75.4019 790.638 M-95.3584 806.744 L-78.4893 806.744 L-78.4893 798.659 Q-78.4893 794.012 -80.6218 791.657 Q-82.7861 789.27 -86.9557 789.27 Q-91.1252 789.27 -93.2259 791.657 Q-95.3584 794.012 -95.3584 798.659 L-95.3584 806.744 Z" fill="#000000" fill-rule="nonzero" fill-opacity="1" /><path clip-path="url(#clip760)" d="M-58.5328 761.77 L-58.5328 739.331 L-53.122 739.331 L-53.122 769.504 L-58.5328 769.504 Q-62.3204 765.844 -68.6861 759.542 Q-75.0836 753.208 -76.9297 751.585 Q-80.399 748.497 -82.7861 747.288 Q-85.2051 746.047 -87.5286 746.047 Q-91.3162 746.047 -93.7033 748.72 Q-96.0905 751.362 -96.0905 755.627 Q-96.0905 758.651 -95.0401 762.025 Q-93.9898 765.367 -91.8573 769.186 L-98.3503 769.186 Q-99.9099 765.303 -100.706 761.929 Q-101.501 758.555 -101.501 755.754 Q-101.501 748.37 -97.8092 743.978 Q-94.1171 739.585 -87.9424 739.585 Q-85.0141 739.585 -82.3724 740.699 Q-79.7624 741.782 -76.1976 744.678 Q-75.2746 745.474 -70.8504 749.739 Q-66.4581 754.004 -58.5328 761.77 Z" fill="#000000" fill-rule="nonzero" fill-opacity="1" /><polyline clip-path="url(#clip762)" style="stroke:#009af9; stroke-linecap:round; stroke-linejoin:round; stroke-width:4; stroke-opacity:1; fill:none" points="166.42,1464 237.175,294.628 307.93,211.793 378.685,172.214 449.441,144.106 520.196,116.452 590.951,110.196 661.706,99.1088 732.462,100.063 803.217,103.324 873.972,107.474 944.727,107.31 1015.48,109.744 1086.24,114.436 1156.99,119.076 1227.75,125.235 1298.5,131.845 1369.26,138.78 1440.01,145.203 1510.77,151.859 1581.52,151.156 1652.28,157.673 1723.03,166.85 "/>
<polyline clip-path="url(#clip762)" style="stroke:#e26f46; stroke-linecap:round; stroke-linejoin:round; stroke-width:4; stroke-opacity:1; fill:none" points="166.42,1464 237.175,298.511 307.93,218.652 378.685,181.923 449.441,150.148 520.196,112.908 590.951,102.448 661.706,96.4003 732.462,95.9647 803.217,89.6379 873.972,93.0688 944.727,88.5087 1015.48,92.5048 1086.24,94.9971 1156.99,93.6346 1227.75,95.4601 1298.5,94.1606 1369.26,95.6169 1440.01,92.6965 1510.77,91.1305 1581.52,93.5123 1652.28,97.1378 1723.03,104.009 1793.79,111.641 1864.54,121.927 1935.3,132.649 2006.06,140.109 2076.81,156.064 2147.57,172.458 2218.32,184.667 2289.08,198.45 "/>
<path clip-path="url(#clip760)" d="M1763.31 1456.66 L2277.76 1456.66 L2277.76 1301.14 L1763.31 1301.14  Z" fill="#ffffff" fill-rule="evenodd" fill-opacity="1"/>
<polyline clip-path="url(#clip760)" style="stroke:#000000; stroke-linecap:round; stroke-linejoin:round; stroke-width:4; stroke-opacity:1; fill:none" points="1763.31,1456.66 2277.76,1456.66 2277.76,1301.14 1763.31,1301.14 1763.31,1456.66 "/>
<polyline clip-path="url(#clip760)" style="stroke:#009af9; stroke-linecap:round; stroke-linejoin:round; stroke-width:4; stroke-opacity:1; fill:none" points="1788.31,1352.98 1938.31,1352.98 "/>
<path clip-path="url(#clip760)" d="M1983.66 1349.31 Q1985.26 1346.44 1987.48 1345.07 Q1989.7 1343.71 1992.71 1343.71 Q1996.76 1343.71 1998.96 1346.56 Q2001.16 1349.38 2001.16 1354.61 L2001.16 1370.26 L1996.88 1370.26 L1996.88 1354.75 Q1996.88 1351.02 1995.56 1349.22 Q1994.24 1347.41 1991.53 1347.41 Q1988.22 1347.41 1986.3 1349.61 Q1984.38 1351.81 1984.38 1355.61 L1984.38 1370.26 L1980.09 1370.26 L1980.09 1354.75 Q1980.09 1351 1978.78 1349.22 Q1977.46 1347.41 1974.7 1347.41 Q1971.44 1347.41 1969.52 1349.63 Q1967.59 1351.83 1967.59 1355.61 L1967.59 1370.26 L1963.31 1370.26 L1963.31 1344.33 L1967.59 1344.33 L1967.59 1348.36 Q1969.05 1345.98 1971.09 1344.84 Q1973.13 1343.71 1975.93 1343.71 Q1978.75 1343.71 1980.72 1345.14 Q1982.71 1346.58 1983.66 1349.31 Z" fill="#000000" fill-rule="nonzero" fill-opacity="1" /><path clip-path="url(#clip760)" d="M2021.44 1357.23 Q2016.27 1357.23 2014.28 1358.41 Q2012.29 1359.59 2012.29 1362.44 Q2012.29 1364.7 2013.78 1366.05 Q2015.28 1367.37 2017.85 1367.37 Q2021.39 1367.37 2023.52 1364.87 Q2025.67 1362.34 2025.67 1358.18 L2025.67 1357.23 L2021.44 1357.23 M2029.93 1355.47 L2029.93 1370.26 L2025.67 1370.26 L2025.67 1366.32 Q2024.21 1368.69 2022.04 1369.82 Q2019.86 1370.93 2016.71 1370.93 Q2012.73 1370.93 2010.37 1368.71 Q2008.03 1366.46 2008.03 1362.71 Q2008.03 1358.34 2010.95 1356.12 Q2013.89 1353.89 2019.7 1353.89 L2025.67 1353.89 L2025.67 1353.48 Q2025.67 1350.54 2023.73 1348.94 Q2021.81 1347.32 2018.31 1347.32 Q2016.09 1347.32 2013.98 1347.85 Q2011.88 1348.38 2009.93 1349.45 L2009.93 1345.51 Q2012.27 1344.61 2014.47 1344.17 Q2016.67 1343.71 2018.75 1343.71 Q2024.38 1343.71 2027.15 1346.63 Q2029.93 1349.54 2029.93 1355.47 Z" fill="#000000" fill-rule="nonzero" fill-opacity="1" /><path clip-path="url(#clip760)" d="M2060.26 1344.33 L2050.88 1356.95 L2060.74 1370.26 L2055.72 1370.26 L2048.17 1360.07 L2040.63 1370.26 L2035.6 1370.26 L2045.67 1356.69 L2036.46 1344.33 L2041.48 1344.33 L2048.36 1353.57 L2055.23 1344.33 L2060.26 1344.33 Z" fill="#000000" fill-rule="nonzero" fill-opacity="1" /><path clip-path="url(#clip760)" d="M2075.35 1347.32 Q2071.92 1347.32 2069.93 1350 Q2067.94 1352.67 2067.94 1357.32 Q2067.94 1361.97 2069.91 1364.66 Q2071.9 1367.32 2075.35 1367.32 Q2078.75 1367.32 2080.74 1364.63 Q2082.73 1361.95 2082.73 1357.32 Q2082.73 1352.71 2080.74 1350.03 Q2078.75 1347.32 2075.35 1347.32 M2075.35 1343.71 Q2080.9 1343.71 2084.08 1347.32 Q2087.25 1350.93 2087.25 1357.32 Q2087.25 1363.69 2084.08 1367.32 Q2080.9 1370.93 2075.35 1370.93 Q2069.77 1370.93 2066.6 1367.32 Q2063.45 1363.69 2063.45 1357.32 Q2063.45 1350.93 2066.6 1347.32 Q2069.77 1343.71 2075.35 1343.71 Z" fill="#000000" fill-rule="nonzero" fill-opacity="1" /><path clip-path="url(#clip760)" d="M2109.33 1348.31 Q2108.61 1347.9 2107.76 1347.71 Q2106.92 1347.5 2105.9 1347.5 Q2102.29 1347.5 2100.35 1349.87 Q2098.43 1352.2 2098.43 1356.6 L2098.43 1370.26 L2094.14 1370.26 L2094.14 1344.33 L2098.43 1344.33 L2098.43 1348.36 Q2099.77 1346 2101.92 1344.87 Q2104.08 1343.71 2107.15 1343.71 Q2107.59 1343.71 2108.13 1343.78 Q2108.66 1343.82 2109.31 1343.94 L2109.33 1348.31 Z" fill="#000000" fill-rule="nonzero" fill-opacity="1" /><path clip-path="url(#clip760)" d="M2130.02 1348.27 L2130.02 1334.24 L2134.28 1334.24 L2134.28 1370.26 L2130.02 1370.26 L2130.02 1366.37 Q2128.68 1368.69 2126.62 1369.82 Q2124.58 1370.93 2121.71 1370.93 Q2117.02 1370.93 2114.05 1367.18 Q2111.11 1363.43 2111.11 1357.32 Q2111.11 1351.21 2114.05 1347.46 Q2117.02 1343.71 2121.71 1343.71 Q2124.58 1343.71 2126.62 1344.84 Q2128.68 1345.95 2130.02 1348.27 M2115.51 1357.32 Q2115.51 1362.02 2117.43 1364.7 Q2119.38 1367.37 2122.76 1367.37 Q2126.14 1367.37 2128.08 1364.7 Q2130.02 1362.02 2130.02 1357.32 Q2130.02 1352.62 2128.08 1349.96 Q2126.14 1347.27 2122.76 1347.27 Q2119.38 1347.27 2117.43 1349.96 Q2115.51 1352.62 2115.51 1357.32 Z" fill="#000000" fill-rule="nonzero" fill-opacity="1" /><path clip-path="url(#clip760)" d="M2165.23 1356.23 L2165.23 1358.31 L2145.65 1358.31 Q2145.93 1362.71 2148.29 1365.03 Q2150.67 1367.32 2154.91 1367.32 Q2157.36 1367.32 2159.65 1366.72 Q2161.97 1366.12 2164.24 1364.91 L2164.24 1368.94 Q2161.95 1369.91 2159.54 1370.42 Q2157.13 1370.93 2154.65 1370.93 Q2148.45 1370.93 2144.82 1367.32 Q2141.2 1363.71 2141.2 1357.55 Q2141.2 1351.19 2144.63 1347.46 Q2148.08 1343.71 2153.91 1343.71 Q2159.14 1343.71 2162.18 1347.09 Q2165.23 1350.44 2165.23 1356.23 M2160.97 1354.98 Q2160.93 1351.49 2159.01 1349.4 Q2157.11 1347.32 2153.96 1347.32 Q2150.39 1347.32 2148.24 1349.33 Q2146.11 1351.35 2145.79 1355 L2160.97 1354.98 Z" fill="#000000" fill-rule="nonzero" fill-opacity="1" /><path clip-path="url(#clip760)" d="M2187.25 1348.31 Q2186.53 1347.9 2185.67 1347.71 Q2184.84 1347.5 2183.82 1347.5 Q2180.21 1347.5 2178.26 1349.87 Q2176.34 1352.2 2176.34 1356.6 L2176.34 1370.26 L2172.06 1370.26 L2172.06 1344.33 L2176.34 1344.33 L2176.34 1348.36 Q2177.69 1346 2179.84 1344.87 Q2181.99 1343.71 2185.07 1343.71 Q2185.51 1343.71 2186.04 1343.78 Q2186.58 1343.82 2187.22 1343.94 L2187.25 1348.31 Z" fill="#000000" fill-rule="nonzero" fill-opacity="1" /><path clip-path="url(#clip760)" d="M2192.27 1348.73 L2221.95 1348.73 L2221.95 1352.62 L2192.27 1352.62 L2192.27 1348.73 M2192.27 1358.18 L2221.95 1358.18 L2221.95 1362.11 L2192.27 1362.11 L2192.27 1358.18 Z" fill="#000000" fill-rule="nonzero" fill-opacity="1" /><path clip-path="url(#clip760)" d="M2232.85 1366.32 L2240.49 1366.32 L2240.49 1339.96 L2232.18 1341.63 L2232.18 1337.37 L2240.44 1335.7 L2245.12 1335.7 L2245.12 1366.32 L2252.76 1366.32 L2252.76 1370.26 L2232.85 1370.26 L2232.85 1366.32 Z" fill="#000000" fill-rule="nonzero" fill-opacity="1" /><polyline clip-path="url(#clip760)" style="stroke:#e26f46; stroke-linecap:round; stroke-linejoin:round; stroke-width:4; stroke-opacity:1; fill:none" points="1788.31,1404.82 1938.31,1404.82 "/>
<path clip-path="url(#clip760)" d="M1983.66 1401.15 Q1985.26 1398.28 1987.48 1396.91 Q1989.7 1395.55 1992.71 1395.55 Q1996.76 1395.55 1998.96 1398.4 Q2001.16 1401.22 2001.16 1406.45 L2001.16 1422.1 L1996.88 1422.1 L1996.88 1406.59 Q1996.88 1402.86 1995.56 1401.06 Q1994.24 1399.25 1991.53 1399.25 Q1988.22 1399.25 1986.3 1401.45 Q1984.38 1403.65 1984.38 1407.45 L1984.38 1422.1 L1980.09 1422.1 L1980.09 1406.59 Q1980.09 1402.84 1978.78 1401.06 Q1977.46 1399.25 1974.7 1399.25 Q1971.44 1399.25 1969.52 1401.47 Q1967.59 1403.67 1967.59 1407.45 L1967.59 1422.1 L1963.31 1422.1 L1963.31 1396.17 L1967.59 1396.17 L1967.59 1400.2 Q1969.05 1397.82 1971.09 1396.68 Q1973.13 1395.55 1975.93 1395.55 Q1978.75 1395.55 1980.72 1396.98 Q1982.71 1398.42 1983.66 1401.15 Z" fill="#000000" fill-rule="nonzero" fill-opacity="1" /><path clip-path="url(#clip760)" d="M2021.44 1409.07 Q2016.27 1409.07 2014.28 1410.25 Q2012.29 1411.43 2012.29 1414.28 Q2012.29 1416.54 2013.78 1417.89 Q2015.28 1419.21 2017.85 1419.21 Q2021.39 1419.21 2023.52 1416.71 Q2025.67 1414.18 2025.67 1410.02 L2025.67 1409.07 L2021.44 1409.07 M2029.93 1407.31 L2029.93 1422.1 L2025.67 1422.1 L2025.67 1418.16 Q2024.21 1420.53 2022.04 1421.66 Q2019.86 1422.77 2016.71 1422.77 Q2012.73 1422.77 2010.37 1420.55 Q2008.03 1418.3 2008.03 1414.55 Q2008.03 1410.18 2010.95 1407.96 Q2013.89 1405.73 2019.7 1405.73 L2025.67 1405.73 L2025.67 1405.32 Q2025.67 1402.38 2023.73 1400.78 Q2021.81 1399.16 2018.31 1399.16 Q2016.09 1399.16 2013.98 1399.69 Q2011.88 1400.22 2009.93 1401.29 L2009.93 1397.35 Q2012.27 1396.45 2014.47 1396.01 Q2016.67 1395.55 2018.75 1395.55 Q2024.38 1395.55 2027.15 1398.47 Q2029.93 1401.38 2029.93 1407.31 Z" fill="#000000" fill-rule="nonzero" fill-opacity="1" /><path clip-path="url(#clip760)" d="M2060.26 1396.17 L2050.88 1408.79 L2060.74 1422.1 L2055.72 1422.1 L2048.17 1411.91 L2040.63 1422.1 L2035.6 1422.1 L2045.67 1408.53 L2036.46 1396.17 L2041.48 1396.17 L2048.36 1405.41 L2055.23 1396.17 L2060.26 1396.17 Z" fill="#000000" fill-rule="nonzero" fill-opacity="1" /><path clip-path="url(#clip760)" d="M2075.35 1399.16 Q2071.92 1399.16 2069.93 1401.84 Q2067.94 1404.51 2067.94 1409.16 Q2067.94 1413.81 2069.91 1416.5 Q2071.9 1419.16 2075.35 1419.16 Q2078.75 1419.16 2080.74 1416.47 Q2082.73 1413.79 2082.73 1409.16 Q2082.73 1404.55 2080.74 1401.87 Q2078.75 1399.16 2075.35 1399.16 M2075.35 1395.55 Q2080.9 1395.55 2084.08 1399.16 Q2087.25 1402.77 2087.25 1409.16 Q2087.25 1415.53 2084.08 1419.16 Q2080.9 1422.77 2075.35 1422.77 Q2069.77 1422.77 2066.6 1419.16 Q2063.45 1415.53 2063.45 1409.16 Q2063.45 1402.77 2066.6 1399.16 Q2069.77 1395.55 2075.35 1395.55 Z" fill="#000000" fill-rule="nonzero" fill-opacity="1" /><path clip-path="url(#clip760)" d="M2109.33 1400.15 Q2108.61 1399.74 2107.76 1399.55 Q2106.92 1399.34 2105.9 1399.34 Q2102.29 1399.34 2100.35 1401.71 Q2098.43 1404.04 2098.43 1408.44 L2098.43 1422.1 L2094.14 1422.1 L2094.14 1396.17 L2098.43 1396.17 L2098.43 1400.2 Q2099.77 1397.84 2101.92 1396.71 Q2104.08 1395.55 2107.15 1395.55 Q2107.59 1395.55 2108.13 1395.62 Q2108.66 1395.66 2109.31 1395.78 L2109.33 1400.15 Z" fill="#000000" fill-rule="nonzero" fill-opacity="1" /><path clip-path="url(#clip760)" d="M2130.02 1400.11 L2130.02 1386.08 L2134.28 1386.08 L2134.28 1422.1 L2130.02 1422.1 L2130.02 1418.21 Q2128.68 1420.53 2126.62 1421.66 Q2124.58 1422.77 2121.71 1422.77 Q2117.02 1422.77 2114.05 1419.02 Q2111.11 1415.27 2111.11 1409.16 Q2111.11 1403.05 2114.05 1399.3 Q2117.02 1395.55 2121.71 1395.55 Q2124.58 1395.55 2126.62 1396.68 Q2128.68 1397.79 2130.02 1400.11 M2115.51 1409.16 Q2115.51 1413.86 2117.43 1416.54 Q2119.38 1419.21 2122.76 1419.21 Q2126.14 1419.21 2128.08 1416.54 Q2130.02 1413.86 2130.02 1409.16 Q2130.02 1404.46 2128.08 1401.8 Q2126.14 1399.11 2122.76 1399.11 Q2119.38 1399.11 2117.43 1401.8 Q2115.51 1404.46 2115.51 1409.16 Z" fill="#000000" fill-rule="nonzero" fill-opacity="1" /><path clip-path="url(#clip760)" d="M2165.23 1408.07 L2165.23 1410.15 L2145.65 1410.15 Q2145.93 1414.55 2148.29 1416.87 Q2150.67 1419.16 2154.91 1419.16 Q2157.36 1419.16 2159.65 1418.56 Q2161.97 1417.96 2164.24 1416.75 L2164.24 1420.78 Q2161.95 1421.75 2159.54 1422.26 Q2157.13 1422.77 2154.65 1422.77 Q2148.45 1422.77 2144.82 1419.16 Q2141.2 1415.55 2141.2 1409.39 Q2141.2 1403.03 2144.63 1399.3 Q2148.08 1395.55 2153.91 1395.55 Q2159.14 1395.55 2162.18 1398.93 Q2165.23 1402.28 2165.23 1408.07 M2160.97 1406.82 Q2160.93 1403.33 2159.01 1401.24 Q2157.11 1399.16 2153.96 1399.16 Q2150.39 1399.16 2148.24 1401.17 Q2146.11 1403.19 2145.79 1406.84 L2160.97 1406.82 Z" fill="#000000" fill-rule="nonzero" fill-opacity="1" /><path clip-path="url(#clip760)" d="M2187.25 1400.15 Q2186.53 1399.74 2185.67 1399.55 Q2184.84 1399.34 2183.82 1399.34 Q2180.21 1399.34 2178.26 1401.71 Q2176.34 1404.04 2176.34 1408.44 L2176.34 1422.1 L2172.06 1422.1 L2172.06 1396.17 L2176.34 1396.17 L2176.34 1400.2 Q2177.69 1397.84 2179.84 1396.71 Q2181.99 1395.55 2185.07 1395.55 Q2185.51 1395.55 2186.04 1395.62 Q2186.58 1395.66 2187.22 1395.78 L2187.25 1400.15 Z" fill="#000000" fill-rule="nonzero" fill-opacity="1" /><path clip-path="url(#clip760)" d="M2192.27 1400.57 L2221.95 1400.57 L2221.95 1404.46 L2192.27 1404.46 L2192.27 1400.57 M2192.27 1410.02 L2221.95 1410.02 L2221.95 1413.95 L2192.27 1413.95 L2192.27 1410.02 Z" fill="#000000" fill-rule="nonzero" fill-opacity="1" /><path clip-path="url(#clip760)" d="M2236.07 1418.16 L2252.38 1418.16 L2252.38 1422.1 L2230.44 1422.1 L2230.44 1418.16 Q2233.1 1415.41 2237.69 1410.78 Q2242.29 1406.13 2243.47 1404.78 Q2245.72 1402.26 2246.6 1400.53 Q2247.5 1398.77 2247.5 1397.08 Q2247.5 1394.32 2245.56 1392.59 Q2243.63 1390.85 2240.53 1390.85 Q2238.33 1390.85 2235.88 1391.61 Q2233.45 1392.38 2230.67 1393.93 L2230.67 1389.21 Q2233.5 1388.07 2235.95 1387.49 Q2238.4 1386.91 2240.44 1386.91 Q2245.81 1386.91 2249.01 1389.6 Q2252.2 1392.28 2252.2 1396.78 Q2252.2 1398.9 2251.39 1400.83 Q2250.6 1402.72 2248.5 1405.32 Q2247.92 1405.99 2244.82 1409.21 Q2241.71 1412.4 2236.07 1418.16 Z" fill="#000000" fill-rule="nonzero" fill-opacity="1" /></svg>
