<?xml version="1.0" encoding="utf-8"?>
<svg xmlns="http://www.w3.org/2000/svg" xmlns:xlink="http://www.w3.org/1999/xlink" width="600" height="400" viewBox="0 0 2400 1600">
<defs>
  <clipPath id="clip790">
    <rect x="0" y="0" width="2400" height="1600"/>
  </clipPath>
</defs>
<path clip-path="url(#clip790)" d="M0 1600 L2400 1600 L2400 0 L0 0  Z" fill="#ffffff" fill-rule="evenodd" fill-opacity="1"/>
<defs>
  <clipPath id="clip791">
    <rect x="480" y="0" width="1681" height="1600"/>
  </clipPath>
</defs>
<path clip-path="url(#clip790)" d="M247.459 1423.18 L2352.76 1423.18 L2352.76 47.2441 L247.459 47.2441  Z" fill="#ffffff" fill-rule="evenodd" fill-opacity="1"/>
<defs>
  <clipPath id="clip792">
    <rect x="247" y="47" width="2106" height="1377"/>
  </clipPath>
</defs>
<polyline clip-path="url(#clip792)" style="stroke:#000000; stroke-linecap:round; stroke-linejoin:round; stroke-width:2; stroke-opacity:0.1; fill:none" points="679.79,1423.18 679.79,47.2441 "/>
<polyline clip-path="url(#clip792)" style="stroke:#000000; stroke-linecap:round; stroke-linejoin:round; stroke-width:2; stroke-opacity:0.1; fill:none" points="1236.13,1423.18 1236.13,47.2441 "/>
<polyline clip-path="url(#clip792)" style="stroke:#000000; stroke-linecap:round; stroke-linejoin:round; stroke-width:2; stroke-opacity:0.1; fill:none" points="1792.47,1423.18 1792.47,47.2441 "/>
<polyline clip-path="url(#clip792)" style="stroke:#000000; stroke-linecap:round; stroke-linejoin:round; stroke-width:2; stroke-opacity:0.1; fill:none" points="2348.81,1423.18 2348.81,47.2441 "/>
<polyline clip-path="url(#clip790)" style="stroke:#000000; stroke-linecap:round; stroke-linejoin:round; stroke-width:4; stroke-opacity:1; fill:none" points="247.459,1423.18 2352.76,1423.18 "/>
<polyline clip-path="url(#clip790)" style="stroke:#000000; stroke-linecap:round; stroke-linejoin:round; stroke-width:4; stroke-opacity:1; fill:none" points="679.79,1423.18 679.79,1404.28 "/>
<polyline clip-path="url(#clip790)" style="stroke:#000000; stroke-linecap:round; stroke-linejoin:round; stroke-width:4; stroke-opacity:1; fill:none" points="1236.13,1423.18 1236.13,1404.28 "/>
<polyline clip-path="url(#clip790)" style="stroke:#000000; stroke-linecap:round; stroke-linejoin:round; stroke-width:4; stroke-opacity:1; fill:none" points="1792.47,1423.18 1792.47,1404.28 "/>
<polyline clip-path="url(#clip790)" style="stroke:#000000; stroke-linecap:round; stroke-linejoin:round; stroke-width:4; stroke-opacity:1; fill:none" points="2348.81,1423.18 2348.81,1404.28 "/>
<path clip-path="url(#clip790)" d="M639.396 1481.64 L647.035 1481.64 L647.035 1455.28 L638.725 1456.95 L638.725 1452.69 L646.989 1451.02 L651.665 1451.02 L651.665 1481.64 L659.304 1481.64 L659.304 1485.58 L639.396 1485.58 L639.396 1481.64 Z" fill="#000000" fill-rule="nonzero" fill-opacity="1" /><path clip-path="url(#clip790)" d="M678.748 1454.1 Q675.137 1454.1 673.308 1457.66 Q671.503 1461.2 671.503 1468.33 Q671.503 1475.44 673.308 1479.01 Q675.137 1482.55 678.748 1482.55 Q682.382 1482.55 684.188 1479.01 Q686.016 1475.44 686.016 1468.33 Q686.016 1461.2 684.188 1457.66 Q682.382 1454.1 678.748 1454.1 M678.748 1450.39 Q684.558 1450.39 687.614 1455 Q690.692 1459.58 690.692 1468.33 Q690.692 1477.06 687.614 1481.67 Q684.558 1486.25 678.748 1486.25 Q672.938 1486.25 669.859 1481.67 Q666.804 1477.06 666.804 1468.33 Q666.804 1459.58 669.859 1455 Q672.938 1450.39 678.748 1450.39 Z" fill="#000000" fill-rule="nonzero" fill-opacity="1" /><path clip-path="url(#clip790)" d="M708.91 1454.1 Q705.299 1454.1 703.47 1457.66 Q701.664 1461.2 701.664 1468.33 Q701.664 1475.44 703.47 1479.01 Q705.299 1482.55 708.91 1482.55 Q712.544 1482.55 714.35 1479.01 Q716.178 1475.44 716.178 1468.33 Q716.178 1461.2 714.35 1457.66 Q712.544 1454.1 708.91 1454.1 M708.91 1450.39 Q714.72 1450.39 717.775 1455 Q720.854 1459.58 720.854 1468.33 Q720.854 1477.06 717.775 1481.67 Q714.72 1486.25 708.91 1486.25 Q703.1 1486.25 700.021 1481.67 Q696.965 1477.06 696.965 1468.33 Q696.965 1459.58 700.021 1455 Q703.1 1450.39 708.91 1450.39 Z" fill="#000000" fill-rule="nonzero" fill-opacity="1" /><path clip-path="url(#clip790)" d="M1199.82 1481.64 L1216.14 1481.64 L1216.14 1485.58 L1194.2 1485.58 L1194.2 1481.64 Q1196.86 1478.89 1201.44 1474.26 Q1206.05 1469.61 1207.23 1468.27 Q1209.47 1465.74 1210.35 1464.01 Q1211.26 1462.25 1211.26 1460.56 Q1211.26 1457.8 1209.31 1456.07 Q1207.39 1454.33 1204.29 1454.33 Q1202.09 1454.33 1199.64 1455.09 Q1197.2 1455.86 1194.43 1457.41 L1194.43 1452.69 Q1197.25 1451.55 1199.7 1450.97 Q1202.16 1450.39 1204.2 1450.39 Q1209.57 1450.39 1212.76 1453.08 Q1215.95 1455.77 1215.95 1460.26 Q1215.95 1462.39 1215.14 1464.31 Q1214.36 1466.2 1212.25 1468.8 Q1211.67 1469.47 1208.57 1472.69 Q1205.47 1475.88 1199.82 1481.64 Z" fill="#000000" fill-rule="nonzero" fill-opacity="1" /><path clip-path="url(#clip790)" d="M1235.95 1454.1 Q1232.34 1454.1 1230.51 1457.66 Q1228.71 1461.2 1228.71 1468.33 Q1228.71 1475.44 1230.51 1479.01 Q1232.34 1482.55 1235.95 1482.55 Q1239.59 1482.55 1241.39 1479.01 Q1243.22 1475.44 1243.22 1468.33 Q1243.22 1461.2 1241.39 1457.66 Q1239.59 1454.1 1235.95 1454.1 M1235.95 1450.39 Q1241.76 1450.39 1244.82 1455 Q1247.9 1459.58 1247.9 1468.33 Q1247.9 1477.06 1244.82 1481.67 Q1241.76 1486.25 1235.95 1486.25 Q1230.14 1486.25 1227.07 1481.67 Q1224.01 1477.06 1224.01 1468.33 Q1224.01 1459.58 1227.07 1455 Q1230.14 1450.39 1235.95 1450.39 Z" fill="#000000" fill-rule="nonzero" fill-opacity="1" /><path clip-path="url(#clip790)" d="M1266.12 1454.1 Q1262.51 1454.1 1260.68 1457.66 Q1258.87 1461.2 1258.87 1468.33 Q1258.87 1475.44 1260.68 1479.01 Q1262.51 1482.55 1266.12 1482.55 Q1269.75 1482.55 1271.56 1479.01 Q1273.39 1475.44 1273.39 1468.33 Q1273.39 1461.2 1271.56 1457.66 Q1269.75 1454.1 1266.12 1454.1 M1266.12 1450.39 Q1271.93 1450.39 1274.98 1455 Q1278.06 1459.58 1278.06 1468.33 Q1278.06 1477.06 1274.98 1481.67 Q1271.93 1486.25 1266.12 1486.25 Q1260.31 1486.25 1257.23 1481.67 Q1254.17 1477.06 1254.17 1468.33 Q1254.17 1459.58 1257.23 1455 Q1260.31 1450.39 1266.12 1450.39 Z" fill="#000000" fill-rule="nonzero" fill-opacity="1" /><path clip-path="url(#clip790)" d="M1766.23 1466.95 Q1769.59 1467.66 1771.46 1469.93 Q1773.36 1472.2 1773.36 1475.53 Q1773.36 1480.65 1769.84 1483.45 Q1766.32 1486.25 1759.84 1486.25 Q1757.66 1486.25 1755.35 1485.81 Q1753.06 1485.39 1750.6 1484.54 L1750.6 1480.02 Q1752.55 1481.16 1754.86 1481.74 Q1757.18 1482.32 1759.7 1482.32 Q1764.1 1482.32 1766.39 1480.58 Q1768.71 1478.84 1768.71 1475.53 Q1768.71 1472.48 1766.55 1470.77 Q1764.42 1469.03 1760.6 1469.03 L1756.58 1469.03 L1756.58 1465.19 L1760.79 1465.19 Q1764.24 1465.19 1766.07 1463.82 Q1767.9 1462.43 1767.9 1459.84 Q1767.9 1457.18 1766 1455.77 Q1764.12 1454.33 1760.6 1454.33 Q1758.68 1454.33 1756.48 1454.75 Q1754.28 1455.16 1751.65 1456.04 L1751.65 1451.88 Q1754.31 1451.14 1756.62 1450.77 Q1758.96 1450.39 1761.02 1450.39 Q1766.34 1450.39 1769.45 1452.83 Q1772.55 1455.23 1772.55 1459.35 Q1772.55 1462.22 1770.9 1464.21 Q1769.26 1466.18 1766.23 1466.95 Z" fill="#000000" fill-rule="nonzero" fill-opacity="1" /><path clip-path="url(#clip790)" d="M1792.22 1454.1 Q1788.61 1454.1 1786.78 1457.66 Q1784.98 1461.2 1784.98 1468.33 Q1784.98 1475.44 1786.78 1479.01 Q1788.61 1482.55 1792.22 1482.55 Q1795.86 1482.55 1797.66 1479.01 Q1799.49 1475.44 1799.49 1468.33 Q1799.49 1461.2 1797.66 1457.66 Q1795.86 1454.1 1792.22 1454.1 M1792.22 1450.39 Q1798.03 1450.39 1801.09 1455 Q1804.17 1459.58 1804.17 1468.33 Q1804.17 1477.06 1801.09 1481.67 Q1798.03 1486.25 1792.22 1486.25 Q1786.41 1486.25 1783.34 1481.67 Q1780.28 1477.06 1780.28 1468.33 Q1780.28 1459.58 1783.34 1455 Q1786.41 1450.39 1792.22 1450.39 Z" fill="#000000" fill-rule="nonzero" fill-opacity="1" /><path clip-path="url(#clip790)" d="M1822.39 1454.1 Q1818.77 1454.1 1816.95 1457.66 Q1815.14 1461.2 1815.14 1468.33 Q1815.14 1475.44 1816.95 1479.01 Q1818.77 1482.55 1822.39 1482.55 Q1826.02 1482.55 1827.83 1479.01 Q1829.65 1475.44 1829.65 1468.33 Q1829.65 1461.2 1827.83 1457.66 Q1826.02 1454.1 1822.39 1454.1 M1822.39 1450.39 Q1828.2 1450.39 1831.25 1455 Q1834.33 1459.58 1834.33 1468.33 Q1834.33 1477.06 1831.25 1481.67 Q1828.2 1486.25 1822.39 1486.25 Q1816.58 1486.25 1813.5 1481.67 Q1810.44 1477.06 1810.44 1468.33 Q1810.44 1459.58 1813.5 1455 Q1816.58 1450.39 1822.39 1450.39 Z" fill="#000000" fill-rule="nonzero" fill-opacity="1" /><path clip-path="url(#clip790)" d="M2321.9 1455.09 L2310.09 1473.54 L2321.9 1473.54 L2321.9 1455.09 M2320.67 1451.02 L2326.55 1451.02 L2326.55 1473.54 L2331.48 1473.54 L2331.48 1477.43 L2326.55 1477.43 L2326.55 1485.58 L2321.9 1485.58 L2321.9 1477.43 L2306.29 1477.43 L2306.29 1472.92 L2320.67 1451.02 Z" fill="#000000" fill-rule="nonzero" fill-opacity="1" /><path clip-path="url(#clip790)" d="M2349.21 1454.1 Q2345.6 1454.1 2343.77 1457.66 Q2341.97 1461.2 2341.97 1468.33 Q2341.97 1475.44 2343.77 1479.01 Q2345.6 1482.55 2349.21 1482.55 Q2352.85 1482.55 2354.65 1479.01 Q2356.48 1475.44 2356.48 1468.33 Q2356.48 1461.2 2354.65 1457.66 Q2352.85 1454.1 2349.21 1454.1 M2349.21 1450.39 Q2355.02 1450.39 2358.08 1455 Q2361.16 1459.58 2361.16 1468.33 Q2361.16 1477.06 2358.08 1481.67 Q2355.02 1486.25 2349.21 1486.25 Q2343.4 1486.25 2340.32 1481.67 Q2337.27 1477.06 2337.27 1468.33 Q2337.27 1459.58 2340.32 1455 Q2343.4 1450.39 2349.21 1450.39 Z" fill="#000000" fill-rule="nonzero" fill-opacity="1" /><path clip-path="url(#clip790)" d="M2379.37 1454.1 Q2375.76 1454.1 2373.93 1457.66 Q2372.13 1461.2 2372.13 1468.33 Q2372.13 1475.44 2373.93 1479.01 Q2375.76 1482.55 2379.37 1482.55 Q2383.01 1482.55 2384.81 1479.01 Q2386.64 1475.44 2386.64 1468.33 Q2386.64 1461.2 2384.81 1457.66 Q2383.01 1454.1 2379.37 1454.1 M2379.37 1450.39 Q2385.18 1450.39 2388.24 1455 Q2391.32 1459.58 2391.32 1468.33 Q2391.32 1477.06 2388.24 1481.67 Q2385.18 1486.25 2379.37 1486.25 Q2373.56 1486.25 2370.48 1481.67 Q2367.43 1477.06 2367.43 1468.33 Q2367.43 1459.58 2370.48 1455 Q2373.56 1450.39 2379.37 1450.39 Z" fill="#000000" fill-rule="nonzero" fill-opacity="1" /><path clip-path="url(#clip790)" d="M1268.96 1537.81 L1268.96 1518.52 L1274.82 1518.52 L1274.82 1568.04 L1268.96 1568.04 L1268.96 1562.7 Q1267.12 1565.88 1264.28 1567.44 Q1261.48 1568.97 1257.54 1568.97 Q1251.08 1568.97 1247 1563.81 Q1242.96 1558.65 1242.96 1550.25 Q1242.96 1541.85 1247 1536.69 Q1251.08 1531.54 1257.54 1531.54 Q1261.48 1531.54 1264.28 1533.1 Q1267.12 1534.62 1268.96 1537.81 M1249.01 1550.25 Q1249.01 1556.71 1251.65 1560.4 Q1254.32 1564.07 1258.97 1564.07 Q1263.62 1564.07 1266.29 1560.4 Q1268.96 1556.71 1268.96 1550.25 Q1268.96 1543.79 1266.29 1540.13 Q1263.62 1536.44 1258.97 1536.44 Q1254.32 1536.44 1251.65 1540.13 Q1249.01 1543.79 1249.01 1550.25 Z" fill="#000000" fill-rule="nonzero" fill-opacity="1" /><path clip-path="url(#clip790)" d="M1300.7 1536.5 Q1295.99 1536.5 1293.25 1540.19 Q1290.51 1543.85 1290.51 1550.25 Q1290.51 1556.65 1293.22 1560.34 Q1295.95 1564 1300.7 1564 Q1305.37 1564 1308.11 1560.31 Q1310.85 1556.62 1310.85 1550.25 Q1310.85 1543.92 1308.11 1540.23 Q1305.37 1536.5 1300.7 1536.5 M1300.7 1531.54 Q1308.33 1531.54 1312.7 1536.5 Q1317.06 1541.47 1317.06 1550.25 Q1317.06 1559 1312.7 1564 Q1308.33 1568.97 1300.7 1568.97 Q1293.03 1568.97 1288.66 1564 Q1284.34 1559 1284.34 1550.25 Q1284.34 1541.47 1288.66 1536.5 Q1293.03 1531.54 1300.7 1531.54 Z" fill="#000000" fill-rule="nonzero" fill-opacity="1" /><path clip-path="url(#clip790)" d="M1341.6 1571.35 Q1339.11 1577.72 1336.76 1579.66 Q1334.4 1581.6 1330.46 1581.6 L1325.78 1581.6 L1325.78 1576.7 L1329.21 1576.7 Q1331.63 1576.7 1332.97 1575.56 Q1334.31 1574.41 1335.93 1570.14 L1336.98 1567.47 L1322.56 1532.4 L1328.77 1532.4 L1339.91 1560.28 L1351.05 1532.4 L1357.26 1532.4 L1341.6 1571.35 Z" fill="#000000" fill-rule="nonzero" fill-opacity="1" /><polyline clip-path="url(#clip792)" style="stroke:#000000; stroke-linecap:round; stroke-linejoin:round; stroke-width:2; stroke-opacity:0.1; fill:none" points="247.459,1328.59 2352.76,1328.59 "/>
<polyline clip-path="url(#clip792)" style="stroke:#000000; stroke-linecap:round; stroke-linejoin:round; stroke-width:2; stroke-opacity:0.1; fill:none" points="247.459,1042.13 2352.76,1042.13 "/>
<polyline clip-path="url(#clip792)" style="stroke:#000000; stroke-linecap:round; stroke-linejoin:round; stroke-width:2; stroke-opacity:0.1; fill:none" points="247.459,755.677 2352.76,755.677 "/>
<polyline clip-path="url(#clip792)" style="stroke:#000000; stroke-linecap:round; stroke-linejoin:round; stroke-width:2; stroke-opacity:0.1; fill:none" points="247.459,469.223 2352.76,469.223 "/>
<polyline clip-path="url(#clip792)" style="stroke:#000000; stroke-linecap:round; stroke-linejoin:round; stroke-width:2; stroke-opacity:0.1; fill:none" points="247.459,182.768 2352.76,182.768 "/>
<polyline clip-path="url(#clip790)" style="stroke:#000000; stroke-linecap:round; stroke-linejoin:round; stroke-width:4; stroke-opacity:1; fill:none" points="247.459,1423.18 247.459,47.2441 "/>
<polyline clip-path="url(#clip790)" style="stroke:#000000; stroke-linecap:round; stroke-linejoin:round; stroke-width:4; stroke-opacity:1; fill:none" points="247.459,1328.59 266.356,1328.59 "/>
<polyline clip-path="url(#clip790)" style="stroke:#000000; stroke-linecap:round; stroke-linejoin:round; stroke-width:4; stroke-opacity:1; fill:none" points="247.459,1042.13 266.356,1042.13 "/>
<polyline clip-path="url(#clip790)" style="stroke:#000000; stroke-linecap:round; stroke-linejoin:round; stroke-width:4; stroke-opacity:1; fill:none" points="247.459,755.677 266.356,755.677 "/>
<polyline clip-path="url(#clip790)" style="stroke:#000000; stroke-linecap:round; stroke-linejoin:round; stroke-width:4; stroke-opacity:1; fill:none" points="247.459,469.223 266.356,469.223 "/>
<polyline clip-path="url(#clip790)" style="stroke:#000000; stroke-linecap:round; stroke-linejoin:round; stroke-width:4; stroke-opacity:1; fill:none" points="247.459,182.768 266.356,182.768 "/>
<path clip-path="url(#clip790)" d="M144.098 1311.31 L166.32 1311.31 L166.32 1313.3 L153.774 1345.87 L148.89 1345.87 L160.695 1315.24 L144.098 1315.24 L144.098 1311.31 Z" fill="#000000" fill-rule="nonzero" fill-opacity="1" /><path clip-path="url(#clip790)" d="M175.44 1339.99 L180.325 1339.99 L180.325 1345.87 L175.44 1345.87 L175.44 1339.99 Z" fill="#000000" fill-rule="nonzero" fill-opacity="1" /><path clip-path="url(#clip790)" d="M190.556 1311.31 L208.912 1311.31 L208.912 1315.24 L194.838 1315.24 L194.838 1323.71 Q195.857 1323.37 196.875 1323.2 Q197.894 1323.02 198.912 1323.02 Q204.699 1323.02 208.079 1326.19 Q211.459 1329.36 211.459 1334.78 Q211.459 1340.36 207.987 1343.46 Q204.514 1346.54 198.195 1346.54 Q196.019 1346.54 193.75 1346.17 Q191.505 1345.8 189.098 1345.06 L189.098 1340.36 Q191.181 1341.49 193.403 1342.05 Q195.625 1342.6 198.102 1342.6 Q202.107 1342.6 204.445 1340.5 Q206.783 1338.39 206.783 1334.78 Q206.783 1331.17 204.445 1329.06 Q202.107 1326.95 198.102 1326.95 Q196.227 1326.95 194.352 1327.37 Q192.5 1327.79 190.556 1328.67 L190.556 1311.31 Z" fill="#000000" fill-rule="nonzero" fill-opacity="1" /><path clip-path="url(#clip790)" d="M114.931 1055.48 L122.57 1055.48 L122.57 1029.11 L114.26 1030.78 L114.26 1026.52 L122.524 1024.85 L127.2 1024.85 L127.2 1055.48 L134.839 1055.48 L134.839 1059.41 L114.931 1059.41 L114.931 1055.48 Z" fill="#000000" fill-rule="nonzero" fill-opacity="1" /><path clip-path="url(#clip790)" d="M154.283 1027.93 Q150.672 1027.93 148.843 1031.49 Q147.038 1035.04 147.038 1042.17 Q147.038 1049.27 148.843 1052.84 Q150.672 1056.38 154.283 1056.38 Q157.917 1056.38 159.723 1052.84 Q161.552 1049.27 161.552 1042.17 Q161.552 1035.04 159.723 1031.49 Q157.917 1027.93 154.283 1027.93 M154.283 1024.23 Q160.093 1024.23 163.149 1028.83 Q166.227 1033.42 166.227 1042.17 Q166.227 1050.89 163.149 1055.5 Q160.093 1060.08 154.283 1060.08 Q148.473 1060.08 145.394 1055.5 Q142.339 1050.89 142.339 1042.17 Q142.339 1033.42 145.394 1028.83 Q148.473 1024.23 154.283 1024.23 Z" fill="#000000" fill-rule="nonzero" fill-opacity="1" /><path clip-path="url(#clip790)" d="M174.445 1053.53 L179.329 1053.53 L179.329 1059.41 L174.445 1059.41 L174.445 1053.53 Z" fill="#000000" fill-rule="nonzero" fill-opacity="1" /><path clip-path="url(#clip790)" d="M199.514 1027.93 Q195.903 1027.93 194.075 1031.49 Q192.269 1035.04 192.269 1042.17 Q192.269 1049.27 194.075 1052.84 Q195.903 1056.38 199.514 1056.38 Q203.149 1056.38 204.954 1052.84 Q206.783 1049.27 206.783 1042.17 Q206.783 1035.04 204.954 1031.49 Q203.149 1027.93 199.514 1027.93 M199.514 1024.23 Q205.324 1024.23 208.38 1028.83 Q211.459 1033.42 211.459 1042.17 Q211.459 1050.89 208.38 1055.5 Q205.324 1060.08 199.514 1060.08 Q193.704 1060.08 190.625 1055.5 Q187.57 1050.89 187.57 1042.17 Q187.57 1033.42 190.625 1028.83 Q193.704 1024.23 199.514 1024.23 Z" fill="#000000" fill-rule="nonzero" fill-opacity="1" /><path clip-path="url(#clip790)" d="M115.927 769.022 L123.566 769.022 L123.566 742.656 L115.256 744.323 L115.256 740.064 L123.519 738.397 L128.195 738.397 L128.195 769.022 L135.834 769.022 L135.834 772.957 L115.927 772.957 L115.927 769.022 Z" fill="#000000" fill-rule="nonzero" fill-opacity="1" /><path clip-path="url(#clip790)" d="M149.306 769.022 L165.626 769.022 L165.626 772.957 L143.681 772.957 L143.681 769.022 Q146.343 766.267 150.927 761.638 Q155.533 756.985 156.714 755.642 Q158.959 753.119 159.839 751.383 Q160.741 749.624 160.741 747.934 Q160.741 745.18 158.797 743.443 Q156.876 741.707 153.774 741.707 Q151.575 741.707 149.121 742.471 Q146.691 743.235 143.913 744.786 L143.913 740.064 Q146.737 738.93 149.191 738.351 Q151.644 737.772 153.681 737.772 Q159.052 737.772 162.246 740.457 Q165.44 743.142 165.44 747.633 Q165.44 749.763 164.63 751.684 Q163.843 753.582 161.737 756.175 Q161.158 756.846 158.056 760.064 Q154.954 763.258 149.306 769.022 Z" fill="#000000" fill-rule="nonzero" fill-opacity="1" /><path clip-path="url(#clip790)" d="M175.44 767.078 L180.325 767.078 L180.325 772.957 L175.44 772.957 L175.44 767.078 Z" fill="#000000" fill-rule="nonzero" fill-opacity="1" /><path clip-path="url(#clip790)" d="M190.556 738.397 L208.912 738.397 L208.912 742.332 L194.838 742.332 L194.838 750.804 Q195.857 750.457 196.875 750.295 Q197.894 750.11 198.912 750.11 Q204.699 750.11 208.079 753.281 Q211.459 756.453 211.459 761.869 Q211.459 767.448 207.987 770.55 Q204.514 773.628 198.195 773.628 Q196.019 773.628 193.75 773.258 Q191.505 772.888 189.098 772.147 L189.098 767.448 Q191.181 768.582 193.403 769.138 Q195.625 769.693 198.102 769.693 Q202.107 769.693 204.445 767.587 Q206.783 765.48 206.783 761.869 Q206.783 758.258 204.445 756.152 Q202.107 754.045 198.102 754.045 Q196.227 754.045 194.352 754.462 Q192.5 754.879 190.556 755.758 L190.556 738.397 Z" fill="#000000" fill-rule="nonzero" fill-opacity="1" /><path clip-path="url(#clip790)" d="M114.931 482.568 L122.57 482.568 L122.57 456.202 L114.26 457.869 L114.26 453.609 L122.524 451.943 L127.2 451.943 L127.2 482.568 L134.839 482.568 L134.839 486.503 L114.931 486.503 L114.931 482.568 Z" fill="#000000" fill-rule="nonzero" fill-opacity="1" /><path clip-path="url(#clip790)" d="M144.329 451.943 L162.686 451.943 L162.686 455.878 L148.612 455.878 L148.612 464.35 Q149.63 464.003 150.649 463.841 Q151.667 463.656 152.686 463.656 Q158.473 463.656 161.852 466.827 Q165.232 469.998 165.232 475.415 Q165.232 480.994 161.76 484.095 Q158.288 487.174 151.968 487.174 Q149.792 487.174 147.524 486.804 Q145.279 486.433 142.871 485.693 L142.871 480.994 Q144.954 482.128 147.177 482.683 Q149.399 483.239 151.876 483.239 Q155.88 483.239 158.218 481.132 Q160.556 479.026 160.556 475.415 Q160.556 471.804 158.218 469.697 Q155.88 467.591 151.876 467.591 Q150.001 467.591 148.126 468.008 Q146.274 468.424 144.329 469.304 L144.329 451.943 Z" fill="#000000" fill-rule="nonzero" fill-opacity="1" /><path clip-path="url(#clip790)" d="M174.445 480.623 L179.329 480.623 L179.329 486.503 L174.445 486.503 L174.445 480.623 Z" fill="#000000" fill-rule="nonzero" fill-opacity="1" /><path clip-path="url(#clip790)" d="M199.514 455.021 Q195.903 455.021 194.075 458.586 Q192.269 462.128 192.269 469.258 Q192.269 476.364 194.075 479.929 Q195.903 483.47 199.514 483.47 Q203.149 483.47 204.954 479.929 Q206.783 476.364 206.783 469.258 Q206.783 462.128 204.954 458.586 Q203.149 455.021 199.514 455.021 M199.514 451.318 Q205.324 451.318 208.38 455.924 Q211.459 460.508 211.459 469.258 Q211.459 477.984 208.38 482.591 Q205.324 487.174 199.514 487.174 Q193.704 487.174 190.625 482.591 Q187.57 477.984 187.57 469.258 Q187.57 460.508 190.625 455.924 Q193.704 451.318 199.514 451.318 Z" fill="#000000" fill-rule="nonzero" fill-opacity="1" /><path clip-path="url(#clip790)" d="M115.927 196.113 L123.566 196.113 L123.566 169.748 L115.256 171.414 L115.256 167.155 L123.519 165.488 L128.195 165.488 L128.195 196.113 L135.834 196.113 L135.834 200.048 L115.927 200.048 L115.927 196.113 Z" fill="#000000" fill-rule="nonzero" fill-opacity="1" /><path clip-path="url(#clip790)" d="M144.098 165.488 L166.32 165.488 L166.32 167.479 L153.774 200.048 L148.89 200.048 L160.695 169.424 L144.098 169.424 L144.098 165.488 Z" fill="#000000" fill-rule="nonzero" fill-opacity="1" /><path clip-path="url(#clip790)" d="M175.44 194.169 L180.325 194.169 L180.325 200.048 L175.44 200.048 L175.44 194.169 Z" fill="#000000" fill-rule="nonzero" fill-opacity="1" /><path clip-path="url(#clip790)" d="M190.556 165.488 L208.912 165.488 L208.912 169.424 L194.838 169.424 L194.838 177.896 Q195.857 177.549 196.875 177.387 Q197.894 177.201 198.912 177.201 Q204.699 177.201 208.079 180.373 Q211.459 183.544 211.459 188.961 Q211.459 194.539 207.987 197.641 Q204.514 200.72 198.195 200.72 Q196.019 200.72 193.75 200.349 Q191.505 199.979 189.098 199.238 L189.098 194.539 Q191.181 195.673 193.403 196.229 Q195.625 196.785 198.102 196.785 Q202.107 196.785 204.445 194.678 Q206.783 192.572 206.783 188.961 Q206.783 185.349 204.445 183.243 Q202.107 181.137 198.102 181.137 Q196.227 181.137 194.352 181.553 Q192.5 181.97 190.556 182.849 L190.556 165.488 Z" fill="#000000" fill-rule="nonzero" fill-opacity="1" /><path clip-path="url(#clip790)" d="M20.8447 755.137 Q20.8447 762.139 26.0645 766.277 Q31.2844 770.382 40.2919 770.382 Q49.2675 770.382 54.4874 766.277 Q59.7073 762.139 59.7073 755.137 Q59.7073 748.134 54.4874 744.06 Q49.2675 739.954 40.2919 739.954 Q31.2844 739.954 26.0645 744.06 Q20.8447 748.134 20.8447 755.137 M15.6248 755.137 Q15.6248 745.142 22.3406 739.159 Q29.0246 733.175 40.2919 733.175 Q51.5274 733.175 58.2432 739.159 Q64.9272 745.142 64.9272 755.137 Q64.9272 765.163 58.2432 771.178 Q51.5592 777.162 40.2919 777.162 Q29.0246 777.162 22.3406 771.178 Q15.6248 765.163 15.6248 755.137 Z" fill="#000000" fill-rule="nonzero" fill-opacity="1" /><path clip-path="url(#clip790)" d="M38.3822 703.065 Q39.3689 698.45 42.4881 695.872 Q45.6073 693.262 50.1906 693.262 Q57.2247 693.262 61.0759 698.1 Q64.9272 702.938 64.9272 711.85 Q64.9272 714.842 64.3224 718.025 Q63.7495 721.176 62.5719 724.549 L56.3653 724.549 Q57.9249 721.876 58.7206 718.693 Q59.5163 715.51 59.5163 712.041 Q59.5163 705.993 57.1292 702.842 Q54.7421 699.659 50.1906 699.659 Q45.9892 699.659 43.6339 702.62 Q41.2468 705.548 41.2468 710.799 L41.2468 716.338 L35.9632 716.338 L35.9632 710.545 Q35.9632 705.802 34.0853 703.288 Q32.1756 700.773 28.6108 700.773 Q24.9505 700.773 23.009 703.383 Q21.0356 705.962 21.0356 710.799 Q21.0356 713.441 21.6086 716.465 Q22.1815 719.489 23.3909 723.117 L17.6618 723.117 Q16.6433 719.457 16.134 716.274 Q15.6248 713.059 15.6248 710.227 Q15.6248 702.906 18.9668 698.641 Q22.277 694.376 27.9424 694.376 Q31.8892 694.376 34.6264 696.636 Q37.3318 698.896 38.3822 703.065 Z" fill="#000000" fill-rule="nonzero" fill-opacity="1" /><polyline clip-path="url(#clip792)" style="stroke:#009af9; stroke-linecap:round; stroke-linejoin:round; stroke-width:4; stroke-opacity:1; fill:none" points="307.043,1132.75 347.576,1041.43 388.109,950.106 428.642,858.785 469.176,767.463 509.709,676.142 550.242,584.82 590.775,493.499 631.309,433.572 671.842,394.973 712.375,356.375 752.908,317.776 793.442,279.178 833.975,240.58 874.508,201.981 915.041,163.383 955.575,124.784 996.108,86.1857 1036.64,90.3827 1077.17,131.075 1117.71,171.767 1158.24,212.459 1198.77,253.15 1239.31,293.842 1279.84,334.534 1320.37,375.226 1360.91,415.918 1401.44,456.61 1441.97,497.302 1482.51,537.994 1523.04,578.686 1563.57,619.378 1604.11,660.07 1644.64,700.762 1685.17,733.009 1725.71,762.731 1766.24,792.454 1806.77,822.176 1847.31,851.899 1887.84,881.621 1928.37,911.344 1968.91,941.066 2009.44,970.788 2049.97,1000.51 2090.51,1030.23 2131.04,1059.96 2171.57,1089.68 2212.11,1119.4 2252.64,1149.12 2293.17,1178.85 "/>
<polyline clip-path="url(#clip792)" style="stroke:#e26f46; stroke-linecap:round; stroke-linejoin:round; stroke-width:4; stroke-opacity:1; fill:none" points="307.043,1252.77 347.576,1161.45 388.109,1070.13 428.642,978.808 469.176,887.487 509.709,796.166 550.242,704.844 590.775,613.523 631.309,553.595 671.842,514.997 712.375,476.399 752.908,437.8 793.442,399.202 833.975,360.603 874.508,322.005 915.041,283.406 955.575,244.808 996.108,206.209 1036.64,210.406 1077.17,251.098 1117.71,291.79 1158.24,332.482 1198.77,373.174 1239.31,413.866 1279.84,454.558 1320.37,495.25 1360.91,535.942 1401.44,576.634 1441.97,617.326 1482.51,658.018 1523.04,698.71 1563.57,739.401 1604.11,780.093 1644.64,820.785 1685.17,853.032 1725.71,882.755 1766.24,912.477 1806.77,942.2 1847.31,971.922 1887.84,1001.64 1928.37,1031.37 1968.91,1061.09 2009.44,1090.81 2049.97,1120.53 2090.51,1150.26 2131.04,1179.98 2171.57,1209.7 2212.11,1239.42 2252.64,1269.15 2293.17,1298.87 "/>
<polyline clip-path="url(#clip792)" style="stroke:#3da44d; stroke-linecap:round; stroke-linejoin:round; stroke-width:4; stroke-opacity:1; fill:none" points="307.043,1338.14 347.576,1246.82 388.109,1155.5 428.642,1064.18 469.176,972.856 509.709,881.534 550.242,790.213 590.775,698.891 631.309,638.964 671.842,600.366 712.375,561.767 752.908,523.169 793.442,484.57 833.975,445.972 874.508,407.373 915.041,368.775 955.575,330.176 996.108,291.578 1036.64,295.775 1077.17,336.467 1117.71,377.159 1158.24,417.851 1198.77,458.543 1239.31,499.235 1279.84,539.927 1320.37,580.619 1360.91,621.31 1401.44,662.002 1441.97,702.694 1482.51,743.386 1523.04,784.078 1563.57,824.77 1604.11,865.462 1644.64,906.154 1685.17,938.401 1725.71,968.123 1766.24,997.846 1806.77,1027.57 1847.31,1057.29 1887.84,1087.01 1928.37,1116.74 1968.91,1146.46 2009.44,1176.18 2049.97,1205.9 2090.51,1235.63 2131.04,1265.35 2171.57,1295.07 2212.11,1324.79 2252.64,1354.52 2293.17,1384.24 "/>
<path clip-path="url(#clip790)" d="M1805.08 300.469 L2282.58 300.469 L2282.58 93.1086 L1805.08 93.1086  Z" fill="#ffffff" fill-rule="evenodd" fill-opacity="1"/>
<polyline clip-path="url(#clip790)" style="stroke:#000000; stroke-linecap:round; stroke-linejoin:round; stroke-width:4; stroke-opacity:1; fill:none" points="1805.08,300.469 2282.58,300.469 2282.58,93.1086 1805.08,93.1086 1805.08,300.469 "/>
<polyline clip-path="url(#clip790)" style="stroke:#009af9; stroke-linecap:round; stroke-linejoin:round; stroke-width:4; stroke-opacity:1; fill:none" points="1828.48,144.949 1968.83,144.949 "/>
<path clip-path="url(#clip790)" d="M1992.22 136.303 L1996.73 136.303 L2004.84 158.062 L2012.94 136.303 L2017.45 136.303 L2007.73 162.229 L2001.94 162.229 L1992.22 136.303 Z" fill="#000000" fill-rule="nonzero" fill-opacity="1" /><path clip-path="url(#clip790)" d="M2023.33 136.303 L2027.59 136.303 L2027.59 162.229 L2023.33 162.229 L2023.33 136.303 M2023.33 126.21 L2027.59 126.21 L2027.59 131.604 L2023.33 131.604 L2023.33 126.21 Z" fill="#000000" fill-rule="nonzero" fill-opacity="1" /><path clip-path="url(#clip790)" d="M2053.03 137.067 L2053.03 141.094 Q2051.23 140.169 2049.28 139.706 Q2047.34 139.243 2045.25 139.243 Q2042.08 139.243 2040.48 140.215 Q2038.91 141.187 2038.91 143.131 Q2038.91 144.613 2040.04 145.469 Q2041.18 146.303 2044.6 147.067 L2046.06 147.391 Q2050.6 148.363 2052.5 150.145 Q2054.42 151.905 2054.42 155.076 Q2054.42 158.687 2051.55 160.793 Q2048.7 162.9 2043.7 162.9 Q2041.62 162.9 2039.35 162.483 Q2037.1 162.09 2034.61 161.28 L2034.61 156.881 Q2036.97 158.108 2039.26 158.733 Q2041.55 159.335 2043.79 159.335 Q2046.8 159.335 2048.42 158.317 Q2050.04 157.275 2050.04 155.4 Q2050.04 153.664 2048.86 152.738 Q2047.71 151.812 2043.75 150.956 L2042.27 150.608 Q2038.31 149.775 2036.55 148.062 Q2034.79 146.326 2034.79 143.317 Q2034.79 139.659 2037.38 137.669 Q2039.98 135.678 2044.74 135.678 Q2047.1 135.678 2049.19 136.025 Q2051.27 136.372 2053.03 137.067 Z" fill="#000000" fill-rule="nonzero" fill-opacity="1" /><path clip-path="url(#clip790)" d="M2061.76 140.701 L2091.43 140.701 L2091.43 144.59 L2061.76 144.59 L2061.76 140.701 M2061.76 150.145 L2091.43 150.145 L2091.43 154.081 L2061.76 154.081 L2061.76 150.145 Z" fill="#000000" fill-rule="nonzero" fill-opacity="1" /><path clip-path="url(#clip790)" d="M2112.1 143.085 Q2108.96 143.085 2107.1 145.238 Q2105.28 147.391 2105.28 151.141 Q2105.28 154.868 2107.1 157.043 Q2108.96 159.196 2112.1 159.196 Q2115.25 159.196 2117.08 157.043 Q2118.93 154.868 2118.93 151.141 Q2118.93 147.391 2117.08 145.238 Q2115.25 143.085 2112.1 143.085 M2121.39 128.433 L2121.39 132.692 Q2119.63 131.858 2117.82 131.419 Q2116.04 130.979 2114.28 130.979 Q2109.65 130.979 2107.2 134.104 Q2104.77 137.229 2104.42 143.548 Q2105.79 141.534 2107.85 140.469 Q2109.91 139.382 2112.38 139.382 Q2117.59 139.382 2120.6 142.553 Q2123.63 145.701 2123.63 151.141 Q2123.63 156.465 2120.48 159.682 Q2117.34 162.9 2112.1 162.9 Q2106.11 162.9 2102.94 158.317 Q2099.77 153.71 2099.77 144.983 Q2099.77 136.789 2103.66 131.928 Q2107.54 127.044 2114.1 127.044 Q2115.85 127.044 2117.64 127.391 Q2119.44 127.738 2121.39 128.433 Z" fill="#000000" fill-rule="nonzero" fill-opacity="1" /><path clip-path="url(#clip790)" d="M2141.69 130.747 Q2138.08 130.747 2136.25 134.312 Q2134.44 137.854 2134.44 144.983 Q2134.44 152.09 2136.25 155.655 Q2138.08 159.196 2141.69 159.196 Q2145.32 159.196 2147.13 155.655 Q2148.96 152.09 2148.96 144.983 Q2148.96 137.854 2147.13 134.312 Q2145.32 130.747 2141.69 130.747 M2141.69 127.044 Q2147.5 127.044 2150.55 131.65 Q2153.63 136.233 2153.63 144.983 Q2153.63 153.71 2150.55 158.317 Q2147.5 162.9 2141.69 162.9 Q2135.88 162.9 2132.8 158.317 Q2129.74 153.71 2129.74 144.983 Q2129.74 136.233 2132.8 131.65 Q2135.88 127.044 2141.69 127.044 Z" fill="#000000" fill-rule="nonzero" fill-opacity="1" /><path clip-path="url(#clip790)" d="M2161.85 156.349 L2166.73 156.349 L2166.73 162.229 L2161.85 162.229 L2161.85 156.349 Z" fill="#000000" fill-rule="nonzero" fill-opacity="1" /><path clip-path="url(#clip790)" d="M2186.92 130.747 Q2183.31 130.747 2181.48 134.312 Q2179.67 137.854 2179.67 144.983 Q2179.67 152.09 2181.48 155.655 Q2183.31 159.196 2186.92 159.196 Q2190.55 159.196 2192.36 155.655 Q2194.19 152.09 2194.19 144.983 Q2194.19 137.854 2192.36 134.312 Q2190.55 130.747 2186.92 130.747 M2186.92 127.044 Q2192.73 127.044 2195.78 131.65 Q2198.86 136.233 2198.86 144.983 Q2198.86 153.71 2195.78 158.317 Q2192.73 162.9 2186.92 162.9 Q2181.11 162.9 2178.03 158.317 Q2174.97 153.71 2174.97 144.983 Q2174.97 136.233 2178.03 131.65 Q2181.11 127.044 2186.92 127.044 Z" fill="#000000" fill-rule="nonzero" fill-opacity="1" /><path clip-path="url(#clip790)" d="M2217.08 130.747 Q2213.47 130.747 2211.64 134.312 Q2209.84 137.854 2209.84 144.983 Q2209.84 152.09 2211.64 155.655 Q2213.47 159.196 2217.08 159.196 Q2220.72 159.196 2222.52 155.655 Q2224.35 152.09 2224.35 144.983 Q2224.35 137.854 2222.52 134.312 Q2220.72 130.747 2217.08 130.747 M2217.08 127.044 Q2222.89 127.044 2225.95 131.65 Q2229.03 136.233 2229.03 144.983 Q2229.03 153.71 2225.95 158.317 Q2222.89 162.9 2217.08 162.9 Q2211.27 162.9 2208.19 158.317 Q2205.14 153.71 2205.14 144.983 Q2205.14 136.233 2208.19 131.65 Q2211.27 127.044 2217.08 127.044 Z" fill="#000000" fill-rule="nonzero" fill-opacity="1" /><polyline clip-path="url(#clip790)" style="stroke:#e26f46; stroke-linecap:round; stroke-linejoin:round; stroke-width:4; stroke-opacity:1; fill:none" points="1828.48,196.789 1968.83,196.789 "/>
<path clip-path="url(#clip790)" d="M1992.22 188.143 L1996.73 188.143 L2004.84 209.902 L2012.94 188.143 L2017.45 188.143 L2007.73 214.069 L2001.94 214.069 L1992.22 188.143 Z" fill="#000000" fill-rule="nonzero" fill-opacity="1" /><path clip-path="url(#clip790)" d="M2023.33 188.143 L2027.59 188.143 L2027.59 214.069 L2023.33 214.069 L2023.33 188.143 M2023.33 178.05 L2027.59 178.05 L2027.59 183.444 L2023.33 183.444 L2023.33 178.05 Z" fill="#000000" fill-rule="nonzero" fill-opacity="1" /><path clip-path="url(#clip790)" d="M2053.03 188.907 L2053.03 192.934 Q2051.23 192.009 2049.28 191.546 Q2047.34 191.083 2045.25 191.083 Q2042.08 191.083 2040.48 192.055 Q2038.91 193.027 2038.91 194.971 Q2038.91 196.453 2040.04 197.309 Q2041.18 198.143 2044.6 198.907 L2046.06 199.231 Q2050.6 200.203 2052.5 201.985 Q2054.42 203.745 2054.42 206.916 Q2054.42 210.527 2051.55 212.633 Q2048.7 214.74 2043.7 214.74 Q2041.62 214.74 2039.35 214.323 Q2037.1 213.93 2034.61 213.12 L2034.61 208.721 Q2036.97 209.948 2039.26 210.573 Q2041.55 211.175 2043.79 211.175 Q2046.8 211.175 2048.42 210.157 Q2050.04 209.115 2050.04 207.24 Q2050.04 205.504 2048.86 204.578 Q2047.71 203.652 2043.75 202.796 L2042.27 202.448 Q2038.31 201.615 2036.55 199.902 Q2034.79 198.166 2034.79 195.157 Q2034.79 191.499 2037.38 189.509 Q2039.98 187.518 2044.74 187.518 Q2047.1 187.518 2049.19 187.865 Q2051.27 188.212 2053.03 188.907 Z" fill="#000000" fill-rule="nonzero" fill-opacity="1" /><path clip-path="url(#clip790)" d="M2061.76 192.541 L2091.43 192.541 L2091.43 196.43 L2061.76 196.43 L2061.76 192.541 M2061.76 201.985 L2091.43 201.985 L2091.43 205.921 L2061.76 205.921 L2061.76 201.985 Z" fill="#000000" fill-rule="nonzero" fill-opacity="1" /><path clip-path="url(#clip790)" d="M2102.34 210.133 L2109.97 210.133 L2109.97 183.768 L2101.66 185.435 L2101.66 181.175 L2109.93 179.509 L2114.6 179.509 L2114.6 210.133 L2122.24 210.133 L2122.24 214.069 L2102.34 214.069 L2102.34 210.133 Z" fill="#000000" fill-rule="nonzero" fill-opacity="1" /><path clip-path="url(#clip790)" d="M2135.72 210.133 L2152.03 210.133 L2152.03 214.069 L2130.09 214.069 L2130.09 210.133 Q2132.75 207.379 2137.34 202.749 Q2141.94 198.096 2143.12 196.754 Q2145.37 194.231 2146.25 192.495 Q2147.15 190.735 2147.15 189.046 Q2147.15 186.291 2145.21 184.555 Q2143.28 182.819 2140.18 182.819 Q2137.98 182.819 2135.53 183.583 Q2133.1 184.347 2130.32 185.897 L2130.32 181.175 Q2133.15 180.041 2135.6 179.462 Q2138.05 178.884 2140.09 178.884 Q2145.46 178.884 2148.66 181.569 Q2151.85 184.254 2151.85 188.745 Q2151.85 190.874 2151.04 192.796 Q2150.25 194.694 2148.15 197.286 Q2147.57 197.958 2144.47 201.175 Q2141.36 204.37 2135.72 210.133 Z" fill="#000000" fill-rule="nonzero" fill-opacity="1" /><path clip-path="url(#clip790)" d="M2171.85 182.587 Q2168.24 182.587 2166.41 186.152 Q2164.6 189.694 2164.6 196.823 Q2164.6 203.93 2166.41 207.495 Q2168.24 211.036 2171.85 211.036 Q2175.48 211.036 2177.29 207.495 Q2179.12 203.93 2179.12 196.823 Q2179.12 189.694 2177.29 186.152 Q2175.48 182.587 2171.85 182.587 M2171.85 178.884 Q2177.66 178.884 2180.72 183.49 Q2183.79 188.073 2183.79 196.823 Q2183.79 205.55 2180.72 210.157 Q2177.66 214.74 2171.85 214.74 Q2166.04 214.74 2162.96 210.157 Q2159.91 205.55 2159.91 196.823 Q2159.91 188.073 2162.96 183.49 Q2166.04 178.884 2171.85 178.884 Z" fill="#000000" fill-rule="nonzero" fill-opacity="1" /><path clip-path="url(#clip790)" d="M2192.01 208.189 L2196.9 208.189 L2196.9 214.069 L2192.01 214.069 L2192.01 208.189 Z" fill="#000000" fill-rule="nonzero" fill-opacity="1" /><path clip-path="url(#clip790)" d="M2217.08 182.587 Q2213.47 182.587 2211.64 186.152 Q2209.84 189.694 2209.84 196.823 Q2209.84 203.93 2211.64 207.495 Q2213.47 211.036 2217.08 211.036 Q2220.72 211.036 2222.52 207.495 Q2224.35 203.93 2224.35 196.823 Q2224.35 189.694 2222.52 186.152 Q2220.72 182.587 2217.08 182.587 M2217.08 178.884 Q2222.89 178.884 2225.95 183.49 Q2229.03 188.073 2229.03 196.823 Q2229.03 205.55 2225.95 210.157 Q2222.89 214.74 2217.08 214.74 Q2211.27 214.74 2208.19 210.157 Q2205.14 205.55 2205.14 196.823 Q2205.14 188.073 2208.19 183.49 Q2211.27 178.884 2217.08 178.884 Z" fill="#000000" fill-rule="nonzero" fill-opacity="1" /><path clip-path="url(#clip790)" d="M2247.24 182.587 Q2243.63 182.587 2241.8 186.152 Q2240 189.694 2240 196.823 Q2240 203.93 2241.8 207.495 Q2243.63 211.036 2247.24 211.036 Q2250.88 211.036 2252.68 207.495 Q2254.51 203.93 2254.51 196.823 Q2254.51 189.694 2252.68 186.152 Q2250.88 182.587 2247.24 182.587 M2247.24 178.884 Q2253.05 178.884 2256.11 183.49 Q2259.19 188.073 2259.19 196.823 Q2259.19 205.55 2256.11 210.157 Q2253.05 214.74 2247.24 214.74 Q2241.43 214.74 2238.35 210.157 Q2235.3 205.55 2235.3 196.823 Q2235.3 188.073 2238.35 183.49 Q2241.43 178.884 2247.24 178.884 Z" fill="#000000" fill-rule="nonzero" fill-opacity="1" /><polyline clip-path="url(#clip790)" style="stroke:#3da44d; stroke-linecap:round; stroke-linejoin:round; stroke-width:4; stroke-opacity:1; fill:none" points="1828.48,248.629 1968.83,248.629 "/>
<path clip-path="url(#clip790)" d="M1992.22 239.983 L1996.73 239.983 L2004.84 261.742 L2012.94 239.983 L2017.45 239.983 L2007.73 265.909 L2001.94 265.909 L1992.22 239.983 Z" fill="#000000" fill-rule="nonzero" fill-opacity="1" /><path clip-path="url(#clip790)" d="M2023.33 239.983 L2027.59 239.983 L2027.59 265.909 L2023.33 265.909 L2023.33 239.983 M2023.33 229.89 L2027.59 229.89 L2027.59 235.284 L2023.33 235.284 L2023.33 229.89 Z" fill="#000000" fill-rule="nonzero" fill-opacity="1" /><path clip-path="url(#clip790)" d="M2053.03 240.747 L2053.03 244.774 Q2051.23 243.849 2049.28 243.386 Q2047.34 242.923 2045.25 242.923 Q2042.08 242.923 2040.48 243.895 Q2038.91 244.867 2038.91 246.811 Q2038.91 248.293 2040.04 249.149 Q2041.18 249.983 2044.6 250.747 L2046.06 251.071 Q2050.6 252.043 2052.5 253.825 Q2054.42 255.585 2054.42 258.756 Q2054.42 262.367 2051.55 264.473 Q2048.7 266.58 2043.7 266.58 Q2041.62 266.58 2039.35 266.163 Q2037.1 265.77 2034.61 264.96 L2034.61 260.561 Q2036.97 261.788 2039.26 262.413 Q2041.55 263.015 2043.79 263.015 Q2046.8 263.015 2048.42 261.997 Q2050.04 260.955 2050.04 259.08 Q2050.04 257.344 2048.86 256.418 Q2047.71 255.492 2043.75 254.636 L2042.27 254.288 Q2038.31 253.455 2036.55 251.742 Q2034.79 250.006 2034.79 246.997 Q2034.79 243.339 2037.38 241.349 Q2039.98 239.358 2044.74 239.358 Q2047.1 239.358 2049.19 239.705 Q2051.27 240.052 2053.03 240.747 Z" fill="#000000" fill-rule="nonzero" fill-opacity="1" /><path clip-path="url(#clip790)" d="M2061.76 244.381 L2091.43 244.381 L2091.43 248.27 L2061.76 248.27 L2061.76 244.381 M2061.76 253.825 L2091.43 253.825 L2091.43 257.761 L2061.76 257.761 L2061.76 253.825 Z" fill="#000000" fill-rule="nonzero" fill-opacity="1" /><path clip-path="url(#clip790)" d="M2105.55 261.973 L2121.87 261.973 L2121.87 265.909 L2099.93 265.909 L2099.93 261.973 Q2102.59 259.219 2107.17 254.589 Q2111.78 249.936 2112.96 248.594 Q2115.21 246.071 2116.09 244.335 Q2116.99 242.575 2116.99 240.886 Q2116.99 238.131 2115.04 236.395 Q2113.12 234.659 2110.02 234.659 Q2107.82 234.659 2105.37 235.423 Q2102.94 236.187 2100.16 237.737 L2100.16 233.015 Q2102.98 231.881 2105.44 231.302 Q2107.89 230.724 2109.93 230.724 Q2115.3 230.724 2118.49 233.409 Q2121.69 236.094 2121.69 240.585 Q2121.69 242.714 2120.88 244.636 Q2120.09 246.534 2117.98 249.126 Q2117.41 249.798 2114.3 253.015 Q2111.2 256.21 2105.55 261.973 Z" fill="#000000" fill-rule="nonzero" fill-opacity="1" /><path clip-path="url(#clip790)" d="M2141.69 234.427 Q2138.08 234.427 2136.25 237.992 Q2134.44 241.534 2134.44 248.663 Q2134.44 255.77 2136.25 259.335 Q2138.08 262.876 2141.69 262.876 Q2145.32 262.876 2147.13 259.335 Q2148.96 255.77 2148.96 248.663 Q2148.96 241.534 2147.13 237.992 Q2145.32 234.427 2141.69 234.427 M2141.69 230.724 Q2147.5 230.724 2150.55 235.33 Q2153.63 239.913 2153.63 248.663 Q2153.63 257.39 2150.55 261.997 Q2147.5 266.58 2141.69 266.58 Q2135.88 266.58 2132.8 261.997 Q2129.74 257.39 2129.74 248.663 Q2129.74 239.913 2132.8 235.33 Q2135.88 230.724 2141.69 230.724 Z" fill="#000000" fill-rule="nonzero" fill-opacity="1" /><path clip-path="url(#clip790)" d="M2171.85 234.427 Q2168.24 234.427 2166.41 237.992 Q2164.6 241.534 2164.6 248.663 Q2164.6 255.77 2166.41 259.335 Q2168.24 262.876 2171.85 262.876 Q2175.48 262.876 2177.29 259.335 Q2179.12 255.77 2179.12 248.663 Q2179.12 241.534 2177.29 237.992 Q2175.48 234.427 2171.85 234.427 M2171.85 230.724 Q2177.66 230.724 2180.72 235.33 Q2183.79 239.913 2183.79 248.663 Q2183.79 257.39 2180.72 261.997 Q2177.66 266.58 2171.85 266.58 Q2166.04 266.58 2162.96 261.997 Q2159.91 257.39 2159.91 248.663 Q2159.91 239.913 2162.96 235.33 Q2166.04 230.724 2171.85 230.724 Z" fill="#000000" fill-rule="nonzero" fill-opacity="1" /><path clip-path="url(#clip790)" d="M2192.01 260.029 L2196.9 260.029 L2196.9 265.909 L2192.01 265.909 L2192.01 260.029 Z" fill="#000000" fill-rule="nonzero" fill-opacity="1" /><path clip-path="url(#clip790)" d="M2217.08 234.427 Q2213.47 234.427 2211.64 237.992 Q2209.84 241.534 2209.84 248.663 Q2209.84 255.77 2211.64 259.335 Q2213.47 262.876 2217.08 262.876 Q2220.72 262.876 2222.52 259.335 Q2224.35 255.77 2224.35 248.663 Q2224.35 241.534 2222.52 237.992 Q2220.72 234.427 2217.08 234.427 M2217.08 230.724 Q2222.89 230.724 2225.95 235.33 Q2229.03 239.913 2229.03 248.663 Q2229.03 257.39 2225.95 261.997 Q2222.89 266.58 2217.08 266.58 Q2211.27 266.58 2208.19 261.997 Q2205.14 257.39 2205.14 248.663 Q2205.14 239.913 2208.19 235.33 Q2211.27 230.724 2217.08 230.724 Z" fill="#000000" fill-rule="nonzero" fill-opacity="1" /><path clip-path="url(#clip790)" d="M2247.24 234.427 Q2243.63 234.427 2241.8 237.992 Q2240 241.534 2240 248.663 Q2240 255.77 2241.8 259.335 Q2243.63 262.876 2247.24 262.876 Q2250.88 262.876 2252.68 259.335 Q2254.51 255.77 2254.51 248.663 Q2254.51 241.534 2252.68 237.992 Q2250.88 234.427 2247.24 234.427 M2247.24 230.724 Q2253.05 230.724 2256.11 235.33 Q2259.19 239.913 2259.19 248.663 Q2259.19 257.39 2256.11 261.997 Q2253.05 266.58 2247.24 266.58 Q2241.43 266.58 2238.35 261.997 Q2235.3 257.39 2235.3 248.663 Q2235.3 239.913 2238.35 235.33 Q2241.43 230.724 2247.24 230.724 Z" fill="#000000" fill-rule="nonzero" fill-opacity="1" /></svg>
