<?xml version="1.0" encoding="utf-8"?>
<svg xmlns="http://www.w3.org/2000/svg" xmlns:xlink="http://www.w3.org/1999/xlink" width="600" height="400" viewBox="0 0 2400 1600">
<defs>
  <clipPath id="clip340">
    <rect x="0" y="0" width="2400" height="1600"/>
  </clipPath>
</defs>
<path clip-path="url(#clip340)" d="M0 1600 L2400 1600 L2400 0 L0 0  Z" fill="#ffffff" fill-rule="evenodd" fill-opacity="1"/>
<defs>
  <clipPath id="clip341">
    <rect x="480" y="0" width="1681" height="1600"/>
  </clipPath>
</defs>
<path clip-path="url(#clip340)" d="M102.74 1505.26 L2352.76 1505.26 L2352.76 47.2441 L102.74 47.2441  Z" fill="#ffffff" fill-rule="evenodd" fill-opacity="1"/>
<defs>
  <clipPath id="clip342">
    <rect x="102" y="47" width="2251" height="1459"/>
  </clipPath>
</defs>
<polyline clip-path="url(#clip342)" style="stroke:#000000; stroke-linecap:round; stroke-linejoin:round; stroke-width:2; stroke-opacity:0.1; fill:none" points="564.79,1505.26 564.79,47.2441 "/>
<polyline clip-path="url(#clip342)" style="stroke:#000000; stroke-linecap:round; stroke-linejoin:round; stroke-width:2; stroke-opacity:0.1; fill:none" points="1159.37,1505.26 1159.37,47.2441 "/>
<polyline clip-path="url(#clip342)" style="stroke:#000000; stroke-linecap:round; stroke-linejoin:round; stroke-width:2; stroke-opacity:0.1; fill:none" points="1753.95,1505.26 1753.95,47.2441 "/>
<polyline clip-path="url(#clip342)" style="stroke:#000000; stroke-linecap:round; stroke-linejoin:round; stroke-width:2; stroke-opacity:0.1; fill:none" points="2348.53,1505.26 2348.53,47.2441 "/>
<polyline clip-path="url(#clip340)" style="stroke:#000000; stroke-linecap:round; stroke-linejoin:round; stroke-width:4; stroke-opacity:1; fill:none" points="102.74,1505.26 2352.76,1505.26 "/>
<polyline clip-path="url(#clip340)" style="stroke:#000000; stroke-linecap:round; stroke-linejoin:round; stroke-width:4; stroke-opacity:1; fill:none" points="564.79,1505.26 564.79,1486.36 "/>
<polyline clip-path="url(#clip340)" style="stroke:#000000; stroke-linecap:round; stroke-linejoin:round; stroke-width:4; stroke-opacity:1; fill:none" points="1159.37,1505.26 1159.37,1486.36 "/>
<polyline clip-path="url(#clip340)" style="stroke:#000000; stroke-linecap:round; stroke-linejoin:round; stroke-width:4; stroke-opacity:1; fill:none" points="1753.95,1505.26 1753.95,1486.36 "/>
<polyline clip-path="url(#clip340)" style="stroke:#000000; stroke-linecap:round; stroke-linejoin:round; stroke-width:4; stroke-opacity:1; fill:none" points="2348.53,1505.26 2348.53,1486.36 "/>
<path clip-path="url(#clip340)" d="M524.396 1563.72 L532.035 1563.72 L532.035 1537.36 L523.725 1539.03 L523.725 1534.77 L531.989 1533.1 L536.665 1533.1 L536.665 1563.72 L544.304 1563.72 L544.304 1567.66 L524.396 1567.66 L524.396 1563.72 Z" fill="#000000" fill-rule="nonzero" fill-opacity="1" /><path clip-path="url(#clip340)" d="M563.748 1536.18 Q560.137 1536.18 558.308 1539.74 Q556.503 1543.28 556.503 1550.41 Q556.503 1557.52 558.308 1561.09 Q560.137 1564.63 563.748 1564.63 Q567.382 1564.63 569.188 1561.09 Q571.016 1557.52 571.016 1550.41 Q571.016 1543.28 569.188 1539.74 Q567.382 1536.18 563.748 1536.18 M563.748 1532.47 Q569.558 1532.47 572.614 1537.08 Q575.692 1541.66 575.692 1550.41 Q575.692 1559.14 572.614 1563.75 Q569.558 1568.33 563.748 1568.33 Q557.938 1568.33 554.859 1563.75 Q551.803 1559.14 551.803 1550.41 Q551.803 1541.66 554.859 1537.08 Q557.938 1532.47 563.748 1532.47 Z" fill="#000000" fill-rule="nonzero" fill-opacity="1" /><path clip-path="url(#clip340)" d="M593.91 1536.18 Q590.299 1536.18 588.47 1539.74 Q586.664 1543.28 586.664 1550.41 Q586.664 1557.52 588.47 1561.09 Q590.299 1564.63 593.91 1564.63 Q597.544 1564.63 599.35 1561.09 Q601.178 1557.52 601.178 1550.41 Q601.178 1543.28 599.35 1539.74 Q597.544 1536.18 593.91 1536.18 M593.91 1532.47 Q599.72 1532.47 602.775 1537.08 Q605.854 1541.66 605.854 1550.41 Q605.854 1559.14 602.775 1563.75 Q599.72 1568.33 593.91 1568.33 Q588.1 1568.33 585.021 1563.75 Q581.965 1559.14 581.965 1550.41 Q581.965 1541.66 585.021 1537.08 Q588.1 1532.47 593.91 1532.47 Z" fill="#000000" fill-rule="nonzero" fill-opacity="1" /><path clip-path="url(#clip340)" d="M1123.06 1563.72 L1139.38 1563.72 L1139.38 1567.66 L1117.44 1567.66 L1117.44 1563.72 Q1120.1 1560.97 1124.68 1556.34 Q1129.29 1551.69 1130.47 1550.35 Q1132.72 1547.82 1133.6 1546.09 Q1134.5 1544.33 1134.5 1542.64 Q1134.5 1539.88 1132.55 1538.15 Q1130.63 1536.41 1127.53 1536.41 Q1125.33 1536.41 1122.88 1537.17 Q1120.45 1537.94 1117.67 1539.49 L1117.67 1534.77 Q1120.49 1533.63 1122.95 1533.05 Q1125.4 1532.47 1127.44 1532.47 Q1132.81 1532.47 1136 1535.16 Q1139.2 1537.85 1139.2 1542.34 Q1139.2 1544.47 1138.39 1546.39 Q1137.6 1548.28 1135.49 1550.88 Q1134.92 1551.55 1131.81 1554.77 Q1128.71 1557.96 1123.06 1563.72 Z" fill="#000000" fill-rule="nonzero" fill-opacity="1" /><path clip-path="url(#clip340)" d="M1159.2 1536.18 Q1155.59 1536.18 1153.76 1539.74 Q1151.95 1543.28 1151.95 1550.41 Q1151.95 1557.52 1153.76 1561.09 Q1155.59 1564.63 1159.2 1564.63 Q1162.83 1564.63 1164.64 1561.09 Q1166.47 1557.52 1166.47 1550.41 Q1166.47 1543.28 1164.64 1539.74 Q1162.83 1536.18 1159.2 1536.18 M1159.2 1532.47 Q1165.01 1532.47 1168.06 1537.08 Q1171.14 1541.66 1171.14 1550.41 Q1171.14 1559.14 1168.06 1563.75 Q1165.01 1568.33 1159.2 1568.33 Q1153.39 1568.33 1150.31 1563.75 Q1147.25 1559.14 1147.25 1550.41 Q1147.25 1541.66 1150.31 1537.08 Q1153.39 1532.47 1159.2 1532.47 Z" fill="#000000" fill-rule="nonzero" fill-opacity="1" /><path clip-path="url(#clip340)" d="M1189.36 1536.18 Q1185.75 1536.18 1183.92 1539.74 Q1182.11 1543.28 1182.11 1550.41 Q1182.11 1557.52 1183.92 1561.09 Q1185.75 1564.63 1189.36 1564.63 Q1192.99 1564.63 1194.8 1561.09 Q1196.63 1557.52 1196.63 1550.41 Q1196.63 1543.28 1194.8 1539.74 Q1192.99 1536.18 1189.36 1536.18 M1189.36 1532.47 Q1195.17 1532.47 1198.23 1537.08 Q1201.3 1541.66 1201.3 1550.41 Q1201.3 1559.14 1198.23 1563.75 Q1195.17 1568.33 1189.36 1568.33 Q1183.55 1568.33 1180.47 1563.75 Q1177.42 1559.14 1177.42 1550.41 Q1177.42 1541.66 1180.47 1537.08 Q1183.55 1532.47 1189.36 1532.47 Z" fill="#000000" fill-rule="nonzero" fill-opacity="1" /><path clip-path="url(#clip340)" d="M1727.71 1549.03 Q1731.07 1549.74 1732.95 1552.01 Q1734.84 1554.28 1734.84 1557.61 Q1734.84 1562.73 1731.33 1565.53 Q1727.81 1568.33 1721.33 1568.33 Q1719.15 1568.33 1716.83 1567.89 Q1714.54 1567.47 1712.09 1566.62 L1712.09 1562.1 Q1714.03 1563.24 1716.35 1563.82 Q1718.66 1564.4 1721.19 1564.4 Q1725.58 1564.4 1727.88 1562.66 Q1730.19 1560.92 1730.19 1557.61 Q1730.19 1554.56 1728.04 1552.85 Q1725.91 1551.11 1722.09 1551.11 L1718.06 1551.11 L1718.06 1547.27 L1722.27 1547.27 Q1725.72 1547.27 1727.55 1545.9 Q1729.38 1544.51 1729.38 1541.92 Q1729.38 1539.26 1727.48 1537.85 Q1725.61 1536.41 1722.09 1536.41 Q1720.17 1536.41 1717.97 1536.83 Q1715.77 1537.24 1713.13 1538.12 L1713.13 1533.96 Q1715.79 1533.22 1718.11 1532.85 Q1720.45 1532.47 1722.51 1532.47 Q1727.83 1532.47 1730.93 1534.91 Q1734.03 1537.31 1734.03 1541.43 Q1734.03 1544.3 1732.39 1546.29 Q1730.75 1548.26 1727.71 1549.03 Z" fill="#000000" fill-rule="nonzero" fill-opacity="1" /><path clip-path="url(#clip340)" d="M1753.71 1536.18 Q1750.1 1536.18 1748.27 1539.74 Q1746.46 1543.28 1746.46 1550.41 Q1746.46 1557.52 1748.27 1561.09 Q1750.1 1564.63 1753.71 1564.63 Q1757.34 1564.63 1759.15 1561.09 Q1760.98 1557.52 1760.98 1550.41 Q1760.98 1543.28 1759.15 1539.74 Q1757.34 1536.18 1753.71 1536.18 M1753.71 1532.47 Q1759.52 1532.47 1762.58 1537.08 Q1765.65 1541.66 1765.65 1550.41 Q1765.65 1559.14 1762.58 1563.75 Q1759.52 1568.33 1753.71 1568.33 Q1747.9 1568.33 1744.82 1563.75 Q1741.77 1559.14 1741.77 1550.41 Q1741.77 1541.66 1744.82 1537.08 Q1747.9 1532.47 1753.71 1532.47 Z" fill="#000000" fill-rule="nonzero" fill-opacity="1" /><path clip-path="url(#clip340)" d="M1783.87 1536.18 Q1780.26 1536.18 1778.43 1539.74 Q1776.63 1543.28 1776.63 1550.41 Q1776.63 1557.52 1778.43 1561.09 Q1780.26 1564.63 1783.87 1564.63 Q1787.51 1564.63 1789.31 1561.09 Q1791.14 1557.52 1791.14 1550.41 Q1791.14 1543.28 1789.31 1539.74 Q1787.51 1536.18 1783.87 1536.18 M1783.87 1532.47 Q1789.68 1532.47 1792.74 1537.08 Q1795.82 1541.66 1795.82 1550.41 Q1795.82 1559.14 1792.74 1563.75 Q1789.68 1568.33 1783.87 1568.33 Q1778.06 1568.33 1774.98 1563.75 Q1771.93 1559.14 1771.93 1550.41 Q1771.93 1541.66 1774.98 1537.08 Q1778.06 1532.47 1783.87 1532.47 Z" fill="#000000" fill-rule="nonzero" fill-opacity="1" /><path clip-path="url(#clip340)" d="M2321.62 1537.17 L2309.82 1555.62 L2321.62 1555.62 L2321.62 1537.17 M2320.4 1533.1 L2326.28 1533.1 L2326.28 1555.62 L2331.21 1555.62 L2331.21 1559.51 L2326.28 1559.51 L2326.28 1567.66 L2321.62 1567.66 L2321.62 1559.51 L2306.02 1559.51 L2306.02 1555 L2320.4 1533.1 Z" fill="#000000" fill-rule="nonzero" fill-opacity="1" /><path clip-path="url(#clip340)" d="M2348.94 1536.18 Q2345.33 1536.18 2343.5 1539.74 Q2341.69 1543.28 2341.69 1550.41 Q2341.69 1557.52 2343.5 1561.09 Q2345.33 1564.63 2348.94 1564.63 Q2352.57 1564.63 2354.38 1561.09 Q2356.21 1557.52 2356.21 1550.41 Q2356.21 1543.28 2354.38 1539.74 Q2352.57 1536.18 2348.94 1536.18 M2348.94 1532.47 Q2354.75 1532.47 2357.81 1537.08 Q2360.88 1541.66 2360.88 1550.41 Q2360.88 1559.14 2357.81 1563.75 Q2354.75 1568.33 2348.94 1568.33 Q2343.13 1568.33 2340.05 1563.75 Q2337 1559.14 2337 1550.41 Q2337 1541.66 2340.05 1537.08 Q2343.13 1532.47 2348.94 1532.47 Z" fill="#000000" fill-rule="nonzero" fill-opacity="1" /><path clip-path="url(#clip340)" d="M2379.1 1536.18 Q2375.49 1536.18 2373.66 1539.74 Q2371.86 1543.28 2371.86 1550.41 Q2371.86 1557.52 2373.66 1561.09 Q2375.49 1564.63 2379.1 1564.63 Q2382.74 1564.63 2384.54 1561.09 Q2386.37 1557.52 2386.37 1550.41 Q2386.37 1543.28 2384.54 1539.74 Q2382.74 1536.18 2379.1 1536.18 M2379.1 1532.47 Q2384.91 1532.47 2387.97 1537.08 Q2391.05 1541.66 2391.05 1550.41 Q2391.05 1559.14 2387.97 1563.75 Q2384.91 1568.33 2379.1 1568.33 Q2373.29 1568.33 2370.21 1563.75 Q2367.16 1559.14 2367.16 1550.41 Q2367.16 1541.66 2370.21 1537.08 Q2373.29 1532.47 2379.1 1532.47 Z" fill="#000000" fill-rule="nonzero" fill-opacity="1" /><path clip-path="url(#clip340)" d="M1196.6 1619.89 L1196.6 1600.6 L1202.46 1600.6 L1202.46 1650.12 L1196.6 1650.12 L1196.6 1644.78 Q1194.76 1647.96 1191.93 1649.52 Q1189.12 1651.05 1185.18 1651.05 Q1178.72 1651.05 1174.64 1645.89 Q1170.6 1640.73 1170.6 1632.33 Q1170.6 1623.93 1174.64 1618.77 Q1178.72 1613.62 1185.18 1613.62 Q1189.12 1613.62 1191.93 1615.18 Q1194.76 1616.7 1196.6 1619.89 M1176.65 1632.33 Q1176.65 1638.79 1179.29 1642.48 Q1181.96 1646.15 1186.61 1646.15 Q1191.26 1646.15 1193.93 1642.48 Q1196.6 1638.79 1196.6 1632.33 Q1196.6 1625.87 1193.93 1622.21 Q1191.26 1618.52 1186.61 1618.52 Q1181.96 1618.52 1179.29 1622.21 Q1176.65 1625.87 1176.65 1632.33 Z" fill="#000000" fill-rule="nonzero" fill-opacity="1" /><path clip-path="url(#clip340)" d="M1228.34 1618.58 Q1223.63 1618.58 1220.89 1622.27 Q1218.15 1625.93 1218.15 1632.33 Q1218.15 1638.73 1220.86 1642.42 Q1223.59 1646.08 1228.34 1646.08 Q1233.02 1646.08 1235.75 1642.39 Q1238.49 1638.7 1238.49 1632.33 Q1238.49 1626 1235.75 1622.31 Q1233.02 1618.58 1228.34 1618.58 M1228.34 1613.62 Q1235.98 1613.62 1240.34 1618.58 Q1244.7 1623.55 1244.7 1632.33 Q1244.7 1641.08 1240.34 1646.08 Q1235.98 1651.05 1228.34 1651.05 Q1220.67 1651.05 1216.31 1646.08 Q1211.98 1641.08 1211.98 1632.33 Q1211.98 1623.55 1216.31 1618.58 Q1220.67 1613.62 1228.34 1613.62 Z" fill="#000000" fill-rule="nonzero" fill-opacity="1" /><path clip-path="url(#clip340)" d="M1269.24 1653.43 Q1266.75 1659.8 1264.4 1661.74 Q1262.04 1663.68 1258.1 1663.68 L1253.42 1663.68 L1253.42 1658.78 L1256.86 1658.78 Q1259.27 1658.78 1260.61 1657.64 Q1261.95 1656.49 1263.57 1652.22 L1264.62 1649.55 L1250.2 1614.48 L1256.41 1614.48 L1267.55 1642.36 L1278.69 1614.48 L1284.9 1614.48 L1269.24 1653.43 Z" fill="#000000" fill-rule="nonzero" fill-opacity="1" /><polyline clip-path="url(#clip342)" style="stroke:#000000; stroke-linecap:round; stroke-linejoin:round; stroke-width:2; stroke-opacity:0.1; fill:none" points="102.74,1281.28 2352.76,1281.28 "/>
<polyline clip-path="url(#clip342)" style="stroke:#000000; stroke-linecap:round; stroke-linejoin:round; stroke-width:2; stroke-opacity:0.1; fill:none" points="102.74,948.182 2352.76,948.182 "/>
<polyline clip-path="url(#clip342)" style="stroke:#000000; stroke-linecap:round; stroke-linejoin:round; stroke-width:2; stroke-opacity:0.1; fill:none" points="102.74,615.089 2352.76,615.089 "/>
<polyline clip-path="url(#clip342)" style="stroke:#000000; stroke-linecap:round; stroke-linejoin:round; stroke-width:2; stroke-opacity:0.1; fill:none" points="102.74,281.996 2352.76,281.996 "/>
<polyline clip-path="url(#clip340)" style="stroke:#000000; stroke-linecap:round; stroke-linejoin:round; stroke-width:4; stroke-opacity:1; fill:none" points="102.74,1505.26 102.74,47.2441 "/>
<polyline clip-path="url(#clip340)" style="stroke:#000000; stroke-linecap:round; stroke-linejoin:round; stroke-width:4; stroke-opacity:1; fill:none" points="102.74,1281.28 121.638,1281.28 "/>
<polyline clip-path="url(#clip340)" style="stroke:#000000; stroke-linecap:round; stroke-linejoin:round; stroke-width:4; stroke-opacity:1; fill:none" points="102.74,948.182 121.638,948.182 "/>
<polyline clip-path="url(#clip340)" style="stroke:#000000; stroke-linecap:round; stroke-linejoin:round; stroke-width:4; stroke-opacity:1; fill:none" points="102.74,615.089 121.638,615.089 "/>
<polyline clip-path="url(#clip340)" style="stroke:#000000; stroke-linecap:round; stroke-linejoin:round; stroke-width:4; stroke-opacity:1; fill:none" points="102.74,281.996 121.638,281.996 "/>
<path clip-path="url(#clip340)" d="M-0.620593 1264 L21.6015 1264 L21.6015 1265.99 L9.05528 1298.56 L4.17105 1298.56 L15.9765 1267.93 L-0.620593 1267.93 L-0.620593 1264 Z" fill="#000000" fill-rule="nonzero" fill-opacity="1" /><path clip-path="url(#clip340)" d="M30.7218 1292.68 L35.6061 1292.68 L35.6061 1298.56 L30.7218 1298.56 L30.7218 1292.68 Z" fill="#000000" fill-rule="nonzero" fill-opacity="1" /><path clip-path="url(#clip340)" d="M45.8375 1264 L64.1939 1264 L64.1939 1267.93 L50.1199 1267.93 L50.1199 1276.4 Q51.1384 1276.06 52.1569 1275.89 Q53.1754 1275.71 54.1939 1275.71 Q59.9809 1275.71 63.3605 1278.88 Q66.7402 1282.05 66.7402 1287.47 Q66.7402 1293.05 63.268 1296.15 Q59.7958 1299.23 53.4763 1299.23 Q51.3004 1299.23 49.0319 1298.86 Q46.7866 1298.49 44.3792 1297.75 L44.3792 1293.05 Q46.4625 1294.18 48.6847 1294.74 Q50.9069 1295.29 53.3837 1295.29 Q57.3884 1295.29 59.7263 1293.19 Q62.0643 1291.08 62.0643 1287.47 Q62.0643 1283.86 59.7263 1281.75 Q57.3884 1279.64 53.3837 1279.64 Q51.5088 1279.64 49.6338 1280.06 Q47.7819 1280.48 45.8375 1281.36 L45.8375 1264 Z" fill="#000000" fill-rule="nonzero" fill-opacity="1" /><path clip-path="url(#clip340)" d="M-29.7871 961.527 L-22.1483 961.527 L-22.1483 935.162 L-30.4584 936.828 L-30.4584 932.569 L-22.1946 930.902 L-17.5187 930.902 L-17.5187 961.527 L-9.8798 961.527 L-9.8798 965.462 L-29.7871 965.462 L-29.7871 961.527 Z" fill="#000000" fill-rule="nonzero" fill-opacity="1" /><path clip-path="url(#clip340)" d="M9.56454 933.981 Q5.95345 933.981 4.12475 937.546 Q2.31921 941.087 2.31921 948.217 Q2.31921 955.323 4.12475 958.888 Q5.95345 962.43 9.56454 962.43 Q13.1988 962.43 15.0043 958.888 Q16.833 955.323 16.833 948.217 Q16.833 941.087 15.0043 937.546 Q13.1988 933.981 9.56454 933.981 M9.56454 930.277 Q15.3747 930.277 18.4302 934.884 Q21.5089 939.467 21.5089 948.217 Q21.5089 956.944 18.4302 961.55 Q15.3747 966.134 9.56454 966.134 Q3.75438 966.134 0.675697 961.55 Q-2.37984 956.944 -2.37984 948.217 Q-2.37984 939.467 0.675697 934.884 Q3.75438 930.277 9.56454 930.277 Z" fill="#000000" fill-rule="nonzero" fill-opacity="1" /><path clip-path="url(#clip340)" d="M29.7265 959.583 L34.6107 959.583 L34.6107 965.462 L29.7265 965.462 L29.7265 959.583 Z" fill="#000000" fill-rule="nonzero" fill-opacity="1" /><path clip-path="url(#clip340)" d="M54.7958 933.981 Q51.1847 933.981 49.356 937.546 Q47.5504 941.087 47.5504 948.217 Q47.5504 955.323 49.356 958.888 Q51.1847 962.43 54.7958 962.43 Q58.43 962.43 60.2356 958.888 Q62.0643 955.323 62.0643 948.217 Q62.0643 941.087 60.2356 937.546 Q58.43 933.981 54.7958 933.981 M54.7958 930.277 Q60.6059 930.277 63.6615 934.884 Q66.7402 939.467 66.7402 948.217 Q66.7402 956.944 63.6615 961.55 Q60.6059 966.134 54.7958 966.134 Q48.9856 966.134 45.9069 961.55 Q42.8514 956.944 42.8514 948.217 Q42.8514 939.467 45.9069 934.884 Q48.9856 930.277 54.7958 930.277 Z" fill="#000000" fill-rule="nonzero" fill-opacity="1" /><path clip-path="url(#clip340)" d="M-28.7917 628.434 L-21.1529 628.434 L-21.1529 602.068 L-29.463 603.735 L-29.463 599.476 L-21.1992 597.809 L-16.5233 597.809 L-16.5233 628.434 L-8.88444 628.434 L-8.88444 632.369 L-28.7917 632.369 L-28.7917 628.434 Z" fill="#000000" fill-rule="nonzero" fill-opacity="1" /><path clip-path="url(#clip340)" d="M4.58771 628.434 L20.9071 628.434 L20.9071 632.369 L-1.03726 632.369 L-1.03726 628.434 Q1.62477 625.679 6.20807 621.05 Q10.8145 616.397 11.9951 615.054 Q14.2404 612.531 15.1201 610.795 Q16.0228 609.036 16.0228 607.346 Q16.0228 604.591 14.0784 602.855 Q12.1571 601.119 9.05528 601.119 Q6.85622 601.119 4.40253 601.883 Q1.97199 602.647 -0.805777 604.198 L-0.805777 599.476 Q2.01828 598.342 4.47197 597.763 Q6.92566 597.184 8.96269 597.184 Q14.333 597.184 17.5275 599.869 Q20.7219 602.554 20.7219 607.045 Q20.7219 609.175 19.9117 611.096 Q19.1247 612.994 17.0182 615.587 Q16.4395 616.258 13.3377 619.476 Q10.2358 622.67 4.58771 628.434 Z" fill="#000000" fill-rule="nonzero" fill-opacity="1" /><path clip-path="url(#clip340)" d="M30.7218 626.49 L35.6061 626.49 L35.6061 632.369 L30.7218 632.369 L30.7218 626.49 Z" fill="#000000" fill-rule="nonzero" fill-opacity="1" /><path clip-path="url(#clip340)" d="M45.8375 597.809 L64.1939 597.809 L64.1939 601.744 L50.1199 601.744 L50.1199 610.216 Q51.1384 609.869 52.1569 609.707 Q53.1754 609.522 54.1939 609.522 Q59.9809 609.522 63.3605 612.693 Q66.7402 615.865 66.7402 621.281 Q66.7402 626.86 63.268 629.962 Q59.7958 633.04 53.4763 633.04 Q51.3004 633.04 49.0319 632.67 Q46.7866 632.3 44.3792 631.559 L44.3792 626.86 Q46.4625 627.994 48.6847 628.55 Q50.9069 629.105 53.3837 629.105 Q57.3884 629.105 59.7263 626.999 Q62.0643 624.892 62.0643 621.281 Q62.0643 617.67 59.7263 615.564 Q57.3884 613.457 53.3837 613.457 Q51.5088 613.457 49.6338 613.874 Q47.7819 614.291 45.8375 615.17 L45.8375 597.809 Z" fill="#000000" fill-rule="nonzero" fill-opacity="1" /><path clip-path="url(#clip340)" d="M-29.7871 295.341 L-22.1483 295.341 L-22.1483 268.975 L-30.4584 270.642 L-30.4584 266.383 L-22.1946 264.716 L-17.5187 264.716 L-17.5187 295.341 L-9.8798 295.341 L-9.8798 299.276 L-29.7871 299.276 L-29.7871 295.341 Z" fill="#000000" fill-rule="nonzero" fill-opacity="1" /><path clip-path="url(#clip340)" d="M-0.389112 264.716 L17.9673 264.716 L17.9673 268.651 L3.89327 268.651 L3.89327 277.123 Q4.91179 276.776 5.9303 276.614 Q6.94881 276.429 7.96732 276.429 Q13.7543 276.429 17.1339 279.6 Q20.5136 282.771 20.5136 288.188 Q20.5136 293.767 17.0413 296.869 Q13.5691 299.947 7.24974 299.947 Q5.07382 299.947 2.80531 299.577 Q0.559957 299.206 -1.84744 298.466 L-1.84744 293.767 Q0.235884 294.901 2.45809 295.456 Q4.6803 296.012 7.15714 296.012 Q11.1618 296.012 13.4997 293.906 Q15.8377 291.799 15.8377 288.188 Q15.8377 284.577 13.4997 282.47 Q11.1618 280.364 7.15714 280.364 Q5.28215 280.364 3.40716 280.781 Q1.55532 281.197 -0.389112 282.077 L-0.389112 264.716 Z" fill="#000000" fill-rule="nonzero" fill-opacity="1" /><path clip-path="url(#clip340)" d="M29.7265 293.396 L34.6107 293.396 L34.6107 299.276 L29.7265 299.276 L29.7265 293.396 Z" fill="#000000" fill-rule="nonzero" fill-opacity="1" /><path clip-path="url(#clip340)" d="M54.7958 267.795 Q51.1847 267.795 49.356 271.359 Q47.5504 274.901 47.5504 282.031 Q47.5504 289.137 49.356 292.702 Q51.1847 296.244 54.7958 296.244 Q58.43 296.244 60.2356 292.702 Q62.0643 289.137 62.0643 282.031 Q62.0643 274.901 60.2356 271.359 Q58.43 267.795 54.7958 267.795 M54.7958 264.091 Q60.6059 264.091 63.6615 268.697 Q66.7402 273.281 66.7402 282.031 Q66.7402 290.757 63.6615 295.364 Q60.6059 299.947 54.7958 299.947 Q48.9856 299.947 45.9069 295.364 Q42.8514 290.757 42.8514 282.031 Q42.8514 273.281 45.9069 268.697 Q48.9856 264.091 54.7958 264.091 Z" fill="#000000" fill-rule="nonzero" fill-opacity="1" /><path clip-path="url(#clip340)" d="M-123.874 796.177 Q-123.874 803.179 -118.654 807.317 Q-113.434 811.422 -104.427 811.422 Q-95.451 811.422 -90.2311 807.317 Q-85.0112 803.179 -85.0112 796.177 Q-85.0112 789.174 -90.2311 785.1 Q-95.451 780.994 -104.427 780.994 Q-113.434 780.994 -118.654 785.1 Q-123.874 789.174 -123.874 796.177 M-129.094 796.177 Q-129.094 786.182 -122.378 780.199 Q-115.694 774.215 -104.427 774.215 Q-93.1912 774.215 -86.4754 780.199 Q-79.7914 786.182 -79.7914 796.177 Q-79.7914 806.203 -86.4754 812.218 Q-93.1594 818.202 -104.427 818.202 Q-115.694 818.202 -122.378 812.218 Q-129.094 806.203 -129.094 796.177 Z" fill="#000000" fill-rule="nonzero" fill-opacity="1" /><path clip-path="url(#clip340)" d="M-106.336 744.105 Q-105.35 739.49 -102.23 736.912 Q-99.1113 734.302 -94.528 734.302 Q-87.4939 734.302 -83.6426 739.14 Q-79.7914 743.978 -79.7914 752.89 Q-79.7914 755.882 -80.3961 759.065 Q-80.969 762.216 -82.1467 765.589 L-88.3532 765.589 Q-86.7936 762.916 -85.9979 759.733 Q-85.2022 756.55 -85.2022 753.081 Q-85.2022 747.033 -87.5894 743.882 Q-89.9765 740.699 -94.528 740.699 Q-98.7293 740.699 -101.085 743.66 Q-103.472 746.588 -103.472 751.839 L-103.472 757.378 L-108.755 757.378 L-108.755 751.585 Q-108.755 746.842 -110.633 744.328 Q-112.543 741.813 -116.108 741.813 Q-119.768 741.813 -121.71 744.423 Q-123.683 747.002 -123.683 751.839 Q-123.683 754.481 -123.11 757.505 Q-122.537 760.529 -121.328 764.157 L-127.057 764.157 Q-128.075 760.497 -128.585 757.314 Q-129.094 754.099 -129.094 751.267 Q-129.094 743.946 -125.752 739.681 Q-122.442 735.416 -116.776 735.416 Q-112.829 735.416 -110.092 737.676 Q-107.387 739.936 -106.336 744.105 Z" fill="#000000" fill-rule="nonzero" fill-opacity="1" /><polyline clip-path="url(#clip342)" style="stroke:#009af9; stroke-linecap:round; stroke-linejoin:round; stroke-width:4; stroke-opacity:1; fill:none" points="166.42,1089.9 209.739,966.979 253.059,844.061 296.378,721.142 339.698,598.224 383.017,471.029 426.337,309.02 469.656,147.012 512.976,88.5087 556.296,100.325 599.615,112.142 642.935,123.958 686.254,135.775 729.574,147.591 772.893,159.408 816.213,171.224 859.532,183.041 902.852,194.857 946.171,206.674 989.491,218.49 1032.81,230.307 1076.13,254.606 1119.45,283.038 1162.77,311.471 1206.09,339.903 1249.41,368.335 1292.73,396.767 1336.05,425.199 1379.37,453.631 1422.69,482.064 1466.01,510.496 1509.32,538.928 1552.64,567.36 1595.96,595.792 1639.28,624.224 1682.6,652.656 1725.92,681.089 1769.24,709.521 1812.56,737.953 1855.88,766.385 1899.2,794.817 1942.52,823.249 1985.84,851.682 2029.16,880.114 2072.48,908.546 2115.8,936.978 2159.12,965.41 2202.44,993.842 2245.76,1022.27 2289.08,1050.71 "/>
<polyline clip-path="url(#clip342)" style="stroke:#e26f46; stroke-linecap:round; stroke-linejoin:round; stroke-width:4; stroke-opacity:1; fill:none" points="166.42,1250.23 209.739,1127.31 253.059,1004.39 296.378,881.47 339.698,758.551 383.017,631.357 426.337,469.348 469.656,307.339 512.976,248.987 556.296,261.056 599.615,273.126 642.935,285.195 686.254,297.264 729.574,309.334 772.893,321.403 816.213,333.473 859.532,345.542 902.852,357.611 946.171,369.681 989.491,381.75 1032.81,393.82 1076.13,418.372 1119.45,447.057 1162.77,475.743 1206.09,504.428 1249.41,533.113 1292.73,561.798 1336.05,590.483 1379.37,619.168 1422.69,647.853 1466.01,676.538 1509.32,705.223 1552.64,733.908 1595.96,762.593 1639.28,791.278 1682.6,819.964 1725.92,848.649 1769.24,877.334 1812.56,906.019 1855.88,934.704 1899.2,963.389 1942.52,992.074 1985.84,1020.76 2029.16,1049.44 2072.48,1078.13 2115.8,1106.81 2159.12,1135.5 2202.44,1164.18 2245.76,1192.87 2289.08,1221.55 "/>
<polyline clip-path="url(#clip342)" style="stroke:#3da44d; stroke-linecap:round; stroke-linejoin:round; stroke-width:4; stroke-opacity:1; fill:none" points="166.42,1464 209.739,1341.08 253.059,1218.16 296.378,1095.24 339.698,972.321 383.017,845.127 426.337,683.118 469.656,521.109 512.976,462.958 556.296,475.364 599.615,487.771 642.935,500.177 686.254,512.584 729.574,524.991 772.893,537.397 816.213,549.804 859.532,562.211 902.852,574.617 946.171,587.024 989.491,599.431 1032.81,611.837 1076.13,636.727 1119.45,665.749 1162.77,694.772 1206.09,723.794 1249.41,752.816 1292.73,781.839 1336.05,810.861 1379.37,839.883 1422.69,868.906 1466.01,897.928 1509.32,926.95 1552.64,955.973 1595.96,984.995 1639.28,1014.02 1682.6,1043.04 1725.92,1072.06 1769.24,1101.08 1812.56,1130.11 1855.88,1159.13 1899.2,1188.15 1942.52,1217.17 1985.84,1246.2 2029.16,1275.22 2072.48,1304.24 2115.8,1333.26 2159.12,1362.29 2202.44,1391.31 2245.76,1420.33 2289.08,1449.35 "/>
<path clip-path="url(#clip340)" d="M1785.79 303.205 L2277.76 303.205 L2277.76 95.8446 L1785.79 95.8446  Z" fill="#ffffff" fill-rule="evenodd" fill-opacity="1"/>
<polyline clip-path="url(#clip340)" style="stroke:#000000; stroke-linecap:round; stroke-linejoin:round; stroke-width:4; stroke-opacity:1; fill:none" points="1785.79,303.205 2277.76,303.205 2277.76,95.8446 1785.79,95.8446 1785.79,303.205 "/>
<polyline clip-path="url(#clip340)" style="stroke:#009af9; stroke-linecap:round; stroke-linejoin:round; stroke-width:4; stroke-opacity:1; fill:none" points="1810.79,147.685 1960.79,147.685 "/>
<path clip-path="url(#clip340)" d="M1985.79 139.039 L1990.3 139.039 L1998.4 160.798 L2006.51 139.039 L2011.02 139.039 L2001.3 164.965 L1995.51 164.965 L1985.79 139.039 Z" fill="#000000" fill-rule="nonzero" fill-opacity="1" /><path clip-path="url(#clip340)" d="M2016.9 139.039 L2021.16 139.039 L2021.16 164.965 L2016.9 164.965 L2016.9 139.039 M2016.9 128.946 L2021.16 128.946 L2021.16 134.34 L2016.9 134.34 L2016.9 128.946 Z" fill="#000000" fill-rule="nonzero" fill-opacity="1" /><path clip-path="url(#clip340)" d="M2046.6 139.803 L2046.6 143.83 Q2044.79 142.905 2042.85 142.442 Q2040.9 141.979 2038.82 141.979 Q2035.65 141.979 2034.05 142.951 Q2032.48 143.923 2032.48 145.867 Q2032.48 147.349 2033.61 148.205 Q2034.75 149.039 2038.17 149.803 L2039.63 150.127 Q2044.17 151.099 2046.07 152.881 Q2047.99 154.641 2047.99 157.812 Q2047.99 161.423 2045.12 163.529 Q2042.27 165.636 2037.27 165.636 Q2035.19 165.636 2032.92 165.219 Q2030.67 164.826 2028.17 164.016 L2028.17 159.617 Q2030.53 160.844 2032.83 161.469 Q2035.12 162.071 2037.36 162.071 Q2040.37 162.071 2041.99 161.053 Q2043.61 160.011 2043.61 158.136 Q2043.61 156.4 2042.43 155.474 Q2041.27 154.548 2037.32 153.692 L2035.84 153.344 Q2031.88 152.511 2030.12 150.798 Q2028.36 149.062 2028.36 146.053 Q2028.36 142.395 2030.95 140.405 Q2033.54 138.414 2038.31 138.414 Q2040.67 138.414 2042.76 138.761 Q2044.84 139.108 2046.6 139.803 Z" fill="#000000" fill-rule="nonzero" fill-opacity="1" /><path clip-path="url(#clip340)" d="M2055.33 143.437 L2085 143.437 L2085 147.326 L2055.33 147.326 L2055.33 143.437 M2055.33 152.881 L2085 152.881 L2085 156.817 L2055.33 156.817 L2055.33 152.881 Z" fill="#000000" fill-rule="nonzero" fill-opacity="1" /><path clip-path="url(#clip340)" d="M2105.67 145.821 Q2102.52 145.821 2100.67 147.974 Q2098.84 150.127 2098.84 153.877 Q2098.84 157.604 2100.67 159.779 Q2102.52 161.932 2105.67 161.932 Q2108.82 161.932 2110.65 159.779 Q2112.5 157.604 2112.5 153.877 Q2112.5 150.127 2110.65 147.974 Q2108.82 145.821 2105.67 145.821 M2114.96 131.169 L2114.96 135.428 Q2113.2 134.594 2111.39 134.155 Q2109.61 133.715 2107.85 133.715 Q2103.22 133.715 2100.77 136.84 Q2098.33 139.965 2097.99 146.284 Q2099.35 144.27 2101.41 143.205 Q2103.47 142.118 2105.95 142.118 Q2111.16 142.118 2114.17 145.289 Q2117.2 148.437 2117.2 153.877 Q2117.2 159.201 2114.05 162.418 Q2110.9 165.636 2105.67 165.636 Q2099.68 165.636 2096.51 161.053 Q2093.33 156.446 2093.33 147.719 Q2093.33 139.525 2097.22 134.664 Q2101.11 129.78 2107.66 129.78 Q2109.42 129.78 2111.21 130.127 Q2113.01 130.474 2114.96 131.169 Z" fill="#000000" fill-rule="nonzero" fill-opacity="1" /><path clip-path="url(#clip340)" d="M2135.26 133.483 Q2131.64 133.483 2129.82 137.048 Q2128.01 140.59 2128.01 147.719 Q2128.01 154.826 2129.82 158.391 Q2131.64 161.932 2135.26 161.932 Q2138.89 161.932 2140.7 158.391 Q2142.52 154.826 2142.52 147.719 Q2142.52 140.59 2140.7 137.048 Q2138.89 133.483 2135.26 133.483 M2135.26 129.78 Q2141.07 129.78 2144.12 134.386 Q2147.2 138.969 2147.2 147.719 Q2147.2 156.446 2144.12 161.053 Q2141.07 165.636 2135.26 165.636 Q2129.45 165.636 2126.37 161.053 Q2123.31 156.446 2123.31 147.719 Q2123.31 138.969 2126.37 134.386 Q2129.45 129.78 2135.26 129.78 Z" fill="#000000" fill-rule="nonzero" fill-opacity="1" /><path clip-path="url(#clip340)" d="M2155.42 159.085 L2160.3 159.085 L2160.3 164.965 L2155.42 164.965 L2155.42 159.085 Z" fill="#000000" fill-rule="nonzero" fill-opacity="1" /><path clip-path="url(#clip340)" d="M2180.49 133.483 Q2176.88 133.483 2175.05 137.048 Q2173.24 140.59 2173.24 147.719 Q2173.24 154.826 2175.05 158.391 Q2176.88 161.932 2180.49 161.932 Q2184.12 161.932 2185.93 158.391 Q2187.76 154.826 2187.76 147.719 Q2187.76 140.59 2185.93 137.048 Q2184.12 133.483 2180.49 133.483 M2180.49 129.78 Q2186.3 129.78 2189.35 134.386 Q2192.43 138.969 2192.43 147.719 Q2192.43 156.446 2189.35 161.053 Q2186.3 165.636 2180.49 165.636 Q2174.68 165.636 2171.6 161.053 Q2168.54 156.446 2168.54 147.719 Q2168.54 138.969 2171.6 134.386 Q2174.68 129.78 2180.49 129.78 Z" fill="#000000" fill-rule="nonzero" fill-opacity="1" /><path clip-path="url(#clip340)" d="M2210.65 133.483 Q2207.04 133.483 2205.21 137.048 Q2203.4 140.59 2203.4 147.719 Q2203.4 154.826 2205.21 158.391 Q2207.04 161.932 2210.65 161.932 Q2214.28 161.932 2216.09 158.391 Q2217.92 154.826 2217.92 147.719 Q2217.92 140.59 2216.09 137.048 Q2214.28 133.483 2210.65 133.483 M2210.65 129.78 Q2216.46 129.78 2219.51 134.386 Q2222.59 138.969 2222.59 147.719 Q2222.59 156.446 2219.51 161.053 Q2216.46 165.636 2210.65 165.636 Q2204.84 165.636 2201.76 161.053 Q2198.7 156.446 2198.7 147.719 Q2198.7 138.969 2201.76 134.386 Q2204.84 129.78 2210.65 129.78 Z" fill="#000000" fill-rule="nonzero" fill-opacity="1" /><polyline clip-path="url(#clip340)" style="stroke:#e26f46; stroke-linecap:round; stroke-linejoin:round; stroke-width:4; stroke-opacity:1; fill:none" points="1810.79,199.525 1960.79,199.525 "/>
<path clip-path="url(#clip340)" d="M1985.79 190.879 L1990.3 190.879 L1998.4 212.638 L2006.51 190.879 L2011.02 190.879 L2001.3 216.805 L1995.51 216.805 L1985.79 190.879 Z" fill="#000000" fill-rule="nonzero" fill-opacity="1" /><path clip-path="url(#clip340)" d="M2016.9 190.879 L2021.16 190.879 L2021.16 216.805 L2016.9 216.805 L2016.9 190.879 M2016.9 180.786 L2021.16 180.786 L2021.16 186.18 L2016.9 186.18 L2016.9 180.786 Z" fill="#000000" fill-rule="nonzero" fill-opacity="1" /><path clip-path="url(#clip340)" d="M2046.6 191.643 L2046.6 195.67 Q2044.79 194.745 2042.85 194.282 Q2040.9 193.819 2038.82 193.819 Q2035.65 193.819 2034.05 194.791 Q2032.48 195.763 2032.48 197.707 Q2032.48 199.189 2033.61 200.045 Q2034.75 200.879 2038.17 201.643 L2039.63 201.967 Q2044.17 202.939 2046.07 204.721 Q2047.99 206.481 2047.99 209.652 Q2047.99 213.263 2045.12 215.369 Q2042.27 217.476 2037.27 217.476 Q2035.19 217.476 2032.92 217.059 Q2030.67 216.666 2028.17 215.856 L2028.17 211.457 Q2030.53 212.684 2032.83 213.309 Q2035.12 213.911 2037.36 213.911 Q2040.37 213.911 2041.99 212.893 Q2043.61 211.851 2043.61 209.976 Q2043.61 208.24 2042.43 207.314 Q2041.27 206.388 2037.32 205.532 L2035.84 205.184 Q2031.88 204.351 2030.12 202.638 Q2028.36 200.902 2028.36 197.893 Q2028.36 194.235 2030.95 192.245 Q2033.54 190.254 2038.31 190.254 Q2040.67 190.254 2042.76 190.601 Q2044.84 190.948 2046.6 191.643 Z" fill="#000000" fill-rule="nonzero" fill-opacity="1" /><path clip-path="url(#clip340)" d="M2055.33 195.277 L2085 195.277 L2085 199.166 L2055.33 199.166 L2055.33 195.277 M2055.33 204.721 L2085 204.721 L2085 208.657 L2055.33 208.657 L2055.33 204.721 Z" fill="#000000" fill-rule="nonzero" fill-opacity="1" /><path clip-path="url(#clip340)" d="M2095.9 212.869 L2103.54 212.869 L2103.54 186.504 L2095.23 188.171 L2095.23 183.911 L2103.5 182.245 L2108.17 182.245 L2108.17 212.869 L2115.81 212.869 L2115.81 216.805 L2095.9 216.805 L2095.9 212.869 Z" fill="#000000" fill-rule="nonzero" fill-opacity="1" /><path clip-path="url(#clip340)" d="M2129.28 212.869 L2145.6 212.869 L2145.6 216.805 L2123.66 216.805 L2123.66 212.869 Q2126.32 210.115 2130.9 205.485 Q2135.51 200.832 2136.69 199.49 Q2138.94 196.967 2139.82 195.231 Q2140.72 193.471 2140.72 191.782 Q2140.72 189.027 2138.77 187.291 Q2136.85 185.555 2133.75 185.555 Q2131.55 185.555 2129.1 186.319 Q2126.67 187.083 2123.89 188.633 L2123.89 183.911 Q2126.71 182.777 2129.17 182.198 Q2131.62 181.62 2133.66 181.62 Q2139.03 181.62 2142.22 184.305 Q2145.42 186.99 2145.42 191.481 Q2145.42 193.61 2144.61 195.532 Q2143.82 197.43 2141.71 200.022 Q2141.14 200.694 2138.03 203.911 Q2134.93 207.106 2129.28 212.869 Z" fill="#000000" fill-rule="nonzero" fill-opacity="1" /><path clip-path="url(#clip340)" d="M2165.42 185.323 Q2161.81 185.323 2159.98 188.888 Q2158.17 192.43 2158.17 199.559 Q2158.17 206.666 2159.98 210.231 Q2161.81 213.772 2165.42 213.772 Q2169.05 213.772 2170.86 210.231 Q2172.69 206.666 2172.69 199.559 Q2172.69 192.43 2170.86 188.888 Q2169.05 185.323 2165.42 185.323 M2165.42 181.62 Q2171.23 181.62 2174.28 186.226 Q2177.36 190.809 2177.36 199.559 Q2177.36 208.286 2174.28 212.893 Q2171.23 217.476 2165.42 217.476 Q2159.61 217.476 2156.53 212.893 Q2153.47 208.286 2153.47 199.559 Q2153.47 190.809 2156.53 186.226 Q2159.61 181.62 2165.42 181.62 Z" fill="#000000" fill-rule="nonzero" fill-opacity="1" /><path clip-path="url(#clip340)" d="M2185.58 210.925 L2190.46 210.925 L2190.46 216.805 L2185.58 216.805 L2185.58 210.925 Z" fill="#000000" fill-rule="nonzero" fill-opacity="1" /><path clip-path="url(#clip340)" d="M2210.65 185.323 Q2207.04 185.323 2205.21 188.888 Q2203.4 192.43 2203.4 199.559 Q2203.4 206.666 2205.21 210.231 Q2207.04 213.772 2210.65 213.772 Q2214.28 213.772 2216.09 210.231 Q2217.92 206.666 2217.92 199.559 Q2217.92 192.43 2216.09 188.888 Q2214.28 185.323 2210.65 185.323 M2210.65 181.62 Q2216.46 181.62 2219.51 186.226 Q2222.59 190.809 2222.59 199.559 Q2222.59 208.286 2219.51 212.893 Q2216.46 217.476 2210.65 217.476 Q2204.84 217.476 2201.76 212.893 Q2198.7 208.286 2198.7 199.559 Q2198.7 190.809 2201.76 186.226 Q2204.84 181.62 2210.65 181.62 Z" fill="#000000" fill-rule="nonzero" fill-opacity="1" /><path clip-path="url(#clip340)" d="M2240.81 185.323 Q2237.2 185.323 2235.37 188.888 Q2233.57 192.43 2233.57 199.559 Q2233.57 206.666 2235.37 210.231 Q2237.2 213.772 2240.81 213.772 Q2244.45 213.772 2246.25 210.231 Q2248.08 206.666 2248.08 199.559 Q2248.08 192.43 2246.25 188.888 Q2244.45 185.323 2240.81 185.323 M2240.81 181.62 Q2246.62 181.62 2249.68 186.226 Q2252.76 190.809 2252.76 199.559 Q2252.76 208.286 2249.68 212.893 Q2246.62 217.476 2240.81 217.476 Q2235 217.476 2231.92 212.893 Q2228.87 208.286 2228.87 199.559 Q2228.87 190.809 2231.92 186.226 Q2235 181.62 2240.81 181.62 Z" fill="#000000" fill-rule="nonzero" fill-opacity="1" /><polyline clip-path="url(#clip340)" style="stroke:#3da44d; stroke-linecap:round; stroke-linejoin:round; stroke-width:4; stroke-opacity:1; fill:none" points="1810.79,251.365 1960.79,251.365 "/>
<path clip-path="url(#clip340)" d="M1985.79 242.719 L1990.3 242.719 L1998.4 264.478 L2006.51 242.719 L2011.02 242.719 L2001.3 268.645 L1995.51 268.645 L1985.79 242.719 Z" fill="#000000" fill-rule="nonzero" fill-opacity="1" /><path clip-path="url(#clip340)" d="M2016.9 242.719 L2021.16 242.719 L2021.16 268.645 L2016.9 268.645 L2016.9 242.719 M2016.9 232.626 L2021.16 232.626 L2021.16 238.02 L2016.9 238.02 L2016.9 232.626 Z" fill="#000000" fill-rule="nonzero" fill-opacity="1" /><path clip-path="url(#clip340)" d="M2046.6 243.483 L2046.6 247.51 Q2044.79 246.585 2042.85 246.122 Q2040.9 245.659 2038.82 245.659 Q2035.65 245.659 2034.05 246.631 Q2032.48 247.603 2032.48 249.547 Q2032.48 251.029 2033.61 251.885 Q2034.75 252.719 2038.17 253.483 L2039.63 253.807 Q2044.17 254.779 2046.07 256.561 Q2047.99 258.321 2047.99 261.492 Q2047.99 265.103 2045.12 267.209 Q2042.27 269.316 2037.27 269.316 Q2035.19 269.316 2032.92 268.899 Q2030.67 268.506 2028.17 267.696 L2028.17 263.297 Q2030.53 264.524 2032.83 265.149 Q2035.12 265.751 2037.36 265.751 Q2040.37 265.751 2041.99 264.733 Q2043.61 263.691 2043.61 261.816 Q2043.61 260.08 2042.43 259.154 Q2041.27 258.228 2037.32 257.372 L2035.84 257.024 Q2031.88 256.191 2030.12 254.478 Q2028.36 252.742 2028.36 249.733 Q2028.36 246.075 2030.95 244.085 Q2033.54 242.094 2038.31 242.094 Q2040.67 242.094 2042.76 242.441 Q2044.84 242.788 2046.6 243.483 Z" fill="#000000" fill-rule="nonzero" fill-opacity="1" /><path clip-path="url(#clip340)" d="M2055.33 247.117 L2085 247.117 L2085 251.006 L2055.33 251.006 L2055.33 247.117 M2055.33 256.561 L2085 256.561 L2085 260.497 L2055.33 260.497 L2055.33 256.561 Z" fill="#000000" fill-rule="nonzero" fill-opacity="1" /><path clip-path="url(#clip340)" d="M2099.12 264.709 L2115.44 264.709 L2115.44 268.645 L2093.5 268.645 L2093.5 264.709 Q2096.16 261.955 2100.74 257.325 Q2105.35 252.672 2106.53 251.33 Q2108.77 248.807 2109.65 247.071 Q2110.56 245.311 2110.56 243.622 Q2110.56 240.867 2108.61 239.131 Q2106.69 237.395 2103.59 237.395 Q2101.39 237.395 2098.94 238.159 Q2096.51 238.923 2093.73 240.473 L2093.73 235.751 Q2096.55 234.617 2099.01 234.038 Q2101.46 233.46 2103.5 233.46 Q2108.87 233.46 2112.06 236.145 Q2115.26 238.83 2115.26 243.321 Q2115.26 245.45 2114.45 247.372 Q2113.66 249.27 2111.55 251.862 Q2110.97 252.534 2107.87 255.751 Q2104.77 258.946 2099.12 264.709 Z" fill="#000000" fill-rule="nonzero" fill-opacity="1" /><path clip-path="url(#clip340)" d="M2135.26 237.163 Q2131.64 237.163 2129.82 240.728 Q2128.01 244.27 2128.01 251.399 Q2128.01 258.506 2129.82 262.071 Q2131.64 265.612 2135.26 265.612 Q2138.89 265.612 2140.7 262.071 Q2142.52 258.506 2142.52 251.399 Q2142.52 244.27 2140.7 240.728 Q2138.89 237.163 2135.26 237.163 M2135.26 233.46 Q2141.07 233.46 2144.12 238.066 Q2147.2 242.649 2147.2 251.399 Q2147.2 260.126 2144.12 264.733 Q2141.07 269.316 2135.26 269.316 Q2129.45 269.316 2126.37 264.733 Q2123.31 260.126 2123.31 251.399 Q2123.31 242.649 2126.37 238.066 Q2129.45 233.46 2135.26 233.46 Z" fill="#000000" fill-rule="nonzero" fill-opacity="1" /><path clip-path="url(#clip340)" d="M2165.42 237.163 Q2161.81 237.163 2159.98 240.728 Q2158.17 244.27 2158.17 251.399 Q2158.17 258.506 2159.98 262.071 Q2161.81 265.612 2165.42 265.612 Q2169.05 265.612 2170.86 262.071 Q2172.69 258.506 2172.69 251.399 Q2172.69 244.27 2170.86 240.728 Q2169.05 237.163 2165.42 237.163 M2165.42 233.46 Q2171.23 233.46 2174.28 238.066 Q2177.36 242.649 2177.36 251.399 Q2177.36 260.126 2174.28 264.733 Q2171.23 269.316 2165.42 269.316 Q2159.61 269.316 2156.53 264.733 Q2153.47 260.126 2153.47 251.399 Q2153.47 242.649 2156.53 238.066 Q2159.61 233.46 2165.42 233.46 Z" fill="#000000" fill-rule="nonzero" fill-opacity="1" /><path clip-path="url(#clip340)" d="M2185.58 262.765 L2190.46 262.765 L2190.46 268.645 L2185.58 268.645 L2185.58 262.765 Z" fill="#000000" fill-rule="nonzero" fill-opacity="1" /><path clip-path="url(#clip340)" d="M2210.65 237.163 Q2207.04 237.163 2205.21 240.728 Q2203.4 244.27 2203.4 251.399 Q2203.4 258.506 2205.21 262.071 Q2207.04 265.612 2210.65 265.612 Q2214.28 265.612 2216.09 262.071 Q2217.92 258.506 2217.92 251.399 Q2217.92 244.27 2216.09 240.728 Q2214.28 237.163 2210.65 237.163 M2210.65 233.46 Q2216.46 233.46 2219.51 238.066 Q2222.59 242.649 2222.59 251.399 Q2222.59 260.126 2219.51 264.733 Q2216.46 269.316 2210.65 269.316 Q2204.84 269.316 2201.76 264.733 Q2198.7 260.126 2198.7 251.399 Q2198.7 242.649 2201.76 238.066 Q2204.84 233.46 2210.65 233.46 Z" fill="#000000" fill-rule="nonzero" fill-opacity="1" /><path clip-path="url(#clip340)" d="M2240.81 237.163 Q2237.2 237.163 2235.37 240.728 Q2233.57 244.27 2233.57 251.399 Q2233.57 258.506 2235.37 262.071 Q2237.2 265.612 2240.81 265.612 Q2244.45 265.612 2246.25 262.071 Q2248.08 258.506 2248.08 251.399 Q2248.08 244.27 2246.25 240.728 Q2244.45 237.163 2240.81 237.163 M2240.81 233.46 Q2246.62 233.46 2249.68 238.066 Q2252.76 242.649 2252.76 251.399 Q2252.76 260.126 2249.68 264.733 Q2246.62 269.316 2240.81 269.316 Q2235 269.316 2231.92 264.733 Q2228.87 260.126 2228.87 251.399 Q2228.87 242.649 2231.92 238.066 Q2235 233.46 2240.81 233.46 Z" fill="#000000" fill-rule="nonzero" fill-opacity="1" /></svg>
