<?xml version="1.0" encoding="utf-8"?>
<svg xmlns="http://www.w3.org/2000/svg" xmlns:xlink="http://www.w3.org/1999/xlink" width="600" height="400" viewBox="0 0 2400 1600">
<defs>
  <clipPath id="clip760">
    <rect x="0" y="0" width="2400" height="1600"/>
  </clipPath>
</defs>
<path clip-path="url(#clip760)" d="M0 1600 L2400 1600 L2400 0 L0 0  Z" fill="#ffffff" fill-rule="evenodd" fill-opacity="1"/>
<defs>
  <clipPath id="clip761">
    <rect x="480" y="0" width="1681" height="1600"/>
  </clipPath>
</defs>
<path clip-path="url(#clip760)" d="M219.866 1423.18 L2352.76 1423.18 L2352.76 47.2441 L219.866 47.2441  Z" fill="#ffffff" fill-rule="evenodd" fill-opacity="1"/>
<defs>
  <clipPath id="clip762">
    <rect x="219" y="47" width="2134" height="1377"/>
  </clipPath>
</defs>
<polyline clip-path="url(#clip762)" style="stroke:#000000; stroke-linecap:round; stroke-linejoin:round; stroke-width:2; stroke-opacity:0.1; fill:none" points="548.519,1423.18 548.519,47.2441 "/>
<polyline clip-path="url(#clip762)" style="stroke:#000000; stroke-linecap:round; stroke-linejoin:round; stroke-width:2; stroke-opacity:0.1; fill:none" points="883.879,1423.18 883.879,47.2441 "/>
<polyline clip-path="url(#clip762)" style="stroke:#000000; stroke-linecap:round; stroke-linejoin:round; stroke-width:2; stroke-opacity:0.1; fill:none" points="1219.24,1423.18 1219.24,47.2441 "/>
<polyline clip-path="url(#clip762)" style="stroke:#000000; stroke-linecap:round; stroke-linejoin:round; stroke-width:2; stroke-opacity:0.1; fill:none" points="1554.6,1423.18 1554.6,47.2441 "/>
<polyline clip-path="url(#clip762)" style="stroke:#000000; stroke-linecap:round; stroke-linejoin:round; stroke-width:2; stroke-opacity:0.1; fill:none" points="1889.96,1423.18 1889.96,47.2441 "/>
<polyline clip-path="url(#clip762)" style="stroke:#000000; stroke-linecap:round; stroke-linejoin:round; stroke-width:2; stroke-opacity:0.1; fill:none" points="2225.32,1423.18 2225.32,47.2441 "/>
<polyline clip-path="url(#clip760)" style="stroke:#000000; stroke-linecap:round; stroke-linejoin:round; stroke-width:4; stroke-opacity:1; fill:none" points="219.866,1423.18 2352.76,1423.18 "/>
<polyline clip-path="url(#clip760)" style="stroke:#000000; stroke-linecap:round; stroke-linejoin:round; stroke-width:4; stroke-opacity:1; fill:none" points="548.519,1423.18 548.519,1404.28 "/>
<polyline clip-path="url(#clip760)" style="stroke:#000000; stroke-linecap:round; stroke-linejoin:round; stroke-width:4; stroke-opacity:1; fill:none" points="883.879,1423.18 883.879,1404.28 "/>
<polyline clip-path="url(#clip760)" style="stroke:#000000; stroke-linecap:round; stroke-linejoin:round; stroke-width:4; stroke-opacity:1; fill:none" points="1219.24,1423.18 1219.24,1404.28 "/>
<polyline clip-path="url(#clip760)" style="stroke:#000000; stroke-linecap:round; stroke-linejoin:round; stroke-width:4; stroke-opacity:1; fill:none" points="1554.6,1423.18 1554.6,1404.28 "/>
<polyline clip-path="url(#clip760)" style="stroke:#000000; stroke-linecap:round; stroke-linejoin:round; stroke-width:4; stroke-opacity:1; fill:none" points="1889.96,1423.18 1889.96,1404.28 "/>
<polyline clip-path="url(#clip760)" style="stroke:#000000; stroke-linecap:round; stroke-linejoin:round; stroke-width:4; stroke-opacity:1; fill:none" points="2225.32,1423.18 2225.32,1404.28 "/>
<path clip-path="url(#clip760)" d="M538.797 1451.02 L557.153 1451.02 L557.153 1454.96 L543.079 1454.96 L543.079 1463.43 Q544.098 1463.08 545.116 1462.92 Q546.135 1462.73 547.153 1462.73 Q552.94 1462.73 556.32 1465.9 Q559.7 1469.08 559.7 1474.49 Q559.7 1480.07 556.227 1483.17 Q552.755 1486.25 546.436 1486.25 Q544.26 1486.25 541.991 1485.88 Q539.746 1485.51 537.339 1484.77 L537.339 1480.07 Q539.422 1481.2 541.644 1481.76 Q543.866 1482.32 546.343 1482.32 Q550.348 1482.32 552.686 1480.21 Q555.024 1478.1 555.024 1474.49 Q555.024 1470.88 552.686 1468.77 Q550.348 1466.67 546.343 1466.67 Q544.468 1466.67 542.593 1467.08 Q540.741 1467.5 538.797 1468.38 L538.797 1451.02 Z" fill="#000000" fill-rule="nonzero" fill-opacity="1" /><path clip-path="url(#clip760)" d="M858.567 1481.64 L866.206 1481.64 L866.206 1455.28 L857.895 1456.95 L857.895 1452.69 L866.159 1451.02 L870.835 1451.02 L870.835 1481.64 L878.474 1481.64 L878.474 1485.58 L858.567 1485.58 L858.567 1481.64 Z" fill="#000000" fill-rule="nonzero" fill-opacity="1" /><path clip-path="url(#clip760)" d="M897.918 1454.1 Q894.307 1454.1 892.479 1457.66 Q890.673 1461.2 890.673 1468.33 Q890.673 1475.44 892.479 1479.01 Q894.307 1482.55 897.918 1482.55 Q901.553 1482.55 903.358 1479.01 Q905.187 1475.44 905.187 1468.33 Q905.187 1461.2 903.358 1457.66 Q901.553 1454.1 897.918 1454.1 M897.918 1450.39 Q903.729 1450.39 906.784 1455 Q909.863 1459.58 909.863 1468.33 Q909.863 1477.06 906.784 1481.67 Q903.729 1486.25 897.918 1486.25 Q892.108 1486.25 889.03 1481.67 Q885.974 1477.06 885.974 1468.33 Q885.974 1459.58 889.03 1455 Q892.108 1450.39 897.918 1450.39 Z" fill="#000000" fill-rule="nonzero" fill-opacity="1" /><path clip-path="url(#clip760)" d="M1194.42 1481.64 L1202.06 1481.64 L1202.06 1455.28 L1193.75 1456.95 L1193.75 1452.69 L1202.02 1451.02 L1206.69 1451.02 L1206.69 1481.64 L1214.33 1481.64 L1214.33 1485.58 L1194.42 1485.58 L1194.42 1481.64 Z" fill="#000000" fill-rule="nonzero" fill-opacity="1" /><path clip-path="url(#clip760)" d="M1223.82 1451.02 L1242.18 1451.02 L1242.18 1454.96 L1228.1 1454.96 L1228.1 1463.43 Q1229.12 1463.08 1230.14 1462.92 Q1231.16 1462.73 1232.18 1462.73 Q1237.97 1462.73 1241.35 1465.9 Q1244.73 1469.08 1244.73 1474.49 Q1244.73 1480.07 1241.25 1483.17 Q1237.78 1486.25 1231.46 1486.25 Q1229.29 1486.25 1227.02 1485.88 Q1224.77 1485.51 1222.36 1484.77 L1222.36 1480.07 Q1224.45 1481.2 1226.67 1481.76 Q1228.89 1482.32 1231.37 1482.32 Q1235.37 1482.32 1237.71 1480.21 Q1240.05 1478.1 1240.05 1474.49 Q1240.05 1470.88 1237.71 1468.77 Q1235.37 1466.67 1231.37 1466.67 Q1229.49 1466.67 1227.62 1467.08 Q1225.77 1467.5 1223.82 1468.38 L1223.82 1451.02 Z" fill="#000000" fill-rule="nonzero" fill-opacity="1" /><path clip-path="url(#clip760)" d="M1533.37 1481.64 L1549.69 1481.64 L1549.69 1485.58 L1527.75 1485.58 L1527.75 1481.64 Q1530.41 1478.89 1534.99 1474.26 Q1539.6 1469.61 1540.78 1468.27 Q1543.03 1465.74 1543.9 1464.01 Q1544.81 1462.25 1544.81 1460.56 Q1544.81 1457.8 1542.86 1456.07 Q1540.94 1454.33 1537.84 1454.33 Q1535.64 1454.33 1533.19 1455.09 Q1530.76 1455.86 1527.98 1457.41 L1527.98 1452.69 Q1530.8 1451.55 1533.26 1450.97 Q1535.71 1450.39 1537.75 1450.39 Q1543.12 1450.39 1546.31 1453.08 Q1549.51 1455.77 1549.51 1460.26 Q1549.51 1462.39 1548.7 1464.31 Q1547.91 1466.2 1545.8 1468.8 Q1545.22 1469.47 1542.12 1472.69 Q1539.02 1475.88 1533.37 1481.64 Z" fill="#000000" fill-rule="nonzero" fill-opacity="1" /><path clip-path="url(#clip760)" d="M1569.51 1454.1 Q1565.9 1454.1 1564.07 1457.66 Q1562.26 1461.2 1562.26 1468.33 Q1562.26 1475.44 1564.07 1479.01 Q1565.9 1482.55 1569.51 1482.55 Q1573.14 1482.55 1574.95 1479.01 Q1576.77 1475.44 1576.77 1468.33 Q1576.77 1461.2 1574.95 1457.66 Q1573.14 1454.1 1569.51 1454.1 M1569.51 1450.39 Q1575.32 1450.39 1578.37 1455 Q1581.45 1459.58 1581.45 1468.33 Q1581.45 1477.06 1578.37 1481.67 Q1575.32 1486.25 1569.51 1486.25 Q1563.7 1486.25 1560.62 1481.67 Q1557.56 1477.06 1557.56 1468.33 Q1557.56 1459.58 1560.62 1455 Q1563.7 1450.39 1569.51 1450.39 Z" fill="#000000" fill-rule="nonzero" fill-opacity="1" /><path clip-path="url(#clip760)" d="M1869.23 1481.64 L1885.55 1481.64 L1885.55 1485.58 L1863.61 1485.58 L1863.61 1481.64 Q1866.27 1478.89 1870.85 1474.26 Q1875.46 1469.61 1876.64 1468.27 Q1878.88 1465.74 1879.76 1464.01 Q1880.67 1462.25 1880.67 1460.56 Q1880.67 1457.8 1878.72 1456.07 Q1876.8 1454.33 1873.7 1454.33 Q1871.5 1454.33 1869.04 1455.09 Q1866.61 1455.86 1863.84 1457.41 L1863.84 1452.69 Q1866.66 1451.55 1869.11 1450.97 Q1871.57 1450.39 1873.61 1450.39 Q1878.98 1450.39 1882.17 1453.08 Q1885.36 1455.77 1885.36 1460.26 Q1885.36 1462.39 1884.55 1464.31 Q1883.77 1466.2 1881.66 1468.8 Q1881.08 1469.47 1877.98 1472.69 Q1874.88 1475.88 1869.23 1481.64 Z" fill="#000000" fill-rule="nonzero" fill-opacity="1" /><path clip-path="url(#clip760)" d="M1895.41 1451.02 L1913.77 1451.02 L1913.77 1454.96 L1899.69 1454.96 L1899.69 1463.43 Q1900.71 1463.08 1901.73 1462.92 Q1902.75 1462.73 1903.77 1462.73 Q1909.55 1462.73 1912.93 1465.9 Q1916.31 1469.08 1916.31 1474.49 Q1916.31 1480.07 1912.84 1483.17 Q1909.37 1486.25 1903.05 1486.25 Q1900.87 1486.25 1898.6 1485.88 Q1896.36 1485.51 1893.95 1484.77 L1893.95 1480.07 Q1896.04 1481.2 1898.26 1481.76 Q1900.48 1482.32 1902.96 1482.32 Q1906.96 1482.32 1909.3 1480.21 Q1911.64 1478.1 1911.64 1474.49 Q1911.64 1470.88 1909.3 1468.77 Q1906.96 1466.67 1902.96 1466.67 Q1901.08 1466.67 1899.21 1467.08 Q1897.35 1467.5 1895.41 1468.38 L1895.41 1451.02 Z" fill="#000000" fill-rule="nonzero" fill-opacity="1" /><path clip-path="url(#clip760)" d="M2214.16 1466.95 Q2217.52 1467.66 2219.39 1469.93 Q2221.29 1472.2 2221.29 1475.53 Q2221.29 1480.65 2217.77 1483.45 Q2214.25 1486.25 2207.77 1486.25 Q2205.6 1486.25 2203.28 1485.81 Q2200.99 1485.39 2198.54 1484.54 L2198.54 1480.02 Q2200.48 1481.16 2202.8 1481.74 Q2205.11 1482.32 2207.63 1482.32 Q2212.03 1482.32 2214.32 1480.58 Q2216.64 1478.84 2216.64 1475.53 Q2216.64 1472.48 2214.49 1470.77 Q2212.36 1469.03 2208.54 1469.03 L2204.51 1469.03 L2204.51 1465.19 L2208.72 1465.19 Q2212.17 1465.19 2214 1463.82 Q2215.83 1462.43 2215.83 1459.84 Q2215.83 1457.18 2213.93 1455.77 Q2212.06 1454.33 2208.54 1454.33 Q2206.62 1454.33 2204.42 1454.75 Q2202.22 1455.16 2199.58 1456.04 L2199.58 1451.88 Q2202.24 1451.14 2204.56 1450.77 Q2206.89 1450.39 2208.95 1450.39 Q2214.28 1450.39 2217.38 1452.83 Q2220.48 1455.23 2220.48 1459.35 Q2220.48 1462.22 2218.84 1464.21 Q2217.19 1466.18 2214.16 1466.95 Z" fill="#000000" fill-rule="nonzero" fill-opacity="1" /><path clip-path="url(#clip760)" d="M2240.16 1454.1 Q2236.55 1454.1 2234.72 1457.66 Q2232.91 1461.2 2232.91 1468.33 Q2232.91 1475.44 2234.72 1479.01 Q2236.55 1482.55 2240.16 1482.55 Q2243.79 1482.55 2245.6 1479.01 Q2247.43 1475.44 2247.43 1468.33 Q2247.43 1461.2 2245.6 1457.66 Q2243.79 1454.1 2240.16 1454.1 M2240.16 1450.39 Q2245.97 1450.39 2249.02 1455 Q2252.1 1459.58 2252.1 1468.33 Q2252.1 1477.06 2249.02 1481.67 Q2245.97 1486.25 2240.16 1486.25 Q2234.35 1486.25 2231.27 1481.67 Q2228.21 1477.06 2228.21 1468.33 Q2228.21 1459.58 2231.27 1455 Q2234.35 1450.39 2240.16 1450.39 Z" fill="#000000" fill-rule="nonzero" fill-opacity="1" /><path clip-path="url(#clip760)" d="M1013.65 1520.52 L1022.31 1520.52 L1043.38 1560.28 L1043.38 1520.52 L1049.62 1520.52 L1049.62 1568.04 L1040.96 1568.04 L1019.89 1528.29 L1019.89 1568.04 L1013.65 1568.04 L1013.65 1520.52 Z" fill="#000000" fill-rule="nonzero" fill-opacity="1" /><path clip-path="url(#clip760)" d="M1061.55 1553.98 L1061.55 1532.4 L1067.41 1532.4 L1067.41 1553.75 Q1067.41 1558.81 1069.38 1561.36 Q1071.36 1563.87 1075.3 1563.87 Q1080.05 1563.87 1082.78 1560.85 Q1085.55 1557.83 1085.55 1552.61 L1085.55 1532.4 L1091.41 1532.4 L1091.41 1568.04 L1085.55 1568.04 L1085.55 1562.57 Q1083.42 1565.82 1080.59 1567.41 Q1077.79 1568.97 1074.06 1568.97 Q1067.92 1568.97 1064.74 1565.15 Q1061.55 1561.33 1061.55 1553.98 M1076.29 1531.54 L1076.29 1531.54 Z" fill="#000000" fill-rule="nonzero" fill-opacity="1" /><path clip-path="url(#clip760)" d="M1131.23 1539.24 Q1133.42 1535.29 1136.48 1533.41 Q1139.53 1531.54 1143.67 1531.54 Q1149.24 1531.54 1152.27 1535.45 Q1155.29 1539.33 1155.29 1546.53 L1155.29 1568.04 L1149.4 1568.04 L1149.4 1546.72 Q1149.4 1541.59 1147.59 1539.11 Q1145.77 1536.63 1142.05 1536.63 Q1137.5 1536.63 1134.86 1539.65 Q1132.21 1542.68 1132.21 1547.9 L1132.21 1568.04 L1126.32 1568.04 L1126.32 1546.72 Q1126.32 1541.56 1124.51 1539.11 Q1122.7 1536.63 1118.91 1536.63 Q1114.42 1536.63 1111.78 1539.68 Q1109.14 1542.71 1109.14 1547.9 L1109.14 1568.04 L1103.25 1568.04 L1103.25 1532.4 L1109.14 1532.4 L1109.14 1537.93 Q1111.14 1534.66 1113.94 1533.1 Q1116.74 1531.54 1120.6 1531.54 Q1124.48 1531.54 1127.18 1533.51 Q1129.92 1535.48 1131.23 1539.24 Z" fill="#000000" fill-rule="nonzero" fill-opacity="1" /><path clip-path="url(#clip760)" d="M1192.56 1550.25 Q1192.56 1543.79 1189.89 1540.13 Q1187.24 1536.44 1182.6 1536.44 Q1177.95 1536.44 1175.28 1540.13 Q1172.64 1543.79 1172.64 1550.25 Q1172.64 1556.71 1175.28 1560.4 Q1177.95 1564.07 1182.6 1564.07 Q1187.24 1564.07 1189.89 1560.4 Q1192.56 1556.71 1192.56 1550.25 M1172.64 1537.81 Q1174.48 1534.62 1177.28 1533.1 Q1180.12 1531.54 1184.03 1531.54 Q1190.52 1531.54 1194.57 1536.69 Q1198.64 1541.85 1198.64 1550.25 Q1198.64 1558.65 1194.57 1563.81 Q1190.52 1568.97 1184.03 1568.97 Q1180.12 1568.97 1177.28 1567.44 Q1174.48 1565.88 1172.64 1562.7 L1172.64 1568.04 L1166.75 1568.04 L1166.75 1518.52 L1172.64 1518.52 L1172.64 1537.81 Z" fill="#000000" fill-rule="nonzero" fill-opacity="1" /><path clip-path="url(#clip760)" d="M1238.84 1548.76 L1238.84 1551.62 L1211.91 1551.62 Q1212.29 1557.67 1215.54 1560.85 Q1218.82 1564 1224.64 1564 Q1228.02 1564 1231.17 1563.17 Q1234.35 1562.35 1237.47 1560.69 L1237.47 1566.23 Q1234.32 1567.57 1231.01 1568.27 Q1227.7 1568.97 1224.29 1568.97 Q1215.76 1568.97 1210.77 1564 Q1205.8 1559.04 1205.8 1550.57 Q1205.8 1541.82 1210.51 1536.69 Q1215.25 1531.54 1223.27 1531.54 Q1230.47 1531.54 1234.64 1536.18 Q1238.84 1540.8 1238.84 1548.76 M1232.98 1547.04 Q1232.92 1542.23 1230.28 1539.37 Q1227.67 1536.5 1223.34 1536.5 Q1218.44 1536.5 1215.48 1539.27 Q1212.55 1542.04 1212.1 1547.07 L1232.98 1547.04 Z" fill="#000000" fill-rule="nonzero" fill-opacity="1" /><path clip-path="url(#clip760)" d="M1269.11 1537.87 Q1268.12 1537.3 1266.94 1537.04 Q1265.8 1536.76 1264.4 1536.76 Q1259.43 1536.76 1256.76 1540 Q1254.12 1543.22 1254.12 1549.27 L1254.12 1568.04 L1248.23 1568.04 L1248.23 1532.4 L1254.12 1532.4 L1254.12 1537.93 Q1255.96 1534.69 1258.92 1533.13 Q1261.88 1531.54 1266.12 1531.54 Q1266.72 1531.54 1267.45 1531.63 Q1268.18 1531.7 1269.08 1531.85 L1269.11 1537.87 Z" fill="#000000" fill-rule="nonzero" fill-opacity="1" /><path clip-path="url(#clip760)" d="M1309.78 1536.5 Q1305.07 1536.5 1302.34 1540.19 Q1299.6 1543.85 1299.6 1550.25 Q1299.6 1556.65 1302.3 1560.34 Q1305.04 1564 1309.78 1564 Q1314.46 1564 1317.2 1560.31 Q1319.94 1556.62 1319.94 1550.25 Q1319.94 1543.92 1317.2 1540.23 Q1314.46 1536.5 1309.78 1536.5 M1309.78 1531.54 Q1317.42 1531.54 1321.78 1536.5 Q1326.14 1541.47 1326.14 1550.25 Q1326.14 1559 1321.78 1564 Q1317.42 1568.97 1309.78 1568.97 Q1302.11 1568.97 1297.75 1564 Q1293.42 1559 1293.42 1550.25 Q1293.42 1541.47 1297.75 1536.5 Q1302.11 1531.54 1309.78 1531.54 Z" fill="#000000" fill-rule="nonzero" fill-opacity="1" /><path clip-path="url(#clip760)" d="M1353.9 1518.52 L1353.9 1523.39 L1348.3 1523.39 Q1345.15 1523.39 1343.9 1524.66 Q1342.7 1525.93 1342.7 1529.24 L1342.7 1532.4 L1352.34 1532.4 L1352.34 1536.95 L1342.7 1536.95 L1342.7 1568.04 L1336.81 1568.04 L1336.81 1536.95 L1331.21 1536.95 L1331.21 1532.4 L1336.81 1532.4 L1336.81 1529.91 Q1336.81 1523.96 1339.58 1521.26 Q1342.35 1518.52 1348.36 1518.52 L1353.9 1518.52 Z" fill="#000000" fill-rule="nonzero" fill-opacity="1" /><path clip-path="url(#clip760)" d="M1385.31 1522.27 L1385.31 1532.4 L1397.38 1532.4 L1397.38 1536.95 L1385.31 1536.95 L1385.31 1556.3 Q1385.31 1560.66 1386.49 1561.9 Q1387.7 1563.14 1391.36 1563.14 L1397.38 1563.14 L1397.38 1568.04 L1391.36 1568.04 Q1384.58 1568.04 1382 1565.53 Q1379.43 1562.98 1379.43 1556.3 L1379.43 1536.95 L1375.13 1536.95 L1375.13 1532.4 L1379.43 1532.4 L1379.43 1522.27 L1385.31 1522.27 Z" fill="#000000" fill-rule="nonzero" fill-opacity="1" /><path clip-path="url(#clip760)" d="M1435.57 1548.76 L1435.57 1551.62 L1408.64 1551.62 Q1409.03 1557.67 1412.27 1560.85 Q1415.55 1564 1421.38 1564 Q1424.75 1564 1427.9 1563.17 Q1431.08 1562.35 1434.2 1560.69 L1434.2 1566.23 Q1431.05 1567.57 1427.74 1568.27 Q1424.43 1568.97 1421.03 1568.97 Q1412.5 1568.97 1407.5 1564 Q1402.53 1559.04 1402.53 1550.57 Q1402.53 1541.82 1407.24 1536.69 Q1411.99 1531.54 1420.01 1531.54 Q1427.2 1531.54 1431.37 1536.18 Q1435.57 1540.8 1435.57 1548.76 M1429.71 1547.04 Q1429.65 1542.23 1427.01 1539.37 Q1424.4 1536.5 1420.07 1536.5 Q1415.17 1536.5 1412.21 1539.27 Q1409.28 1542.04 1408.84 1547.07 L1429.71 1547.04 Z" fill="#000000" fill-rule="nonzero" fill-opacity="1" /><path clip-path="url(#clip760)" d="M1465.84 1537.87 Q1464.85 1537.3 1463.68 1537.04 Q1462.53 1536.76 1461.13 1536.76 Q1456.16 1536.76 1453.49 1540 Q1450.85 1543.22 1450.85 1549.27 L1450.85 1568.04 L1444.96 1568.04 L1444.96 1532.4 L1450.85 1532.4 L1450.85 1537.93 Q1452.69 1534.69 1455.65 1533.13 Q1458.61 1531.54 1462.85 1531.54 Q1463.45 1531.54 1464.18 1531.63 Q1464.92 1531.7 1465.81 1531.85 L1465.84 1537.87 Z" fill="#000000" fill-rule="nonzero" fill-opacity="1" /><path clip-path="url(#clip760)" d="M1498.59 1539.24 Q1500.79 1535.29 1503.84 1533.41 Q1506.9 1531.54 1511.04 1531.54 Q1516.61 1531.54 1519.63 1535.45 Q1522.65 1539.33 1522.65 1546.53 L1522.65 1568.04 L1516.77 1568.04 L1516.77 1546.72 Q1516.77 1541.59 1514.95 1539.11 Q1513.14 1536.63 1509.41 1536.63 Q1504.86 1536.63 1502.22 1539.65 Q1499.58 1542.68 1499.58 1547.9 L1499.58 1568.04 L1493.69 1568.04 L1493.69 1546.72 Q1493.69 1541.56 1491.88 1539.11 Q1490.06 1536.63 1486.27 1536.63 Q1481.79 1536.63 1479.14 1539.68 Q1476.5 1542.71 1476.5 1547.9 L1476.5 1568.04 L1470.61 1568.04 L1470.61 1532.4 L1476.5 1532.4 L1476.5 1537.93 Q1478.51 1534.66 1481.31 1533.1 Q1484.11 1531.54 1487.96 1531.54 Q1491.84 1531.54 1494.55 1533.51 Q1497.29 1535.48 1498.59 1539.24 Z" fill="#000000" fill-rule="nonzero" fill-opacity="1" /><path clip-path="url(#clip760)" d="M1557.06 1533.45 L1557.06 1538.98 Q1554.58 1537.71 1551.9 1537.07 Q1549.23 1536.44 1546.37 1536.44 Q1542.01 1536.44 1539.81 1537.77 Q1537.65 1539.11 1537.65 1541.79 Q1537.65 1543.82 1539.2 1545 Q1540.76 1546.15 1545.47 1547.2 L1547.48 1547.64 Q1553.72 1548.98 1556.33 1551.43 Q1558.97 1553.85 1558.97 1558.21 Q1558.97 1563.17 1555.02 1566.07 Q1551.11 1568.97 1544.23 1568.97 Q1541.37 1568.97 1538.25 1568.39 Q1535.16 1567.85 1531.72 1566.74 L1531.72 1560.69 Q1534.97 1562.38 1538.12 1563.24 Q1541.27 1564.07 1544.36 1564.07 Q1548.5 1564.07 1550.73 1562.66 Q1552.95 1561.23 1552.95 1558.65 Q1552.95 1556.27 1551.33 1554.99 Q1549.74 1553.72 1544.3 1552.54 L1542.26 1552.07 Q1536.82 1550.92 1534.4 1548.56 Q1531.98 1546.18 1531.98 1542.04 Q1531.98 1537.01 1535.54 1534.27 Q1539.11 1531.54 1545.67 1531.54 Q1548.91 1531.54 1551.78 1532.01 Q1554.64 1532.49 1557.06 1533.45 Z" fill="#000000" fill-rule="nonzero" fill-opacity="1" /><polyline clip-path="url(#clip762)" style="stroke:#000000; stroke-linecap:round; stroke-linejoin:round; stroke-width:2; stroke-opacity:0.1; fill:none" points="219.866,1384.24 2352.76,1384.24 "/>
<polyline clip-path="url(#clip762)" style="stroke:#000000; stroke-linecap:round; stroke-linejoin:round; stroke-width:2; stroke-opacity:0.1; fill:none" points="219.866,1041.62 2352.76,1041.62 "/>
<polyline clip-path="url(#clip762)" style="stroke:#000000; stroke-linecap:round; stroke-linejoin:round; stroke-width:2; stroke-opacity:0.1; fill:none" points="219.866,699.007 2352.76,699.007 "/>
<polyline clip-path="url(#clip762)" style="stroke:#000000; stroke-linecap:round; stroke-linejoin:round; stroke-width:2; stroke-opacity:0.1; fill:none" points="219.866,356.391 2352.76,356.391 "/>
<polyline clip-path="url(#clip760)" style="stroke:#000000; stroke-linecap:round; stroke-linejoin:round; stroke-width:4; stroke-opacity:1; fill:none" points="219.866,1423.18 219.866,47.2441 "/>
<polyline clip-path="url(#clip760)" style="stroke:#000000; stroke-linecap:round; stroke-linejoin:round; stroke-width:4; stroke-opacity:1; fill:none" points="219.866,1384.24 238.764,1384.24 "/>
<polyline clip-path="url(#clip760)" style="stroke:#000000; stroke-linecap:round; stroke-linejoin:round; stroke-width:4; stroke-opacity:1; fill:none" points="219.866,1041.62 238.764,1041.62 "/>
<polyline clip-path="url(#clip760)" style="stroke:#000000; stroke-linecap:round; stroke-linejoin:round; stroke-width:4; stroke-opacity:1; fill:none" points="219.866,699.007 238.764,699.007 "/>
<polyline clip-path="url(#clip760)" style="stroke:#000000; stroke-linecap:round; stroke-linejoin:round; stroke-width:4; stroke-opacity:1; fill:none" points="219.866,356.391 238.764,356.391 "/>
<path clip-path="url(#clip760)" d="M126.691 1370.04 Q123.08 1370.04 121.251 1373.6 Q119.445 1377.14 119.445 1384.27 Q119.445 1391.38 121.251 1394.94 Q123.08 1398.49 126.691 1398.49 Q130.325 1398.49 132.13 1394.94 Q133.959 1391.38 133.959 1384.27 Q133.959 1377.14 132.13 1373.6 Q130.325 1370.04 126.691 1370.04 M126.691 1366.33 Q132.501 1366.33 135.556 1370.94 Q138.635 1375.52 138.635 1384.27 Q138.635 1393 135.556 1397.61 Q132.501 1402.19 126.691 1402.19 Q120.88 1402.19 117.802 1397.61 Q114.746 1393 114.746 1384.27 Q114.746 1375.52 117.802 1370.94 Q120.88 1366.33 126.691 1366.33 Z" fill="#000000" fill-rule="nonzero" fill-opacity="1" /><path clip-path="url(#clip760)" d="M146.853 1395.64 L151.737 1395.64 L151.737 1401.52 L146.853 1401.52 L146.853 1395.64 Z" fill="#000000" fill-rule="nonzero" fill-opacity="1" /><path clip-path="url(#clip760)" d="M171.922 1370.04 Q168.311 1370.04 166.482 1373.6 Q164.677 1377.14 164.677 1384.27 Q164.677 1391.38 166.482 1394.94 Q168.311 1398.49 171.922 1398.49 Q175.556 1398.49 177.362 1394.94 Q179.19 1391.38 179.19 1384.27 Q179.19 1377.14 177.362 1373.6 Q175.556 1370.04 171.922 1370.04 M171.922 1366.33 Q177.732 1366.33 180.788 1370.94 Q183.866 1375.52 183.866 1384.27 Q183.866 1393 180.788 1397.61 Q177.732 1402.19 171.922 1402.19 Q166.112 1402.19 163.033 1397.61 Q159.978 1393 159.978 1384.27 Q159.978 1375.52 163.033 1370.94 Q166.112 1366.33 171.922 1366.33 Z" fill="#000000" fill-rule="nonzero" fill-opacity="1" /><path clip-path="url(#clip760)" d="M128.288 1027.42 Q124.677 1027.42 122.848 1030.99 Q121.043 1034.53 121.043 1041.66 Q121.043 1048.76 122.848 1052.33 Q124.677 1055.87 128.288 1055.87 Q131.922 1055.87 133.728 1052.33 Q135.556 1048.76 135.556 1041.66 Q135.556 1034.53 133.728 1030.99 Q131.922 1027.42 128.288 1027.42 M128.288 1023.72 Q134.098 1023.72 137.154 1028.32 Q140.232 1032.91 140.232 1041.66 Q140.232 1050.38 137.154 1054.99 Q134.098 1059.57 128.288 1059.57 Q122.478 1059.57 119.399 1054.99 Q116.343 1050.38 116.343 1041.66 Q116.343 1032.91 119.399 1028.32 Q122.478 1023.72 128.288 1023.72 Z" fill="#000000" fill-rule="nonzero" fill-opacity="1" /><path clip-path="url(#clip760)" d="M148.45 1053.02 L153.334 1053.02 L153.334 1058.9 L148.45 1058.9 L148.45 1053.02 Z" fill="#000000" fill-rule="nonzero" fill-opacity="1" /><path clip-path="url(#clip760)" d="M167.547 1054.97 L183.866 1054.97 L183.866 1058.9 L161.922 1058.9 L161.922 1054.97 Q164.584 1052.21 169.167 1047.58 Q173.774 1042.93 174.954 1041.59 Q177.2 1039.06 178.079 1037.33 Q178.982 1035.57 178.982 1033.88 Q178.982 1031.12 177.038 1029.39 Q175.116 1027.65 172.014 1027.65 Q169.815 1027.65 167.362 1028.42 Q164.931 1029.18 162.153 1030.73 L162.153 1026.01 Q164.977 1024.88 167.431 1024.3 Q169.885 1023.72 171.922 1023.72 Q177.292 1023.72 180.487 1026.4 Q183.681 1029.09 183.681 1033.58 Q183.681 1035.71 182.871 1037.63 Q182.084 1039.53 179.977 1042.12 Q179.399 1042.79 176.297 1046.01 Q173.195 1049.2 167.547 1054.97 Z" fill="#000000" fill-rule="nonzero" fill-opacity="1" /><path clip-path="url(#clip760)" d="M126.205 684.806 Q122.593 684.806 120.765 688.37 Q118.959 691.912 118.959 699.042 Q118.959 706.148 120.765 709.713 Q122.593 713.255 126.205 713.255 Q129.839 713.255 131.644 709.713 Q133.473 706.148 133.473 699.042 Q133.473 691.912 131.644 688.37 Q129.839 684.806 126.205 684.806 M126.205 681.102 Q132.015 681.102 135.07 685.708 Q138.149 690.292 138.149 699.042 Q138.149 707.769 135.07 712.375 Q132.015 716.958 126.205 716.958 Q120.394 716.958 117.316 712.375 Q114.26 707.769 114.26 699.042 Q114.26 690.292 117.316 685.708 Q120.394 681.102 126.205 681.102 Z" fill="#000000" fill-rule="nonzero" fill-opacity="1" /><path clip-path="url(#clip760)" d="M146.366 710.407 L151.251 710.407 L151.251 716.287 L146.366 716.287 L146.366 710.407 Z" fill="#000000" fill-rule="nonzero" fill-opacity="1" /><path clip-path="url(#clip760)" d="M174.283 685.801 L162.477 704.25 L174.283 704.25 L174.283 685.801 M173.056 681.727 L178.936 681.727 L178.936 704.25 L183.866 704.25 L183.866 708.139 L178.936 708.139 L178.936 716.287 L174.283 716.287 L174.283 708.139 L158.681 708.139 L158.681 703.625 L173.056 681.727 Z" fill="#000000" fill-rule="nonzero" fill-opacity="1" /><path clip-path="url(#clip760)" d="M126.529 342.19 Q122.918 342.19 121.089 345.755 Q119.283 349.296 119.283 356.426 Q119.283 363.533 121.089 367.097 Q122.918 370.639 126.529 370.639 Q130.163 370.639 131.968 367.097 Q133.797 363.533 133.797 356.426 Q133.797 349.296 131.968 345.755 Q130.163 342.19 126.529 342.19 M126.529 338.486 Q132.339 338.486 135.394 343.093 Q138.473 347.676 138.473 356.426 Q138.473 365.153 135.394 369.759 Q132.339 374.343 126.529 374.343 Q120.718 374.343 117.64 369.759 Q114.584 365.153 114.584 356.426 Q114.584 347.676 117.64 343.093 Q120.718 338.486 126.529 338.486 Z" fill="#000000" fill-rule="nonzero" fill-opacity="1" /><path clip-path="url(#clip760)" d="M146.691 367.792 L151.575 367.792 L151.575 373.671 L146.691 373.671 L146.691 367.792 Z" fill="#000000" fill-rule="nonzero" fill-opacity="1" /><path clip-path="url(#clip760)" d="M172.339 354.528 Q169.19 354.528 167.339 356.681 Q165.51 358.833 165.51 362.583 Q165.51 366.31 167.339 368.486 Q169.19 370.639 172.339 370.639 Q175.487 370.639 177.315 368.486 Q179.167 366.31 179.167 362.583 Q179.167 358.833 177.315 356.681 Q175.487 354.528 172.339 354.528 M181.621 339.875 L181.621 344.134 Q179.862 343.301 178.056 342.861 Q176.274 342.422 174.514 342.422 Q169.885 342.422 167.431 345.546 Q165.001 348.671 164.653 354.991 Q166.019 352.977 168.079 351.912 Q170.139 350.824 172.616 350.824 Q177.825 350.824 180.834 353.996 Q183.866 357.144 183.866 362.583 Q183.866 367.907 180.718 371.125 Q177.57 374.343 172.339 374.343 Q166.343 374.343 163.172 369.759 Q160.001 365.153 160.001 356.426 Q160.001 348.232 163.89 343.371 Q167.778 338.486 174.329 338.486 Q176.089 338.486 177.871 338.834 Q179.676 339.181 181.621 339.875 Z" fill="#000000" fill-rule="nonzero" fill-opacity="1" /><path clip-path="url(#clip760)" d="M41.7242 749.598 Q42.4244 747.53 44.7161 745.588 Q47.0077 743.615 51.0181 741.641 L64.0042 735.116 L64.0042 742.023 L51.8138 748.103 Q47.0395 750.458 45.48 752.686 Q43.9204 754.882 43.9204 758.701 L43.9204 765.704 L64.0042 765.704 L64.0042 772.133 L16.4842 772.133 L16.4842 757.619 Q16.4842 749.471 19.8898 745.461 Q23.2955 741.45 30.1704 741.45 Q34.6582 741.45 37.6183 743.551 Q40.5784 745.62 41.7242 749.598 M21.7677 765.704 L38.6368 765.704 L38.6368 757.619 Q38.6368 752.972 36.5043 750.617 Q34.34 748.23 30.1704 748.23 Q26.0009 748.23 23.9002 750.617 Q21.7677 752.972 21.7677 757.619 L21.7677 765.704 Z" fill="#000000" fill-rule="nonzero" fill-opacity="1" /><path clip-path="url(#clip760)" d="M58.5933 720.73 L58.5933 698.291 L64.0042 698.291 L64.0042 728.464 L58.5933 728.464 Q54.8057 724.804 48.44 718.502 Q42.0425 712.168 40.1964 710.545 Q36.7271 707.457 34.34 706.248 Q31.921 705.007 29.5975 705.007 Q25.8099 705.007 23.4228 707.68 Q21.0356 710.322 21.0356 714.587 Q21.0356 717.611 22.086 720.985 Q23.1363 724.327 25.2688 728.146 L18.7758 728.146 Q17.2162 724.263 16.4205 720.889 Q15.6248 717.515 15.6248 714.714 Q15.6248 707.33 19.3169 702.938 Q23.009 698.545 29.1837 698.545 Q32.112 698.545 34.7537 699.659 Q37.3637 700.742 40.9285 703.638 Q41.8515 704.434 46.2757 708.699 Q50.668 712.964 58.5933 720.73 Z" fill="#000000" fill-rule="nonzero" fill-opacity="1" /><polyline clip-path="url(#clip762)" style="stroke:#009af9; stroke-linecap:round; stroke-linejoin:round; stroke-width:4; stroke-opacity:1; fill:none" points="280.231,1384.24 347.303,269.78 414.375,190.835 481.447,153.114 548.519,126.327 615.591,99.971 682.663,94.0081 749.735,86.1857 816.807,87.1378 883.879,90.2803 950.951,93.7513 1018.02,95.4944 1085.1,100.365 1152.17,106.879 1219.24,114.439 1286.31,122.479 1353.38,131.434 1420.46,140.498 1487.53,150.729 1554.6,162.145 1621.67,172.406 1688.74,184.599 1755.82,194.311 1822.89,201.17 1889.96,214.391 1957.03,227.839 2024.1,241.119 2091.18,246.467 2158.25,258.293 2225.32,271.158 2292.39,286.04 "/>
<polyline clip-path="url(#clip762)" style="stroke:#e26f46; stroke-linecap:round; stroke-linejoin:round; stroke-width:4; stroke-opacity:1; fill:none" points="280.231,1384.24 347.303,269.78 414.375,190.835 481.447,153.114 548.519,126.327 615.591,99.971 682.663,94.0081 749.735,86.1857 816.807,87.1378 883.879,90.2803 950.951,93.7513 1018.02,95.4944 1085.1,100.365 1152.17,106.879 1219.24,114.439 1286.31,122.479 1353.38,131.434 1420.46,140.498 1487.53,150.729 1554.6,162.145 1621.67,172.406 1688.74,184.599 1755.82,194.311 1822.89,201.17 1889.96,214.391 1957.03,227.839 2024.1,241.119 2091.18,246.467 2158.25,258.293 2225.32,271.158 2292.39,286.04 "/>
<path clip-path="url(#clip760)" d="M2046.43 1377.32 L2281.66 1377.32 L2281.66 1221.8 L2046.43 1221.8  Z" fill="#ffffff" fill-rule="evenodd" fill-opacity="1"/>
<polyline clip-path="url(#clip760)" style="stroke:#000000; stroke-linecap:round; stroke-linejoin:round; stroke-width:4; stroke-opacity:1; fill:none" points="2046.43,1377.32 2281.66,1377.32 2281.66,1221.8 2046.43,1221.8 2046.43,1377.32 "/>
<polyline clip-path="url(#clip760)" style="stroke:#009af9; stroke-linecap:round; stroke-linejoin:round; stroke-width:4; stroke-opacity:1; fill:none" points="2070.13,1273.64 2212.32,1273.64 "/>
<path clip-path="url(#clip760)" d="M2236.69 1286.98 L2244.33 1286.98 L2244.33 1260.61 L2236.02 1262.28 L2236.02 1258.02 L2244.28 1256.36 L2248.96 1256.36 L2248.96 1286.98 L2256.6 1286.98 L2256.6 1290.92 L2236.69 1290.92 L2236.69 1286.98 Z" fill="#000000" fill-rule="nonzero" fill-opacity="1" /><polyline clip-path="url(#clip760)" style="stroke:#e26f46; stroke-linecap:round; stroke-linejoin:round; stroke-width:4; stroke-opacity:1; fill:none" points="2070.13,1325.48 2212.32,1325.48 "/>
<path clip-path="url(#clip760)" d="M2241.64 1338.82 L2257.96 1338.82 L2257.96 1342.76 L2236.02 1342.76 L2236.02 1338.82 Q2238.68 1336.07 2243.26 1331.44 Q2247.87 1326.78 2249.05 1325.44 Q2251.29 1322.92 2252.17 1321.18 Q2253.08 1319.42 2253.08 1317.73 Q2253.08 1314.98 2251.13 1313.24 Q2249.21 1311.51 2246.11 1311.51 Q2243.91 1311.51 2241.46 1312.27 Q2239.03 1313.03 2236.25 1314.58 L2236.25 1309.86 Q2239.07 1308.73 2241.53 1308.15 Q2243.98 1307.57 2246.02 1307.57 Q2251.39 1307.57 2254.58 1310.26 Q2257.78 1312.94 2257.78 1317.43 Q2257.78 1319.56 2256.97 1321.48 Q2256.18 1323.38 2254.07 1325.97 Q2253.49 1326.64 2250.39 1329.86 Q2247.29 1333.06 2241.64 1338.82 Z" fill="#000000" fill-rule="nonzero" fill-opacity="1" /></svg>
