<?xml version="1.0" encoding="utf-8"?>
<svg xmlns="http://www.w3.org/2000/svg" xmlns:xlink="http://www.w3.org/1999/xlink" width="400" height="300" viewBox="0 0 1600 1200">
<defs>
  <clipPath id="clip130">
    <rect x="0" y="0" width="1600" height="1200"/>
  </clipPath>
</defs>
<path clip-path="url(#clip130)" d="M0 1200 L1600 1200 L1600 0 L0 0  Z" fill="#ffffff" fill-rule="evenodd" fill-opacity="1"/>
<defs>
  <clipPath id="clip131">
    <rect x="320" y="0" width="1121" height="1121"/>
  </clipPath>
</defs>
<path clip-path="url(#clip130)" d="M208.686 1016.92 L1552.76 1016.92 L1552.76 47.2441 L208.686 47.2441  Z" fill="#ffffff" fill-rule="evenodd" fill-opacity="1"/>
<defs>
  <clipPath id="clip132">
    <rect x="208" y="47" width="1345" height="971"/>
  </clipPath>
</defs>
<polyline clip-path="url(#clip132)" style="stroke:#000000; stroke-linecap:round; stroke-linejoin:round; stroke-width:2; stroke-opacity:0.1; fill:none" points="246.726,1016.92 246.726,47.2441 "/>
<polyline clip-path="url(#clip132)" style="stroke:#000000; stroke-linecap:round; stroke-linejoin:round; stroke-width:2; stroke-opacity:0.1; fill:none" points="563.723,1016.92 563.723,47.2441 "/>
<polyline clip-path="url(#clip132)" style="stroke:#000000; stroke-linecap:round; stroke-linejoin:round; stroke-width:2; stroke-opacity:0.1; fill:none" points="880.721,1016.92 880.721,47.2441 "/>
<polyline clip-path="url(#clip132)" style="stroke:#000000; stroke-linecap:round; stroke-linejoin:round; stroke-width:2; stroke-opacity:0.1; fill:none" points="1197.72,1016.92 1197.72,47.2441 "/>
<polyline clip-path="url(#clip132)" style="stroke:#000000; stroke-linecap:round; stroke-linejoin:round; stroke-width:2; stroke-opacity:0.1; fill:none" points="1514.72,1016.92 1514.72,47.2441 "/>
<polyline clip-path="url(#clip130)" style="stroke:#000000; stroke-linecap:round; stroke-linejoin:round; stroke-width:4; stroke-opacity:1; fill:none" points="208.686,1016.92 1552.76,1016.92 "/>
<polyline clip-path="url(#clip130)" style="stroke:#000000; stroke-linecap:round; stroke-linejoin:round; stroke-width:4; stroke-opacity:1; fill:none" points="246.726,1016.92 246.726,998.022 "/>
<polyline clip-path="url(#clip130)" style="stroke:#000000; stroke-linecap:round; stroke-linejoin:round; stroke-width:4; stroke-opacity:1; fill:none" points="563.723,1016.92 563.723,998.022 "/>
<polyline clip-path="url(#clip130)" style="stroke:#000000; stroke-linecap:round; stroke-linejoin:round; stroke-width:4; stroke-opacity:1; fill:none" points="880.721,1016.92 880.721,998.022 "/>
<polyline clip-path="url(#clip130)" style="stroke:#000000; stroke-linecap:round; stroke-linejoin:round; stroke-width:4; stroke-opacity:1; fill:none" points="1197.72,1016.92 1197.72,998.022 "/>
<polyline clip-path="url(#clip130)" style="stroke:#000000; stroke-linecap:round; stroke-linejoin:round; stroke-width:4; stroke-opacity:1; fill:none" points="1514.72,1016.92 1514.72,998.022 "/>
<path clip-path="url(#clip130)" d="M216.668 1056.09 L246.344 1056.09 L246.344 1060.03 L216.668 1060.03 L216.668 1056.09 Z" fill="#000000" fill-rule="nonzero" fill-opacity="1" /><path clip-path="url(#clip130)" d="M260.464 1068.98 L276.783 1068.98 L276.783 1072.92 L254.839 1072.92 L254.839 1068.98 Q257.501 1066.23 262.084 1061.6 Q266.691 1056.95 267.871 1055.61 Q270.117 1053.08 270.996 1051.35 Q271.899 1049.59 271.899 1047.9 Q271.899 1045.14 269.955 1043.41 Q268.033 1041.67 264.932 1041.67 Q262.733 1041.67 260.279 1042.43 Q257.848 1043.2 255.071 1044.75 L255.071 1040.03 Q257.895 1038.89 260.348 1038.31 Q262.802 1037.73 264.839 1037.73 Q270.209 1037.73 273.404 1040.42 Q276.598 1043.11 276.598 1047.6 Q276.598 1049.73 275.788 1051.65 Q275.001 1053.54 272.895 1056.14 Q272.316 1056.81 269.214 1060.03 Q266.112 1063.22 260.464 1068.98 Z" fill="#000000" fill-rule="nonzero" fill-opacity="1" /><path clip-path="url(#clip130)" d="M533.48 1056.09 L563.156 1056.09 L563.156 1060.03 L533.48 1060.03 L533.48 1056.09 Z" fill="#000000" fill-rule="nonzero" fill-opacity="1" /><path clip-path="url(#clip130)" d="M574.059 1068.98 L581.698 1068.98 L581.698 1042.62 L573.388 1044.29 L573.388 1040.03 L581.651 1038.36 L586.327 1038.36 L586.327 1068.98 L593.966 1068.98 L593.966 1072.92 L574.059 1072.92 L574.059 1068.98 Z" fill="#000000" fill-rule="nonzero" fill-opacity="1" /><path clip-path="url(#clip130)" d="M880.721 1041.44 Q877.11 1041.44 875.281 1045 Q873.476 1048.54 873.476 1055.67 Q873.476 1062.78 875.281 1066.35 Q877.11 1069.89 880.721 1069.89 Q884.355 1069.89 886.161 1066.35 Q887.989 1062.78 887.989 1055.67 Q887.989 1048.54 886.161 1045 Q884.355 1041.44 880.721 1041.44 M880.721 1037.73 Q886.531 1037.73 889.587 1042.34 Q892.665 1046.92 892.665 1055.67 Q892.665 1064.4 889.587 1069.01 Q886.531 1073.59 880.721 1073.59 Q874.911 1073.59 871.832 1069.01 Q868.777 1064.4 868.777 1055.67 Q868.777 1046.92 871.832 1042.34 Q874.911 1037.73 880.721 1037.73 Z" fill="#000000" fill-rule="nonzero" fill-opacity="1" /><path clip-path="url(#clip130)" d="M1188.1 1068.98 L1195.74 1068.98 L1195.74 1042.62 L1187.43 1044.29 L1187.43 1040.03 L1195.69 1038.36 L1200.37 1038.36 L1200.37 1068.98 L1208.01 1068.98 L1208.01 1072.92 L1188.1 1072.92 L1188.1 1068.98 Z" fill="#000000" fill-rule="nonzero" fill-opacity="1" /><path clip-path="url(#clip130)" d="M1509.37 1068.98 L1525.69 1068.98 L1525.69 1072.92 L1503.74 1072.92 L1503.74 1068.98 Q1506.41 1066.23 1510.99 1061.6 Q1515.6 1056.95 1516.78 1055.61 Q1519.02 1053.08 1519.9 1051.35 Q1520.8 1049.59 1520.8 1047.9 Q1520.8 1045.14 1518.86 1043.41 Q1516.94 1041.67 1513.84 1041.67 Q1511.64 1041.67 1509.18 1042.43 Q1506.75 1043.2 1503.98 1044.75 L1503.98 1040.03 Q1506.8 1038.89 1509.25 1038.31 Q1511.71 1037.73 1513.74 1037.73 Q1519.11 1037.73 1522.31 1040.42 Q1525.5 1043.11 1525.5 1047.6 Q1525.5 1049.73 1524.69 1051.65 Q1523.91 1053.54 1521.8 1056.14 Q1521.22 1056.81 1518.12 1060.03 Q1515.02 1063.22 1509.37 1068.98 Z" fill="#000000" fill-rule="nonzero" fill-opacity="1" /><path clip-path="url(#clip130)" d="M881.136 1101.4 Q881.136 1103.21 880.009 1104.24 Q878.882 1105.24 877.593 1105.24 Q876.37 1105.24 875.726 1104.53 Q875.081 1103.82 875.081 1102.92 Q875.081 1101.69 875.983 1100.63 Q876.885 1099.57 878.238 1099.34 Q876.917 1098.51 874.953 1098.51 Q873.664 1098.51 872.537 1099.18 Q871.442 1099.86 870.766 1100.73 Q870.122 1101.6 869.542 1102.85 Q868.995 1104.08 868.769 1104.82 Q868.576 1105.53 868.415 1106.3 L866.16 1115.32 Q865.065 1119.6 865.065 1121.11 Q865.065 1122.98 865.967 1124.24 Q866.869 1125.46 868.672 1125.46 Q869.381 1125.46 870.186 1125.27 Q870.991 1125.04 872.022 1124.46 Q873.085 1123.85 874.019 1122.95 Q874.985 1122.02 875.919 1120.44 Q876.853 1118.86 877.465 1116.83 Q877.658 1116.12 878.302 1116.12 Q879.107 1116.12 879.107 1116.77 Q879.107 1117.31 878.656 1118.47 Q878.238 1119.6 877.304 1121.08 Q876.402 1122.53 875.21 1123.85 Q874.019 1125.14 872.247 1126.04 Q870.476 1126.94 868.544 1126.94 Q865.774 1126.94 863.938 1125.46 Q862.102 1123.98 861.426 1121.92 Q861.265 1122.21 861.04 1122.6 Q860.814 1122.98 860.138 1123.85 Q859.494 1124.69 858.753 1125.33 Q858.012 1125.94 856.853 1126.43 Q855.726 1126.94 854.502 1126.94 Q852.956 1126.94 851.571 1126.49 Q850.218 1126.04 849.252 1125.01 Q848.286 1123.98 848.286 1122.56 Q848.286 1120.99 849.349 1119.89 Q850.444 1118.76 851.925 1118.76 Q852.859 1118.76 853.6 1119.31 Q854.373 1119.86 854.373 1121.05 Q854.373 1122.37 853.471 1123.37 Q852.57 1124.37 851.281 1124.62 Q852.602 1125.46 854.566 1125.46 Q856.692 1125.46 858.367 1123.59 Q860.041 1121.73 860.846 1118.6 Q862.843 1111.1 863.616 1107.75 Q864.389 1104.37 864.389 1102.92 Q864.389 1101.56 864.035 1100.63 Q863.681 1099.7 863.069 1099.28 Q862.489 1098.83 861.941 1098.67 Q861.426 1098.51 860.846 1098.51 Q859.88 1098.51 858.785 1098.89 Q857.722 1099.28 856.434 1100.18 Q855.178 1101.05 853.987 1102.85 Q852.795 1104.66 851.99 1107.14 Q851.829 1107.88 851.12 1107.88 Q850.347 1107.85 850.347 1107.2 Q850.347 1106.65 850.766 1105.53 Q851.217 1104.37 852.119 1102.92 Q853.053 1101.47 854.244 1100.18 Q855.468 1098.86 857.239 1097.96 Q859.043 1097.06 860.975 1097.06 Q861.845 1097.06 862.682 1097.25 Q863.552 1097.41 864.582 1097.89 Q865.645 1098.38 866.579 1099.44 Q867.513 1100.5 868.093 1102.05 Q868.479 1101.31 868.995 1100.6 Q869.542 1099.89 870.379 1099.02 Q871.249 1098.12 872.441 1097.6 Q873.664 1097.06 875.017 1097.06 Q876.337 1097.06 877.626 1097.41 Q878.914 1097.73 880.009 1098.8 Q881.136 1099.83 881.136 1101.4 Z" fill="#000000" fill-rule="nonzero" fill-opacity="1" /><path clip-path="url(#clip130)" d="M887.857 1145.21 Q887.857 1144.37 887.925 1144.12 Q888.015 1143.88 888.376 1143.49 L897.236 1133.62 Q902.083 1128.16 902.083 1123.41 Q902.083 1120.32 900.46 1118.11 Q898.859 1115.9 895.906 1115.9 Q893.877 1115.9 892.163 1117.14 Q890.45 1118.38 889.661 1120.59 Q889.796 1120.54 890.27 1120.54 Q891.419 1120.54 892.051 1121.26 Q892.704 1121.99 892.704 1122.95 Q892.704 1124.19 891.893 1124.8 Q891.104 1125.39 890.315 1125.39 Q889.999 1125.39 889.571 1125.32 Q889.165 1125.25 888.511 1124.62 Q887.857 1123.97 887.857 1122.82 Q887.857 1119.6 890.292 1117.03 Q892.749 1114.46 896.492 1114.46 Q900.73 1114.46 903.503 1116.98 Q906.298 1119.48 906.298 1123.41 Q906.298 1124.78 905.87 1126.04 Q905.464 1127.28 904.901 1128.25 Q904.36 1129.22 902.872 1130.78 Q901.384 1132.33 900.189 1133.44 Q898.994 1134.54 896.311 1136.89 L891.419 1141.64 L899.738 1141.64 Q903.796 1141.64 904.112 1141.28 Q904.563 1140.63 905.126 1137.18 L906.298 1137.18 L904.991 1145.21 L887.857 1145.21 Z" fill="#000000" fill-rule="nonzero" fill-opacity="1" /><polyline clip-path="url(#clip132)" style="stroke:#000000; stroke-linecap:round; stroke-linejoin:round; stroke-width:2; stroke-opacity:0.1; fill:none" points="208.686,989.476 1552.76,989.476 "/>
<polyline clip-path="url(#clip132)" style="stroke:#000000; stroke-linecap:round; stroke-linejoin:round; stroke-width:2; stroke-opacity:0.1; fill:none" points="208.686,760.779 1552.76,760.779 "/>
<polyline clip-path="url(#clip132)" style="stroke:#000000; stroke-linecap:round; stroke-linejoin:round; stroke-width:2; stroke-opacity:0.1; fill:none" points="208.686,532.082 1552.76,532.082 "/>
<polyline clip-path="url(#clip132)" style="stroke:#000000; stroke-linecap:round; stroke-linejoin:round; stroke-width:2; stroke-opacity:0.1; fill:none" points="208.686,303.385 1552.76,303.385 "/>
<polyline clip-path="url(#clip132)" style="stroke:#000000; stroke-linecap:round; stroke-linejoin:round; stroke-width:2; stroke-opacity:0.1; fill:none" points="208.686,74.6877 1552.76,74.6877 "/>
<polyline clip-path="url(#clip130)" style="stroke:#000000; stroke-linecap:round; stroke-linejoin:round; stroke-width:4; stroke-opacity:1; fill:none" points="208.686,1016.92 208.686,47.2441 "/>
<polyline clip-path="url(#clip130)" style="stroke:#000000; stroke-linecap:round; stroke-linejoin:round; stroke-width:4; stroke-opacity:1; fill:none" points="208.686,989.476 227.584,989.476 "/>
<polyline clip-path="url(#clip130)" style="stroke:#000000; stroke-linecap:round; stroke-linejoin:round; stroke-width:4; stroke-opacity:1; fill:none" points="208.686,760.779 227.584,760.779 "/>
<polyline clip-path="url(#clip130)" style="stroke:#000000; stroke-linecap:round; stroke-linejoin:round; stroke-width:4; stroke-opacity:1; fill:none" points="208.686,532.082 227.584,532.082 "/>
<polyline clip-path="url(#clip130)" style="stroke:#000000; stroke-linecap:round; stroke-linejoin:round; stroke-width:4; stroke-opacity:1; fill:none" points="208.686,303.385 227.584,303.385 "/>
<polyline clip-path="url(#clip130)" style="stroke:#000000; stroke-linecap:round; stroke-linejoin:round; stroke-width:4; stroke-opacity:1; fill:none" points="208.686,74.6877 227.584,74.6877 "/>
<path clip-path="url(#clip130)" d="M124.571 989.928 L154.246 989.928 L154.246 993.863 L124.571 993.863 L124.571 989.928 Z" fill="#000000" fill-rule="nonzero" fill-opacity="1" /><path clip-path="url(#clip130)" d="M168.367 1002.82 L184.686 1002.82 L184.686 1006.76 L162.742 1006.76 L162.742 1002.82 Q165.404 1000.07 169.987 995.437 Q174.593 990.784 175.774 989.441 Q178.019 986.918 178.899 985.182 Q179.802 983.423 179.802 981.733 Q179.802 978.979 177.857 977.242 Q175.936 975.506 172.834 975.506 Q170.635 975.506 168.181 976.27 Q165.751 977.034 162.973 978.585 L162.973 973.863 Q165.797 972.729 168.251 972.15 Q170.705 971.571 172.742 971.571 Q178.112 971.571 181.306 974.256 Q184.501 976.942 184.501 981.432 Q184.501 983.562 183.691 985.483 Q182.904 987.381 180.797 989.974 Q180.218 990.645 177.117 993.863 Q174.015 997.057 168.367 1002.82 Z" fill="#000000" fill-rule="nonzero" fill-opacity="1" /><path clip-path="url(#clip130)" d="M124.2 761.23 L153.876 761.23 L153.876 765.166 L124.2 765.166 L124.2 761.23 Z" fill="#000000" fill-rule="nonzero" fill-opacity="1" /><path clip-path="url(#clip130)" d="M164.779 774.124 L172.417 774.124 L172.417 747.758 L164.107 749.425 L164.107 745.166 L172.371 743.499 L177.047 743.499 L177.047 774.124 L184.686 774.124 L184.686 778.059 L164.779 778.059 L164.779 774.124 Z" fill="#000000" fill-rule="nonzero" fill-opacity="1" /><path clip-path="url(#clip130)" d="M172.742 517.881 Q169.13 517.881 167.302 521.445 Q165.496 524.987 165.496 532.117 Q165.496 539.223 167.302 542.788 Q169.13 546.33 172.742 546.33 Q176.376 546.33 178.181 542.788 Q180.01 539.223 180.01 532.117 Q180.01 524.987 178.181 521.445 Q176.376 517.881 172.742 517.881 M172.742 514.177 Q178.552 514.177 181.607 518.783 Q184.686 523.367 184.686 532.117 Q184.686 540.843 181.607 545.45 Q178.552 550.033 172.742 550.033 Q166.931 550.033 163.853 545.45 Q160.797 540.843 160.797 532.117 Q160.797 523.367 163.853 518.783 Q166.931 514.177 172.742 514.177 Z" fill="#000000" fill-rule="nonzero" fill-opacity="1" /><path clip-path="url(#clip130)" d="M164.779 316.73 L172.417 316.73 L172.417 290.364 L164.107 292.031 L164.107 287.772 L172.371 286.105 L177.047 286.105 L177.047 316.73 L184.686 316.73 L184.686 320.665 L164.779 320.665 L164.779 316.73 Z" fill="#000000" fill-rule="nonzero" fill-opacity="1" /><path clip-path="url(#clip130)" d="M168.367 88.0326 L184.686 88.0326 L184.686 91.9677 L162.742 91.9677 L162.742 88.0326 Q165.404 85.278 169.987 80.6484 Q174.593 75.9956 175.774 74.653 Q178.019 72.1299 178.899 70.3938 Q179.802 68.6345 179.802 66.9447 Q179.802 64.1901 177.857 62.454 Q175.936 60.7179 172.834 60.7179 Q170.635 60.7179 168.181 61.4818 Q165.751 62.2457 162.973 63.7966 L162.973 59.0744 Q165.797 57.9402 168.251 57.3615 Q170.705 56.7828 172.742 56.7828 Q178.112 56.7828 181.306 59.4679 Q184.501 62.1531 184.501 66.6438 Q184.501 68.7734 183.691 70.6947 Q182.904 72.5929 180.797 75.1854 Q180.218 75.8567 177.117 79.0743 Q174.015 82.2687 168.367 88.0326 Z" fill="#000000" fill-rule="nonzero" fill-opacity="1" /><path clip-path="url(#clip130)" d="M52.7883 517.643 Q53.2392 517.643 54.302 517.933 L79.4869 524.245 Q85.0908 525.63 89.0199 530.139 Q92.949 534.616 92.949 539.704 Q92.949 542.764 91.3065 544.728 Q89.6962 546.693 87.2164 546.693 Q85.0264 546.693 83.9636 545.534 Q82.933 544.374 82.933 542.989 Q82.933 542.538 83.0618 542.055 Q83.1906 541.572 83.7381 541.057 Q84.2856 540.542 85.2196 540.542 Q86.7333 540.542 87.9249 541.862 Q88.4724 542.506 88.6012 543.118 Q88.73 543.698 88.73 544.696 Q89.6318 544.31 90.2437 543.601 Q90.8556 542.893 91.0811 542.087 Q91.3387 541.282 91.4031 540.767 Q91.4997 540.22 91.4997 539.704 Q91.4997 535.582 87.3452 532.426 Q86.0891 531.492 84.8331 530.815 Q83.6093 530.107 82.0956 529.592 Q80.6141 529.076 79.809 528.851 Q79.0039 528.593 77.1681 528.142 Q80.1633 531.138 80.1633 534.809 Q80.1633 536.355 79.7446 537.74 Q79.3259 539.092 78.4564 540.284 Q77.5546 541.476 75.9765 542.184 Q74.3984 542.86 72.305 542.86 Q70.0828 542.86 67.0555 541.991 Q64.0281 541.121 58.4565 539.028 Q55.3325 537.901 53.8189 537.901 Q53.0781 537.901 52.6273 538.062 Q52.1442 538.223 51.9831 538.545 Q51.7899 538.867 51.7577 539.06 Q51.7255 539.221 51.7255 539.543 Q51.7255 541.443 53.6578 543.215 Q55.5902 544.986 59.9058 546.21 Q60.7109 546.467 60.9042 546.629 Q61.0974 546.79 61.0974 547.273 Q61.0652 548.078 60.4211 548.078 Q60.1634 548.078 59.165 547.788 Q58.1345 547.498 56.6208 546.822 Q55.0749 546.113 53.69 545.147 Q52.273 544.181 51.2746 542.667 Q50.2762 541.121 50.2762 539.35 Q50.2762 536.935 51.8543 535.453 Q53.4002 533.939 55.6868 533.939 Q56.6208 533.939 57.4581 534.197 Q58.2633 534.423 60.4211 535.26 Q69.1167 538.641 73.3678 538.641 Q74.3984 538.641 75.268 538.48 Q76.1053 538.287 76.9427 537.869 Q77.7478 537.45 78.2309 536.613 Q78.6818 535.743 78.6818 534.551 Q78.6818 533.038 77.9733 531.621 Q77.2325 530.171 76.2342 529.27 Q75.2358 528.336 74.3984 527.788 Q73.5289 527.208 73.078 527.08 L61.2262 524.117 L55.9445 522.796 Q53.0781 522.184 52.3696 521.894 Q51.6933 521.508 51.339 520.832 Q50.9848 520.155 50.9848 519.576 Q50.9848 518.77 51.4678 518.223 Q51.9509 517.643 52.7883 517.643 Z" fill="#000000" fill-rule="nonzero" fill-opacity="1" /><polyline clip-path="url(#clip132)" style="stroke:#009af9; stroke-linecap:round; stroke-linejoin:round; stroke-width:4; stroke-opacity:1; fill:none" points="246.726,83.9081 310.125,127.083 373.525,171.598 436.924,217.454 500.324,264.649 563.723,313.185 627.123,363.062 690.522,414.278 753.922,466.835 817.321,537.357 880.721,600.829 944.12,623.081 1007.52,662.589 1070.92,702.098 1134.32,741.606 1197.72,781.115 1261.12,820.623 1324.52,860.131 1387.92,899.64 1451.32,939.148 1514.72,978.657 "/>
<polyline clip-path="url(#clip132)" style="stroke:#e26f46; stroke-linecap:round; stroke-linejoin:round; stroke-width:4; stroke-opacity:1; fill:none" points="246.726,74.6877 310.125,120.427 373.525,166.167 436.924,211.906 500.324,257.645 563.723,303.385 627.123,349.124 690.522,394.864 753.922,440.603 817.321,486.343 880.721,532.082 944.12,577.821 1007.52,623.561 1070.92,669.3 1134.32,715.04 1197.72,760.779 1261.12,806.519 1324.52,852.258 1387.92,897.997 1451.32,943.737 1514.72,989.476 "/>
<path clip-path="url(#clip130)" d="M906.395 235.087 L1507.95 235.087 L1507.95 79.5666 L906.395 79.5666  Z" fill="#ffffff" fill-rule="evenodd" fill-opacity="1"/>
<polyline clip-path="url(#clip130)" style="stroke:#000000; stroke-linecap:round; stroke-linejoin:round; stroke-width:4; stroke-opacity:1; fill:none" points="906.395,235.087 1507.95,235.087 1507.95,79.5666 906.395,79.5666 906.395,235.087 "/>
<polyline clip-path="url(#clip130)" style="stroke:#009af9; stroke-linecap:round; stroke-linejoin:round; stroke-width:4; stroke-opacity:1; fill:none" points="921.329,131.407 1010.93,131.407 "/>
<path clip-path="url(#clip130)" d="M1060.65 110.633 L1059.69 118.924 Q1059.62 119.674 1059.5 119.908 Q1059.39 120.119 1059.01 120.119 Q1058.73 120.119 1058.57 119.955 Q1058.42 119.767 1058.42 119.557 Q1058.42 119.44 1058.45 119.135 Q1058.47 118.831 1058.47 118.69 Q1058.68 117.238 1058.68 116.137 Q1058.68 114.099 1058.07 112.998 Q1057.46 111.874 1055.9 111.359 Q1054.33 110.82 1051.37 110.82 L1044.63 110.82 Q1043.08 110.82 1042.71 111.101 Q1042.36 111.382 1042.03 112.694 L1039.15 124.241 L1043.67 124.241 Q1045.35 124.241 1046.36 124.03 Q1047.39 123.82 1048.07 123.234 Q1048.77 122.625 1049.15 121.805 Q1049.55 120.985 1049.95 119.51 Q1050.06 119.018 1050.18 118.831 Q1050.32 118.643 1050.63 118.643 Q1050.86 118.643 1051.02 118.807 Q1051.19 118.948 1051.19 119.158 L1048.45 130.378 Q1048.31 130.94 1048.17 131.151 Q1048.03 131.338 1047.74 131.338 Q1047.44 131.338 1047.28 131.174 Q1047.11 131.01 1047.11 130.823 Q1047.11 130.635 1047.25 130.284 Q1047.6 128.762 1047.6 127.942 Q1047.6 127.473 1047.56 127.239 Q1047.53 127.005 1047.32 126.677 Q1047.14 126.326 1046.71 126.162 Q1046.29 125.998 1045.5 125.881 Q1044.7 125.74 1043.5 125.74 L1038.77 125.74 L1035.49 138.833 Q1035.26 139.7 1035.26 139.934 Q1035.26 140.192 1035.38 140.286 Q1035.52 140.356 1035.89 140.403 Q1036.31 140.473 1036.95 140.473 L1043.95 140.473 Q1045.5 140.473 1046.74 140.332 Q1047.98 140.192 1049.01 139.84 Q1050.06 139.489 1050.86 139.091 Q1051.66 138.693 1052.41 137.967 Q1053.15 137.217 1053.67 136.561 Q1054.21 135.882 1054.84 134.734 Q1055.47 133.587 1055.92 132.65 Q1056.36 131.689 1057.04 130.144 Q1057.23 129.581 1057.68 129.581 Q1057.93 129.581 1058.07 129.722 Q1058.21 129.839 1058.24 129.956 L1058.24 130.097 Q1058.1 130.542 1058 130.776 L1053.6 141.129 Q1053.34 141.714 1053.13 141.831 Q1052.92 141.948 1052.1 141.948 L1027.2 141.948 Q1026.64 141.948 1026.41 141.925 Q1026.2 141.902 1026.03 141.785 Q1025.87 141.644 1025.87 141.363 Q1025.87 140.918 1026.05 140.731 Q1026.24 140.52 1026.45 140.496 Q1026.66 140.473 1027.2 140.473 Q1028.37 140.473 1029.08 140.403 Q1029.78 140.332 1030.22 140.239 Q1030.69 140.122 1030.93 139.794 Q1031.18 139.466 1031.3 139.185 Q1031.42 138.88 1031.58 138.201 L1037.91 112.834 Q1038.14 111.968 1038.14 111.687 Q1038.14 111.382 1037.93 111.195 Q1037.74 111.007 1037.23 110.937 Q1036.71 110.843 1036.29 110.843 Q1035.89 110.82 1035.03 110.82 Q1034.46 110.82 1034.23 110.797 Q1034.02 110.773 1033.85 110.656 Q1033.69 110.539 1033.69 110.281 Q1033.69 109.626 1033.97 109.485 Q1034.28 109.321 1035.12 109.321 L1059.34 109.321 Q1060.3 109.321 1060.51 109.532 Q1060.74 109.719 1060.65 110.633 Z" fill="#000000" fill-rule="nonzero" fill-opacity="1" /><path clip-path="url(#clip130)" d="M1067.26 153.941 L1067.26 105.972 L1074.49 105.972 L1074.49 107.072 L1070.47 107.072 L1070.47 152.84 L1074.49 152.84 L1074.49 153.941 L1067.26 153.941 Z" fill="#000000" fill-rule="nonzero" fill-opacity="1" /><path clip-path="url(#clip130)" d="M1097.79 122.578 Q1097.79 122.906 1097.58 123.679 L1092.99 141.995 Q1091.98 146.071 1088.7 148.928 Q1085.45 151.786 1081.75 151.786 Q1079.52 151.786 1078.09 150.591 Q1076.66 149.42 1076.66 147.617 Q1076.66 146.024 1077.51 145.251 Q1078.35 144.502 1079.36 144.502 Q1079.68 144.502 1080.04 144.595 Q1080.39 144.689 1080.76 145.087 Q1081.14 145.485 1081.14 146.165 Q1081.14 147.265 1080.18 148.132 Q1079.71 148.53 1079.26 148.624 Q1078.84 148.718 1078.12 148.718 Q1078.4 149.373 1078.91 149.818 Q1079.43 150.263 1080.01 150.427 Q1080.6 150.615 1080.97 150.662 Q1081.37 150.732 1081.75 150.732 Q1084.74 150.732 1087.04 147.71 Q1087.72 146.797 1088.21 145.883 Q1088.73 144.993 1089.1 143.893 Q1089.48 142.815 1089.64 142.23 Q1089.83 141.644 1090.15 140.309 Q1087.98 142.487 1085.31 142.487 Q1084.18 142.487 1083.17 142.183 Q1082.19 141.878 1081.32 141.246 Q1080.46 140.59 1079.94 139.442 Q1079.45 138.295 1079.45 136.772 Q1079.45 135.156 1080.08 132.954 Q1080.72 130.753 1082.24 126.7 Q1083.06 124.429 1083.06 123.328 Q1083.06 122.789 1082.94 122.461 Q1082.82 122.11 1082.59 121.993 Q1082.36 121.852 1082.21 121.829 Q1082.1 121.805 1081.86 121.805 Q1080.48 121.805 1079.19 123.211 Q1077.9 124.616 1077.01 127.754 Q1076.83 128.34 1076.71 128.481 Q1076.59 128.621 1076.24 128.621 Q1075.66 128.598 1075.66 128.129 Q1075.66 127.942 1075.87 127.216 Q1076.08 126.466 1076.57 125.365 Q1077.09 124.241 1077.79 123.234 Q1078.49 122.203 1079.59 121.477 Q1080.72 120.751 1082 120.751 Q1083.76 120.751 1084.84 121.899 Q1085.94 123.023 1085.94 124.686 Q1085.94 125.365 1085.75 125.974 Q1085.59 126.56 1084.98 128.129 Q1082.52 134.453 1082.52 137.545 Q1082.52 138.295 1082.64 138.927 Q1082.78 139.536 1083.08 140.145 Q1083.39 140.731 1083.99 141.082 Q1084.63 141.41 1085.49 141.41 Q1086.59 141.41 1087.63 140.894 Q1088.68 140.356 1089.33 139.63 Q1090.01 138.904 1090.41 138.295 Q1090.83 137.662 1090.93 137.334 L1093.08 128.715 L1094.04 124.874 Q1094.49 122.789 1094.7 122.274 Q1094.98 121.782 1095.47 121.524 Q1095.96 121.266 1096.39 121.266 Q1096.97 121.266 1097.37 121.618 Q1097.79 121.969 1097.79 122.578 Z" fill="#000000" fill-rule="nonzero" fill-opacity="1" /><path clip-path="url(#clip130)" d="M1104.88 152.465 L1104.88 107.799 Q1104.88 106.018 1105.84 106.018 Q1106.8 106.018 1106.8 107.447 L1106.8 152.114 Q1106.8 153.894 1105.84 153.894 Q1104.88 153.894 1104.88 152.465 Z" fill="#000000" fill-rule="nonzero" fill-opacity="1" /><path clip-path="url(#clip130)" d="M1148.57 123.913 Q1148.57 125.225 1147.75 125.974 Q1146.93 126.7 1145.99 126.7 Q1145.1 126.7 1144.63 126.185 Q1144.16 125.67 1144.16 125.014 Q1144.16 124.124 1144.82 123.351 Q1145.48 122.578 1146.46 122.414 Q1145.5 121.805 1144.07 121.805 Q1143.13 121.805 1142.31 122.297 Q1141.52 122.789 1141.03 123.421 Q1140.56 124.054 1140.13 124.967 Q1139.74 125.857 1139.57 126.396 Q1139.43 126.911 1139.32 127.473 L1137.68 134.032 Q1136.88 137.147 1136.88 138.248 Q1136.88 139.606 1137.54 140.52 Q1138.19 141.41 1139.5 141.41 Q1140.02 141.41 1140.6 141.269 Q1141.19 141.105 1141.94 140.684 Q1142.71 140.239 1143.39 139.583 Q1144.09 138.904 1144.77 137.756 Q1145.45 136.608 1145.9 135.133 Q1146.04 134.617 1146.51 134.617 Q1147.09 134.617 1147.09 135.086 Q1147.09 135.484 1146.76 136.327 Q1146.46 137.147 1145.78 138.224 Q1145.12 139.278 1144.26 140.239 Q1143.39 141.176 1142.1 141.831 Q1140.81 142.487 1139.41 142.487 Q1137.39 142.487 1136.06 141.41 Q1134.72 140.332 1134.23 138.833 Q1134.12 139.044 1133.95 139.325 Q1133.79 139.606 1133.3 140.239 Q1132.83 140.848 1132.29 141.316 Q1131.75 141.761 1130.91 142.112 Q1130.09 142.487 1129.2 142.487 Q1128.07 142.487 1127.07 142.159 Q1126.08 141.831 1125.38 141.082 Q1124.68 140.332 1124.68 139.302 Q1124.68 138.154 1125.45 137.358 Q1126.25 136.538 1127.32 136.538 Q1128 136.538 1128.54 136.936 Q1129.1 137.334 1129.1 138.201 Q1129.1 139.161 1128.45 139.887 Q1127.79 140.613 1126.85 140.801 Q1127.81 141.41 1129.24 141.41 Q1130.79 141.41 1132.01 140.051 Q1133.23 138.693 1133.81 136.421 Q1135.26 130.963 1135.83 128.527 Q1136.39 126.068 1136.39 125.014 Q1136.39 124.03 1136.13 123.351 Q1135.87 122.672 1135.43 122.367 Q1135.01 122.039 1134.61 121.922 Q1134.23 121.805 1133.81 121.805 Q1133.11 121.805 1132.31 122.086 Q1131.54 122.367 1130.6 123.023 Q1129.69 123.656 1128.82 124.967 Q1127.96 126.279 1127.37 128.082 Q1127.25 128.621 1126.74 128.621 Q1126.18 128.598 1126.18 128.129 Q1126.18 127.731 1126.48 126.911 Q1126.81 126.068 1127.46 125.014 Q1128.14 123.96 1129.01 123.023 Q1129.9 122.063 1131.19 121.407 Q1132.5 120.751 1133.9 120.751 Q1134.54 120.751 1135.15 120.892 Q1135.78 121.009 1136.53 121.36 Q1137.3 121.712 1137.98 122.484 Q1138.66 123.257 1139.08 124.382 Q1139.36 123.843 1139.74 123.328 Q1140.13 122.812 1140.74 122.18 Q1141.38 121.524 1142.24 121.149 Q1143.13 120.751 1144.12 120.751 Q1145.08 120.751 1146.01 121.009 Q1146.95 121.243 1147.75 122.016 Q1148.57 122.766 1148.57 123.913 Z" fill="#000000" fill-rule="nonzero" fill-opacity="1" /><path clip-path="url(#clip130)" d="M1153.45 136.604 L1153.45 135.555 Q1157.49 135.555 1159.57 133.407 Q1160.14 133.407 1160.24 133.538 Q1160.34 133.67 1160.34 134.276 L1160.34 153.115 Q1160.34 154.115 1160.83 154.427 Q1161.32 154.738 1163.47 154.738 L1164.54 154.738 L1164.54 155.771 Q1163.36 155.673 1159.09 155.673 Q1154.83 155.673 1153.67 155.771 L1153.67 154.738 L1154.73 154.738 Q1156.85 154.738 1157.35 154.443 Q1157.86 154.131 1157.86 153.115 L1157.86 135.719 Q1156.11 136.604 1153.45 136.604 Z" fill="#000000" fill-rule="nonzero" fill-opacity="1" /><path clip-path="url(#clip130)" d="M1182.85 134.664 Q1182.9 134.079 1183.81 134.079 L1213.21 134.079 Q1214.59 134.079 1214.61 134.617 Q1214.61 135.203 1213.3 135.179 L1184.14 135.179 Q1182.85 135.203 1182.85 134.664 M1182.85 125.295 Q1182.85 124.71 1183.86 124.733 L1213.16 124.733 Q1214.59 124.733 1214.61 125.295 Q1214.61 125.834 1213.4 125.834 L1183.81 125.834 Q1182.85 125.834 1182.85 125.295 Z" fill="#000000" fill-rule="nonzero" fill-opacity="1" /><path clip-path="url(#clip130)" d="M1233.12 126.607 Q1233.12 119.557 1234.9 115.715 Q1237.38 110 1243.24 110 Q1244.48 110 1245.77 110.352 Q1247.08 110.68 1248.72 111.968 Q1250.38 113.256 1251.39 115.364 Q1253.31 119.44 1253.31 126.607 Q1253.31 133.61 1251.53 137.428 Q1248.93 143.003 1243.19 143.003 Q1241.03 143.003 1238.83 141.902 Q1236.65 140.801 1235.27 138.154 Q1233.12 134.196 1233.12 126.607 M1237.1 126.021 Q1237.1 133.259 1237.61 136.14 Q1238.2 139.255 1239.79 140.613 Q1241.41 141.948 1243.19 141.948 Q1245.11 141.948 1246.7 140.52 Q1248.32 139.068 1248.81 135.952 Q1249.35 132.884 1249.33 126.021 Q1249.33 119.346 1248.86 116.676 Q1248.22 113.56 1246.54 112.319 Q1244.88 111.054 1243.19 111.054 Q1242.56 111.054 1241.88 111.242 Q1241.22 111.429 1240.26 111.968 Q1239.3 112.506 1238.55 113.842 Q1237.82 115.177 1237.47 117.191 Q1237.1 119.791 1237.1 126.021 Z" fill="#000000" fill-rule="nonzero" fill-opacity="1" /><path clip-path="url(#clip130)" d="M1257.55 141.176 Q1256.87 140.403 1256.87 139.395 Q1256.87 138.388 1257.53 137.639 Q1258.21 136.866 1259.43 136.866 Q1260.85 136.866 1261.67 138.248 Q1262.49 139.606 1262.49 141.902 Q1262.49 144.384 1261.49 146.68 Q1260.48 148.999 1259.5 150.1 Q1258.51 151.2 1258.11 151.2 Q1257.65 151.2 1257.65 150.685 Q1257.65 150.498 1257.97 150.146 Q1261.42 146.446 1261.44 141.902 Q1261.44 141.176 1261.35 141.176 L1261.23 141.269 Q1260.41 141.948 1259.43 141.948 Q1258.23 141.948 1257.55 141.176 Z" fill="#000000" fill-rule="nonzero" fill-opacity="1" /><path clip-path="url(#clip130)" d="M1301.52 123.913 Q1301.52 125.225 1300.7 125.974 Q1299.88 126.7 1298.94 126.7 Q1298.05 126.7 1297.59 126.185 Q1297.12 125.67 1297.12 125.014 Q1297.12 124.124 1297.77 123.351 Q1298.43 122.578 1299.41 122.414 Q1298.45 121.805 1297.02 121.805 Q1296.09 121.805 1295.27 122.297 Q1294.47 122.789 1293.98 123.421 Q1293.51 124.054 1293.09 124.967 Q1292.69 125.857 1292.53 126.396 Q1292.39 126.911 1292.27 127.473 L1290.63 134.032 Q1289.83 137.147 1289.83 138.248 Q1289.83 139.606 1290.49 140.52 Q1291.14 141.41 1292.46 141.41 Q1292.97 141.41 1293.56 141.269 Q1294.14 141.105 1294.89 140.684 Q1295.67 140.239 1296.34 139.583 Q1297.05 138.904 1297.73 137.756 Q1298.41 136.608 1298.85 135.133 Q1298.99 134.617 1299.46 134.617 Q1300.05 134.617 1300.05 135.086 Q1300.05 135.484 1299.72 136.327 Q1299.41 137.147 1298.73 138.224 Q1298.08 139.278 1297.21 140.239 Q1296.34 141.176 1295.06 141.831 Q1293.77 142.487 1292.36 142.487 Q1290.35 142.487 1289.01 141.41 Q1287.68 140.332 1287.19 138.833 Q1287.07 139.044 1286.91 139.325 Q1286.74 139.606 1286.25 140.239 Q1285.78 140.848 1285.24 141.316 Q1284.7 141.761 1283.86 142.112 Q1283.04 142.487 1282.15 142.487 Q1281.03 142.487 1280.02 142.159 Q1279.04 141.831 1278.33 141.082 Q1277.63 140.332 1277.63 139.302 Q1277.63 138.154 1278.4 137.358 Q1279.2 136.538 1280.28 136.538 Q1280.96 136.538 1281.49 136.936 Q1282.06 137.334 1282.06 138.201 Q1282.06 139.161 1281.4 139.887 Q1280.75 140.613 1279.81 140.801 Q1280.77 141.41 1282.2 141.41 Q1283.74 141.41 1284.96 140.051 Q1286.18 138.693 1286.76 136.421 Q1288.22 130.963 1288.78 128.527 Q1289.34 126.068 1289.34 125.014 Q1289.34 124.03 1289.08 123.351 Q1288.83 122.672 1288.38 122.367 Q1287.96 122.039 1287.56 121.922 Q1287.19 121.805 1286.76 121.805 Q1286.06 121.805 1285.27 122.086 Q1284.49 122.367 1283.56 123.023 Q1282.64 123.656 1281.78 124.967 Q1280.91 126.279 1280.32 128.082 Q1280.21 128.621 1279.69 128.621 Q1279.13 128.598 1279.13 128.129 Q1279.13 127.731 1279.43 126.911 Q1279.76 126.068 1280.42 125.014 Q1281.1 123.96 1281.96 123.023 Q1282.85 122.063 1284.14 121.407 Q1285.45 120.751 1286.86 120.751 Q1287.49 120.751 1288.1 120.892 Q1288.73 121.009 1289.48 121.36 Q1290.25 121.712 1290.93 122.484 Q1291.61 123.257 1292.03 124.382 Q1292.32 123.843 1292.69 123.328 Q1293.09 122.812 1293.7 122.18 Q1294.33 121.524 1295.2 121.149 Q1296.09 120.751 1297.07 120.751 Q1298.03 120.751 1298.97 121.009 Q1299.9 121.243 1300.7 122.016 Q1301.52 122.766 1301.52 123.913 Z" fill="#000000" fill-rule="nonzero" fill-opacity="1" /><path clip-path="url(#clip130)" d="M1306.41 155.771 Q1306.41 155.164 1306.46 154.984 Q1306.52 154.804 1306.78 154.525 L1313.23 147.344 Q1316.75 143.376 1316.75 139.916 Q1316.75 137.67 1315.57 136.063 Q1314.41 134.457 1312.26 134.457 Q1310.78 134.457 1309.54 135.358 Q1308.29 136.26 1307.72 137.867 Q1307.82 137.834 1308.16 137.834 Q1309 137.834 1309.46 138.359 Q1309.93 138.883 1309.93 139.588 Q1309.93 140.49 1309.34 140.933 Q1308.77 141.359 1308.19 141.359 Q1307.96 141.359 1307.65 141.31 Q1307.36 141.261 1306.88 140.802 Q1306.41 140.326 1306.41 139.49 Q1306.41 137.145 1308.18 135.276 Q1309.96 133.407 1312.69 133.407 Q1315.77 133.407 1317.78 135.244 Q1319.82 137.063 1319.82 139.916 Q1319.82 140.916 1319.51 141.835 Q1319.21 142.736 1318.8 143.441 Q1318.41 144.146 1317.33 145.278 Q1316.24 146.409 1315.37 147.212 Q1314.51 148.016 1312.55 149.721 L1309 153.18 L1315.05 153.18 Q1318 153.18 1318.23 152.918 Q1318.56 152.443 1318.97 149.934 L1319.82 149.934 L1318.87 155.771 L1306.41 155.771 Z" fill="#000000" fill-rule="nonzero" fill-opacity="1" /><path clip-path="url(#clip130)" d="M1325.48 141.176 Q1324.8 140.403 1324.8 139.395 Q1324.8 138.388 1325.46 137.639 Q1326.14 136.866 1327.36 136.866 Q1328.79 136.866 1329.61 138.248 Q1330.43 139.606 1330.43 141.902 Q1330.43 144.384 1329.42 146.68 Q1328.41 148.999 1327.43 150.1 Q1326.44 151.2 1326.05 151.2 Q1325.58 151.2 1325.58 150.685 Q1325.58 150.498 1325.91 150.146 Q1329.35 146.446 1329.37 141.902 Q1329.37 141.176 1329.28 141.176 L1329.16 141.269 Q1328.34 141.948 1327.36 141.948 Q1326.16 141.948 1325.48 141.176 Z" fill="#000000" fill-rule="nonzero" fill-opacity="1" /><path clip-path="url(#clip130)" d="M1369.45 123.913 Q1369.45 125.225 1368.63 125.974 Q1367.81 126.7 1366.88 126.7 Q1365.99 126.7 1365.52 126.185 Q1365.05 125.67 1365.05 125.014 Q1365.05 124.124 1365.71 123.351 Q1366.36 122.578 1367.35 122.414 Q1366.38 121.805 1364.96 121.805 Q1364.02 121.805 1363.2 122.297 Q1362.4 122.789 1361.91 123.421 Q1361.44 124.054 1361.02 124.967 Q1360.62 125.857 1360.46 126.396 Q1360.32 126.911 1360.2 127.473 L1358.56 134.032 Q1357.77 137.147 1357.77 138.248 Q1357.77 139.606 1358.42 140.52 Q1359.08 141.41 1360.39 141.41 Q1360.9 141.41 1361.49 141.269 Q1362.08 141.105 1362.82 140.684 Q1363.6 140.239 1364.28 139.583 Q1364.98 138.904 1365.66 137.756 Q1366.34 136.608 1366.78 135.133 Q1366.92 134.617 1367.39 134.617 Q1367.98 134.617 1367.98 135.086 Q1367.98 135.484 1367.65 136.327 Q1367.35 137.147 1366.67 138.224 Q1366.01 139.278 1365.14 140.239 Q1364.28 141.176 1362.99 141.831 Q1361.7 142.487 1360.3 142.487 Q1358.28 142.487 1356.95 141.41 Q1355.61 140.332 1355.12 138.833 Q1355 139.044 1354.84 139.325 Q1354.67 139.606 1354.18 140.239 Q1353.71 140.848 1353.17 141.316 Q1352.64 141.761 1351.79 142.112 Q1350.97 142.487 1350.08 142.487 Q1348.96 142.487 1347.95 142.159 Q1346.97 141.831 1346.27 141.082 Q1345.56 140.332 1345.56 139.302 Q1345.56 138.154 1346.34 137.358 Q1347.13 136.538 1348.21 136.538 Q1348.89 136.538 1349.43 136.936 Q1349.99 137.334 1349.99 138.201 Q1349.99 139.161 1349.33 139.887 Q1348.68 140.613 1347.74 140.801 Q1348.7 141.41 1350.13 141.41 Q1351.68 141.41 1352.89 140.051 Q1354.11 138.693 1354.7 136.421 Q1356.15 130.963 1356.71 128.527 Q1357.27 126.068 1357.27 125.014 Q1357.27 124.03 1357.02 123.351 Q1356.76 122.672 1356.31 122.367 Q1355.89 122.039 1355.49 121.922 Q1355.12 121.805 1354.7 121.805 Q1353.99 121.805 1353.2 122.086 Q1352.43 122.367 1351.49 123.023 Q1350.57 123.656 1349.71 124.967 Q1348.84 126.279 1348.26 128.082 Q1348.14 128.621 1347.62 128.621 Q1347.06 128.598 1347.06 128.129 Q1347.06 127.731 1347.37 126.911 Q1347.69 126.068 1348.35 125.014 Q1349.03 123.96 1349.9 123.023 Q1350.79 122.063 1352.07 121.407 Q1353.39 120.751 1354.79 120.751 Q1355.42 120.751 1356.03 120.892 Q1356.66 121.009 1357.41 121.36 Q1358.19 121.712 1358.87 122.484 Q1359.55 123.257 1359.97 124.382 Q1360.25 123.843 1360.62 123.328 Q1361.02 122.812 1361.63 122.18 Q1362.26 121.524 1363.13 121.149 Q1364.02 120.751 1365 120.751 Q1365.96 120.751 1366.9 121.009 Q1367.84 121.243 1368.63 122.016 Q1369.45 122.766 1369.45 123.913 Z" fill="#000000" fill-rule="nonzero" fill-opacity="1" /><path clip-path="url(#clip130)" d="M1374.34 151.246 Q1374.34 150.246 1374.91 149.77 Q1375.49 149.295 1376.22 149.295 Q1376.99 149.295 1377.54 149.803 Q1378.09 150.295 1378.09 151.164 Q1378.09 152.098 1377.44 152.623 Q1376.8 153.148 1375.88 153.017 Q1376.68 154.361 1378.16 154.968 Q1379.65 155.574 1381.03 155.574 Q1382.47 155.574 1383.64 154.328 Q1384.82 153.082 1384.82 150.032 Q1384.82 147.442 1383.8 145.95 Q1382.8 144.458 1380.81 144.458 L1379.34 144.458 Q1378.83 144.458 1378.68 144.409 Q1378.54 144.36 1378.54 144.081 Q1378.54 143.753 1379.04 143.687 Q1379.55 143.687 1380.36 143.589 Q1382.31 143.523 1383.34 141.835 Q1384.27 140.261 1384.27 138.014 Q1384.27 135.965 1383.29 135.112 Q1382.32 134.243 1381.06 134.243 Q1379.88 134.243 1378.59 134.735 Q1377.29 135.227 1376.58 136.326 Q1378.67 136.326 1378.67 138.014 Q1378.67 138.752 1378.19 139.244 Q1377.73 139.72 1376.96 139.72 Q1376.22 139.72 1375.73 139.261 Q1375.24 138.785 1375.24 137.982 Q1375.24 136.063 1376.95 134.735 Q1378.67 133.407 1381.19 133.407 Q1383.68 133.407 1385.52 134.719 Q1387.37 136.031 1387.37 138.047 Q1387.37 140.031 1386.06 141.654 Q1384.75 143.277 1382.67 143.95 Q1385.23 144.458 1386.75 146.196 Q1388.27 147.917 1388.27 150.032 Q1388.27 152.656 1386.21 154.591 Q1384.14 156.509 1381.13 156.509 Q1378.34 156.509 1376.34 155 Q1374.34 153.492 1374.34 151.246 Z" fill="#000000" fill-rule="nonzero" fill-opacity="1" /><path clip-path="url(#clip130)" d="M1406.57 134.664 Q1406.62 134.079 1407.53 134.079 L1436.92 134.079 Q1438.31 134.079 1438.33 134.617 Q1438.33 135.203 1437.02 135.179 L1407.86 135.179 Q1406.57 135.203 1406.57 134.664 M1406.57 125.295 Q1406.57 124.71 1407.58 124.733 L1436.88 124.733 Q1438.31 124.733 1438.33 125.295 Q1438.33 125.834 1437.11 125.834 L1407.53 125.834 Q1406.57 125.834 1406.57 125.295 Z" fill="#000000" fill-rule="nonzero" fill-opacity="1" /><path clip-path="url(#clip130)" d="M1456.83 126.607 Q1456.83 119.557 1458.61 115.715 Q1461.1 110 1466.95 110 Q1468.19 110 1469.48 110.352 Q1470.79 110.68 1472.43 111.968 Q1474.09 113.256 1475.1 115.364 Q1477.02 119.44 1477.02 126.607 Q1477.02 133.61 1475.24 137.428 Q1472.64 143.003 1466.9 143.003 Q1464.75 143.003 1462.55 141.902 Q1460.37 140.801 1458.99 138.154 Q1456.83 134.196 1456.83 126.607 M1460.81 126.021 Q1460.81 133.259 1461.33 136.14 Q1461.92 139.255 1463.51 140.613 Q1465.12 141.948 1466.9 141.948 Q1468.82 141.948 1470.42 140.52 Q1472.03 139.068 1472.53 135.952 Q1473.06 132.884 1473.04 126.021 Q1473.04 119.346 1472.57 116.676 Q1471.94 113.56 1470.25 112.319 Q1468.59 111.054 1466.9 111.054 Q1466.27 111.054 1465.59 111.242 Q1464.94 111.429 1463.98 111.968 Q1463.02 112.506 1462.27 113.842 Q1461.54 115.177 1461.19 117.191 Q1460.81 119.791 1460.81 126.021 Z" fill="#000000" fill-rule="nonzero" fill-opacity="1" /><path clip-path="url(#clip130)" d="M1479.82 152.84 L1483.85 152.84 L1483.85 107.072 L1479.82 107.072 L1479.82 105.972 L1487.06 105.972 L1487.06 153.941 L1479.82 153.941 L1479.82 152.84 Z" fill="#000000" fill-rule="nonzero" fill-opacity="1" /><polyline clip-path="url(#clip130)" style="stroke:#e26f46; stroke-linecap:round; stroke-linejoin:round; stroke-width:4; stroke-opacity:1; fill:none" points="921.329,183.247 1010.93,183.247 "/>
<path clip-path="url(#clip130)" d="M1048 167.46 Q1048 167.788 1047.79 168.561 L1043.2 186.877 Q1042.19 190.953 1038.91 193.81 Q1035.66 196.668 1031.96 196.668 Q1029.73 196.668 1028.3 195.473 Q1026.87 194.302 1026.87 192.498 Q1026.87 190.906 1027.72 190.133 Q1028.56 189.383 1029.57 189.383 Q1029.9 189.383 1030.25 189.477 Q1030.6 189.571 1030.97 189.969 Q1031.35 190.367 1031.35 191.046 Q1031.35 192.147 1030.39 193.014 Q1029.92 193.412 1029.47 193.506 Q1029.05 193.599 1028.33 193.599 Q1028.61 194.255 1029.12 194.7 Q1029.64 195.145 1030.22 195.309 Q1030.81 195.496 1031.18 195.543 Q1031.58 195.614 1031.96 195.614 Q1034.96 195.614 1037.25 192.592 Q1037.93 191.679 1038.42 190.765 Q1038.94 189.875 1039.31 188.774 Q1039.69 187.697 1039.85 187.111 Q1040.04 186.526 1040.37 185.191 Q1038.19 187.369 1035.52 187.369 Q1034.39 187.369 1033.39 187.064 Q1032.4 186.76 1031.54 186.127 Q1030.67 185.472 1030.15 184.324 Q1029.66 183.176 1029.66 181.654 Q1029.66 180.038 1030.29 177.836 Q1030.93 175.634 1032.45 171.582 Q1033.27 169.31 1033.27 168.209 Q1033.27 167.671 1033.15 167.343 Q1033.03 166.991 1032.8 166.874 Q1032.57 166.734 1032.43 166.71 Q1032.31 166.687 1032.07 166.687 Q1030.69 166.687 1029.4 168.092 Q1028.12 169.498 1027.23 172.636 Q1027.04 173.222 1026.92 173.362 Q1026.8 173.503 1026.45 173.503 Q1025.87 173.479 1025.87 173.011 Q1025.87 172.824 1026.08 172.097 Q1026.29 171.348 1026.78 170.247 Q1027.3 169.123 1028 168.116 Q1028.7 167.085 1029.8 166.359 Q1030.93 165.633 1032.21 165.633 Q1033.97 165.633 1035.05 166.781 Q1036.15 167.905 1036.15 169.568 Q1036.15 170.247 1035.96 170.856 Q1035.8 171.442 1035.19 173.011 Q1032.73 179.335 1032.73 182.427 Q1032.73 183.176 1032.85 183.809 Q1032.99 184.418 1033.29 185.027 Q1033.6 185.612 1034.21 185.964 Q1034.84 186.291 1035.7 186.291 Q1036.81 186.291 1037.84 185.776 Q1038.89 185.237 1039.55 184.511 Q1040.23 183.785 1040.62 183.176 Q1041.05 182.544 1041.14 182.216 L1043.29 173.596 L1044.25 169.755 Q1044.7 167.671 1044.91 167.155 Q1045.19 166.663 1045.68 166.406 Q1046.17 166.148 1046.6 166.148 Q1047.18 166.148 1047.58 166.499 Q1048 166.851 1048 167.46 Z" fill="#000000" fill-rule="nonzero" fill-opacity="1" /><path clip-path="url(#clip130)" d="M1062.44 179.546 Q1062.49 178.96 1063.4 178.96 L1092.8 178.96 Q1094.18 178.96 1094.2 179.499 Q1094.2 180.084 1092.89 180.061 L1063.73 180.061 Q1062.44 180.084 1062.44 179.546 M1062.44 170.177 Q1062.44 169.591 1063.45 169.615 L1092.75 169.615 Q1094.18 169.615 1094.2 170.177 Q1094.2 170.716 1092.99 170.716 L1063.4 170.716 Q1062.44 170.716 1062.44 170.177 Z" fill="#000000" fill-rule="nonzero" fill-opacity="1" /><path clip-path="url(#clip130)" d="M1157.68 174.159 Q1157.96 174.44 1157.96 174.838 Q1157.96 175.236 1157.68 175.517 Q1157.4 175.798 1157 175.798 L1126.97 175.798 Q1126.58 175.798 1126.29 175.517 Q1126.01 175.236 1126.01 174.838 Q1126.01 174.44 1126.29 174.159 Q1126.58 173.878 1126.97 173.878 L1157 173.878 Q1157.4 173.878 1157.68 174.159 Z" fill="#000000" fill-rule="nonzero" fill-opacity="1" /><path clip-path="url(#clip130)" d="M1200.17 168.795 Q1200.17 170.107 1199.35 170.856 Q1198.53 171.582 1197.59 171.582 Q1196.7 171.582 1196.23 171.067 Q1195.76 170.552 1195.76 169.896 Q1195.76 169.006 1196.42 168.233 Q1197.08 167.46 1198.06 167.296 Q1197.1 166.687 1195.67 166.687 Q1194.73 166.687 1193.91 167.179 Q1193.12 167.671 1192.63 168.303 Q1192.16 168.935 1191.74 169.849 Q1191.34 170.739 1191.17 171.278 Q1191.03 171.793 1190.92 172.355 L1189.28 178.913 Q1188.48 182.029 1188.48 183.129 Q1188.48 184.488 1189.14 185.401 Q1189.79 186.291 1191.1 186.291 Q1191.62 186.291 1192.2 186.151 Q1192.79 185.987 1193.54 185.565 Q1194.31 185.12 1194.99 184.464 Q1195.69 183.785 1196.37 182.638 Q1197.05 181.49 1197.5 180.014 Q1197.64 179.499 1198.11 179.499 Q1198.69 179.499 1198.69 179.967 Q1198.69 180.366 1198.36 181.209 Q1198.06 182.029 1197.38 183.106 Q1196.72 184.16 1195.86 185.12 Q1194.99 186.057 1193.7 186.713 Q1192.41 187.369 1191.01 187.369 Q1189 187.369 1187.66 186.291 Q1186.32 185.214 1185.83 183.715 Q1185.72 183.926 1185.55 184.207 Q1185.39 184.488 1184.9 185.12 Q1184.43 185.729 1183.89 186.198 Q1183.35 186.643 1182.51 186.994 Q1181.69 187.369 1180.8 187.369 Q1179.67 187.369 1178.67 187.041 Q1177.68 186.713 1176.98 185.964 Q1176.28 185.214 1176.28 184.183 Q1176.28 183.036 1177.05 182.239 Q1177.85 181.42 1178.92 181.42 Q1179.6 181.42 1180.14 181.818 Q1180.7 182.216 1180.7 183.083 Q1180.7 184.043 1180.05 184.769 Q1179.39 185.495 1178.45 185.682 Q1179.42 186.291 1180.84 186.291 Q1182.39 186.291 1183.61 184.933 Q1184.83 183.574 1185.41 181.302 Q1186.86 175.845 1187.43 173.409 Q1187.99 170.95 1187.99 169.896 Q1187.99 168.912 1187.73 168.233 Q1187.47 167.553 1187.03 167.249 Q1186.61 166.921 1186.21 166.804 Q1185.83 166.687 1185.41 166.687 Q1184.71 166.687 1183.91 166.968 Q1183.14 167.249 1182.2 167.905 Q1181.29 168.537 1180.42 169.849 Q1179.56 171.161 1178.97 172.964 Q1178.85 173.503 1178.34 173.503 Q1177.78 173.479 1177.78 173.011 Q1177.78 172.613 1178.08 171.793 Q1178.41 170.95 1179.06 169.896 Q1179.74 168.842 1180.61 167.905 Q1181.5 166.945 1182.79 166.289 Q1184.1 165.633 1185.51 165.633 Q1186.14 165.633 1186.75 165.773 Q1187.38 165.89 1188.13 166.242 Q1188.9 166.593 1189.58 167.366 Q1190.26 168.139 1190.68 169.263 Q1190.96 168.725 1191.34 168.209 Q1191.74 167.694 1192.34 167.062 Q1192.98 166.406 1193.84 166.031 Q1194.73 165.633 1195.72 165.633 Q1196.68 165.633 1197.61 165.89 Q1198.55 166.125 1199.35 166.898 Q1200.17 167.647 1200.17 168.795 Z" fill="#000000" fill-rule="nonzero" fill-opacity="1" /><path clip-path="url(#clip130)" d="M1205.05 200.653 Q1205.05 200.046 1205.1 199.866 Q1205.17 199.685 1205.43 199.407 L1211.87 192.225 Q1215.4 188.258 1215.4 184.798 Q1215.4 182.552 1214.22 180.945 Q1213.05 179.338 1210.91 179.338 Q1209.43 179.338 1208.18 180.24 Q1206.94 181.142 1206.36 182.749 Q1206.46 182.716 1206.81 182.716 Q1207.64 182.716 1208.1 183.24 Q1208.58 183.765 1208.58 184.47 Q1208.58 185.372 1207.99 185.815 Q1207.41 186.241 1206.84 186.241 Q1206.61 186.241 1206.3 186.192 Q1206 186.142 1205.53 185.683 Q1205.05 185.208 1205.05 184.372 Q1205.05 182.027 1206.82 180.158 Q1208.61 178.289 1211.33 178.289 Q1214.41 178.289 1216.43 180.125 Q1218.46 181.945 1218.46 184.798 Q1218.46 185.798 1218.15 186.716 Q1217.86 187.618 1217.45 188.323 Q1217.05 189.028 1215.97 190.159 Q1214.89 191.291 1214.02 192.094 Q1213.15 192.897 1211.2 194.603 L1207.64 198.062 L1213.69 198.062 Q1216.64 198.062 1216.87 197.8 Q1217.2 197.324 1217.61 194.816 L1218.46 194.816 L1217.51 200.653 L1205.05 200.653 Z" fill="#000000" fill-rule="nonzero" fill-opacity="1" /></svg>
