<?xml version="1.0" encoding="utf-8"?>
<svg xmlns="http://www.w3.org/2000/svg" xmlns:xlink="http://www.w3.org/1999/xlink" width="600" height="400" viewBox="0 0 2400 1600">
<defs>
  <clipPath id="clip800">
    <rect x="0" y="0" width="2400" height="1600"/>
  </clipPath>
</defs>
<path clip-path="url(#clip800)" d="M0 1600 L2400 1600 L2400 0 L0 0  Z" fill="#ffffff" fill-rule="evenodd" fill-opacity="1"/>
<defs>
  <clipPath id="clip801">
    <rect x="480" y="0" width="1681" height="1600"/>
  </clipPath>
</defs>
<path clip-path="url(#clip800)" d="M86.9921 1521.01 L2352.76 1521.01 L2352.76 47.2441 L86.9921 47.2441  Z" fill="#ffffff" fill-rule="evenodd" fill-opacity="1"/>
<defs>
  <clipPath id="clip802">
    <rect x="86" y="47" width="2267" height="1475"/>
  </clipPath>
</defs>
<polyline clip-path="url(#clip802)" style="stroke:#000000; stroke-linecap:round; stroke-linejoin:round; stroke-width:2; stroke-opacity:0.1; fill:none" points="151.118,1521.01 151.118,47.2441 "/>
<polyline clip-path="url(#clip802)" style="stroke:#000000; stroke-linecap:round; stroke-linejoin:round; stroke-width:2; stroke-opacity:0.1; fill:none" points="685.496,1521.01 685.496,47.2441 "/>
<polyline clip-path="url(#clip802)" style="stroke:#000000; stroke-linecap:round; stroke-linejoin:round; stroke-width:2; stroke-opacity:0.1; fill:none" points="1219.87,1521.01 1219.87,47.2441 "/>
<polyline clip-path="url(#clip802)" style="stroke:#000000; stroke-linecap:round; stroke-linejoin:round; stroke-width:2; stroke-opacity:0.1; fill:none" points="1754.25,1521.01 1754.25,47.2441 "/>
<polyline clip-path="url(#clip802)" style="stroke:#000000; stroke-linecap:round; stroke-linejoin:round; stroke-width:2; stroke-opacity:0.1; fill:none" points="2288.63,1521.01 2288.63,47.2441 "/>
<polyline clip-path="url(#clip800)" style="stroke:#000000; stroke-linecap:round; stroke-linejoin:round; stroke-width:4; stroke-opacity:1; fill:none" points="86.9921,1521.01 2352.76,1521.01 "/>
<polyline clip-path="url(#clip800)" style="stroke:#000000; stroke-linecap:round; stroke-linejoin:round; stroke-width:4; stroke-opacity:1; fill:none" points="151.118,1521.01 151.118,1502.11 "/>
<polyline clip-path="url(#clip800)" style="stroke:#000000; stroke-linecap:round; stroke-linejoin:round; stroke-width:4; stroke-opacity:1; fill:none" points="685.496,1521.01 685.496,1502.11 "/>
<polyline clip-path="url(#clip800)" style="stroke:#000000; stroke-linecap:round; stroke-linejoin:round; stroke-width:4; stroke-opacity:1; fill:none" points="1219.87,1521.01 1219.87,1502.11 "/>
<polyline clip-path="url(#clip800)" style="stroke:#000000; stroke-linecap:round; stroke-linejoin:round; stroke-width:4; stroke-opacity:1; fill:none" points="1754.25,1521.01 1754.25,1502.11 "/>
<polyline clip-path="url(#clip800)" style="stroke:#000000; stroke-linecap:round; stroke-linejoin:round; stroke-width:4; stroke-opacity:1; fill:none" points="2288.63,1521.01 2288.63,1502.11 "/>
<path clip-path="url(#clip800)" d="M121.06 1566.58 L150.736 1566.58 L150.736 1570.51 L121.06 1570.51 L121.06 1566.58 Z" fill="#000000" fill-rule="nonzero" fill-opacity="1" /><path clip-path="url(#clip800)" d="M164.856 1579.47 L181.175 1579.47 L181.175 1583.41 L159.231 1583.41 L159.231 1579.47 Q161.893 1576.72 166.476 1572.09 Q171.083 1567.44 172.263 1566.09 Q174.509 1563.57 175.388 1561.83 Q176.291 1560.07 176.291 1558.38 Q176.291 1555.63 174.347 1553.89 Q172.425 1552.16 169.323 1552.16 Q167.124 1552.16 164.671 1552.92 Q162.24 1553.69 159.462 1555.24 L159.462 1550.51 Q162.286 1549.38 164.74 1548.8 Q167.194 1548.22 169.231 1548.22 Q174.601 1548.22 177.796 1550.91 Q180.99 1553.59 180.99 1558.08 Q180.99 1560.21 180.18 1562.13 Q179.393 1564.03 177.286 1566.63 Q176.708 1567.3 173.606 1570.51 Q170.504 1573.71 164.856 1579.47 Z" fill="#000000" fill-rule="nonzero" fill-opacity="1" /><path clip-path="url(#clip800)" d="M655.253 1566.58 L684.929 1566.58 L684.929 1570.51 L655.253 1570.51 L655.253 1566.58 Z" fill="#000000" fill-rule="nonzero" fill-opacity="1" /><path clip-path="url(#clip800)" d="M695.831 1579.47 L703.47 1579.47 L703.47 1553.11 L695.16 1554.77 L695.16 1550.51 L703.424 1548.85 L708.1 1548.85 L708.1 1579.47 L715.739 1579.47 L715.739 1583.41 L695.831 1583.41 L695.831 1579.47 Z" fill="#000000" fill-rule="nonzero" fill-opacity="1" /><path clip-path="url(#clip800)" d="M1219.87 1551.93 Q1216.26 1551.93 1214.43 1555.49 Q1212.63 1559.03 1212.63 1566.16 Q1212.63 1573.27 1214.43 1576.83 Q1216.26 1580.38 1219.87 1580.38 Q1223.51 1580.38 1225.31 1576.83 Q1227.14 1573.27 1227.14 1566.16 Q1227.14 1559.03 1225.31 1555.49 Q1223.51 1551.93 1219.87 1551.93 M1219.87 1548.22 Q1225.68 1548.22 1228.74 1552.83 Q1231.82 1557.41 1231.82 1566.16 Q1231.82 1574.89 1228.74 1579.5 Q1225.68 1584.08 1219.87 1584.08 Q1214.06 1584.08 1210.99 1579.5 Q1207.93 1574.89 1207.93 1566.16 Q1207.93 1557.41 1210.99 1552.83 Q1214.06 1548.22 1219.87 1548.22 Z" fill="#000000" fill-rule="nonzero" fill-opacity="1" /><path clip-path="url(#clip800)" d="M1744.63 1579.47 L1752.27 1579.47 L1752.27 1553.11 L1743.96 1554.77 L1743.96 1550.51 L1752.23 1548.85 L1756.9 1548.85 L1756.9 1579.47 L1764.54 1579.47 L1764.54 1583.41 L1744.63 1583.41 L1744.63 1579.47 Z" fill="#000000" fill-rule="nonzero" fill-opacity="1" /><path clip-path="url(#clip800)" d="M2283.28 1579.47 L2299.6 1579.47 L2299.6 1583.41 L2277.66 1583.41 L2277.66 1579.47 Q2280.32 1576.72 2284.9 1572.09 Q2289.51 1567.44 2290.69 1566.09 Q2292.94 1563.57 2293.82 1561.83 Q2294.72 1560.07 2294.72 1558.38 Q2294.72 1555.63 2292.77 1553.89 Q2290.85 1552.16 2287.75 1552.16 Q2285.55 1552.16 2283.1 1552.92 Q2280.67 1553.69 2277.89 1555.24 L2277.89 1550.51 Q2280.71 1549.38 2283.17 1548.8 Q2285.62 1548.22 2287.66 1548.22 Q2293.03 1548.22 2296.22 1550.91 Q2299.42 1553.59 2299.42 1558.08 Q2299.42 1560.21 2298.61 1562.13 Q2297.82 1564.03 2295.71 1566.63 Q2295.14 1567.3 2292.03 1570.51 Q2288.93 1573.71 2283.28 1579.47 Z" fill="#000000" fill-rule="nonzero" fill-opacity="1" /><polyline clip-path="url(#clip802)" style="stroke:#000000; stroke-linecap:round; stroke-linejoin:round; stroke-width:2; stroke-opacity:0.1; fill:none" points="86.9921,1471 2352.76,1471 "/>
<polyline clip-path="url(#clip802)" style="stroke:#000000; stroke-linecap:round; stroke-linejoin:round; stroke-width:2; stroke-opacity:0.1; fill:none" points="86.9921,1152.55 2352.76,1152.55 "/>
<polyline clip-path="url(#clip802)" style="stroke:#000000; stroke-linecap:round; stroke-linejoin:round; stroke-width:2; stroke-opacity:0.1; fill:none" points="86.9921,834.105 2352.76,834.105 "/>
<polyline clip-path="url(#clip802)" style="stroke:#000000; stroke-linecap:round; stroke-linejoin:round; stroke-width:2; stroke-opacity:0.1; fill:none" points="86.9921,515.66 2352.76,515.66 "/>
<polyline clip-path="url(#clip802)" style="stroke:#000000; stroke-linecap:round; stroke-linejoin:round; stroke-width:2; stroke-opacity:0.1; fill:none" points="86.9921,197.214 2352.76,197.214 "/>
<polyline clip-path="url(#clip800)" style="stroke:#000000; stroke-linecap:round; stroke-linejoin:round; stroke-width:4; stroke-opacity:1; fill:none" points="86.9921,1521.01 86.9921,47.2441 "/>
<polyline clip-path="url(#clip800)" style="stroke:#000000; stroke-linecap:round; stroke-linejoin:round; stroke-width:4; stroke-opacity:1; fill:none" points="86.9921,1471 105.89,1471 "/>
<polyline clip-path="url(#clip800)" style="stroke:#000000; stroke-linecap:round; stroke-linejoin:round; stroke-width:4; stroke-opacity:1; fill:none" points="86.9921,1152.55 105.89,1152.55 "/>
<polyline clip-path="url(#clip800)" style="stroke:#000000; stroke-linecap:round; stroke-linejoin:round; stroke-width:4; stroke-opacity:1; fill:none" points="86.9921,834.105 105.89,834.105 "/>
<polyline clip-path="url(#clip800)" style="stroke:#000000; stroke-linecap:round; stroke-linejoin:round; stroke-width:4; stroke-opacity:1; fill:none" points="86.9921,515.66 105.89,515.66 "/>
<polyline clip-path="url(#clip800)" style="stroke:#000000; stroke-linecap:round; stroke-linejoin:round; stroke-width:4; stroke-opacity:1; fill:none" points="86.9921,197.214 105.89,197.214 "/>
<path clip-path="url(#clip800)" d="M39.0477 1456.8 Q35.4367 1456.8 33.608 1460.36 Q31.8024 1463.9 31.8024 1471.03 Q31.8024 1478.14 33.608 1481.7 Q35.4367 1485.24 39.0477 1485.24 Q42.682 1485.24 44.4875 1481.7 Q46.3162 1478.14 46.3162 1471.03 Q46.3162 1463.9 44.4875 1460.36 Q42.682 1456.8 39.0477 1456.8 M39.0477 1453.09 Q44.8579 1453.09 47.9134 1457.7 Q50.9921 1462.28 50.9921 1471.03 Q50.9921 1479.76 47.9134 1484.36 Q44.8579 1488.95 39.0477 1488.95 Q33.2376 1488.95 30.1589 1484.36 Q27.1034 1479.76 27.1034 1471.03 Q27.1034 1462.28 30.1589 1457.7 Q33.2376 1453.09 39.0477 1453.09 Z" fill="#000000" fill-rule="nonzero" fill-opacity="1" /><path clip-path="url(#clip800)" d="M31.0848 1165.9 L38.7237 1165.9 L38.7237 1139.53 L30.4135 1141.2 L30.4135 1136.94 L38.6774 1135.27 L43.3533 1135.27 L43.3533 1165.9 L50.9921 1165.9 L50.9921 1169.83 L31.0848 1169.83 L31.0848 1165.9 Z" fill="#000000" fill-rule="nonzero" fill-opacity="1" /><path clip-path="url(#clip800)" d="M34.6728 847.45 L50.9921 847.45 L50.9921 851.385 L29.0478 851.385 L29.0478 847.45 Q31.7098 844.696 36.2931 840.066 Q40.8996 835.413 42.0801 834.071 Q44.3255 831.547 45.2051 829.811 Q46.1079 828.052 46.1079 826.362 Q46.1079 823.608 44.1635 821.872 Q42.2422 820.136 39.1403 820.136 Q36.9413 820.136 34.4876 820.899 Q32.057 821.663 29.2793 823.214 L29.2793 818.492 Q32.1033 817.358 34.557 816.779 Q37.0107 816.2 39.0477 816.2 Q44.4181 816.2 47.6125 818.886 Q50.8069 821.571 50.8069 826.061 Q50.8069 828.191 49.9968 830.112 Q49.2097 832.01 47.1033 834.603 Q46.5246 835.274 43.4227 838.492 Q40.3209 841.686 34.6728 847.45 Z" fill="#000000" fill-rule="nonzero" fill-opacity="1" /><path clip-path="url(#clip800)" d="M43.8625 514.306 Q47.219 515.023 49.094 517.292 Q50.9921 519.56 50.9921 522.893 Q50.9921 528.009 47.4736 530.81 Q43.9551 533.611 37.4737 533.611 Q35.2978 533.611 32.983 533.171 Q30.6913 532.755 28.2376 531.898 L28.2376 527.384 Q30.1821 528.518 32.4969 529.097 Q34.8117 529.676 37.3348 529.676 Q41.7329 529.676 44.0246 527.94 Q46.3394 526.204 46.3394 522.893 Q46.3394 519.838 44.1866 518.125 Q42.057 516.389 38.2376 516.389 L34.2098 516.389 L34.2098 512.546 L38.4227 512.546 Q41.8718 512.546 43.7005 511.181 Q45.5292 509.792 45.5292 507.199 Q45.5292 504.537 43.6311 503.125 Q41.7561 501.69 38.2376 501.69 Q36.3163 501.69 34.1172 502.107 Q31.9182 502.523 29.2793 503.403 L29.2793 499.236 Q31.9413 498.495 34.2561 498.125 Q36.5941 497.755 38.6542 497.755 Q43.9783 497.755 47.0801 500.185 Q50.1819 502.593 50.1819 506.713 Q50.1819 509.583 48.5384 511.574 Q46.8949 513.542 43.8625 514.306 Z" fill="#000000" fill-rule="nonzero" fill-opacity="1" /><path clip-path="url(#clip800)" d="M41.4088 184.008 L29.6034 202.457 L41.4088 202.457 L41.4088 184.008 M40.182 179.934 L46.0616 179.934 L46.0616 202.457 L50.9921 202.457 L50.9921 206.346 L46.0616 206.346 L46.0616 214.494 L41.4088 214.494 L41.4088 206.346 L25.8071 206.346 L25.8071 201.832 L40.182 179.934 Z" fill="#000000" fill-rule="nonzero" fill-opacity="1" /><polyline clip-path="url(#clip802)" style="stroke:#009af9; stroke-linecap:round; stroke-linejoin:round; stroke-width:4; stroke-opacity:1; fill:none" points="151.118,88.9544 257.993,386.744 364.869,649.621 471.744,824.191 578.62,968.312 685.496,1094.4 792.371,1202.46 899.247,1292.5 1006.12,1364.5 1113,1418.47 1219.87,1454.41 1326.75,1479.3 1433.63,1474.16 1540.5,1416.52 1647.38,1306.37 1754.25,1143.71 1861.13,1002.19 1968,835.646 2074.88,644.024 2181.75,427.326 2288.63,185.551 "/>
<path clip-path="url(#clip800)" d="M1998.22 1471.88 L2277.23 1471.88 L2277.23 1368.2 L1998.22 1368.2  Z" fill="#ffffff" fill-rule="evenodd" fill-opacity="1"/>
<polyline clip-path="url(#clip800)" style="stroke:#000000; stroke-linecap:round; stroke-linejoin:round; stroke-width:4; stroke-opacity:1; fill:none" points="1998.22,1471.88 2277.23,1471.88 2277.23,1368.2 1998.22,1368.2 1998.22,1471.88 "/>
<polyline clip-path="url(#clip800)" style="stroke:#009af9; stroke-linecap:round; stroke-linejoin:round; stroke-width:4; stroke-opacity:1; fill:none" points="2023.4,1420.04 2174.45,1420.04 "/>
<path clip-path="url(#clip800)" d="M2213.47 1439.73 Q2211.66 1444.36 2209.95 1445.77 Q2208.24 1447.18 2205.37 1447.18 L2201.96 1447.18 L2201.96 1443.62 L2204.46 1443.62 Q2206.22 1443.62 2207.19 1442.79 Q2208.17 1441.95 2209.35 1438.85 L2210.11 1436.91 L2199.63 1411.4 L2204.14 1411.4 L2212.24 1431.67 L2220.34 1411.4 L2224.86 1411.4 L2213.47 1439.73 Z" fill="#000000" fill-rule="nonzero" fill-opacity="1" /><path clip-path="url(#clip800)" d="M2232.15 1433.39 L2239.79 1433.39 L2239.79 1407.02 L2231.48 1408.69 L2231.48 1404.43 L2239.74 1402.76 L2244.42 1402.76 L2244.42 1433.39 L2252.06 1433.39 L2252.06 1437.32 L2232.15 1437.32 L2232.15 1433.39 Z" fill="#000000" fill-rule="nonzero" fill-opacity="1" /></svg>
