<?xml version="1.0" encoding="utf-8"?>
<svg xmlns="http://www.w3.org/2000/svg" xmlns:xlink="http://www.w3.org/1999/xlink" width="400" height="300" viewBox="0 0 1600 1200">
<defs>
  <clipPath id="clip370">
    <rect x="0" y="0" width="1600" height="1200"/>
  </clipPath>
</defs>
<path clip-path="url(#clip370)" d="M0 1200 L1600 1200 L1600 0 L0 0  Z" fill="#ffffff" fill-rule="evenodd" fill-opacity="1"/>
<defs>
  <clipPath id="clip371">
    <rect x="320" y="0" width="1121" height="1121"/>
  </clipPath>
</defs>
<path clip-path="url(#clip370)" d="M173.385 1016.92 L1552.76 1016.92 L1552.76 47.2441 L173.385 47.2441  Z" fill="#ffffff" fill-rule="evenodd" fill-opacity="1"/>
<defs>
  <clipPath id="clip372">
    <rect x="173" y="47" width="1380" height="971"/>
  </clipPath>
</defs>
<polyline clip-path="url(#clip372)" style="stroke:#000000; stroke-linecap:round; stroke-linejoin:round; stroke-width:2; stroke-opacity:0.1; fill:none" points="212.424,1016.92 212.424,47.2441 "/>
<polyline clip-path="url(#clip372)" style="stroke:#000000; stroke-linecap:round; stroke-linejoin:round; stroke-width:2; stroke-opacity:0.1; fill:none" points="537.747,1016.92 537.747,47.2441 "/>
<polyline clip-path="url(#clip372)" style="stroke:#000000; stroke-linecap:round; stroke-linejoin:round; stroke-width:2; stroke-opacity:0.1; fill:none" points="863.071,1016.92 863.071,47.2441 "/>
<polyline clip-path="url(#clip372)" style="stroke:#000000; stroke-linecap:round; stroke-linejoin:round; stroke-width:2; stroke-opacity:0.1; fill:none" points="1188.39,1016.92 1188.39,47.2441 "/>
<polyline clip-path="url(#clip372)" style="stroke:#000000; stroke-linecap:round; stroke-linejoin:round; stroke-width:2; stroke-opacity:0.1; fill:none" points="1513.72,1016.92 1513.72,47.2441 "/>
<polyline clip-path="url(#clip370)" style="stroke:#000000; stroke-linecap:round; stroke-linejoin:round; stroke-width:4; stroke-opacity:1; fill:none" points="173.385,1016.92 1552.76,1016.92 "/>
<polyline clip-path="url(#clip370)" style="stroke:#000000; stroke-linecap:round; stroke-linejoin:round; stroke-width:4; stroke-opacity:1; fill:none" points="212.424,1016.92 212.424,998.022 "/>
<polyline clip-path="url(#clip370)" style="stroke:#000000; stroke-linecap:round; stroke-linejoin:round; stroke-width:4; stroke-opacity:1; fill:none" points="537.747,1016.92 537.747,998.022 "/>
<polyline clip-path="url(#clip370)" style="stroke:#000000; stroke-linecap:round; stroke-linejoin:round; stroke-width:4; stroke-opacity:1; fill:none" points="863.071,1016.92 863.071,998.022 "/>
<polyline clip-path="url(#clip370)" style="stroke:#000000; stroke-linecap:round; stroke-linejoin:round; stroke-width:4; stroke-opacity:1; fill:none" points="1188.39,1016.92 1188.39,998.022 "/>
<polyline clip-path="url(#clip370)" style="stroke:#000000; stroke-linecap:round; stroke-linejoin:round; stroke-width:4; stroke-opacity:1; fill:none" points="1513.72,1016.92 1513.72,998.022 "/>
<path clip-path="url(#clip370)" d="M182.366 1056.09 L212.042 1056.09 L212.042 1060.03 L182.366 1060.03 L182.366 1056.09 Z" fill="#000000" fill-rule="nonzero" fill-opacity="1" /><path clip-path="url(#clip370)" d="M226.162 1068.98 L242.482 1068.98 L242.482 1072.92 L220.537 1072.92 L220.537 1068.98 Q223.199 1066.23 227.783 1061.6 Q232.389 1056.95 233.57 1055.61 Q235.815 1053.08 236.695 1051.35 Q237.597 1049.59 237.597 1047.9 Q237.597 1045.14 235.653 1043.41 Q233.732 1041.67 230.63 1041.67 Q228.431 1041.67 225.977 1042.43 Q223.547 1043.2 220.769 1044.75 L220.769 1040.03 Q223.593 1038.89 226.047 1038.31 Q228.5 1037.73 230.537 1037.73 Q235.908 1037.73 239.102 1040.42 Q242.297 1043.11 242.297 1047.6 Q242.297 1049.73 241.486 1051.65 Q240.699 1053.54 238.593 1056.14 Q238.014 1056.81 234.912 1060.03 Q231.81 1063.22 226.162 1068.98 Z" fill="#000000" fill-rule="nonzero" fill-opacity="1" /><path clip-path="url(#clip370)" d="M507.504 1056.09 L537.18 1056.09 L537.18 1060.03 L507.504 1060.03 L507.504 1056.09 Z" fill="#000000" fill-rule="nonzero" fill-opacity="1" /><path clip-path="url(#clip370)" d="M548.083 1068.98 L555.722 1068.98 L555.722 1042.62 L547.412 1044.29 L547.412 1040.03 L555.675 1038.36 L560.351 1038.36 L560.351 1068.98 L567.99 1068.98 L567.99 1072.92 L548.083 1072.92 L548.083 1068.98 Z" fill="#000000" fill-rule="nonzero" fill-opacity="1" /><path clip-path="url(#clip370)" d="M863.071 1041.44 Q859.459 1041.44 857.631 1045 Q855.825 1048.54 855.825 1055.67 Q855.825 1062.78 857.631 1066.35 Q859.459 1069.89 863.071 1069.89 Q866.705 1069.89 868.51 1066.35 Q870.339 1062.78 870.339 1055.67 Q870.339 1048.54 868.51 1045 Q866.705 1041.44 863.071 1041.44 M863.071 1037.73 Q868.881 1037.73 871.936 1042.34 Q875.015 1046.92 875.015 1055.67 Q875.015 1064.4 871.936 1069.01 Q868.881 1073.59 863.071 1073.59 Q857.26 1073.59 854.182 1069.01 Q851.126 1064.4 851.126 1055.67 Q851.126 1046.92 854.182 1042.34 Q857.26 1037.73 863.071 1037.73 Z" fill="#000000" fill-rule="nonzero" fill-opacity="1" /><path clip-path="url(#clip370)" d="M1178.78 1068.98 L1186.41 1068.98 L1186.41 1042.62 L1178.1 1044.29 L1178.1 1040.03 L1186.37 1038.36 L1191.04 1038.36 L1191.04 1068.98 L1198.68 1068.98 L1198.68 1072.92 L1178.78 1072.92 L1178.78 1068.98 Z" fill="#000000" fill-rule="nonzero" fill-opacity="1" /><path clip-path="url(#clip370)" d="M1508.37 1068.98 L1524.69 1068.98 L1524.69 1072.92 L1502.74 1072.92 L1502.74 1068.98 Q1505.41 1066.23 1509.99 1061.6 Q1514.6 1056.95 1515.78 1055.61 Q1518.02 1053.08 1518.9 1051.35 Q1519.81 1049.59 1519.81 1047.9 Q1519.81 1045.14 1517.86 1043.41 Q1515.94 1041.67 1512.84 1041.67 Q1510.64 1041.67 1508.18 1042.43 Q1505.75 1043.2 1502.98 1044.75 L1502.98 1040.03 Q1505.8 1038.89 1508.25 1038.31 Q1510.71 1037.73 1512.74 1037.73 Q1518.12 1037.73 1521.31 1040.42 Q1524.5 1043.11 1524.5 1047.6 Q1524.5 1049.73 1523.69 1051.65 Q1522.91 1053.54 1520.8 1056.14 Q1520.22 1056.81 1517.12 1060.03 Q1514.02 1063.22 1508.37 1068.98 Z" fill="#000000" fill-rule="nonzero" fill-opacity="1" /><path clip-path="url(#clip370)" d="M865.068 1101.4 Q865.068 1103.21 863.941 1104.24 Q862.814 1105.24 861.525 1105.24 Q860.302 1105.24 859.657 1104.53 Q859.013 1103.82 859.013 1102.92 Q859.013 1101.69 859.915 1100.63 Q860.817 1099.57 862.17 1099.34 Q860.849 1098.51 858.885 1098.51 Q857.596 1098.51 856.469 1099.18 Q855.374 1099.86 854.698 1100.73 Q854.054 1101.6 853.474 1102.85 Q852.926 1104.08 852.701 1104.82 Q852.508 1105.53 852.347 1106.3 L850.092 1115.32 Q848.997 1119.6 848.997 1121.11 Q848.997 1122.98 849.899 1124.24 Q850.801 1125.46 852.604 1125.46 Q853.313 1125.46 854.118 1125.27 Q854.923 1125.04 855.954 1124.46 Q857.017 1123.85 857.951 1122.95 Q858.917 1122.02 859.851 1120.44 Q860.785 1118.86 861.397 1116.83 Q861.59 1116.12 862.234 1116.12 Q863.039 1116.12 863.039 1116.77 Q863.039 1117.31 862.588 1118.47 Q862.17 1119.6 861.236 1121.08 Q860.334 1122.53 859.142 1123.85 Q857.951 1125.14 856.179 1126.04 Q854.408 1126.94 852.476 1126.94 Q849.706 1126.94 847.87 1125.46 Q846.034 1123.98 845.358 1121.92 Q845.197 1122.21 844.972 1122.6 Q844.746 1122.98 844.07 1123.85 Q843.426 1124.69 842.685 1125.33 Q841.944 1125.94 840.785 1126.43 Q839.658 1126.94 838.434 1126.94 Q836.888 1126.94 835.503 1126.49 Q834.15 1126.04 833.184 1125.01 Q832.218 1123.98 832.218 1122.56 Q832.218 1120.99 833.281 1119.89 Q834.376 1118.76 835.857 1118.76 Q836.791 1118.76 837.532 1119.31 Q838.305 1119.86 838.305 1121.05 Q838.305 1122.37 837.403 1123.37 Q836.501 1124.37 835.213 1124.62 Q836.534 1125.46 838.498 1125.46 Q840.624 1125.46 842.298 1123.59 Q843.973 1121.73 844.778 1118.6 Q846.775 1111.1 847.548 1107.75 Q848.321 1104.37 848.321 1102.92 Q848.321 1101.56 847.967 1100.63 Q847.612 1099.7 847.001 1099.28 Q846.421 1098.83 845.873 1098.67 Q845.358 1098.51 844.778 1098.51 Q843.812 1098.51 842.717 1098.89 Q841.654 1099.28 840.366 1100.18 Q839.11 1101.05 837.918 1102.85 Q836.727 1104.66 835.922 1107.14 Q835.761 1107.88 835.052 1107.88 Q834.279 1107.85 834.279 1107.2 Q834.279 1106.65 834.698 1105.53 Q835.149 1104.37 836.051 1102.92 Q836.985 1101.47 838.176 1100.18 Q839.4 1098.86 841.171 1097.96 Q842.975 1097.06 844.907 1097.06 Q845.777 1097.06 846.614 1097.25 Q847.484 1097.41 848.514 1097.89 Q849.577 1098.38 850.511 1099.44 Q851.445 1100.5 852.025 1102.05 Q852.411 1101.31 852.926 1100.6 Q853.474 1099.89 854.311 1099.02 Q855.181 1098.12 856.372 1097.6 Q857.596 1097.06 858.949 1097.06 Q860.269 1097.06 861.558 1097.41 Q862.846 1097.73 863.941 1098.8 Q865.068 1099.83 865.068 1101.4 Z" fill="#000000" fill-rule="nonzero" fill-opacity="1" /><path clip-path="url(#clip370)" d="M871.789 1118.85 L871.789 1117.41 Q877.335 1117.41 880.198 1114.46 Q880.987 1114.46 881.123 1114.64 Q881.258 1114.82 881.258 1115.65 L881.258 1141.55 Q881.258 1142.93 881.934 1143.36 Q882.61 1143.79 885.564 1143.79 L887.029 1143.79 L887.029 1145.21 Q885.406 1145.07 879.544 1145.07 Q873.683 1145.07 872.082 1145.21 L872.082 1143.79 L873.548 1143.79 Q876.456 1143.79 877.155 1143.38 Q877.854 1142.95 877.854 1141.55 L877.854 1117.63 Q875.441 1118.85 871.789 1118.85 Z" fill="#000000" fill-rule="nonzero" fill-opacity="1" /><polyline clip-path="url(#clip372)" style="stroke:#000000; stroke-linecap:round; stroke-linejoin:round; stroke-width:2; stroke-opacity:0.1; fill:none" points="173.385,943.833 1552.76,943.833 "/>
<polyline clip-path="url(#clip372)" style="stroke:#000000; stroke-linecap:round; stroke-linejoin:round; stroke-width:2; stroke-opacity:0.1; fill:none" points="173.385,733.016 1552.76,733.016 "/>
<polyline clip-path="url(#clip372)" style="stroke:#000000; stroke-linecap:round; stroke-linejoin:round; stroke-width:2; stroke-opacity:0.1; fill:none" points="173.385,522.199 1552.76,522.199 "/>
<polyline clip-path="url(#clip372)" style="stroke:#000000; stroke-linecap:round; stroke-linejoin:round; stroke-width:2; stroke-opacity:0.1; fill:none" points="173.385,311.381 1552.76,311.381 "/>
<polyline clip-path="url(#clip372)" style="stroke:#000000; stroke-linecap:round; stroke-linejoin:round; stroke-width:2; stroke-opacity:0.1; fill:none" points="173.385,100.564 1552.76,100.564 "/>
<polyline clip-path="url(#clip370)" style="stroke:#000000; stroke-linecap:round; stroke-linejoin:round; stroke-width:4; stroke-opacity:1; fill:none" points="173.385,1016.92 173.385,47.2441 "/>
<polyline clip-path="url(#clip370)" style="stroke:#000000; stroke-linecap:round; stroke-linejoin:round; stroke-width:4; stroke-opacity:1; fill:none" points="173.385,943.833 192.283,943.833 "/>
<polyline clip-path="url(#clip370)" style="stroke:#000000; stroke-linecap:round; stroke-linejoin:round; stroke-width:4; stroke-opacity:1; fill:none" points="173.385,733.016 192.283,733.016 "/>
<polyline clip-path="url(#clip370)" style="stroke:#000000; stroke-linecap:round; stroke-linejoin:round; stroke-width:4; stroke-opacity:1; fill:none" points="173.385,522.199 192.283,522.199 "/>
<polyline clip-path="url(#clip370)" style="stroke:#000000; stroke-linecap:round; stroke-linejoin:round; stroke-width:4; stroke-opacity:1; fill:none" points="173.385,311.381 192.283,311.381 "/>
<polyline clip-path="url(#clip370)" style="stroke:#000000; stroke-linecap:round; stroke-linejoin:round; stroke-width:4; stroke-opacity:1; fill:none" points="173.385,100.564 192.283,100.564 "/>
<path clip-path="url(#clip370)" d="M137.441 929.631 Q133.83 929.631 132.001 933.196 Q130.195 936.738 130.195 943.867 Q130.195 950.974 132.001 954.539 Q133.83 958.08 137.441 958.08 Q141.075 958.08 142.881 954.539 Q144.709 950.974 144.709 943.867 Q144.709 936.738 142.881 933.196 Q141.075 929.631 137.441 929.631 M137.441 925.928 Q143.251 925.928 146.307 930.534 Q149.385 935.117 149.385 943.867 Q149.385 952.594 146.307 957.201 Q143.251 961.784 137.441 961.784 Q131.631 961.784 128.552 957.201 Q125.496 952.594 125.496 943.867 Q125.496 935.117 128.552 930.534 Q131.631 925.928 137.441 925.928 Z" fill="#000000" fill-rule="nonzero" fill-opacity="1" /><path clip-path="url(#clip370)" d="M129.478 746.36 L137.117 746.36 L137.117 719.995 L128.807 721.661 L128.807 717.402 L137.07 715.736 L141.746 715.736 L141.746 746.36 L149.385 746.36 L149.385 750.296 L129.478 750.296 L129.478 746.36 Z" fill="#000000" fill-rule="nonzero" fill-opacity="1" /><path clip-path="url(#clip370)" d="M133.066 535.543 L149.385 535.543 L149.385 539.479 L127.441 539.479 L127.441 535.543 Q130.103 532.789 134.686 528.159 Q139.293 523.506 140.473 522.164 Q142.719 519.641 143.598 517.905 Q144.501 516.145 144.501 514.456 Q144.501 511.701 142.557 509.965 Q140.635 508.229 137.533 508.229 Q135.334 508.229 132.881 508.993 Q130.45 509.756 127.672 511.307 L127.672 506.585 Q130.496 505.451 132.95 504.872 Q135.404 504.294 137.441 504.294 Q142.811 504.294 146.006 506.979 Q149.2 509.664 149.2 514.155 Q149.2 516.284 148.39 518.205 Q147.603 520.104 145.496 522.696 Q144.918 523.367 141.816 526.585 Q138.714 529.78 133.066 535.543 Z" fill="#000000" fill-rule="nonzero" fill-opacity="1" /><path clip-path="url(#clip370)" d="M142.256 310.027 Q145.612 310.745 147.487 313.013 Q149.385 315.282 149.385 318.615 Q149.385 323.731 145.867 326.532 Q142.348 329.333 135.867 329.333 Q133.691 329.333 131.376 328.893 Q129.084 328.476 126.631 327.62 L126.631 323.106 Q128.575 324.24 130.89 324.819 Q133.205 325.398 135.728 325.398 Q140.126 325.398 142.418 323.662 Q144.732 321.925 144.732 318.615 Q144.732 315.56 142.58 313.847 Q140.45 312.111 136.631 312.111 L132.603 312.111 L132.603 308.268 L136.816 308.268 Q140.265 308.268 142.094 306.902 Q143.922 305.513 143.922 302.921 Q143.922 300.259 142.024 298.847 Q140.149 297.412 136.631 297.412 Q134.709 297.412 132.51 297.828 Q130.311 298.245 127.672 299.125 L127.672 294.958 Q130.334 294.217 132.649 293.847 Q134.987 293.476 137.047 293.476 Q142.371 293.476 145.473 295.907 Q148.575 298.314 148.575 302.435 Q148.575 305.305 146.932 307.296 Q145.288 309.263 142.256 310.027 Z" fill="#000000" fill-rule="nonzero" fill-opacity="1" /><path clip-path="url(#clip370)" d="M139.802 87.3585 L127.996 105.807 L139.802 105.807 L139.802 87.3585 M138.575 83.2844 L144.455 83.2844 L144.455 105.807 L149.385 105.807 L149.385 109.696 L144.455 109.696 L144.455 117.844 L139.802 117.844 L139.802 109.696 L124.2 109.696 L124.2 105.182 L138.575 83.2844 Z" fill="#000000" fill-rule="nonzero" fill-opacity="1" /><path clip-path="url(#clip370)" d="M52.7883 517.643 Q53.2392 517.643 54.302 517.933 L79.4869 524.245 Q85.0908 525.63 89.0199 530.139 Q92.949 534.616 92.949 539.704 Q92.949 542.764 91.3065 544.728 Q89.6962 546.693 87.2164 546.693 Q85.0264 546.693 83.9636 545.534 Q82.933 544.374 82.933 542.989 Q82.933 542.538 83.0618 542.055 Q83.1906 541.572 83.7381 541.057 Q84.2856 540.542 85.2196 540.542 Q86.7333 540.542 87.9249 541.862 Q88.4724 542.506 88.6012 543.118 Q88.73 543.698 88.73 544.696 Q89.6318 544.31 90.2437 543.601 Q90.8556 542.893 91.0811 542.087 Q91.3387 541.282 91.4031 540.767 Q91.4997 540.22 91.4997 539.704 Q91.4997 535.582 87.3452 532.426 Q86.0891 531.492 84.8331 530.815 Q83.6093 530.107 82.0956 529.592 Q80.6141 529.076 79.809 528.851 Q79.0039 528.593 77.1681 528.142 Q80.1633 531.138 80.1633 534.809 Q80.1633 536.355 79.7446 537.74 Q79.3259 539.092 78.4564 540.284 Q77.5546 541.476 75.9765 542.184 Q74.3984 542.86 72.305 542.86 Q70.0828 542.86 67.0555 541.991 Q64.0281 541.121 58.4565 539.028 Q55.3325 537.901 53.8189 537.901 Q53.0781 537.901 52.6273 538.062 Q52.1442 538.223 51.9831 538.545 Q51.7899 538.867 51.7577 539.06 Q51.7255 539.221 51.7255 539.543 Q51.7255 541.443 53.6578 543.215 Q55.5902 544.986 59.9058 546.21 Q60.7109 546.467 60.9042 546.629 Q61.0974 546.79 61.0974 547.273 Q61.0652 548.078 60.4211 548.078 Q60.1634 548.078 59.165 547.788 Q58.1345 547.498 56.6208 546.822 Q55.0749 546.113 53.69 545.147 Q52.273 544.181 51.2746 542.667 Q50.2762 541.121 50.2762 539.35 Q50.2762 536.935 51.8543 535.453 Q53.4002 533.939 55.6868 533.939 Q56.6208 533.939 57.4581 534.197 Q58.2633 534.423 60.4211 535.26 Q69.1167 538.641 73.3678 538.641 Q74.3984 538.641 75.268 538.48 Q76.1053 538.287 76.9427 537.869 Q77.7478 537.45 78.2309 536.613 Q78.6818 535.743 78.6818 534.551 Q78.6818 533.038 77.9733 531.621 Q77.2325 530.171 76.2342 529.27 Q75.2358 528.336 74.3984 527.788 Q73.5289 527.208 73.078 527.08 L61.2262 524.117 L55.9445 522.796 Q53.0781 522.184 52.3696 521.894 Q51.6933 521.508 51.339 520.832 Q50.9848 520.155 50.9848 519.576 Q50.9848 518.77 51.4678 518.223 Q51.9509 517.643 52.7883 517.643 Z" fill="#000000" fill-rule="nonzero" fill-opacity="1" /><polyline clip-path="url(#clip372)" style="stroke:#009af9; stroke-linecap:round; stroke-linejoin:round; stroke-width:4; stroke-opacity:1; fill:none" points="212.424,102.109 277.489,255.8 342.553,409.491 407.618,563.181 472.683,716.872 537.747,782.191 602.812,828.146 667.877,874.1 732.941,920.055 798.006,966.01 863.071,987.764 928.135,989.476 993.2,968.561 1058.26,906.188 1123.33,802.361 1188.39,707.302 1253.46,604.288 1318.52,489.519 1383.59,362.996 1448.65,224.719 1513.72,74.6877 "/>
<polyline clip-path="url(#clip372)" style="stroke:#e26f46; stroke-linecap:round; stroke-linejoin:round; stroke-width:4; stroke-opacity:1; fill:none" points="212.424,100.564 277.489,260.785 342.553,404.141 407.618,530.631 472.683,640.256 537.747,733.016 602.812,808.91 667.877,867.938 732.941,910.102 798.006,935.4 863.071,943.833 928.135,935.4 993.2,910.102 1058.26,867.938 1123.33,808.91 1188.39,733.016 1253.46,640.256 1318.52,530.631 1383.59,404.141 1448.65,260.785 1513.72,100.564 "/>
<path clip-path="url(#clip370)" d="M1057.47 984.597 L1506.78 984.597 L1506.78 829.077 L1057.47 829.077  Z" fill="#ffffff" fill-rule="evenodd" fill-opacity="1"/>
<polyline clip-path="url(#clip370)" style="stroke:#000000; stroke-linecap:round; stroke-linejoin:round; stroke-width:4; stroke-opacity:1; fill:none" points="1057.47,984.597 1506.78,984.597 1506.78,829.077 1057.47,829.077 1057.47,984.597 "/>
<polyline clip-path="url(#clip370)" style="stroke:#009af9; stroke-linecap:round; stroke-linejoin:round; stroke-width:4; stroke-opacity:1; fill:none" points="1072.8,880.917 1164.76,880.917 "/>
<path clip-path="url(#clip370)" d="M1214.86 860.508 L1213.9 868.8 Q1213.83 869.549 1213.72 869.783 Q1213.6 869.994 1213.22 869.994 Q1212.94 869.994 1212.78 869.83 Q1212.64 869.643 1212.64 869.432 Q1212.64 869.315 1212.66 869.01 Q1212.69 868.706 1212.69 868.565 Q1212.9 867.113 1212.9 866.012 Q1212.9 863.974 1212.29 862.874 Q1211.68 861.749 1210.11 861.234 Q1208.54 860.695 1205.59 860.695 L1198.84 860.695 Q1197.3 860.695 1196.92 860.976 Q1196.57 861.257 1196.24 862.569 L1193.36 874.116 L1197.88 874.116 Q1199.57 874.116 1200.58 873.906 Q1201.61 873.695 1202.29 873.109 Q1202.99 872.5 1203.36 871.68 Q1203.76 870.861 1204.16 869.385 Q1204.28 868.893 1204.39 868.706 Q1204.53 868.518 1204.84 868.518 Q1205.07 868.518 1205.24 868.682 Q1205.4 868.823 1205.4 869.034 L1202.66 880.253 Q1202.52 880.815 1202.38 881.026 Q1202.24 881.213 1201.96 881.213 Q1201.65 881.213 1201.49 881.049 Q1201.33 880.885 1201.33 880.698 Q1201.33 880.511 1201.47 880.159 Q1201.82 878.637 1201.82 877.817 Q1201.82 877.349 1201.77 877.114 Q1201.75 876.88 1201.54 876.552 Q1201.35 876.201 1200.93 876.037 Q1200.51 875.873 1199.71 875.756 Q1198.91 875.615 1197.72 875.615 L1192.99 875.615 L1189.71 888.709 Q1189.47 889.575 1189.47 889.809 Q1189.47 890.067 1189.59 890.161 Q1189.73 890.231 1190.11 890.278 Q1190.53 890.348 1191.16 890.348 L1198.16 890.348 Q1199.71 890.348 1200.95 890.208 Q1202.19 890.067 1203.22 889.716 Q1204.28 889.364 1205.07 888.966 Q1205.87 888.568 1206.62 887.842 Q1207.37 887.092 1207.88 886.437 Q1208.42 885.757 1209.06 884.61 Q1209.69 883.462 1210.13 882.525 Q1210.58 881.565 1211.26 880.019 Q1211.44 879.457 1211.89 879.457 Q1212.15 879.457 1212.29 879.597 Q1212.43 879.714 1212.45 879.831 L1212.45 879.972 Q1212.31 880.417 1212.22 880.651 L1207.81 891.004 Q1207.56 891.59 1207.35 891.707 Q1207.13 891.824 1206.31 891.824 L1181.42 891.824 Q1180.85 891.824 1180.62 891.8 Q1180.41 891.777 1180.25 891.66 Q1180.08 891.519 1180.08 891.238 Q1180.08 890.793 1180.27 890.606 Q1180.46 890.395 1180.67 890.372 Q1180.88 890.348 1181.42 890.348 Q1182.59 890.348 1183.29 890.278 Q1183.99 890.208 1184.44 890.114 Q1184.91 889.997 1185.14 889.669 Q1185.4 889.341 1185.52 889.06 Q1185.63 888.755 1185.8 888.076 L1192.12 862.71 Q1192.36 861.843 1192.36 861.562 Q1192.36 861.257 1192.14 861.07 Q1191.96 860.883 1191.44 860.812 Q1190.93 860.719 1190.5 860.719 Q1190.11 860.695 1189.24 860.695 Q1188.68 860.695 1188.44 860.672 Q1188.23 860.649 1188.07 860.531 Q1187.9 860.414 1187.9 860.157 Q1187.9 859.501 1188.19 859.36 Q1188.49 859.196 1189.33 859.196 L1213.55 859.196 Q1214.51 859.196 1214.72 859.407 Q1214.96 859.594 1214.86 860.508 Z" fill="#000000" fill-rule="nonzero" fill-opacity="1" /><path clip-path="url(#clip370)" d="M1221.47 903.816 L1221.47 855.847 L1228.71 855.847 L1228.71 856.948 L1224.68 856.948 L1224.68 902.715 L1228.71 902.715 L1228.71 903.816 L1221.47 903.816 Z" fill="#000000" fill-rule="nonzero" fill-opacity="1" /><path clip-path="url(#clip370)" d="M1252 872.453 Q1252 872.781 1251.79 873.554 L1247.2 891.871 Q1246.2 895.946 1242.92 898.804 Q1239.66 901.661 1235.96 901.661 Q1233.74 901.661 1232.31 900.467 Q1230.88 899.296 1230.88 897.492 Q1230.88 895.899 1231.72 895.126 Q1232.56 894.377 1233.57 894.377 Q1233.9 894.377 1234.25 894.471 Q1234.6 894.564 1234.98 894.962 Q1235.35 895.361 1235.35 896.04 Q1235.35 897.141 1234.39 898.007 Q1233.92 898.405 1233.48 898.499 Q1233.06 898.593 1232.33 898.593 Q1232.61 899.249 1233.13 899.694 Q1233.64 900.139 1234.23 900.303 Q1234.81 900.49 1235.19 900.537 Q1235.59 900.607 1235.96 900.607 Q1238.96 900.607 1241.25 897.586 Q1241.93 896.672 1242.42 895.759 Q1242.94 894.869 1243.31 893.768 Q1243.69 892.69 1243.85 892.105 Q1244.04 891.519 1244.37 890.184 Q1242.19 892.362 1239.52 892.362 Q1238.4 892.362 1237.39 892.058 Q1236.41 891.754 1235.54 891.121 Q1234.67 890.465 1234.16 889.318 Q1233.66 888.17 1233.66 886.647 Q1233.66 885.031 1234.3 882.83 Q1234.93 880.628 1236.45 876.576 Q1237.27 874.304 1237.27 873.203 Q1237.27 872.664 1237.15 872.336 Q1237.04 871.985 1236.8 871.868 Q1236.57 871.727 1236.43 871.704 Q1236.31 871.68 1236.08 871.68 Q1234.7 871.68 1233.41 873.086 Q1232.12 874.491 1231.23 877.63 Q1231.04 878.215 1230.92 878.356 Q1230.81 878.496 1230.46 878.496 Q1229.87 878.473 1229.87 878.005 Q1229.87 877.817 1230.08 877.091 Q1230.29 876.342 1230.78 875.241 Q1231.3 874.116 1232 873.109 Q1232.7 872.079 1233.81 871.353 Q1234.93 870.626 1236.22 870.626 Q1237.97 870.626 1239.05 871.774 Q1240.15 872.898 1240.15 874.561 Q1240.15 875.241 1239.97 875.85 Q1239.8 876.435 1239.19 878.005 Q1236.73 884.329 1236.73 887.42 Q1236.73 888.17 1236.85 888.802 Q1236.99 889.411 1237.3 890.02 Q1237.6 890.606 1238.21 890.957 Q1238.84 891.285 1239.71 891.285 Q1240.81 891.285 1241.84 890.77 Q1242.89 890.231 1243.55 889.505 Q1244.23 888.779 1244.63 888.17 Q1245.05 887.537 1245.14 887.21 L1247.3 878.59 L1248.26 874.749 Q1248.7 872.664 1248.91 872.149 Q1249.19 871.657 1249.69 871.399 Q1250.18 871.142 1250.6 871.142 Q1251.18 871.142 1251.58 871.493 Q1252 871.844 1252 872.453 Z" fill="#000000" fill-rule="nonzero" fill-opacity="1" /><path clip-path="url(#clip370)" d="M1259.09 902.34 L1259.09 857.674 Q1259.09 855.894 1260.05 855.894 Q1261.01 855.894 1261.01 857.323 L1261.01 901.989 Q1261.01 903.769 1260.05 903.769 Q1259.09 903.769 1259.09 902.34 Z" fill="#000000" fill-rule="nonzero" fill-opacity="1" /><path clip-path="url(#clip370)" d="M1302.78 873.788 Q1302.78 875.1 1301.96 875.85 Q1301.14 876.576 1300.2 876.576 Q1299.31 876.576 1298.85 876.06 Q1298.38 875.545 1298.38 874.889 Q1298.38 873.999 1299.03 873.226 Q1299.69 872.453 1300.67 872.289 Q1299.71 871.68 1298.28 871.68 Q1297.35 871.68 1296.53 872.172 Q1295.73 872.664 1295.24 873.297 Q1294.77 873.929 1294.35 874.843 Q1293.95 875.733 1293.79 876.271 Q1293.65 876.787 1293.53 877.349 L1291.89 883.907 Q1291.09 887.022 1291.09 888.123 Q1291.09 889.482 1291.75 890.395 Q1292.41 891.285 1293.72 891.285 Q1294.23 891.285 1294.82 891.145 Q1295.4 890.981 1296.15 890.559 Q1296.93 890.114 1297.6 889.458 Q1298.31 888.779 1298.99 887.631 Q1299.67 886.483 1300.11 885.008 Q1300.25 884.493 1300.72 884.493 Q1301.31 884.493 1301.31 884.961 Q1301.31 885.359 1300.98 886.202 Q1300.67 887.022 1299.99 888.1 Q1299.34 889.154 1298.47 890.114 Q1297.6 891.051 1296.32 891.707 Q1295.03 892.362 1293.62 892.362 Q1291.61 892.362 1290.27 891.285 Q1288.94 890.208 1288.45 888.709 Q1288.33 888.919 1288.17 889.2 Q1288 889.482 1287.51 890.114 Q1287.04 890.723 1286.5 891.191 Q1285.96 891.636 1285.12 891.988 Q1284.3 892.362 1283.41 892.362 Q1282.29 892.362 1281.28 892.035 Q1280.3 891.707 1279.59 890.957 Q1278.89 890.208 1278.89 889.177 Q1278.89 888.029 1279.66 887.233 Q1280.46 886.413 1281.54 886.413 Q1282.22 886.413 1282.76 886.811 Q1283.32 887.21 1283.32 888.076 Q1283.32 889.037 1282.66 889.763 Q1282.01 890.489 1281.07 890.676 Q1282.03 891.285 1283.46 891.285 Q1285 891.285 1286.22 889.927 Q1287.44 888.568 1288.03 886.296 Q1289.48 880.839 1290.04 878.403 Q1290.6 875.943 1290.6 874.889 Q1290.6 873.906 1290.34 873.226 Q1290.09 872.547 1289.64 872.243 Q1289.22 871.915 1288.82 871.798 Q1288.45 871.68 1288.03 871.68 Q1287.32 871.68 1286.53 871.962 Q1285.75 872.243 1284.82 872.898 Q1283.9 873.531 1283.04 874.843 Q1282.17 876.154 1281.58 877.958 Q1281.47 878.496 1280.95 878.496 Q1280.39 878.473 1280.39 878.005 Q1280.39 877.606 1280.69 876.787 Q1281.02 875.943 1281.68 874.889 Q1282.36 873.835 1283.22 872.898 Q1284.11 871.938 1285.4 871.282 Q1286.71 870.626 1288.12 870.626 Q1288.75 870.626 1289.36 870.767 Q1289.99 870.884 1290.74 871.235 Q1291.52 871.587 1292.19 872.36 Q1292.87 873.133 1293.3 874.257 Q1293.58 873.718 1293.95 873.203 Q1294.35 872.688 1294.96 872.055 Q1295.59 871.399 1296.46 871.025 Q1297.35 870.626 1298.33 870.626 Q1299.29 870.626 1300.23 870.884 Q1301.17 871.118 1301.96 871.891 Q1302.78 872.641 1302.78 873.788 Z" fill="#000000" fill-rule="nonzero" fill-opacity="1" /><path clip-path="url(#clip370)" d="M1307.67 886.48 L1307.67 885.43 Q1311.7 885.43 1313.78 883.283 Q1314.36 883.283 1314.45 883.414 Q1314.55 883.545 1314.55 884.151 L1314.55 902.99 Q1314.55 903.99 1315.04 904.302 Q1315.54 904.613 1317.68 904.613 L1318.75 904.613 L1318.75 905.646 Q1317.57 905.548 1313.31 905.548 Q1309.04 905.548 1307.88 905.646 L1307.88 904.613 L1308.95 904.613 Q1311.06 904.613 1311.57 904.318 Q1312.08 904.007 1312.08 902.99 L1312.08 885.594 Q1310.32 886.48 1307.67 886.48 Z" fill="#000000" fill-rule="nonzero" fill-opacity="1" /><path clip-path="url(#clip370)" d="M1324.44 891.051 Q1323.76 890.278 1323.76 889.271 Q1323.76 888.264 1324.42 887.514 Q1325.1 886.741 1326.31 886.741 Q1327.74 886.741 1328.56 888.123 Q1329.38 889.482 1329.38 891.777 Q1329.38 894.26 1328.37 896.555 Q1327.37 898.874 1326.38 899.975 Q1325.4 901.076 1325 901.076 Q1324.53 901.076 1324.53 900.56 Q1324.53 900.373 1324.86 900.022 Q1328.3 896.321 1328.33 891.777 Q1328.33 891.051 1328.23 891.051 L1328.12 891.145 Q1327.3 891.824 1326.31 891.824 Q1325.12 891.824 1324.44 891.051 Z" fill="#000000" fill-rule="nonzero" fill-opacity="1" /><path clip-path="url(#clip370)" d="M1368.41 873.788 Q1368.41 875.1 1367.59 875.85 Q1366.77 876.576 1365.83 876.576 Q1364.94 876.576 1364.47 876.06 Q1364.01 875.545 1364.01 874.889 Q1364.01 873.999 1364.66 873.226 Q1365.32 872.453 1366.3 872.289 Q1365.34 871.68 1363.91 871.68 Q1362.98 871.68 1362.16 872.172 Q1361.36 872.664 1360.87 873.297 Q1360.4 873.929 1359.98 874.843 Q1359.58 875.733 1359.42 876.271 Q1359.27 876.787 1359.16 877.349 L1357.52 883.907 Q1356.72 887.022 1356.72 888.123 Q1356.72 889.482 1357.38 890.395 Q1358.03 891.285 1359.34 891.285 Q1359.86 891.285 1360.45 891.145 Q1361.03 890.981 1361.78 890.559 Q1362.55 890.114 1363.23 889.458 Q1363.94 888.779 1364.61 887.631 Q1365.29 886.483 1365.74 885.008 Q1365.88 884.493 1366.35 884.493 Q1366.93 884.493 1366.93 884.961 Q1366.93 885.359 1366.61 886.202 Q1366.3 887.022 1365.62 888.1 Q1364.97 889.154 1364.1 890.114 Q1363.23 891.051 1361.94 891.707 Q1360.66 892.362 1359.25 892.362 Q1357.24 892.362 1355.9 891.285 Q1354.57 890.208 1354.07 888.709 Q1353.96 888.919 1353.79 889.2 Q1353.63 889.482 1353.14 890.114 Q1352.67 890.723 1352.13 891.191 Q1351.59 891.636 1350.75 891.988 Q1349.93 892.362 1349.04 892.362 Q1347.91 892.362 1346.91 892.035 Q1345.92 891.707 1345.22 890.957 Q1344.52 890.208 1344.52 889.177 Q1344.52 888.029 1345.29 887.233 Q1346.09 886.413 1347.17 886.413 Q1347.84 886.413 1348.38 886.811 Q1348.95 887.21 1348.95 888.076 Q1348.95 889.037 1348.29 889.763 Q1347.63 890.489 1346.7 890.676 Q1347.66 891.285 1349.09 891.285 Q1350.63 891.285 1351.85 889.927 Q1353.07 888.568 1353.65 886.296 Q1355.11 880.839 1355.67 878.403 Q1356.23 875.943 1356.23 874.889 Q1356.23 873.906 1355.97 873.226 Q1355.71 872.547 1355.27 872.243 Q1354.85 871.915 1354.45 871.798 Q1354.07 871.68 1353.65 871.68 Q1352.95 871.68 1352.15 871.962 Q1351.38 872.243 1350.44 872.898 Q1349.53 873.531 1348.66 874.843 Q1347.8 876.154 1347.21 877.958 Q1347.09 878.496 1346.58 878.496 Q1346.02 878.473 1346.02 878.005 Q1346.02 877.606 1346.32 876.787 Q1346.65 875.943 1347.31 874.889 Q1347.98 873.835 1348.85 872.898 Q1349.74 871.938 1351.03 871.282 Q1352.34 870.626 1353.75 870.626 Q1354.38 870.626 1354.99 870.767 Q1355.62 870.884 1356.37 871.235 Q1357.14 871.587 1357.82 872.36 Q1358.5 873.133 1358.92 874.257 Q1359.2 873.718 1359.58 873.203 Q1359.98 872.688 1360.59 872.055 Q1361.22 871.399 1362.09 871.025 Q1362.98 870.626 1363.96 870.626 Q1364.92 870.626 1365.86 870.884 Q1366.79 871.118 1367.59 871.891 Q1368.41 872.641 1368.41 873.788 Z" fill="#000000" fill-rule="nonzero" fill-opacity="1" /><path clip-path="url(#clip370)" d="M1373.29 905.646 Q1373.29 905.04 1373.34 904.859 Q1373.41 904.679 1373.67 904.4 L1380.12 897.219 Q1383.64 893.251 1383.64 889.792 Q1383.64 887.545 1382.46 885.939 Q1381.3 884.332 1379.15 884.332 Q1377.67 884.332 1376.43 885.234 Q1375.18 886.135 1374.61 887.742 Q1374.7 887.709 1375.05 887.709 Q1375.89 887.709 1376.34 888.234 Q1376.82 888.759 1376.82 889.464 Q1376.82 890.365 1376.23 890.808 Q1375.66 891.234 1375.08 891.234 Q1374.85 891.234 1374.54 891.185 Q1374.25 891.136 1373.77 890.677 Q1373.29 890.202 1373.29 889.365 Q1373.29 887.021 1375.07 885.152 Q1376.85 883.283 1379.57 883.283 Q1382.66 883.283 1384.67 885.119 Q1386.71 886.939 1386.71 889.792 Q1386.71 890.792 1386.39 891.71 Q1386.1 892.612 1385.69 893.317 Q1385.3 894.022 1384.21 895.153 Q1383.13 896.284 1382.26 897.088 Q1381.39 897.891 1379.44 899.596 L1375.89 903.056 L1381.94 903.056 Q1384.89 903.056 1385.12 902.793 Q1385.44 902.318 1385.85 899.809 L1386.71 899.809 L1385.76 905.646 L1373.29 905.646 Z" fill="#000000" fill-rule="nonzero" fill-opacity="1" /><path clip-path="url(#clip370)" d="M1405 884.539 Q1405.05 883.954 1405.96 883.954 L1435.36 883.954 Q1436.74 883.954 1436.76 884.493 Q1436.76 885.078 1435.45 885.055 L1406.29 885.055 Q1405 885.078 1405 884.539 M1405 875.17 Q1405 874.585 1406.01 874.608 L1435.31 874.608 Q1436.74 874.608 1436.76 875.17 Q1436.76 875.709 1435.54 875.709 L1405.96 875.709 Q1405 875.709 1405 875.17 Z" fill="#000000" fill-rule="nonzero" fill-opacity="1" /><path clip-path="url(#clip370)" d="M1455.26 876.482 Q1455.26 869.432 1457.04 865.591 Q1459.53 859.876 1465.38 859.876 Q1466.62 859.876 1467.91 860.227 Q1469.22 860.555 1470.86 861.843 Q1472.53 863.131 1473.53 865.239 Q1475.45 869.315 1475.45 876.482 Q1475.45 883.485 1473.67 887.303 Q1471.07 892.878 1465.34 892.878 Q1463.18 892.878 1460.98 891.777 Q1458.8 890.676 1457.42 888.029 Q1455.26 884.071 1455.26 876.482 M1459.25 875.897 Q1459.25 883.134 1459.76 886.015 Q1460.35 889.13 1461.94 890.489 Q1463.55 891.824 1465.34 891.824 Q1467.26 891.824 1468.85 890.395 Q1470.46 888.943 1470.96 885.828 Q1471.5 882.759 1471.47 875.897 Q1471.47 869.221 1471 866.551 Q1470.37 863.436 1468.68 862.194 Q1467.02 860.93 1465.34 860.93 Q1464.7 860.93 1464.02 861.117 Q1463.37 861.304 1462.41 861.843 Q1461.45 862.382 1460.7 863.717 Q1459.97 865.052 1459.62 867.066 Q1459.25 869.666 1459.25 875.897 Z" fill="#000000" fill-rule="nonzero" fill-opacity="1" /><path clip-path="url(#clip370)" d="M1478.25 902.715 L1482.28 902.715 L1482.28 856.948 L1478.25 856.948 L1478.25 855.847 L1485.49 855.847 L1485.49 903.816 L1478.25 903.816 L1478.25 902.715 Z" fill="#000000" fill-rule="nonzero" fill-opacity="1" /><polyline clip-path="url(#clip370)" style="stroke:#e26f46; stroke-linecap:round; stroke-linejoin:round; stroke-width:4; stroke-opacity:1; fill:none" points="1072.8,932.757 1164.76,932.757 "/>
<path clip-path="url(#clip370)" d="M1202.22 924.724 Q1202.22 925.052 1202.01 925.825 L1197.41 944.141 Q1196.41 948.216 1193.13 951.074 Q1189.87 953.932 1186.17 953.932 Q1183.95 953.932 1182.52 952.737 Q1181.09 951.566 1181.09 949.762 Q1181.09 948.17 1181.93 947.397 Q1182.78 946.647 1183.78 946.647 Q1184.11 946.647 1184.46 946.741 Q1184.81 946.835 1185.19 947.233 Q1185.56 947.631 1185.56 948.31 Q1185.56 949.411 1184.6 950.278 Q1184.13 950.676 1183.69 950.769 Q1183.27 950.863 1182.54 950.863 Q1182.82 951.519 1183.34 951.964 Q1183.85 952.409 1184.44 952.573 Q1185.02 952.76 1185.4 952.807 Q1185.8 952.878 1186.17 952.878 Q1189.17 952.878 1191.46 949.856 Q1192.14 948.943 1192.64 948.029 Q1193.15 947.139 1193.53 946.038 Q1193.9 944.961 1194.06 944.375 Q1194.25 943.79 1194.58 942.455 Q1192.4 944.633 1189.73 944.633 Q1188.61 944.633 1187.6 944.328 Q1186.62 944.024 1185.75 943.391 Q1184.88 942.736 1184.37 941.588 Q1183.88 940.44 1183.88 938.918 Q1183.88 937.302 1184.51 935.1 Q1185.14 932.898 1186.66 928.846 Q1187.48 926.574 1187.48 925.473 Q1187.48 924.935 1187.37 924.607 Q1187.25 924.255 1187.01 924.138 Q1186.78 923.998 1186.64 923.974 Q1186.52 923.951 1186.29 923.951 Q1184.91 923.951 1183.62 925.356 Q1182.33 926.761 1181.44 929.9 Q1181.25 930.486 1181.14 930.626 Q1181.02 930.767 1180.67 930.767 Q1180.08 930.743 1180.08 930.275 Q1180.08 930.087 1180.29 929.361 Q1180.5 928.612 1181 927.511 Q1181.51 926.387 1182.21 925.38 Q1182.92 924.349 1184.02 923.623 Q1185.14 922.897 1186.43 922.897 Q1188.19 922.897 1189.26 924.044 Q1190.36 925.169 1190.36 926.832 Q1190.36 927.511 1190.18 928.12 Q1190.01 928.706 1189.4 930.275 Q1186.94 936.599 1186.94 939.691 Q1186.94 940.44 1187.06 941.073 Q1187.2 941.682 1187.51 942.291 Q1187.81 942.876 1188.42 943.227 Q1189.05 943.555 1189.92 943.555 Q1191.02 943.555 1192.05 943.04 Q1193.1 942.501 1193.76 941.775 Q1194.44 941.049 1194.84 940.44 Q1195.26 939.808 1195.35 939.48 L1197.51 930.86 L1198.47 927.019 Q1198.91 924.935 1199.12 924.419 Q1199.41 923.927 1199.9 923.67 Q1200.39 923.412 1200.81 923.412 Q1201.4 923.412 1201.79 923.763 Q1202.22 924.115 1202.22 924.724 Z" fill="#000000" fill-rule="nonzero" fill-opacity="1" /><path clip-path="url(#clip370)" d="M1216.66 936.81 Q1216.7 936.224 1217.62 936.224 L1247.01 936.224 Q1248.39 936.224 1248.42 936.763 Q1248.42 937.348 1247.11 937.325 L1217.95 937.325 Q1216.66 937.348 1216.66 936.81 M1216.66 927.441 Q1216.66 926.855 1217.66 926.879 L1246.97 926.879 Q1248.39 926.879 1248.42 927.441 Q1248.42 927.979 1247.2 927.979 L1217.62 927.979 Q1216.66 927.979 1216.66 927.441 Z" fill="#000000" fill-rule="nonzero" fill-opacity="1" /><path clip-path="url(#clip370)" d="M1290.81 926.059 Q1290.81 927.37 1289.99 928.12 Q1289.17 928.846 1288.23 928.846 Q1287.34 928.846 1286.88 928.331 Q1286.41 927.815 1286.41 927.16 Q1286.41 926.27 1287.06 925.497 Q1287.72 924.724 1288.7 924.56 Q1287.74 923.951 1286.31 923.951 Q1285.38 923.951 1284.56 924.443 Q1283.76 924.935 1283.27 925.567 Q1282.8 926.199 1282.38 927.113 Q1281.98 928.003 1281.82 928.542 Q1281.68 929.057 1281.56 929.619 L1279.92 936.177 Q1279.12 939.292 1279.12 940.393 Q1279.12 941.752 1279.78 942.665 Q1280.44 943.555 1281.75 943.555 Q1282.26 943.555 1282.85 943.415 Q1283.43 943.251 1284.18 942.829 Q1284.96 942.384 1285.63 941.728 Q1286.34 941.049 1287.02 939.901 Q1287.7 938.754 1288.14 937.278 Q1288.28 936.763 1288.75 936.763 Q1289.34 936.763 1289.34 937.231 Q1289.34 937.629 1289.01 938.473 Q1288.7 939.292 1288.02 940.37 Q1287.37 941.424 1286.5 942.384 Q1285.63 943.321 1284.35 943.977 Q1283.06 944.633 1281.65 944.633 Q1279.64 944.633 1278.3 943.555 Q1276.97 942.478 1276.48 940.979 Q1276.36 941.19 1276.2 941.471 Q1276.03 941.752 1275.54 942.384 Q1275.07 942.993 1274.53 943.462 Q1273.99 943.907 1273.15 944.258 Q1272.33 944.633 1271.44 944.633 Q1270.32 944.633 1269.31 944.305 Q1268.33 943.977 1267.62 943.227 Q1266.92 942.478 1266.92 941.447 Q1266.92 940.3 1267.69 939.503 Q1268.49 938.684 1269.57 938.684 Q1270.25 938.684 1270.78 939.082 Q1271.35 939.48 1271.35 940.346 Q1271.35 941.307 1270.69 942.033 Q1270.04 942.759 1269.1 942.946 Q1270.06 943.555 1271.49 943.555 Q1273.03 943.555 1274.25 942.197 Q1275.47 940.838 1276.06 938.566 Q1277.51 933.109 1278.07 930.673 Q1278.63 928.214 1278.63 927.16 Q1278.63 926.176 1278.37 925.497 Q1278.12 924.817 1277.67 924.513 Q1277.25 924.185 1276.85 924.068 Q1276.48 923.951 1276.06 923.951 Q1275.35 923.951 1274.56 924.232 Q1273.78 924.513 1272.85 925.169 Q1271.93 925.801 1271.07 927.113 Q1270.2 928.424 1269.61 930.228 Q1269.5 930.767 1268.98 930.767 Q1268.42 930.743 1268.42 930.275 Q1268.42 929.877 1268.72 929.057 Q1269.05 928.214 1269.71 927.16 Q1270.39 926.106 1271.25 925.169 Q1272.14 924.208 1273.43 923.553 Q1274.74 922.897 1276.15 922.897 Q1276.78 922.897 1277.39 923.037 Q1278.02 923.154 1278.77 923.506 Q1279.54 923.857 1280.22 924.63 Q1280.9 925.403 1281.33 926.527 Q1281.61 925.989 1281.98 925.473 Q1282.38 924.958 1282.99 924.326 Q1283.62 923.67 1284.49 923.295 Q1285.38 922.897 1286.36 922.897 Q1287.32 922.897 1288.26 923.154 Q1289.2 923.389 1289.99 924.162 Q1290.81 924.911 1290.81 926.059 Z" fill="#000000" fill-rule="nonzero" fill-opacity="1" /><path clip-path="url(#clip370)" d="M1295.7 938.75 L1295.7 937.701 Q1299.73 937.701 1301.81 935.553 Q1302.39 935.553 1302.48 935.684 Q1302.58 935.815 1302.58 936.422 L1302.58 955.26 Q1302.58 956.261 1303.07 956.572 Q1303.57 956.884 1305.71 956.884 L1306.78 956.884 L1306.78 957.917 Q1305.6 957.818 1301.34 957.818 Q1297.07 957.818 1295.91 957.917 L1295.91 956.884 L1296.98 956.884 Q1299.09 956.884 1299.6 956.589 Q1300.11 956.277 1300.11 955.26 L1300.11 937.865 Q1298.35 938.75 1295.7 938.75 Z" fill="#000000" fill-rule="nonzero" fill-opacity="1" /><path clip-path="url(#clip370)" d="M1295.7 929.75 Q1295.7 929.143 1295.75 928.963 Q1295.81 928.783 1296.07 928.504 L1302.52 921.323 Q1306.04 917.355 1306.04 913.895 Q1306.04 911.649 1304.86 910.042 Q1303.7 908.436 1301.55 908.436 Q1300.07 908.436 1298.83 909.337 Q1297.58 910.239 1297.01 911.846 Q1297.11 911.813 1297.45 911.813 Q1298.29 911.813 1298.75 912.338 Q1299.22 912.863 1299.22 913.568 Q1299.22 914.469 1298.63 914.912 Q1298.06 915.338 1297.48 915.338 Q1297.25 915.338 1296.94 915.289 Q1296.65 915.24 1296.17 914.781 Q1295.7 914.305 1295.7 913.469 Q1295.7 911.125 1297.47 909.255 Q1299.25 907.386 1301.98 907.386 Q1305.06 907.386 1307.08 909.223 Q1309.11 911.043 1309.11 913.895 Q1309.11 914.896 1308.8 915.814 Q1308.5 916.716 1308.09 917.421 Q1307.7 918.126 1306.62 919.257 Q1305.53 920.388 1304.66 921.192 Q1303.8 921.995 1301.84 923.7 L1298.29 927.16 L1304.34 927.16 Q1307.29 927.16 1307.52 926.897 Q1307.85 926.422 1308.26 923.913 L1309.11 923.913 L1308.16 929.75 L1295.7 929.75 Z" fill="#000000" fill-rule="nonzero" fill-opacity="1" /></svg>
