<?xml version="1.0" encoding="utf-8"?>
<svg xmlns="http://www.w3.org/2000/svg" xmlns:xlink="http://www.w3.org/1999/xlink" width="400" height="300" viewBox="0 0 1600 1200">
<defs>
  <clipPath id="clip490">
    <rect x="0" y="0" width="1600" height="1200"/>
  </clipPath>
</defs>
<path clip-path="url(#clip490)" d="M0 1200 L1600 1200 L1600 0 L0 0  Z" fill="#ffffff" fill-rule="evenodd" fill-opacity="1"/>
<defs>
  <clipPath id="clip491">
    <rect x="320" y="0" width="1121" height="1121"/>
  </clipPath>
</defs>
<path clip-path="url(#clip490)" d="M173.385 1016.92 L1552.76 1016.92 L1552.76 47.2441 L173.385 47.2441  Z" fill="#ffffff" fill-rule="evenodd" fill-opacity="1"/>
<defs>
  <clipPath id="clip492">
    <rect x="173" y="47" width="1380" height="971"/>
  </clipPath>
</defs>
<polyline clip-path="url(#clip492)" style="stroke:#000000; stroke-linecap:round; stroke-linejoin:round; stroke-width:2; stroke-opacity:0.1; fill:none" points="212.424,1016.92 212.424,47.2441 "/>
<polyline clip-path="url(#clip492)" style="stroke:#000000; stroke-linecap:round; stroke-linejoin:round; stroke-width:2; stroke-opacity:0.1; fill:none" points="537.747,1016.92 537.747,47.2441 "/>
<polyline clip-path="url(#clip492)" style="stroke:#000000; stroke-linecap:round; stroke-linejoin:round; stroke-width:2; stroke-opacity:0.1; fill:none" points="863.071,1016.92 863.071,47.2441 "/>
<polyline clip-path="url(#clip492)" style="stroke:#000000; stroke-linecap:round; stroke-linejoin:round; stroke-width:2; stroke-opacity:0.1; fill:none" points="1188.39,1016.92 1188.39,47.2441 "/>
<polyline clip-path="url(#clip492)" style="stroke:#000000; stroke-linecap:round; stroke-linejoin:round; stroke-width:2; stroke-opacity:0.1; fill:none" points="1513.72,1016.92 1513.72,47.2441 "/>
<polyline clip-path="url(#clip490)" style="stroke:#000000; stroke-linecap:round; stroke-linejoin:round; stroke-width:4; stroke-opacity:1; fill:none" points="173.385,1016.92 1552.76,1016.92 "/>
<polyline clip-path="url(#clip490)" style="stroke:#000000; stroke-linecap:round; stroke-linejoin:round; stroke-width:4; stroke-opacity:1; fill:none" points="212.424,1016.92 212.424,998.022 "/>
<polyline clip-path="url(#clip490)" style="stroke:#000000; stroke-linecap:round; stroke-linejoin:round; stroke-width:4; stroke-opacity:1; fill:none" points="537.747,1016.92 537.747,998.022 "/>
<polyline clip-path="url(#clip490)" style="stroke:#000000; stroke-linecap:round; stroke-linejoin:round; stroke-width:4; stroke-opacity:1; fill:none" points="863.071,1016.92 863.071,998.022 "/>
<polyline clip-path="url(#clip490)" style="stroke:#000000; stroke-linecap:round; stroke-linejoin:round; stroke-width:4; stroke-opacity:1; fill:none" points="1188.39,1016.92 1188.39,998.022 "/>
<polyline clip-path="url(#clip490)" style="stroke:#000000; stroke-linecap:round; stroke-linejoin:round; stroke-width:4; stroke-opacity:1; fill:none" points="1513.72,1016.92 1513.72,998.022 "/>
<path clip-path="url(#clip490)" d="M182.366 1056.09 L212.042 1056.09 L212.042 1060.03 L182.366 1060.03 L182.366 1056.09 Z" fill="#000000" fill-rule="nonzero" fill-opacity="1" /><path clip-path="url(#clip490)" d="M226.162 1068.98 L242.482 1068.98 L242.482 1072.92 L220.537 1072.92 L220.537 1068.98 Q223.199 1066.23 227.783 1061.6 Q232.389 1056.95 233.57 1055.61 Q235.815 1053.08 236.695 1051.35 Q237.597 1049.59 237.597 1047.9 Q237.597 1045.14 235.653 1043.41 Q233.732 1041.67 230.63 1041.67 Q228.431 1041.67 225.977 1042.43 Q223.547 1043.2 220.769 1044.75 L220.769 1040.03 Q223.593 1038.89 226.047 1038.31 Q228.5 1037.73 230.537 1037.73 Q235.908 1037.73 239.102 1040.42 Q242.297 1043.11 242.297 1047.6 Q242.297 1049.73 241.486 1051.65 Q240.699 1053.54 238.593 1056.14 Q238.014 1056.81 234.912 1060.03 Q231.81 1063.22 226.162 1068.98 Z" fill="#000000" fill-rule="nonzero" fill-opacity="1" /><path clip-path="url(#clip490)" d="M507.504 1056.09 L537.18 1056.09 L537.18 1060.03 L507.504 1060.03 L507.504 1056.09 Z" fill="#000000" fill-rule="nonzero" fill-opacity="1" /><path clip-path="url(#clip490)" d="M548.083 1068.98 L555.722 1068.98 L555.722 1042.62 L547.412 1044.29 L547.412 1040.03 L555.675 1038.36 L560.351 1038.36 L560.351 1068.98 L567.99 1068.98 L567.99 1072.92 L548.083 1072.92 L548.083 1068.98 Z" fill="#000000" fill-rule="nonzero" fill-opacity="1" /><path clip-path="url(#clip490)" d="M863.071 1041.44 Q859.459 1041.44 857.631 1045 Q855.825 1048.54 855.825 1055.67 Q855.825 1062.78 857.631 1066.35 Q859.459 1069.89 863.071 1069.89 Q866.705 1069.89 868.51 1066.35 Q870.339 1062.78 870.339 1055.67 Q870.339 1048.54 868.51 1045 Q866.705 1041.44 863.071 1041.44 M863.071 1037.73 Q868.881 1037.73 871.936 1042.34 Q875.015 1046.92 875.015 1055.67 Q875.015 1064.4 871.936 1069.01 Q868.881 1073.59 863.071 1073.59 Q857.26 1073.59 854.182 1069.01 Q851.126 1064.4 851.126 1055.67 Q851.126 1046.92 854.182 1042.34 Q857.26 1037.73 863.071 1037.73 Z" fill="#000000" fill-rule="nonzero" fill-opacity="1" /><path clip-path="url(#clip490)" d="M1178.78 1068.98 L1186.41 1068.98 L1186.41 1042.62 L1178.1 1044.29 L1178.1 1040.03 L1186.37 1038.36 L1191.04 1038.36 L1191.04 1068.98 L1198.68 1068.98 L1198.68 1072.92 L1178.78 1072.92 L1178.78 1068.98 Z" fill="#000000" fill-rule="nonzero" fill-opacity="1" /><path clip-path="url(#clip490)" d="M1508.37 1068.98 L1524.69 1068.98 L1524.69 1072.92 L1502.74 1072.92 L1502.74 1068.98 Q1505.41 1066.23 1509.99 1061.6 Q1514.6 1056.95 1515.78 1055.61 Q1518.02 1053.08 1518.9 1051.35 Q1519.81 1049.59 1519.81 1047.9 Q1519.81 1045.14 1517.86 1043.41 Q1515.94 1041.67 1512.84 1041.67 Q1510.64 1041.67 1508.18 1042.43 Q1505.75 1043.2 1502.98 1044.75 L1502.98 1040.03 Q1505.8 1038.89 1508.25 1038.31 Q1510.71 1037.73 1512.74 1037.73 Q1518.12 1037.73 1521.31 1040.42 Q1524.5 1043.11 1524.5 1047.6 Q1524.5 1049.73 1523.69 1051.65 Q1522.91 1053.54 1520.8 1056.14 Q1520.22 1056.81 1517.12 1060.03 Q1514.02 1063.22 1508.37 1068.98 Z" fill="#000000" fill-rule="nonzero" fill-opacity="1" /><path clip-path="url(#clip490)" d="M865.068 1101.4 Q865.068 1103.21 863.941 1104.24 Q862.814 1105.24 861.525 1105.24 Q860.302 1105.24 859.657 1104.53 Q859.013 1103.82 859.013 1102.92 Q859.013 1101.69 859.915 1100.63 Q860.817 1099.57 862.17 1099.34 Q860.849 1098.51 858.885 1098.51 Q857.596 1098.51 856.469 1099.18 Q855.374 1099.86 854.698 1100.73 Q854.054 1101.6 853.474 1102.85 Q852.926 1104.08 852.701 1104.82 Q852.508 1105.53 852.347 1106.3 L850.092 1115.32 Q848.997 1119.6 848.997 1121.11 Q848.997 1122.98 849.899 1124.24 Q850.801 1125.46 852.604 1125.46 Q853.313 1125.46 854.118 1125.27 Q854.923 1125.04 855.954 1124.46 Q857.017 1123.85 857.951 1122.95 Q858.917 1122.02 859.851 1120.44 Q860.785 1118.86 861.397 1116.83 Q861.59 1116.12 862.234 1116.12 Q863.039 1116.12 863.039 1116.77 Q863.039 1117.31 862.588 1118.47 Q862.17 1119.6 861.236 1121.08 Q860.334 1122.53 859.142 1123.85 Q857.951 1125.14 856.179 1126.04 Q854.408 1126.94 852.476 1126.94 Q849.706 1126.94 847.87 1125.46 Q846.034 1123.98 845.358 1121.92 Q845.197 1122.21 844.972 1122.6 Q844.746 1122.98 844.07 1123.85 Q843.426 1124.69 842.685 1125.33 Q841.944 1125.94 840.785 1126.43 Q839.658 1126.94 838.434 1126.94 Q836.888 1126.94 835.503 1126.49 Q834.15 1126.04 833.184 1125.01 Q832.218 1123.98 832.218 1122.56 Q832.218 1120.99 833.281 1119.89 Q834.376 1118.76 835.857 1118.76 Q836.791 1118.76 837.532 1119.31 Q838.305 1119.86 838.305 1121.05 Q838.305 1122.37 837.403 1123.37 Q836.501 1124.37 835.213 1124.62 Q836.534 1125.46 838.498 1125.46 Q840.624 1125.46 842.298 1123.59 Q843.973 1121.73 844.778 1118.6 Q846.775 1111.1 847.548 1107.75 Q848.321 1104.37 848.321 1102.92 Q848.321 1101.56 847.967 1100.63 Q847.612 1099.7 847.001 1099.28 Q846.421 1098.83 845.873 1098.67 Q845.358 1098.51 844.778 1098.51 Q843.812 1098.51 842.717 1098.89 Q841.654 1099.28 840.366 1100.18 Q839.11 1101.05 837.918 1102.85 Q836.727 1104.66 835.922 1107.14 Q835.761 1107.88 835.052 1107.88 Q834.279 1107.85 834.279 1107.2 Q834.279 1106.65 834.698 1105.53 Q835.149 1104.37 836.051 1102.92 Q836.985 1101.47 838.176 1100.18 Q839.4 1098.86 841.171 1097.96 Q842.975 1097.06 844.907 1097.06 Q845.777 1097.06 846.614 1097.25 Q847.484 1097.41 848.514 1097.89 Q849.577 1098.38 850.511 1099.44 Q851.445 1100.5 852.025 1102.05 Q852.411 1101.31 852.926 1100.6 Q853.474 1099.89 854.311 1099.02 Q855.181 1098.12 856.372 1097.6 Q857.596 1097.06 858.949 1097.06 Q860.269 1097.06 861.558 1097.41 Q862.846 1097.73 863.941 1098.8 Q865.068 1099.83 865.068 1101.4 Z" fill="#000000" fill-rule="nonzero" fill-opacity="1" /><path clip-path="url(#clip490)" d="M871.789 1118.85 L871.789 1117.41 Q877.335 1117.41 880.198 1114.46 Q880.987 1114.46 881.123 1114.64 Q881.258 1114.82 881.258 1115.65 L881.258 1141.55 Q881.258 1142.93 881.934 1143.36 Q882.61 1143.79 885.564 1143.79 L887.029 1143.79 L887.029 1145.21 Q885.406 1145.07 879.544 1145.07 Q873.683 1145.07 872.082 1145.21 L872.082 1143.79 L873.548 1143.79 Q876.456 1143.79 877.155 1143.38 Q877.854 1142.95 877.854 1141.55 L877.854 1117.63 Q875.441 1118.85 871.789 1118.85 Z" fill="#000000" fill-rule="nonzero" fill-opacity="1" /><polyline clip-path="url(#clip492)" style="stroke:#000000; stroke-linecap:round; stroke-linejoin:round; stroke-width:2; stroke-opacity:0.1; fill:none" points="173.385,957.166 1552.76,957.166 "/>
<polyline clip-path="url(#clip492)" style="stroke:#000000; stroke-linecap:round; stroke-linejoin:round; stroke-width:2; stroke-opacity:0.1; fill:none" points="173.385,746.796 1552.76,746.796 "/>
<polyline clip-path="url(#clip492)" style="stroke:#000000; stroke-linecap:round; stroke-linejoin:round; stroke-width:2; stroke-opacity:0.1; fill:none" points="173.385,536.425 1552.76,536.425 "/>
<polyline clip-path="url(#clip492)" style="stroke:#000000; stroke-linecap:round; stroke-linejoin:round; stroke-width:2; stroke-opacity:0.1; fill:none" points="173.385,326.055 1552.76,326.055 "/>
<polyline clip-path="url(#clip492)" style="stroke:#000000; stroke-linecap:round; stroke-linejoin:round; stroke-width:2; stroke-opacity:0.1; fill:none" points="173.385,115.684 1552.76,115.684 "/>
<polyline clip-path="url(#clip490)" style="stroke:#000000; stroke-linecap:round; stroke-linejoin:round; stroke-width:4; stroke-opacity:1; fill:none" points="173.385,1016.92 173.385,47.2441 "/>
<polyline clip-path="url(#clip490)" style="stroke:#000000; stroke-linecap:round; stroke-linejoin:round; stroke-width:4; stroke-opacity:1; fill:none" points="173.385,957.166 192.283,957.166 "/>
<polyline clip-path="url(#clip490)" style="stroke:#000000; stroke-linecap:round; stroke-linejoin:round; stroke-width:4; stroke-opacity:1; fill:none" points="173.385,746.796 192.283,746.796 "/>
<polyline clip-path="url(#clip490)" style="stroke:#000000; stroke-linecap:round; stroke-linejoin:round; stroke-width:4; stroke-opacity:1; fill:none" points="173.385,536.425 192.283,536.425 "/>
<polyline clip-path="url(#clip490)" style="stroke:#000000; stroke-linecap:round; stroke-linejoin:round; stroke-width:4; stroke-opacity:1; fill:none" points="173.385,326.055 192.283,326.055 "/>
<polyline clip-path="url(#clip490)" style="stroke:#000000; stroke-linecap:round; stroke-linejoin:round; stroke-width:4; stroke-opacity:1; fill:none" points="173.385,115.684 192.283,115.684 "/>
<path clip-path="url(#clip490)" d="M137.441 942.965 Q133.83 942.965 132.001 946.53 Q130.195 950.071 130.195 957.201 Q130.195 964.307 132.001 967.872 Q133.83 971.414 137.441 971.414 Q141.075 971.414 142.881 967.872 Q144.709 964.307 144.709 957.201 Q144.709 950.071 142.881 946.53 Q141.075 942.965 137.441 942.965 M137.441 939.261 Q143.251 939.261 146.307 943.868 Q149.385 948.451 149.385 957.201 Q149.385 965.928 146.307 970.534 Q143.251 975.117 137.441 975.117 Q131.631 975.117 128.552 970.534 Q125.496 965.928 125.496 957.201 Q125.496 948.451 128.552 943.868 Q131.631 939.261 137.441 939.261 Z" fill="#000000" fill-rule="nonzero" fill-opacity="1" /><path clip-path="url(#clip490)" d="M129.478 760.14 L137.117 760.14 L137.117 733.775 L128.807 735.442 L128.807 731.182 L137.07 729.516 L141.746 729.516 L141.746 760.14 L149.385 760.14 L149.385 764.076 L129.478 764.076 L129.478 760.14 Z" fill="#000000" fill-rule="nonzero" fill-opacity="1" /><path clip-path="url(#clip490)" d="M133.066 549.77 L149.385 549.77 L149.385 553.705 L127.441 553.705 L127.441 549.77 Q130.103 547.015 134.686 542.386 Q139.293 537.733 140.473 536.39 Q142.719 533.867 143.598 532.131 Q144.501 530.372 144.501 528.682 Q144.501 525.927 142.557 524.191 Q140.635 522.455 137.533 522.455 Q135.334 522.455 132.881 523.219 Q130.45 523.983 127.672 525.534 L127.672 520.812 Q130.496 519.678 132.95 519.099 Q135.404 518.52 137.441 518.52 Q142.811 518.52 146.006 521.205 Q149.2 523.89 149.2 528.381 Q149.2 530.511 148.39 532.432 Q147.603 534.33 145.496 536.923 Q144.918 537.594 141.816 540.812 Q138.714 544.006 133.066 549.77 Z" fill="#000000" fill-rule="nonzero" fill-opacity="1" /><path clip-path="url(#clip490)" d="M142.256 324.7 Q145.612 325.418 147.487 327.687 Q149.385 329.955 149.385 333.288 Q149.385 338.404 145.867 341.205 Q142.348 344.006 135.867 344.006 Q133.691 344.006 131.376 343.566 Q129.084 343.149 126.631 342.293 L126.631 337.779 Q128.575 338.913 130.89 339.492 Q133.205 340.071 135.728 340.071 Q140.126 340.071 142.418 338.335 Q144.732 336.599 144.732 333.288 Q144.732 330.233 142.58 328.52 Q140.45 326.784 136.631 326.784 L132.603 326.784 L132.603 322.941 L136.816 322.941 Q140.265 322.941 142.094 321.575 Q143.922 320.187 143.922 317.594 Q143.922 314.932 142.024 313.52 Q140.149 312.085 136.631 312.085 Q134.709 312.085 132.51 312.501 Q130.311 312.918 127.672 313.798 L127.672 309.631 Q130.334 308.89 132.649 308.52 Q134.987 308.15 137.047 308.15 Q142.371 308.15 145.473 310.58 Q148.575 312.988 148.575 317.108 Q148.575 319.978 146.932 321.969 Q145.288 323.937 142.256 324.7 Z" fill="#000000" fill-rule="nonzero" fill-opacity="1" /><path clip-path="url(#clip490)" d="M139.802 102.478 L127.996 120.927 L139.802 120.927 L139.802 102.478 M138.575 98.4041 L144.455 98.4041 L144.455 120.927 L149.385 120.927 L149.385 124.816 L144.455 124.816 L144.455 132.964 L139.802 132.964 L139.802 124.816 L124.2 124.816 L124.2 120.302 L138.575 98.4041 Z" fill="#000000" fill-rule="nonzero" fill-opacity="1" /><path clip-path="url(#clip490)" d="M52.7883 517.643 Q53.2392 517.643 54.302 517.933 L79.4869 524.245 Q85.0908 525.63 89.0199 530.139 Q92.949 534.616 92.949 539.704 Q92.949 542.764 91.3065 544.728 Q89.6962 546.693 87.2164 546.693 Q85.0264 546.693 83.9636 545.534 Q82.933 544.374 82.933 542.989 Q82.933 542.538 83.0618 542.055 Q83.1906 541.572 83.7381 541.057 Q84.2856 540.542 85.2196 540.542 Q86.7333 540.542 87.9249 541.862 Q88.4724 542.506 88.6012 543.118 Q88.73 543.698 88.73 544.696 Q89.6318 544.31 90.2437 543.601 Q90.8556 542.893 91.0811 542.087 Q91.3387 541.282 91.4031 540.767 Q91.4997 540.22 91.4997 539.704 Q91.4997 535.582 87.3452 532.426 Q86.0891 531.492 84.8331 530.815 Q83.6093 530.107 82.0956 529.592 Q80.6141 529.076 79.809 528.851 Q79.0039 528.593 77.1681 528.142 Q80.1633 531.138 80.1633 534.809 Q80.1633 536.355 79.7446 537.74 Q79.3259 539.092 78.4564 540.284 Q77.5546 541.476 75.9765 542.184 Q74.3984 542.86 72.305 542.86 Q70.0828 542.86 67.0555 541.991 Q64.0281 541.121 58.4565 539.028 Q55.3325 537.901 53.8189 537.901 Q53.0781 537.901 52.6273 538.062 Q52.1442 538.223 51.9831 538.545 Q51.7899 538.867 51.7577 539.06 Q51.7255 539.221 51.7255 539.543 Q51.7255 541.443 53.6578 543.215 Q55.5902 544.986 59.9058 546.21 Q60.7109 546.467 60.9042 546.629 Q61.0974 546.79 61.0974 547.273 Q61.0652 548.078 60.4211 548.078 Q60.1634 548.078 59.165 547.788 Q58.1345 547.498 56.6208 546.822 Q55.0749 546.113 53.69 545.147 Q52.273 544.181 51.2746 542.667 Q50.2762 541.121 50.2762 539.35 Q50.2762 536.935 51.8543 535.453 Q53.4002 533.939 55.6868 533.939 Q56.6208 533.939 57.4581 534.197 Q58.2633 534.423 60.4211 535.26 Q69.1167 538.641 73.3678 538.641 Q74.3984 538.641 75.268 538.48 Q76.1053 538.287 76.9427 537.869 Q77.7478 537.45 78.2309 536.613 Q78.6818 535.743 78.6818 534.551 Q78.6818 533.038 77.9733 531.621 Q77.2325 530.171 76.2342 529.27 Q75.2358 528.336 74.3984 527.788 Q73.5289 527.208 73.078 527.08 L61.2262 524.117 L55.9445 522.796 Q53.0781 522.184 52.3696 521.894 Q51.6933 521.508 51.339 520.832 Q50.9848 520.155 50.9848 519.576 Q50.9848 518.77 51.4678 518.223 Q51.9509 517.643 52.7883 517.643 Z" fill="#000000" fill-rule="nonzero" fill-opacity="1" /><polyline clip-path="url(#clip492)" style="stroke:#009af9; stroke-linecap:round; stroke-linejoin:round; stroke-width:4; stroke-opacity:1; fill:none" points="212.424,112.11 277.489,266.516 342.553,420.922 407.618,575.327 472.683,729.733 537.747,805.6 602.812,858.632 667.877,905.484 732.941,946.157 798.006,980.649 863.071,989.476 928.135,975.988 993.2,960.453 1058.26,908.719 1123.33,811.835 1188.39,721.759 1253.46,621.191 1318.52,506.2 1383.59,376.786 1448.65,232.948 1513.72,74.6877 "/>
<polyline clip-path="url(#clip492)" style="stroke:#e26f46; stroke-linecap:round; stroke-linejoin:round; stroke-width:4; stroke-opacity:1; fill:none" points="212.424,115.684 277.489,275.566 342.553,418.618 407.618,544.84 472.683,654.233 537.747,746.796 602.812,822.529 667.877,881.433 732.941,923.507 798.006,948.751 863.071,957.166 928.135,948.751 993.2,923.507 1058.26,881.433 1123.33,822.529 1188.39,746.796 1253.46,654.233 1318.52,544.84 1383.59,418.618 1448.65,275.566 1513.72,115.684 "/>
<path clip-path="url(#clip490)" d="M901.688 984.597 L1506.78 984.597 L1506.78 829.077 L901.688 829.077  Z" fill="#ffffff" fill-rule="evenodd" fill-opacity="1"/>
<polyline clip-path="url(#clip490)" style="stroke:#000000; stroke-linecap:round; stroke-linejoin:round; stroke-width:4; stroke-opacity:1; fill:none" points="901.688,984.597 1506.78,984.597 1506.78,829.077 901.688,829.077 901.688,984.597 "/>
<polyline clip-path="url(#clip490)" style="stroke:#009af9; stroke-linecap:round; stroke-linejoin:round; stroke-width:4; stroke-opacity:1; fill:none" points="917.014,880.917 1008.97,880.917 "/>
<path clip-path="url(#clip490)" d="M1059.08 860.143 L1058.12 868.435 Q1058.05 869.184 1057.93 869.419 Q1057.82 869.629 1057.44 869.629 Q1057.16 869.629 1057 869.466 Q1056.86 869.278 1056.86 869.067 Q1056.86 868.95 1056.88 868.646 Q1056.9 868.341 1056.9 868.201 Q1057.11 866.749 1057.11 865.648 Q1057.11 863.61 1056.5 862.509 Q1055.9 861.385 1054.33 860.869 Q1052.76 860.331 1049.81 860.331 L1043.06 860.331 Q1041.51 860.331 1041.14 860.612 Q1040.79 860.893 1040.46 862.205 L1037.58 873.752 L1042.1 873.752 Q1043.79 873.752 1044.79 873.541 Q1045.82 873.33 1046.5 872.745 Q1047.21 872.136 1047.58 871.316 Q1047.98 870.496 1048.38 869.02 Q1048.49 868.529 1048.61 868.341 Q1048.75 868.154 1049.06 868.154 Q1049.29 868.154 1049.45 868.318 Q1049.62 868.458 1049.62 868.669 L1046.88 879.889 Q1046.74 880.451 1046.6 880.661 Q1046.46 880.849 1046.18 880.849 Q1045.87 880.849 1045.71 880.685 Q1045.54 880.521 1045.54 880.334 Q1045.54 880.146 1045.68 879.795 Q1046.03 878.272 1046.03 877.453 Q1046.03 876.984 1045.99 876.75 Q1045.96 876.516 1045.75 876.188 Q1045.57 875.836 1045.14 875.672 Q1044.72 875.509 1043.93 875.391 Q1043.13 875.251 1041.94 875.251 L1037.2 875.251 L1033.93 888.344 Q1033.69 889.211 1033.69 889.445 Q1033.69 889.703 1033.81 889.796 Q1033.95 889.866 1034.32 889.913 Q1034.74 889.984 1035.38 889.984 L1042.38 889.984 Q1043.93 889.984 1045.17 889.843 Q1046.41 889.703 1047.44 889.351 Q1048.49 889 1049.29 888.602 Q1050.09 888.203 1050.84 887.477 Q1051.59 886.728 1052.1 886.072 Q1052.64 885.393 1053.27 884.245 Q1053.9 883.097 1054.35 882.16 Q1054.79 881.2 1055.47 879.654 Q1055.66 879.092 1056.11 879.092 Q1056.36 879.092 1056.5 879.233 Q1056.64 879.35 1056.67 879.467 L1056.67 879.607 Q1056.53 880.052 1056.43 880.287 L1052.03 890.639 Q1051.77 891.225 1051.56 891.342 Q1051.35 891.459 1050.53 891.459 L1025.63 891.459 Q1025.07 891.459 1024.84 891.436 Q1024.63 891.412 1024.46 891.295 Q1024.3 891.155 1024.3 890.874 Q1024.3 890.429 1024.49 890.241 Q1024.67 890.03 1024.88 890.007 Q1025.09 889.984 1025.63 889.984 Q1026.8 889.984 1027.51 889.913 Q1028.21 889.843 1028.66 889.749 Q1029.12 889.632 1029.36 889.304 Q1029.62 888.976 1029.73 888.695 Q1029.85 888.391 1030.01 887.712 L1036.34 862.345 Q1036.57 861.478 1036.57 861.197 Q1036.57 860.893 1036.36 860.706 Q1036.17 860.518 1035.66 860.448 Q1035.14 860.354 1034.72 860.354 Q1034.32 860.331 1033.46 860.331 Q1032.89 860.331 1032.66 860.307 Q1032.45 860.284 1032.29 860.167 Q1032.12 860.05 1032.12 859.792 Q1032.12 859.136 1032.4 858.996 Q1032.71 858.832 1033.55 858.832 L1057.77 858.832 Q1058.73 858.832 1058.94 859.043 Q1059.17 859.23 1059.08 860.143 Z" fill="#000000" fill-rule="nonzero" fill-opacity="1" /><path clip-path="url(#clip490)" d="M1065.69 903.451 L1065.69 855.482 L1072.92 855.482 L1072.92 856.583 L1068.9 856.583 L1068.9 902.351 L1072.92 902.351 L1072.92 903.451 L1065.69 903.451 Z" fill="#000000" fill-rule="nonzero" fill-opacity="1" /><path clip-path="url(#clip490)" d="M1096.22 872.089 Q1096.22 872.417 1096.01 873.19 L1091.42 891.506 Q1090.41 895.582 1087.13 898.439 Q1083.88 901.297 1080.18 901.297 Q1077.95 901.297 1076.52 900.102 Q1075.09 898.931 1075.09 897.127 Q1075.09 895.535 1075.94 894.762 Q1076.78 894.012 1077.79 894.012 Q1078.12 894.012 1078.47 894.106 Q1078.82 894.2 1079.19 894.598 Q1079.57 894.996 1079.57 895.675 Q1079.57 896.776 1078.61 897.643 Q1078.14 898.041 1077.69 898.135 Q1077.27 898.228 1076.55 898.228 Q1076.83 898.884 1077.34 899.329 Q1077.86 899.774 1078.44 899.938 Q1079.03 900.125 1079.4 900.172 Q1079.8 900.243 1080.18 900.243 Q1083.18 900.243 1085.47 897.221 Q1086.15 896.308 1086.64 895.394 Q1087.16 894.504 1087.53 893.403 Q1087.91 892.326 1088.07 891.74 Q1088.26 891.155 1088.59 889.82 Q1086.41 891.998 1083.74 891.998 Q1082.61 891.998 1081.61 891.693 Q1080.62 891.389 1079.76 890.757 Q1078.89 890.101 1078.37 888.953 Q1077.88 887.805 1077.88 886.283 Q1077.88 884.667 1078.51 882.465 Q1079.15 880.263 1080.67 876.211 Q1081.49 873.939 1081.49 872.838 Q1081.49 872.3 1081.37 871.972 Q1081.25 871.62 1081.02 871.503 Q1080.79 871.363 1080.65 871.339 Q1080.53 871.316 1080.29 871.316 Q1078.91 871.316 1077.62 872.721 Q1076.34 874.127 1075.45 877.265 Q1075.26 877.851 1075.14 877.991 Q1075.02 878.132 1074.67 878.132 Q1074.09 878.108 1074.09 877.64 Q1074.09 877.453 1074.3 876.726 Q1074.51 875.977 1075 874.876 Q1075.52 873.752 1076.22 872.745 Q1076.92 871.714 1078.02 870.988 Q1079.15 870.262 1080.43 870.262 Q1082.19 870.262 1083.27 871.41 Q1084.37 872.534 1084.37 874.197 Q1084.37 874.876 1084.18 875.485 Q1084.02 876.071 1083.41 877.64 Q1080.95 883.964 1080.95 887.056 Q1080.95 887.805 1081.07 888.438 Q1081.21 889.047 1081.51 889.656 Q1081.82 890.241 1082.43 890.593 Q1083.06 890.92 1083.92 890.92 Q1085.03 890.92 1086.06 890.405 Q1087.11 889.866 1087.77 889.14 Q1088.45 888.414 1088.84 887.805 Q1089.27 887.173 1089.36 886.845 L1091.51 878.226 L1092.47 874.384 Q1092.92 872.3 1093.13 871.784 Q1093.41 871.292 1093.9 871.035 Q1094.39 870.777 1094.82 870.777 Q1095.4 870.777 1095.8 871.129 Q1096.22 871.48 1096.22 872.089 Z" fill="#000000" fill-rule="nonzero" fill-opacity="1" /><path clip-path="url(#clip490)" d="M1103.31 901.976 L1103.31 857.309 Q1103.31 855.529 1104.27 855.529 Q1105.23 855.529 1105.23 856.958 L1105.23 901.625 Q1105.23 903.405 1104.27 903.405 Q1103.31 903.405 1103.31 901.976 Z" fill="#000000" fill-rule="nonzero" fill-opacity="1" /><path clip-path="url(#clip490)" d="M1147 873.424 Q1147 874.736 1146.18 875.485 Q1145.36 876.211 1144.42 876.211 Q1143.53 876.211 1143.06 875.696 Q1142.59 875.181 1142.59 874.525 Q1142.59 873.635 1143.25 872.862 Q1143.91 872.089 1144.89 871.925 Q1143.93 871.316 1142.5 871.316 Q1141.56 871.316 1140.74 871.808 Q1139.95 872.3 1139.46 872.932 Q1138.99 873.564 1138.57 874.478 Q1138.17 875.368 1138 875.907 Q1137.86 876.422 1137.75 876.984 L1136.11 883.542 Q1135.31 886.658 1135.31 887.758 Q1135.31 889.117 1135.97 890.03 Q1136.62 890.92 1137.93 890.92 Q1138.45 890.92 1139.03 890.78 Q1139.62 890.616 1140.37 890.194 Q1141.14 889.749 1141.82 889.094 Q1142.52 888.414 1143.2 887.267 Q1143.88 886.119 1144.33 884.643 Q1144.47 884.128 1144.94 884.128 Q1145.52 884.128 1145.52 884.596 Q1145.52 884.995 1145.19 885.838 Q1144.89 886.658 1144.21 887.735 Q1143.56 888.789 1142.69 889.749 Q1141.82 890.686 1140.53 891.342 Q1139.25 891.998 1137.84 891.998 Q1135.83 891.998 1134.49 890.92 Q1133.16 889.843 1132.66 888.344 Q1132.55 888.555 1132.38 888.836 Q1132.22 889.117 1131.73 889.749 Q1131.26 890.358 1130.72 890.827 Q1130.18 891.272 1129.34 891.623 Q1128.52 891.998 1127.63 891.998 Q1126.5 891.998 1125.5 891.67 Q1124.51 891.342 1123.81 890.593 Q1123.11 889.843 1123.11 888.812 Q1123.11 887.665 1123.88 886.868 Q1124.68 886.049 1125.75 886.049 Q1126.43 886.049 1126.97 886.447 Q1127.53 886.845 1127.53 887.712 Q1127.53 888.672 1126.88 889.398 Q1126.22 890.124 1125.29 890.311 Q1126.25 890.92 1127.67 890.92 Q1129.22 890.92 1130.44 889.562 Q1131.66 888.203 1132.24 885.931 Q1133.69 880.474 1134.26 878.038 Q1134.82 875.579 1134.82 874.525 Q1134.82 873.541 1134.56 872.862 Q1134.3 872.183 1133.86 871.878 Q1133.44 871.55 1133.04 871.433 Q1132.66 871.316 1132.24 871.316 Q1131.54 871.316 1130.74 871.597 Q1129.97 871.878 1129.03 872.534 Q1128.12 873.166 1127.25 874.478 Q1126.39 875.79 1125.8 877.593 Q1125.68 878.132 1125.17 878.132 Q1124.61 878.108 1124.61 877.64 Q1124.61 877.242 1124.91 876.422 Q1125.24 875.579 1125.89 874.525 Q1126.57 873.471 1127.44 872.534 Q1128.33 871.574 1129.62 870.918 Q1130.93 870.262 1132.34 870.262 Q1132.97 870.262 1133.58 870.402 Q1134.21 870.52 1134.96 870.871 Q1135.73 871.222 1136.41 871.995 Q1137.09 872.768 1137.51 873.892 Q1137.79 873.354 1138.17 872.838 Q1138.57 872.323 1139.18 871.691 Q1139.81 871.035 1140.67 870.66 Q1141.56 870.262 1142.55 870.262 Q1143.51 870.262 1144.45 870.52 Q1145.38 870.754 1146.18 871.527 Q1147 872.276 1147 873.424 Z" fill="#000000" fill-rule="nonzero" fill-opacity="1" /><path clip-path="url(#clip490)" d="M1151.88 886.115 L1151.88 885.066 Q1155.92 885.066 1158 882.918 Q1158.57 882.918 1158.67 883.049 Q1158.77 883.18 1158.77 883.787 L1158.77 902.626 Q1158.77 903.626 1159.26 903.937 Q1159.75 904.249 1161.9 904.249 L1162.97 904.249 L1162.97 905.282 Q1161.79 905.183 1157.52 905.183 Q1153.26 905.183 1152.1 905.282 L1152.1 904.249 L1153.16 904.249 Q1155.28 904.249 1155.79 903.954 Q1156.29 903.642 1156.29 902.626 L1156.29 885.23 Q1154.54 886.115 1151.88 886.115 Z" fill="#000000" fill-rule="nonzero" fill-opacity="1" /><path clip-path="url(#clip490)" d="M1168.66 890.686 Q1167.98 889.913 1167.98 888.906 Q1167.98 887.899 1168.63 887.149 Q1169.31 886.377 1170.53 886.377 Q1171.96 886.377 1172.78 887.758 Q1173.6 889.117 1173.6 891.412 Q1173.6 893.895 1172.59 896.191 Q1171.58 898.509 1170.6 899.61 Q1169.62 900.711 1169.22 900.711 Q1168.75 900.711 1168.75 900.196 Q1168.75 900.008 1169.08 899.657 Q1172.52 895.956 1172.54 891.412 Q1172.54 890.686 1172.45 890.686 L1172.33 890.78 Q1171.51 891.459 1170.53 891.459 Q1169.34 891.459 1168.66 890.686 Z" fill="#000000" fill-rule="nonzero" fill-opacity="1" /><path clip-path="url(#clip490)" d="M1212.63 873.424 Q1212.63 874.736 1211.81 875.485 Q1210.99 876.211 1210.05 876.211 Q1209.16 876.211 1208.69 875.696 Q1208.22 875.181 1208.22 874.525 Q1208.22 873.635 1208.88 872.862 Q1209.53 872.089 1210.52 871.925 Q1209.56 871.316 1208.13 871.316 Q1207.19 871.316 1206.37 871.808 Q1205.58 872.3 1205.08 872.932 Q1204.62 873.564 1204.19 874.478 Q1203.8 875.368 1203.63 875.907 Q1203.49 876.422 1203.37 876.984 L1201.73 883.542 Q1200.94 886.658 1200.94 887.758 Q1200.94 889.117 1201.59 890.03 Q1202.25 890.92 1203.56 890.92 Q1204.08 890.92 1204.66 890.78 Q1205.25 890.616 1206 890.194 Q1206.77 889.749 1207.45 889.094 Q1208.15 888.414 1208.83 887.267 Q1209.51 886.119 1209.96 884.643 Q1210.1 884.128 1210.57 884.128 Q1211.15 884.128 1211.15 884.596 Q1211.15 884.995 1210.82 885.838 Q1210.52 886.658 1209.84 887.735 Q1209.18 888.789 1208.32 889.749 Q1207.45 890.686 1206.16 891.342 Q1204.87 891.998 1203.47 891.998 Q1201.45 891.998 1200.12 890.92 Q1198.78 889.843 1198.29 888.344 Q1198.17 888.555 1198.01 888.836 Q1197.85 889.117 1197.35 889.749 Q1196.89 890.358 1196.35 890.827 Q1195.81 891.272 1194.97 891.623 Q1194.15 891.998 1193.26 891.998 Q1192.13 891.998 1191.12 891.67 Q1190.14 891.342 1189.44 890.593 Q1188.74 889.843 1188.74 888.812 Q1188.74 887.665 1189.51 886.868 Q1190.3 886.049 1191.38 886.049 Q1192.06 886.049 1192.6 886.447 Q1193.16 886.845 1193.16 887.712 Q1193.16 888.672 1192.51 889.398 Q1191.85 890.124 1190.91 890.311 Q1191.87 890.92 1193.3 890.92 Q1194.85 890.92 1196.07 889.562 Q1197.28 888.203 1197.87 885.931 Q1199.32 880.474 1199.88 878.038 Q1200.45 875.579 1200.45 874.525 Q1200.45 873.541 1200.19 872.862 Q1199.93 872.183 1199.49 871.878 Q1199.06 871.55 1198.67 871.433 Q1198.29 871.316 1197.87 871.316 Q1197.17 871.316 1196.37 871.597 Q1195.6 871.878 1194.66 872.534 Q1193.75 873.166 1192.88 874.478 Q1192.01 875.79 1191.43 877.593 Q1191.31 878.132 1190.8 878.132 Q1190.23 878.108 1190.23 877.64 Q1190.23 877.242 1190.54 876.422 Q1190.87 875.579 1191.52 874.525 Q1192.2 873.471 1193.07 872.534 Q1193.96 871.574 1195.25 870.918 Q1196.56 870.262 1197.96 870.262 Q1198.6 870.262 1199.21 870.402 Q1199.84 870.52 1200.59 870.871 Q1201.36 871.222 1202.04 871.995 Q1202.72 872.768 1203.14 873.892 Q1203.42 873.354 1203.8 872.838 Q1204.19 872.323 1204.8 871.691 Q1205.44 871.035 1206.3 870.66 Q1207.19 870.262 1208.18 870.262 Q1209.14 870.262 1210.07 870.52 Q1211.01 870.754 1211.81 871.527 Q1212.63 872.276 1212.63 873.424 Z" fill="#000000" fill-rule="nonzero" fill-opacity="1" /><path clip-path="url(#clip490)" d="M1217.51 905.282 Q1217.51 904.675 1217.56 904.495 Q1217.63 904.314 1217.89 904.036 L1224.33 896.854 Q1227.86 892.887 1227.86 889.427 Q1227.86 887.181 1226.68 885.574 Q1225.51 883.967 1223.36 883.967 Q1221.89 883.967 1220.64 884.869 Q1219.4 885.771 1218.82 887.378 Q1218.92 887.345 1219.27 887.345 Q1220.1 887.345 1220.56 887.869 Q1221.04 888.394 1221.04 889.099 Q1221.04 890.001 1220.45 890.444 Q1219.87 890.87 1219.3 890.87 Q1219.07 890.87 1218.76 890.821 Q1218.46 890.771 1217.99 890.312 Q1217.51 889.837 1217.51 889.001 Q1217.51 886.656 1219.28 884.787 Q1221.07 882.918 1223.79 882.918 Q1226.87 882.918 1228.89 884.754 Q1230.92 886.574 1230.92 889.427 Q1230.92 890.427 1230.61 891.345 Q1230.32 892.247 1229.91 892.952 Q1229.51 893.657 1228.43 894.788 Q1227.35 895.92 1226.48 896.723 Q1225.61 897.527 1223.66 899.232 L1220.1 902.691 L1226.15 902.691 Q1229.1 902.691 1229.33 902.429 Q1229.66 901.953 1230.07 899.445 L1230.92 899.445 L1229.97 905.282 L1217.51 905.282 Z" fill="#000000" fill-rule="nonzero" fill-opacity="1" /><path clip-path="url(#clip490)" d="M1249.22 884.175 Q1249.26 883.589 1250.18 883.589 L1279.57 883.589 Q1280.95 883.589 1280.98 884.128 Q1280.98 884.714 1279.67 884.69 L1250.51 884.69 Q1249.22 884.714 1249.22 884.175 M1249.22 874.806 Q1249.22 874.22 1250.22 874.244 L1279.53 874.244 Q1280.95 874.244 1280.98 874.806 Q1280.98 875.345 1279.76 875.345 L1250.18 875.345 Q1249.22 875.345 1249.22 874.806 Z" fill="#000000" fill-rule="nonzero" fill-opacity="1" /><path clip-path="url(#clip490)" d="M1299.48 876.117 Q1299.48 869.067 1301.26 865.226 Q1303.74 859.511 1309.6 859.511 Q1310.84 859.511 1312.13 859.862 Q1313.44 860.19 1315.08 861.478 Q1316.74 862.767 1317.75 864.875 Q1319.67 868.95 1319.67 876.117 Q1319.67 883.121 1317.89 886.939 Q1315.29 892.513 1309.55 892.513 Q1307.4 892.513 1305.2 891.412 Q1303.02 890.311 1301.64 887.665 Q1299.48 883.706 1299.48 876.117 M1303.46 875.532 Q1303.46 882.769 1303.98 885.65 Q1304.56 888.766 1306.16 890.124 Q1307.77 891.459 1309.55 891.459 Q1311.47 891.459 1313.07 890.03 Q1314.68 888.578 1315.17 885.463 Q1315.71 882.395 1315.69 875.532 Q1315.69 868.857 1315.22 866.186 Q1314.59 863.071 1312.9 861.83 Q1311.24 860.565 1309.55 860.565 Q1308.92 860.565 1308.24 860.752 Q1307.58 860.94 1306.62 861.478 Q1305.66 862.017 1304.91 863.352 Q1304.19 864.687 1303.84 866.702 Q1303.46 869.302 1303.46 875.532 Z" fill="#000000" fill-rule="nonzero" fill-opacity="1" /><path clip-path="url(#clip490)" d="M1323.91 890.686 Q1323.24 889.913 1323.24 888.906 Q1323.24 887.899 1323.89 887.149 Q1324.57 886.377 1325.79 886.377 Q1327.22 886.377 1328.04 887.758 Q1328.86 889.117 1328.86 891.412 Q1328.86 893.895 1327.85 896.191 Q1326.84 898.509 1325.86 899.61 Q1324.88 900.711 1324.48 900.711 Q1324.01 900.711 1324.01 900.196 Q1324.01 900.008 1324.34 899.657 Q1327.78 895.956 1327.8 891.412 Q1327.8 890.686 1327.71 890.686 L1327.59 890.78 Q1326.77 891.459 1325.79 891.459 Q1324.59 891.459 1323.91 890.686 Z" fill="#000000" fill-rule="nonzero" fill-opacity="1" /><path clip-path="url(#clip490)" d="M1367.88 873.424 Q1367.88 874.736 1367.06 875.485 Q1366.24 876.211 1365.31 876.211 Q1364.42 876.211 1363.95 875.696 Q1363.48 875.181 1363.48 874.525 Q1363.48 873.635 1364.14 872.862 Q1364.79 872.089 1365.78 871.925 Q1364.82 871.316 1363.39 871.316 Q1362.45 871.316 1361.63 871.808 Q1360.83 872.3 1360.34 872.932 Q1359.87 873.564 1359.45 874.478 Q1359.05 875.368 1358.89 875.907 Q1358.75 876.422 1358.63 876.984 L1356.99 883.542 Q1356.2 886.658 1356.2 887.758 Q1356.2 889.117 1356.85 890.03 Q1357.51 890.92 1358.82 890.92 Q1359.34 890.92 1359.92 890.78 Q1360.51 890.616 1361.26 890.194 Q1362.03 889.749 1362.71 889.094 Q1363.41 888.414 1364.09 887.267 Q1364.77 886.119 1365.21 884.643 Q1365.35 884.128 1365.82 884.128 Q1366.41 884.128 1366.41 884.596 Q1366.41 884.995 1366.08 885.838 Q1365.78 886.658 1365.1 887.735 Q1364.44 888.789 1363.57 889.749 Q1362.71 890.686 1361.42 891.342 Q1360.13 891.998 1358.73 891.998 Q1356.71 891.998 1355.38 890.92 Q1354.04 889.843 1353.55 888.344 Q1353.43 888.555 1353.27 888.836 Q1353.1 889.117 1352.61 889.749 Q1352.14 890.358 1351.61 890.827 Q1351.07 891.272 1350.22 891.623 Q1349.4 891.998 1348.51 891.998 Q1347.39 891.998 1346.38 891.67 Q1345.4 891.342 1344.7 890.593 Q1343.99 889.843 1343.99 888.812 Q1343.99 887.665 1344.77 886.868 Q1345.56 886.049 1346.64 886.049 Q1347.32 886.049 1347.86 886.447 Q1348.42 886.845 1348.42 887.712 Q1348.42 888.672 1347.76 889.398 Q1347.11 890.124 1346.17 890.311 Q1347.13 890.92 1348.56 890.92 Q1350.11 890.92 1351.32 889.562 Q1352.54 888.203 1353.13 885.931 Q1354.58 880.474 1355.14 878.038 Q1355.7 875.579 1355.7 874.525 Q1355.7 873.541 1355.45 872.862 Q1355.19 872.183 1354.74 871.878 Q1354.32 871.55 1353.92 871.433 Q1353.55 871.316 1353.13 871.316 Q1352.43 871.316 1351.63 871.597 Q1350.86 871.878 1349.92 872.534 Q1349.01 873.166 1348.14 874.478 Q1347.27 875.79 1346.69 877.593 Q1346.57 878.132 1346.05 878.132 Q1345.49 878.108 1345.49 877.64 Q1345.49 877.242 1345.8 876.422 Q1346.12 875.579 1346.78 874.525 Q1347.46 873.471 1348.33 872.534 Q1349.22 871.574 1350.5 870.918 Q1351.82 870.262 1353.22 870.262 Q1353.85 870.262 1354.46 870.402 Q1355.1 870.52 1355.85 870.871 Q1356.62 871.222 1357.3 871.995 Q1357.98 872.768 1358.4 873.892 Q1358.68 873.354 1359.05 872.838 Q1359.45 872.323 1360.06 871.691 Q1360.69 871.035 1361.56 870.66 Q1362.45 870.262 1363.43 870.262 Q1364.39 870.262 1365.33 870.52 Q1366.27 870.754 1367.06 871.527 Q1367.88 872.276 1367.88 873.424 Z" fill="#000000" fill-rule="nonzero" fill-opacity="1" /><path clip-path="url(#clip490)" d="M1372.77 900.756 Q1372.77 899.756 1373.34 899.281 Q1373.92 898.805 1374.66 898.805 Q1375.43 898.805 1375.97 899.314 Q1376.52 899.806 1376.52 900.674 Q1376.52 901.609 1375.87 902.134 Q1375.23 902.658 1374.31 902.527 Q1375.11 903.872 1376.59 904.478 Q1378.08 905.085 1379.46 905.085 Q1380.9 905.085 1382.07 903.839 Q1383.25 902.593 1383.25 899.543 Q1383.25 896.953 1382.23 895.461 Q1381.23 893.969 1379.25 893.969 L1377.77 893.969 Q1377.26 893.969 1377.11 893.919 Q1376.97 893.87 1376.97 893.592 Q1376.97 893.264 1377.48 893.198 Q1377.98 893.198 1378.79 893.1 Q1380.74 893.034 1381.77 891.345 Q1382.71 889.771 1382.71 887.525 Q1382.71 885.476 1381.72 884.623 Q1380.75 883.754 1379.49 883.754 Q1378.31 883.754 1377.02 884.246 Q1375.72 884.738 1375.02 885.836 Q1377.1 885.836 1377.1 887.525 Q1377.1 888.263 1376.62 888.755 Q1376.16 889.23 1375.39 889.23 Q1374.66 889.23 1374.16 888.771 Q1373.67 888.296 1373.67 887.492 Q1373.67 885.574 1375.38 884.246 Q1377.1 882.918 1379.62 882.918 Q1382.12 882.918 1383.95 884.23 Q1385.8 885.541 1385.8 887.558 Q1385.8 889.542 1384.49 891.165 Q1383.18 892.788 1381.1 893.46 Q1383.66 893.969 1385.18 895.707 Q1386.71 897.428 1386.71 899.543 Q1386.71 902.167 1384.64 904.101 Q1382.57 906.019 1379.56 906.019 Q1376.77 906.019 1374.77 904.511 Q1372.77 903.003 1372.77 900.756 Z" fill="#000000" fill-rule="nonzero" fill-opacity="1" /><path clip-path="url(#clip490)" d="M1405 884.175 Q1405.05 883.589 1405.96 883.589 L1435.36 883.589 Q1436.74 883.589 1436.76 884.128 Q1436.76 884.714 1435.45 884.69 L1406.29 884.69 Q1405 884.714 1405 884.175 M1405 874.806 Q1405 874.22 1406.01 874.244 L1435.31 874.244 Q1436.74 874.244 1436.76 874.806 Q1436.76 875.345 1435.54 875.345 L1405.96 875.345 Q1405 875.345 1405 874.806 Z" fill="#000000" fill-rule="nonzero" fill-opacity="1" /><path clip-path="url(#clip490)" d="M1455.26 876.117 Q1455.26 869.067 1457.04 865.226 Q1459.53 859.511 1465.38 859.511 Q1466.62 859.511 1467.91 859.862 Q1469.22 860.19 1470.86 861.478 Q1472.53 862.767 1473.53 864.875 Q1475.45 868.95 1475.45 876.117 Q1475.45 883.121 1473.67 886.939 Q1471.07 892.513 1465.34 892.513 Q1463.18 892.513 1460.98 891.412 Q1458.8 890.311 1457.42 887.665 Q1455.26 883.706 1455.26 876.117 M1459.25 875.532 Q1459.25 882.769 1459.76 885.65 Q1460.35 888.766 1461.94 890.124 Q1463.55 891.459 1465.34 891.459 Q1467.26 891.459 1468.85 890.03 Q1470.46 888.578 1470.96 885.463 Q1471.5 882.395 1471.47 875.532 Q1471.47 868.857 1471 866.186 Q1470.37 863.071 1468.68 861.83 Q1467.02 860.565 1465.34 860.565 Q1464.7 860.565 1464.02 860.752 Q1463.37 860.94 1462.41 861.478 Q1461.45 862.017 1460.7 863.352 Q1459.97 864.687 1459.62 866.702 Q1459.25 869.302 1459.25 875.532 Z" fill="#000000" fill-rule="nonzero" fill-opacity="1" /><path clip-path="url(#clip490)" d="M1478.25 902.351 L1482.28 902.351 L1482.28 856.583 L1478.25 856.583 L1478.25 855.482 L1485.49 855.482 L1485.49 903.451 L1478.25 903.451 L1478.25 902.351 Z" fill="#000000" fill-rule="nonzero" fill-opacity="1" /><polyline clip-path="url(#clip490)" style="stroke:#e26f46; stroke-linecap:round; stroke-linejoin:round; stroke-width:4; stroke-opacity:1; fill:none" points="917.014,932.757 1008.97,932.757 "/>
<path clip-path="url(#clip490)" d="M1046.43 924.724 Q1046.43 925.052 1046.22 925.825 L1041.63 944.141 Q1040.62 948.216 1037.34 951.074 Q1034.09 953.932 1030.39 953.932 Q1028.16 953.932 1026.73 952.737 Q1025.31 951.566 1025.31 949.762 Q1025.31 948.17 1026.15 947.397 Q1026.99 946.647 1028 946.647 Q1028.33 946.647 1028.68 946.741 Q1029.03 946.835 1029.4 947.233 Q1029.78 947.631 1029.78 948.31 Q1029.78 949.411 1028.82 950.278 Q1028.35 950.676 1027.91 950.769 Q1027.48 950.863 1026.76 950.863 Q1027.04 951.519 1027.55 951.964 Q1028.07 952.409 1028.66 952.573 Q1029.24 952.76 1029.62 952.807 Q1030.01 952.878 1030.39 952.878 Q1033.39 952.878 1035.68 949.856 Q1036.36 948.943 1036.85 948.029 Q1037.37 947.139 1037.74 946.038 Q1038.12 944.961 1038.28 944.375 Q1038.47 943.79 1038.8 942.455 Q1036.62 944.633 1033.95 944.633 Q1032.82 944.633 1031.82 944.328 Q1030.83 944.024 1029.97 943.391 Q1029.1 942.736 1028.58 941.588 Q1028.09 940.44 1028.09 938.918 Q1028.09 937.302 1028.73 935.1 Q1029.36 932.898 1030.88 928.846 Q1031.7 926.574 1031.7 925.473 Q1031.7 924.935 1031.58 924.607 Q1031.47 924.255 1031.23 924.138 Q1031 923.998 1030.86 923.974 Q1030.74 923.951 1030.51 923.951 Q1029.12 923.951 1027.84 925.356 Q1026.55 926.761 1025.66 929.9 Q1025.47 930.486 1025.35 930.626 Q1025.24 930.767 1024.88 930.767 Q1024.3 930.743 1024.3 930.275 Q1024.3 930.087 1024.51 929.361 Q1024.72 928.612 1025.21 927.511 Q1025.73 926.387 1026.43 925.38 Q1027.13 924.349 1028.23 923.623 Q1029.36 922.897 1030.65 922.897 Q1032.4 922.897 1033.48 924.044 Q1034.58 925.169 1034.58 926.832 Q1034.58 927.511 1034.39 928.12 Q1034.23 928.706 1033.62 930.275 Q1031.16 936.599 1031.16 939.691 Q1031.16 940.44 1031.28 941.073 Q1031.42 941.682 1031.72 942.291 Q1032.03 942.876 1032.64 943.227 Q1033.27 943.555 1034.14 943.555 Q1035.24 943.555 1036.27 943.04 Q1037.32 942.501 1037.98 941.775 Q1038.66 941.049 1039.05 940.44 Q1039.48 939.808 1039.57 939.48 L1041.72 930.86 L1042.69 927.019 Q1043.13 924.935 1043.34 924.419 Q1043.62 923.927 1044.11 923.67 Q1044.61 923.412 1045.03 923.412 Q1045.61 923.412 1046.01 923.763 Q1046.43 924.115 1046.43 924.724 Z" fill="#000000" fill-rule="nonzero" fill-opacity="1" /><path clip-path="url(#clip490)" d="M1060.87 936.81 Q1060.92 936.224 1061.83 936.224 L1091.23 936.224 Q1092.61 936.224 1092.64 936.763 Q1092.64 937.348 1091.32 937.325 L1062.16 937.325 Q1060.87 937.348 1060.87 936.81 M1060.87 927.441 Q1060.87 926.855 1061.88 926.879 L1091.18 926.879 Q1092.61 926.879 1092.64 927.441 Q1092.64 927.979 1091.42 927.979 L1061.83 927.979 Q1060.87 927.979 1060.87 927.441 Z" fill="#000000" fill-rule="nonzero" fill-opacity="1" /><path clip-path="url(#clip490)" d="M1135.03 926.059 Q1135.03 927.37 1134.21 928.12 Q1133.39 928.846 1132.45 928.846 Q1131.56 928.846 1131.09 928.331 Q1130.62 927.815 1130.62 927.16 Q1130.62 926.27 1131.28 925.497 Q1131.94 924.724 1132.92 924.56 Q1131.96 923.951 1130.53 923.951 Q1129.59 923.951 1128.77 924.443 Q1127.98 924.935 1127.49 925.567 Q1127.02 926.199 1126.6 927.113 Q1126.2 928.003 1126.03 928.542 Q1125.89 929.057 1125.78 929.619 L1124.14 936.177 Q1123.34 939.292 1123.34 940.393 Q1123.34 941.752 1124 942.665 Q1124.65 943.555 1125.96 943.555 Q1126.48 943.555 1127.06 943.415 Q1127.65 943.251 1128.4 942.829 Q1129.17 942.384 1129.85 941.728 Q1130.55 941.049 1131.23 939.901 Q1131.91 938.754 1132.36 937.278 Q1132.5 936.763 1132.97 936.763 Q1133.55 936.763 1133.55 937.231 Q1133.55 937.629 1133.22 938.473 Q1132.92 939.292 1132.24 940.37 Q1131.58 941.424 1130.72 942.384 Q1129.85 943.321 1128.56 943.977 Q1127.28 944.633 1125.87 944.633 Q1123.86 944.633 1122.52 943.555 Q1121.19 942.478 1120.69 940.979 Q1120.58 941.19 1120.41 941.471 Q1120.25 941.752 1119.76 942.384 Q1119.29 942.993 1118.75 943.462 Q1118.21 943.907 1117.37 944.258 Q1116.55 944.633 1115.66 944.633 Q1114.53 944.633 1113.53 944.305 Q1112.54 943.977 1111.84 943.227 Q1111.14 942.478 1111.14 941.447 Q1111.14 940.3 1111.91 939.503 Q1112.71 938.684 1113.78 938.684 Q1114.46 938.684 1115 939.082 Q1115.56 939.48 1115.56 940.346 Q1115.56 941.307 1114.91 942.033 Q1114.25 942.759 1113.32 942.946 Q1114.28 943.555 1115.7 943.555 Q1117.25 943.555 1118.47 942.197 Q1119.69 940.838 1120.27 938.566 Q1121.72 933.109 1122.29 930.673 Q1122.85 928.214 1122.85 927.16 Q1122.85 926.176 1122.59 925.497 Q1122.33 924.817 1121.89 924.513 Q1121.47 924.185 1121.07 924.068 Q1120.69 923.951 1120.27 923.951 Q1119.57 923.951 1118.77 924.232 Q1118 924.513 1117.06 925.169 Q1116.15 925.801 1115.28 927.113 Q1114.42 928.424 1113.83 930.228 Q1113.71 930.767 1113.2 930.767 Q1112.64 930.743 1112.64 930.275 Q1112.64 929.877 1112.94 929.057 Q1113.27 928.214 1113.92 927.16 Q1114.6 926.106 1115.47 925.169 Q1116.36 924.208 1117.65 923.553 Q1118.96 922.897 1120.37 922.897 Q1121 922.897 1121.61 923.037 Q1122.24 923.154 1122.99 923.506 Q1123.76 923.857 1124.44 924.63 Q1125.12 925.403 1125.54 926.527 Q1125.82 925.989 1126.2 925.473 Q1126.6 924.958 1127.2 924.326 Q1127.84 923.67 1128.7 923.295 Q1129.59 922.897 1130.58 922.897 Q1131.54 922.897 1132.48 923.154 Q1133.41 923.389 1134.21 924.162 Q1135.03 924.911 1135.03 926.059 Z" fill="#000000" fill-rule="nonzero" fill-opacity="1" /><path clip-path="url(#clip490)" d="M1139.91 938.75 L1139.91 937.701 Q1143.95 937.701 1146.03 935.553 Q1146.6 935.553 1146.7 935.684 Q1146.8 935.815 1146.8 936.422 L1146.8 955.26 Q1146.8 956.261 1147.29 956.572 Q1147.78 956.884 1149.93 956.884 L1151 956.884 L1151 957.917 Q1149.82 957.818 1145.55 957.818 Q1141.29 957.818 1140.13 957.917 L1140.13 956.884 L1141.19 956.884 Q1143.31 956.884 1143.82 956.589 Q1144.32 956.277 1144.32 955.26 L1144.32 937.865 Q1142.57 938.75 1139.91 938.75 Z" fill="#000000" fill-rule="nonzero" fill-opacity="1" /><path clip-path="url(#clip490)" d="M1139.91 929.75 Q1139.91 929.143 1139.96 928.963 Q1140.03 928.783 1140.29 928.504 L1146.73 921.323 Q1150.26 917.355 1150.26 913.895 Q1150.26 911.649 1149.08 910.042 Q1147.91 908.436 1145.77 908.436 Q1144.29 908.436 1143.05 909.337 Q1141.8 910.239 1141.23 911.846 Q1141.32 911.813 1141.67 911.813 Q1142.5 911.813 1142.96 912.338 Q1143.44 912.863 1143.44 913.568 Q1143.44 914.469 1142.85 914.912 Q1142.27 915.338 1141.7 915.338 Q1141.47 915.338 1141.16 915.289 Q1140.86 915.24 1140.39 914.781 Q1139.91 914.305 1139.91 913.469 Q1139.91 911.125 1141.68 909.255 Q1143.47 907.386 1146.19 907.386 Q1149.28 907.386 1151.29 909.223 Q1153.33 911.043 1153.33 913.895 Q1153.33 914.896 1153.01 915.814 Q1152.72 916.716 1152.31 917.421 Q1151.92 918.126 1150.83 919.257 Q1149.75 920.388 1148.88 921.192 Q1148.01 921.995 1146.06 923.7 L1142.5 927.16 L1148.55 927.16 Q1151.51 927.16 1151.73 926.897 Q1152.06 926.422 1152.47 923.913 L1153.33 923.913 L1152.37 929.75 L1139.91 929.75 Z" fill="#000000" fill-rule="nonzero" fill-opacity="1" /></svg>
