<?xml version="1.0" encoding="utf-8"?>
<svg xmlns="http://www.w3.org/2000/svg" xmlns:xlink="http://www.w3.org/1999/xlink" width="400" height="300" viewBox="0 0 1600 1200">
<defs>
  <clipPath id="clip370">
    <rect x="0" y="0" width="1600" height="1200"/>
  </clipPath>
</defs>
<path clip-path="url(#clip370)" d="M0 1200 L1600 1200 L1600 0 L0 0  Z" fill="#ffffff" fill-rule="evenodd" fill-opacity="1"/>
<defs>
  <clipPath id="clip371">
    <rect x="320" y="0" width="1121" height="1121"/>
  </clipPath>
</defs>
<defs>
  <clipPath id="clip372">
    <rect x="209" y="47" width="1344" height="971"/>
  </clipPath>
</defs>
<path clip-path="url(#clip370)" d="M217.806 1016.92 L1552.76 1016.92 L1552.76 47.2441 L217.806 47.2441  Z" fill="#ffffff" fill-rule="evenodd" fill-opacity="1"/>
<defs>
  <clipPath id="clip373">
    <rect x="217" y="47" width="1336" height="971"/>
  </clipPath>
</defs>
<polyline clip-path="url(#clip373)" style="stroke:#000000; stroke-linecap:round; stroke-linejoin:round; stroke-width:2; stroke-opacity:0.1; fill:none" points="507.465,1016.92 507.465,47.2441 "/>
<polyline clip-path="url(#clip373)" style="stroke:#000000; stroke-linecap:round; stroke-linejoin:round; stroke-width:2; stroke-opacity:0.1; fill:none" points="822.312,1016.92 822.312,47.2441 "/>
<polyline clip-path="url(#clip373)" style="stroke:#000000; stroke-linecap:round; stroke-linejoin:round; stroke-width:2; stroke-opacity:0.1; fill:none" points="1137.16,1016.92 1137.16,47.2441 "/>
<polyline clip-path="url(#clip373)" style="stroke:#000000; stroke-linecap:round; stroke-linejoin:round; stroke-width:2; stroke-opacity:0.1; fill:none" points="1452,1016.92 1452,47.2441 "/>
<polyline clip-path="url(#clip370)" style="stroke:#000000; stroke-linecap:round; stroke-linejoin:round; stroke-width:4; stroke-opacity:1; fill:none" points="217.806,1016.92 1552.76,1016.92 "/>
<polyline clip-path="url(#clip370)" style="stroke:#000000; stroke-linecap:round; stroke-linejoin:round; stroke-width:4; stroke-opacity:1; fill:none" points="507.465,1016.92 507.465,998.022 "/>
<polyline clip-path="url(#clip370)" style="stroke:#000000; stroke-linecap:round; stroke-linejoin:round; stroke-width:4; stroke-opacity:1; fill:none" points="822.312,1016.92 822.312,998.022 "/>
<polyline clip-path="url(#clip370)" style="stroke:#000000; stroke-linecap:round; stroke-linejoin:round; stroke-width:4; stroke-opacity:1; fill:none" points="1137.16,1016.92 1137.16,998.022 "/>
<polyline clip-path="url(#clip370)" style="stroke:#000000; stroke-linecap:round; stroke-linejoin:round; stroke-width:4; stroke-opacity:1; fill:none" points="1452,1016.92 1452,998.022 "/>
<path clip-path="url(#clip370)" d="M497.743 1038.36 L516.099 1038.36 L516.099 1042.3 L502.025 1042.3 L502.025 1050.77 Q503.044 1050.42 504.062 1050.26 Q505.081 1050.07 506.099 1050.07 Q511.886 1050.07 515.266 1053.24 Q518.646 1056.42 518.646 1061.83 Q518.646 1067.41 515.173 1070.51 Q511.701 1073.59 505.382 1073.59 Q503.206 1073.59 500.937 1073.22 Q498.692 1072.85 496.285 1072.11 L496.285 1067.41 Q498.368 1068.54 500.59 1069.1 Q502.812 1069.66 505.289 1069.66 Q509.294 1069.66 511.632 1067.55 Q513.97 1065.44 513.97 1061.83 Q513.97 1058.22 511.632 1056.11 Q509.294 1054.01 505.289 1054.01 Q503.414 1054.01 501.539 1054.42 Q499.687 1054.84 497.743 1055.72 L497.743 1038.36 Z" fill="#000000" fill-rule="nonzero" fill-opacity="1" /><path clip-path="url(#clip370)" d="M796.999 1068.98 L804.638 1068.98 L804.638 1042.62 L796.328 1044.29 L796.328 1040.03 L804.592 1038.36 L809.268 1038.36 L809.268 1068.98 L816.907 1068.98 L816.907 1072.92 L796.999 1072.92 L796.999 1068.98 Z" fill="#000000" fill-rule="nonzero" fill-opacity="1" /><path clip-path="url(#clip370)" d="M836.351 1041.44 Q832.74 1041.44 830.911 1045 Q829.106 1048.54 829.106 1055.67 Q829.106 1062.78 830.911 1066.35 Q832.74 1069.89 836.351 1069.89 Q839.985 1069.89 841.791 1066.35 Q843.62 1062.78 843.62 1055.67 Q843.62 1048.54 841.791 1045 Q839.985 1041.44 836.351 1041.44 M836.351 1037.73 Q842.161 1037.73 845.217 1042.34 Q848.295 1046.92 848.295 1055.67 Q848.295 1064.4 845.217 1069.01 Q842.161 1073.59 836.351 1073.59 Q830.541 1073.59 827.462 1069.01 Q824.407 1064.4 824.407 1055.67 Q824.407 1046.92 827.462 1042.34 Q830.541 1037.73 836.351 1037.73 Z" fill="#000000" fill-rule="nonzero" fill-opacity="1" /><path clip-path="url(#clip370)" d="M1112.34 1068.98 L1119.98 1068.98 L1119.98 1042.62 L1111.67 1044.29 L1111.67 1040.03 L1119.94 1038.36 L1124.61 1038.36 L1124.61 1068.98 L1132.25 1068.98 L1132.25 1072.92 L1112.34 1072.92 L1112.34 1068.98 Z" fill="#000000" fill-rule="nonzero" fill-opacity="1" /><path clip-path="url(#clip370)" d="M1141.74 1038.36 L1160.1 1038.36 L1160.1 1042.3 L1146.02 1042.3 L1146.02 1050.77 Q1147.04 1050.42 1148.06 1050.26 Q1149.08 1050.07 1150.1 1050.07 Q1155.89 1050.07 1159.26 1053.24 Q1162.64 1056.42 1162.64 1061.83 Q1162.64 1067.41 1159.17 1070.51 Q1155.7 1073.59 1149.38 1073.59 Q1147.2 1073.59 1144.94 1073.22 Q1142.69 1072.85 1140.28 1072.11 L1140.28 1067.41 Q1142.37 1068.54 1144.59 1069.1 Q1146.81 1069.66 1149.29 1069.66 Q1153.29 1069.66 1155.63 1067.55 Q1157.97 1065.44 1157.97 1061.83 Q1157.97 1058.22 1155.63 1056.11 Q1153.29 1054.01 1149.29 1054.01 Q1147.41 1054.01 1145.54 1054.42 Q1143.69 1054.84 1141.74 1055.72 L1141.74 1038.36 Z" fill="#000000" fill-rule="nonzero" fill-opacity="1" /><path clip-path="url(#clip370)" d="M1430.78 1068.98 L1447.1 1068.98 L1447.1 1072.92 L1425.15 1072.92 L1425.15 1068.98 Q1427.82 1066.23 1432.4 1061.6 Q1437.01 1056.95 1438.19 1055.61 Q1440.43 1053.08 1441.31 1051.35 Q1442.21 1049.59 1442.21 1047.9 Q1442.21 1045.14 1440.27 1043.41 Q1438.35 1041.67 1435.25 1041.67 Q1433.05 1041.67 1430.59 1042.43 Q1428.16 1043.2 1425.38 1044.75 L1425.38 1040.03 Q1428.21 1038.89 1430.66 1038.31 Q1433.12 1037.73 1435.15 1037.73 Q1440.52 1037.73 1443.72 1040.42 Q1446.91 1043.11 1446.91 1047.6 Q1446.91 1049.73 1446.1 1051.65 Q1445.32 1053.54 1443.21 1056.14 Q1442.63 1056.81 1439.53 1060.03 Q1436.43 1063.22 1430.78 1068.98 Z" fill="#000000" fill-rule="nonzero" fill-opacity="1" /><path clip-path="url(#clip370)" d="M1466.91 1041.44 Q1463.3 1041.44 1461.47 1045 Q1459.67 1048.54 1459.67 1055.67 Q1459.67 1062.78 1461.47 1066.35 Q1463.3 1069.89 1466.91 1069.89 Q1470.55 1069.89 1472.35 1066.35 Q1474.18 1062.78 1474.18 1055.67 Q1474.18 1048.54 1472.35 1045 Q1470.55 1041.44 1466.91 1041.44 M1466.91 1037.73 Q1472.72 1037.73 1475.78 1042.34 Q1478.86 1046.92 1478.86 1055.67 Q1478.86 1064.4 1475.78 1069.01 Q1472.72 1073.59 1466.91 1073.59 Q1461.1 1073.59 1458.02 1069.01 Q1454.97 1064.4 1454.97 1055.67 Q1454.97 1046.92 1458.02 1042.34 Q1461.1 1037.73 1466.91 1037.73 Z" fill="#000000" fill-rule="nonzero" fill-opacity="1" /><path clip-path="url(#clip370)" d="M612.622 1102.26 L621.279 1102.26 L642.35 1142.02 L642.35 1102.26 L648.588 1102.26 L648.588 1149.78 L639.931 1149.78 L618.86 1110.03 L618.86 1149.78 L612.622 1149.78 L612.622 1102.26 Z" fill="#000000" fill-rule="nonzero" fill-opacity="1" /><path clip-path="url(#clip370)" d="M660.524 1135.72 L660.524 1114.14 L666.38 1114.14 L666.38 1135.49 Q666.38 1140.55 668.354 1143.1 Q670.327 1145.61 674.274 1145.61 Q679.016 1145.61 681.754 1142.59 Q684.523 1139.57 684.523 1134.35 L684.523 1114.14 L690.379 1114.14 L690.379 1149.78 L684.523 1149.78 L684.523 1144.31 Q682.39 1147.56 679.557 1149.15 Q676.756 1150.71 673.033 1150.71 Q666.89 1150.71 663.707 1146.89 Q660.524 1143.07 660.524 1135.72 M675.261 1113.28 L675.261 1113.28 Z" fill="#000000" fill-rule="nonzero" fill-opacity="1" /><path clip-path="url(#clip370)" d="M730.197 1120.98 Q732.393 1117.03 735.448 1115.15 Q738.504 1113.28 742.642 1113.28 Q748.212 1113.28 751.235 1117.19 Q754.259 1121.07 754.259 1128.27 L754.259 1149.78 L748.371 1149.78 L748.371 1128.46 Q748.371 1123.33 746.556 1120.85 Q744.742 1118.37 741.018 1118.37 Q736.467 1118.37 733.825 1121.39 Q731.183 1124.42 731.183 1129.64 L731.183 1149.78 L725.295 1149.78 L725.295 1128.46 Q725.295 1123.3 723.481 1120.85 Q721.667 1118.37 717.879 1118.37 Q713.391 1118.37 710.749 1121.42 Q708.108 1124.45 708.108 1129.64 L708.108 1149.78 L702.219 1149.78 L702.219 1114.14 L708.108 1114.14 L708.108 1119.67 Q710.113 1116.4 712.914 1114.84 Q715.715 1113.28 719.566 1113.28 Q723.449 1113.28 726.154 1115.25 Q728.892 1117.22 730.197 1120.98 Z" fill="#000000" fill-rule="nonzero" fill-opacity="1" /><path clip-path="url(#clip370)" d="M791.53 1131.99 Q791.53 1125.53 788.857 1121.87 Q786.215 1118.18 781.568 1118.18 Q776.921 1118.18 774.247 1121.87 Q771.605 1125.53 771.605 1131.99 Q771.605 1138.45 774.247 1142.14 Q776.921 1145.81 781.568 1145.81 Q786.215 1145.81 788.857 1142.14 Q791.53 1138.45 791.53 1131.99 M771.605 1119.55 Q773.452 1116.36 776.252 1114.84 Q779.085 1113.28 783 1113.28 Q789.493 1113.28 793.535 1118.43 Q797.609 1123.59 797.609 1131.99 Q797.609 1140.39 793.535 1145.55 Q789.493 1150.71 783 1150.71 Q779.085 1150.71 776.252 1149.18 Q773.452 1147.62 771.605 1144.44 L771.605 1149.78 L765.717 1149.78 L765.717 1100.26 L771.605 1100.26 L771.605 1119.55 Z" fill="#000000" fill-rule="nonzero" fill-opacity="1" /><path clip-path="url(#clip370)" d="M837.809 1130.5 L837.809 1133.36 L810.882 1133.36 Q811.264 1139.41 814.51 1142.59 Q817.789 1145.74 823.613 1145.74 Q826.987 1145.74 830.138 1144.91 Q833.321 1144.09 836.44 1142.43 L836.44 1147.97 Q833.289 1149.31 829.979 1150.01 Q826.669 1150.71 823.263 1150.71 Q814.733 1150.71 809.736 1145.74 Q804.771 1140.78 804.771 1132.31 Q804.771 1123.56 809.481 1118.43 Q814.224 1113.28 822.245 1113.28 Q829.438 1113.28 833.607 1117.92 Q837.809 1122.54 837.809 1130.5 M831.952 1128.78 Q831.889 1123.97 829.247 1121.11 Q826.637 1118.24 822.308 1118.24 Q817.407 1118.24 814.447 1121.01 Q811.518 1123.78 811.073 1128.81 L831.952 1128.78 Z" fill="#000000" fill-rule="nonzero" fill-opacity="1" /><path clip-path="url(#clip370)" d="M868.078 1119.61 Q867.091 1119.04 865.913 1118.78 Q864.768 1118.5 863.367 1118.5 Q858.402 1118.5 855.728 1121.74 Q853.087 1124.96 853.087 1131.01 L853.087 1149.78 L847.198 1149.78 L847.198 1114.14 L853.087 1114.14 L853.087 1119.67 Q854.933 1116.43 857.893 1114.87 Q860.853 1113.28 865.086 1113.28 Q865.691 1113.28 866.423 1113.37 Q867.155 1113.44 868.046 1113.59 L868.078 1119.61 Z" fill="#000000" fill-rule="nonzero" fill-opacity="1" /><path clip-path="url(#clip370)" d="M908.755 1118.24 Q904.044 1118.24 901.307 1121.93 Q898.569 1125.59 898.569 1131.99 Q898.569 1138.39 901.275 1142.08 Q904.012 1145.74 908.755 1145.74 Q913.433 1145.74 916.171 1142.05 Q918.908 1138.36 918.908 1131.99 Q918.908 1125.66 916.171 1121.97 Q913.433 1118.24 908.755 1118.24 M908.755 1113.28 Q916.393 1113.28 920.754 1118.24 Q925.114 1123.21 925.114 1131.99 Q925.114 1140.74 920.754 1145.74 Q916.393 1150.71 908.755 1150.71 Q901.084 1150.71 896.723 1145.74 Q892.395 1140.74 892.395 1131.99 Q892.395 1123.21 896.723 1118.24 Q901.084 1113.28 908.755 1113.28 Z" fill="#000000" fill-rule="nonzero" fill-opacity="1" /><path clip-path="url(#clip370)" d="M952.869 1100.26 L952.869 1105.13 L947.267 1105.13 Q944.116 1105.13 942.875 1106.4 Q941.665 1107.67 941.665 1110.98 L941.665 1114.14 L951.309 1114.14 L951.309 1118.69 L941.665 1118.69 L941.665 1149.78 L935.777 1149.78 L935.777 1118.69 L930.175 1118.69 L930.175 1114.14 L935.777 1114.14 L935.777 1111.65 Q935.777 1105.7 938.546 1103 Q941.315 1100.26 947.331 1100.26 L952.869 1100.26 Z" fill="#000000" fill-rule="nonzero" fill-opacity="1" /><path clip-path="url(#clip370)" d="M984.284 1104.01 L984.284 1114.14 L996.347 1114.14 L996.347 1118.69 L984.284 1118.69 L984.284 1138.04 Q984.284 1142.4 985.461 1143.64 Q986.671 1144.88 990.331 1144.88 L996.347 1144.88 L996.347 1149.78 L990.331 1149.78 Q983.552 1149.78 980.974 1147.27 Q978.395 1144.72 978.395 1138.04 L978.395 1118.69 L974.099 1118.69 L974.099 1114.14 L978.395 1114.14 L978.395 1104.01 L984.284 1104.01 Z" fill="#000000" fill-rule="nonzero" fill-opacity="1" /><path clip-path="url(#clip370)" d="M1034.54 1130.5 L1034.54 1133.36 L1007.61 1133.36 Q1008 1139.41 1011.24 1142.59 Q1014.52 1145.74 1020.35 1145.74 Q1023.72 1145.74 1026.87 1144.91 Q1030.05 1144.09 1033.17 1142.43 L1033.17 1147.97 Q1030.02 1149.31 1026.71 1150.01 Q1023.4 1150.71 1020 1150.71 Q1011.47 1150.71 1006.47 1145.74 Q1001.5 1140.78 1001.5 1132.31 Q1001.5 1123.56 1006.21 1118.43 Q1010.96 1113.28 1018.98 1113.28 Q1026.17 1113.28 1030.34 1117.92 Q1034.54 1122.54 1034.54 1130.5 M1028.68 1128.78 Q1028.62 1123.97 1025.98 1121.11 Q1023.37 1118.24 1019.04 1118.24 Q1014.14 1118.24 1011.18 1121.01 Q1008.25 1123.78 1007.81 1128.81 L1028.68 1128.78 Z" fill="#000000" fill-rule="nonzero" fill-opacity="1" /><path clip-path="url(#clip370)" d="M1064.81 1119.61 Q1063.82 1119.04 1062.65 1118.78 Q1061.5 1118.5 1060.1 1118.5 Q1055.13 1118.5 1052.46 1121.74 Q1049.82 1124.96 1049.82 1131.01 L1049.82 1149.78 L1043.93 1149.78 L1043.93 1114.14 L1049.82 1114.14 L1049.82 1119.67 Q1051.66 1116.43 1054.62 1114.87 Q1057.58 1113.28 1061.82 1113.28 Q1062.42 1113.28 1063.15 1113.37 Q1063.89 1113.44 1064.78 1113.59 L1064.81 1119.61 Z" fill="#000000" fill-rule="nonzero" fill-opacity="1" /><path clip-path="url(#clip370)" d="M1097.56 1120.98 Q1099.76 1117.03 1102.81 1115.15 Q1105.87 1113.28 1110.01 1113.28 Q1115.58 1113.28 1118.6 1117.19 Q1121.62 1121.07 1121.62 1128.27 L1121.62 1149.78 L1115.74 1149.78 L1115.74 1128.46 Q1115.74 1123.33 1113.92 1120.85 Q1112.11 1118.37 1108.38 1118.37 Q1103.83 1118.37 1101.19 1121.39 Q1098.55 1124.42 1098.55 1129.64 L1098.55 1149.78 L1092.66 1149.78 L1092.66 1128.46 Q1092.66 1123.3 1090.85 1120.85 Q1089.03 1118.37 1085.24 1118.37 Q1080.76 1118.37 1078.11 1121.42 Q1075.47 1124.45 1075.47 1129.64 L1075.47 1149.78 L1069.58 1149.78 L1069.58 1114.14 L1075.47 1114.14 L1075.47 1119.67 Q1077.48 1116.4 1080.28 1114.84 Q1083.08 1113.28 1086.93 1113.28 Q1090.81 1113.28 1093.52 1115.25 Q1096.26 1117.22 1097.56 1120.98 Z" fill="#000000" fill-rule="nonzero" fill-opacity="1" /><path clip-path="url(#clip370)" d="M1156.03 1115.19 L1156.03 1120.72 Q1153.55 1119.45 1150.87 1118.81 Q1148.2 1118.18 1145.34 1118.18 Q1140.98 1118.18 1138.78 1119.51 Q1136.62 1120.85 1136.62 1123.53 Q1136.62 1125.56 1138.17 1126.74 Q1139.73 1127.89 1144.44 1128.94 L1146.45 1129.38 Q1152.69 1130.72 1155.3 1133.17 Q1157.94 1135.59 1157.94 1139.95 Q1157.94 1144.91 1153.99 1147.81 Q1150.08 1150.71 1143.2 1150.71 Q1140.34 1150.71 1137.22 1150.13 Q1134.13 1149.59 1130.69 1148.48 L1130.69 1142.43 Q1133.94 1144.12 1137.09 1144.98 Q1140.24 1145.81 1143.33 1145.81 Q1147.47 1145.81 1149.7 1144.4 Q1151.92 1142.97 1151.92 1140.39 Q1151.92 1138.01 1150.3 1136.73 Q1148.71 1135.46 1143.27 1134.28 L1141.23 1133.81 Q1135.79 1132.66 1133.37 1130.3 Q1130.95 1127.92 1130.95 1123.78 Q1130.95 1118.75 1134.51 1116.01 Q1138.08 1113.28 1144.64 1113.28 Q1147.88 1113.28 1150.75 1113.75 Q1153.61 1114.23 1156.03 1115.19 Z" fill="#000000" fill-rule="nonzero" fill-opacity="1" /><polyline clip-path="url(#clip373)" style="stroke:#000000; stroke-linecap:round; stroke-linejoin:round; stroke-width:2; stroke-opacity:0.1; fill:none" points="217.806,989.476 1552.76,989.476 "/>
<polyline clip-path="url(#clip373)" style="stroke:#000000; stroke-linecap:round; stroke-linejoin:round; stroke-width:2; stroke-opacity:0.1; fill:none" points="217.806,743.91 1552.76,743.91 "/>
<polyline clip-path="url(#clip373)" style="stroke:#000000; stroke-linecap:round; stroke-linejoin:round; stroke-width:2; stroke-opacity:0.1; fill:none" points="217.806,498.344 1552.76,498.344 "/>
<polyline clip-path="url(#clip373)" style="stroke:#000000; stroke-linecap:round; stroke-linejoin:round; stroke-width:2; stroke-opacity:0.1; fill:none" points="217.806,252.778 1552.76,252.778 "/>
<polyline clip-path="url(#clip370)" style="stroke:#000000; stroke-linecap:round; stroke-linejoin:round; stroke-width:4; stroke-opacity:1; fill:none" points="217.806,1016.92 217.806,47.2441 "/>
<polyline clip-path="url(#clip370)" style="stroke:#000000; stroke-linecap:round; stroke-linejoin:round; stroke-width:4; stroke-opacity:1; fill:none" points="217.806,989.476 236.704,989.476 "/>
<polyline clip-path="url(#clip370)" style="stroke:#000000; stroke-linecap:round; stroke-linejoin:round; stroke-width:4; stroke-opacity:1; fill:none" points="217.806,743.91 236.704,743.91 "/>
<polyline clip-path="url(#clip370)" style="stroke:#000000; stroke-linecap:round; stroke-linejoin:round; stroke-width:4; stroke-opacity:1; fill:none" points="217.806,498.344 236.704,498.344 "/>
<polyline clip-path="url(#clip370)" style="stroke:#000000; stroke-linecap:round; stroke-linejoin:round; stroke-width:4; stroke-opacity:1; fill:none" points="217.806,252.778 236.704,252.778 "/>
<path clip-path="url(#clip370)" d="M136.631 975.275 Q133.02 975.275 131.191 978.84 Q129.385 982.381 129.385 989.511 Q129.385 996.617 131.191 1000.18 Q133.02 1003.72 136.631 1003.72 Q140.265 1003.72 142.07 1000.18 Q143.899 996.617 143.899 989.511 Q143.899 982.381 142.07 978.84 Q140.265 975.275 136.631 975.275 M136.631 971.571 Q142.441 971.571 145.496 976.178 Q148.575 980.761 148.575 989.511 Q148.575 998.238 145.496 1002.84 Q142.441 1007.43 136.631 1007.43 Q130.82 1007.43 127.742 1002.84 Q124.686 998.238 124.686 989.511 Q124.686 980.761 127.742 976.178 Q130.82 971.571 136.631 971.571 Z" fill="#000000" fill-rule="nonzero" fill-opacity="1" /><path clip-path="url(#clip370)" d="M156.793 1000.88 L161.677 1000.88 L161.677 1006.76 L156.793 1006.76 L156.793 1000.88 Z" fill="#000000" fill-rule="nonzero" fill-opacity="1" /><path clip-path="url(#clip370)" d="M181.862 975.275 Q178.251 975.275 176.422 978.84 Q174.617 982.381 174.617 989.511 Q174.617 996.617 176.422 1000.18 Q178.251 1003.72 181.862 1003.72 Q185.496 1003.72 187.302 1000.18 Q189.13 996.617 189.13 989.511 Q189.13 982.381 187.302 978.84 Q185.496 975.275 181.862 975.275 M181.862 971.571 Q187.672 971.571 190.728 976.178 Q193.806 980.761 193.806 989.511 Q193.806 998.238 190.728 1002.84 Q187.672 1007.43 181.862 1007.43 Q176.052 1007.43 172.973 1002.84 Q169.918 998.238 169.918 989.511 Q169.918 980.761 172.973 976.178 Q176.052 971.571 181.862 971.571 Z" fill="#000000" fill-rule="nonzero" fill-opacity="1" /><path clip-path="url(#clip370)" d="M138.228 729.709 Q134.617 729.709 132.788 733.274 Q130.983 736.815 130.983 743.945 Q130.983 751.051 132.788 754.616 Q134.617 758.158 138.228 758.158 Q141.862 758.158 143.668 754.616 Q145.496 751.051 145.496 743.945 Q145.496 736.815 143.668 733.274 Q141.862 729.709 138.228 729.709 M138.228 726.005 Q144.038 726.005 147.094 730.612 Q150.172 735.195 150.172 743.945 Q150.172 752.672 147.094 757.278 Q144.038 761.861 138.228 761.861 Q132.418 761.861 129.339 757.278 Q126.283 752.672 126.283 743.945 Q126.283 735.195 129.339 730.612 Q132.418 726.005 138.228 726.005 Z" fill="#000000" fill-rule="nonzero" fill-opacity="1" /><path clip-path="url(#clip370)" d="M158.39 755.311 L163.274 755.311 L163.274 761.19 L158.39 761.19 L158.39 755.311 Z" fill="#000000" fill-rule="nonzero" fill-opacity="1" /><path clip-path="url(#clip370)" d="M177.487 757.255 L193.806 757.255 L193.806 761.19 L171.862 761.19 L171.862 757.255 Q174.524 754.5 179.107 749.871 Q183.714 745.218 184.894 743.875 Q187.14 741.352 188.019 739.616 Q188.922 737.857 188.922 736.167 Q188.922 733.413 186.978 731.676 Q185.056 729.94 181.954 729.94 Q179.755 729.94 177.302 730.704 Q174.871 731.468 172.093 733.019 L172.093 728.297 Q174.917 727.163 177.371 726.584 Q179.825 726.005 181.862 726.005 Q187.232 726.005 190.427 728.69 Q193.621 731.376 193.621 735.866 Q193.621 737.996 192.811 739.917 Q192.024 741.815 189.917 744.408 Q189.339 745.079 186.237 748.297 Q183.135 751.491 177.487 757.255 Z" fill="#000000" fill-rule="nonzero" fill-opacity="1" /><path clip-path="url(#clip370)" d="M136.145 484.143 Q132.533 484.143 130.705 487.708 Q128.899 491.249 128.899 498.379 Q128.899 505.485 130.705 509.05 Q132.533 512.592 136.145 512.592 Q139.779 512.592 141.584 509.05 Q143.413 505.485 143.413 498.379 Q143.413 491.249 141.584 487.708 Q139.779 484.143 136.145 484.143 M136.145 480.439 Q141.955 480.439 145.01 485.046 Q148.089 489.629 148.089 498.379 Q148.089 507.106 145.01 511.712 Q141.955 516.295 136.145 516.295 Q130.334 516.295 127.256 511.712 Q124.2 507.106 124.2 498.379 Q124.2 489.629 127.256 485.046 Q130.334 480.439 136.145 480.439 Z" fill="#000000" fill-rule="nonzero" fill-opacity="1" /><path clip-path="url(#clip370)" d="M156.306 509.745 L161.191 509.745 L161.191 515.624 L156.306 515.624 L156.306 509.745 Z" fill="#000000" fill-rule="nonzero" fill-opacity="1" /><path clip-path="url(#clip370)" d="M184.223 485.138 L172.417 503.587 L184.223 503.587 L184.223 485.138 M182.996 481.064 L188.876 481.064 L188.876 503.587 L193.806 503.587 L193.806 507.476 L188.876 507.476 L188.876 515.624 L184.223 515.624 L184.223 507.476 L168.621 507.476 L168.621 502.962 L182.996 481.064 Z" fill="#000000" fill-rule="nonzero" fill-opacity="1" /><path clip-path="url(#clip370)" d="M136.469 238.577 Q132.858 238.577 131.029 242.142 Q129.223 245.683 129.223 252.813 Q129.223 259.919 131.029 263.484 Q132.858 267.026 136.469 267.026 Q140.103 267.026 141.908 263.484 Q143.737 259.919 143.737 252.813 Q143.737 245.683 141.908 242.142 Q140.103 238.577 136.469 238.577 M136.469 234.873 Q142.279 234.873 145.334 239.48 Q148.413 244.063 148.413 252.813 Q148.413 261.54 145.334 266.146 Q142.279 270.729 136.469 270.729 Q130.658 270.729 127.58 266.146 Q124.524 261.54 124.524 252.813 Q124.524 244.063 127.58 239.48 Q130.658 234.873 136.469 234.873 Z" fill="#000000" fill-rule="nonzero" fill-opacity="1" /><path clip-path="url(#clip370)" d="M156.631 264.179 L161.515 264.179 L161.515 270.058 L156.631 270.058 L156.631 264.179 Z" fill="#000000" fill-rule="nonzero" fill-opacity="1" /><path clip-path="url(#clip370)" d="M182.279 250.915 Q179.13 250.915 177.279 253.067 Q175.45 255.22 175.45 258.97 Q175.45 262.697 177.279 264.873 Q179.13 267.026 182.279 267.026 Q185.427 267.026 187.255 264.873 Q189.107 262.697 189.107 258.97 Q189.107 255.22 187.255 253.067 Q185.427 250.915 182.279 250.915 M191.561 236.262 L191.561 240.521 Q189.802 239.688 187.996 239.248 Q186.214 238.808 184.454 238.808 Q179.825 238.808 177.371 241.933 Q174.941 245.058 174.593 251.378 Q175.959 249.364 178.019 248.299 Q180.079 247.211 182.556 247.211 Q187.765 247.211 190.774 250.382 Q193.806 253.53 193.806 258.97 Q193.806 264.294 190.658 267.512 Q187.51 270.729 182.279 270.729 Q176.283 270.729 173.112 266.146 Q169.941 261.54 169.941 252.813 Q169.941 244.618 173.83 239.757 Q177.718 234.873 184.269 234.873 Q186.029 234.873 187.811 235.22 Q189.616 235.568 191.561 236.262 Z" fill="#000000" fill-rule="nonzero" fill-opacity="1" /><path clip-path="url(#clip370)" d="M71.553 534.688 Q73.2599 534.688 74.3549 535.816 Q75.4499 536.911 75.4499 538.328 Q75.4499 539.551 74.7414 540.196 Q74.0328 540.84 73.1311 540.84 Q71.8428 540.84 70.7801 539.841 Q69.7173 538.843 69.4918 537.394 Q68.7189 538.456 68.7189 540.163 Q68.7189 542.965 70.8767 545.445 Q71.8751 546.54 73.7108 547.732 Q75.5143 548.923 76.2873 549.149 L84.8862 551.242 Q85.8524 551.435 90.49 552.627 Q95.0955 553.786 95.2887 553.883 Q96.1905 554.205 96.6736 554.914 Q97.1567 555.622 97.1567 556.331 Q97.1567 557.136 96.6736 557.683 Q96.1905 558.231 95.3531 558.231 Q95.2243 558.231 94.7412 558.134 Q94.2581 558.038 93.5818 557.877 Q92.9055 557.716 92.519 557.651 L77.2856 553.819 Q74.5159 553.11 73.6464 552.949 Q72.7446 552.756 71.7462 552.756 Q70.0071 552.756 69.363 553.303 Q68.7189 553.851 68.7189 554.817 Q68.7189 556.492 70.7156 557.587 Q72.7124 558.682 76.5771 559.616 Q77.6399 559.906 77.8653 560.099 Q78.0908 560.26 78.0908 560.743 Q78.0586 561.548 77.4145 561.548 Q77.2534 561.548 76.2228 561.29 Q75.16 561.033 73.6142 560.55 Q72.0361 560.034 71.0377 559.487 Q70.3614 559.165 69.9105 558.875 Q69.4596 558.585 68.7511 558.005 Q68.0426 557.426 67.6561 556.556 Q67.2696 555.687 67.2696 554.624 Q67.2696 552.305 68.6867 550.662 Q70.1037 548.988 72.3259 548.601 Q71.1665 547.796 70.1681 546.798 Q69.1376 545.799 68.2036 543.964 Q67.2696 542.128 67.2696 540.163 Q67.2696 537.716 68.5256 536.202 Q69.7495 534.688 71.553 534.688 Z" fill="#000000" fill-rule="nonzero" fill-opacity="1" /><path clip-path="url(#clip370)" d="M76.6885 527.914 Q75.8544 527.914 75.6064 527.847 Q75.3584 527.756 74.9752 527.396 L65.1009 518.536 Q59.6452 513.689 54.8884 513.689 Q51.7998 513.689 49.5905 515.312 Q47.3812 516.913 47.3812 519.866 Q47.3812 521.895 48.6211 523.608 Q49.861 525.322 52.0704 526.111 Q52.0253 525.975 52.0253 525.502 Q52.0253 524.352 52.7467 523.721 Q53.4681 523.067 54.4375 523.067 Q55.6774 523.067 56.2861 523.879 Q56.8723 524.668 56.8723 525.457 Q56.8723 525.773 56.8046 526.201 Q56.737 526.607 56.1058 527.26 Q55.452 527.914 54.3022 527.914 Q51.0784 527.914 48.5084 525.479 Q45.9384 523.022 45.9384 519.28 Q45.9384 515.042 48.4633 512.269 Q50.9657 509.473 54.8884 509.473 Q56.2636 509.473 57.526 509.902 Q58.766 510.307 59.7354 510.871 Q60.7048 511.412 62.2603 512.9 Q63.8158 514.388 64.9205 515.583 Q66.0252 516.777 68.3697 519.46 L73.1266 524.352 L73.1266 516.034 Q73.1266 511.976 72.7658 511.66 Q72.1121 511.209 68.6628 510.645 L68.6628 509.473 L76.6885 510.781 L76.6885 527.914 Z" fill="#000000" fill-rule="nonzero" fill-opacity="1" /><polyline clip-path="url(#clip373)" style="stroke:#009af9; stroke-linecap:round; stroke-linejoin:round; stroke-width:4; stroke-opacity:1; fill:none" points="255.588,989.476 381.527,492.866 507.465,291.915 633.404,166.646 759.342,127.32 885.281,91.6809 1011.22,94.9585 1137.16,98.2536 1263.1,102.448 1389.04,105.716 1514.97,110.244 "/>
<polyline clip-path="url(#clip373)" style="stroke:#e26f46; stroke-linecap:round; stroke-linejoin:round; stroke-width:4; stroke-opacity:1; fill:none" points="255.588,74.6877 381.527,74.6877 507.465,74.6877 633.404,74.6877 759.342,74.6877 885.281,74.6877 1011.22,74.6877 1137.16,74.6877 1263.1,74.6877 1389.04,74.6877 1514.97,74.6877 "/>
<path clip-path="url(#clip370)" d="M1216 984.597 L1508.26 984.597 L1508.26 880.917 L1216 880.917  Z" fill="#ffffff" fill-rule="evenodd" fill-opacity="1"/>
<polyline clip-path="url(#clip370)" style="stroke:#000000; stroke-linecap:round; stroke-linejoin:round; stroke-width:4; stroke-opacity:1; fill:none" points="1216,984.597 1508.26,984.597 1508.26,880.917 1216,880.917 1216,984.597 "/>
<polyline clip-path="url(#clip370)" style="stroke:#e26f46; stroke-linecap:round; stroke-linejoin:round; stroke-width:4; stroke-opacity:1; fill:none" points="1230.83,932.757 1319.83,932.757 "/>
<path clip-path="url(#clip370)" d="M1334.66 916.18 L1363.9 916.18 L1363.9 920.115 L1351.63 920.115 L1351.63 950.74 L1346.93 950.74 L1346.93 920.115 L1334.66 920.115 L1334.66 916.18 Z" fill="#000000" fill-rule="nonzero" fill-opacity="1" /><path clip-path="url(#clip370)" d="M1376.28 928.795 Q1375.56 928.379 1374.71 928.194 Q1373.87 927.985 1372.86 927.985 Q1369.24 927.985 1367.3 930.346 Q1365.38 932.684 1365.38 937.082 L1365.38 950.74 L1361.1 950.74 L1361.1 924.814 L1365.38 924.814 L1365.38 928.842 Q1366.72 926.481 1368.87 925.346 Q1371.03 924.189 1374.11 924.189 Q1374.54 924.189 1375.08 924.258 Q1375.61 924.305 1376.26 924.42 L1376.28 928.795 Z" fill="#000000" fill-rule="nonzero" fill-opacity="1" /><path clip-path="url(#clip370)" d="M1380.31 940.508 L1380.31 924.814 L1384.57 924.814 L1384.57 940.346 Q1384.57 944.027 1386 945.879 Q1387.44 947.707 1390.31 947.707 Q1393.76 947.707 1395.75 945.508 Q1397.76 943.309 1397.76 939.513 L1397.76 924.814 L1402.02 924.814 L1402.02 950.74 L1397.76 950.74 L1397.76 946.758 Q1396.21 949.119 1394.15 950.277 Q1392.11 951.411 1389.41 951.411 Q1384.94 951.411 1382.62 948.633 Q1380.31 945.855 1380.31 940.508 M1391.03 924.189 L1391.03 924.189 Z" fill="#000000" fill-rule="nonzero" fill-opacity="1" /><path clip-path="url(#clip370)" d="M1432.97 936.712 L1432.97 938.795 L1413.39 938.795 Q1413.66 943.193 1416.03 945.508 Q1418.41 947.8 1422.65 947.8 Q1425.1 947.8 1427.39 947.198 Q1429.71 946.596 1431.98 945.393 L1431.98 949.42 Q1429.68 950.392 1427.28 950.902 Q1424.87 951.411 1422.39 951.411 Q1416.19 951.411 1412.55 947.8 Q1408.94 944.189 1408.94 938.031 Q1408.94 931.666 1412.37 927.939 Q1415.82 924.189 1421.65 924.189 Q1426.88 924.189 1429.91 927.569 Q1432.97 930.925 1432.97 936.712 M1428.71 935.462 Q1428.66 931.967 1426.74 929.883 Q1424.85 927.8 1421.7 927.8 Q1418.13 927.8 1415.98 929.814 Q1413.85 931.828 1413.53 935.485 L1428.71 935.462 Z" fill="#000000" fill-rule="nonzero" fill-opacity="1" /><path clip-path="url(#clip370)" d="M1470.1 932.658 Q1470.1 933.899 1469.28 934.695 Q1468.48 935.492 1467.45 935.492 Q1466.56 935.492 1466.09 934.976 Q1465.62 934.461 1465.62 933.805 Q1465.62 932.868 1466.35 932.095 Q1467.08 931.323 1468.13 931.159 Q1467.36 930.596 1466.12 930.596 Q1464.08 930.596 1462.27 932.166 Q1461.48 932.892 1460.61 934.227 Q1459.74 935.539 1459.58 936.101 L1458.06 942.354 Q1457.92 943.057 1457.05 946.43 Q1456.21 949.779 1456.14 949.92 Q1455.9 950.576 1455.39 950.927 Q1454.87 951.278 1454.36 951.278 Q1453.77 951.278 1453.37 950.927 Q1452.98 950.576 1452.98 949.967 Q1452.98 949.873 1453.05 949.522 Q1453.12 949.17 1453.23 948.679 Q1453.35 948.187 1453.4 947.906 L1456.18 936.827 Q1456.7 934.812 1456.82 934.18 Q1456.96 933.524 1456.96 932.798 Q1456.96 931.533 1456.56 931.065 Q1456.16 930.596 1455.46 930.596 Q1454.24 930.596 1453.44 932.049 Q1452.65 933.501 1451.97 936.311 Q1451.76 937.084 1451.62 937.248 Q1451.5 937.412 1451.15 937.412 Q1450.56 937.389 1450.56 936.92 Q1450.56 936.803 1450.75 936.054 Q1450.94 935.281 1451.29 934.157 Q1451.66 933.009 1452.06 932.283 Q1452.3 931.791 1452.51 931.463 Q1452.72 931.135 1453.14 930.62 Q1453.56 930.105 1454.19 929.823 Q1454.83 929.542 1455.6 929.542 Q1457.29 929.542 1458.48 930.573 Q1459.7 931.604 1459.98 933.22 Q1460.56 932.377 1461.29 931.65 Q1462.02 930.901 1463.35 930.222 Q1464.69 929.542 1466.12 929.542 Q1467.9 929.542 1469 930.456 Q1470.1 931.346 1470.1 932.658 Z" fill="#000000" fill-rule="nonzero" fill-opacity="1" /><path clip-path="url(#clip370)" d="M1475.03 936.396 Q1475.03 935.789 1475.08 935.609 Q1475.14 935.428 1475.4 935.15 L1481.85 927.968 Q1485.37 924.001 1485.37 920.541 Q1485.37 918.295 1484.19 916.688 Q1483.03 915.081 1480.88 915.081 Q1479.4 915.081 1478.16 915.983 Q1476.91 916.885 1476.34 918.492 Q1476.44 918.459 1476.78 918.459 Q1477.62 918.459 1478.08 918.984 Q1478.55 919.508 1478.55 920.213 Q1478.55 921.115 1477.96 921.558 Q1477.39 921.984 1476.81 921.984 Q1476.58 921.984 1476.27 921.935 Q1475.98 921.886 1475.5 921.426 Q1475.03 920.951 1475.03 920.115 Q1475.03 917.77 1476.8 915.901 Q1478.58 914.032 1481.31 914.032 Q1484.39 914.032 1486.41 915.868 Q1488.44 917.688 1488.44 920.541 Q1488.44 921.541 1488.13 922.459 Q1487.83 923.361 1487.42 924.066 Q1487.03 924.771 1485.95 925.902 Q1484.86 927.034 1484 927.837 Q1483.13 928.641 1481.18 930.346 L1477.62 933.805 L1483.67 933.805 Q1486.62 933.805 1486.85 933.543 Q1487.18 933.067 1487.59 930.559 L1488.44 930.559 L1487.49 936.396 L1475.03 936.396 Z" fill="#000000" fill-rule="nonzero" fill-opacity="1" /></svg>
