<?xml version="1.0" encoding="utf-8"?>
<svg xmlns="http://www.w3.org/2000/svg" xmlns:xlink="http://www.w3.org/1999/xlink" width="600" height="400" viewBox="0 0 2400 1600">
<defs>
  <clipPath id="clip830">
    <rect x="0" y="0" width="2400" height="1600"/>
  </clipPath>
</defs>
<path clip-path="url(#clip830)" d="M0 1600 L2400 1600 L2400 0 L0 0  Z" fill="#ffffff" fill-rule="evenodd" fill-opacity="1"/>
<defs>
  <clipPath id="clip831">
    <rect x="480" y="0" width="1681" height="1600"/>
  </clipPath>
</defs>
<path clip-path="url(#clip830)" d="M147.478 1486.45 L2352.76 1486.45 L2352.76 47.2441 L147.478 47.2441  Z" fill="#ffffff" fill-rule="evenodd" fill-opacity="1"/>
<defs>
  <clipPath id="clip832">
    <rect x="147" y="47" width="2206" height="1440"/>
  </clipPath>
</defs>
<polyline clip-path="url(#clip832)" style="stroke:#000000; stroke-linecap:round; stroke-linejoin:round; stroke-width:2; stroke-opacity:0.1; fill:none" points="209.891,1486.45 209.891,47.2441 "/>
<polyline clip-path="url(#clip832)" style="stroke:#000000; stroke-linecap:round; stroke-linejoin:round; stroke-width:2; stroke-opacity:0.1; fill:none" points="730.004,1486.45 730.004,47.2441 "/>
<polyline clip-path="url(#clip832)" style="stroke:#000000; stroke-linecap:round; stroke-linejoin:round; stroke-width:2; stroke-opacity:0.1; fill:none" points="1250.12,1486.45 1250.12,47.2441 "/>
<polyline clip-path="url(#clip832)" style="stroke:#000000; stroke-linecap:round; stroke-linejoin:round; stroke-width:2; stroke-opacity:0.1; fill:none" points="1770.23,1486.45 1770.23,47.2441 "/>
<polyline clip-path="url(#clip832)" style="stroke:#000000; stroke-linecap:round; stroke-linejoin:round; stroke-width:2; stroke-opacity:0.1; fill:none" points="2290.34,1486.45 2290.34,47.2441 "/>
<polyline clip-path="url(#clip830)" style="stroke:#000000; stroke-linecap:round; stroke-linejoin:round; stroke-width:4; stroke-opacity:1; fill:none" points="147.478,1486.45 2352.76,1486.45 "/>
<polyline clip-path="url(#clip830)" style="stroke:#000000; stroke-linecap:round; stroke-linejoin:round; stroke-width:4; stroke-opacity:1; fill:none" points="209.891,1486.45 209.891,1467.55 "/>
<polyline clip-path="url(#clip830)" style="stroke:#000000; stroke-linecap:round; stroke-linejoin:round; stroke-width:4; stroke-opacity:1; fill:none" points="730.004,1486.45 730.004,1467.55 "/>
<polyline clip-path="url(#clip830)" style="stroke:#000000; stroke-linecap:round; stroke-linejoin:round; stroke-width:4; stroke-opacity:1; fill:none" points="1250.12,1486.45 1250.12,1467.55 "/>
<polyline clip-path="url(#clip830)" style="stroke:#000000; stroke-linecap:round; stroke-linejoin:round; stroke-width:4; stroke-opacity:1; fill:none" points="1770.23,1486.45 1770.23,1467.55 "/>
<polyline clip-path="url(#clip830)" style="stroke:#000000; stroke-linecap:round; stroke-linejoin:round; stroke-width:4; stroke-opacity:1; fill:none" points="2290.34,1486.45 2290.34,1467.55 "/>
<path clip-path="url(#clip830)" d="M179.834 1532.02 L209.509 1532.02 L209.509 1535.95 L179.834 1535.95 L179.834 1532.02 Z" fill="#000000" fill-rule="nonzero" fill-opacity="1" /><path clip-path="url(#clip830)" d="M223.63 1544.91 L239.949 1544.91 L239.949 1548.85 L218.005 1548.85 L218.005 1544.91 Q220.667 1542.16 225.25 1537.53 Q229.857 1532.88 231.037 1531.53 Q233.283 1529.01 234.162 1527.27 Q235.065 1525.51 235.065 1523.82 Q235.065 1521.07 233.12 1519.33 Q231.199 1517.6 228.097 1517.6 Q225.898 1517.6 223.445 1518.36 Q221.014 1519.13 218.236 1520.68 L218.236 1515.95 Q221.06 1514.82 223.514 1514.24 Q225.968 1513.66 228.005 1513.66 Q233.375 1513.66 236.57 1516.35 Q239.764 1519.03 239.764 1523.52 Q239.764 1525.65 238.954 1527.57 Q238.167 1529.47 236.06 1532.07 Q235.482 1532.74 232.38 1535.95 Q229.278 1539.15 223.63 1544.91 Z" fill="#000000" fill-rule="nonzero" fill-opacity="1" /><path clip-path="url(#clip830)" d="M699.761 1532.02 L729.437 1532.02 L729.437 1535.95 L699.761 1535.95 L699.761 1532.02 Z" fill="#000000" fill-rule="nonzero" fill-opacity="1" /><path clip-path="url(#clip830)" d="M740.34 1544.91 L747.979 1544.91 L747.979 1518.55 L739.668 1520.21 L739.668 1515.95 L747.932 1514.29 L752.608 1514.29 L752.608 1544.91 L760.247 1544.91 L760.247 1548.85 L740.34 1548.85 L740.34 1544.91 Z" fill="#000000" fill-rule="nonzero" fill-opacity="1" /><path clip-path="url(#clip830)" d="M1250.12 1517.37 Q1246.51 1517.37 1244.68 1520.93 Q1242.87 1524.47 1242.87 1531.6 Q1242.87 1538.71 1244.68 1542.27 Q1246.51 1545.82 1250.12 1545.82 Q1253.75 1545.82 1255.56 1542.27 Q1257.39 1538.71 1257.39 1531.6 Q1257.39 1524.47 1255.56 1520.93 Q1253.75 1517.37 1250.12 1517.37 M1250.12 1513.66 Q1255.93 1513.66 1258.98 1518.27 Q1262.06 1522.85 1262.06 1531.6 Q1262.06 1540.33 1258.98 1544.94 Q1255.93 1549.52 1250.12 1549.52 Q1244.31 1549.52 1241.23 1544.94 Q1238.17 1540.33 1238.17 1531.6 Q1238.17 1522.85 1241.23 1518.27 Q1244.31 1513.66 1250.12 1513.66 Z" fill="#000000" fill-rule="nonzero" fill-opacity="1" /><path clip-path="url(#clip830)" d="M1760.61 1544.91 L1768.25 1544.91 L1768.25 1518.55 L1759.94 1520.21 L1759.94 1515.95 L1768.2 1514.29 L1772.88 1514.29 L1772.88 1544.91 L1780.52 1544.91 L1780.52 1548.85 L1760.61 1548.85 L1760.61 1544.91 Z" fill="#000000" fill-rule="nonzero" fill-opacity="1" /><path clip-path="url(#clip830)" d="M2285 1544.91 L2301.31 1544.91 L2301.31 1548.85 L2279.37 1548.85 L2279.37 1544.91 Q2282.03 1542.16 2286.62 1537.53 Q2291.22 1532.88 2292.4 1531.53 Q2294.65 1529.01 2295.53 1527.27 Q2296.43 1525.51 2296.43 1523.82 Q2296.43 1521.07 2294.49 1519.33 Q2292.56 1517.6 2289.46 1517.6 Q2287.26 1517.6 2284.81 1518.36 Q2282.38 1519.13 2279.6 1520.68 L2279.6 1515.95 Q2282.43 1514.82 2284.88 1514.24 Q2287.33 1513.66 2289.37 1513.66 Q2294.74 1513.66 2297.93 1516.35 Q2301.13 1519.03 2301.13 1523.52 Q2301.13 1525.65 2300.32 1527.57 Q2299.53 1529.47 2297.43 1532.07 Q2296.85 1532.74 2293.75 1535.95 Q2290.64 1539.15 2285 1544.91 Z" fill="#000000" fill-rule="nonzero" fill-opacity="1" /><polyline clip-path="url(#clip832)" style="stroke:#000000; stroke-linecap:round; stroke-linejoin:round; stroke-width:2; stroke-opacity:0.1; fill:none" points="147.478,1234.17 2352.76,1234.17 "/>
<polyline clip-path="url(#clip832)" style="stroke:#000000; stroke-linecap:round; stroke-linejoin:round; stroke-width:2; stroke-opacity:0.1; fill:none" points="147.478,944.164 2352.76,944.164 "/>
<polyline clip-path="url(#clip832)" style="stroke:#000000; stroke-linecap:round; stroke-linejoin:round; stroke-width:2; stroke-opacity:0.1; fill:none" points="147.478,654.163 2352.76,654.163 "/>
<polyline clip-path="url(#clip832)" style="stroke:#000000; stroke-linecap:round; stroke-linejoin:round; stroke-width:2; stroke-opacity:0.1; fill:none" points="147.478,364.163 2352.76,364.163 "/>
<polyline clip-path="url(#clip832)" style="stroke:#000000; stroke-linecap:round; stroke-linejoin:round; stroke-width:2; stroke-opacity:0.1; fill:none" points="147.478,74.1617 2352.76,74.1617 "/>
<polyline clip-path="url(#clip830)" style="stroke:#000000; stroke-linecap:round; stroke-linejoin:round; stroke-width:4; stroke-opacity:1; fill:none" points="147.478,1486.45 147.478,47.2441 "/>
<polyline clip-path="url(#clip830)" style="stroke:#000000; stroke-linecap:round; stroke-linejoin:round; stroke-width:4; stroke-opacity:1; fill:none" points="147.478,1234.17 166.376,1234.17 "/>
<polyline clip-path="url(#clip830)" style="stroke:#000000; stroke-linecap:round; stroke-linejoin:round; stroke-width:4; stroke-opacity:1; fill:none" points="147.478,944.164 166.376,944.164 "/>
<polyline clip-path="url(#clip830)" style="stroke:#000000; stroke-linecap:round; stroke-linejoin:round; stroke-width:4; stroke-opacity:1; fill:none" points="147.478,654.163 166.376,654.163 "/>
<polyline clip-path="url(#clip830)" style="stroke:#000000; stroke-linecap:round; stroke-linejoin:round; stroke-width:4; stroke-opacity:1; fill:none" points="147.478,364.163 166.376,364.163 "/>
<polyline clip-path="url(#clip830)" style="stroke:#000000; stroke-linecap:round; stroke-linejoin:round; stroke-width:4; stroke-opacity:1; fill:none" points="147.478,74.1617 166.376,74.1617 "/>
<path clip-path="url(#clip830)" d="M51.3625 1234.62 L81.0383 1234.62 L81.0383 1238.55 L51.3625 1238.55 L51.3625 1234.62 Z" fill="#000000" fill-rule="nonzero" fill-opacity="1" /><path clip-path="url(#clip830)" d="M95.1586 1247.51 L111.478 1247.51 L111.478 1251.45 L89.5336 1251.45 L89.5336 1247.51 Q92.1956 1244.76 96.7789 1240.13 Q101.385 1235.47 102.566 1234.13 Q104.811 1231.61 105.691 1229.87 Q106.594 1228.11 106.594 1226.42 Q106.594 1223.67 104.649 1221.93 Q102.728 1220.2 99.6261 1220.2 Q97.4271 1220.2 94.9734 1220.96 Q92.5428 1221.72 89.7651 1223.27 L89.7651 1218.55 Q92.5891 1217.42 95.0428 1216.84 Q97.4965 1216.26 99.5335 1216.26 Q104.904 1216.26 108.098 1218.95 Q111.293 1221.63 111.293 1226.12 Q111.293 1228.25 110.483 1230.17 Q109.696 1232.07 107.589 1234.66 Q107.01 1235.33 103.909 1238.55 Q100.807 1241.75 95.1586 1247.51 Z" fill="#000000" fill-rule="nonzero" fill-opacity="1" /><path clip-path="url(#clip830)" d="M50.9921 944.616 L80.6679 944.616 L80.6679 948.551 L50.9921 948.551 L50.9921 944.616 Z" fill="#000000" fill-rule="nonzero" fill-opacity="1" /><path clip-path="url(#clip830)" d="M91.5706 957.509 L99.2095 957.509 L99.2095 931.144 L90.8993 932.81 L90.8993 928.551 L99.1632 926.884 L103.839 926.884 L103.839 957.509 L111.478 957.509 L111.478 961.444 L91.5706 961.444 L91.5706 957.509 Z" fill="#000000" fill-rule="nonzero" fill-opacity="1" /><path clip-path="url(#clip830)" d="M99.5335 639.962 Q95.9224 639.962 94.0937 643.527 Q92.2882 647.069 92.2882 654.198 Q92.2882 661.305 94.0937 664.869 Q95.9224 668.411 99.5335 668.411 Q103.168 668.411 104.973 664.869 Q106.802 661.305 106.802 654.198 Q106.802 647.069 104.973 643.527 Q103.168 639.962 99.5335 639.962 M99.5335 636.258 Q105.344 636.258 108.399 640.865 Q111.478 645.448 111.478 654.198 Q111.478 662.925 108.399 667.531 Q105.344 672.115 99.5335 672.115 Q93.7234 672.115 90.6447 667.531 Q87.5892 662.925 87.5892 654.198 Q87.5892 645.448 90.6447 640.865 Q93.7234 636.258 99.5335 636.258 Z" fill="#000000" fill-rule="nonzero" fill-opacity="1" /><path clip-path="url(#clip830)" d="M91.5706 377.507 L99.2095 377.507 L99.2095 351.142 L90.8993 352.808 L90.8993 348.549 L99.1632 346.883 L103.839 346.883 L103.839 377.507 L111.478 377.507 L111.478 381.443 L91.5706 381.443 L91.5706 377.507 Z" fill="#000000" fill-rule="nonzero" fill-opacity="1" /><path clip-path="url(#clip830)" d="M95.1586 87.5066 L111.478 87.5066 L111.478 91.4417 L89.5336 91.4417 L89.5336 87.5066 Q92.1956 84.7519 96.7789 80.1223 Q101.385 75.4696 102.566 74.127 Q104.811 71.6039 105.691 69.8678 Q106.594 68.1085 106.594 66.4187 Q106.594 63.6641 104.649 61.928 Q102.728 60.1919 99.6261 60.1919 Q97.4271 60.1919 94.9734 60.9558 Q92.5428 61.7197 89.7651 63.2706 L89.7651 58.5484 Q92.5891 57.4141 95.0428 56.8354 Q97.4965 56.2567 99.5335 56.2567 Q104.904 56.2567 108.098 58.9419 Q111.293 61.6271 111.293 66.1178 Q111.293 68.2474 110.483 70.1687 Q109.696 72.0668 107.589 74.6594 Q107.01 75.3307 103.909 78.5483 Q100.807 81.7427 95.1586 87.5066 Z" fill="#000000" fill-rule="nonzero" fill-opacity="1" /><polyline clip-path="url(#clip832)" style="stroke:#009af9; stroke-linecap:round; stroke-linejoin:round; stroke-width:4; stroke-opacity:1; fill:none" points="209.891,87.9763 313.914,141.666 417.937,195.355 521.959,249.045 625.982,302.735 730.004,356.424 834.027,410.114 938.049,463.804 1042.07,517.493 1146.09,571.183 1250.12,639.056 1354.14,719.722 1458.16,800.388 1562.18,881.054 1666.21,961.72 1770.23,1042.39 1874.25,1123.05 1978.27,1203.72 2082.3,1284.38 2186.32,1365.05 2290.34,1445.72 "/>
<path clip-path="url(#clip830)" d="M2006.29 198.898 L2279.25 198.898 L2279.25 95.2176 L2006.29 95.2176  Z" fill="#ffffff" fill-rule="evenodd" fill-opacity="1"/>
<polyline clip-path="url(#clip830)" style="stroke:#000000; stroke-linecap:round; stroke-linejoin:round; stroke-width:4; stroke-opacity:1; fill:none" points="2006.29,198.898 2279.25,198.898 2279.25,95.2176 2006.29,95.2176 2006.29,198.898 "/>
<polyline clip-path="url(#clip830)" style="stroke:#009af9; stroke-linecap:round; stroke-linejoin:round; stroke-width:4; stroke-opacity:1; fill:none" points="2030.79,147.058 2177.81,147.058 "/>
<path clip-path="url(#clip830)" d="M2216.16 166.745 Q2214.35 171.375 2212.64 172.787 Q2210.92 174.199 2208.05 174.199 L2204.65 174.199 L2204.65 170.634 L2207.15 170.634 Q2208.91 170.634 2209.88 169.8 Q2210.85 168.967 2212.04 165.865 L2212.8 163.921 L2202.31 138.412 L2206.83 138.412 L2214.93 158.689 L2223.03 138.412 L2227.54 138.412 L2216.16 166.745 Z" fill="#000000" fill-rule="nonzero" fill-opacity="1" /><path clip-path="url(#clip830)" d="M2234.84 160.402 L2242.48 160.402 L2242.48 134.037 L2234.16 135.703 L2234.16 131.444 L2242.43 129.778 L2247.1 129.778 L2247.1 160.402 L2254.74 160.402 L2254.74 164.338 L2234.84 164.338 L2234.84 160.402 Z" fill="#000000" fill-rule="nonzero" fill-opacity="1" /></svg>
