<?xml version="1.0" encoding="utf-8"?>
<svg xmlns="http://www.w3.org/2000/svg" xmlns:xlink="http://www.w3.org/1999/xlink" width="200" height="200" viewBox="0 0 800 800">
<defs>
  <clipPath id="clip060">
    <rect x="0" y="0" width="800" height="800"/>
  </clipPath>
</defs>
<path clip-path="url(#clip060)" d="M0 800 L800 800 L800 0 L0 0  Z" fill="#ffffff" fill-rule="evenodd" fill-opacity="1"/>
<defs>
  <clipPath id="clip061">
    <rect x="160" y="80" width="561" height="561"/>
  </clipPath>
</defs>
<path clip-path="url(#clip060)" d="M96.1772 677.168 L752.756 677.168 L752.756 47.2441 L96.1772 47.2441  Z" fill="#ffffff" fill-rule="evenodd" fill-opacity="1"/>
<defs>
  <clipPath id="clip062">
    <rect x="96" y="47" width="658" height="631"/>
  </clipPath>
</defs>
<polyline clip-path="url(#clip062)" style="stroke:#000000; stroke-linecap:round; stroke-linejoin:round; stroke-width:2; stroke-opacity:0.1; fill:none" points="114.76,677.168 114.76,47.2441 "/>
<polyline clip-path="url(#clip062)" style="stroke:#000000; stroke-linecap:round; stroke-linejoin:round; stroke-width:2; stroke-opacity:0.1; fill:none" points="269.613,677.168 269.613,47.2441 "/>
<polyline clip-path="url(#clip062)" style="stroke:#000000; stroke-linecap:round; stroke-linejoin:round; stroke-width:2; stroke-opacity:0.1; fill:none" points="424.467,677.168 424.467,47.2441 "/>
<polyline clip-path="url(#clip062)" style="stroke:#000000; stroke-linecap:round; stroke-linejoin:round; stroke-width:2; stroke-opacity:0.1; fill:none" points="579.32,677.168 579.32,47.2441 "/>
<polyline clip-path="url(#clip062)" style="stroke:#000000; stroke-linecap:round; stroke-linejoin:round; stroke-width:2; stroke-opacity:0.1; fill:none" points="734.173,677.168 734.173,47.2441 "/>
<polyline clip-path="url(#clip060)" style="stroke:#000000; stroke-linecap:round; stroke-linejoin:round; stroke-width:4; stroke-opacity:1; fill:none" points="96.1772,677.168 752.756,677.168 "/>
<polyline clip-path="url(#clip060)" style="stroke:#000000; stroke-linecap:round; stroke-linejoin:round; stroke-width:4; stroke-opacity:1; fill:none" points="114.76,677.168 114.76,658.27 "/>
<polyline clip-path="url(#clip060)" style="stroke:#000000; stroke-linecap:round; stroke-linejoin:round; stroke-width:4; stroke-opacity:1; fill:none" points="269.613,677.168 269.613,658.27 "/>
<polyline clip-path="url(#clip060)" style="stroke:#000000; stroke-linecap:round; stroke-linejoin:round; stroke-width:4; stroke-opacity:1; fill:none" points="424.467,677.168 424.467,658.27 "/>
<polyline clip-path="url(#clip060)" style="stroke:#000000; stroke-linecap:round; stroke-linejoin:round; stroke-width:4; stroke-opacity:1; fill:none" points="579.32,677.168 579.32,658.27 "/>
<polyline clip-path="url(#clip060)" style="stroke:#000000; stroke-linecap:round; stroke-linejoin:round; stroke-width:4; stroke-opacity:1; fill:none" points="734.173,677.168 734.173,658.27 "/>
<path clip-path="url(#clip060)" d="M84.7019 709.939 L114.378 709.939 L114.378 713.874 L84.7019 713.874 L84.7019 709.939 Z" fill="#000000" fill-rule="nonzero" fill-opacity="1" /><path clip-path="url(#clip060)" d="M128.498 722.833 L144.817 722.833 L144.817 726.768 L122.873 726.768 L122.873 722.833 Q125.535 720.078 130.118 715.448 Q134.725 710.796 135.905 709.453 Q138.151 706.93 139.03 705.194 Q139.933 703.435 139.933 701.745 Q139.933 698.99 137.989 697.254 Q136.067 695.518 132.966 695.518 Q130.766 695.518 128.313 696.282 Q125.882 697.046 123.104 698.597 L123.104 693.875 Q125.929 692.74 128.382 692.162 Q130.836 691.583 132.873 691.583 Q138.243 691.583 141.438 694.268 Q144.632 696.953 144.632 701.444 Q144.632 703.574 143.822 705.495 Q143.035 707.393 140.928 709.986 Q140.35 710.657 137.248 713.874 Q134.146 717.069 128.498 722.833 Z" fill="#000000" fill-rule="nonzero" fill-opacity="1" /><path clip-path="url(#clip060)" d="M239.37 709.939 L269.046 709.939 L269.046 713.874 L239.37 713.874 L239.37 709.939 Z" fill="#000000" fill-rule="nonzero" fill-opacity="1" /><path clip-path="url(#clip060)" d="M279.949 722.833 L287.588 722.833 L287.588 696.467 L279.277 698.134 L279.277 693.875 L287.541 692.208 L292.217 692.208 L292.217 722.833 L299.856 722.833 L299.856 726.768 L279.949 726.768 L279.949 722.833 Z" fill="#000000" fill-rule="nonzero" fill-opacity="1" /><path clip-path="url(#clip060)" d="M424.467 695.287 Q420.855 695.287 419.027 698.851 Q417.221 702.393 417.221 709.523 Q417.221 716.629 419.027 720.194 Q420.855 723.735 424.467 723.735 Q428.101 723.735 429.906 720.194 Q431.735 716.629 431.735 709.523 Q431.735 702.393 429.906 698.851 Q428.101 695.287 424.467 695.287 M424.467 691.583 Q430.277 691.583 433.332 696.189 Q436.411 700.773 436.411 709.523 Q436.411 718.249 433.332 722.856 Q430.277 727.439 424.467 727.439 Q418.656 727.439 415.578 722.856 Q412.522 718.249 412.522 709.523 Q412.522 700.773 415.578 696.189 Q418.656 691.583 424.467 691.583 Z" fill="#000000" fill-rule="nonzero" fill-opacity="1" /><path clip-path="url(#clip060)" d="M569.702 722.833 L577.341 722.833 L577.341 696.467 L569.031 698.134 L569.031 693.875 L577.295 692.208 L581.97 692.208 L581.97 722.833 L589.609 722.833 L589.609 726.768 L569.702 726.768 L569.702 722.833 Z" fill="#000000" fill-rule="nonzero" fill-opacity="1" /><path clip-path="url(#clip060)" d="M728.826 722.833 L745.146 722.833 L745.146 726.768 L723.201 726.768 L723.201 722.833 Q725.863 720.078 730.447 715.448 Q735.053 710.796 736.234 709.453 Q738.479 706.93 739.359 705.194 Q740.261 703.435 740.261 701.745 Q740.261 698.99 738.317 697.254 Q736.396 695.518 733.294 695.518 Q731.095 695.518 728.641 696.282 Q726.211 697.046 723.433 698.597 L723.433 693.875 Q726.257 692.74 728.711 692.162 Q731.164 691.583 733.201 691.583 Q738.572 691.583 741.766 694.268 Q744.96 696.953 744.96 701.444 Q744.96 703.574 744.15 705.495 Q743.363 707.393 741.257 709.986 Q740.678 710.657 737.576 713.874 Q734.474 717.069 728.826 722.833 Z" fill="#000000" fill-rule="nonzero" fill-opacity="1" /><polyline clip-path="url(#clip062)" style="stroke:#000000; stroke-linecap:round; stroke-linejoin:round; stroke-width:2; stroke-opacity:0.1; fill:none" points="96.1772,655.792 752.756,655.792 "/>
<polyline clip-path="url(#clip062)" style="stroke:#000000; stroke-linecap:round; stroke-linejoin:round; stroke-width:2; stroke-opacity:0.1; fill:none" points="96.1772,519.68 752.756,519.68 "/>
<polyline clip-path="url(#clip062)" style="stroke:#000000; stroke-linecap:round; stroke-linejoin:round; stroke-width:2; stroke-opacity:0.1; fill:none" points="96.1772,383.568 752.756,383.568 "/>
<polyline clip-path="url(#clip062)" style="stroke:#000000; stroke-linecap:round; stroke-linejoin:round; stroke-width:2; stroke-opacity:0.1; fill:none" points="96.1772,247.457 752.756,247.457 "/>
<polyline clip-path="url(#clip062)" style="stroke:#000000; stroke-linecap:round; stroke-linejoin:round; stroke-width:2; stroke-opacity:0.1; fill:none" points="96.1772,111.345 752.756,111.345 "/>
<polyline clip-path="url(#clip060)" style="stroke:#000000; stroke-linecap:round; stroke-linejoin:round; stroke-width:4; stroke-opacity:1; fill:none" points="96.1772,677.168 96.1772,47.2441 "/>
<polyline clip-path="url(#clip060)" style="stroke:#000000; stroke-linecap:round; stroke-linejoin:round; stroke-width:4; stroke-opacity:1; fill:none" points="96.1772,655.792 115.075,655.792 "/>
<polyline clip-path="url(#clip060)" style="stroke:#000000; stroke-linecap:round; stroke-linejoin:round; stroke-width:4; stroke-opacity:1; fill:none" points="96.1772,519.68 115.075,519.68 "/>
<polyline clip-path="url(#clip060)" style="stroke:#000000; stroke-linecap:round; stroke-linejoin:round; stroke-width:4; stroke-opacity:1; fill:none" points="96.1772,383.568 115.075,383.568 "/>
<polyline clip-path="url(#clip060)" style="stroke:#000000; stroke-linecap:round; stroke-linejoin:round; stroke-width:4; stroke-opacity:1; fill:none" points="96.1772,247.457 115.075,247.457 "/>
<polyline clip-path="url(#clip060)" style="stroke:#000000; stroke-linecap:round; stroke-linejoin:round; stroke-width:4; stroke-opacity:1; fill:none" points="96.1772,111.345 115.075,111.345 "/>
<path clip-path="url(#clip060)" d="M72.2328 641.591 Q68.6217 641.591 66.793 645.155 Q64.9875 648.697 64.9875 655.827 Q64.9875 662.933 66.793 666.498 Q68.6217 670.039 72.2328 670.039 Q75.867 670.039 77.6726 666.498 Q79.5013 662.933 79.5013 655.827 Q79.5013 648.697 77.6726 645.155 Q75.867 641.591 72.2328 641.591 M72.2328 637.887 Q78.0429 637.887 81.0985 642.493 Q84.1772 647.077 84.1772 655.827 Q84.1772 664.553 81.0985 669.16 Q78.0429 673.743 72.2328 673.743 Q66.4226 673.743 63.344 669.16 Q60.2884 664.553 60.2884 655.827 Q60.2884 647.077 63.344 642.493 Q66.4226 637.887 72.2328 637.887 Z" fill="#000000" fill-rule="nonzero" fill-opacity="1" /><path clip-path="url(#clip060)" d="M64.2699 533.025 L71.9087 533.025 L71.9087 506.659 L63.5986 508.326 L63.5986 504.067 L71.8624 502.4 L76.5383 502.4 L76.5383 533.025 L84.1772 533.025 L84.1772 536.96 L64.2699 536.96 L64.2699 533.025 Z" fill="#000000" fill-rule="nonzero" fill-opacity="1" /><path clip-path="url(#clip060)" d="M67.8578 396.913 L84.1772 396.913 L84.1772 400.848 L62.2328 400.848 L62.2328 396.913 Q64.8949 394.159 69.4782 389.529 Q74.0846 384.876 75.2652 383.534 Q77.5105 381.011 78.3902 379.274 Q79.2929 377.515 79.2929 375.825 Q79.2929 373.071 77.3485 371.335 Q75.4272 369.599 72.3254 369.599 Q70.1263 369.599 67.6726 370.362 Q65.2421 371.126 62.4643 372.677 L62.4643 367.955 Q65.2884 366.821 67.7421 366.242 Q70.1958 365.663 72.2328 365.663 Q77.6031 365.663 80.7976 368.349 Q83.992 371.034 83.992 375.524 Q83.992 377.654 83.1818 379.575 Q82.3948 381.474 80.2883 384.066 Q79.7096 384.737 76.6078 387.955 Q73.5059 391.149 67.8578 396.913 Z" fill="#000000" fill-rule="nonzero" fill-opacity="1" /><path clip-path="url(#clip060)" d="M77.0476 246.103 Q80.404 246.82 82.279 249.089 Q84.1772 251.357 84.1772 254.69 Q84.1772 259.806 80.6587 262.607 Q77.1402 265.408 70.6587 265.408 Q68.4828 265.408 66.168 264.968 Q63.8764 264.552 61.4227 263.695 L61.4227 259.181 Q63.3671 260.315 65.6819 260.894 Q67.9967 261.473 70.5198 261.473 Q74.918 261.473 77.2096 259.737 Q79.5244 258.001 79.5244 254.69 Q79.5244 251.635 77.3717 249.922 Q75.242 248.186 71.4226 248.186 L67.3949 248.186 L67.3949 244.343 L71.6078 244.343 Q75.0569 244.343 76.8855 242.978 Q78.7142 241.589 78.7142 238.996 Q78.7142 236.334 76.8161 234.922 Q74.9411 233.487 71.4226 233.487 Q69.5013 233.487 67.3023 233.904 Q65.1032 234.32 62.4643 235.2 L62.4643 231.033 Q65.1264 230.292 67.4412 229.922 Q69.7791 229.552 71.8393 229.552 Q77.1633 229.552 80.2652 231.982 Q83.367 234.39 83.367 238.51 Q83.367 241.38 81.7235 243.371 Q80.08 245.339 77.0476 246.103 Z" fill="#000000" fill-rule="nonzero" fill-opacity="1" /><path clip-path="url(#clip060)" d="M74.5939 98.1391 L62.7884 116.588 L74.5939 116.588 L74.5939 98.1391 M73.367 94.065 L79.2466 94.065 L79.2466 116.588 L84.1772 116.588 L84.1772 120.477 L79.2466 120.477 L79.2466 128.625 L74.5939 128.625 L74.5939 120.477 L58.9921 120.477 L58.9921 115.963 L73.367 94.065 Z" fill="#000000" fill-rule="nonzero" fill-opacity="1" /><polyline clip-path="url(#clip062)" style="stroke:#009af9; stroke-linecap:round; stroke-linejoin:round; stroke-width:4; stroke-opacity:1; fill:none" points="114.76,65.0721 145.73,192.355 176.701,304.715 207.672,379.331 238.642,440.932 269.613,494.826 300.584,541.014 331.554,579.496 362.525,610.271 393.496,633.339 424.467,648.701 455.437,659.34 486.408,657.144 517.379,632.506 548.349,585.425 579.32,515.902 610.291,455.413 641.261,384.227 672.232,302.323 703.203,209.701 734.173,106.36 "/>
<path clip-path="url(#clip060)" d="M612.782 656.17 L730.87 656.17 L730.87 552.49 L612.782 552.49  Z" fill="#ffffff" fill-rule="evenodd" fill-opacity="1"/>
<polyline clip-path="url(#clip060)" style="stroke:#000000; stroke-linecap:round; stroke-linejoin:round; stroke-width:4; stroke-opacity:1; fill:none" points="612.782,656.17 730.87,656.17 730.87,552.49 612.782,552.49 612.782,656.17 "/>
<polyline clip-path="url(#clip060)" style="stroke:#009af9; stroke-linecap:round; stroke-linejoin:round; stroke-width:4; stroke-opacity:1; fill:none" points="620.077,604.33 663.849,604.33 "/>
<path clip-path="url(#clip060)" d="M684.987 624.018 Q683.181 628.647 681.468 630.059 Q679.755 631.471 676.885 631.471 L673.482 631.471 L673.482 627.907 L675.982 627.907 Q677.742 627.907 678.714 627.073 Q679.686 626.24 680.867 623.138 L681.63 621.194 L671.144 595.685 L675.658 595.685 L683.76 615.962 L691.862 595.685 L696.376 595.685 L684.987 624.018 Z" fill="#000000" fill-rule="nonzero" fill-opacity="1" /><path clip-path="url(#clip060)" d="M703.667 617.675 L711.306 617.675 L711.306 591.31 L702.996 592.976 L702.996 588.717 L711.26 587.05 L715.936 587.05 L715.936 617.675 L723.575 617.675 L723.575 621.61 L703.667 621.61 L703.667 617.675 Z" fill="#000000" fill-rule="nonzero" fill-opacity="1" /></svg>
