<?xml version="1.0" encoding="utf-8"?>
<svg xmlns="http://www.w3.org/2000/svg" xmlns:xlink="http://www.w3.org/1999/xlink" width="400" height="300" viewBox="0 0 1600 1200">
<defs>
  <clipPath id="clip940">
    <rect x="0" y="0" width="1600" height="1200"/>
  </clipPath>
</defs>
<path clip-path="url(#clip940)" d="M0 1200 L1600 1200 L1600 0 L0 0  Z" fill="#ffffff" fill-rule="evenodd" fill-opacity="1"/>
<defs>
  <clipPath id="clip941">
    <rect x="320" y="0" width="1121" height="1121"/>
  </clipPath>
</defs>
<path clip-path="url(#clip940)" d="M208.686 1016.92 L1552.76 1016.92 L1552.76 47.2441 L208.686 47.2441  Z" fill="#ffffff" fill-rule="evenodd" fill-opacity="1"/>
<defs>
  <clipPath id="clip942">
    <rect x="208" y="47" width="1345" height="971"/>
  </clipPath>
</defs>
<polyline clip-path="url(#clip942)" style="stroke:#000000; stroke-linecap:round; stroke-linejoin:round; stroke-width:2; stroke-opacity:0.1; fill:none" points="246.726,1016.92 246.726,47.2441 "/>
<polyline clip-path="url(#clip942)" style="stroke:#000000; stroke-linecap:round; stroke-linejoin:round; stroke-width:2; stroke-opacity:0.1; fill:none" points="563.723,1016.92 563.723,47.2441 "/>
<polyline clip-path="url(#clip942)" style="stroke:#000000; stroke-linecap:round; stroke-linejoin:round; stroke-width:2; stroke-opacity:0.1; fill:none" points="880.721,1016.92 880.721,47.2441 "/>
<polyline clip-path="url(#clip942)" style="stroke:#000000; stroke-linecap:round; stroke-linejoin:round; stroke-width:2; stroke-opacity:0.1; fill:none" points="1197.72,1016.92 1197.72,47.2441 "/>
<polyline clip-path="url(#clip942)" style="stroke:#000000; stroke-linecap:round; stroke-linejoin:round; stroke-width:2; stroke-opacity:0.1; fill:none" points="1514.72,1016.92 1514.72,47.2441 "/>
<polyline clip-path="url(#clip940)" style="stroke:#000000; stroke-linecap:round; stroke-linejoin:round; stroke-width:4; stroke-opacity:1; fill:none" points="208.686,1016.92 1552.76,1016.92 "/>
<polyline clip-path="url(#clip940)" style="stroke:#000000; stroke-linecap:round; stroke-linejoin:round; stroke-width:4; stroke-opacity:1; fill:none" points="246.726,1016.92 246.726,998.022 "/>
<polyline clip-path="url(#clip940)" style="stroke:#000000; stroke-linecap:round; stroke-linejoin:round; stroke-width:4; stroke-opacity:1; fill:none" points="563.723,1016.92 563.723,998.022 "/>
<polyline clip-path="url(#clip940)" style="stroke:#000000; stroke-linecap:round; stroke-linejoin:round; stroke-width:4; stroke-opacity:1; fill:none" points="880.721,1016.92 880.721,998.022 "/>
<polyline clip-path="url(#clip940)" style="stroke:#000000; stroke-linecap:round; stroke-linejoin:round; stroke-width:4; stroke-opacity:1; fill:none" points="1197.72,1016.92 1197.72,998.022 "/>
<polyline clip-path="url(#clip940)" style="stroke:#000000; stroke-linecap:round; stroke-linejoin:round; stroke-width:4; stroke-opacity:1; fill:none" points="1514.72,1016.92 1514.72,998.022 "/>
<path clip-path="url(#clip940)" d="M216.668 1056.09 L246.344 1056.09 L246.344 1060.03 L216.668 1060.03 L216.668 1056.09 Z" fill="#000000" fill-rule="nonzero" fill-opacity="1" /><path clip-path="url(#clip940)" d="M260.464 1068.98 L276.783 1068.98 L276.783 1072.92 L254.839 1072.92 L254.839 1068.98 Q257.501 1066.23 262.084 1061.6 Q266.691 1056.95 267.871 1055.61 Q270.117 1053.08 270.996 1051.35 Q271.899 1049.59 271.899 1047.9 Q271.899 1045.14 269.955 1043.41 Q268.033 1041.67 264.932 1041.67 Q262.733 1041.67 260.279 1042.43 Q257.848 1043.2 255.071 1044.75 L255.071 1040.03 Q257.895 1038.89 260.348 1038.31 Q262.802 1037.73 264.839 1037.73 Q270.209 1037.73 273.404 1040.42 Q276.598 1043.11 276.598 1047.6 Q276.598 1049.73 275.788 1051.65 Q275.001 1053.54 272.895 1056.14 Q272.316 1056.81 269.214 1060.03 Q266.112 1063.22 260.464 1068.98 Z" fill="#000000" fill-rule="nonzero" fill-opacity="1" /><path clip-path="url(#clip940)" d="M533.48 1056.09 L563.156 1056.09 L563.156 1060.03 L533.48 1060.03 L533.48 1056.09 Z" fill="#000000" fill-rule="nonzero" fill-opacity="1" /><path clip-path="url(#clip940)" d="M574.059 1068.98 L581.698 1068.98 L581.698 1042.62 L573.388 1044.29 L573.388 1040.03 L581.651 1038.36 L586.327 1038.36 L586.327 1068.98 L593.966 1068.98 L593.966 1072.92 L574.059 1072.92 L574.059 1068.98 Z" fill="#000000" fill-rule="nonzero" fill-opacity="1" /><path clip-path="url(#clip940)" d="M880.721 1041.44 Q877.11 1041.44 875.281 1045 Q873.476 1048.54 873.476 1055.67 Q873.476 1062.78 875.281 1066.35 Q877.11 1069.89 880.721 1069.89 Q884.355 1069.89 886.161 1066.35 Q887.989 1062.78 887.989 1055.67 Q887.989 1048.54 886.161 1045 Q884.355 1041.44 880.721 1041.44 M880.721 1037.73 Q886.531 1037.73 889.587 1042.34 Q892.665 1046.92 892.665 1055.67 Q892.665 1064.4 889.587 1069.01 Q886.531 1073.59 880.721 1073.59 Q874.911 1073.59 871.832 1069.01 Q868.777 1064.4 868.777 1055.67 Q868.777 1046.92 871.832 1042.34 Q874.911 1037.73 880.721 1037.73 Z" fill="#000000" fill-rule="nonzero" fill-opacity="1" /><path clip-path="url(#clip940)" d="M1188.1 1068.98 L1195.74 1068.98 L1195.74 1042.62 L1187.43 1044.29 L1187.43 1040.03 L1195.69 1038.36 L1200.37 1038.36 L1200.37 1068.98 L1208.01 1068.98 L1208.01 1072.92 L1188.1 1072.92 L1188.1 1068.98 Z" fill="#000000" fill-rule="nonzero" fill-opacity="1" /><path clip-path="url(#clip940)" d="M1509.37 1068.98 L1525.69 1068.98 L1525.69 1072.92 L1503.74 1072.92 L1503.74 1068.98 Q1506.41 1066.23 1510.99 1061.6 Q1515.6 1056.95 1516.78 1055.61 Q1519.02 1053.08 1519.9 1051.35 Q1520.8 1049.59 1520.8 1047.9 Q1520.8 1045.14 1518.86 1043.41 Q1516.94 1041.67 1513.84 1041.67 Q1511.64 1041.67 1509.18 1042.43 Q1506.75 1043.2 1503.98 1044.75 L1503.98 1040.03 Q1506.8 1038.89 1509.25 1038.31 Q1511.71 1037.73 1513.74 1037.73 Q1519.11 1037.73 1522.31 1040.42 Q1525.5 1043.11 1525.5 1047.6 Q1525.5 1049.73 1524.69 1051.65 Q1523.91 1053.54 1521.8 1056.14 Q1521.22 1056.81 1518.12 1060.03 Q1515.02 1063.22 1509.37 1068.98 Z" fill="#000000" fill-rule="nonzero" fill-opacity="1" /><path clip-path="url(#clip940)" d="M881.136 1101.4 Q881.136 1103.21 880.009 1104.24 Q878.882 1105.24 877.593 1105.24 Q876.37 1105.24 875.726 1104.53 Q875.081 1103.82 875.081 1102.92 Q875.081 1101.69 875.983 1100.63 Q876.885 1099.57 878.238 1099.34 Q876.917 1098.51 874.953 1098.51 Q873.664 1098.51 872.537 1099.18 Q871.442 1099.86 870.766 1100.73 Q870.122 1101.6 869.542 1102.85 Q868.995 1104.08 868.769 1104.82 Q868.576 1105.53 868.415 1106.3 L866.16 1115.32 Q865.065 1119.6 865.065 1121.11 Q865.065 1122.98 865.967 1124.24 Q866.869 1125.46 868.672 1125.46 Q869.381 1125.46 870.186 1125.27 Q870.991 1125.04 872.022 1124.46 Q873.085 1123.85 874.019 1122.95 Q874.985 1122.02 875.919 1120.44 Q876.853 1118.86 877.465 1116.83 Q877.658 1116.12 878.302 1116.12 Q879.107 1116.12 879.107 1116.77 Q879.107 1117.31 878.656 1118.47 Q878.238 1119.6 877.304 1121.08 Q876.402 1122.53 875.21 1123.85 Q874.019 1125.14 872.247 1126.04 Q870.476 1126.94 868.544 1126.94 Q865.774 1126.94 863.938 1125.46 Q862.102 1123.98 861.426 1121.92 Q861.265 1122.21 861.04 1122.6 Q860.814 1122.98 860.138 1123.85 Q859.494 1124.69 858.753 1125.33 Q858.012 1125.94 856.853 1126.43 Q855.726 1126.94 854.502 1126.94 Q852.956 1126.94 851.571 1126.49 Q850.218 1126.04 849.252 1125.01 Q848.286 1123.98 848.286 1122.56 Q848.286 1120.99 849.349 1119.89 Q850.444 1118.76 851.925 1118.76 Q852.859 1118.76 853.6 1119.31 Q854.373 1119.86 854.373 1121.05 Q854.373 1122.37 853.471 1123.37 Q852.57 1124.37 851.281 1124.62 Q852.602 1125.46 854.566 1125.46 Q856.692 1125.46 858.367 1123.59 Q860.041 1121.73 860.846 1118.6 Q862.843 1111.1 863.616 1107.75 Q864.389 1104.37 864.389 1102.92 Q864.389 1101.56 864.035 1100.63 Q863.681 1099.7 863.069 1099.28 Q862.489 1098.83 861.941 1098.67 Q861.426 1098.51 860.846 1098.51 Q859.88 1098.51 858.785 1098.89 Q857.722 1099.28 856.434 1100.18 Q855.178 1101.05 853.987 1102.85 Q852.795 1104.66 851.99 1107.14 Q851.829 1107.88 851.12 1107.88 Q850.347 1107.85 850.347 1107.2 Q850.347 1106.65 850.766 1105.53 Q851.217 1104.37 852.119 1102.92 Q853.053 1101.47 854.244 1100.18 Q855.468 1098.86 857.239 1097.96 Q859.043 1097.06 860.975 1097.06 Q861.845 1097.06 862.682 1097.25 Q863.552 1097.41 864.582 1097.89 Q865.645 1098.38 866.579 1099.44 Q867.513 1100.5 868.093 1102.05 Q868.479 1101.31 868.995 1100.6 Q869.542 1099.89 870.379 1099.02 Q871.249 1098.12 872.441 1097.6 Q873.664 1097.06 875.017 1097.06 Q876.337 1097.06 877.626 1097.41 Q878.914 1097.73 880.009 1098.8 Q881.136 1099.83 881.136 1101.4 Z" fill="#000000" fill-rule="nonzero" fill-opacity="1" /><path clip-path="url(#clip940)" d="M887.857 1145.21 Q887.857 1144.37 887.925 1144.12 Q888.015 1143.88 888.376 1143.49 L897.236 1133.62 Q902.083 1128.16 902.083 1123.41 Q902.083 1120.32 900.46 1118.11 Q898.859 1115.9 895.906 1115.9 Q893.877 1115.9 892.163 1117.14 Q890.45 1118.38 889.661 1120.59 Q889.796 1120.54 890.27 1120.54 Q891.419 1120.54 892.051 1121.26 Q892.704 1121.99 892.704 1122.95 Q892.704 1124.19 891.893 1124.8 Q891.104 1125.39 890.315 1125.39 Q889.999 1125.39 889.571 1125.32 Q889.165 1125.25 888.511 1124.62 Q887.857 1123.97 887.857 1122.82 Q887.857 1119.6 890.292 1117.03 Q892.749 1114.46 896.492 1114.46 Q900.73 1114.46 903.503 1116.98 Q906.298 1119.48 906.298 1123.41 Q906.298 1124.78 905.87 1126.04 Q905.464 1127.28 904.901 1128.25 Q904.36 1129.22 902.872 1130.78 Q901.384 1132.33 900.189 1133.44 Q898.994 1134.54 896.311 1136.89 L891.419 1141.64 L899.738 1141.64 Q903.796 1141.64 904.112 1141.28 Q904.563 1140.63 905.126 1137.18 L906.298 1137.18 L904.991 1145.21 L887.857 1145.21 Z" fill="#000000" fill-rule="nonzero" fill-opacity="1" /><polyline clip-path="url(#clip942)" style="stroke:#000000; stroke-linecap:round; stroke-linejoin:round; stroke-width:2; stroke-opacity:0.1; fill:none" points="208.686,989.476 1552.76,989.476 "/>
<polyline clip-path="url(#clip942)" style="stroke:#000000; stroke-linecap:round; stroke-linejoin:round; stroke-width:2; stroke-opacity:0.1; fill:none" points="208.686,765.807 1552.76,765.807 "/>
<polyline clip-path="url(#clip942)" style="stroke:#000000; stroke-linecap:round; stroke-linejoin:round; stroke-width:2; stroke-opacity:0.1; fill:none" points="208.686,542.137 1552.76,542.137 "/>
<polyline clip-path="url(#clip942)" style="stroke:#000000; stroke-linecap:round; stroke-linejoin:round; stroke-width:2; stroke-opacity:0.1; fill:none" points="208.686,318.468 1552.76,318.468 "/>
<polyline clip-path="url(#clip942)" style="stroke:#000000; stroke-linecap:round; stroke-linejoin:round; stroke-width:2; stroke-opacity:0.1; fill:none" points="208.686,94.7984 1552.76,94.7984 "/>
<polyline clip-path="url(#clip940)" style="stroke:#000000; stroke-linecap:round; stroke-linejoin:round; stroke-width:4; stroke-opacity:1; fill:none" points="208.686,1016.92 208.686,47.2441 "/>
<polyline clip-path="url(#clip940)" style="stroke:#000000; stroke-linecap:round; stroke-linejoin:round; stroke-width:4; stroke-opacity:1; fill:none" points="208.686,989.476 227.584,989.476 "/>
<polyline clip-path="url(#clip940)" style="stroke:#000000; stroke-linecap:round; stroke-linejoin:round; stroke-width:4; stroke-opacity:1; fill:none" points="208.686,765.807 227.584,765.807 "/>
<polyline clip-path="url(#clip940)" style="stroke:#000000; stroke-linecap:round; stroke-linejoin:round; stroke-width:4; stroke-opacity:1; fill:none" points="208.686,542.137 227.584,542.137 "/>
<polyline clip-path="url(#clip940)" style="stroke:#000000; stroke-linecap:round; stroke-linejoin:round; stroke-width:4; stroke-opacity:1; fill:none" points="208.686,318.468 227.584,318.468 "/>
<polyline clip-path="url(#clip940)" style="stroke:#000000; stroke-linecap:round; stroke-linejoin:round; stroke-width:4; stroke-opacity:1; fill:none" points="208.686,94.7984 227.584,94.7984 "/>
<path clip-path="url(#clip940)" d="M124.571 989.928 L154.246 989.928 L154.246 993.863 L124.571 993.863 L124.571 989.928 Z" fill="#000000" fill-rule="nonzero" fill-opacity="1" /><path clip-path="url(#clip940)" d="M168.367 1002.82 L184.686 1002.82 L184.686 1006.76 L162.742 1006.76 L162.742 1002.82 Q165.404 1000.07 169.987 995.437 Q174.593 990.784 175.774 989.441 Q178.019 986.918 178.899 985.182 Q179.802 983.423 179.802 981.733 Q179.802 978.979 177.857 977.242 Q175.936 975.506 172.834 975.506 Q170.635 975.506 168.181 976.27 Q165.751 977.034 162.973 978.585 L162.973 973.863 Q165.797 972.729 168.251 972.15 Q170.705 971.571 172.742 971.571 Q178.112 971.571 181.306 974.256 Q184.501 976.942 184.501 981.432 Q184.501 983.562 183.691 985.483 Q182.904 987.381 180.797 989.974 Q180.218 990.645 177.117 993.863 Q174.015 997.057 168.367 1002.82 Z" fill="#000000" fill-rule="nonzero" fill-opacity="1" /><path clip-path="url(#clip940)" d="M124.2 766.258 L153.876 766.258 L153.876 770.193 L124.2 770.193 L124.2 766.258 Z" fill="#000000" fill-rule="nonzero" fill-opacity="1" /><path clip-path="url(#clip940)" d="M164.779 779.152 L172.417 779.152 L172.417 752.786 L164.107 754.453 L164.107 750.193 L172.371 748.527 L177.047 748.527 L177.047 779.152 L184.686 779.152 L184.686 783.087 L164.779 783.087 L164.779 779.152 Z" fill="#000000" fill-rule="nonzero" fill-opacity="1" /><path clip-path="url(#clip940)" d="M172.742 527.936 Q169.13 527.936 167.302 531.501 Q165.496 535.042 165.496 542.172 Q165.496 549.278 167.302 552.843 Q169.13 556.385 172.742 556.385 Q176.376 556.385 178.181 552.843 Q180.01 549.278 180.01 542.172 Q180.01 535.042 178.181 531.501 Q176.376 527.936 172.742 527.936 M172.742 524.232 Q178.552 524.232 181.607 528.839 Q184.686 533.422 184.686 542.172 Q184.686 550.899 181.607 555.505 Q178.552 560.089 172.742 560.089 Q166.931 560.089 163.853 555.505 Q160.797 550.899 160.797 542.172 Q160.797 533.422 163.853 528.839 Q166.931 524.232 172.742 524.232 Z" fill="#000000" fill-rule="nonzero" fill-opacity="1" /><path clip-path="url(#clip940)" d="M164.779 331.813 L172.417 331.813 L172.417 305.447 L164.107 307.114 L164.107 302.854 L172.371 301.188 L177.047 301.188 L177.047 331.813 L184.686 331.813 L184.686 335.748 L164.779 335.748 L164.779 331.813 Z" fill="#000000" fill-rule="nonzero" fill-opacity="1" /><path clip-path="url(#clip940)" d="M168.367 108.143 L184.686 108.143 L184.686 112.078 L162.742 112.078 L162.742 108.143 Q165.404 105.389 169.987 100.759 Q174.593 96.1062 175.774 94.7637 Q178.019 92.2405 178.899 90.5044 Q179.802 88.7452 179.802 87.0554 Q179.802 84.3007 177.857 82.5646 Q175.936 80.8285 172.834 80.8285 Q170.635 80.8285 168.181 81.5924 Q165.751 82.3563 162.973 83.9072 L162.973 79.185 Q165.797 78.0508 168.251 77.4721 Q170.705 76.8934 172.742 76.8934 Q178.112 76.8934 181.306 79.5786 Q184.501 82.2637 184.501 86.7544 Q184.501 88.8841 183.691 90.8053 Q182.904 92.7035 180.797 95.2961 Q180.218 95.9674 177.117 99.1849 Q174.015 102.379 168.367 108.143 Z" fill="#000000" fill-rule="nonzero" fill-opacity="1" /><path clip-path="url(#clip940)" d="M52.7883 517.643 Q53.2392 517.643 54.302 517.933 L79.4869 524.245 Q85.0908 525.63 89.0199 530.139 Q92.949 534.616 92.949 539.704 Q92.949 542.764 91.3065 544.728 Q89.6962 546.693 87.2164 546.693 Q85.0264 546.693 83.9636 545.534 Q82.933 544.374 82.933 542.989 Q82.933 542.538 83.0618 542.055 Q83.1906 541.572 83.7381 541.057 Q84.2856 540.542 85.2196 540.542 Q86.7333 540.542 87.9249 541.862 Q88.4724 542.506 88.6012 543.118 Q88.73 543.698 88.73 544.696 Q89.6318 544.31 90.2437 543.601 Q90.8556 542.893 91.0811 542.087 Q91.3387 541.282 91.4031 540.767 Q91.4997 540.22 91.4997 539.704 Q91.4997 535.582 87.3452 532.426 Q86.0891 531.492 84.8331 530.815 Q83.6093 530.107 82.0956 529.592 Q80.6141 529.076 79.809 528.851 Q79.0039 528.593 77.1681 528.142 Q80.1633 531.138 80.1633 534.809 Q80.1633 536.355 79.7446 537.74 Q79.3259 539.092 78.4564 540.284 Q77.5546 541.476 75.9765 542.184 Q74.3984 542.86 72.305 542.86 Q70.0828 542.86 67.0555 541.991 Q64.0281 541.121 58.4565 539.028 Q55.3325 537.901 53.8189 537.901 Q53.0781 537.901 52.6273 538.062 Q52.1442 538.223 51.9831 538.545 Q51.7899 538.867 51.7577 539.06 Q51.7255 539.221 51.7255 539.543 Q51.7255 541.443 53.6578 543.215 Q55.5902 544.986 59.9058 546.21 Q60.7109 546.467 60.9042 546.629 Q61.0974 546.79 61.0974 547.273 Q61.0652 548.078 60.4211 548.078 Q60.1634 548.078 59.165 547.788 Q58.1345 547.498 56.6208 546.822 Q55.0749 546.113 53.69 545.147 Q52.273 544.181 51.2746 542.667 Q50.2762 541.121 50.2762 539.35 Q50.2762 536.935 51.8543 535.453 Q53.4002 533.939 55.6868 533.939 Q56.6208 533.939 57.4581 534.197 Q58.2633 534.423 60.4211 535.26 Q69.1167 538.641 73.3678 538.641 Q74.3984 538.641 75.268 538.48 Q76.1053 538.287 76.9427 537.869 Q77.7478 537.45 78.2309 536.613 Q78.6818 535.743 78.6818 534.551 Q78.6818 533.038 77.9733 531.621 Q77.2325 530.171 76.2342 529.27 Q75.2358 528.336 74.3984 527.788 Q73.5289 527.208 73.078 527.08 L61.2262 524.117 L55.9445 522.796 Q53.0781 522.184 52.3696 521.894 Q51.6933 521.508 51.339 520.832 Q50.9848 520.155 50.9848 519.576 Q50.9848 518.77 51.4678 518.223 Q51.9509 517.643 52.7883 517.643 Z" fill="#000000" fill-rule="nonzero" fill-opacity="1" /><polyline clip-path="url(#clip942)" style="stroke:#009af9; stroke-linecap:round; stroke-linejoin:round; stroke-width:4; stroke-opacity:1; fill:none" points="246.726,74.6877 310.125,102.237 373.525,164.988 436.924,293.79 500.324,331.95 563.723,300.737 627.123,357.413 690.522,414.912 753.922,473.237 817.321,532.385 880.721,592.358 944.12,638.147 1007.52,672.22 1070.92,707.118 1134.32,742.84 1197.72,779.386 1261.12,816.757 1324.52,854.952 1387.92,893.972 1451.32,933.816 1514.72,974.485 "/>
<polyline clip-path="url(#clip942)" style="stroke:#e26f46; stroke-linecap:round; stroke-linejoin:round; stroke-width:4; stroke-opacity:1; fill:none" points="246.726,94.7984 310.125,139.532 373.525,184.266 436.924,229 500.324,273.734 563.723,318.468 627.123,363.202 690.522,407.936 753.922,452.67 817.321,497.403 880.721,542.137 944.12,586.871 1007.52,631.605 1070.92,676.339 1134.32,721.073 1197.72,765.807 1261.12,810.541 1324.52,855.275 1387.92,900.008 1451.32,944.742 1514.72,989.476 "/>
<path clip-path="url(#clip940)" d="M1061.41 235.087 L1507.95 235.087 L1507.95 79.5666 L1061.41 79.5666  Z" fill="#ffffff" fill-rule="evenodd" fill-opacity="1"/>
<polyline clip-path="url(#clip940)" style="stroke:#000000; stroke-linecap:round; stroke-linejoin:round; stroke-width:4; stroke-opacity:1; fill:none" points="1061.41,235.087 1507.95,235.087 1507.95,79.5666 1061.41,79.5666 1061.41,235.087 "/>
<polyline clip-path="url(#clip940)" style="stroke:#009af9; stroke-linecap:round; stroke-linejoin:round; stroke-width:4; stroke-opacity:1; fill:none" points="1076.34,131.407 1165.95,131.407 "/>
<path clip-path="url(#clip940)" d="M1215.66 110.997 L1214.7 119.289 Q1214.63 120.038 1214.52 120.273 Q1214.4 120.483 1214.03 120.483 Q1213.74 120.483 1213.58 120.319 Q1213.44 120.132 1213.44 119.921 Q1213.44 119.804 1213.46 119.5 Q1213.49 119.195 1213.49 119.055 Q1213.7 117.602 1213.7 116.502 Q1213.7 114.464 1213.09 113.363 Q1212.48 112.239 1210.91 111.723 Q1209.34 111.185 1206.39 111.185 L1199.64 111.185 Q1198.1 111.185 1197.72 111.466 Q1197.37 111.747 1197.04 113.058 L1194.16 124.606 L1198.68 124.606 Q1200.37 124.606 1201.38 124.395 Q1202.41 124.184 1203.09 123.599 Q1203.79 122.99 1204.16 122.17 Q1204.56 121.35 1204.96 119.874 Q1205.08 119.383 1205.2 119.195 Q1205.34 119.008 1205.64 119.008 Q1205.87 119.008 1206.04 119.172 Q1206.2 119.312 1206.2 119.523 L1203.46 130.742 Q1203.32 131.305 1203.18 131.515 Q1203.04 131.703 1202.76 131.703 Q1202.45 131.703 1202.29 131.539 Q1202.13 131.375 1202.13 131.187 Q1202.13 131 1202.27 130.649 Q1202.62 129.126 1202.62 128.306 Q1202.62 127.838 1202.57 127.604 Q1202.55 127.37 1202.34 127.042 Q1202.15 126.69 1201.73 126.526 Q1201.31 126.362 1200.51 126.245 Q1199.71 126.105 1198.52 126.105 L1193.79 126.105 L1190.51 139.198 Q1190.27 140.065 1190.27 140.299 Q1190.27 140.556 1190.39 140.65 Q1190.53 140.72 1190.91 140.767 Q1191.33 140.837 1191.96 140.837 L1198.96 140.837 Q1200.51 140.837 1201.75 140.697 Q1202.99 140.556 1204.02 140.205 Q1205.08 139.854 1205.87 139.456 Q1206.67 139.057 1207.42 138.331 Q1208.17 137.582 1208.69 136.926 Q1209.22 136.247 1209.86 135.099 Q1210.49 133.951 1210.93 133.014 Q1211.38 132.054 1212.06 130.508 Q1212.25 129.946 1212.69 129.946 Q1212.95 129.946 1213.09 130.087 Q1213.23 130.204 1213.25 130.321 L1213.25 130.461 Q1213.11 130.906 1213.02 131.141 L1208.61 141.493 Q1208.36 142.079 1208.15 142.196 Q1207.94 142.313 1207.12 142.313 L1182.22 142.313 Q1181.66 142.313 1181.42 142.29 Q1181.21 142.266 1181.05 142.149 Q1180.88 142.009 1180.88 141.728 Q1180.88 141.282 1181.07 141.095 Q1181.26 140.884 1181.47 140.861 Q1181.68 140.837 1182.22 140.837 Q1183.39 140.837 1184.09 140.767 Q1184.79 140.697 1185.24 140.603 Q1185.71 140.486 1185.94 140.158 Q1186.2 139.83 1186.32 139.549 Q1186.43 139.245 1186.6 138.565 L1192.92 113.199 Q1193.16 112.332 1193.16 112.051 Q1193.16 111.747 1192.95 111.559 Q1192.76 111.372 1192.24 111.302 Q1191.73 111.208 1191.31 111.208 Q1190.91 111.185 1190.04 111.185 Q1189.48 111.185 1189.24 111.161 Q1189.03 111.138 1188.87 111.021 Q1188.71 110.904 1188.71 110.646 Q1188.71 109.99 1188.99 109.85 Q1189.29 109.686 1190.13 109.686 L1214.35 109.686 Q1215.31 109.686 1215.52 109.896 Q1215.76 110.084 1215.66 110.997 Z" fill="#000000" fill-rule="nonzero" fill-opacity="1" /><path clip-path="url(#clip940)" d="M1222.27 154.305 L1222.27 106.336 L1229.51 106.336 L1229.51 107.437 L1225.48 107.437 L1225.48 153.205 L1229.51 153.205 L1229.51 154.305 L1222.27 154.305 Z" fill="#000000" fill-rule="nonzero" fill-opacity="1" /><path clip-path="url(#clip940)" d="M1252.81 122.943 Q1252.81 123.271 1252.59 124.044 L1248 142.36 Q1247 146.435 1243.72 149.293 Q1240.46 152.151 1236.76 152.151 Q1234.54 152.151 1233.11 150.956 Q1231.68 149.785 1231.68 147.981 Q1231.68 146.389 1232.52 145.616 Q1233.36 144.866 1234.37 144.866 Q1234.7 144.866 1235.05 144.96 Q1235.4 145.054 1235.78 145.452 Q1236.15 145.85 1236.15 146.529 Q1236.15 147.63 1235.19 148.497 Q1234.72 148.895 1234.28 148.988 Q1233.86 149.082 1233.13 149.082 Q1233.41 149.738 1233.93 150.183 Q1234.44 150.628 1235.03 150.792 Q1235.61 150.979 1235.99 151.026 Q1236.39 151.096 1236.76 151.096 Q1239.76 151.096 1242.05 148.075 Q1242.73 147.162 1243.23 146.248 Q1243.74 145.358 1244.12 144.257 Q1244.49 143.18 1244.65 142.594 Q1244.84 142.009 1245.17 140.674 Q1242.99 142.852 1240.32 142.852 Q1239.2 142.852 1238.19 142.547 Q1237.21 142.243 1236.34 141.61 Q1235.47 140.955 1234.96 139.807 Q1234.47 138.659 1234.47 137.137 Q1234.47 135.521 1235.1 133.319 Q1235.73 131.117 1237.25 127.065 Q1238.07 124.793 1238.07 123.692 Q1238.07 123.154 1237.96 122.826 Q1237.84 122.474 1237.6 122.357 Q1237.37 122.217 1237.23 122.193 Q1237.11 122.17 1236.88 122.17 Q1235.5 122.17 1234.21 123.575 Q1232.92 124.98 1232.03 128.119 Q1231.84 128.705 1231.73 128.845 Q1231.61 128.986 1231.26 128.986 Q1230.67 128.962 1230.67 128.494 Q1230.67 128.306 1230.88 127.58 Q1231.09 126.831 1231.58 125.73 Q1232.1 124.606 1232.8 123.599 Q1233.51 122.568 1234.61 121.842 Q1235.73 121.116 1237.02 121.116 Q1238.78 121.116 1239.85 122.263 Q1240.95 123.388 1240.95 125.051 Q1240.95 125.73 1240.77 126.339 Q1240.6 126.925 1239.99 128.494 Q1237.53 134.818 1237.53 137.91 Q1237.53 138.659 1237.65 139.292 Q1237.79 139.901 1238.1 140.51 Q1238.4 141.095 1239.01 141.446 Q1239.64 141.774 1240.51 141.774 Q1241.61 141.774 1242.64 141.259 Q1243.69 140.72 1244.35 139.994 Q1245.03 139.268 1245.43 138.659 Q1245.85 138.027 1245.94 137.699 L1248.1 129.079 L1249.06 125.238 Q1249.5 123.154 1249.71 122.638 Q1249.99 122.146 1250.49 121.889 Q1250.98 121.631 1251.4 121.631 Q1251.99 121.631 1252.38 121.982 Q1252.81 122.334 1252.81 122.943 Z" fill="#000000" fill-rule="nonzero" fill-opacity="1" /><path clip-path="url(#clip940)" d="M1259.89 152.83 L1259.89 108.163 Q1259.89 106.383 1260.85 106.383 Q1261.81 106.383 1261.81 107.812 L1261.81 152.478 Q1261.81 154.259 1260.85 154.259 Q1259.89 154.259 1259.89 152.83 Z" fill="#000000" fill-rule="nonzero" fill-opacity="1" /><path clip-path="url(#clip940)" d="M1303.58 124.278 Q1303.58 125.589 1302.76 126.339 Q1301.94 127.065 1301.01 127.065 Q1300.12 127.065 1299.65 126.55 Q1299.18 126.034 1299.18 125.379 Q1299.18 124.489 1299.83 123.716 Q1300.49 122.943 1301.47 122.779 Q1300.51 122.17 1299.09 122.17 Q1298.15 122.17 1297.33 122.662 Q1296.53 123.154 1296.04 123.786 Q1295.57 124.418 1295.15 125.332 Q1294.75 126.222 1294.59 126.761 Q1294.45 127.276 1294.33 127.838 L1292.69 134.396 Q1291.89 137.511 1291.89 138.612 Q1291.89 139.971 1292.55 140.884 Q1293.21 141.774 1294.52 141.774 Q1295.03 141.774 1295.62 141.634 Q1296.2 141.47 1296.95 141.048 Q1297.73 140.603 1298.41 139.947 Q1299.11 139.268 1299.79 138.12 Q1300.47 136.973 1300.91 135.497 Q1301.05 134.982 1301.52 134.982 Q1302.11 134.982 1302.11 135.45 Q1302.11 135.848 1301.78 136.692 Q1301.47 137.511 1300.79 138.589 Q1300.14 139.643 1299.27 140.603 Q1298.41 141.54 1297.12 142.196 Q1295.83 142.852 1294.42 142.852 Q1292.41 142.852 1291.07 141.774 Q1289.74 140.697 1289.25 139.198 Q1289.13 139.409 1288.97 139.69 Q1288.8 139.971 1288.31 140.603 Q1287.84 141.212 1287.3 141.681 Q1286.76 142.126 1285.92 142.477 Q1285.1 142.852 1284.21 142.852 Q1283.09 142.852 1282.08 142.524 Q1281.1 142.196 1280.39 141.446 Q1279.69 140.697 1279.69 139.666 Q1279.69 138.519 1280.46 137.722 Q1281.26 136.902 1282.34 136.902 Q1283.02 136.902 1283.56 137.301 Q1284.12 137.699 1284.12 138.565 Q1284.12 139.526 1283.46 140.252 Q1282.81 140.978 1281.87 141.165 Q1282.83 141.774 1284.26 141.774 Q1285.8 141.774 1287.02 140.416 Q1288.24 139.057 1288.83 136.785 Q1290.28 131.328 1290.84 128.892 Q1291.4 126.433 1291.4 125.379 Q1291.4 124.395 1291.14 123.716 Q1290.89 123.036 1290.44 122.732 Q1290.02 122.404 1289.62 122.287 Q1289.25 122.17 1288.83 122.17 Q1288.12 122.17 1287.33 122.451 Q1286.55 122.732 1285.62 123.388 Q1284.7 124.02 1283.84 125.332 Q1282.97 126.643 1282.38 128.447 Q1282.27 128.986 1281.75 128.986 Q1281.19 128.962 1281.19 128.494 Q1281.19 128.096 1281.49 127.276 Q1281.82 126.433 1282.48 125.379 Q1283.16 124.325 1284.02 123.388 Q1284.91 122.427 1286.2 121.772 Q1287.51 121.116 1288.92 121.116 Q1289.55 121.116 1290.16 121.256 Q1290.79 121.373 1291.54 121.725 Q1292.32 122.076 1293 122.849 Q1293.67 123.622 1294.1 124.746 Q1294.38 124.208 1294.75 123.692 Q1295.15 123.177 1295.76 122.545 Q1296.39 121.889 1297.26 121.514 Q1298.15 121.116 1299.13 121.116 Q1300.09 121.116 1301.03 121.373 Q1301.97 121.608 1302.76 122.381 Q1303.58 123.13 1303.58 124.278 Z" fill="#000000" fill-rule="nonzero" fill-opacity="1" /><path clip-path="url(#clip940)" d="M1308.47 136.969 L1308.47 135.92 Q1312.5 135.92 1314.58 133.772 Q1315.16 133.772 1315.26 133.903 Q1315.35 134.034 1315.35 134.641 L1315.35 153.479 Q1315.35 154.48 1315.85 154.791 Q1316.34 155.103 1318.49 155.103 L1319.55 155.103 L1319.55 156.136 Q1318.37 156.037 1314.11 156.037 Q1309.84 156.037 1308.68 156.136 L1308.68 155.103 L1309.75 155.103 Q1311.86 155.103 1312.37 154.808 Q1312.88 154.496 1312.88 153.479 L1312.88 136.084 Q1311.12 136.969 1308.47 136.969 Z" fill="#000000" fill-rule="nonzero" fill-opacity="1" /><path clip-path="url(#clip940)" d="M1337.87 135.029 Q1337.92 134.443 1338.83 134.443 L1368.22 134.443 Q1369.61 134.443 1369.63 134.982 Q1369.63 135.567 1368.32 135.544 L1339.16 135.544 Q1337.87 135.567 1337.87 135.029 M1337.87 125.66 Q1337.87 125.074 1338.88 125.098 L1368.18 125.098 Q1369.61 125.098 1369.63 125.66 Q1369.63 126.198 1368.41 126.198 L1338.83 126.198 Q1337.87 126.198 1337.87 125.66 Z" fill="#000000" fill-rule="nonzero" fill-opacity="1" /><path clip-path="url(#clip940)" d="M1388.13 126.971 Q1388.13 119.921 1389.91 116.08 Q1392.39 110.365 1398.25 110.365 Q1399.49 110.365 1400.78 110.716 Q1402.09 111.044 1403.73 112.332 Q1405.39 113.621 1406.4 115.729 Q1408.32 119.804 1408.32 126.971 Q1408.32 133.975 1406.54 137.793 Q1403.94 143.367 1398.2 143.367 Q1396.05 143.367 1393.85 142.266 Q1391.67 141.165 1390.29 138.519 Q1388.13 134.56 1388.13 126.971 M1392.11 126.386 Q1392.11 133.623 1392.63 136.504 Q1393.21 139.619 1394.81 140.978 Q1396.42 142.313 1398.2 142.313 Q1400.12 142.313 1401.72 140.884 Q1403.33 139.432 1403.83 136.317 Q1404.36 133.249 1404.34 126.386 Q1404.34 119.71 1403.87 117.04 Q1403.24 113.925 1401.55 112.684 Q1399.89 111.419 1398.2 111.419 Q1397.57 111.419 1396.89 111.606 Q1396.24 111.794 1395.28 112.332 Q1394.32 112.871 1393.57 114.206 Q1392.84 115.541 1392.49 117.556 Q1392.11 120.155 1392.11 126.386 Z" fill="#000000" fill-rule="nonzero" fill-opacity="1" /><path clip-path="url(#clip940)" d="M1412.57 141.54 Q1411.89 140.767 1411.89 139.76 Q1411.89 138.753 1412.54 138.003 Q1413.22 137.23 1414.44 137.23 Q1415.87 137.23 1416.69 138.612 Q1417.51 139.971 1417.51 142.266 Q1417.51 144.749 1416.5 147.044 Q1415.49 149.363 1414.51 150.464 Q1413.53 151.565 1413.13 151.565 Q1412.66 151.565 1412.66 151.05 Q1412.66 150.862 1412.99 150.511 Q1416.43 146.81 1416.45 142.266 Q1416.45 141.54 1416.36 141.54 L1416.24 141.634 Q1415.42 142.313 1414.44 142.313 Q1413.25 142.313 1412.57 141.54 Z" fill="#000000" fill-rule="nonzero" fill-opacity="1" /><path clip-path="url(#clip940)" d="M1456.54 124.278 Q1456.54 125.589 1455.72 126.339 Q1454.9 127.065 1453.96 127.065 Q1453.07 127.065 1452.6 126.55 Q1452.13 126.034 1452.13 125.379 Q1452.13 124.489 1452.79 123.716 Q1453.44 122.943 1454.43 122.779 Q1453.47 122.17 1452.04 122.17 Q1451.1 122.17 1450.28 122.662 Q1449.49 123.154 1448.99 123.786 Q1448.53 124.418 1448.1 125.332 Q1447.71 126.222 1447.54 126.761 Q1447.4 127.276 1447.28 127.838 L1445.64 134.396 Q1444.85 137.511 1444.85 138.612 Q1444.85 139.971 1445.5 140.884 Q1446.16 141.774 1447.47 141.774 Q1447.99 141.774 1448.57 141.634 Q1449.16 141.47 1449.91 141.048 Q1450.68 140.603 1451.36 139.947 Q1452.06 139.268 1452.74 138.12 Q1453.42 136.973 1453.87 135.497 Q1454.01 134.982 1454.47 134.982 Q1455.06 134.982 1455.06 135.45 Q1455.06 135.848 1454.73 136.692 Q1454.43 137.511 1453.75 138.589 Q1453.09 139.643 1452.23 140.603 Q1451.36 141.54 1450.07 142.196 Q1448.78 142.852 1447.38 142.852 Q1445.36 142.852 1444.03 141.774 Q1442.69 140.697 1442.2 139.198 Q1442.08 139.409 1441.92 139.69 Q1441.76 139.971 1441.26 140.603 Q1440.8 141.212 1440.26 141.681 Q1439.72 142.126 1438.88 142.477 Q1438.06 142.852 1437.17 142.852 Q1436.04 142.852 1435.03 142.524 Q1434.05 142.196 1433.35 141.446 Q1432.65 140.697 1432.65 139.666 Q1432.65 138.519 1433.42 137.722 Q1434.21 136.902 1435.29 136.902 Q1435.97 136.902 1436.51 137.301 Q1437.07 137.699 1437.07 138.565 Q1437.07 139.526 1436.42 140.252 Q1435.76 140.978 1434.82 141.165 Q1435.78 141.774 1437.21 141.774 Q1438.76 141.774 1439.98 140.416 Q1441.19 139.057 1441.78 136.785 Q1443.23 131.328 1443.79 128.892 Q1444.36 126.433 1444.36 125.379 Q1444.36 124.395 1444.1 123.716 Q1443.84 123.036 1443.4 122.732 Q1442.97 122.404 1442.58 122.287 Q1442.2 122.17 1441.78 122.17 Q1441.08 122.17 1440.28 122.451 Q1439.51 122.732 1438.57 123.388 Q1437.66 124.02 1436.79 125.332 Q1435.92 126.643 1435.34 128.447 Q1435.22 128.986 1434.71 128.986 Q1434.14 128.962 1434.14 128.494 Q1434.14 128.096 1434.45 127.276 Q1434.78 126.433 1435.43 125.379 Q1436.11 124.325 1436.98 123.388 Q1437.87 122.427 1439.16 121.772 Q1440.47 121.116 1441.87 121.116 Q1442.51 121.116 1443.12 121.256 Q1443.75 121.373 1444.5 121.725 Q1445.27 122.076 1445.95 122.849 Q1446.63 123.622 1447.05 124.746 Q1447.33 124.208 1447.71 123.692 Q1448.1 123.177 1448.71 122.545 Q1449.35 121.889 1450.21 121.514 Q1451.1 121.116 1452.09 121.116 Q1453.05 121.116 1453.98 121.373 Q1454.92 121.608 1455.72 122.381 Q1456.54 123.13 1456.54 124.278 Z" fill="#000000" fill-rule="nonzero" fill-opacity="1" /><path clip-path="url(#clip940)" d="M1461.42 156.136 Q1461.42 155.529 1461.47 155.349 Q1461.54 155.168 1461.8 154.89 L1468.24 147.708 Q1471.77 143.74 1471.77 140.281 Q1471.77 138.035 1470.59 136.428 Q1469.42 134.821 1467.27 134.821 Q1465.8 134.821 1464.55 135.723 Q1463.31 136.625 1462.73 138.231 Q1462.83 138.199 1463.18 138.199 Q1464.01 138.199 1464.47 138.723 Q1464.95 139.248 1464.95 139.953 Q1464.95 140.855 1464.36 141.297 Q1463.78 141.724 1463.21 141.724 Q1462.98 141.724 1462.67 141.675 Q1462.37 141.625 1461.9 141.166 Q1461.42 140.691 1461.42 139.855 Q1461.42 137.51 1463.19 135.641 Q1464.98 133.772 1467.7 133.772 Q1470.78 133.772 1472.8 135.608 Q1474.83 137.428 1474.83 140.281 Q1474.83 141.281 1474.52 142.199 Q1474.23 143.101 1473.82 143.806 Q1473.42 144.511 1472.34 145.642 Q1471.26 146.774 1470.39 147.577 Q1469.52 148.38 1467.57 150.086 L1464.01 153.545 L1470.06 153.545 Q1473.01 153.545 1473.24 153.283 Q1473.57 152.807 1473.98 150.299 L1474.83 150.299 L1473.88 156.136 L1461.42 156.136 Z" fill="#000000" fill-rule="nonzero" fill-opacity="1" /><path clip-path="url(#clip940)" d="M1479.82 153.205 L1483.85 153.205 L1483.85 107.437 L1479.82 107.437 L1479.82 106.336 L1487.06 106.336 L1487.06 154.305 L1479.82 154.305 L1479.82 153.205 Z" fill="#000000" fill-rule="nonzero" fill-opacity="1" /><polyline clip-path="url(#clip940)" style="stroke:#e26f46; stroke-linecap:round; stroke-linejoin:round; stroke-width:4; stroke-opacity:1; fill:none" points="1076.34,183.247 1165.95,183.247 "/>
<path clip-path="url(#clip940)" d="M1203.02 167.46 Q1203.02 167.788 1202.81 168.561 L1198.22 186.877 Q1197.21 190.953 1193.93 193.81 Q1190.67 196.668 1186.97 196.668 Q1184.75 196.668 1183.32 195.473 Q1181.89 194.302 1181.89 192.498 Q1181.89 190.906 1182.73 190.133 Q1183.58 189.383 1184.58 189.383 Q1184.91 189.383 1185.26 189.477 Q1185.61 189.571 1185.99 189.969 Q1186.36 190.367 1186.36 191.046 Q1186.36 192.147 1185.4 193.014 Q1184.93 193.412 1184.49 193.506 Q1184.07 193.599 1183.34 193.599 Q1183.62 194.255 1184.14 194.7 Q1184.65 195.145 1185.24 195.309 Q1185.82 195.496 1186.2 195.543 Q1186.6 195.614 1186.97 195.614 Q1189.97 195.614 1192.27 192.592 Q1192.95 191.679 1193.44 190.765 Q1193.95 189.875 1194.33 188.774 Q1194.7 187.697 1194.87 187.111 Q1195.05 186.526 1195.38 185.191 Q1193.2 187.369 1190.53 187.369 Q1189.41 187.369 1188.4 187.064 Q1187.42 186.76 1186.55 186.127 Q1185.68 185.472 1185.17 184.324 Q1184.68 183.176 1184.68 181.654 Q1184.68 180.038 1185.31 177.836 Q1185.94 175.634 1187.46 171.582 Q1188.28 169.31 1188.28 168.209 Q1188.28 167.671 1188.17 167.343 Q1188.05 166.991 1187.82 166.874 Q1187.58 166.734 1187.44 166.71 Q1187.32 166.687 1187.09 166.687 Q1185.71 166.687 1184.42 168.092 Q1183.13 169.498 1182.24 172.636 Q1182.05 173.222 1181.94 173.362 Q1181.82 173.503 1181.47 173.503 Q1180.88 173.479 1180.88 173.011 Q1180.88 172.824 1181.09 172.097 Q1181.3 171.348 1181.8 170.247 Q1182.31 169.123 1183.01 168.116 Q1183.72 167.085 1184.82 166.359 Q1185.94 165.633 1187.23 165.633 Q1188.99 165.633 1190.06 166.781 Q1191.17 167.905 1191.17 169.568 Q1191.17 170.247 1190.98 170.856 Q1190.81 171.442 1190.2 173.011 Q1187.75 179.335 1187.75 182.427 Q1187.75 183.176 1187.86 183.809 Q1188 184.418 1188.31 185.027 Q1188.61 185.612 1189.22 185.964 Q1189.85 186.291 1190.72 186.291 Q1191.82 186.291 1192.85 185.776 Q1193.91 185.237 1194.56 184.511 Q1195.24 183.785 1195.64 183.176 Q1196.06 182.544 1196.15 182.216 L1198.31 173.596 L1199.27 169.755 Q1199.71 167.671 1199.93 167.155 Q1200.21 166.663 1200.7 166.406 Q1201.19 166.148 1201.61 166.148 Q1202.2 166.148 1202.6 166.499 Q1203.02 166.851 1203.02 167.46 Z" fill="#000000" fill-rule="nonzero" fill-opacity="1" /><path clip-path="url(#clip940)" d="M1217.46 179.546 Q1217.51 178.96 1218.42 178.96 L1247.81 178.96 Q1249.2 178.96 1249.22 179.499 Q1249.22 180.084 1247.91 180.061 L1218.75 180.061 Q1217.46 180.084 1217.46 179.546 M1217.46 170.177 Q1217.46 169.591 1218.47 169.615 L1247.77 169.615 Q1249.2 169.615 1249.22 170.177 Q1249.22 170.716 1248 170.716 L1218.42 170.716 Q1217.46 170.716 1217.46 170.177 Z" fill="#000000" fill-rule="nonzero" fill-opacity="1" /><path clip-path="url(#clip940)" d="M1312.7 174.159 Q1312.98 174.44 1312.98 174.838 Q1312.98 175.236 1312.7 175.517 Q1312.42 175.798 1312.02 175.798 L1281.99 175.798 Q1281.59 175.798 1281.31 175.517 Q1281.03 175.236 1281.03 174.838 Q1281.03 174.44 1281.31 174.159 Q1281.59 173.878 1281.99 173.878 L1312.02 173.878 Q1312.42 173.878 1312.7 174.159 Z" fill="#000000" fill-rule="nonzero" fill-opacity="1" /><path clip-path="url(#clip940)" d="M1355.18 168.795 Q1355.18 170.107 1354.36 170.856 Q1353.54 171.582 1352.61 171.582 Q1351.72 171.582 1351.25 171.067 Q1350.78 170.552 1350.78 169.896 Q1350.78 169.006 1351.44 168.233 Q1352.09 167.46 1353.07 167.296 Q1352.11 166.687 1350.69 166.687 Q1349.75 166.687 1348.93 167.179 Q1348.13 167.671 1347.64 168.303 Q1347.17 168.935 1346.75 169.849 Q1346.35 170.739 1346.19 171.278 Q1346.05 171.793 1345.93 172.355 L1344.29 178.913 Q1343.49 182.029 1343.49 183.129 Q1343.49 184.488 1344.15 185.401 Q1344.81 186.291 1346.12 186.291 Q1346.63 186.291 1347.22 186.151 Q1347.8 185.987 1348.55 185.565 Q1349.33 185.12 1350.01 184.464 Q1350.71 183.785 1351.39 182.638 Q1352.07 181.49 1352.51 180.014 Q1352.65 179.499 1353.12 179.499 Q1353.71 179.499 1353.71 179.967 Q1353.71 180.366 1353.38 181.209 Q1353.07 182.029 1352.4 183.106 Q1351.74 184.16 1350.87 185.12 Q1350.01 186.057 1348.72 186.713 Q1347.43 187.369 1346.02 187.369 Q1344.01 187.369 1342.68 186.291 Q1341.34 185.214 1340.85 183.715 Q1340.73 183.926 1340.57 184.207 Q1340.4 184.488 1339.91 185.12 Q1339.44 185.729 1338.9 186.198 Q1338.37 186.643 1337.52 186.994 Q1336.7 187.369 1335.81 187.369 Q1334.69 187.369 1333.68 187.041 Q1332.7 186.713 1331.99 185.964 Q1331.29 185.214 1331.29 184.183 Q1331.29 183.036 1332.06 182.239 Q1332.86 181.42 1333.94 181.42 Q1334.62 181.42 1335.16 181.818 Q1335.72 182.216 1335.72 183.083 Q1335.72 184.043 1335.06 184.769 Q1334.41 185.495 1333.47 185.682 Q1334.43 186.291 1335.86 186.291 Q1337.41 186.291 1338.62 184.933 Q1339.84 183.574 1340.43 181.302 Q1341.88 175.845 1342.44 173.409 Q1343 170.95 1343 169.896 Q1343 168.912 1342.75 168.233 Q1342.49 167.553 1342.04 167.249 Q1341.62 166.921 1341.22 166.804 Q1340.85 166.687 1340.43 166.687 Q1339.72 166.687 1338.93 166.968 Q1338.15 167.249 1337.22 167.905 Q1336.3 168.537 1335.44 169.849 Q1334.57 171.161 1333.99 172.964 Q1333.87 173.503 1333.35 173.503 Q1332.79 173.479 1332.79 173.011 Q1332.79 172.613 1333.1 171.793 Q1333.42 170.95 1334.08 169.896 Q1334.76 168.842 1335.62 167.905 Q1336.51 166.945 1337.8 166.289 Q1339.11 165.633 1340.52 165.633 Q1341.15 165.633 1341.76 165.773 Q1342.39 165.89 1343.14 166.242 Q1343.92 166.593 1344.6 167.366 Q1345.27 168.139 1345.7 169.263 Q1345.98 168.725 1346.35 168.209 Q1346.75 167.694 1347.36 167.062 Q1347.99 166.406 1348.86 166.031 Q1349.75 165.633 1350.73 165.633 Q1351.69 165.633 1352.63 165.89 Q1353.57 166.125 1354.36 166.898 Q1355.18 167.647 1355.18 168.795 Z" fill="#000000" fill-rule="nonzero" fill-opacity="1" /><path clip-path="url(#clip940)" d="M1360.07 200.653 Q1360.07 200.046 1360.12 199.866 Q1360.18 199.685 1360.45 199.407 L1366.89 192.225 Q1370.41 188.258 1370.41 184.798 Q1370.41 182.552 1369.23 180.945 Q1368.07 179.338 1365.92 179.338 Q1364.45 179.338 1363.2 180.24 Q1361.95 181.142 1361.38 182.749 Q1361.48 182.716 1361.82 182.716 Q1362.66 182.716 1363.12 183.24 Q1363.59 183.765 1363.59 184.47 Q1363.59 185.372 1363 185.815 Q1362.43 186.241 1361.86 186.241 Q1361.63 186.241 1361.31 186.192 Q1361.02 186.142 1360.54 185.683 Q1360.07 185.208 1360.07 184.372 Q1360.07 182.027 1361.84 180.158 Q1363.63 178.289 1366.35 178.289 Q1369.43 178.289 1371.45 180.125 Q1373.48 181.945 1373.48 184.798 Q1373.48 185.798 1373.17 186.716 Q1372.87 187.618 1372.46 188.323 Q1372.07 189.028 1370.99 190.159 Q1369.91 191.291 1369.04 192.094 Q1368.17 192.897 1366.22 194.603 L1362.66 198.062 L1368.71 198.062 Q1371.66 198.062 1371.89 197.8 Q1372.22 197.324 1372.63 194.816 L1373.48 194.816 L1372.53 200.653 L1360.07 200.653 Z" fill="#000000" fill-rule="nonzero" fill-opacity="1" /></svg>
