<?xml version="1.0" encoding="utf-8"?>
<svg xmlns="http://www.w3.org/2000/svg" xmlns:xlink="http://www.w3.org/1999/xlink" width="400" height="300" viewBox="0 0 1600 1200">
<defs>
  <clipPath id="clip790">
    <rect x="0" y="0" width="1600" height="1200"/>
  </clipPath>
</defs>
<path clip-path="url(#clip790)" d="M0 1200 L1600 1200 L1600 0 L0 0  Z" fill="#ffffff" fill-rule="evenodd" fill-opacity="1"/>
<defs>
  <clipPath id="clip791">
    <rect x="320" y="0" width="1121" height="1121"/>
  </clipPath>
</defs>
<path clip-path="url(#clip790)" d="M217.806 1016.92 L1552.76 1016.92 L1552.76 47.2441 L217.806 47.2441  Z" fill="#ffffff" fill-rule="evenodd" fill-opacity="1"/>
<defs>
  <clipPath id="clip792">
    <rect x="217" y="47" width="1336" height="971"/>
  </clipPath>
</defs>
<polyline clip-path="url(#clip792)" style="stroke:#000000; stroke-linecap:round; stroke-linejoin:round; stroke-width:2; stroke-opacity:0.1; fill:none" points="507.465,1016.92 507.465,47.2441 "/>
<polyline clip-path="url(#clip792)" style="stroke:#000000; stroke-linecap:round; stroke-linejoin:round; stroke-width:2; stroke-opacity:0.1; fill:none" points="822.312,1016.92 822.312,47.2441 "/>
<polyline clip-path="url(#clip792)" style="stroke:#000000; stroke-linecap:round; stroke-linejoin:round; stroke-width:2; stroke-opacity:0.1; fill:none" points="1137.16,1016.92 1137.16,47.2441 "/>
<polyline clip-path="url(#clip792)" style="stroke:#000000; stroke-linecap:round; stroke-linejoin:round; stroke-width:2; stroke-opacity:0.1; fill:none" points="1452,1016.92 1452,47.2441 "/>
<polyline clip-path="url(#clip790)" style="stroke:#000000; stroke-linecap:round; stroke-linejoin:round; stroke-width:4; stroke-opacity:1; fill:none" points="217.806,1016.92 1552.76,1016.92 "/>
<polyline clip-path="url(#clip790)" style="stroke:#000000; stroke-linecap:round; stroke-linejoin:round; stroke-width:4; stroke-opacity:1; fill:none" points="507.465,1016.92 507.465,998.022 "/>
<polyline clip-path="url(#clip790)" style="stroke:#000000; stroke-linecap:round; stroke-linejoin:round; stroke-width:4; stroke-opacity:1; fill:none" points="822.312,1016.92 822.312,998.022 "/>
<polyline clip-path="url(#clip790)" style="stroke:#000000; stroke-linecap:round; stroke-linejoin:round; stroke-width:4; stroke-opacity:1; fill:none" points="1137.16,1016.92 1137.16,998.022 "/>
<polyline clip-path="url(#clip790)" style="stroke:#000000; stroke-linecap:round; stroke-linejoin:round; stroke-width:4; stroke-opacity:1; fill:none" points="1452,1016.92 1452,998.022 "/>
<path clip-path="url(#clip790)" d="M497.743 1038.36 L516.099 1038.36 L516.099 1042.3 L502.025 1042.3 L502.025 1050.77 Q503.044 1050.42 504.062 1050.26 Q505.081 1050.07 506.099 1050.07 Q511.886 1050.07 515.266 1053.24 Q518.646 1056.42 518.646 1061.83 Q518.646 1067.41 515.173 1070.51 Q511.701 1073.59 505.382 1073.59 Q503.206 1073.59 500.937 1073.22 Q498.692 1072.85 496.285 1072.11 L496.285 1067.41 Q498.368 1068.54 500.59 1069.1 Q502.812 1069.66 505.289 1069.66 Q509.294 1069.66 511.632 1067.55 Q513.97 1065.44 513.97 1061.83 Q513.97 1058.22 511.632 1056.11 Q509.294 1054.01 505.289 1054.01 Q503.414 1054.01 501.539 1054.42 Q499.687 1054.84 497.743 1055.72 L497.743 1038.36 Z" fill="#000000" fill-rule="nonzero" fill-opacity="1" /><path clip-path="url(#clip790)" d="M796.999 1068.98 L804.638 1068.98 L804.638 1042.62 L796.328 1044.29 L796.328 1040.03 L804.592 1038.36 L809.268 1038.36 L809.268 1068.98 L816.907 1068.98 L816.907 1072.92 L796.999 1072.92 L796.999 1068.98 Z" fill="#000000" fill-rule="nonzero" fill-opacity="1" /><path clip-path="url(#clip790)" d="M836.351 1041.44 Q832.74 1041.44 830.911 1045 Q829.106 1048.54 829.106 1055.67 Q829.106 1062.78 830.911 1066.35 Q832.74 1069.89 836.351 1069.89 Q839.985 1069.89 841.791 1066.35 Q843.62 1062.78 843.62 1055.67 Q843.62 1048.54 841.791 1045 Q839.985 1041.44 836.351 1041.44 M836.351 1037.73 Q842.161 1037.73 845.217 1042.34 Q848.295 1046.92 848.295 1055.67 Q848.295 1064.4 845.217 1069.01 Q842.161 1073.59 836.351 1073.59 Q830.541 1073.59 827.462 1069.01 Q824.407 1064.4 824.407 1055.67 Q824.407 1046.92 827.462 1042.34 Q830.541 1037.73 836.351 1037.73 Z" fill="#000000" fill-rule="nonzero" fill-opacity="1" /><path clip-path="url(#clip790)" d="M1112.34 1068.98 L1119.98 1068.98 L1119.98 1042.62 L1111.67 1044.29 L1111.67 1040.03 L1119.94 1038.36 L1124.61 1038.36 L1124.61 1068.98 L1132.25 1068.98 L1132.25 1072.92 L1112.34 1072.92 L1112.34 1068.98 Z" fill="#000000" fill-rule="nonzero" fill-opacity="1" /><path clip-path="url(#clip790)" d="M1141.74 1038.36 L1160.1 1038.36 L1160.1 1042.3 L1146.02 1042.3 L1146.02 1050.77 Q1147.04 1050.42 1148.06 1050.26 Q1149.08 1050.07 1150.1 1050.07 Q1155.89 1050.07 1159.26 1053.24 Q1162.64 1056.42 1162.64 1061.83 Q1162.64 1067.41 1159.17 1070.51 Q1155.7 1073.59 1149.38 1073.59 Q1147.2 1073.59 1144.94 1073.22 Q1142.69 1072.85 1140.28 1072.11 L1140.28 1067.41 Q1142.37 1068.54 1144.59 1069.1 Q1146.81 1069.66 1149.29 1069.66 Q1153.29 1069.66 1155.63 1067.55 Q1157.97 1065.44 1157.97 1061.83 Q1157.97 1058.22 1155.63 1056.11 Q1153.29 1054.01 1149.29 1054.01 Q1147.41 1054.01 1145.54 1054.42 Q1143.69 1054.84 1141.74 1055.72 L1141.74 1038.36 Z" fill="#000000" fill-rule="nonzero" fill-opacity="1" /><path clip-path="url(#clip790)" d="M1430.78 1068.98 L1447.1 1068.98 L1447.1 1072.92 L1425.15 1072.92 L1425.15 1068.98 Q1427.82 1066.23 1432.4 1061.6 Q1437.01 1056.95 1438.19 1055.61 Q1440.43 1053.08 1441.31 1051.35 Q1442.21 1049.59 1442.21 1047.9 Q1442.21 1045.14 1440.27 1043.41 Q1438.35 1041.67 1435.25 1041.67 Q1433.05 1041.67 1430.59 1042.43 Q1428.16 1043.2 1425.38 1044.75 L1425.38 1040.03 Q1428.21 1038.89 1430.66 1038.31 Q1433.12 1037.73 1435.15 1037.73 Q1440.52 1037.73 1443.72 1040.42 Q1446.91 1043.11 1446.91 1047.6 Q1446.91 1049.73 1446.1 1051.65 Q1445.32 1053.54 1443.21 1056.14 Q1442.63 1056.81 1439.53 1060.03 Q1436.43 1063.22 1430.78 1068.98 Z" fill="#000000" fill-rule="nonzero" fill-opacity="1" /><path clip-path="url(#clip790)" d="M1466.91 1041.44 Q1463.3 1041.44 1461.47 1045 Q1459.67 1048.54 1459.67 1055.67 Q1459.67 1062.78 1461.47 1066.35 Q1463.3 1069.89 1466.91 1069.89 Q1470.55 1069.89 1472.35 1066.35 Q1474.18 1062.78 1474.18 1055.67 Q1474.18 1048.54 1472.35 1045 Q1470.55 1041.44 1466.91 1041.44 M1466.91 1037.73 Q1472.72 1037.73 1475.78 1042.34 Q1478.86 1046.92 1478.86 1055.67 Q1478.86 1064.4 1475.78 1069.01 Q1472.72 1073.59 1466.91 1073.59 Q1461.1 1073.59 1458.02 1069.01 Q1454.97 1064.4 1454.97 1055.67 Q1454.97 1046.92 1458.02 1042.34 Q1461.1 1037.73 1466.91 1037.73 Z" fill="#000000" fill-rule="nonzero" fill-opacity="1" /><path clip-path="url(#clip790)" d="M612.622 1102.26 L621.279 1102.26 L642.35 1142.02 L642.35 1102.26 L648.588 1102.26 L648.588 1149.78 L639.931 1149.78 L618.86 1110.03 L618.86 1149.78 L612.622 1149.78 L612.622 1102.26 Z" fill="#000000" fill-rule="nonzero" fill-opacity="1" /><path clip-path="url(#clip790)" d="M660.524 1135.72 L660.524 1114.14 L666.38 1114.14 L666.38 1135.49 Q666.38 1140.55 668.354 1143.1 Q670.327 1145.61 674.274 1145.61 Q679.016 1145.61 681.754 1142.59 Q684.523 1139.57 684.523 1134.35 L684.523 1114.14 L690.379 1114.14 L690.379 1149.78 L684.523 1149.78 L684.523 1144.31 Q682.39 1147.56 679.557 1149.15 Q676.756 1150.71 673.033 1150.71 Q666.89 1150.71 663.707 1146.89 Q660.524 1143.07 660.524 1135.72 M675.261 1113.28 L675.261 1113.28 Z" fill="#000000" fill-rule="nonzero" fill-opacity="1" /><path clip-path="url(#clip790)" d="M730.197 1120.98 Q732.393 1117.03 735.448 1115.15 Q738.504 1113.28 742.642 1113.28 Q748.212 1113.28 751.235 1117.19 Q754.259 1121.07 754.259 1128.27 L754.259 1149.78 L748.371 1149.78 L748.371 1128.46 Q748.371 1123.33 746.556 1120.85 Q744.742 1118.37 741.018 1118.37 Q736.467 1118.37 733.825 1121.39 Q731.183 1124.42 731.183 1129.64 L731.183 1149.78 L725.295 1149.78 L725.295 1128.46 Q725.295 1123.3 723.481 1120.85 Q721.667 1118.37 717.879 1118.37 Q713.391 1118.37 710.749 1121.42 Q708.108 1124.45 708.108 1129.64 L708.108 1149.78 L702.219 1149.78 L702.219 1114.14 L708.108 1114.14 L708.108 1119.67 Q710.113 1116.4 712.914 1114.84 Q715.715 1113.28 719.566 1113.28 Q723.449 1113.28 726.154 1115.25 Q728.892 1117.22 730.197 1120.98 Z" fill="#000000" fill-rule="nonzero" fill-opacity="1" /><path clip-path="url(#clip790)" d="M791.53 1131.99 Q791.53 1125.53 788.857 1121.87 Q786.215 1118.18 781.568 1118.18 Q776.921 1118.18 774.247 1121.87 Q771.605 1125.53 771.605 1131.99 Q771.605 1138.45 774.247 1142.14 Q776.921 1145.81 781.568 1145.81 Q786.215 1145.81 788.857 1142.14 Q791.53 1138.45 791.53 1131.99 M771.605 1119.55 Q773.452 1116.36 776.252 1114.84 Q779.085 1113.28 783 1113.28 Q789.493 1113.28 793.535 1118.43 Q797.609 1123.59 797.609 1131.99 Q797.609 1140.39 793.535 1145.55 Q789.493 1150.71 783 1150.71 Q779.085 1150.71 776.252 1149.18 Q773.452 1147.62 771.605 1144.44 L771.605 1149.78 L765.717 1149.78 L765.717 1100.26 L771.605 1100.26 L771.605 1119.55 Z" fill="#000000" fill-rule="nonzero" fill-opacity="1" /><path clip-path="url(#clip790)" d="M837.809 1130.5 L837.809 1133.36 L810.882 1133.36 Q811.264 1139.41 814.51 1142.59 Q817.789 1145.74 823.613 1145.74 Q826.987 1145.74 830.138 1144.91 Q833.321 1144.09 836.44 1142.43 L836.44 1147.97 Q833.289 1149.31 829.979 1150.01 Q826.669 1150.71 823.263 1150.71 Q814.733 1150.71 809.736 1145.74 Q804.771 1140.78 804.771 1132.31 Q804.771 1123.56 809.481 1118.43 Q814.224 1113.28 822.245 1113.28 Q829.438 1113.28 833.607 1117.92 Q837.809 1122.54 837.809 1130.5 M831.952 1128.78 Q831.889 1123.97 829.247 1121.11 Q826.637 1118.24 822.308 1118.24 Q817.407 1118.24 814.447 1121.01 Q811.518 1123.78 811.073 1128.81 L831.952 1128.78 Z" fill="#000000" fill-rule="nonzero" fill-opacity="1" /><path clip-path="url(#clip790)" d="M868.078 1119.61 Q867.091 1119.04 865.913 1118.78 Q864.768 1118.5 863.367 1118.5 Q858.402 1118.5 855.728 1121.74 Q853.087 1124.96 853.087 1131.01 L853.087 1149.78 L847.198 1149.78 L847.198 1114.14 L853.087 1114.14 L853.087 1119.67 Q854.933 1116.43 857.893 1114.87 Q860.853 1113.28 865.086 1113.28 Q865.691 1113.28 866.423 1113.37 Q867.155 1113.44 868.046 1113.59 L868.078 1119.61 Z" fill="#000000" fill-rule="nonzero" fill-opacity="1" /><path clip-path="url(#clip790)" d="M908.755 1118.24 Q904.044 1118.24 901.307 1121.93 Q898.569 1125.59 898.569 1131.99 Q898.569 1138.39 901.275 1142.08 Q904.012 1145.74 908.755 1145.74 Q913.433 1145.74 916.171 1142.05 Q918.908 1138.36 918.908 1131.99 Q918.908 1125.66 916.171 1121.97 Q913.433 1118.24 908.755 1118.24 M908.755 1113.28 Q916.393 1113.28 920.754 1118.24 Q925.114 1123.21 925.114 1131.99 Q925.114 1140.74 920.754 1145.74 Q916.393 1150.71 908.755 1150.71 Q901.084 1150.71 896.723 1145.74 Q892.395 1140.74 892.395 1131.99 Q892.395 1123.21 896.723 1118.24 Q901.084 1113.28 908.755 1113.28 Z" fill="#000000" fill-rule="nonzero" fill-opacity="1" /><path clip-path="url(#clip790)" d="M952.869 1100.26 L952.869 1105.13 L947.267 1105.13 Q944.116 1105.13 942.875 1106.4 Q941.665 1107.67 941.665 1110.98 L941.665 1114.14 L951.309 1114.14 L951.309 1118.69 L941.665 1118.69 L941.665 1149.78 L935.777 1149.78 L935.777 1118.69 L930.175 1118.69 L930.175 1114.14 L935.777 1114.14 L935.777 1111.65 Q935.777 1105.7 938.546 1103 Q941.315 1100.26 947.331 1100.26 L952.869 1100.26 Z" fill="#000000" fill-rule="nonzero" fill-opacity="1" /><path clip-path="url(#clip790)" d="M984.284 1104.01 L984.284 1114.14 L996.347 1114.14 L996.347 1118.69 L984.284 1118.69 L984.284 1138.04 Q984.284 1142.4 985.461 1143.64 Q986.671 1144.88 990.331 1144.88 L996.347 1144.88 L996.347 1149.78 L990.331 1149.78 Q983.552 1149.78 980.974 1147.27 Q978.395 1144.72 978.395 1138.04 L978.395 1118.69 L974.099 1118.69 L974.099 1114.14 L978.395 1114.14 L978.395 1104.01 L984.284 1104.01 Z" fill="#000000" fill-rule="nonzero" fill-opacity="1" /><path clip-path="url(#clip790)" d="M1034.54 1130.5 L1034.54 1133.36 L1007.61 1133.36 Q1008 1139.41 1011.24 1142.59 Q1014.52 1145.74 1020.35 1145.74 Q1023.72 1145.74 1026.87 1144.91 Q1030.05 1144.09 1033.17 1142.43 L1033.17 1147.97 Q1030.02 1149.31 1026.71 1150.01 Q1023.4 1150.71 1020 1150.71 Q1011.47 1150.71 1006.47 1145.74 Q1001.5 1140.78 1001.5 1132.31 Q1001.5 1123.56 1006.21 1118.43 Q1010.96 1113.28 1018.98 1113.28 Q1026.17 1113.28 1030.34 1117.92 Q1034.54 1122.54 1034.54 1130.5 M1028.68 1128.78 Q1028.62 1123.97 1025.98 1121.11 Q1023.37 1118.24 1019.04 1118.24 Q1014.14 1118.24 1011.18 1121.01 Q1008.25 1123.78 1007.81 1128.81 L1028.68 1128.78 Z" fill="#000000" fill-rule="nonzero" fill-opacity="1" /><path clip-path="url(#clip790)" d="M1064.81 1119.61 Q1063.82 1119.04 1062.65 1118.78 Q1061.5 1118.5 1060.1 1118.5 Q1055.13 1118.5 1052.46 1121.74 Q1049.82 1124.96 1049.82 1131.01 L1049.82 1149.78 L1043.93 1149.78 L1043.93 1114.14 L1049.82 1114.14 L1049.82 1119.67 Q1051.66 1116.43 1054.62 1114.87 Q1057.58 1113.28 1061.82 1113.28 Q1062.42 1113.28 1063.15 1113.37 Q1063.89 1113.44 1064.78 1113.59 L1064.81 1119.61 Z" fill="#000000" fill-rule="nonzero" fill-opacity="1" /><path clip-path="url(#clip790)" d="M1097.56 1120.98 Q1099.76 1117.03 1102.81 1115.15 Q1105.87 1113.28 1110.01 1113.28 Q1115.58 1113.28 1118.6 1117.19 Q1121.62 1121.07 1121.62 1128.27 L1121.62 1149.78 L1115.74 1149.78 L1115.74 1128.46 Q1115.74 1123.33 1113.92 1120.85 Q1112.11 1118.37 1108.38 1118.37 Q1103.83 1118.37 1101.19 1121.39 Q1098.55 1124.42 1098.55 1129.64 L1098.55 1149.78 L1092.66 1149.78 L1092.66 1128.46 Q1092.66 1123.3 1090.85 1120.85 Q1089.03 1118.37 1085.24 1118.37 Q1080.76 1118.37 1078.11 1121.42 Q1075.47 1124.45 1075.47 1129.64 L1075.47 1149.78 L1069.58 1149.78 L1069.58 1114.14 L1075.47 1114.14 L1075.47 1119.67 Q1077.48 1116.4 1080.28 1114.84 Q1083.08 1113.28 1086.93 1113.28 Q1090.81 1113.28 1093.52 1115.25 Q1096.26 1117.22 1097.56 1120.98 Z" fill="#000000" fill-rule="nonzero" fill-opacity="1" /><path clip-path="url(#clip790)" d="M1156.03 1115.19 L1156.03 1120.72 Q1153.55 1119.45 1150.87 1118.81 Q1148.2 1118.18 1145.34 1118.18 Q1140.98 1118.18 1138.78 1119.51 Q1136.62 1120.85 1136.62 1123.53 Q1136.62 1125.56 1138.17 1126.74 Q1139.73 1127.89 1144.44 1128.94 L1146.45 1129.38 Q1152.69 1130.72 1155.3 1133.17 Q1157.94 1135.59 1157.94 1139.95 Q1157.94 1144.91 1153.99 1147.81 Q1150.08 1150.71 1143.2 1150.71 Q1140.34 1150.71 1137.22 1150.13 Q1134.13 1149.59 1130.69 1148.48 L1130.69 1142.43 Q1133.94 1144.12 1137.09 1144.98 Q1140.24 1145.81 1143.33 1145.81 Q1147.47 1145.81 1149.7 1144.4 Q1151.92 1142.97 1151.92 1140.39 Q1151.92 1138.01 1150.3 1136.73 Q1148.71 1135.46 1143.27 1134.28 L1141.23 1133.81 Q1135.79 1132.66 1133.37 1130.3 Q1130.95 1127.92 1130.95 1123.78 Q1130.95 1118.75 1134.51 1116.01 Q1138.08 1113.28 1144.64 1113.28 Q1147.88 1113.28 1150.75 1113.75 Q1153.61 1114.23 1156.03 1115.19 Z" fill="#000000" fill-rule="nonzero" fill-opacity="1" /><polyline clip-path="url(#clip792)" style="stroke:#000000; stroke-linecap:round; stroke-linejoin:round; stroke-width:2; stroke-opacity:0.1; fill:none" points="217.806,989.476 1552.76,989.476 "/>
<polyline clip-path="url(#clip792)" style="stroke:#000000; stroke-linecap:round; stroke-linejoin:round; stroke-width:2; stroke-opacity:0.1; fill:none" points="217.806,745.095 1552.76,745.095 "/>
<polyline clip-path="url(#clip792)" style="stroke:#000000; stroke-linecap:round; stroke-linejoin:round; stroke-width:2; stroke-opacity:0.1; fill:none" points="217.806,500.714 1552.76,500.714 "/>
<polyline clip-path="url(#clip792)" style="stroke:#000000; stroke-linecap:round; stroke-linejoin:round; stroke-width:2; stroke-opacity:0.1; fill:none" points="217.806,256.334 1552.76,256.334 "/>
<polyline clip-path="url(#clip790)" style="stroke:#000000; stroke-linecap:round; stroke-linejoin:round; stroke-width:4; stroke-opacity:1; fill:none" points="217.806,1016.92 217.806,47.2441 "/>
<polyline clip-path="url(#clip790)" style="stroke:#000000; stroke-linecap:round; stroke-linejoin:round; stroke-width:4; stroke-opacity:1; fill:none" points="217.806,989.476 236.704,989.476 "/>
<polyline clip-path="url(#clip790)" style="stroke:#000000; stroke-linecap:round; stroke-linejoin:round; stroke-width:4; stroke-opacity:1; fill:none" points="217.806,745.095 236.704,745.095 "/>
<polyline clip-path="url(#clip790)" style="stroke:#000000; stroke-linecap:round; stroke-linejoin:round; stroke-width:4; stroke-opacity:1; fill:none" points="217.806,500.714 236.704,500.714 "/>
<polyline clip-path="url(#clip790)" style="stroke:#000000; stroke-linecap:round; stroke-linejoin:round; stroke-width:4; stroke-opacity:1; fill:none" points="217.806,256.334 236.704,256.334 "/>
<path clip-path="url(#clip790)" d="M136.631 975.275 Q133.02 975.275 131.191 978.84 Q129.385 982.381 129.385 989.511 Q129.385 996.617 131.191 1000.18 Q133.02 1003.72 136.631 1003.72 Q140.265 1003.72 142.07 1000.18 Q143.899 996.617 143.899 989.511 Q143.899 982.381 142.07 978.84 Q140.265 975.275 136.631 975.275 M136.631 971.571 Q142.441 971.571 145.496 976.178 Q148.575 980.761 148.575 989.511 Q148.575 998.238 145.496 1002.84 Q142.441 1007.43 136.631 1007.43 Q130.82 1007.43 127.742 1002.84 Q124.686 998.238 124.686 989.511 Q124.686 980.761 127.742 976.178 Q130.82 971.571 136.631 971.571 Z" fill="#000000" fill-rule="nonzero" fill-opacity="1" /><path clip-path="url(#clip790)" d="M156.793 1000.88 L161.677 1000.88 L161.677 1006.76 L156.793 1006.76 L156.793 1000.88 Z" fill="#000000" fill-rule="nonzero" fill-opacity="1" /><path clip-path="url(#clip790)" d="M181.862 975.275 Q178.251 975.275 176.422 978.84 Q174.617 982.381 174.617 989.511 Q174.617 996.617 176.422 1000.18 Q178.251 1003.72 181.862 1003.72 Q185.496 1003.72 187.302 1000.18 Q189.13 996.617 189.13 989.511 Q189.13 982.381 187.302 978.84 Q185.496 975.275 181.862 975.275 M181.862 971.571 Q187.672 971.571 190.728 976.178 Q193.806 980.761 193.806 989.511 Q193.806 998.238 190.728 1002.84 Q187.672 1007.43 181.862 1007.43 Q176.052 1007.43 172.973 1002.84 Q169.918 998.238 169.918 989.511 Q169.918 980.761 172.973 976.178 Q176.052 971.571 181.862 971.571 Z" fill="#000000" fill-rule="nonzero" fill-opacity="1" /><path clip-path="url(#clip790)" d="M138.228 730.894 Q134.617 730.894 132.788 734.459 Q130.983 738 130.983 745.13 Q130.983 752.236 132.788 755.801 Q134.617 759.343 138.228 759.343 Q141.862 759.343 143.668 755.801 Q145.496 752.236 145.496 745.13 Q145.496 738 143.668 734.459 Q141.862 730.894 138.228 730.894 M138.228 727.19 Q144.038 727.19 147.094 731.797 Q150.172 736.38 150.172 745.13 Q150.172 753.857 147.094 758.463 Q144.038 763.047 138.228 763.047 Q132.418 763.047 129.339 758.463 Q126.283 753.857 126.283 745.13 Q126.283 736.38 129.339 731.797 Q132.418 727.19 138.228 727.19 Z" fill="#000000" fill-rule="nonzero" fill-opacity="1" /><path clip-path="url(#clip790)" d="M158.39 756.496 L163.274 756.496 L163.274 762.375 L158.39 762.375 L158.39 756.496 Z" fill="#000000" fill-rule="nonzero" fill-opacity="1" /><path clip-path="url(#clip790)" d="M177.487 758.44 L193.806 758.44 L193.806 762.375 L171.862 762.375 L171.862 758.44 Q174.524 755.686 179.107 751.056 Q183.714 746.403 184.894 745.061 Q187.14 742.537 188.019 740.801 Q188.922 739.042 188.922 737.352 Q188.922 734.598 186.978 732.862 Q185.056 731.125 181.954 731.125 Q179.755 731.125 177.302 731.889 Q174.871 732.653 172.093 734.204 L172.093 729.482 Q174.917 728.348 177.371 727.769 Q179.825 727.19 181.862 727.19 Q187.232 727.19 190.427 729.875 Q193.621 732.561 193.621 737.051 Q193.621 739.181 192.811 741.102 Q192.024 743 189.917 745.593 Q189.339 746.264 186.237 749.482 Q183.135 752.676 177.487 758.44 Z" fill="#000000" fill-rule="nonzero" fill-opacity="1" /><path clip-path="url(#clip790)" d="M136.145 486.513 Q132.533 486.513 130.705 490.078 Q128.899 493.62 128.899 500.749 Q128.899 507.856 130.705 511.42 Q132.533 514.962 136.145 514.962 Q139.779 514.962 141.584 511.42 Q143.413 507.856 143.413 500.749 Q143.413 493.62 141.584 490.078 Q139.779 486.513 136.145 486.513 M136.145 482.809 Q141.955 482.809 145.01 487.416 Q148.089 491.999 148.089 500.749 Q148.089 509.476 145.01 514.082 Q141.955 518.666 136.145 518.666 Q130.334 518.666 127.256 514.082 Q124.2 509.476 124.2 500.749 Q124.2 491.999 127.256 487.416 Q130.334 482.809 136.145 482.809 Z" fill="#000000" fill-rule="nonzero" fill-opacity="1" /><path clip-path="url(#clip790)" d="M156.306 512.115 L161.191 512.115 L161.191 517.994 L156.306 517.994 L156.306 512.115 Z" fill="#000000" fill-rule="nonzero" fill-opacity="1" /><path clip-path="url(#clip790)" d="M184.223 487.508 L172.417 505.957 L184.223 505.957 L184.223 487.508 M182.996 483.434 L188.876 483.434 L188.876 505.957 L193.806 505.957 L193.806 509.846 L188.876 509.846 L188.876 517.994 L184.223 517.994 L184.223 509.846 L168.621 509.846 L168.621 505.332 L182.996 483.434 Z" fill="#000000" fill-rule="nonzero" fill-opacity="1" /><path clip-path="url(#clip790)" d="M136.469 242.132 Q132.858 242.132 131.029 245.697 Q129.223 249.239 129.223 256.368 Q129.223 263.475 131.029 267.04 Q132.858 270.581 136.469 270.581 Q140.103 270.581 141.908 267.04 Q143.737 263.475 143.737 256.368 Q143.737 249.239 141.908 245.697 Q140.103 242.132 136.469 242.132 M136.469 238.429 Q142.279 238.429 145.334 243.035 Q148.413 247.618 148.413 256.368 Q148.413 265.095 145.334 269.702 Q142.279 274.285 136.469 274.285 Q130.658 274.285 127.58 269.702 Q124.524 265.095 124.524 256.368 Q124.524 247.618 127.58 243.035 Q130.658 238.429 136.469 238.429 Z" fill="#000000" fill-rule="nonzero" fill-opacity="1" /><path clip-path="url(#clip790)" d="M156.631 267.734 L161.515 267.734 L161.515 273.614 L156.631 273.614 L156.631 267.734 Z" fill="#000000" fill-rule="nonzero" fill-opacity="1" /><path clip-path="url(#clip790)" d="M182.279 254.47 Q179.13 254.47 177.279 256.623 Q175.45 258.776 175.45 262.526 Q175.45 266.252 177.279 268.428 Q179.13 270.581 182.279 270.581 Q185.427 270.581 187.255 268.428 Q189.107 266.252 189.107 262.526 Q189.107 258.776 187.255 256.623 Q185.427 254.47 182.279 254.47 M191.561 239.817 L191.561 244.077 Q189.802 243.243 187.996 242.804 Q186.214 242.364 184.454 242.364 Q179.825 242.364 177.371 245.489 Q174.941 248.614 174.593 254.933 Q175.959 252.919 178.019 251.854 Q180.079 250.766 182.556 250.766 Q187.765 250.766 190.774 253.938 Q193.806 257.086 193.806 262.526 Q193.806 267.85 190.658 271.067 Q187.51 274.285 182.279 274.285 Q176.283 274.285 173.112 269.702 Q169.941 265.095 169.941 256.368 Q169.941 248.174 173.83 243.313 Q177.718 238.429 184.269 238.429 Q186.029 238.429 187.811 238.776 Q189.616 239.123 191.561 239.817 Z" fill="#000000" fill-rule="nonzero" fill-opacity="1" /><path clip-path="url(#clip790)" d="M71.553 534.688 Q73.2599 534.688 74.3549 535.816 Q75.4499 536.911 75.4499 538.328 Q75.4499 539.551 74.7414 540.196 Q74.0328 540.84 73.1311 540.84 Q71.8428 540.84 70.7801 539.841 Q69.7173 538.843 69.4918 537.394 Q68.7189 538.456 68.7189 540.163 Q68.7189 542.965 70.8767 545.445 Q71.8751 546.54 73.7108 547.732 Q75.5143 548.923 76.2873 549.149 L84.8862 551.242 Q85.8524 551.435 90.49 552.627 Q95.0955 553.786 95.2887 553.883 Q96.1905 554.205 96.6736 554.914 Q97.1567 555.622 97.1567 556.331 Q97.1567 557.136 96.6736 557.683 Q96.1905 558.231 95.3531 558.231 Q95.2243 558.231 94.7412 558.134 Q94.2581 558.038 93.5818 557.877 Q92.9055 557.716 92.519 557.651 L77.2856 553.819 Q74.5159 553.11 73.6464 552.949 Q72.7446 552.756 71.7462 552.756 Q70.0071 552.756 69.363 553.303 Q68.7189 553.851 68.7189 554.817 Q68.7189 556.492 70.7156 557.587 Q72.7124 558.682 76.5771 559.616 Q77.6399 559.906 77.8653 560.099 Q78.0908 560.26 78.0908 560.743 Q78.0586 561.548 77.4145 561.548 Q77.2534 561.548 76.2228 561.29 Q75.16 561.033 73.6142 560.55 Q72.0361 560.034 71.0377 559.487 Q70.3614 559.165 69.9105 558.875 Q69.4596 558.585 68.7511 558.005 Q68.0426 557.426 67.6561 556.556 Q67.2696 555.687 67.2696 554.624 Q67.2696 552.305 68.6867 550.662 Q70.1037 548.988 72.3259 548.601 Q71.1665 547.796 70.1681 546.798 Q69.1376 545.799 68.2036 543.964 Q67.2696 542.128 67.2696 540.163 Q67.2696 537.716 68.5256 536.202 Q69.7495 534.688 71.553 534.688 Z" fill="#000000" fill-rule="nonzero" fill-opacity="1" /><path clip-path="url(#clip790)" d="M76.6885 527.914 Q75.8544 527.914 75.6064 527.847 Q75.3584 527.756 74.9752 527.396 L65.1009 518.536 Q59.6452 513.689 54.8884 513.689 Q51.7998 513.689 49.5905 515.312 Q47.3812 516.913 47.3812 519.866 Q47.3812 521.895 48.6211 523.608 Q49.861 525.322 52.0704 526.111 Q52.0253 525.975 52.0253 525.502 Q52.0253 524.352 52.7467 523.721 Q53.4681 523.067 54.4375 523.067 Q55.6774 523.067 56.2861 523.879 Q56.8723 524.668 56.8723 525.457 Q56.8723 525.773 56.8046 526.201 Q56.737 526.607 56.1058 527.26 Q55.452 527.914 54.3022 527.914 Q51.0784 527.914 48.5084 525.479 Q45.9384 523.022 45.9384 519.28 Q45.9384 515.042 48.4633 512.269 Q50.9657 509.473 54.8884 509.473 Q56.2636 509.473 57.526 509.902 Q58.766 510.307 59.7354 510.871 Q60.7048 511.412 62.2603 512.9 Q63.8158 514.388 64.9205 515.583 Q66.0252 516.777 68.3697 519.46 L73.1266 524.352 L73.1266 516.034 Q73.1266 511.976 72.7658 511.66 Q72.1121 511.209 68.6628 510.645 L68.6628 509.473 L76.6885 510.781 L76.6885 527.914 Z" fill="#000000" fill-rule="nonzero" fill-opacity="1" /><polyline clip-path="url(#clip792)" style="stroke:#009af9; stroke-linecap:round; stroke-linejoin:round; stroke-width:4; stroke-opacity:1; fill:none" points="255.588,989.476 381.527,421.571 507.465,293.131 633.404,163.884 759.342,121.135 885.281,88.682 1011.22,87.8188 1137.16,87.6814 1263.1,88.2097 1389.04,89.5587 1514.97,90.6817 "/>
<polyline clip-path="url(#clip792)" style="stroke:#e26f46; stroke-linecap:round; stroke-linejoin:round; stroke-width:4; stroke-opacity:1; fill:none" points="255.588,74.6877 381.527,74.6877 507.465,74.6877 633.404,74.6877 759.342,74.6877 885.281,74.6877 1011.22,74.6877 1137.16,74.6877 1263.1,74.6877 1389.04,74.6877 1514.97,74.6877 "/>
<path clip-path="url(#clip790)" d="M1081.99 984.597 L1508.26 984.597 L1508.26 829.077 L1081.99 829.077  Z" fill="#ffffff" fill-rule="evenodd" fill-opacity="1"/>
<polyline clip-path="url(#clip790)" style="stroke:#000000; stroke-linecap:round; stroke-linejoin:round; stroke-width:4; stroke-opacity:1; fill:none" points="1081.99,984.597 1508.26,984.597 1508.26,829.077 1081.99,829.077 1081.99,984.597 "/>
<polyline clip-path="url(#clip790)" style="stroke:#009af9; stroke-linecap:round; stroke-linejoin:round; stroke-width:4; stroke-opacity:1; fill:none" points="1096.83,880.917 1185.82,880.917 "/>
<path clip-path="url(#clip790)" d="M1200.66 864.34 L1222.51 864.34 L1222.51 868.275 L1205.33 868.275 L1205.33 878.506 L1221.79 878.506 L1221.79 882.441 L1205.33 882.441 L1205.33 894.965 L1222.93 894.965 L1222.93 898.9 L1200.66 898.9 L1200.66 864.34 Z" fill="#000000" fill-rule="nonzero" fill-opacity="1" /><path clip-path="url(#clip790)" d="M1246.95 873.738 L1246.95 877.766 Q1245.15 876.84 1243.2 876.377 Q1241.26 875.914 1239.18 875.914 Q1236 875.914 1234.41 876.886 Q1232.83 877.858 1232.83 879.803 Q1232.83 881.284 1233.97 882.141 Q1235.1 882.974 1238.53 883.738 L1239.99 884.062 Q1244.52 885.034 1246.42 886.816 Q1248.34 888.576 1248.34 891.747 Q1248.34 895.358 1245.47 897.465 Q1242.62 899.571 1237.62 899.571 Q1235.54 899.571 1233.27 899.154 Q1231.03 898.761 1228.53 897.951 L1228.53 893.553 Q1230.89 894.779 1233.18 895.404 Q1235.47 896.006 1237.72 896.006 Q1240.73 896.006 1242.35 894.988 Q1243.97 893.946 1243.97 892.071 Q1243.97 890.335 1242.79 889.409 Q1241.63 888.483 1237.67 887.627 L1236.19 887.279 Q1232.23 886.446 1230.47 884.733 Q1228.71 882.997 1228.71 879.988 Q1228.71 876.33 1231.3 874.34 Q1233.9 872.349 1238.67 872.349 Q1241.03 872.349 1243.11 872.696 Q1245.19 873.043 1246.95 873.738 Z" fill="#000000" fill-rule="nonzero" fill-opacity="1" /><path clip-path="url(#clip790)" d="M1259.34 865.613 L1259.34 872.974 L1268.11 872.974 L1268.11 876.284 L1259.34 876.284 L1259.34 890.358 Q1259.34 893.529 1260.19 894.432 Q1261.07 895.335 1263.74 895.335 L1268.11 895.335 L1268.11 898.9 L1263.74 898.9 Q1258.8 898.9 1256.93 897.071 Q1255.05 895.219 1255.05 890.358 L1255.05 876.284 L1251.93 876.284 L1251.93 872.974 L1255.05 872.974 L1255.05 865.613 L1259.34 865.613 Z" fill="#000000" fill-rule="nonzero" fill-opacity="1" /><path clip-path="url(#clip790)" d="M1273.71 872.974 L1277.97 872.974 L1277.97 898.9 L1273.71 898.9 L1273.71 872.974 M1273.71 862.881 L1277.97 862.881 L1277.97 868.275 L1273.71 868.275 L1273.71 862.881 Z" fill="#000000" fill-rule="nonzero" fill-opacity="1" /><path clip-path="url(#clip790)" d="M1307.07 877.951 Q1308.67 875.08 1310.89 873.715 Q1313.11 872.349 1316.12 872.349 Q1320.17 872.349 1322.37 875.196 Q1324.57 878.02 1324.57 883.252 L1324.57 898.9 L1320.29 898.9 L1320.29 883.391 Q1320.29 879.664 1318.97 877.858 Q1317.65 876.053 1314.94 876.053 Q1311.63 876.053 1309.71 878.252 Q1307.79 880.451 1307.79 884.247 L1307.79 898.9 L1303.5 898.9 L1303.5 883.391 Q1303.5 879.641 1302.18 877.858 Q1300.86 876.053 1298.11 876.053 Q1294.85 876.053 1292.92 878.275 Q1291 880.474 1291 884.247 L1291 898.9 L1286.72 898.9 L1286.72 872.974 L1291 872.974 L1291 877.002 Q1292.46 874.617 1294.5 873.483 Q1296.54 872.349 1299.34 872.349 Q1302.16 872.349 1304.13 873.784 Q1306.12 875.219 1307.07 877.951 Z" fill="#000000" fill-rule="nonzero" fill-opacity="1" /><path clip-path="url(#clip790)" d="M1344.85 885.867 Q1339.68 885.867 1337.69 887.048 Q1335.7 888.228 1335.7 891.076 Q1335.7 893.344 1337.18 894.687 Q1338.69 896.006 1341.26 896.006 Q1344.8 896.006 1346.93 893.506 Q1349.08 890.983 1349.08 886.816 L1349.08 885.867 L1344.85 885.867 M1353.34 884.108 L1353.34 898.9 L1349.08 898.9 L1349.08 894.965 Q1347.62 897.326 1345.45 898.46 Q1343.27 899.571 1340.12 899.571 Q1336.14 899.571 1333.78 897.349 Q1331.44 895.103 1331.44 891.353 Q1331.44 886.978 1334.36 884.756 Q1337.3 882.534 1343.11 882.534 L1349.08 882.534 L1349.08 882.117 Q1349.08 879.178 1347.14 877.58 Q1345.22 875.96 1341.72 875.96 Q1339.5 875.96 1337.39 876.492 Q1335.29 877.025 1333.34 878.09 L1333.34 874.154 Q1335.68 873.252 1337.88 872.812 Q1340.08 872.349 1342.16 872.349 Q1347.79 872.349 1350.56 875.266 Q1353.34 878.182 1353.34 884.108 Z" fill="#000000" fill-rule="nonzero" fill-opacity="1" /><path clip-path="url(#clip790)" d="M1366.33 865.613 L1366.33 872.974 L1375.1 872.974 L1375.1 876.284 L1366.33 876.284 L1366.33 890.358 Q1366.33 893.529 1367.18 894.432 Q1368.06 895.335 1370.73 895.335 L1375.1 895.335 L1375.1 898.9 L1370.73 898.9 Q1365.79 898.9 1363.92 897.071 Q1362.04 895.219 1362.04 890.358 L1362.04 876.284 L1358.92 876.284 L1358.92 872.974 L1362.04 872.974 L1362.04 865.613 L1366.33 865.613 Z" fill="#000000" fill-rule="nonzero" fill-opacity="1" /><path clip-path="url(#clip790)" d="M1402.88 884.872 L1402.88 886.955 L1383.29 886.955 Q1383.57 891.353 1385.93 893.668 Q1388.32 895.96 1392.55 895.96 Q1395.01 895.96 1397.3 895.358 Q1399.61 894.756 1401.88 893.553 L1401.88 897.58 Q1399.59 898.552 1397.18 899.062 Q1394.78 899.571 1392.3 899.571 Q1386.1 899.571 1382.46 895.96 Q1378.85 892.349 1378.85 886.191 Q1378.85 879.826 1382.28 876.099 Q1385.73 872.349 1391.56 872.349 Q1396.79 872.349 1399.82 875.729 Q1402.88 879.085 1402.88 884.872 M1398.62 883.622 Q1398.57 880.127 1396.65 878.043 Q1394.75 875.96 1391.6 875.96 Q1388.04 875.96 1385.89 877.974 Q1383.76 879.988 1383.43 883.645 L1398.62 883.622 Z" fill="#000000" fill-rule="nonzero" fill-opacity="1" /><path clip-path="url(#clip790)" d="M1426.93 876.909 L1426.93 862.881 L1431.19 862.881 L1431.19 898.9 L1426.93 898.9 L1426.93 895.011 Q1425.59 897.326 1423.53 898.46 Q1421.49 899.571 1418.62 899.571 Q1413.92 899.571 1410.96 895.821 Q1408.02 892.071 1408.02 885.96 Q1408.02 879.849 1410.96 876.099 Q1413.92 872.349 1418.62 872.349 Q1421.49 872.349 1423.53 873.483 Q1425.59 874.594 1426.93 876.909 M1412.41 885.96 Q1412.41 890.659 1414.34 893.344 Q1416.28 896.006 1419.66 896.006 Q1423.04 896.006 1424.98 893.344 Q1426.93 890.659 1426.93 885.96 Q1426.93 881.261 1424.98 878.599 Q1423.04 875.914 1419.66 875.914 Q1416.28 875.914 1414.34 878.599 Q1412.41 881.261 1412.41 885.96 Z" fill="#000000" fill-rule="nonzero" fill-opacity="1" /><path clip-path="url(#clip790)" d="M1470.1 880.818 Q1470.1 882.059 1469.28 882.855 Q1468.48 883.652 1467.45 883.652 Q1466.56 883.652 1466.09 883.136 Q1465.62 882.621 1465.62 881.965 Q1465.62 881.028 1466.35 880.255 Q1467.08 879.483 1468.13 879.319 Q1467.36 878.756 1466.12 878.756 Q1464.08 878.756 1462.27 880.326 Q1461.48 881.052 1460.61 882.387 Q1459.74 883.699 1459.58 884.261 L1458.06 890.514 Q1457.92 891.217 1457.05 894.59 Q1456.21 897.939 1456.14 898.08 Q1455.9 898.736 1455.39 899.087 Q1454.87 899.438 1454.36 899.438 Q1453.77 899.438 1453.37 899.087 Q1452.98 898.736 1452.98 898.127 Q1452.98 898.033 1453.05 897.682 Q1453.12 897.33 1453.23 896.839 Q1453.35 896.347 1453.4 896.066 L1456.18 884.987 Q1456.7 882.972 1456.82 882.34 Q1456.96 881.684 1456.96 880.958 Q1456.96 879.693 1456.56 879.225 Q1456.16 878.756 1455.46 878.756 Q1454.24 878.756 1453.44 880.209 Q1452.65 881.661 1451.97 884.471 Q1451.76 885.244 1451.62 885.408 Q1451.5 885.572 1451.15 885.572 Q1450.56 885.549 1450.56 885.08 Q1450.56 884.963 1450.75 884.214 Q1450.94 883.441 1451.29 882.317 Q1451.66 881.169 1452.06 880.443 Q1452.3 879.951 1452.51 879.623 Q1452.72 879.295 1453.14 878.78 Q1453.56 878.265 1454.19 877.983 Q1454.83 877.702 1455.6 877.702 Q1457.29 877.702 1458.48 878.733 Q1459.7 879.764 1459.98 881.38 Q1460.56 880.537 1461.29 879.81 Q1462.02 879.061 1463.35 878.382 Q1464.69 877.702 1466.12 877.702 Q1467.9 877.702 1469 878.616 Q1470.1 879.506 1470.1 880.818 Z" fill="#000000" fill-rule="nonzero" fill-opacity="1" /><path clip-path="url(#clip790)" d="M1475.03 884.556 Q1475.03 883.949 1475.08 883.769 Q1475.14 883.588 1475.4 883.31 L1481.85 876.128 Q1485.37 872.161 1485.37 868.701 Q1485.37 866.455 1484.19 864.848 Q1483.03 863.241 1480.88 863.241 Q1479.4 863.241 1478.16 864.143 Q1476.91 865.045 1476.34 866.652 Q1476.44 866.619 1476.78 866.619 Q1477.62 866.619 1478.08 867.144 Q1478.55 867.668 1478.55 868.373 Q1478.55 869.275 1477.96 869.718 Q1477.39 870.144 1476.81 870.144 Q1476.58 870.144 1476.27 870.095 Q1475.98 870.046 1475.5 869.586 Q1475.03 869.111 1475.03 868.275 Q1475.03 865.93 1476.8 864.061 Q1478.58 862.192 1481.31 862.192 Q1484.39 862.192 1486.41 864.028 Q1488.44 865.848 1488.44 868.701 Q1488.44 869.701 1488.13 870.619 Q1487.83 871.521 1487.42 872.226 Q1487.03 872.931 1485.95 874.062 Q1484.86 875.194 1484 875.997 Q1483.13 876.801 1481.18 878.506 L1477.62 881.965 L1483.67 881.965 Q1486.62 881.965 1486.85 881.703 Q1487.18 881.227 1487.59 878.719 L1488.44 878.719 L1487.49 884.556 L1475.03 884.556 Z" fill="#000000" fill-rule="nonzero" fill-opacity="1" /><polyline clip-path="url(#clip790)" style="stroke:#e26f46; stroke-linecap:round; stroke-linejoin:round; stroke-width:4; stroke-opacity:1; fill:none" points="1096.83,932.757 1185.82,932.757 "/>
<path clip-path="url(#clip790)" d="M1200.66 916.18 L1229.89 916.18 L1229.89 920.115 L1217.62 920.115 L1217.62 950.74 L1212.93 950.74 L1212.93 920.115 L1200.66 920.115 L1200.66 916.18 Z" fill="#000000" fill-rule="nonzero" fill-opacity="1" /><path clip-path="url(#clip790)" d="M1242.28 928.795 Q1241.56 928.379 1240.7 928.194 Q1239.87 927.985 1238.85 927.985 Q1235.24 927.985 1233.3 930.346 Q1231.37 932.684 1231.37 937.082 L1231.37 950.74 L1227.09 950.74 L1227.09 924.814 L1231.37 924.814 L1231.37 928.842 Q1232.72 926.481 1234.87 925.346 Q1237.02 924.189 1240.1 924.189 Q1240.54 924.189 1241.07 924.258 Q1241.61 924.305 1242.25 924.42 L1242.28 928.795 Z" fill="#000000" fill-rule="nonzero" fill-opacity="1" /><path clip-path="url(#clip790)" d="M1246.3 940.508 L1246.3 924.814 L1250.56 924.814 L1250.56 940.346 Q1250.56 944.027 1252 945.879 Q1253.43 947.707 1256.3 947.707 Q1259.75 947.707 1261.74 945.508 Q1263.76 943.309 1263.76 939.513 L1263.76 924.814 L1268.02 924.814 L1268.02 950.74 L1263.76 950.74 L1263.76 946.758 Q1262.21 949.119 1260.15 950.277 Q1258.11 951.411 1255.4 951.411 Q1250.93 951.411 1248.62 948.633 Q1246.3 945.855 1246.3 940.508 M1257.02 924.189 L1257.02 924.189 Z" fill="#000000" fill-rule="nonzero" fill-opacity="1" /><path clip-path="url(#clip790)" d="M1298.97 936.712 L1298.97 938.795 L1279.38 938.795 Q1279.66 943.193 1282.02 945.508 Q1284.41 947.8 1288.64 947.8 Q1291.1 947.8 1293.39 947.198 Q1295.7 946.596 1297.97 945.393 L1297.97 949.42 Q1295.68 950.392 1293.27 950.902 Q1290.86 951.411 1288.39 951.411 Q1282.18 951.411 1278.55 947.8 Q1274.94 944.189 1274.94 938.031 Q1274.94 931.666 1278.36 927.939 Q1281.81 924.189 1287.65 924.189 Q1292.88 924.189 1295.91 927.569 Q1298.97 930.925 1298.97 936.712 M1294.71 935.462 Q1294.66 931.967 1292.74 929.883 Q1290.84 927.8 1287.69 927.8 Q1284.13 927.8 1281.98 929.814 Q1279.85 931.828 1279.52 935.485 L1294.71 935.462 Z" fill="#000000" fill-rule="nonzero" fill-opacity="1" /><path clip-path="url(#clip790)" d="M1336.09 932.658 Q1336.09 933.899 1335.27 934.695 Q1334.48 935.492 1333.45 935.492 Q1332.56 935.492 1332.09 934.976 Q1331.62 934.461 1331.62 933.805 Q1331.62 932.868 1332.35 932.095 Q1333.07 931.323 1334.13 931.159 Q1333.35 930.596 1332.11 930.596 Q1330.07 930.596 1328.27 932.166 Q1327.47 932.892 1326.61 934.227 Q1325.74 935.539 1325.58 936.101 L1324.05 942.354 Q1323.91 943.057 1323.05 946.43 Q1322.2 949.779 1322.13 949.92 Q1321.9 950.576 1321.38 950.927 Q1320.87 951.278 1320.35 951.278 Q1319.77 951.278 1319.37 950.927 Q1318.97 950.576 1318.97 949.967 Q1318.97 949.873 1319.04 949.522 Q1319.11 949.17 1319.23 948.679 Q1319.35 948.187 1319.39 947.906 L1322.18 936.827 Q1322.7 934.812 1322.81 934.18 Q1322.95 933.524 1322.95 932.798 Q1322.95 931.533 1322.56 931.065 Q1322.16 930.596 1321.45 930.596 Q1320.24 930.596 1319.44 932.049 Q1318.64 933.501 1317.96 936.311 Q1317.75 937.084 1317.61 937.248 Q1317.5 937.412 1317.14 937.412 Q1316.56 937.389 1316.56 936.92 Q1316.56 936.803 1316.75 936.054 Q1316.93 935.281 1317.29 934.157 Q1317.66 933.009 1318.06 932.283 Q1318.29 931.791 1318.5 931.463 Q1318.71 931.135 1319.14 930.62 Q1319.56 930.105 1320.19 929.823 Q1320.82 929.542 1321.59 929.542 Q1323.28 929.542 1324.48 930.573 Q1325.69 931.604 1325.97 933.22 Q1326.56 932.377 1327.29 931.65 Q1328.01 930.901 1329.35 930.222 Q1330.68 929.542 1332.11 929.542 Q1333.89 929.542 1334.99 930.456 Q1336.09 931.346 1336.09 932.658 Z" fill="#000000" fill-rule="nonzero" fill-opacity="1" /><path clip-path="url(#clip790)" d="M1341.02 936.396 Q1341.02 935.789 1341.07 935.609 Q1341.14 935.428 1341.4 935.15 L1347.84 927.968 Q1351.37 924.001 1351.37 920.541 Q1351.37 918.295 1350.19 916.688 Q1349.02 915.081 1346.88 915.081 Q1345.4 915.081 1344.15 915.983 Q1342.91 916.885 1342.33 918.492 Q1342.43 918.459 1342.78 918.459 Q1343.61 918.459 1344.07 918.984 Q1344.55 919.508 1344.55 920.213 Q1344.55 921.115 1343.96 921.558 Q1343.38 921.984 1342.81 921.984 Q1342.58 921.984 1342.27 921.935 Q1341.97 921.886 1341.5 921.426 Q1341.02 920.951 1341.02 920.115 Q1341.02 917.77 1342.79 915.901 Q1344.58 914.032 1347.3 914.032 Q1350.38 914.032 1352.4 915.868 Q1354.43 917.688 1354.43 920.541 Q1354.43 921.541 1354.12 922.459 Q1353.83 923.361 1353.42 924.066 Q1353.02 924.771 1351.94 925.902 Q1350.86 927.034 1349.99 927.837 Q1349.12 928.641 1347.17 930.346 L1343.61 933.805 L1349.66 933.805 Q1352.61 933.805 1352.84 933.543 Q1353.17 933.067 1353.58 930.559 L1354.43 930.559 L1353.48 936.396 L1341.02 936.396 Z" fill="#000000" fill-rule="nonzero" fill-opacity="1" /></svg>
