<?xml version="1.0" encoding="utf-8"?>
<svg xmlns="http://www.w3.org/2000/svg" xmlns:xlink="http://www.w3.org/1999/xlink" width="300" height="300" viewBox="0 0 1200 1200">
<defs>
  <clipPath id="clip200">
    <rect x="0" y="0" width="1200" height="1200"/>
  </clipPath>
</defs>
<path clip-path="url(#clip200)" d="M0 1200 L1200 1200 L1200 0 L0 0  Z" fill="#ffffff" fill-rule="evenodd" fill-opacity="1"/>
<defs>
  <clipPath id="clip201">
    <rect x="240" y="120" width="841" height="841"/>
  </clipPath>
</defs>
<path clip-path="url(#clip200)" d="M223.085 986.14 L1152.76 986.14 L1152.76 47.2441 L223.085 47.2441  Z" fill="#ffffff" fill-rule="evenodd" fill-opacity="1"/>
<defs>
  <clipPath id="clip202">
    <rect x="223" y="47" width="931" height="940"/>
  </clipPath>
</defs>
<polyline clip-path="url(#clip202)" style="stroke:#000000; stroke-linecap:round; stroke-linejoin:round; stroke-width:2; stroke-opacity:0.1; fill:none" points="335.18,986.14 335.18,47.2441 "/>
<polyline clip-path="url(#clip202)" style="stroke:#000000; stroke-linecap:round; stroke-linejoin:round; stroke-width:2; stroke-opacity:0.1; fill:none" points="483.625,986.14 483.625,47.2441 "/>
<polyline clip-path="url(#clip202)" style="stroke:#000000; stroke-linecap:round; stroke-linejoin:round; stroke-width:2; stroke-opacity:0.1; fill:none" points="632.071,986.14 632.071,47.2441 "/>
<polyline clip-path="url(#clip202)" style="stroke:#000000; stroke-linecap:round; stroke-linejoin:round; stroke-width:2; stroke-opacity:0.1; fill:none" points="780.517,986.14 780.517,47.2441 "/>
<polyline clip-path="url(#clip202)" style="stroke:#000000; stroke-linecap:round; stroke-linejoin:round; stroke-width:2; stroke-opacity:0.1; fill:none" points="928.963,986.14 928.963,47.2441 "/>
<polyline clip-path="url(#clip202)" style="stroke:#000000; stroke-linecap:round; stroke-linejoin:round; stroke-width:2; stroke-opacity:0.1; fill:none" points="1077.41,986.14 1077.41,47.2441 "/>
<polyline clip-path="url(#clip200)" style="stroke:#000000; stroke-linecap:round; stroke-linejoin:round; stroke-width:4; stroke-opacity:1; fill:none" points="223.085,986.14 1152.76,986.14 "/>
<polyline clip-path="url(#clip200)" style="stroke:#000000; stroke-linecap:round; stroke-linejoin:round; stroke-width:4; stroke-opacity:1; fill:none" points="335.18,986.14 335.18,967.242 "/>
<polyline clip-path="url(#clip200)" style="stroke:#000000; stroke-linecap:round; stroke-linejoin:round; stroke-width:4; stroke-opacity:1; fill:none" points="483.625,986.14 483.625,967.242 "/>
<polyline clip-path="url(#clip200)" style="stroke:#000000; stroke-linecap:round; stroke-linejoin:round; stroke-width:4; stroke-opacity:1; fill:none" points="632.071,986.14 632.071,967.242 "/>
<polyline clip-path="url(#clip200)" style="stroke:#000000; stroke-linecap:round; stroke-linejoin:round; stroke-width:4; stroke-opacity:1; fill:none" points="780.517,986.14 780.517,967.242 "/>
<polyline clip-path="url(#clip200)" style="stroke:#000000; stroke-linecap:round; stroke-linejoin:round; stroke-width:4; stroke-opacity:1; fill:none" points="928.963,986.14 928.963,967.242 "/>
<polyline clip-path="url(#clip200)" style="stroke:#000000; stroke-linecap:round; stroke-linejoin:round; stroke-width:4; stroke-opacity:1; fill:none" points="1077.41,986.14 1077.41,967.242 "/>
<path clip-path="url(#clip200)" d="M289.242 1022.11 L318.918 1022.11 L318.918 1026.05 L289.242 1026.05 L289.242 1022.11 Z" fill="#000000" fill-rule="nonzero" fill-opacity="1" /><path clip-path="url(#clip200)" d="M333.038 1035 L349.358 1035 L349.358 1038.94 L327.413 1038.94 L327.413 1035 Q330.075 1032.25 334.659 1027.62 Q339.265 1022.97 340.446 1021.63 Q342.691 1019.1 343.571 1017.37 Q344.474 1015.61 344.474 1013.92 Q344.474 1011.16 342.529 1009.43 Q340.608 1007.69 337.506 1007.69 Q335.307 1007.69 332.853 1008.45 Q330.423 1009.22 327.645 1010.77 L327.645 1006.05 Q330.469 1004.91 332.923 1004.33 Q335.376 1003.75 337.413 1003.75 Q342.784 1003.75 345.978 1006.44 Q349.173 1009.13 349.173 1013.62 Q349.173 1015.75 348.362 1017.67 Q347.575 1019.56 345.469 1022.16 Q344.89 1022.83 341.788 1026.05 Q338.687 1029.24 333.038 1035 Z" fill="#000000" fill-rule="nonzero" fill-opacity="1" /><path clip-path="url(#clip200)" d="M369.172 1007.46 Q365.561 1007.46 363.733 1011.02 Q361.927 1014.56 361.927 1021.69 Q361.927 1028.8 363.733 1032.37 Q365.561 1035.91 369.172 1035.91 Q372.807 1035.91 374.612 1032.37 Q376.441 1028.8 376.441 1021.69 Q376.441 1014.56 374.612 1011.02 Q372.807 1007.46 369.172 1007.46 M369.172 1003.75 Q374.983 1003.75 378.038 1008.36 Q381.117 1012.94 381.117 1021.69 Q381.117 1030.42 378.038 1035.03 Q374.983 1039.61 369.172 1039.61 Q363.362 1039.61 360.284 1035.03 Q357.228 1030.42 357.228 1021.69 Q357.228 1012.94 360.284 1008.36 Q363.362 1003.75 369.172 1003.75 Z" fill="#000000" fill-rule="nonzero" fill-opacity="1" /><path clip-path="url(#clip200)" d="M437.688 1022.11 L467.364 1022.11 L467.364 1026.05 L437.688 1026.05 L437.688 1022.11 Z" fill="#000000" fill-rule="nonzero" fill-opacity="1" /><path clip-path="url(#clip200)" d="M478.267 1035 L485.905 1035 L485.905 1008.64 L477.595 1010.31 L477.595 1006.05 L485.859 1004.38 L490.535 1004.38 L490.535 1035 L498.174 1035 L498.174 1038.94 L478.267 1038.94 L478.267 1035 Z" fill="#000000" fill-rule="nonzero" fill-opacity="1" /><path clip-path="url(#clip200)" d="M517.618 1007.46 Q514.007 1007.46 512.178 1011.02 Q510.373 1014.56 510.373 1021.69 Q510.373 1028.8 512.178 1032.37 Q514.007 1035.91 517.618 1035.91 Q521.253 1035.91 523.058 1032.37 Q524.887 1028.8 524.887 1021.69 Q524.887 1014.56 523.058 1011.02 Q521.253 1007.46 517.618 1007.46 M517.618 1003.75 Q523.428 1003.75 526.484 1008.36 Q529.563 1012.94 529.563 1021.69 Q529.563 1030.42 526.484 1035.03 Q523.428 1039.61 517.618 1039.61 Q511.808 1039.61 508.729 1035.03 Q505.674 1030.42 505.674 1021.69 Q505.674 1012.94 508.729 1008.36 Q511.808 1003.75 517.618 1003.75 Z" fill="#000000" fill-rule="nonzero" fill-opacity="1" /><path clip-path="url(#clip200)" d="M632.071 1007.46 Q628.46 1007.46 626.631 1011.02 Q624.826 1014.56 624.826 1021.69 Q624.826 1028.8 626.631 1032.37 Q628.46 1035.91 632.071 1035.91 Q635.705 1035.91 637.511 1032.37 Q639.34 1028.8 639.34 1021.69 Q639.34 1014.56 637.511 1011.02 Q635.705 1007.46 632.071 1007.46 M632.071 1003.75 Q637.881 1003.75 640.937 1008.36 Q644.016 1012.94 644.016 1021.69 Q644.016 1030.42 640.937 1035.03 Q637.881 1039.61 632.071 1039.61 Q626.261 1039.61 623.182 1035.03 Q620.127 1030.42 620.127 1021.69 Q620.127 1012.94 623.182 1008.36 Q626.261 1003.75 632.071 1003.75 Z" fill="#000000" fill-rule="nonzero" fill-opacity="1" /><path clip-path="url(#clip200)" d="M755.205 1035 L762.843 1035 L762.843 1008.64 L754.533 1010.31 L754.533 1006.05 L762.797 1004.38 L767.473 1004.38 L767.473 1035 L775.112 1035 L775.112 1038.94 L755.205 1038.94 L755.205 1035 Z" fill="#000000" fill-rule="nonzero" fill-opacity="1" /><path clip-path="url(#clip200)" d="M794.556 1007.46 Q790.945 1007.46 789.116 1011.02 Q787.311 1014.56 787.311 1021.69 Q787.311 1028.8 789.116 1032.37 Q790.945 1035.91 794.556 1035.91 Q798.191 1035.91 799.996 1032.37 Q801.825 1028.8 801.825 1021.69 Q801.825 1014.56 799.996 1011.02 Q798.191 1007.46 794.556 1007.46 M794.556 1003.75 Q800.366 1003.75 803.422 1008.36 Q806.501 1012.94 806.501 1021.69 Q806.501 1030.42 803.422 1035.03 Q800.366 1039.61 794.556 1039.61 Q788.746 1039.61 785.667 1035.03 Q782.612 1030.42 782.612 1021.69 Q782.612 1012.94 785.667 1008.36 Q788.746 1003.75 794.556 1003.75 Z" fill="#000000" fill-rule="nonzero" fill-opacity="1" /><path clip-path="url(#clip200)" d="M907.736 1035 L924.055 1035 L924.055 1038.94 L902.111 1038.94 L902.111 1035 Q904.773 1032.25 909.356 1027.62 Q913.963 1022.97 915.143 1021.63 Q917.389 1019.1 918.268 1017.37 Q919.171 1015.61 919.171 1013.92 Q919.171 1011.16 917.227 1009.43 Q915.305 1007.69 912.204 1007.69 Q910.005 1007.69 907.551 1008.45 Q905.12 1009.22 902.343 1010.77 L902.343 1006.05 Q905.167 1004.91 907.62 1004.33 Q910.074 1003.75 912.111 1003.75 Q917.481 1003.75 920.676 1006.44 Q923.87 1009.13 923.87 1013.62 Q923.87 1015.75 923.06 1017.67 Q922.273 1019.56 920.167 1022.16 Q919.588 1022.83 916.486 1026.05 Q913.384 1029.24 907.736 1035 Z" fill="#000000" fill-rule="nonzero" fill-opacity="1" /><path clip-path="url(#clip200)" d="M943.87 1007.46 Q940.259 1007.46 938.43 1011.02 Q936.625 1014.56 936.625 1021.69 Q936.625 1028.8 938.43 1032.37 Q940.259 1035.91 943.87 1035.91 Q947.504 1035.91 949.31 1032.37 Q951.139 1028.8 951.139 1021.69 Q951.139 1014.56 949.31 1011.02 Q947.504 1007.46 943.87 1007.46 M943.87 1003.75 Q949.68 1003.75 952.736 1008.36 Q955.814 1012.94 955.814 1021.69 Q955.814 1030.42 952.736 1035.03 Q949.68 1039.61 943.87 1039.61 Q938.06 1039.61 934.981 1035.03 Q931.926 1030.42 931.926 1021.69 Q931.926 1012.94 934.981 1008.36 Q938.06 1003.75 943.87 1003.75 Z" fill="#000000" fill-rule="nonzero" fill-opacity="1" /><path clip-path="url(#clip200)" d="M1066.25 1020.31 Q1069.61 1021.02 1071.48 1023.29 Q1073.38 1025.56 1073.38 1028.89 Q1073.38 1034.01 1069.86 1036.81 Q1066.34 1039.61 1059.86 1039.61 Q1057.69 1039.61 1055.37 1039.17 Q1053.08 1038.75 1050.63 1037.9 L1050.63 1033.38 Q1052.57 1034.52 1054.89 1035.1 Q1057.2 1035.68 1059.72 1035.68 Q1064.12 1035.68 1066.41 1033.94 Q1068.73 1032.2 1068.73 1028.89 Q1068.73 1025.84 1066.58 1024.13 Q1064.45 1022.39 1060.63 1022.39 L1056.6 1022.39 L1056.6 1018.55 L1060.81 1018.55 Q1064.26 1018.55 1066.09 1017.18 Q1067.92 1015.79 1067.92 1013.2 Q1067.92 1010.54 1066.02 1009.13 Q1064.14 1007.69 1060.63 1007.69 Q1058.7 1007.69 1056.51 1008.11 Q1054.31 1008.52 1051.67 1009.4 L1051.67 1005.24 Q1054.33 1004.5 1056.64 1004.13 Q1058.98 1003.75 1061.04 1003.75 Q1066.37 1003.75 1069.47 1006.19 Q1072.57 1008.59 1072.57 1012.71 Q1072.57 1015.58 1070.93 1017.57 Q1069.28 1019.54 1066.25 1020.31 Z" fill="#000000" fill-rule="nonzero" fill-opacity="1" /><path clip-path="url(#clip200)" d="M1092.25 1007.46 Q1088.64 1007.46 1086.81 1011.02 Q1085 1014.56 1085 1021.69 Q1085 1028.8 1086.81 1032.37 Q1088.64 1035.91 1092.25 1035.91 Q1095.88 1035.91 1097.69 1032.37 Q1099.51 1028.8 1099.51 1021.69 Q1099.51 1014.56 1097.69 1011.02 Q1095.88 1007.46 1092.25 1007.46 M1092.25 1003.75 Q1098.06 1003.75 1101.11 1008.36 Q1104.19 1012.94 1104.19 1021.69 Q1104.19 1030.42 1101.11 1035.03 Q1098.06 1039.61 1092.25 1039.61 Q1086.44 1039.61 1083.36 1035.03 Q1080.3 1030.42 1080.3 1021.69 Q1080.3 1012.94 1083.36 1008.36 Q1086.44 1003.75 1092.25 1003.75 Z" fill="#000000" fill-rule="nonzero" fill-opacity="1" /><path clip-path="url(#clip200)" d="M484.616 1065.48 L511.924 1065.48 L511.924 1070.89 L491.045 1070.89 L491.045 1084.9 L509.887 1084.9 L509.887 1090.31 L491.045 1090.31 L491.045 1113 L484.616 1113 L484.616 1065.48 Z" fill="#000000" fill-rule="nonzero" fill-opacity="1" /><path clip-path="url(#clip200)" d="M517.112 1077.36 L522.969 1077.36 L522.969 1113 L517.112 1113 L517.112 1077.36 M517.112 1063.48 L522.969 1063.48 L522.969 1070.89 L517.112 1070.89 L517.112 1063.48 Z" fill="#000000" fill-rule="nonzero" fill-opacity="1" /><path clip-path="url(#clip200)" d="M541.016 1067.23 L541.016 1077.36 L553.079 1077.36 L553.079 1081.91 L541.016 1081.91 L541.016 1101.26 Q541.016 1105.62 542.193 1106.86 Q543.403 1108.1 547.063 1108.1 L553.079 1108.1 L553.079 1113 L547.063 1113 Q540.284 1113 537.706 1110.49 Q535.127 1107.94 535.127 1101.26 L535.127 1081.91 L530.831 1081.91 L530.831 1077.36 L535.127 1077.36 L535.127 1067.23 L541.016 1067.23 Z" fill="#000000" fill-rule="nonzero" fill-opacity="1" /><path clip-path="url(#clip200)" d="M566.574 1067.23 L566.574 1077.36 L578.637 1077.36 L578.637 1081.91 L566.574 1081.91 L566.574 1101.26 Q566.574 1105.62 567.752 1106.86 Q568.961 1108.1 572.621 1108.1 L578.637 1108.1 L578.637 1113 L572.621 1113 Q565.842 1113 563.264 1110.49 Q560.686 1107.94 560.686 1101.26 L560.686 1081.91 L556.389 1081.91 L556.389 1077.36 L560.686 1077.36 L560.686 1067.23 L566.574 1067.23 Z" fill="#000000" fill-rule="nonzero" fill-opacity="1" /><path clip-path="url(#clip200)" d="M616.831 1093.72 L616.831 1096.58 L589.904 1096.58 Q590.286 1102.63 593.533 1105.81 Q596.811 1108.96 602.636 1108.96 Q606.01 1108.96 609.161 1108.13 Q612.343 1107.31 615.463 1105.65 L615.463 1111.19 Q612.312 1112.53 609.001 1113.23 Q605.691 1113.93 602.286 1113.93 Q593.756 1113.93 588.758 1108.96 Q583.793 1104 583.793 1095.53 Q583.793 1086.78 588.504 1081.65 Q593.246 1076.5 601.267 1076.5 Q608.46 1076.5 612.63 1081.14 Q616.831 1085.76 616.831 1093.72 M610.975 1092 Q610.911 1087.19 608.269 1084.33 Q605.659 1081.46 601.331 1081.46 Q596.429 1081.46 593.469 1084.23 Q590.541 1087 590.095 1092.03 L610.975 1092 Z" fill="#000000" fill-rule="nonzero" fill-opacity="1" /><path clip-path="url(#clip200)" d="M649.901 1082.77 L649.901 1063.48 L655.758 1063.48 L655.758 1113 L649.901 1113 L649.901 1107.66 Q648.055 1110.84 645.222 1112.4 Q642.421 1113.93 638.475 1113.93 Q632.013 1113.93 627.939 1108.77 Q623.897 1103.61 623.897 1095.21 Q623.897 1086.81 627.939 1081.65 Q632.013 1076.5 638.475 1076.5 Q642.421 1076.5 645.222 1078.06 Q648.055 1079.58 649.901 1082.77 M629.945 1095.21 Q629.945 1101.67 632.586 1105.36 Q635.26 1109.03 639.907 1109.03 Q644.554 1109.03 647.227 1105.36 Q649.901 1101.67 649.901 1095.21 Q649.901 1088.75 647.227 1085.09 Q644.554 1081.4 639.907 1081.4 Q635.26 1081.4 632.586 1085.09 Q629.945 1088.75 629.945 1095.21 Z" fill="#000000" fill-rule="nonzero" fill-opacity="1" /><path clip-path="url(#clip200)" d="M684.34 1077.36 L690.546 1077.36 L701.686 1107.27 L712.826 1077.36 L719.033 1077.36 L705.665 1113 L697.708 1113 L684.34 1077.36 Z" fill="#000000" fill-rule="nonzero" fill-opacity="1" /><path clip-path="url(#clip200)" d="M743.318 1095.08 Q736.22 1095.08 733.483 1096.71 Q730.746 1098.33 730.746 1102.25 Q730.746 1105.36 732.783 1107.21 Q734.851 1109.03 738.384 1109.03 Q743.254 1109.03 746.182 1105.59 Q749.142 1102.12 749.142 1096.39 L749.142 1095.08 L743.318 1095.08 M754.999 1092.67 L754.999 1113 L749.142 1113 L749.142 1107.59 Q747.137 1110.84 744.145 1112.4 Q741.153 1113.93 736.825 1113.93 Q731.35 1113.93 728.104 1110.87 Q724.889 1107.78 724.889 1102.63 Q724.889 1096.61 728.9 1093.56 Q732.942 1090.5 740.931 1090.5 L749.142 1090.5 L749.142 1089.93 Q749.142 1085.89 746.469 1083.69 Q743.827 1081.46 739.021 1081.46 Q735.965 1081.46 733.069 1082.19 Q730.173 1082.93 727.499 1084.39 L727.499 1078.98 Q730.714 1077.74 733.737 1077.13 Q736.761 1076.5 739.626 1076.5 Q747.36 1076.5 751.179 1080.51 Q754.999 1084.52 754.999 1092.67 Z" fill="#000000" fill-rule="nonzero" fill-opacity="1" /><path clip-path="url(#clip200)" d="M767.062 1063.48 L772.918 1063.48 L772.918 1113 L767.062 1113 L767.062 1063.48 Z" fill="#000000" fill-rule="nonzero" fill-opacity="1" /><path clip-path="url(#clip200)" d="M784.568 1098.94 L784.568 1077.36 L790.424 1077.36 L790.424 1098.71 Q790.424 1103.77 792.397 1106.32 Q794.371 1108.83 798.318 1108.83 Q803.06 1108.83 805.797 1105.81 Q808.566 1102.79 808.566 1097.57 L808.566 1077.36 L814.423 1077.36 L814.423 1113 L808.566 1113 L808.566 1107.53 Q806.434 1110.78 803.601 1112.37 Q800.8 1113.93 797.076 1113.93 Q790.933 1113.93 787.75 1110.11 Q784.568 1106.29 784.568 1098.94 M799.304 1076.5 L799.304 1076.5 Z" fill="#000000" fill-rule="nonzero" fill-opacity="1" /><path clip-path="url(#clip200)" d="M856.978 1093.72 L856.978 1096.58 L830.051 1096.58 Q830.433 1102.63 833.679 1105.81 Q836.957 1108.96 842.782 1108.96 Q846.156 1108.96 849.307 1108.13 Q852.49 1107.31 855.609 1105.65 L855.609 1111.19 Q852.458 1112.53 849.148 1113.23 Q845.838 1113.93 842.432 1113.93 Q833.902 1113.93 828.905 1108.96 Q823.94 1104 823.94 1095.53 Q823.94 1086.78 828.65 1081.65 Q833.393 1076.5 841.413 1076.5 Q848.607 1076.5 852.776 1081.14 Q856.978 1085.76 856.978 1093.72 M851.121 1092 Q851.057 1087.19 848.416 1084.33 Q845.806 1081.46 841.477 1081.46 Q836.575 1081.46 833.615 1084.23 Q830.687 1087 830.242 1092.03 L851.121 1092 Z" fill="#000000" fill-rule="nonzero" fill-opacity="1" /><path clip-path="url(#clip200)" d="M889.315 1078.41 L889.315 1083.94 Q886.833 1082.67 884.159 1082.03 Q881.485 1081.4 878.621 1081.4 Q874.26 1081.4 872.064 1082.73 Q869.9 1084.07 869.9 1086.75 Q869.9 1088.78 871.46 1089.96 Q873.019 1091.11 877.73 1092.16 L879.735 1092.6 Q885.973 1093.94 888.583 1096.39 Q891.225 1098.81 891.225 1103.17 Q891.225 1108.13 887.278 1111.03 Q883.363 1113.93 876.488 1113.93 Q873.624 1113.93 870.505 1113.35 Q867.417 1112.81 863.98 1111.7 L863.98 1105.65 Q867.226 1107.34 870.377 1108.2 Q873.528 1109.03 876.616 1109.03 Q880.753 1109.03 882.981 1107.62 Q885.209 1106.19 885.209 1103.61 Q885.209 1101.23 883.586 1099.95 Q881.995 1098.68 876.552 1097.5 L874.515 1097.03 Q869.072 1095.88 866.653 1093.52 Q864.234 1091.14 864.234 1087 Q864.234 1081.97 867.799 1079.23 Q871.364 1076.5 877.921 1076.5 Q881.167 1076.5 884.032 1076.97 Q886.896 1077.45 889.315 1078.41 Z" fill="#000000" fill-rule="nonzero" fill-opacity="1" /><polyline clip-path="url(#clip202)" style="stroke:#000000; stroke-linecap:round; stroke-linejoin:round; stroke-width:2; stroke-opacity:0.1; fill:none" points="223.085,937.281 1152.76,937.281 "/>
<polyline clip-path="url(#clip202)" style="stroke:#000000; stroke-linecap:round; stroke-linejoin:round; stroke-width:2; stroke-opacity:0.1; fill:none" points="223.085,789.841 1152.76,789.841 "/>
<polyline clip-path="url(#clip202)" style="stroke:#000000; stroke-linecap:round; stroke-linejoin:round; stroke-width:2; stroke-opacity:0.1; fill:none" points="223.085,642.401 1152.76,642.401 "/>
<polyline clip-path="url(#clip202)" style="stroke:#000000; stroke-linecap:round; stroke-linejoin:round; stroke-width:2; stroke-opacity:0.1; fill:none" points="223.085,494.962 1152.76,494.962 "/>
<polyline clip-path="url(#clip202)" style="stroke:#000000; stroke-linecap:round; stroke-linejoin:round; stroke-width:2; stroke-opacity:0.1; fill:none" points="223.085,347.522 1152.76,347.522 "/>
<polyline clip-path="url(#clip202)" style="stroke:#000000; stroke-linecap:round; stroke-linejoin:round; stroke-width:2; stroke-opacity:0.1; fill:none" points="223.085,200.082 1152.76,200.082 "/>
<polyline clip-path="url(#clip202)" style="stroke:#000000; stroke-linecap:round; stroke-linejoin:round; stroke-width:2; stroke-opacity:0.1; fill:none" points="223.085,52.6424 1152.76,52.6424 "/>
<polyline clip-path="url(#clip200)" style="stroke:#000000; stroke-linecap:round; stroke-linejoin:round; stroke-width:4; stroke-opacity:1; fill:none" points="223.085,986.14 223.085,47.2441 "/>
<polyline clip-path="url(#clip200)" style="stroke:#000000; stroke-linecap:round; stroke-linejoin:round; stroke-width:4; stroke-opacity:1; fill:none" points="223.085,937.281 241.982,937.281 "/>
<polyline clip-path="url(#clip200)" style="stroke:#000000; stroke-linecap:round; stroke-linejoin:round; stroke-width:4; stroke-opacity:1; fill:none" points="223.085,789.841 241.982,789.841 "/>
<polyline clip-path="url(#clip200)" style="stroke:#000000; stroke-linecap:round; stroke-linejoin:round; stroke-width:4; stroke-opacity:1; fill:none" points="223.085,642.401 241.982,642.401 "/>
<polyline clip-path="url(#clip200)" style="stroke:#000000; stroke-linecap:round; stroke-linejoin:round; stroke-width:4; stroke-opacity:1; fill:none" points="223.085,494.962 241.982,494.962 "/>
<polyline clip-path="url(#clip200)" style="stroke:#000000; stroke-linecap:round; stroke-linejoin:round; stroke-width:4; stroke-opacity:1; fill:none" points="223.085,347.522 241.982,347.522 "/>
<polyline clip-path="url(#clip200)" style="stroke:#000000; stroke-linecap:round; stroke-linejoin:round; stroke-width:4; stroke-opacity:1; fill:none" points="223.085,200.082 241.982,200.082 "/>
<polyline clip-path="url(#clip200)" style="stroke:#000000; stroke-linecap:round; stroke-linejoin:round; stroke-width:4; stroke-opacity:1; fill:none" points="223.085,52.6424 241.982,52.6424 "/>
<path clip-path="url(#clip200)" d="M144.02 937.732 L173.696 937.732 L173.696 941.667 L144.02 941.667 L144.02 937.732 Z" fill="#000000" fill-rule="nonzero" fill-opacity="1" /><path clip-path="url(#clip200)" d="M197.955 935.926 Q201.312 936.644 203.187 938.913 Q205.085 941.181 205.085 944.514 Q205.085 949.63 201.566 952.431 Q198.048 955.232 191.566 955.232 Q189.39 955.232 187.075 954.792 Q184.784 954.375 182.33 953.519 L182.33 949.005 Q184.275 950.139 186.589 950.718 Q188.904 951.297 191.427 951.297 Q195.825 951.297 198.117 949.561 Q200.432 947.825 200.432 944.514 Q200.432 941.459 198.279 939.746 Q196.15 938.01 192.33 938.01 L188.302 938.01 L188.302 934.167 L192.515 934.167 Q195.964 934.167 197.793 932.801 Q199.622 931.413 199.622 928.82 Q199.622 926.158 197.724 924.746 Q195.849 923.311 192.33 923.311 Q190.409 923.311 188.21 923.727 Q186.011 924.144 183.372 925.024 L183.372 920.857 Q186.034 920.116 188.349 919.746 Q190.687 919.376 192.747 919.376 Q198.071 919.376 201.173 921.806 Q204.274 924.214 204.274 928.334 Q204.274 931.204 202.631 933.195 Q200.987 935.163 197.955 935.926 Z" fill="#000000" fill-rule="nonzero" fill-opacity="1" /><path clip-path="url(#clip200)" d="M144.969 790.292 L174.645 790.292 L174.645 794.227 L144.969 794.227 L144.969 790.292 Z" fill="#000000" fill-rule="nonzero" fill-opacity="1" /><path clip-path="url(#clip200)" d="M188.765 803.186 L205.085 803.186 L205.085 807.121 L183.14 807.121 L183.14 803.186 Q185.802 800.431 190.386 795.802 Q194.992 791.149 196.173 789.806 Q198.418 787.283 199.298 785.547 Q200.2 783.788 200.2 782.098 Q200.2 779.343 198.256 777.607 Q196.335 775.871 193.233 775.871 Q191.034 775.871 188.58 776.635 Q186.15 777.399 183.372 778.95 L183.372 774.228 Q186.196 773.093 188.65 772.515 Q191.103 771.936 193.14 771.936 Q198.511 771.936 201.705 774.621 Q204.899 777.306 204.899 781.797 Q204.899 783.927 204.089 785.848 Q203.302 787.746 201.196 790.339 Q200.617 791.01 197.515 794.227 Q194.413 797.422 188.765 803.186 Z" fill="#000000" fill-rule="nonzero" fill-opacity="1" /><path clip-path="url(#clip200)" d="M144.599 642.853 L174.275 642.853 L174.275 646.788 L144.599 646.788 L144.599 642.853 Z" fill="#000000" fill-rule="nonzero" fill-opacity="1" /><path clip-path="url(#clip200)" d="M185.177 655.746 L192.816 655.746 L192.816 629.38 L184.506 631.047 L184.506 626.788 L192.77 625.121 L197.446 625.121 L197.446 655.746 L205.085 655.746 L205.085 659.681 L185.177 659.681 L185.177 655.746 Z" fill="#000000" fill-rule="nonzero" fill-opacity="1" /><path clip-path="url(#clip200)" d="M193.14 480.76 Q189.529 480.76 187.7 484.325 Q185.895 487.867 185.895 494.996 Q185.895 502.103 187.7 505.667 Q189.529 509.209 193.14 509.209 Q196.775 509.209 198.58 505.667 Q200.409 502.103 200.409 494.996 Q200.409 487.867 198.58 484.325 Q196.775 480.76 193.14 480.76 M193.14 477.057 Q198.95 477.057 202.006 481.663 Q205.085 486.246 205.085 494.996 Q205.085 503.723 202.006 508.33 Q198.95 512.913 193.14 512.913 Q187.33 512.913 184.251 508.33 Q181.196 503.723 181.196 494.996 Q181.196 486.246 184.251 481.663 Q187.33 477.057 193.14 477.057 Z" fill="#000000" fill-rule="nonzero" fill-opacity="1" /><path clip-path="url(#clip200)" d="M185.177 360.867 L192.816 360.867 L192.816 334.501 L184.506 336.168 L184.506 331.908 L192.77 330.242 L197.446 330.242 L197.446 360.867 L205.085 360.867 L205.085 364.802 L185.177 364.802 L185.177 360.867 Z" fill="#000000" fill-rule="nonzero" fill-opacity="1" /><path clip-path="url(#clip200)" d="M188.765 213.427 L205.085 213.427 L205.085 217.362 L183.14 217.362 L183.14 213.427 Q185.802 210.672 190.386 206.043 Q194.992 201.39 196.173 200.047 Q198.418 197.524 199.298 195.788 Q200.2 194.029 200.2 192.339 Q200.2 189.585 198.256 187.848 Q196.335 186.112 193.233 186.112 Q191.034 186.112 188.58 186.876 Q186.15 187.64 183.372 189.191 L183.372 184.469 Q186.196 183.335 188.65 182.756 Q191.103 182.177 193.14 182.177 Q198.511 182.177 201.705 184.862 Q204.899 187.547 204.899 192.038 Q204.899 194.168 204.089 196.089 Q203.302 197.987 201.196 200.58 Q200.617 201.251 197.515 204.469 Q194.413 207.663 188.765 213.427 Z" fill="#000000" fill-rule="nonzero" fill-opacity="1" /><path clip-path="url(#clip200)" d="M197.955 51.2883 Q201.312 52.0059 203.187 54.2744 Q205.085 56.5429 205.085 59.8762 Q205.085 64.9919 201.566 67.7928 Q198.048 70.5937 191.566 70.5937 Q189.39 70.5937 187.075 70.1539 Q184.784 69.7373 182.33 68.8808 L182.33 64.3669 Q184.275 65.5012 186.589 66.0799 Q188.904 66.6586 191.427 66.6586 Q195.825 66.6586 198.117 64.9225 Q200.432 63.1864 200.432 59.8762 Q200.432 56.8207 198.279 55.1077 Q196.15 53.3716 192.33 53.3716 L188.302 53.3716 L188.302 49.529 L192.515 49.529 Q195.964 49.529 197.793 48.1633 Q199.622 46.7744 199.622 44.1818 Q199.622 41.5198 197.724 40.1078 Q195.849 38.6726 192.33 38.6726 Q190.409 38.6726 188.21 39.0893 Q186.011 39.5059 183.372 40.3856 L183.372 36.2189 Q186.034 35.4782 188.349 35.1078 Q190.687 34.7374 192.747 34.7374 Q198.071 34.7374 201.173 37.168 Q204.274 39.5754 204.274 43.6957 Q204.274 46.5661 202.631 48.5568 Q200.987 50.5244 197.955 51.2883 Z" fill="#000000" fill-rule="nonzero" fill-opacity="1" /><path clip-path="url(#clip200)" d="M89.4842 824.235 Q90.1844 822.166 92.4761 820.225 Q94.7677 818.251 98.7781 816.278 L111.764 809.753 L111.764 816.66 L99.5738 822.739 Q94.7995 825.095 93.24 827.323 Q91.6804 829.519 91.6804 833.338 L91.6804 840.34 L111.764 840.34 L111.764 846.77 L64.2442 846.77 L64.2442 832.256 Q64.2442 824.108 67.6498 820.097 Q71.0555 816.087 77.9304 816.087 Q82.4182 816.087 85.3783 818.188 Q88.3384 820.257 89.4842 824.235 M69.5277 840.34 L86.3968 840.34 L86.3968 832.256 Q86.3968 827.609 84.2643 825.254 Q82.1 822.867 77.9304 822.867 Q73.7609 822.867 71.6602 825.254 Q69.5277 827.609 69.5277 832.256 L69.5277 840.34 Z" fill="#000000" fill-rule="nonzero" fill-opacity="1" /><path clip-path="url(#clip200)" d="M92.4761 774.169 L95.3406 774.169 L95.3406 801.096 Q101.388 800.714 104.571 797.467 Q107.722 794.189 107.722 788.364 Q107.722 784.991 106.894 781.84 Q106.067 778.657 104.412 775.538 L109.95 775.538 Q111.287 778.689 111.987 781.999 Q112.687 785.309 112.687 788.715 Q112.687 797.245 107.722 802.242 Q102.757 807.207 94.2903 807.207 Q85.5374 807.207 80.4131 802.496 Q75.2568 797.754 75.2568 789.733 Q75.2568 782.54 79.9038 778.37 Q84.5189 774.169 92.4761 774.169 M90.7573 780.025 Q85.9512 780.089 83.0866 782.731 Q80.2221 785.341 80.2221 789.669 Q80.2221 794.571 82.9912 797.531 Q85.7602 800.459 90.7892 800.905 L90.7573 780.025 Z" fill="#000000" fill-rule="nonzero" fill-opacity="1" /><path clip-path="url(#clip200)" d="M77.1665 741.831 L82.7047 741.831 Q81.4316 744.314 80.795 746.987 Q80.1584 749.661 80.1584 752.525 Q80.1584 756.886 81.4952 759.082 Q82.832 761.247 85.5056 761.247 Q87.5426 761.247 88.7203 759.687 Q89.8661 758.127 90.9165 753.417 L91.3621 751.411 Q92.6989 745.173 95.1497 742.563 Q97.5686 739.921 101.929 739.921 Q106.894 739.921 109.791 743.868 Q112.687 747.783 112.687 754.658 Q112.687 757.523 112.114 760.642 Q111.573 763.729 110.459 767.167 L104.412 767.167 Q106.099 763.92 106.958 760.769 Q107.786 757.618 107.786 754.531 Q107.786 750.393 106.385 748.165 Q104.953 745.937 102.375 745.937 Q99.9876 745.937 98.7145 747.56 Q97.4413 749.152 96.2637 754.594 L95.7862 756.631 Q94.6404 762.074 92.2851 764.493 Q89.898 766.912 85.7602 766.912 Q80.7313 766.912 77.9941 763.347 Q75.2568 759.782 75.2568 753.226 Q75.2568 749.979 75.7343 747.115 Q76.2117 744.25 77.1665 741.831 Z" fill="#000000" fill-rule="nonzero" fill-opacity="1" /><path clip-path="url(#clip200)" d="M76.1162 730.596 L76.1162 724.739 L111.764 724.739 L111.764 730.596 L76.1162 730.596 M62.239 730.596 L62.239 724.739 L69.655 724.739 L69.655 730.596 L62.239 730.596 Z" fill="#000000" fill-rule="nonzero" fill-opacity="1" /><path clip-path="url(#clip200)" d="M81.5271 689.028 L62.239 689.028 L62.239 683.171 L111.764 683.171 L111.764 689.028 L106.417 689.028 Q109.6 690.874 111.159 693.706 Q112.687 696.507 112.687 700.454 Q112.687 706.915 107.531 710.989 Q102.375 715.031 93.972 715.031 Q85.5693 715.031 80.4131 710.989 Q75.2568 706.915 75.2568 700.454 Q75.2568 696.507 76.8164 693.706 Q78.3442 690.874 81.5271 689.028 M93.972 708.984 Q100.433 708.984 104.125 706.342 Q107.786 703.669 107.786 699.022 Q107.786 694.375 104.125 691.701 Q100.433 689.028 93.972 689.028 Q87.5108 689.028 83.8505 691.701 Q80.1584 694.375 80.1584 699.022 Q80.1584 703.669 83.8505 706.342 Q87.5108 708.984 93.972 708.984 Z" fill="#000000" fill-rule="nonzero" fill-opacity="1" /><path clip-path="url(#clip200)" d="M97.6959 671.713 L76.1162 671.713 L76.1162 665.856 L97.4731 665.856 Q102.534 665.856 105.08 663.883 Q107.595 661.91 107.595 657.963 Q107.595 653.22 104.571 650.483 Q101.547 647.714 96.3273 647.714 L76.1162 647.714 L76.1162 641.858 L111.764 641.858 L111.764 647.714 L106.29 647.714 Q109.536 649.847 111.128 652.679 Q112.687 655.48 112.687 659.204 Q112.687 665.347 108.868 668.53 Q105.048 671.713 97.6959 671.713 M75.2568 656.976 L75.2568 656.976 Z" fill="#000000" fill-rule="nonzero" fill-opacity="1" /><path clip-path="url(#clip200)" d="M93.8447 613.594 Q93.8447 620.692 95.4679 623.429 Q97.0912 626.166 101.006 626.166 Q104.125 626.166 105.971 624.129 Q107.786 622.06 107.786 618.527 Q107.786 613.658 104.348 610.729 Q100.879 607.769 95.1497 607.769 L93.8447 607.769 L93.8447 613.594 M91.4257 601.913 L111.764 601.913 L111.764 607.769 L106.353 607.769 Q109.6 609.775 111.159 612.766 Q112.687 615.758 112.687 620.087 Q112.687 625.561 109.632 628.808 Q106.544 632.023 101.388 632.023 Q95.3725 632.023 92.3169 628.012 Q89.2614 623.97 89.2614 615.981 L89.2614 607.769 L88.6885 607.769 Q84.6462 607.769 82.4501 610.443 Q80.2221 613.085 80.2221 617.891 Q80.2221 620.946 80.9541 623.843 Q81.6862 626.739 83.1503 629.413 L77.7395 629.413 Q76.4981 626.198 75.8934 623.174 Q75.2568 620.151 75.2568 617.286 Q75.2568 609.552 79.2672 605.732 Q83.2776 601.913 91.4257 601.913 Z" fill="#000000" fill-rule="nonzero" fill-opacity="1" /><path clip-path="url(#clip200)" d="M62.239 589.85 L62.239 583.993 L111.764 583.993 L111.764 589.85 L62.239 589.85 Z" fill="#000000" fill-rule="nonzero" fill-opacity="1" /><path clip-path="url(#clip200)" d="M77.1665 549.014 L82.7047 549.014 Q81.4316 551.496 80.795 554.17 Q80.1584 556.844 80.1584 559.708 Q80.1584 564.069 81.4952 566.265 Q82.832 568.429 85.5056 568.429 Q87.5426 568.429 88.7203 566.87 Q89.8661 565.31 90.9165 560.599 L91.3621 558.594 Q92.6989 552.356 95.1497 549.746 Q97.5686 547.104 101.929 547.104 Q106.894 547.104 109.791 551.051 Q112.687 554.966 112.687 561.841 Q112.687 564.705 112.114 567.825 Q111.573 570.912 110.459 574.349 L104.412 574.349 Q106.099 571.103 106.958 567.952 Q107.786 564.801 107.786 561.713 Q107.786 557.576 106.385 555.348 Q104.953 553.12 102.375 553.12 Q99.9876 553.12 98.7145 554.743 Q97.4413 556.334 96.2637 561.777 L95.7862 563.814 Q94.6404 569.257 92.2851 571.676 Q89.898 574.095 85.7602 574.095 Q80.7313 574.095 77.9941 570.53 Q75.2568 566.965 75.2568 560.408 Q75.2568 557.162 75.7343 554.297 Q76.2117 551.433 77.1665 549.014 Z" fill="#000000" fill-rule="nonzero" fill-opacity="1" /><path clip-path="url(#clip200)" d="M62.3026 502.99 Q69.6232 507.255 76.7846 509.324 Q83.946 511.393 91.2984 511.393 Q98.6508 511.393 105.876 509.324 Q113.069 507.223 120.358 502.99 L120.358 508.082 Q112.878 512.857 105.653 515.244 Q98.428 517.599 91.2984 517.599 Q84.2006 517.599 77.0074 515.244 Q69.8142 512.888 62.3026 508.082 L62.3026 502.99 Z" fill="#000000" fill-rule="nonzero" fill-opacity="1" /><path clip-path="url(#clip200)" d="M65.8038 462.886 L72.074 462.886 Q70.3234 466.546 69.464 469.793 Q68.6047 473.039 68.6047 476.063 Q68.6047 481.315 70.6417 484.179 Q72.6787 487.012 76.4345 487.012 Q79.5855 487.012 81.2088 485.134 Q82.8002 483.224 83.7869 477.941 L84.5826 474.058 Q85.9512 466.864 89.4205 463.459 Q92.858 460.021 98.6508 460.021 Q105.558 460.021 109.122 464.668 Q112.687 469.283 112.687 478.227 Q112.687 481.601 111.923 485.42 Q111.159 489.208 109.663 493.282 L103.043 493.282 Q105.239 489.367 106.353 485.611 Q107.467 481.856 107.467 478.227 Q107.467 472.721 105.303 469.729 Q103.139 466.737 99.1282 466.737 Q95.6271 466.737 93.6537 468.901 Q91.6804 471.034 90.6937 475.936 L89.9298 479.85 Q88.4975 487.044 85.442 490.258 Q82.3864 493.473 76.9437 493.473 Q70.6417 493.473 67.0132 489.049 Q63.3848 484.593 63.3848 476.795 Q63.3848 473.453 63.9895 469.984 Q64.5943 466.514 65.8038 462.886 Z" fill="#000000" fill-rule="nonzero" fill-opacity="1" /><path clip-path="url(#clip200)" d="M69.5277 443.566 L106.481 443.566 L106.481 435.8 Q106.481 425.965 102.025 421.413 Q97.5686 416.83 87.9564 416.83 Q78.4079 416.83 73.9837 421.413 Q69.5277 425.965 69.5277 435.8 L69.5277 443.566 M64.2442 449.995 L64.2442 436.786 Q64.2442 422.973 70.0051 416.512 Q75.7343 410.05 87.9564 410.05 Q100.242 410.05 106.003 416.543 Q111.764 423.037 111.764 436.786 L111.764 449.995 L64.2442 449.995 Z" fill="#000000" fill-rule="nonzero" fill-opacity="1" /><path clip-path="url(#clip200)" d="M82.1636 399.292 L82.1636 358.488 L87.5108 358.488 L87.5108 399.292 L82.1636 399.292 M95.1497 399.292 L95.1497 358.488 L100.561 358.488 L100.561 399.292 L95.1497 399.292 Z" fill="#000000" fill-rule="nonzero" fill-opacity="1" /><path clip-path="url(#clip200)" d="M68.4774 330.861 Q68.4774 335.826 73.3789 338.341 Q78.2487 340.823 88.0519 340.823 Q97.8233 340.823 102.725 338.341 Q107.595 335.826 107.595 330.861 Q107.595 325.864 102.725 323.381 Q97.8233 320.867 88.0519 320.867 Q78.2487 320.867 73.3789 323.381 Q68.4774 325.864 68.4774 330.861 M63.3848 330.861 Q63.3848 322.872 69.7187 318.671 Q76.0207 314.438 88.0519 314.438 Q100.051 314.438 106.385 318.671 Q112.687 322.872 112.687 330.861 Q112.687 338.85 106.385 343.083 Q100.051 347.285 88.0519 347.285 Q76.0207 347.285 69.7187 343.083 Q63.3848 338.85 63.3848 330.861 Z" fill="#000000" fill-rule="nonzero" fill-opacity="1" /><path clip-path="url(#clip200)" d="M103.68 303.138 L103.68 296.423 L111.764 296.423 L111.764 303.138 L103.68 303.138 Z" fill="#000000" fill-rule="nonzero" fill-opacity="1" /><path clip-path="url(#clip200)" d="M110.777 282.227 L104.921 282.227 Q106.067 279.808 106.672 277.325 Q107.276 274.843 107.276 272.456 Q107.276 266.09 103.011 262.748 Q98.7145 259.374 89.9934 258.897 Q92.7307 260.743 94.1948 263.576 Q95.6589 266.408 95.6589 269.846 Q95.6589 276.975 91.3621 281.145 Q87.0334 285.283 79.5537 285.283 Q72.2331 285.283 67.809 280.954 Q63.3848 276.625 63.3848 269.432 Q63.3848 261.188 69.7187 256.86 Q76.0207 252.499 88.0519 252.499 Q99.2874 252.499 106.003 257.846 Q112.687 263.162 112.687 272.169 Q112.687 274.588 112.21 277.071 Q111.732 279.553 110.777 282.227 M90.63 269.432 Q90.63 265.103 87.67 262.589 Q84.7099 260.043 79.5537 260.043 Q74.4293 260.043 71.4692 262.589 Q68.4774 265.103 68.4774 269.432 Q68.4774 273.761 71.4692 276.307 Q74.4293 278.821 79.5537 278.821 Q84.7099 278.821 87.67 276.307 Q90.63 273.761 90.63 269.432 Z" fill="#000000" fill-rule="nonzero" fill-opacity="1" /><path clip-path="url(#clip200)" d="M89.1977 227.196 Q89.1977 231.779 91.6485 234.421 Q94.0993 237.031 98.3962 237.031 Q102.693 237.031 105.144 234.421 Q107.595 231.779 107.595 227.196 Q107.595 222.612 105.144 219.97 Q102.661 217.329 98.3962 217.329 Q94.0993 217.329 91.6485 219.97 Q89.1977 222.58 89.1977 227.196 M86.4605 233.625 Q85.442 237.763 82.6092 240.086 Q79.7765 242.378 75.7024 242.378 Q70.0051 242.378 66.695 238.336 Q63.3848 234.261 63.3848 227.196 Q63.3848 220.098 66.695 216.056 Q70.0051 212.013 75.7024 212.013 Q79.7765 212.013 82.6092 214.337 Q85.442 216.628 86.4605 220.734 Q87.5426 216.087 90.6937 213.509 Q93.8447 210.899 98.3962 210.899 Q105.303 210.899 108.995 215.133 Q112.687 219.334 112.687 227.196 Q112.687 235.057 108.995 239.29 Q105.303 243.492 98.3962 243.492 Q93.8447 243.492 90.6937 240.882 Q87.5426 238.272 86.4605 233.625 M76.3072 235.98 Q79.9993 235.98 82.0681 233.689 Q84.137 231.365 84.137 227.196 Q84.137 223.058 82.0681 220.734 Q79.9993 218.379 76.3072 218.379 Q72.6151 218.379 70.5462 220.734 Q68.4774 223.058 68.4774 227.196 Q68.4774 231.365 70.5462 233.689 Q72.6151 235.98 76.3072 235.98 Z" fill="#000000" fill-rule="nonzero" fill-opacity="1" /><path clip-path="url(#clip200)" d="M62.3026 201.223 L62.3026 196.131 Q69.8142 191.357 77.0074 189.001 Q84.2006 186.614 91.2984 186.614 Q98.428 186.614 105.653 189.001 Q112.878 191.357 120.358 196.131 L120.358 201.223 Q113.069 196.99 105.876 194.921 Q98.6508 192.821 91.2984 192.821 Q83.946 192.821 76.7846 194.921 Q69.6232 196.99 62.3026 201.223 Z" fill="#000000" fill-rule="nonzero" fill-opacity="1" /><polyline clip-path="url(#clip202)" style="stroke:#009af9; stroke-linecap:round; stroke-linejoin:round; stroke-width:4; stroke-opacity:1; fill:none" points="633.42,345.394 638.558,543.452 605.426,331.271 632.938,525.899 633.919,401.418 632.619,678.699 640.727,382.404 626.124,524.698 641.321,391.204 603.587,505.012 657.066,328.542 542.877,544.359 606.478,436.607 649.568,630.302 825.476,424.4 653.294,680.204 628.954,646.771 664.04,324.945 622.508,676.232 638.514,382.905 637.221,506.356 646.701,242.429 643.284,615.876 638.873,424.722 629.713,819.027 637.262,305.361 638.858,324.243 625.834,411.306 630.266,540.16 625.981,552.443 631.075,560.3 554.149,434.368 632.371,323.889 630.664,480.628 690.314,360.388 629.773,747.784 785.237,473.282 628.295,418.108 637.335,555.019 681.427,685.585 566.797,591.98 625.486,828.259 599.275,591.404 627.417,356.015 646.579,459.22 626.207,503.213 632.216,883.041 646.576,661.57 249.396,680.661 677.794,616.255 620.179,473.642 625.43,336.43 687.139,509.648 658.074,660.465 631.014,539.694 635.175,400.963 800.704,250.71 623.944,392.361 630.716,251.726 634.214,270.372 627.207,440.006 632.861,110.992 627.818,446.393 615.769,430.99 637.943,717.342 626.977,283.255 630.612,424.264 642.215,758.957 629.58,493.993 638.309,445.411 654.799,501.281 650.822,500.055 630.807,439.707 634.516,487.922 643.937,576.28 683.637,260.641 633.162,262.698 625.923,332.02 612.923,577.826 647.549,362.338 626.33,600.852 645.05,347.324 615.911,189.455 627.883,732.438 735.532,673.787 705.946,604.804 629.925,566.87 642.78,570.39 606.021,487.669 631.115,301.453 626.936,748.917 628.401,579.709 634.703,579.694 636.748,390.02 700.65,598.505 624.397,533.007 747.389,364.326 627.775,374.337 632.101,423.796 623.531,467.154 637.54,736.023 616.095,214.335 415.455,644.701 635.201,560.869 525.541,585.755 556.083,688.828 630.554,457.026 647.142,451.776 601.308,584.968 636.703,358.461 686.364,303.234 572.242,588.737 632.477,816.873 623.552,654.875 635.941,493.833 606.996,370.796 634.223,482.755 647.821,725.775 632.059,430.148 673.729,604.117 561.816,445.41 630.959,492.72 637.399,358.566 632.051,582.732 631.365,558.933 634.857,427.537 629.784,624.164 618.894,647.359 565.635,302.486 496.078,515.619 641.17,324.554 632.302,560.968 629.921,306.8 650.87,544.851 632.485,406.344 654.52,408.999 643.23,640.556 583.098,483.113 641.405,380.948 632.888,545.75 629.966,411.317 635.528,576.703 649.051,407.793 625.398,462.851 629.083,589.938 604.306,355.594 630.609,411.15 629.46,293.581 631.718,681.59 487.584,513.906 638.145,471.452 625.461,627.754 637.367,454.868 592.897,547.99 623.466,215.26 636.241,622.879 627.165,509.535 582.692,494.172 627.722,395.801 771.928,516.956 632.31,599.366 621.99,562.867 597.406,598.844 628.527,408.851 588.843,387.119 630.73,580.688 632.466,617.863 629.421,442.91 632.49,673.143 618.834,429.99 633.201,355.875 629.295,344.091 605.306,706.869 626.987,201.727 631.574,298.776 631.644,532.025 627.497,308.792 637.463,251.239 661.532,479.384 633.842,589.326 631.753,526.182 624.871,245.963 672.304,723.574 637.792,531.848 621.502,532.433 635.186,604.574 632.597,480.81 638.875,659.395 647.935,409.648 674.861,443.288 1126.44,464.452 655.577,374.58 625.571,700.92 628.881,144.667 597.657,530.185 635.446,616.865 622.67,757.731 634.795,615.899 637.403,507.748 682.052,659.926 630.791,433.467 627.982,495.883 631.743,502.841 631.943,575.881 646.985,394.483 636.293,959.567 742.929,564.789 630.107,564.774 643.318,408.989 697.525,413.234 650.483,495.533 615.465,470.874 631.975,577.084 629.717,104.282 611.528,495.012 636.526,437.36 634.768,881.375 629.075,677.268 631.695,604.859 629.38,482.518 610.143,523.211 630.903,510.804 650.174,443.077 633.736,579.01 600.966,334.51 648.282,574.088 632.655,82.2981 632.481,383.614 623.546,413.538 630.5,637.127 626.027,370.337 629.711,606.244 630.57,147.892 629.575,346.916 634.443,545.582 629.359,321.091 641.977,377.328 634.431,810.562 635.852,545.233 636.398,564.8 632.79,425.898 708.822,699.809 566.579,499.488 629.552,367.18 631.615,392.957 628.741,612.436 609.697,651.208 631.584,554.362 661.873,281.852 644.121,409.22 631.425,406.235 624.687,348.075 642.847,377.527 528.692,372.051 639.66,376.207 628.339,845.658 616.465,460 631.945,555.166 628.953,545.86 632.548,506.662 655.109,400.363 604.759,537.969 630.786,449.057 632.007,602.828 630.736,430.687 632.971,400.877 614.496,425.728 639.941,428.931 628.774,504.688 655.951,540.106 636.624,430.897 630.178,305.073 629.396,514.025 684.813,639.502 621.632,557.492 632.622,276.975 630.834,400.282 636.349,520.507 637.79,497.486 637.046,602.751 607.237,776.12 632.496,380.383 639.985,674.27 738.354,461.935 632.686,532.395 637.041,445.905 619.077,611.502 636.945,334.452 637.611,567.306 666.707,631.863 675.846,315.881 622.038,640.467 269.568,520.533 634.38,490.955 635.117,585.714 632.418,699.201 636.704,672.877 627.622,309.747 617.877,599.388 649.089,470.55 1108.15,501.593 633.187,481.478 719.876,396.181 637.238,296.607 630.709,492.66 632.755,408.668 512.796,620.42 704.457,526.764 592.459,542.735 624.448,662.555 661.812,548.556 621.029,305.25 638.624,532.118 619.392,660.229 457.668,329.94 635.366,579.845 615.769,174.702 1039.27,578.506 621.183,476.831 631.719,442.79 636.95,294.861 630.192,354.377 639.277,416.661 640.468,496.426 641.652,476.144 647.408,353.717 563.86,397.105 640.27,334.458 631.679,491.411 632.682,498.52 630.992,411.019 662.73,690.851 479.944,579.954 640.744,496.109 628.436,539.825 594.186,426.782 632.051,561.219 651.438,744.699 626.882,445.508 624.495,386.558 618.519,460.863 630.742,296.826 630.614,488.218 643.527,563.478 610.471,531.366 630.877,546.771 628.033,393.407 627.808,490.947 630.527,646.694 629.617,649.069 640.58,392.032 631.277,606.208 630.585,432.681 629.39,670.063 629.568,717.585 740.558,454.008 632.967,439.682 630.586,214.925 629.909,444.17 627.961,549.372 634.257,443.323 634.403,369.79 624.855,702.681 526.437,508.278 635.402,592.325 631.103,533.743 631.973,271.016 654.555,261.695 639.618,460.305 616.079,457.943 662.915,353.71 633.195,345.832 626.233,327.761 634.524,476.16 703.125,465.672 630.561,309.001 631.918,637.574 635.035,529.182 635.14,541.773 736.792,569.183 632.171,509.989 676.645,689.436 623.173,541.956 630.772,717.854 631.287,350.773 623.561,647.774 627.052,744.303 588.162,448.021 707.599,319.635 612.324,604.312 645.569,317.939 633.779,367.783 638.699,516.243 640.183,693.447 731.385,560.224 627.577,591.864 632.794,611.151 337.178,133.263 630.3,303.825 641.349,460.988 641.295,350.822 674.562,440.225 610.666,316.004 696.113,476.827 622.813,752.452 645.462,316.925 628.914,402.17 643.396,462.587 635.786,222.343 633.511,394.011 628.738,594.6 485.445,476.97 634.784,896.967 644.3,749.764 629.517,474.189 627.716,472.725 627.869,717.446 539.063,481.493 635.499,415.003 544.824,378.131 628.256,584.336 649.306,328.609 626.971,545.185 629.786,727.017 556.027,629.707 633.476,360.682 629.691,380.21 631.974,753.851 628.891,779.802 626.25,396.77 633.31,394.293 630.779,448.584 645.104,448.611 636.992,542.373 632.318,519.934 635.694,337.47 628.756,705.073 721.374,319.394 632.686,534.945 680.199,194.832 640.343,288.602 542.407,404.714 629.73,875.271 627.289,238.212 610.785,436.155 637.151,358.691 628.133,285.134 583.181,286.878 630.154,628.779 749.838,659.231 636.534,510.97 624.134,492.345 594.743,528.044 629.873,635.368 629.683,854.224 620.617,704.687 634.313,610.918 679.718,498.994 633.172,540.338 638.679,306.458 634.627,666.284 634.293,574.569 567.371,626.942 629.32,560.461 546.362,561.785 630.545,565.407 680.767,643.576 607.991,709.475 641.052,481.462 673.168,381.558 633.173,437.434 626.594,513.583 630.708,452.176 600.492,464.152 629.514,749.549 637.968,434.144 385.879,323.731 629.904,472.125 631.244,449.858 622.821,550.273 644.507,436.904 630.884,444.468 635.541,647.86 647.645,506.155 660.863,615.752 627.396,643.433 632.978,678.42 644.754,658.499 638.281,338.949 623.782,73.8166 596.377,547.332 686.417,766.365 645.063,469.212 661.585,553.242 638.221,673.724 700.56,505.843 631.836,533.053 651.087,656.629 675.347,334.531 523.027,642.791 "/>
<path clip-path="url(#clip200)" d="M976.369 182.221 L1121.77 182.221 L1121.77 78.5406 L976.369 78.5406  Z" fill="#ffffff" fill-rule="evenodd" fill-opacity="1"/>
<polyline clip-path="url(#clip200)" style="stroke:#000000; stroke-linecap:round; stroke-linejoin:round; stroke-width:4; stroke-opacity:1; fill:none" points="976.369,182.221 1121.77,182.221 1121.77,78.5406 976.369,78.5406 976.369,182.221 "/>
<polyline clip-path="url(#clip200)" style="stroke:#009af9; stroke-linecap:round; stroke-linejoin:round; stroke-width:4; stroke-opacity:1; fill:none" points="986.699,130.381 1048.68,130.381 "/>
<path clip-path="url(#clip200)" d="M1072.85 150.068 Q1071.04 154.698 1069.33 156.11 Q1067.62 157.522 1064.75 157.522 L1061.34 157.522 L1061.34 153.957 L1063.84 153.957 Q1065.6 153.957 1066.58 153.124 Q1067.55 152.29 1068.73 149.188 L1069.49 147.244 L1059.01 121.735 L1063.52 121.735 L1071.62 142.013 L1079.72 121.735 L1084.24 121.735 L1072.85 150.068 Z" fill="#000000" fill-rule="nonzero" fill-opacity="1" /><path clip-path="url(#clip200)" d="M1091.53 143.725 L1099.17 143.725 L1099.17 117.36 L1090.86 119.027 L1090.86 114.767 L1099.12 113.101 L1103.8 113.101 L1103.8 143.725 L1111.44 143.725 L1111.44 147.661 L1091.53 147.661 L1091.53 143.725 Z" fill="#000000" fill-rule="nonzero" fill-opacity="1" /></svg>
