<?xml version="1.0" encoding="utf-8"?>
<svg xmlns="http://www.w3.org/2000/svg" xmlns:xlink="http://www.w3.org/1999/xlink" width="300" height="300" viewBox="0 0 1200 1200">
<defs>
  <clipPath id="clip170">
    <rect x="0" y="0" width="1200" height="1200"/>
  </clipPath>
</defs>
<path clip-path="url(#clip170)" d="M0 1200 L1200 1200 L1200 0 L0 0  Z" fill="#ffffff" fill-rule="evenodd" fill-opacity="1"/>
<defs>
  <clipPath id="clip171">
    <rect x="240" y="120" width="841" height="841"/>
  </clipPath>
</defs>
<defs>
  <clipPath id="clip172">
    <rect x="135" y="47" width="1018" height="1027"/>
  </clipPath>
</defs>
<path clip-path="url(#clip170)" d="M135.478 1073.17 L1152.76 1073.17 L1152.76 47.2441 L135.478 47.2441  Z" fill="#ffffff" fill-rule="evenodd" fill-opacity="1"/>
<polyline clip-path="url(#clip172)" style="stroke:#000000; stroke-linecap:round; stroke-linejoin:round; stroke-width:2; stroke-opacity:0.1; fill:none" points="164.269,1073.17 164.269,47.2441 "/>
<polyline clip-path="url(#clip172)" style="stroke:#000000; stroke-linecap:round; stroke-linejoin:round; stroke-width:2; stroke-opacity:0.1; fill:none" points="404.193,1073.17 404.193,47.2441 "/>
<polyline clip-path="url(#clip172)" style="stroke:#000000; stroke-linecap:round; stroke-linejoin:round; stroke-width:2; stroke-opacity:0.1; fill:none" points="644.117,1073.17 644.117,47.2441 "/>
<polyline clip-path="url(#clip172)" style="stroke:#000000; stroke-linecap:round; stroke-linejoin:round; stroke-width:2; stroke-opacity:0.1; fill:none" points="884.041,1073.17 884.041,47.2441 "/>
<polyline clip-path="url(#clip172)" style="stroke:#000000; stroke-linecap:round; stroke-linejoin:round; stroke-width:2; stroke-opacity:0.1; fill:none" points="1123.97,1073.17 1123.97,47.2441 "/>
<polyline clip-path="url(#clip170)" style="stroke:#000000; stroke-linecap:round; stroke-linejoin:round; stroke-width:4; stroke-opacity:1; fill:none" points="135.478,1073.17 1152.76,1073.17 "/>
<polyline clip-path="url(#clip170)" style="stroke:#000000; stroke-linecap:round; stroke-linejoin:round; stroke-width:4; stroke-opacity:1; fill:none" points="164.269,1073.17 164.269,1054.27 "/>
<polyline clip-path="url(#clip170)" style="stroke:#000000; stroke-linecap:round; stroke-linejoin:round; stroke-width:4; stroke-opacity:1; fill:none" points="404.193,1073.17 404.193,1054.27 "/>
<polyline clip-path="url(#clip170)" style="stroke:#000000; stroke-linecap:round; stroke-linejoin:round; stroke-width:4; stroke-opacity:1; fill:none" points="644.117,1073.17 644.117,1054.27 "/>
<polyline clip-path="url(#clip170)" style="stroke:#000000; stroke-linecap:round; stroke-linejoin:round; stroke-width:4; stroke-opacity:1; fill:none" points="884.041,1073.17 884.041,1054.27 "/>
<polyline clip-path="url(#clip170)" style="stroke:#000000; stroke-linecap:round; stroke-linejoin:round; stroke-width:4; stroke-opacity:1; fill:none" points="1123.97,1073.17 1123.97,1054.27 "/>
<path clip-path="url(#clip170)" d="M134.211 1109.14 L163.887 1109.14 L163.887 1113.07 L134.211 1113.07 L134.211 1109.14 Z" fill="#000000" fill-rule="nonzero" fill-opacity="1" /><path clip-path="url(#clip170)" d="M178.007 1122.03 L194.327 1122.03 L194.327 1125.97 L172.382 1125.97 L172.382 1122.03 Q175.044 1119.28 179.628 1114.65 Q184.234 1110 185.415 1108.65 Q187.66 1106.13 188.54 1104.39 Q189.442 1102.63 189.442 1100.94 Q189.442 1098.19 187.498 1096.45 Q185.577 1094.72 182.475 1094.72 Q180.276 1094.72 177.822 1095.48 Q175.391 1096.25 172.614 1097.8 L172.614 1093.07 Q175.438 1091.94 177.891 1091.36 Q180.345 1090.78 182.382 1090.78 Q187.752 1090.78 190.947 1093.47 Q194.141 1096.15 194.141 1100.64 Q194.141 1102.77 193.331 1104.69 Q192.544 1106.59 190.438 1109.19 Q189.859 1109.86 186.757 1113.07 Q183.655 1116.27 178.007 1122.03 Z" fill="#000000" fill-rule="nonzero" fill-opacity="1" /><path clip-path="url(#clip170)" d="M373.95 1109.14 L403.626 1109.14 L403.626 1113.07 L373.95 1113.07 L373.95 1109.14 Z" fill="#000000" fill-rule="nonzero" fill-opacity="1" /><path clip-path="url(#clip170)" d="M414.528 1122.03 L422.167 1122.03 L422.167 1095.67 L413.857 1097.33 L413.857 1093.07 L422.121 1091.41 L426.797 1091.41 L426.797 1122.03 L434.436 1122.03 L434.436 1125.97 L414.528 1125.97 L414.528 1122.03 Z" fill="#000000" fill-rule="nonzero" fill-opacity="1" /><path clip-path="url(#clip170)" d="M644.117 1094.49 Q640.506 1094.49 638.677 1098.05 Q636.872 1101.59 636.872 1108.72 Q636.872 1115.83 638.677 1119.39 Q640.506 1122.94 644.117 1122.94 Q647.751 1122.94 649.557 1119.39 Q651.385 1115.83 651.385 1108.72 Q651.385 1101.59 649.557 1098.05 Q647.751 1094.49 644.117 1094.49 M644.117 1090.78 Q649.927 1090.78 652.983 1095.39 Q656.061 1099.97 656.061 1108.72 Q656.061 1117.45 652.983 1122.06 Q649.927 1126.64 644.117 1126.64 Q638.307 1126.64 635.228 1122.06 Q632.173 1117.45 632.173 1108.72 Q632.173 1099.97 635.228 1095.39 Q638.307 1090.78 644.117 1090.78 Z" fill="#000000" fill-rule="nonzero" fill-opacity="1" /><path clip-path="url(#clip170)" d="M874.423 1122.03 L882.062 1122.03 L882.062 1095.67 L873.752 1097.33 L873.752 1093.07 L882.016 1091.41 L886.691 1091.41 L886.691 1122.03 L894.33 1122.03 L894.33 1125.97 L874.423 1125.97 L874.423 1122.03 Z" fill="#000000" fill-rule="nonzero" fill-opacity="1" /><path clip-path="url(#clip170)" d="M1118.62 1122.03 L1134.94 1122.03 L1134.94 1125.97 L1112.99 1125.97 L1112.99 1122.03 Q1115.65 1119.28 1120.24 1114.65 Q1124.84 1110 1126.03 1108.65 Q1128.27 1106.13 1129.15 1104.39 Q1130.05 1102.63 1130.05 1100.94 Q1130.05 1098.19 1128.11 1096.45 Q1126.19 1094.72 1123.09 1094.72 Q1120.89 1094.72 1118.43 1095.48 Q1116 1096.25 1113.22 1097.8 L1113.22 1093.07 Q1116.05 1091.94 1118.5 1091.36 Q1120.96 1090.78 1122.99 1090.78 Q1128.36 1090.78 1131.56 1093.47 Q1134.75 1096.15 1134.75 1100.64 Q1134.75 1102.77 1133.94 1104.69 Q1133.15 1106.59 1131.05 1109.19 Q1130.47 1109.86 1127.37 1113.07 Q1124.27 1116.27 1118.62 1122.03 Z" fill="#000000" fill-rule="nonzero" fill-opacity="1" /><polyline clip-path="url(#clip172)" style="stroke:#000000; stroke-linecap:round; stroke-linejoin:round; stroke-width:2; stroke-opacity:0.1; fill:none" points="135.478,944.261 1152.76,944.261 "/>
<polyline clip-path="url(#clip172)" style="stroke:#000000; stroke-linecap:round; stroke-linejoin:round; stroke-width:2; stroke-opacity:0.1; fill:none" points="135.478,807.355 1152.76,807.355 "/>
<polyline clip-path="url(#clip172)" style="stroke:#000000; stroke-linecap:round; stroke-linejoin:round; stroke-width:2; stroke-opacity:0.1; fill:none" points="135.478,670.449 1152.76,670.449 "/>
<polyline clip-path="url(#clip172)" style="stroke:#000000; stroke-linecap:round; stroke-linejoin:round; stroke-width:2; stroke-opacity:0.1; fill:none" points="135.478,533.542 1152.76,533.542 "/>
<polyline clip-path="url(#clip172)" style="stroke:#000000; stroke-linecap:round; stroke-linejoin:round; stroke-width:2; stroke-opacity:0.1; fill:none" points="135.478,396.636 1152.76,396.636 "/>
<polyline clip-path="url(#clip172)" style="stroke:#000000; stroke-linecap:round; stroke-linejoin:round; stroke-width:2; stroke-opacity:0.1; fill:none" points="135.478,259.729 1152.76,259.729 "/>
<polyline clip-path="url(#clip172)" style="stroke:#000000; stroke-linecap:round; stroke-linejoin:round; stroke-width:2; stroke-opacity:0.1; fill:none" points="135.478,122.823 1152.76,122.823 "/>
<polyline clip-path="url(#clip170)" style="stroke:#000000; stroke-linecap:round; stroke-linejoin:round; stroke-width:4; stroke-opacity:1; fill:none" points="135.478,1073.17 135.478,47.2441 "/>
<polyline clip-path="url(#clip170)" style="stroke:#000000; stroke-linecap:round; stroke-linejoin:round; stroke-width:4; stroke-opacity:1; fill:none" points="135.478,944.261 154.376,944.261 "/>
<polyline clip-path="url(#clip170)" style="stroke:#000000; stroke-linecap:round; stroke-linejoin:round; stroke-width:4; stroke-opacity:1; fill:none" points="135.478,807.355 154.376,807.355 "/>
<polyline clip-path="url(#clip170)" style="stroke:#000000; stroke-linecap:round; stroke-linejoin:round; stroke-width:4; stroke-opacity:1; fill:none" points="135.478,670.449 154.376,670.449 "/>
<polyline clip-path="url(#clip170)" style="stroke:#000000; stroke-linecap:round; stroke-linejoin:round; stroke-width:4; stroke-opacity:1; fill:none" points="135.478,533.542 154.376,533.542 "/>
<polyline clip-path="url(#clip170)" style="stroke:#000000; stroke-linecap:round; stroke-linejoin:round; stroke-width:4; stroke-opacity:1; fill:none" points="135.478,396.636 154.376,396.636 "/>
<polyline clip-path="url(#clip170)" style="stroke:#000000; stroke-linecap:round; stroke-linejoin:round; stroke-width:4; stroke-opacity:1; fill:none" points="135.478,259.729 154.376,259.729 "/>
<polyline clip-path="url(#clip170)" style="stroke:#000000; stroke-linecap:round; stroke-linejoin:round; stroke-width:4; stroke-opacity:1; fill:none" points="135.478,122.823 154.376,122.823 "/>
<path clip-path="url(#clip170)" d="M57.3625 944.713 L87.0383 944.713 L87.0383 948.648 L57.3625 948.648 L57.3625 944.713 Z" fill="#000000" fill-rule="nonzero" fill-opacity="1" /><path clip-path="url(#clip170)" d="M101.159 957.606 L117.478 957.606 L117.478 961.541 L95.5336 961.541 L95.5336 957.606 Q98.1956 954.852 102.779 950.222 Q107.385 945.569 108.566 944.227 Q110.811 941.704 111.691 939.967 Q112.594 938.208 112.594 936.518 Q112.594 933.764 110.649 932.028 Q108.728 930.292 105.626 930.292 Q103.427 930.292 100.973 931.055 Q98.5428 931.819 95.7651 933.37 L95.7651 928.648 Q98.5891 927.514 101.043 926.935 Q103.497 926.356 105.534 926.356 Q110.904 926.356 114.098 929.042 Q117.293 931.727 117.293 936.218 Q117.293 938.347 116.483 940.268 Q115.696 942.167 113.589 944.759 Q113.01 945.43 109.909 948.648 Q106.807 951.842 101.159 957.606 Z" fill="#000000" fill-rule="nonzero" fill-opacity="1" /><path clip-path="url(#clip170)" d="M56.9921 807.806 L86.6679 807.806 L86.6679 811.742 L56.9921 811.742 L56.9921 807.806 Z" fill="#000000" fill-rule="nonzero" fill-opacity="1" /><path clip-path="url(#clip170)" d="M97.5706 820.7 L105.209 820.7 L105.209 794.334 L96.8993 796.001 L96.8993 791.742 L105.163 790.075 L109.839 790.075 L109.839 820.7 L117.478 820.7 L117.478 824.635 L97.5706 824.635 L97.5706 820.7 Z" fill="#000000" fill-rule="nonzero" fill-opacity="1" /><path clip-path="url(#clip170)" d="M105.534 656.247 Q101.922 656.247 100.094 659.812 Q98.2882 663.354 98.2882 670.483 Q98.2882 677.59 100.094 681.155 Q101.922 684.696 105.534 684.696 Q109.168 684.696 110.973 681.155 Q112.802 677.59 112.802 670.483 Q112.802 663.354 110.973 659.812 Q109.168 656.247 105.534 656.247 M105.534 652.544 Q111.344 652.544 114.399 657.15 Q117.478 661.733 117.478 670.483 Q117.478 679.21 114.399 683.817 Q111.344 688.4 105.534 688.4 Q99.7234 688.4 96.6447 683.817 Q93.5892 679.21 93.5892 670.483 Q93.5892 661.733 96.6447 657.15 Q99.7234 652.544 105.534 652.544 Z" fill="#000000" fill-rule="nonzero" fill-opacity="1" /><path clip-path="url(#clip170)" d="M97.5706 546.887 L105.209 546.887 L105.209 520.521 L96.8993 522.188 L96.8993 517.929 L105.163 516.262 L109.839 516.262 L109.839 546.887 L117.478 546.887 L117.478 550.822 L97.5706 550.822 L97.5706 546.887 Z" fill="#000000" fill-rule="nonzero" fill-opacity="1" /><path clip-path="url(#clip170)" d="M101.159 409.98 L117.478 409.98 L117.478 413.916 L95.5336 413.916 L95.5336 409.98 Q98.1956 407.226 102.779 402.596 Q107.385 397.944 108.566 396.601 Q110.811 394.078 111.691 392.342 Q112.594 390.582 112.594 388.893 Q112.594 386.138 110.649 384.402 Q108.728 382.666 105.626 382.666 Q103.427 382.666 100.973 383.43 Q98.5428 384.194 95.7651 385.745 L95.7651 381.022 Q98.5891 379.888 101.043 379.309 Q103.497 378.731 105.534 378.731 Q110.904 378.731 114.098 381.416 Q117.293 384.101 117.293 388.592 Q117.293 390.721 116.483 392.643 Q115.696 394.541 113.589 397.133 Q113.01 397.805 109.909 401.022 Q106.807 404.217 101.159 409.98 Z" fill="#000000" fill-rule="nonzero" fill-opacity="1" /><path clip-path="url(#clip170)" d="M110.348 258.375 Q113.705 259.093 115.58 261.361 Q117.478 263.63 117.478 266.963 Q117.478 272.079 113.959 274.88 Q110.441 277.68 103.959 277.68 Q101.784 277.68 99.4688 277.241 Q97.1771 276.824 94.7234 275.968 L94.7234 271.454 Q96.6678 272.588 98.9826 273.167 Q101.297 273.745 103.821 273.745 Q108.219 273.745 110.51 272.009 Q112.825 270.273 112.825 266.963 Q112.825 263.907 110.672 262.194 Q108.543 260.458 104.723 260.458 L100.696 260.458 L100.696 256.616 L104.909 256.616 Q108.358 256.616 110.186 255.25 Q112.015 253.861 112.015 251.269 Q112.015 248.607 110.117 247.195 Q108.242 245.759 104.723 245.759 Q102.802 245.759 100.603 246.176 Q98.4039 246.593 95.7651 247.472 L95.7651 243.306 Q98.4271 242.565 100.742 242.195 Q103.08 241.824 105.14 241.824 Q110.464 241.824 113.566 244.255 Q116.668 246.662 116.668 250.782 Q116.668 253.653 115.024 255.644 Q113.381 257.611 110.348 258.375 Z" fill="#000000" fill-rule="nonzero" fill-opacity="1" /><path clip-path="url(#clip170)" d="M107.895 109.617 L96.0891 128.066 L107.895 128.066 L107.895 109.617 M106.668 105.543 L112.547 105.543 L112.547 128.066 L117.478 128.066 L117.478 131.955 L112.547 131.955 L112.547 140.103 L107.895 140.103 L107.895 131.955 L92.2929 131.955 L92.2929 127.441 L106.668 105.543 Z" fill="#000000" fill-rule="nonzero" fill-opacity="1" /><polyline clip-path="url(#clip172)" style="stroke:#009af9; stroke-linecap:round; stroke-linejoin:round; stroke-width:4; stroke-opacity:1; fill:none" points="164.269,76.2797 212.254,204.306 260.238,317.322 308.223,392.373 356.208,454.334 404.193,508.543 452.178,555.001 500.162,593.707 548.147,624.662 596.132,647.865 644.117,663.317 692.102,674.017 740.087,671.809 788.071,647.026 836.056,599.671 884.041,529.742 932.026,468.9 980.011,397.298 1028,314.916 1075.98,221.753 1123.97,117.809 "/>
<polyline clip-path="url(#clip172)" style="stroke:#e26f46; stroke-linecap:round; stroke-linejoin:round; stroke-width:4; stroke-opacity:1; fill:none" points="164.269,403.157 212.254,428.504 260.238,453.85 308.223,479.196 356.208,504.543 404.193,529.889 452.178,555.235 500.162,580.582 548.147,605.928 596.132,631.274 644.117,663.317 692.102,701.398 740.087,739.48 788.071,777.561 836.056,815.643 884.041,853.724 932.026,891.806 980.011,929.888 1028,967.969 1075.98,1006.05 1123.97,1044.13 "/>
<path clip-path="url(#clip170)" d="M169.387 1038.97 L583.242 1038.97 L583.242 883.45 L169.387 883.45  Z" fill="#ffffff" fill-rule="evenodd" fill-opacity="1"/>
<polyline clip-path="url(#clip170)" style="stroke:#000000; stroke-linecap:round; stroke-linejoin:round; stroke-width:4; stroke-opacity:1; fill:none" points="169.387,1038.97 583.242,1038.97 583.242,883.45 169.387,883.45 169.387,1038.97 "/>
<polyline clip-path="url(#clip170)" style="stroke:#009af9; stroke-linecap:round; stroke-linejoin:round; stroke-width:4; stroke-opacity:1; fill:none" points="180.69,935.29 248.509,935.29 "/>
<path clip-path="url(#clip170)" d="M294.594 914.881 L293.634 923.172 Q293.564 923.922 293.447 924.156 Q293.329 924.367 292.955 924.367 Q292.674 924.367 292.51 924.203 Q292.369 924.016 292.369 923.805 Q292.369 923.688 292.393 923.383 Q292.416 923.079 292.416 922.938 Q292.627 921.486 292.627 920.385 Q292.627 918.347 292.018 917.247 Q291.409 916.122 289.839 915.607 Q288.27 915.068 285.319 915.068 L278.573 915.068 Q277.027 915.068 276.653 915.349 Q276.301 915.63 275.973 916.942 L273.092 928.489 L277.613 928.489 Q279.299 928.489 280.307 928.278 Q281.337 928.068 282.016 927.482 Q282.719 926.873 283.094 926.053 Q283.492 925.234 283.89 923.758 Q284.007 923.266 284.124 923.079 Q284.265 922.891 284.569 922.891 Q284.804 922.891 284.968 923.055 Q285.132 923.196 285.132 923.407 L282.391 934.626 Q282.251 935.188 282.11 935.399 Q281.97 935.586 281.688 935.586 Q281.384 935.586 281.22 935.422 Q281.056 935.258 281.056 935.071 Q281.056 934.884 281.197 934.532 Q281.548 933.01 281.548 932.19 Q281.548 931.722 281.501 931.487 Q281.478 931.253 281.267 930.925 Q281.079 930.574 280.658 930.41 Q280.236 930.246 279.44 930.129 Q278.644 929.988 277.449 929.988 L272.718 929.988 L269.439 943.081 Q269.204 943.948 269.204 944.182 Q269.204 944.44 269.321 944.534 Q269.462 944.604 269.837 944.651 Q270.258 944.721 270.891 944.721 L277.894 944.721 Q279.44 944.721 280.681 944.581 Q281.923 944.44 282.953 944.089 Q284.007 943.737 284.804 943.339 Q285.6 942.941 286.35 942.215 Q287.099 941.465 287.614 940.81 Q288.153 940.13 288.785 938.983 Q289.418 937.835 289.863 936.898 Q290.308 935.938 290.987 934.392 Q291.175 933.83 291.62 933.83 Q291.877 933.83 292.018 933.97 Q292.158 934.087 292.182 934.204 L292.182 934.345 Q292.041 934.79 291.947 935.024 L287.544 945.377 Q287.286 945.962 287.076 946.08 Q286.865 946.197 286.045 946.197 L261.147 946.197 Q260.585 946.197 260.351 946.173 Q260.14 946.15 259.976 946.033 Q259.812 945.892 259.812 945.611 Q259.812 945.166 259.999 944.979 Q260.187 944.768 260.397 944.744 Q260.608 944.721 261.147 944.721 Q262.318 944.721 263.021 944.651 Q263.723 944.581 264.168 944.487 Q264.637 944.37 264.871 944.042 Q265.129 943.714 265.246 943.433 Q265.363 943.128 265.527 942.449 L271.851 917.083 Q272.085 916.216 272.085 915.935 Q272.085 915.63 271.874 915.443 Q271.687 915.256 271.172 915.185 Q270.656 915.092 270.235 915.092 Q269.837 915.068 268.97 915.068 Q268.408 915.068 268.174 915.045 Q267.963 915.021 267.799 914.904 Q267.635 914.787 267.635 914.53 Q267.635 913.874 267.916 913.733 Q268.221 913.569 269.064 913.569 L293.283 913.569 Q294.243 913.569 294.454 913.78 Q294.688 913.967 294.594 914.881 Z" fill="#000000" fill-rule="nonzero" fill-opacity="1" /><path clip-path="url(#clip170)" d="M301.199 958.189 L301.199 910.22 L308.436 910.22 L308.436 911.321 L304.408 911.321 L304.408 957.088 L308.436 957.088 L308.436 958.189 L301.199 958.189 Z" fill="#000000" fill-rule="nonzero" fill-opacity="1" /><path clip-path="url(#clip170)" d="M331.732 926.826 Q331.732 927.154 331.521 927.927 L326.931 946.244 Q325.923 950.319 322.644 953.177 Q319.389 956.034 315.688 956.034 Q313.463 956.034 312.034 954.84 Q310.605 953.668 310.605 951.865 Q310.605 950.272 311.448 949.499 Q312.292 948.75 313.299 948.75 Q313.627 948.75 313.978 948.843 Q314.329 948.937 314.704 949.335 Q315.079 949.733 315.079 950.413 Q315.079 951.514 314.119 952.38 Q313.65 952.778 313.205 952.872 Q312.783 952.966 312.057 952.966 Q312.338 953.622 312.854 954.067 Q313.369 954.512 313.955 954.676 Q314.54 954.863 314.915 954.91 Q315.313 954.98 315.688 954.98 Q318.686 954.98 320.981 951.959 Q321.661 951.045 322.152 950.132 Q322.668 949.242 323.042 948.141 Q323.417 947.063 323.581 946.478 Q323.769 945.892 324.096 944.557 Q321.918 946.735 319.248 946.735 Q318.124 946.735 317.117 946.431 Q316.133 946.126 315.266 945.494 Q314.4 944.838 313.884 943.69 Q313.392 942.543 313.392 941.02 Q313.392 939.404 314.025 937.202 Q314.657 935.001 316.18 930.949 Q316.999 928.677 316.999 927.576 Q316.999 927.037 316.882 926.709 Q316.765 926.358 316.531 926.241 Q316.297 926.1 316.156 926.077 Q316.039 926.053 315.805 926.053 Q314.423 926.053 313.135 927.459 Q311.847 928.864 310.957 932.003 Q310.769 932.588 310.652 932.729 Q310.535 932.869 310.184 932.869 Q309.598 932.846 309.598 932.377 Q309.598 932.19 309.809 931.464 Q310.02 930.714 310.511 929.614 Q311.027 928.489 311.729 927.482 Q312.432 926.452 313.533 925.725 Q314.657 924.999 315.945 924.999 Q317.702 924.999 318.78 926.147 Q319.88 927.271 319.88 928.934 Q319.88 929.614 319.693 930.223 Q319.529 930.808 318.92 932.377 Q316.461 938.701 316.461 941.793 Q316.461 942.543 316.578 943.175 Q316.718 943.784 317.023 944.393 Q317.327 944.979 317.936 945.33 Q318.569 945.658 319.435 945.658 Q320.536 945.658 321.567 945.143 Q322.621 944.604 323.277 943.878 Q323.956 943.152 324.354 942.543 Q324.776 941.91 324.869 941.582 L327.024 932.963 L327.985 929.122 Q328.43 927.037 328.64 926.522 Q328.922 926.03 329.413 925.772 Q329.905 925.515 330.327 925.515 Q330.912 925.515 331.311 925.866 Q331.732 926.217 331.732 926.826 Z" fill="#000000" fill-rule="nonzero" fill-opacity="1" /><path clip-path="url(#clip170)" d="M338.817 956.713 L338.817 912.047 Q338.817 910.267 339.777 910.267 Q340.737 910.267 340.737 911.695 L340.737 956.362 Q340.737 958.142 339.777 958.142 Q338.817 958.142 338.817 956.713 Z" fill="#000000" fill-rule="nonzero" fill-opacity="1" /><path clip-path="url(#clip170)" d="M382.506 928.161 Q382.506 929.473 381.687 930.223 Q380.867 930.949 379.93 930.949 Q379.04 930.949 378.571 930.433 Q378.103 929.918 378.103 929.262 Q378.103 928.372 378.759 927.599 Q379.415 926.826 380.398 926.662 Q379.438 926.053 378.009 926.053 Q377.072 926.053 376.253 926.545 Q375.456 927.037 374.964 927.67 Q374.496 928.302 374.074 929.215 Q373.676 930.105 373.512 930.644 Q373.372 931.159 373.255 931.722 L371.615 938.28 Q370.819 941.395 370.819 942.496 Q370.819 943.854 371.474 944.768 Q372.13 945.658 373.442 945.658 Q373.957 945.658 374.543 945.517 Q375.128 945.353 375.878 944.932 Q376.651 944.487 377.33 943.831 Q378.033 943.152 378.712 942.004 Q379.391 940.856 379.836 939.381 Q379.977 938.865 380.445 938.865 Q381.031 938.865 381.031 939.334 Q381.031 939.732 380.703 940.575 Q380.398 941.395 379.719 942.472 Q379.063 943.527 378.197 944.487 Q377.33 945.424 376.042 946.08 Q374.754 946.735 373.348 946.735 Q371.334 946.735 369.999 945.658 Q368.664 944.581 368.172 943.081 Q368.055 943.292 367.891 943.573 Q367.727 943.854 367.235 944.487 Q366.767 945.096 366.228 945.564 Q365.689 946.009 364.846 946.361 Q364.026 946.735 363.136 946.735 Q362.012 946.735 361.005 946.407 Q360.021 946.08 359.318 945.33 Q358.616 944.581 358.616 943.55 Q358.616 942.402 359.388 941.606 Q360.185 940.786 361.262 940.786 Q361.942 940.786 362.48 941.184 Q363.042 941.582 363.042 942.449 Q363.042 943.409 362.387 944.135 Q361.731 944.862 360.794 945.049 Q361.754 945.658 363.183 945.658 Q364.729 945.658 365.947 944.299 Q367.165 942.941 367.75 940.669 Q369.202 935.212 369.765 932.776 Q370.327 930.316 370.327 929.262 Q370.327 928.278 370.069 927.599 Q369.811 926.92 369.366 926.616 Q368.945 926.288 368.547 926.17 Q368.172 926.053 367.75 926.053 Q367.048 926.053 366.251 926.334 Q365.478 926.616 364.541 927.271 Q363.628 927.904 362.761 929.215 Q361.895 930.527 361.309 932.331 Q361.192 932.869 360.677 932.869 Q360.115 932.846 360.115 932.377 Q360.115 931.979 360.419 931.159 Q360.747 930.316 361.403 929.262 Q362.082 928.208 362.949 927.271 Q363.839 926.311 365.127 925.655 Q366.439 924.999 367.844 924.999 Q368.476 924.999 369.085 925.14 Q369.718 925.257 370.467 925.608 Q371.24 925.96 371.919 926.733 Q372.599 927.506 373.02 928.63 Q373.301 928.091 373.676 927.576 Q374.074 927.061 374.683 926.428 Q375.316 925.772 376.182 925.398 Q377.072 924.999 378.056 924.999 Q379.016 924.999 379.953 925.257 Q380.89 925.491 381.687 926.264 Q382.506 927.014 382.506 928.161 Z" fill="#000000" fill-rule="nonzero" fill-opacity="1" /><path clip-path="url(#clip170)" d="M387.392 940.85 L387.392 939.801 Q391.425 939.801 393.507 937.653 Q394.081 937.653 394.18 937.784 Q394.278 937.916 394.278 938.522 L394.278 957.361 Q394.278 958.361 394.77 958.673 Q395.262 958.984 397.41 958.984 L398.475 958.984 L398.475 960.017 Q397.295 959.919 393.032 959.919 Q388.769 959.919 387.605 960.017 L387.605 958.984 L388.671 958.984 Q390.786 958.984 391.294 958.689 Q391.802 958.377 391.802 957.361 L391.802 939.965 Q390.048 940.85 387.392 940.85 Z" fill="#000000" fill-rule="nonzero" fill-opacity="1" /><path clip-path="url(#clip170)" d="M404.167 945.424 Q403.488 944.651 403.488 943.644 Q403.488 942.636 404.143 941.887 Q404.823 941.114 406.041 941.114 Q407.469 941.114 408.289 942.496 Q409.109 943.854 409.109 946.15 Q409.109 948.633 408.102 950.928 Q407.095 953.247 406.111 954.348 Q405.127 955.449 404.729 955.449 Q404.261 955.449 404.261 954.933 Q404.261 954.746 404.588 954.395 Q408.032 950.694 408.055 946.15 Q408.055 945.424 407.961 945.424 L407.844 945.517 Q407.024 946.197 406.041 946.197 Q404.846 946.197 404.167 945.424 Z" fill="#000000" fill-rule="nonzero" fill-opacity="1" /><path clip-path="url(#clip170)" d="M448.135 928.161 Q448.135 929.473 447.315 930.223 Q446.496 930.949 445.559 930.949 Q444.669 930.949 444.2 930.433 Q443.732 929.918 443.732 929.262 Q443.732 928.372 444.388 927.599 Q445.043 926.826 446.027 926.662 Q445.067 926.053 443.638 926.053 Q442.701 926.053 441.881 926.545 Q441.085 927.037 440.593 927.67 Q440.125 928.302 439.703 929.215 Q439.305 930.105 439.141 930.644 Q439.001 931.159 438.883 931.722 L437.244 938.28 Q436.447 941.395 436.447 942.496 Q436.447 943.854 437.103 944.768 Q437.759 945.658 439.071 945.658 Q439.586 945.658 440.172 945.517 Q440.757 945.353 441.507 944.932 Q442.28 944.487 442.959 943.831 Q443.662 943.152 444.341 942.004 Q445.02 940.856 445.465 939.381 Q445.606 938.865 446.074 938.865 Q446.66 938.865 446.66 939.334 Q446.66 939.732 446.332 940.575 Q446.027 941.395 445.348 942.472 Q444.692 943.527 443.826 944.487 Q442.959 945.424 441.671 946.08 Q440.382 946.735 438.977 946.735 Q436.963 946.735 435.628 945.658 Q434.293 944.581 433.801 943.081 Q433.684 943.292 433.52 943.573 Q433.356 943.854 432.864 944.487 Q432.395 945.096 431.857 945.564 Q431.318 946.009 430.475 946.361 Q429.655 946.735 428.765 946.735 Q427.641 946.735 426.633 946.407 Q425.65 946.08 424.947 945.33 Q424.244 944.581 424.244 943.55 Q424.244 942.402 425.017 941.606 Q425.814 940.786 426.891 940.786 Q427.57 940.786 428.109 941.184 Q428.671 941.582 428.671 942.449 Q428.671 943.409 428.015 944.135 Q427.36 944.862 426.423 945.049 Q427.383 945.658 428.812 945.658 Q430.358 945.658 431.576 944.299 Q432.794 942.941 433.379 940.669 Q434.831 935.212 435.393 932.776 Q435.956 930.316 435.956 929.262 Q435.956 928.278 435.698 927.599 Q435.44 926.92 434.995 926.616 Q434.574 926.288 434.175 926.17 Q433.801 926.053 433.379 926.053 Q432.676 926.053 431.88 926.334 Q431.107 926.616 430.17 927.271 Q429.257 927.904 428.39 929.215 Q427.524 930.527 426.938 932.331 Q426.821 932.869 426.306 932.869 Q425.743 932.846 425.743 932.377 Q425.743 931.979 426.048 931.159 Q426.376 930.316 427.032 929.262 Q427.711 928.208 428.578 927.271 Q429.468 926.311 430.756 925.655 Q432.067 924.999 433.473 924.999 Q434.105 924.999 434.714 925.14 Q435.347 925.257 436.096 925.608 Q436.869 925.96 437.548 926.733 Q438.228 927.506 438.649 928.63 Q438.93 928.091 439.305 927.576 Q439.703 927.061 440.312 926.428 Q440.945 925.772 441.811 925.398 Q442.701 924.999 443.685 924.999 Q444.645 924.999 445.582 925.257 Q446.519 925.491 447.315 926.264 Q448.135 927.014 448.135 928.161 Z" fill="#000000" fill-rule="nonzero" fill-opacity="1" /><path clip-path="url(#clip170)" d="M453.021 960.017 Q453.021 959.41 453.07 959.23 Q453.135 959.05 453.398 958.771 L459.841 951.59 Q463.366 947.622 463.366 944.162 Q463.366 941.916 462.186 940.309 Q461.022 938.703 458.874 938.703 Q457.398 938.703 456.152 939.604 Q454.906 940.506 454.332 942.113 Q454.431 942.08 454.775 942.08 Q455.611 942.08 456.07 942.605 Q456.546 943.129 456.546 943.834 Q456.546 944.736 455.955 945.179 Q455.382 945.605 454.808 945.605 Q454.578 945.605 454.267 945.556 Q453.972 945.507 453.496 945.048 Q453.021 944.572 453.021 943.736 Q453.021 941.391 454.791 939.522 Q456.578 937.653 459.3 937.653 Q462.383 937.653 464.399 939.49 Q466.432 941.309 466.432 944.162 Q466.432 945.162 466.121 946.081 Q465.826 946.982 465.416 947.687 Q465.022 948.392 463.94 949.524 Q462.858 950.655 461.989 951.458 Q461.12 952.262 459.169 953.967 L455.611 957.426 L461.661 957.426 Q464.612 957.426 464.842 957.164 Q465.17 956.689 465.58 954.18 L466.432 954.18 L465.481 960.017 L453.021 960.017 Z" fill="#000000" fill-rule="nonzero" fill-opacity="1" /><path clip-path="url(#clip170)" d="M484.726 938.912 Q484.773 938.327 485.686 938.327 L515.081 938.327 Q516.463 938.327 516.487 938.865 Q516.487 939.451 515.175 939.428 L486.014 939.428 Q484.726 939.451 484.726 938.912 M484.726 929.543 Q484.726 928.958 485.733 928.981 L515.034 928.981 Q516.463 928.981 516.487 929.543 Q516.487 930.082 515.269 930.082 L485.686 930.082 Q484.726 930.082 484.726 929.543 Z" fill="#000000" fill-rule="nonzero" fill-opacity="1" /><path clip-path="url(#clip170)" d="M534.986 930.855 Q534.986 923.805 536.766 919.964 Q539.249 914.248 545.104 914.248 Q546.346 914.248 547.634 914.6 Q548.946 914.928 550.585 916.216 Q552.248 917.504 553.255 919.612 Q555.176 923.688 555.176 930.855 Q555.176 937.858 553.396 941.676 Q550.796 947.251 545.057 947.251 Q542.903 947.251 540.701 946.15 Q538.523 945.049 537.141 942.402 Q534.986 938.444 534.986 930.855 M538.968 930.269 Q538.968 937.507 539.483 940.388 Q540.068 943.503 541.661 944.862 Q543.277 946.197 545.057 946.197 Q546.978 946.197 548.571 944.768 Q550.187 943.316 550.679 940.201 Q551.218 937.132 551.194 930.269 Q551.194 923.594 550.726 920.924 Q550.093 917.809 548.407 916.567 Q546.744 915.302 545.057 915.302 Q544.425 915.302 543.746 915.49 Q543.09 915.677 542.13 916.216 Q541.169 916.755 540.42 918.09 Q539.694 919.425 539.342 921.439 Q538.968 924.039 538.968 930.269 Z" fill="#000000" fill-rule="nonzero" fill-opacity="1" /><path clip-path="url(#clip170)" d="M557.972 957.088 L562 957.088 L562 911.321 L557.972 911.321 L557.972 910.22 L565.209 910.22 L565.209 958.189 L557.972 958.189 L557.972 957.088 Z" fill="#000000" fill-rule="nonzero" fill-opacity="1" /><polyline clip-path="url(#clip170)" style="stroke:#e26f46; stroke-linecap:round; stroke-linejoin:round; stroke-width:4; stroke-opacity:1; fill:none" points="180.69,987.13 248.509,987.13 "/>
<path clip-path="url(#clip170)" d="M294.594 966.721 L293.634 975.012 Q293.564 975.762 293.447 975.996 Q293.329 976.207 292.955 976.207 Q292.674 976.207 292.51 976.043 Q292.369 975.856 292.369 975.645 Q292.369 975.528 292.393 975.223 Q292.416 974.919 292.416 974.778 Q292.627 973.326 292.627 972.225 Q292.627 970.187 292.018 969.087 Q291.409 967.962 289.839 967.447 Q288.27 966.908 285.319 966.908 L278.573 966.908 Q277.027 966.908 276.653 967.189 Q276.301 967.47 275.973 968.782 L273.092 980.329 L277.613 980.329 Q279.299 980.329 280.307 980.118 Q281.337 979.908 282.016 979.322 Q282.719 978.713 283.094 977.893 Q283.492 977.074 283.89 975.598 Q284.007 975.106 284.124 974.919 Q284.265 974.731 284.569 974.731 Q284.804 974.731 284.968 974.895 Q285.132 975.036 285.132 975.247 L282.391 986.466 Q282.251 987.028 282.11 987.239 Q281.97 987.426 281.688 987.426 Q281.384 987.426 281.22 987.262 Q281.056 987.098 281.056 986.911 Q281.056 986.724 281.197 986.372 Q281.548 984.85 281.548 984.03 Q281.548 983.562 281.501 983.327 Q281.478 983.093 281.267 982.765 Q281.079 982.414 280.658 982.25 Q280.236 982.086 279.44 981.969 Q278.644 981.828 277.449 981.828 L272.718 981.828 L269.439 994.921 Q269.204 995.788 269.204 996.022 Q269.204 996.28 269.321 996.374 Q269.462 996.444 269.837 996.491 Q270.258 996.561 270.891 996.561 L277.894 996.561 Q279.44 996.561 280.681 996.421 Q281.923 996.28 282.953 995.929 Q284.007 995.577 284.804 995.179 Q285.6 994.781 286.35 994.055 Q287.099 993.305 287.614 992.65 Q288.153 991.97 288.785 990.823 Q289.418 989.675 289.863 988.738 Q290.308 987.778 290.987 986.232 Q291.175 985.67 291.62 985.67 Q291.877 985.67 292.018 985.81 Q292.158 985.927 292.182 986.044 L292.182 986.185 Q292.041 986.63 291.947 986.864 L287.544 997.217 Q287.286 997.802 287.076 997.92 Q286.865 998.037 286.045 998.037 L261.147 998.037 Q260.585 998.037 260.351 998.013 Q260.14 997.99 259.976 997.873 Q259.812 997.732 259.812 997.451 Q259.812 997.006 259.999 996.819 Q260.187 996.608 260.397 996.584 Q260.608 996.561 261.147 996.561 Q262.318 996.561 263.021 996.491 Q263.723 996.421 264.168 996.327 Q264.637 996.21 264.871 995.882 Q265.129 995.554 265.246 995.273 Q265.363 994.968 265.527 994.289 L271.851 968.923 Q272.085 968.056 272.085 967.775 Q272.085 967.47 271.874 967.283 Q271.687 967.096 271.172 967.025 Q270.656 966.932 270.235 966.932 Q269.837 966.908 268.97 966.908 Q268.408 966.908 268.174 966.885 Q267.963 966.861 267.799 966.744 Q267.635 966.627 267.635 966.37 Q267.635 965.714 267.916 965.573 Q268.221 965.409 269.064 965.409 L293.283 965.409 Q294.243 965.409 294.454 965.62 Q294.688 965.807 294.594 966.721 Z" fill="#000000" fill-rule="nonzero" fill-opacity="1" /><path clip-path="url(#clip170)" d="M301.199 1010.03 L301.199 962.06 L308.436 962.06 L308.436 963.161 L304.408 963.161 L304.408 1008.93 L308.436 1008.93 L308.436 1010.03 L301.199 1010.03 Z" fill="#000000" fill-rule="nonzero" fill-opacity="1" /><path clip-path="url(#clip170)" d="M331.732 978.666 Q331.732 978.994 331.521 979.767 L326.931 998.084 Q325.923 1002.16 322.644 1005.02 Q319.389 1007.87 315.688 1007.87 Q313.463 1007.87 312.034 1006.68 Q310.605 1005.51 310.605 1003.7 Q310.605 1002.11 311.448 1001.34 Q312.292 1000.59 313.299 1000.59 Q313.627 1000.59 313.978 1000.68 Q314.329 1000.78 314.704 1001.18 Q315.079 1001.57 315.079 1002.25 Q315.079 1003.35 314.119 1004.22 Q313.65 1004.62 313.205 1004.71 Q312.783 1004.81 312.057 1004.81 Q312.338 1005.46 312.854 1005.91 Q313.369 1006.35 313.955 1006.52 Q314.54 1006.7 314.915 1006.75 Q315.313 1006.82 315.688 1006.82 Q318.686 1006.82 320.981 1003.8 Q321.661 1002.89 322.152 1001.97 Q322.668 1001.08 323.042 999.981 Q323.417 998.903 323.581 998.318 Q323.769 997.732 324.096 996.397 Q321.918 998.575 319.248 998.575 Q318.124 998.575 317.117 998.271 Q316.133 997.966 315.266 997.334 Q314.4 996.678 313.884 995.53 Q313.392 994.383 313.392 992.86 Q313.392 991.244 314.025 989.042 Q314.657 986.841 316.18 982.789 Q316.999 980.517 316.999 979.416 Q316.999 978.877 316.882 978.549 Q316.765 978.198 316.531 978.081 Q316.297 977.94 316.156 977.917 Q316.039 977.893 315.805 977.893 Q314.423 977.893 313.135 979.299 Q311.847 980.704 310.957 983.843 Q310.769 984.428 310.652 984.569 Q310.535 984.709 310.184 984.709 Q309.598 984.686 309.598 984.217 Q309.598 984.03 309.809 983.304 Q310.02 982.554 310.511 981.454 Q311.027 980.329 311.729 979.322 Q312.432 978.292 313.533 977.565 Q314.657 976.839 315.945 976.839 Q317.702 976.839 318.78 977.987 Q319.88 979.111 319.88 980.774 Q319.88 981.454 319.693 982.063 Q319.529 982.648 318.92 984.217 Q316.461 990.541 316.461 993.633 Q316.461 994.383 316.578 995.015 Q316.718 995.624 317.023 996.233 Q317.327 996.819 317.936 997.17 Q318.569 997.498 319.435 997.498 Q320.536 997.498 321.567 996.983 Q322.621 996.444 323.277 995.718 Q323.956 994.992 324.354 994.383 Q324.776 993.75 324.869 993.422 L327.024 984.803 L327.985 980.962 Q328.43 978.877 328.64 978.362 Q328.922 977.87 329.413 977.612 Q329.905 977.355 330.327 977.355 Q330.912 977.355 331.311 977.706 Q331.732 978.057 331.732 978.666 Z" fill="#000000" fill-rule="nonzero" fill-opacity="1" /><path clip-path="url(#clip170)" d="M338.817 1008.55 L338.817 963.887 Q338.817 962.107 339.777 962.107 Q340.737 962.107 340.737 963.535 L340.737 1008.2 Q340.737 1009.98 339.777 1009.98 Q338.817 1009.98 338.817 1008.55 Z" fill="#000000" fill-rule="nonzero" fill-opacity="1" /><path clip-path="url(#clip170)" d="M382.506 980.001 Q382.506 981.313 381.687 982.063 Q380.867 982.789 379.93 982.789 Q379.04 982.789 378.571 982.273 Q378.103 981.758 378.103 981.102 Q378.103 980.212 378.759 979.439 Q379.415 978.666 380.398 978.502 Q379.438 977.893 378.009 977.893 Q377.072 977.893 376.253 978.385 Q375.456 978.877 374.964 979.51 Q374.496 980.142 374.074 981.055 Q373.676 981.945 373.512 982.484 Q373.372 982.999 373.255 983.562 L371.615 990.12 Q370.819 993.235 370.819 994.336 Q370.819 995.694 371.474 996.608 Q372.13 997.498 373.442 997.498 Q373.957 997.498 374.543 997.357 Q375.128 997.193 375.878 996.772 Q376.651 996.327 377.33 995.671 Q378.033 994.992 378.712 993.844 Q379.391 992.696 379.836 991.221 Q379.977 990.705 380.445 990.705 Q381.031 990.705 381.031 991.174 Q381.031 991.572 380.703 992.415 Q380.398 993.235 379.719 994.312 Q379.063 995.367 378.197 996.327 Q377.33 997.264 376.042 997.92 Q374.754 998.575 373.348 998.575 Q371.334 998.575 369.999 997.498 Q368.664 996.421 368.172 994.921 Q368.055 995.132 367.891 995.413 Q367.727 995.694 367.235 996.327 Q366.767 996.936 366.228 997.404 Q365.689 997.849 364.846 998.201 Q364.026 998.575 363.136 998.575 Q362.012 998.575 361.005 998.247 Q360.021 997.92 359.318 997.17 Q358.616 996.421 358.616 995.39 Q358.616 994.242 359.388 993.446 Q360.185 992.626 361.262 992.626 Q361.942 992.626 362.48 993.024 Q363.042 993.422 363.042 994.289 Q363.042 995.249 362.387 995.975 Q361.731 996.702 360.794 996.889 Q361.754 997.498 363.183 997.498 Q364.729 997.498 365.947 996.139 Q367.165 994.781 367.75 992.509 Q369.202 987.052 369.765 984.616 Q370.327 982.156 370.327 981.102 Q370.327 980.118 370.069 979.439 Q369.811 978.76 369.366 978.456 Q368.945 978.128 368.547 978.01 Q368.172 977.893 367.75 977.893 Q367.048 977.893 366.251 978.174 Q365.478 978.456 364.541 979.111 Q363.628 979.744 362.761 981.055 Q361.895 982.367 361.309 984.171 Q361.192 984.709 360.677 984.709 Q360.115 984.686 360.115 984.217 Q360.115 983.819 360.419 982.999 Q360.747 982.156 361.403 981.102 Q362.082 980.048 362.949 979.111 Q363.839 978.151 365.127 977.495 Q366.439 976.839 367.844 976.839 Q368.476 976.839 369.085 976.98 Q369.718 977.097 370.467 977.448 Q371.24 977.8 371.919 978.573 Q372.599 979.346 373.02 980.47 Q373.301 979.931 373.676 979.416 Q374.074 978.901 374.683 978.268 Q375.316 977.612 376.182 977.238 Q377.072 976.839 378.056 976.839 Q379.016 976.839 379.953 977.097 Q380.89 977.331 381.687 978.104 Q382.506 978.854 382.506 980.001 Z" fill="#000000" fill-rule="nonzero" fill-opacity="1" /><path clip-path="url(#clip170)" d="M387.392 992.69 L387.392 991.641 Q391.425 991.641 393.507 989.493 Q394.081 989.493 394.18 989.624 Q394.278 989.756 394.278 990.362 L394.278 1009.2 Q394.278 1010.2 394.77 1010.51 Q395.262 1010.82 397.41 1010.82 L398.475 1010.82 L398.475 1011.86 Q397.295 1011.76 393.032 1011.76 Q388.769 1011.76 387.605 1011.86 L387.605 1010.82 L388.671 1010.82 Q390.786 1010.82 391.294 1010.53 Q391.802 1010.22 391.802 1009.2 L391.802 991.805 Q390.048 992.69 387.392 992.69 Z" fill="#000000" fill-rule="nonzero" fill-opacity="1" /><path clip-path="url(#clip170)" d="M416.795 990.752 Q416.841 990.167 417.755 990.167 L447.15 990.167 Q448.532 990.167 448.555 990.705 Q448.555 991.291 447.244 991.268 L418.083 991.268 Q416.795 991.291 416.795 990.752 M416.795 981.383 Q416.795 980.798 417.802 980.821 L447.103 980.821 Q448.532 980.821 448.555 981.383 Q448.555 981.922 447.337 981.922 L417.755 981.922 Q416.795 981.922 416.795 981.383 Z" fill="#000000" fill-rule="nonzero" fill-opacity="1" /><path clip-path="url(#clip170)" d="M467.055 982.695 Q467.055 975.645 468.835 971.804 Q471.318 966.088 477.173 966.088 Q478.415 966.088 479.703 966.44 Q481.014 966.768 482.654 968.056 Q484.317 969.344 485.324 971.452 Q487.245 975.528 487.245 982.695 Q487.245 989.698 485.465 993.516 Q482.865 999.091 477.126 999.091 Q474.971 999.091 472.77 997.99 Q470.591 996.889 469.209 994.242 Q467.055 990.284 467.055 982.695 M471.036 982.109 Q471.036 989.347 471.552 992.228 Q472.137 995.343 473.73 996.702 Q475.346 998.037 477.126 998.037 Q479.047 998.037 480.64 996.608 Q482.256 995.156 482.748 992.041 Q483.286 988.972 483.263 982.109 Q483.263 975.434 482.795 972.764 Q482.162 969.649 480.476 968.407 Q478.813 967.142 477.126 967.142 Q476.494 967.142 475.815 967.33 Q475.159 967.517 474.198 968.056 Q473.238 968.595 472.489 969.93 Q471.763 971.265 471.411 973.279 Q471.036 975.879 471.036 982.109 Z" fill="#000000" fill-rule="nonzero" fill-opacity="1" /><path clip-path="url(#clip170)" d="M491.488 997.264 Q490.809 996.491 490.809 995.484 Q490.809 994.476 491.464 993.727 Q492.144 992.954 493.362 992.954 Q494.79 992.954 495.61 994.336 Q496.43 995.694 496.43 997.99 Q496.43 1000.47 495.423 1002.77 Q494.416 1005.09 493.432 1006.19 Q492.448 1007.29 492.05 1007.29 Q491.581 1007.29 491.581 1006.77 Q491.581 1006.59 491.909 1006.23 Q495.352 1002.53 495.376 997.99 Q495.376 997.264 495.282 997.264 L495.165 997.357 Q494.345 998.037 493.362 998.037 Q492.167 998.037 491.488 997.264 Z" fill="#000000" fill-rule="nonzero" fill-opacity="1" /><path clip-path="url(#clip170)" d="M535.456 980.001 Q535.456 981.313 534.636 982.063 Q533.817 982.789 532.88 982.789 Q531.99 982.789 531.521 982.273 Q531.053 981.758 531.053 981.102 Q531.053 980.212 531.709 979.439 Q532.364 978.666 533.348 978.502 Q532.388 977.893 530.959 977.893 Q530.022 977.893 529.202 978.385 Q528.406 978.877 527.914 979.51 Q527.446 980.142 527.024 981.055 Q526.626 981.945 526.462 982.484 Q526.321 982.999 526.204 983.562 L524.565 990.12 Q523.768 993.235 523.768 994.336 Q523.768 995.694 524.424 996.608 Q525.08 997.498 526.392 997.498 Q526.907 997.498 527.493 997.357 Q528.078 997.193 528.828 996.772 Q529.601 996.327 530.28 995.671 Q530.983 994.992 531.662 993.844 Q532.341 992.696 532.786 991.221 Q532.927 990.705 533.395 990.705 Q533.981 990.705 533.981 991.174 Q533.981 991.572 533.653 992.415 Q533.348 993.235 532.669 994.312 Q532.013 995.367 531.146 996.327 Q530.28 997.264 528.992 997.92 Q527.703 998.575 526.298 998.575 Q524.284 998.575 522.949 997.498 Q521.614 996.421 521.122 994.921 Q521.005 995.132 520.841 995.413 Q520.677 995.694 520.185 996.327 Q519.716 996.936 519.178 997.404 Q518.639 997.849 517.796 998.201 Q516.976 998.575 516.086 998.575 Q514.962 998.575 513.954 998.247 Q512.971 997.92 512.268 997.17 Q511.565 996.421 511.565 995.39 Q511.565 994.242 512.338 993.446 Q513.135 992.626 514.212 992.626 Q514.891 992.626 515.43 993.024 Q515.992 993.422 515.992 994.289 Q515.992 995.249 515.336 995.975 Q514.68 996.702 513.744 996.889 Q514.704 997.498 516.133 997.498 Q517.679 997.498 518.897 996.139 Q520.115 994.781 520.7 992.509 Q522.152 987.052 522.714 984.616 Q523.277 982.156 523.277 981.102 Q523.277 980.118 523.019 979.439 Q522.761 978.76 522.316 978.456 Q521.895 978.128 521.496 978.01 Q521.122 977.893 520.7 977.893 Q519.997 977.893 519.201 978.174 Q518.428 978.456 517.491 979.111 Q516.578 979.744 515.711 981.055 Q514.844 982.367 514.259 984.171 Q514.142 984.709 513.626 984.709 Q513.064 984.686 513.064 984.217 Q513.064 983.819 513.369 982.999 Q513.697 982.156 514.353 981.102 Q515.032 980.048 515.898 979.111 Q516.789 978.151 518.077 977.495 Q519.388 976.839 520.794 976.839 Q521.426 976.839 522.035 976.98 Q522.668 977.097 523.417 977.448 Q524.19 977.8 524.869 978.573 Q525.549 979.346 525.97 980.47 Q526.251 979.931 526.626 979.416 Q527.024 978.901 527.633 978.268 Q528.266 977.612 529.132 977.238 Q530.022 976.839 531.006 976.839 Q531.966 976.839 532.903 977.097 Q533.84 977.331 534.636 978.104 Q535.456 978.854 535.456 980.001 Z" fill="#000000" fill-rule="nonzero" fill-opacity="1" /><path clip-path="url(#clip170)" d="M540.342 1011.86 Q540.342 1011.25 540.391 1011.07 Q540.456 1010.89 540.719 1010.61 L547.162 1003.43 Q550.687 999.462 550.687 996.002 Q550.687 993.756 549.507 992.149 Q548.343 990.543 546.195 990.543 Q544.719 990.543 543.473 991.444 Q542.227 992.346 541.653 993.953 Q541.752 993.92 542.096 993.92 Q542.932 993.92 543.391 994.445 Q543.867 994.969 543.867 995.674 Q543.867 996.576 543.276 997.019 Q542.703 997.445 542.129 997.445 Q541.899 997.445 541.588 997.396 Q541.293 997.347 540.817 996.888 Q540.342 996.412 540.342 995.576 Q540.342 993.231 542.112 991.362 Q543.899 989.493 546.621 989.493 Q549.704 989.493 551.72 991.33 Q553.753 993.149 553.753 996.002 Q553.753 997.002 553.442 997.921 Q553.147 998.822 552.737 999.527 Q552.343 1000.23 551.261 1001.36 Q550.179 1002.5 549.31 1003.3 Q548.441 1004.1 546.49 1005.81 L542.932 1009.27 L548.982 1009.27 Q551.933 1009.27 552.163 1009 Q552.491 1008.53 552.901 1006.02 L553.753 1006.02 L552.802 1011.86 L540.342 1011.86 Z" fill="#000000" fill-rule="nonzero" fill-opacity="1" /><path clip-path="url(#clip170)" d="M558.74 1008.93 L562.768 1008.93 L562.768 963.161 L558.74 963.161 L558.74 962.06 L565.977 962.06 L565.977 1010.03 L558.74 1010.03 L558.74 1008.93 Z" fill="#000000" fill-rule="nonzero" fill-opacity="1" /></svg>
