<?xml version="1.0" encoding="utf-8"?>
<svg xmlns="http://www.w3.org/2000/svg" xmlns:xlink="http://www.w3.org/1999/xlink" width="400" height="300" viewBox="0 0 1600 1200">
<defs>
  <clipPath id="clip310">
    <rect x="0" y="0" width="1600" height="1200"/>
  </clipPath>
</defs>
<path clip-path="url(#clip310)" d="M0 1200 L1600 1200 L1600 0 L0 0  Z" fill="#ffffff" fill-rule="evenodd" fill-opacity="1"/>
<defs>
  <clipPath id="clip311">
    <rect x="320" y="0" width="1121" height="1121"/>
  </clipPath>
</defs>
<defs>
  <clipPath id="clip312">
    <rect x="217" y="47" width="1336" height="971"/>
  </clipPath>
</defs>
<path clip-path="url(#clip310)" d="M208.686 1086.13 L1552.76 1086.13 L1552.76 47.2441 L208.686 47.2441  Z" fill="#ffffff" fill-rule="evenodd" fill-opacity="1"/>
<defs>
  <clipPath id="clip313">
    <rect x="208" y="47" width="1345" height="1040"/>
  </clipPath>
</defs>
<polyline clip-path="url(#clip313)" style="stroke:#000000; stroke-linecap:round; stroke-linejoin:round; stroke-width:2; stroke-opacity:0.1; fill:none" points="246.726,1086.13 246.726,47.2441 "/>
<polyline clip-path="url(#clip313)" style="stroke:#000000; stroke-linecap:round; stroke-linejoin:round; stroke-width:2; stroke-opacity:0.1; fill:none" points="563.723,1086.13 563.723,47.2441 "/>
<polyline clip-path="url(#clip313)" style="stroke:#000000; stroke-linecap:round; stroke-linejoin:round; stroke-width:2; stroke-opacity:0.1; fill:none" points="880.721,1086.13 880.721,47.2441 "/>
<polyline clip-path="url(#clip313)" style="stroke:#000000; stroke-linecap:round; stroke-linejoin:round; stroke-width:2; stroke-opacity:0.1; fill:none" points="1197.72,1086.13 1197.72,47.2441 "/>
<polyline clip-path="url(#clip313)" style="stroke:#000000; stroke-linecap:round; stroke-linejoin:round; stroke-width:2; stroke-opacity:0.1; fill:none" points="1514.72,1086.13 1514.72,47.2441 "/>
<polyline clip-path="url(#clip310)" style="stroke:#000000; stroke-linecap:round; stroke-linejoin:round; stroke-width:4; stroke-opacity:1; fill:none" points="208.686,1086.13 1552.76,1086.13 "/>
<polyline clip-path="url(#clip310)" style="stroke:#000000; stroke-linecap:round; stroke-linejoin:round; stroke-width:4; stroke-opacity:1; fill:none" points="246.726,1086.13 246.726,1067.23 "/>
<polyline clip-path="url(#clip310)" style="stroke:#000000; stroke-linecap:round; stroke-linejoin:round; stroke-width:4; stroke-opacity:1; fill:none" points="563.723,1086.13 563.723,1067.23 "/>
<polyline clip-path="url(#clip310)" style="stroke:#000000; stroke-linecap:round; stroke-linejoin:round; stroke-width:4; stroke-opacity:1; fill:none" points="880.721,1086.13 880.721,1067.23 "/>
<polyline clip-path="url(#clip310)" style="stroke:#000000; stroke-linecap:round; stroke-linejoin:round; stroke-width:4; stroke-opacity:1; fill:none" points="1197.72,1086.13 1197.72,1067.23 "/>
<polyline clip-path="url(#clip310)" style="stroke:#000000; stroke-linecap:round; stroke-linejoin:round; stroke-width:4; stroke-opacity:1; fill:none" points="1514.72,1086.13 1514.72,1067.23 "/>
<path clip-path="url(#clip310)" d="M216.668 1125.3 L246.344 1125.3 L246.344 1129.23 L216.668 1129.23 L216.668 1125.3 Z" fill="#000000" fill-rule="nonzero" fill-opacity="1" /><path clip-path="url(#clip310)" d="M260.464 1138.19 L276.783 1138.19 L276.783 1142.13 L254.839 1142.13 L254.839 1138.19 Q257.501 1135.44 262.084 1130.81 Q266.691 1126.16 267.871 1124.81 Q270.117 1122.29 270.996 1120.55 Q271.899 1118.79 271.899 1117.1 Q271.899 1114.35 269.955 1112.61 Q268.033 1110.88 264.932 1110.88 Q262.733 1110.88 260.279 1111.64 Q257.848 1112.41 255.071 1113.96 L255.071 1109.23 Q257.895 1108.1 260.348 1107.52 Q262.802 1106.94 264.839 1106.94 Q270.209 1106.94 273.404 1109.63 Q276.598 1112.31 276.598 1116.8 Q276.598 1118.93 275.788 1120.85 Q275.001 1122.75 272.895 1125.35 Q272.316 1126.02 269.214 1129.23 Q266.112 1132.43 260.464 1138.19 Z" fill="#000000" fill-rule="nonzero" fill-opacity="1" /><path clip-path="url(#clip310)" d="M533.48 1125.3 L563.156 1125.3 L563.156 1129.23 L533.48 1129.23 L533.48 1125.3 Z" fill="#000000" fill-rule="nonzero" fill-opacity="1" /><path clip-path="url(#clip310)" d="M574.059 1138.19 L581.698 1138.19 L581.698 1111.83 L573.388 1113.49 L573.388 1109.23 L581.651 1107.57 L586.327 1107.57 L586.327 1138.19 L593.966 1138.19 L593.966 1142.13 L574.059 1142.13 L574.059 1138.19 Z" fill="#000000" fill-rule="nonzero" fill-opacity="1" /><path clip-path="url(#clip310)" d="M880.721 1110.65 Q877.11 1110.65 875.281 1114.21 Q873.476 1117.75 873.476 1124.88 Q873.476 1131.99 875.281 1135.55 Q877.11 1139.1 880.721 1139.1 Q884.355 1139.1 886.161 1135.55 Q887.989 1131.99 887.989 1124.88 Q887.989 1117.75 886.161 1114.21 Q884.355 1110.65 880.721 1110.65 M880.721 1106.94 Q886.531 1106.94 889.587 1111.55 Q892.665 1116.13 892.665 1124.88 Q892.665 1133.61 889.587 1138.22 Q886.531 1142.8 880.721 1142.8 Q874.911 1142.8 871.832 1138.22 Q868.777 1133.61 868.777 1124.88 Q868.777 1116.13 871.832 1111.55 Q874.911 1106.94 880.721 1106.94 Z" fill="#000000" fill-rule="nonzero" fill-opacity="1" /><path clip-path="url(#clip310)" d="M1188.1 1138.19 L1195.74 1138.19 L1195.74 1111.83 L1187.43 1113.49 L1187.43 1109.23 L1195.69 1107.57 L1200.37 1107.57 L1200.37 1138.19 L1208.01 1138.19 L1208.01 1142.13 L1188.1 1142.13 L1188.1 1138.19 Z" fill="#000000" fill-rule="nonzero" fill-opacity="1" /><path clip-path="url(#clip310)" d="M1509.37 1138.19 L1525.69 1138.19 L1525.69 1142.13 L1503.74 1142.13 L1503.74 1138.19 Q1506.41 1135.44 1510.99 1130.81 Q1515.6 1126.16 1516.78 1124.81 Q1519.02 1122.29 1519.9 1120.55 Q1520.8 1118.79 1520.8 1117.1 Q1520.8 1114.35 1518.86 1112.61 Q1516.94 1110.88 1513.84 1110.88 Q1511.64 1110.88 1509.18 1111.64 Q1506.75 1112.41 1503.98 1113.96 L1503.98 1109.23 Q1506.8 1108.1 1509.25 1107.52 Q1511.71 1106.94 1513.74 1106.94 Q1519.11 1106.94 1522.31 1109.63 Q1525.5 1112.31 1525.5 1116.8 Q1525.5 1118.93 1524.69 1120.85 Q1523.91 1122.75 1521.8 1125.35 Q1521.22 1126.02 1518.12 1129.23 Q1515.02 1132.43 1509.37 1138.19 Z" fill="#000000" fill-rule="nonzero" fill-opacity="1" /><polyline clip-path="url(#clip313)" style="stroke:#000000; stroke-linecap:round; stroke-linejoin:round; stroke-width:2; stroke-opacity:0.1; fill:none" points="208.686,955.593 1552.76,955.593 "/>
<polyline clip-path="url(#clip313)" style="stroke:#000000; stroke-linecap:round; stroke-linejoin:round; stroke-width:2; stroke-opacity:0.1; fill:none" points="208.686,816.957 1552.76,816.957 "/>
<polyline clip-path="url(#clip313)" style="stroke:#000000; stroke-linecap:round; stroke-linejoin:round; stroke-width:2; stroke-opacity:0.1; fill:none" points="208.686,678.321 1552.76,678.321 "/>
<polyline clip-path="url(#clip313)" style="stroke:#000000; stroke-linecap:round; stroke-linejoin:round; stroke-width:2; stroke-opacity:0.1; fill:none" points="208.686,539.685 1552.76,539.685 "/>
<polyline clip-path="url(#clip313)" style="stroke:#000000; stroke-linecap:round; stroke-linejoin:round; stroke-width:2; stroke-opacity:0.1; fill:none" points="208.686,401.049 1552.76,401.049 "/>
<polyline clip-path="url(#clip313)" style="stroke:#000000; stroke-linecap:round; stroke-linejoin:round; stroke-width:2; stroke-opacity:0.1; fill:none" points="208.686,262.413 1552.76,262.413 "/>
<polyline clip-path="url(#clip313)" style="stroke:#000000; stroke-linecap:round; stroke-linejoin:round; stroke-width:2; stroke-opacity:0.1; fill:none" points="208.686,123.778 1552.76,123.778 "/>
<polyline clip-path="url(#clip310)" style="stroke:#000000; stroke-linecap:round; stroke-linejoin:round; stroke-width:4; stroke-opacity:1; fill:none" points="208.686,1086.13 208.686,47.2441 "/>
<polyline clip-path="url(#clip310)" style="stroke:#000000; stroke-linecap:round; stroke-linejoin:round; stroke-width:4; stroke-opacity:1; fill:none" points="208.686,955.593 227.584,955.593 "/>
<polyline clip-path="url(#clip310)" style="stroke:#000000; stroke-linecap:round; stroke-linejoin:round; stroke-width:4; stroke-opacity:1; fill:none" points="208.686,816.957 227.584,816.957 "/>
<polyline clip-path="url(#clip310)" style="stroke:#000000; stroke-linecap:round; stroke-linejoin:round; stroke-width:4; stroke-opacity:1; fill:none" points="208.686,678.321 227.584,678.321 "/>
<polyline clip-path="url(#clip310)" style="stroke:#000000; stroke-linecap:round; stroke-linejoin:round; stroke-width:4; stroke-opacity:1; fill:none" points="208.686,539.685 227.584,539.685 "/>
<polyline clip-path="url(#clip310)" style="stroke:#000000; stroke-linecap:round; stroke-linejoin:round; stroke-width:4; stroke-opacity:1; fill:none" points="208.686,401.049 227.584,401.049 "/>
<polyline clip-path="url(#clip310)" style="stroke:#000000; stroke-linecap:round; stroke-linejoin:round; stroke-width:4; stroke-opacity:1; fill:none" points="208.686,262.413 227.584,262.413 "/>
<polyline clip-path="url(#clip310)" style="stroke:#000000; stroke-linecap:round; stroke-linejoin:round; stroke-width:4; stroke-opacity:1; fill:none" points="208.686,123.778 227.584,123.778 "/>
<path clip-path="url(#clip310)" d="M124.571 956.044 L154.246 956.044 L154.246 959.98 L124.571 959.98 L124.571 956.044 Z" fill="#000000" fill-rule="nonzero" fill-opacity="1" /><path clip-path="url(#clip310)" d="M168.367 968.938 L184.686 968.938 L184.686 972.873 L162.742 972.873 L162.742 968.938 Q165.404 966.183 169.987 961.554 Q174.593 956.901 175.774 955.558 Q178.019 953.035 178.899 951.299 Q179.802 949.54 179.802 947.85 Q179.802 945.095 177.857 943.359 Q175.936 941.623 172.834 941.623 Q170.635 941.623 168.181 942.387 Q165.751 943.151 162.973 944.702 L162.973 939.98 Q165.797 938.845 168.251 938.267 Q170.705 937.688 172.742 937.688 Q178.112 937.688 181.306 940.373 Q184.501 943.058 184.501 947.549 Q184.501 949.679 183.691 951.6 Q182.904 953.498 180.797 956.091 Q180.218 956.762 177.117 959.98 Q174.015 963.174 168.367 968.938 Z" fill="#000000" fill-rule="nonzero" fill-opacity="1" /><path clip-path="url(#clip310)" d="M124.2 817.408 L153.876 817.408 L153.876 821.344 L124.2 821.344 L124.2 817.408 Z" fill="#000000" fill-rule="nonzero" fill-opacity="1" /><path clip-path="url(#clip310)" d="M164.779 830.302 L172.417 830.302 L172.417 803.936 L164.107 805.603 L164.107 801.344 L172.371 799.677 L177.047 799.677 L177.047 830.302 L184.686 830.302 L184.686 834.237 L164.779 834.237 L164.779 830.302 Z" fill="#000000" fill-rule="nonzero" fill-opacity="1" /><path clip-path="url(#clip310)" d="M172.742 664.12 Q169.13 664.12 167.302 667.685 Q165.496 671.226 165.496 678.356 Q165.496 685.462 167.302 689.027 Q169.13 692.569 172.742 692.569 Q176.376 692.569 178.181 689.027 Q180.01 685.462 180.01 678.356 Q180.01 671.226 178.181 667.685 Q176.376 664.12 172.742 664.12 M172.742 660.416 Q178.552 660.416 181.607 665.023 Q184.686 669.606 184.686 678.356 Q184.686 687.083 181.607 691.689 Q178.552 696.272 172.742 696.272 Q166.931 696.272 163.853 691.689 Q160.797 687.083 160.797 678.356 Q160.797 669.606 163.853 665.023 Q166.931 660.416 172.742 660.416 Z" fill="#000000" fill-rule="nonzero" fill-opacity="1" /><path clip-path="url(#clip310)" d="M164.779 553.03 L172.417 553.03 L172.417 526.664 L164.107 528.331 L164.107 524.072 L172.371 522.405 L177.047 522.405 L177.047 553.03 L184.686 553.03 L184.686 556.965 L164.779 556.965 L164.779 553.03 Z" fill="#000000" fill-rule="nonzero" fill-opacity="1" /><path clip-path="url(#clip310)" d="M168.367 414.394 L184.686 414.394 L184.686 418.329 L162.742 418.329 L162.742 414.394 Q165.404 411.64 169.987 407.01 Q174.593 402.357 175.774 401.015 Q178.019 398.491 178.899 396.755 Q179.802 394.996 179.802 393.306 Q179.802 390.552 177.857 388.816 Q175.936 387.08 172.834 387.08 Q170.635 387.08 168.181 387.843 Q165.751 388.607 162.973 390.158 L162.973 385.436 Q165.797 384.302 168.251 383.723 Q170.705 383.144 172.742 383.144 Q178.112 383.144 181.306 385.83 Q184.501 388.515 184.501 393.005 Q184.501 395.135 183.691 397.056 Q182.904 398.954 180.797 401.547 Q180.218 402.218 177.117 405.436 Q174.015 408.63 168.367 414.394 Z" fill="#000000" fill-rule="nonzero" fill-opacity="1" /><path clip-path="url(#clip310)" d="M177.556 261.059 Q180.913 261.777 182.788 264.045 Q184.686 266.314 184.686 269.647 Q184.686 274.763 181.167 277.564 Q177.649 280.365 171.167 280.365 Q168.992 280.365 166.677 279.925 Q164.385 279.508 161.931 278.652 L161.931 274.138 Q163.876 275.272 166.191 275.851 Q168.505 276.43 171.029 276.43 Q175.427 276.43 177.718 274.693 Q180.033 272.957 180.033 269.647 Q180.033 266.592 177.88 264.879 Q175.751 263.143 171.931 263.143 L167.904 263.143 L167.904 259.3 L172.117 259.3 Q175.566 259.3 177.394 257.934 Q179.223 256.545 179.223 253.953 Q179.223 251.291 177.325 249.879 Q175.45 248.444 171.931 248.444 Q170.01 248.444 167.811 248.86 Q165.612 249.277 162.973 250.157 L162.973 245.99 Q165.635 245.249 167.95 244.879 Q170.288 244.508 172.348 244.508 Q177.672 244.508 180.774 246.939 Q183.876 249.346 183.876 253.467 Q183.876 256.337 182.232 258.328 Q180.589 260.295 177.556 261.059 Z" fill="#000000" fill-rule="nonzero" fill-opacity="1" /><path clip-path="url(#clip310)" d="M175.103 110.572 L163.297 129.021 L175.103 129.021 L175.103 110.572 M173.876 106.498 L179.755 106.498 L179.755 129.021 L184.686 129.021 L184.686 132.909 L179.755 132.909 L179.755 141.058 L175.103 141.058 L175.103 132.909 L159.501 132.909 L159.501 128.396 L173.876 106.498 Z" fill="#000000" fill-rule="nonzero" fill-opacity="1" /><path clip-path="url(#clip310)" d="M52.7883 552.247 Q53.2392 552.247 54.302 552.537 L79.4869 558.849 Q85.0908 560.234 89.0199 564.743 Q92.949 569.22 92.949 574.308 Q92.949 577.368 91.3065 579.332 Q89.6962 581.297 87.2164 581.297 Q85.0264 581.297 83.9636 580.138 Q82.933 578.978 82.933 577.593 Q82.933 577.142 83.0618 576.659 Q83.1906 576.176 83.7381 575.661 Q84.2856 575.146 85.2196 575.146 Q86.7333 575.146 87.9249 576.466 Q88.4724 577.11 88.6012 577.722 Q88.73 578.302 88.73 579.3 Q89.6318 578.914 90.2437 578.205 Q90.8556 577.497 91.0811 576.692 Q91.3387 575.886 91.4031 575.371 Q91.4997 574.824 91.4997 574.308 Q91.4997 570.186 87.3452 567.03 Q86.0891 566.096 84.8331 565.419 Q83.6093 564.711 82.0956 564.196 Q80.6141 563.68 79.809 563.455 Q79.0039 563.197 77.1681 562.746 Q80.1633 565.742 80.1633 569.413 Q80.1633 570.959 79.7446 572.344 Q79.3259 573.696 78.4564 574.888 Q77.5546 576.08 75.9765 576.788 Q74.3984 577.464 72.305 577.464 Q70.0828 577.464 67.0555 576.595 Q64.0281 575.725 58.4565 573.632 Q55.3325 572.505 53.8189 572.505 Q53.0781 572.505 52.6273 572.666 Q52.1442 572.827 51.9831 573.149 Q51.7899 573.471 51.7577 573.664 Q51.7255 573.825 51.7255 574.147 Q51.7255 576.047 53.6578 577.819 Q55.5902 579.59 59.9058 580.814 Q60.7109 581.072 60.9042 581.233 Q61.0974 581.394 61.0974 581.877 Q61.0652 582.682 60.4211 582.682 Q60.1634 582.682 59.165 582.392 Q58.1345 582.102 56.6208 581.426 Q55.0749 580.717 53.69 579.751 Q52.273 578.785 51.2746 577.271 Q50.2762 575.725 50.2762 573.954 Q50.2762 571.539 51.8543 570.057 Q53.4002 568.543 55.6868 568.543 Q56.6208 568.543 57.4581 568.801 Q58.2633 569.027 60.4211 569.864 Q69.1167 573.245 73.3678 573.245 Q74.3984 573.245 75.268 573.084 Q76.1053 572.891 76.9427 572.473 Q77.7478 572.054 78.2309 571.217 Q78.6818 570.347 78.6818 569.155 Q78.6818 567.642 77.9733 566.225 Q77.2325 564.775 76.2342 563.874 Q75.2358 562.94 74.3984 562.392 Q73.5289 561.812 73.078 561.684 L61.2262 558.721 L55.9445 557.4 Q53.0781 556.788 52.3696 556.498 Q51.6933 556.112 51.339 555.436 Q50.9848 554.759 50.9848 554.18 Q50.9848 553.374 51.4678 552.827 Q51.9509 552.247 52.7883 552.247 Z" fill="#000000" fill-rule="nonzero" fill-opacity="1" /><polyline clip-path="url(#clip313)" style="stroke:#009af9; stroke-linecap:round; stroke-linejoin:round; stroke-width:4; stroke-opacity:1; fill:none" points="246.726,76.6465 310.125,206.29 373.525,320.734 436.924,396.733 500.324,459.477 563.723,514.37 627.123,561.415 690.522,600.61 753.922,631.956 817.321,655.452 880.721,671.099 944.12,681.935 1007.52,679.698 1070.92,654.603 1134.32,606.649 1197.72,535.837 1261.12,474.226 1324.52,401.72 1387.92,318.297 1451.32,223.957 1514.72,118.7 "/>
<polyline clip-path="url(#clip313)" style="stroke:#e26f46; stroke-linecap:round; stroke-linejoin:round; stroke-width:4; stroke-opacity:1; fill:none" points="246.726,407.653 310.125,433.32 373.525,458.986 436.924,484.653 500.324,510.319 563.723,535.986 627.123,561.652 690.522,587.319 753.922,612.985 817.321,638.652 880.721,671.099 944.12,709.662 1007.52,748.224 1070.92,786.787 1134.32,825.35 1197.72,863.912 1261.12,902.475 1324.52,941.038 1387.92,979.6 1451.32,1018.16 1514.72,1056.73 "/>
<path clip-path="url(#clip310)" d="M253.488 1051.5 L700.032 1051.5 L700.032 895.978 L253.488 895.978  Z" fill="#ffffff" fill-rule="evenodd" fill-opacity="1"/>
<polyline clip-path="url(#clip310)" style="stroke:#000000; stroke-linecap:round; stroke-linejoin:round; stroke-width:4; stroke-opacity:1; fill:none" points="253.488,1051.5 700.032,1051.5 700.032,895.978 253.488,895.978 253.488,1051.5 "/>
<polyline clip-path="url(#clip310)" style="stroke:#009af9; stroke-linecap:round; stroke-linejoin:round; stroke-width:4; stroke-opacity:1; fill:none" points="268.422,947.818 358.027,947.818 "/>
<path clip-path="url(#clip310)" d="M407.743 927.409 L406.783 935.701 Q406.713 936.45 406.596 936.684 Q406.479 936.895 406.104 936.895 Q405.823 936.895 405.659 936.731 Q405.518 936.544 405.518 936.333 Q405.518 936.216 405.542 935.911 Q405.565 935.607 405.565 935.466 Q405.776 934.014 405.776 932.913 Q405.776 930.876 405.167 929.775 Q404.558 928.65 402.989 928.135 Q401.419 927.596 398.468 927.596 L391.723 927.596 Q390.177 927.596 389.802 927.878 Q389.451 928.159 389.123 929.47 L386.242 941.018 L390.762 941.018 Q392.449 941.018 393.456 940.807 Q394.486 940.596 395.166 940.01 Q395.868 939.401 396.243 938.582 Q396.641 937.762 397.039 936.286 Q397.157 935.794 397.274 935.607 Q397.414 935.42 397.719 935.42 Q397.953 935.42 398.117 935.583 Q398.281 935.724 398.281 935.935 L395.54 947.154 Q395.4 947.716 395.259 947.927 Q395.119 948.115 394.838 948.115 Q394.533 948.115 394.369 947.951 Q394.205 947.787 394.205 947.599 Q394.205 947.412 394.346 947.06 Q394.697 945.538 394.697 944.718 Q394.697 944.25 394.65 944.016 Q394.627 943.781 394.416 943.453 Q394.229 943.102 393.807 942.938 Q393.386 942.774 392.589 942.657 Q391.793 942.517 390.598 942.517 L385.867 942.517 L382.588 955.61 Q382.354 956.476 382.354 956.711 Q382.354 956.968 382.471 957.062 Q382.611 957.132 382.986 957.179 Q383.408 957.249 384.04 957.249 L391.043 957.249 Q392.589 957.249 393.831 957.109 Q395.072 956.968 396.103 956.617 Q397.157 956.266 397.953 955.867 Q398.749 955.469 399.499 954.743 Q400.248 953.994 400.764 953.338 Q401.302 952.658 401.935 951.511 Q402.567 950.363 403.012 949.426 Q403.457 948.466 404.136 946.92 Q404.324 946.358 404.769 946.358 Q405.026 946.358 405.167 946.498 Q405.308 946.615 405.331 946.733 L405.331 946.873 Q405.19 947.318 405.097 947.552 L400.693 957.905 Q400.436 958.491 400.225 958.608 Q400.014 958.725 399.194 958.725 L374.296 958.725 Q373.734 958.725 373.5 958.701 Q373.289 958.678 373.125 958.561 Q372.961 958.42 372.961 958.139 Q372.961 957.694 373.149 957.507 Q373.336 957.296 373.547 957.273 Q373.758 957.249 374.296 957.249 Q375.467 957.249 376.17 957.179 Q376.873 957.109 377.318 957.015 Q377.786 956.898 378.02 956.57 Q378.278 956.242 378.395 955.961 Q378.512 955.657 378.676 954.977 L385 929.611 Q385.235 928.744 385.235 928.463 Q385.235 928.159 385.024 927.971 Q384.836 927.784 384.321 927.714 Q383.806 927.62 383.384 927.62 Q382.986 927.596 382.119 927.596 Q381.557 927.596 381.323 927.573 Q381.112 927.55 380.948 927.432 Q380.784 927.315 380.784 927.058 Q380.784 926.402 381.065 926.261 Q381.37 926.097 382.213 926.097 L406.432 926.097 Q407.392 926.097 407.603 926.308 Q407.837 926.496 407.743 927.409 Z" fill="#000000" fill-rule="nonzero" fill-opacity="1" /><path clip-path="url(#clip310)" d="M414.35 970.717 L414.35 922.748 L421.588 922.748 L421.588 923.849 L417.559 923.849 L417.559 969.616 L421.588 969.616 L421.588 970.717 L414.35 970.717 Z" fill="#000000" fill-rule="nonzero" fill-opacity="1" /><path clip-path="url(#clip310)" d="M444.884 939.355 Q444.884 939.682 444.673 940.455 L440.083 958.772 Q439.075 962.847 435.796 965.705 Q432.541 968.562 428.84 968.562 Q426.615 968.562 425.186 967.368 Q423.757 966.197 423.757 964.393 Q423.757 962.8 424.6 962.027 Q425.444 961.278 426.451 961.278 Q426.779 961.278 427.13 961.372 Q427.481 961.465 427.856 961.863 Q428.231 962.262 428.231 962.941 Q428.231 964.042 427.27 964.908 Q426.802 965.307 426.357 965.4 Q425.935 965.494 425.209 965.494 Q425.49 966.15 426.006 966.595 Q426.521 967.04 427.106 967.204 Q427.692 967.391 428.067 967.438 Q428.465 967.508 428.84 967.508 Q431.838 967.508 434.133 964.487 Q434.812 963.573 435.304 962.66 Q435.82 961.77 436.194 960.669 Q436.569 959.592 436.733 959.006 Q436.92 958.42 437.248 957.085 Q435.07 959.264 432.4 959.264 Q431.276 959.264 430.269 958.959 Q429.285 958.655 428.418 958.022 Q427.552 957.366 427.036 956.219 Q426.544 955.071 426.544 953.549 Q426.544 951.932 427.177 949.731 Q427.809 947.529 429.332 943.477 Q430.151 941.205 430.151 940.104 Q430.151 939.565 430.034 939.237 Q429.917 938.886 429.683 938.769 Q429.449 938.628 429.308 938.605 Q429.191 938.582 428.957 938.582 Q427.575 938.582 426.287 939.987 Q424.998 941.392 424.108 944.531 Q423.921 945.116 423.804 945.257 Q423.687 945.398 423.335 945.398 Q422.75 945.374 422.75 944.906 Q422.75 944.718 422.961 943.992 Q423.172 943.243 423.663 942.142 Q424.179 941.018 424.881 940.01 Q425.584 938.98 426.685 938.254 Q427.809 937.528 429.097 937.528 Q430.854 937.528 431.932 938.675 Q433.032 939.8 433.032 941.463 Q433.032 942.142 432.845 942.751 Q432.681 943.336 432.072 944.906 Q429.613 951.23 429.613 954.321 Q429.613 955.071 429.73 955.703 Q429.87 956.312 430.175 956.921 Q430.479 957.507 431.088 957.858 Q431.721 958.186 432.587 958.186 Q433.688 958.186 434.719 957.671 Q435.773 957.132 436.429 956.406 Q437.108 955.68 437.506 955.071 Q437.928 954.439 438.021 954.111 L440.176 945.491 L441.137 941.65 Q441.582 939.565 441.792 939.05 Q442.073 938.558 442.565 938.301 Q443.057 938.043 443.479 938.043 Q444.064 938.043 444.463 938.394 Q444.884 938.746 444.884 939.355 Z" fill="#000000" fill-rule="nonzero" fill-opacity="1" /><path clip-path="url(#clip310)" d="M451.97 969.242 L451.97 924.575 Q451.97 922.795 452.93 922.795 Q453.891 922.795 453.891 924.224 L453.891 968.89 Q453.891 970.67 452.93 970.67 Q451.97 970.67 451.97 969.242 Z" fill="#000000" fill-rule="nonzero" fill-opacity="1" /><path clip-path="url(#clip310)" d="M495.661 940.69 Q495.661 942.001 494.841 942.751 Q494.021 943.477 493.084 943.477 Q492.194 943.477 491.726 942.962 Q491.257 942.446 491.257 941.79 Q491.257 940.9 491.913 940.127 Q492.569 939.355 493.553 939.191 Q492.592 938.582 491.164 938.582 Q490.227 938.582 489.407 939.073 Q488.611 939.565 488.119 940.198 Q487.65 940.83 487.229 941.744 Q486.83 942.634 486.666 943.172 Q486.526 943.688 486.409 944.25 L484.769 950.808 Q483.973 953.923 483.973 955.024 Q483.973 956.383 484.629 957.296 Q485.285 958.186 486.596 958.186 Q487.112 958.186 487.697 958.046 Q488.283 957.882 489.032 957.46 Q489.805 957.015 490.484 956.359 Q491.187 955.68 491.866 954.532 Q492.546 953.385 492.991 951.909 Q493.131 951.394 493.6 951.394 Q494.185 951.394 494.185 951.862 Q494.185 952.26 493.857 953.103 Q493.553 953.923 492.873 955.001 Q492.218 956.055 491.351 957.015 Q490.484 957.952 489.196 958.608 Q487.908 959.264 486.503 959.264 Q484.488 959.264 483.153 958.186 Q481.818 957.109 481.326 955.61 Q481.209 955.82 481.045 956.102 Q480.881 956.383 480.389 957.015 Q479.921 957.624 479.382 958.092 Q478.843 958.537 478 958.889 Q477.18 959.264 476.29 959.264 Q475.166 959.264 474.159 958.936 Q473.175 958.608 472.472 957.858 Q471.77 957.109 471.77 956.078 Q471.77 954.93 472.543 954.134 Q473.339 953.314 474.417 953.314 Q475.096 953.314 475.635 953.712 Q476.197 954.111 476.197 954.977 Q476.197 955.938 475.541 956.664 Q474.885 957.39 473.948 957.577 Q474.908 958.186 476.337 958.186 Q477.883 958.186 479.101 956.828 Q480.319 955.469 480.905 953.197 Q482.357 947.74 482.919 945.304 Q483.481 942.844 483.481 941.79 Q483.481 940.807 483.223 940.127 Q482.966 939.448 482.521 939.144 Q482.099 938.816 481.701 938.699 Q481.326 938.582 480.905 938.582 Q480.202 938.582 479.406 938.863 Q478.633 939.144 477.696 939.8 Q476.782 940.432 475.916 941.744 Q475.049 943.055 474.463 944.859 Q474.346 945.398 473.831 945.398 Q473.269 945.374 473.269 944.906 Q473.269 944.507 473.573 943.688 Q473.901 942.844 474.557 941.79 Q475.236 940.736 476.103 939.8 Q476.993 938.839 478.281 938.183 Q479.593 937.528 480.998 937.528 Q481.631 937.528 482.24 937.668 Q482.872 937.785 483.622 938.137 Q484.395 938.488 485.074 939.261 Q485.753 940.034 486.175 941.158 Q486.456 940.619 486.83 940.104 Q487.229 939.589 487.838 938.956 Q488.47 938.301 489.337 937.926 Q490.227 937.528 491.21 937.528 Q492.171 937.528 493.108 937.785 Q494.045 938.019 494.841 938.792 Q495.661 939.542 495.661 940.69 Z" fill="#000000" fill-rule="nonzero" fill-opacity="1" /><path clip-path="url(#clip310)" d="M500.546 953.381 L500.546 952.331 Q504.579 952.331 506.662 950.184 Q507.236 950.184 507.334 950.315 Q507.432 950.446 507.432 951.053 L507.432 969.891 Q507.432 970.891 507.924 971.203 Q508.416 971.514 510.564 971.514 L511.63 971.514 L511.63 972.547 Q510.449 972.449 506.186 972.449 Q501.923 972.449 500.759 972.547 L500.759 971.514 L501.825 971.514 Q503.94 971.514 504.448 971.219 Q504.957 970.908 504.957 969.891 L504.957 952.495 Q503.202 953.381 500.546 953.381 Z" fill="#000000" fill-rule="nonzero" fill-opacity="1" /><path clip-path="url(#clip310)" d="M517.319 957.952 Q516.64 957.179 516.64 956.172 Q516.64 955.165 517.296 954.415 Q517.975 953.642 519.193 953.642 Q520.622 953.642 521.442 955.024 Q522.261 956.383 522.261 958.678 Q522.261 961.161 521.254 963.456 Q520.247 965.775 519.263 966.876 Q518.28 967.977 517.881 967.977 Q517.413 967.977 517.413 967.461 Q517.413 967.274 517.741 966.923 Q521.184 963.222 521.207 958.678 Q521.207 957.952 521.114 957.952 L520.997 958.046 Q520.177 958.725 519.193 958.725 Q517.999 958.725 517.319 957.952 Z" fill="#000000" fill-rule="nonzero" fill-opacity="1" /><path clip-path="url(#clip310)" d="M561.289 940.69 Q561.289 942.001 560.469 942.751 Q559.649 943.477 558.712 943.477 Q557.822 943.477 557.354 942.962 Q556.885 942.446 556.885 941.79 Q556.885 940.9 557.541 940.127 Q558.197 939.355 559.181 939.191 Q558.221 938.582 556.792 938.582 Q555.855 938.582 555.035 939.073 Q554.239 939.565 553.747 940.198 Q553.278 940.83 552.857 941.744 Q552.459 942.634 552.295 943.172 Q552.154 943.688 552.037 944.25 L550.397 950.808 Q549.601 953.923 549.601 955.024 Q549.601 956.383 550.257 957.296 Q550.913 958.186 552.224 958.186 Q552.74 958.186 553.325 958.046 Q553.911 957.882 554.66 957.46 Q555.433 957.015 556.112 956.359 Q556.815 955.68 557.494 954.532 Q558.174 953.385 558.619 951.909 Q558.759 951.394 559.228 951.394 Q559.813 951.394 559.813 951.862 Q559.813 952.26 559.485 953.103 Q559.181 953.923 558.502 955.001 Q557.846 956.055 556.979 957.015 Q556.112 957.952 554.824 958.608 Q553.536 959.264 552.131 959.264 Q550.116 959.264 548.781 958.186 Q547.446 957.109 546.954 955.61 Q546.837 955.82 546.673 956.102 Q546.509 956.383 546.017 957.015 Q545.549 957.624 545.01 958.092 Q544.472 958.537 543.628 958.889 Q542.809 959.264 541.918 959.264 Q540.794 959.264 539.787 958.936 Q538.803 958.608 538.101 957.858 Q537.398 957.109 537.398 956.078 Q537.398 954.93 538.171 954.134 Q538.967 953.314 540.045 953.314 Q540.724 953.314 541.263 953.712 Q541.825 954.111 541.825 954.977 Q541.825 955.938 541.169 956.664 Q540.513 957.39 539.576 957.577 Q540.537 958.186 541.965 958.186 Q543.511 958.186 544.729 956.828 Q545.947 955.469 546.533 953.197 Q547.985 947.74 548.547 945.304 Q549.109 942.844 549.109 941.79 Q549.109 940.807 548.852 940.127 Q548.594 939.448 548.149 939.144 Q547.727 938.816 547.329 938.699 Q546.954 938.582 546.533 938.582 Q545.83 938.582 545.034 938.863 Q544.261 939.144 543.324 939.8 Q542.41 940.432 541.544 941.744 Q540.677 943.055 540.092 944.859 Q539.974 945.398 539.459 945.398 Q538.897 945.374 538.897 944.906 Q538.897 944.507 539.201 943.688 Q539.529 942.844 540.185 941.79 Q540.864 940.736 541.731 939.8 Q542.621 938.839 543.909 938.183 Q545.221 937.528 546.626 937.528 Q547.259 937.528 547.868 937.668 Q548.5 937.785 549.25 938.137 Q550.023 938.488 550.702 939.261 Q551.381 940.034 551.803 941.158 Q552.084 940.619 552.459 940.104 Q552.857 939.589 553.466 938.956 Q554.098 938.301 554.965 937.926 Q555.855 937.528 556.839 937.528 Q557.799 937.528 558.736 937.785 Q559.673 938.019 560.469 938.792 Q561.289 939.542 561.289 940.69 Z" fill="#000000" fill-rule="nonzero" fill-opacity="1" /><path clip-path="url(#clip310)" d="M566.174 972.547 Q566.174 971.941 566.223 971.76 Q566.289 971.58 566.551 971.301 L572.995 964.12 Q576.52 960.152 576.52 956.693 Q576.52 954.447 575.339 952.84 Q574.175 951.233 572.027 951.233 Q570.552 951.233 569.306 952.135 Q568.06 953.036 567.486 954.643 Q567.584 954.61 567.929 954.61 Q568.765 954.61 569.224 955.135 Q569.699 955.66 569.699 956.365 Q569.699 957.267 569.109 957.709 Q568.535 958.136 567.961 958.136 Q567.732 958.136 567.42 958.086 Q567.125 958.037 566.65 957.578 Q566.174 957.103 566.174 956.266 Q566.174 953.922 567.945 952.053 Q569.732 950.184 572.454 950.184 Q575.536 950.184 577.553 952.02 Q579.586 953.84 579.586 956.693 Q579.586 957.693 579.274 958.611 Q578.979 959.513 578.569 960.218 Q578.176 960.923 577.094 962.054 Q576.012 963.185 575.143 963.989 Q574.274 964.792 572.323 966.497 L568.765 969.957 L574.815 969.957 Q577.766 969.957 577.996 969.695 Q578.323 969.219 578.733 966.71 L579.586 966.71 L578.635 972.547 L566.174 972.547 Z" fill="#000000" fill-rule="nonzero" fill-opacity="1" /><path clip-path="url(#clip310)" d="M597.88 951.44 Q597.927 950.855 598.84 950.855 L628.236 950.855 Q629.617 950.855 629.641 951.394 Q629.641 951.979 628.329 951.956 L599.168 951.956 Q597.88 951.979 597.88 951.44 M597.88 942.072 Q597.88 941.486 598.887 941.509 L628.189 941.509 Q629.617 941.509 629.641 942.072 Q629.641 942.61 628.423 942.61 L598.84 942.61 Q597.88 942.61 597.88 942.072 Z" fill="#000000" fill-rule="nonzero" fill-opacity="1" /><path clip-path="url(#clip310)" d="M648.143 943.383 Q648.143 936.333 649.923 932.492 Q652.406 926.777 658.261 926.777 Q659.503 926.777 660.791 927.128 Q662.103 927.456 663.742 928.744 Q665.405 930.032 666.412 932.14 Q668.333 936.216 668.333 943.383 Q668.333 950.386 666.553 954.204 Q663.953 959.779 658.215 959.779 Q656.06 959.779 653.858 958.678 Q651.68 957.577 650.298 954.93 Q648.143 950.972 648.143 943.383 M652.125 942.798 Q652.125 950.035 652.64 952.916 Q653.226 956.031 654.818 957.39 Q656.434 958.725 658.215 958.725 Q660.135 958.725 661.728 957.296 Q663.344 955.844 663.836 952.729 Q664.375 949.66 664.351 942.798 Q664.351 936.122 663.883 933.452 Q663.25 930.337 661.564 929.095 Q659.901 927.831 658.215 927.831 Q657.582 927.831 656.903 928.018 Q656.247 928.205 655.287 928.744 Q654.326 929.283 653.577 930.618 Q652.851 931.953 652.499 933.967 Q652.125 936.567 652.125 942.798 Z" fill="#000000" fill-rule="nonzero" fill-opacity="1" /><path clip-path="url(#clip310)" d="M671.13 969.616 L675.159 969.616 L675.159 923.849 L671.13 923.849 L671.13 922.748 L678.368 922.748 L678.368 970.717 L671.13 970.717 L671.13 969.616 Z" fill="#000000" fill-rule="nonzero" fill-opacity="1" /><polyline clip-path="url(#clip310)" style="stroke:#e26f46; stroke-linecap:round; stroke-linejoin:round; stroke-width:4; stroke-opacity:1; fill:none" points="268.422,999.658 358.027,999.658 "/>
<path clip-path="url(#clip310)" d="M407.743 979.249 L406.783 987.541 Q406.713 988.29 406.596 988.524 Q406.479 988.735 406.104 988.735 Q405.823 988.735 405.659 988.571 Q405.518 988.384 405.518 988.173 Q405.518 988.056 405.542 987.751 Q405.565 987.447 405.565 987.306 Q405.776 985.854 405.776 984.753 Q405.776 982.716 405.167 981.615 Q404.558 980.49 402.989 979.975 Q401.419 979.436 398.468 979.436 L391.723 979.436 Q390.177 979.436 389.802 979.718 Q389.451 979.999 389.123 981.31 L386.242 992.858 L390.762 992.858 Q392.449 992.858 393.456 992.647 Q394.486 992.436 395.166 991.85 Q395.868 991.241 396.243 990.422 Q396.641 989.602 397.039 988.126 Q397.157 987.634 397.274 987.447 Q397.414 987.26 397.719 987.26 Q397.953 987.26 398.117 987.423 Q398.281 987.564 398.281 987.775 L395.54 998.994 Q395.4 999.556 395.259 999.767 Q395.119 999.955 394.838 999.955 Q394.533 999.955 394.369 999.791 Q394.205 999.627 394.205 999.439 Q394.205 999.252 394.346 998.9 Q394.697 997.378 394.697 996.558 Q394.697 996.09 394.65 995.856 Q394.627 995.621 394.416 995.293 Q394.229 994.942 393.807 994.778 Q393.386 994.614 392.589 994.497 Q391.793 994.357 390.598 994.357 L385.867 994.357 L382.588 1007.45 Q382.354 1008.32 382.354 1008.55 Q382.354 1008.81 382.471 1008.9 Q382.611 1008.97 382.986 1009.02 Q383.408 1009.09 384.04 1009.09 L391.043 1009.09 Q392.589 1009.09 393.831 1008.95 Q395.072 1008.81 396.103 1008.46 Q397.157 1008.11 397.953 1007.71 Q398.749 1007.31 399.499 1006.58 Q400.248 1005.83 400.764 1005.18 Q401.302 1004.5 401.935 1003.35 Q402.567 1002.2 403.012 1001.27 Q403.457 1000.31 404.136 998.76 Q404.324 998.198 404.769 998.198 Q405.026 998.198 405.167 998.338 Q405.308 998.455 405.331 998.573 L405.331 998.713 Q405.19 999.158 405.097 999.392 L400.693 1009.75 Q400.436 1010.33 400.225 1010.45 Q400.014 1010.56 399.194 1010.56 L374.296 1010.56 Q373.734 1010.56 373.5 1010.54 Q373.289 1010.52 373.125 1010.4 Q372.961 1010.26 372.961 1009.98 Q372.961 1009.53 373.149 1009.35 Q373.336 1009.14 373.547 1009.11 Q373.758 1009.09 374.296 1009.09 Q375.467 1009.09 376.17 1009.02 Q376.873 1008.95 377.318 1008.86 Q377.786 1008.74 378.02 1008.41 Q378.278 1008.08 378.395 1007.8 Q378.512 1007.5 378.676 1006.82 L385 981.451 Q385.235 980.584 385.235 980.303 Q385.235 979.999 385.024 979.811 Q384.836 979.624 384.321 979.554 Q383.806 979.46 383.384 979.46 Q382.986 979.436 382.119 979.436 Q381.557 979.436 381.323 979.413 Q381.112 979.39 380.948 979.272 Q380.784 979.155 380.784 978.898 Q380.784 978.242 381.065 978.101 Q381.37 977.937 382.213 977.937 L406.432 977.937 Q407.392 977.937 407.603 978.148 Q407.837 978.336 407.743 979.249 Z" fill="#000000" fill-rule="nonzero" fill-opacity="1" /><path clip-path="url(#clip310)" d="M414.35 1022.56 L414.35 974.588 L421.588 974.588 L421.588 975.689 L417.559 975.689 L417.559 1021.46 L421.588 1021.46 L421.588 1022.56 L414.35 1022.56 Z" fill="#000000" fill-rule="nonzero" fill-opacity="1" /><path clip-path="url(#clip310)" d="M444.884 991.195 Q444.884 991.522 444.673 992.295 L440.083 1010.61 Q439.075 1014.69 435.796 1017.54 Q432.541 1020.4 428.84 1020.4 Q426.615 1020.4 425.186 1019.21 Q423.757 1018.04 423.757 1016.23 Q423.757 1014.64 424.6 1013.87 Q425.444 1013.12 426.451 1013.12 Q426.779 1013.12 427.13 1013.21 Q427.481 1013.31 427.856 1013.7 Q428.231 1014.1 428.231 1014.78 Q428.231 1015.88 427.27 1016.75 Q426.802 1017.15 426.357 1017.24 Q425.935 1017.33 425.209 1017.33 Q425.49 1017.99 426.006 1018.43 Q426.521 1018.88 427.106 1019.04 Q427.692 1019.23 428.067 1019.28 Q428.465 1019.35 428.84 1019.35 Q431.838 1019.35 434.133 1016.33 Q434.812 1015.41 435.304 1014.5 Q435.82 1013.61 436.194 1012.51 Q436.569 1011.43 436.733 1010.85 Q436.92 1010.26 437.248 1008.93 Q435.07 1011.1 432.4 1011.1 Q431.276 1011.1 430.269 1010.8 Q429.285 1010.49 428.418 1009.86 Q427.552 1009.21 427.036 1008.06 Q426.544 1006.91 426.544 1005.39 Q426.544 1003.77 427.177 1001.57 Q427.809 999.369 429.332 995.317 Q430.151 993.045 430.151 991.944 Q430.151 991.405 430.034 991.077 Q429.917 990.726 429.683 990.609 Q429.449 990.468 429.308 990.445 Q429.191 990.422 428.957 990.422 Q427.575 990.422 426.287 991.827 Q424.998 993.232 424.108 996.371 Q423.921 996.956 423.804 997.097 Q423.687 997.238 423.335 997.238 Q422.75 997.214 422.75 996.746 Q422.75 996.558 422.961 995.832 Q423.172 995.083 423.663 993.982 Q424.179 992.858 424.881 991.85 Q425.584 990.82 426.685 990.094 Q427.809 989.368 429.097 989.368 Q430.854 989.368 431.932 990.515 Q433.032 991.64 433.032 993.303 Q433.032 993.982 432.845 994.591 Q432.681 995.176 432.072 996.746 Q429.613 1003.07 429.613 1006.16 Q429.613 1006.91 429.73 1007.54 Q429.87 1008.15 430.175 1008.76 Q430.479 1009.35 431.088 1009.7 Q431.721 1010.03 432.587 1010.03 Q433.688 1010.03 434.719 1009.51 Q435.773 1008.97 436.429 1008.25 Q437.108 1007.52 437.506 1006.91 Q437.928 1006.28 438.021 1005.95 L440.176 997.331 L441.137 993.49 Q441.582 991.405 441.792 990.89 Q442.073 990.398 442.565 990.141 Q443.057 989.883 443.479 989.883 Q444.064 989.883 444.463 990.234 Q444.884 990.586 444.884 991.195 Z" fill="#000000" fill-rule="nonzero" fill-opacity="1" /><path clip-path="url(#clip310)" d="M451.97 1021.08 L451.97 976.415 Q451.97 974.635 452.93 974.635 Q453.891 974.635 453.891 976.064 L453.891 1020.73 Q453.891 1022.51 452.93 1022.51 Q451.97 1022.51 451.97 1021.08 Z" fill="#000000" fill-rule="nonzero" fill-opacity="1" /><path clip-path="url(#clip310)" d="M495.661 992.53 Q495.661 993.841 494.841 994.591 Q494.021 995.317 493.084 995.317 Q492.194 995.317 491.726 994.802 Q491.257 994.286 491.257 993.63 Q491.257 992.74 491.913 991.967 Q492.569 991.195 493.553 991.031 Q492.592 990.422 491.164 990.422 Q490.227 990.422 489.407 990.913 Q488.611 991.405 488.119 992.038 Q487.65 992.67 487.229 993.584 Q486.83 994.474 486.666 995.012 Q486.526 995.528 486.409 996.09 L484.769 1002.65 Q483.973 1005.76 483.973 1006.86 Q483.973 1008.22 484.629 1009.14 Q485.285 1010.03 486.596 1010.03 Q487.112 1010.03 487.697 1009.89 Q488.283 1009.72 489.032 1009.3 Q489.805 1008.86 490.484 1008.2 Q491.187 1007.52 491.866 1006.37 Q492.546 1005.22 492.991 1003.75 Q493.131 1003.23 493.6 1003.23 Q494.185 1003.23 494.185 1003.7 Q494.185 1004.1 493.857 1004.94 Q493.553 1005.76 492.873 1006.84 Q492.218 1007.89 491.351 1008.86 Q490.484 1009.79 489.196 1010.45 Q487.908 1011.1 486.503 1011.1 Q484.488 1011.1 483.153 1010.03 Q481.818 1008.95 481.326 1007.45 Q481.209 1007.66 481.045 1007.94 Q480.881 1008.22 480.389 1008.86 Q479.921 1009.46 479.382 1009.93 Q478.843 1010.38 478 1010.73 Q477.18 1011.1 476.29 1011.1 Q475.166 1011.1 474.159 1010.78 Q473.175 1010.45 472.472 1009.7 Q471.77 1008.95 471.77 1007.92 Q471.77 1006.77 472.543 1005.97 Q473.339 1005.15 474.417 1005.15 Q475.096 1005.15 475.635 1005.55 Q476.197 1005.95 476.197 1006.82 Q476.197 1007.78 475.541 1008.5 Q474.885 1009.23 473.948 1009.42 Q474.908 1010.03 476.337 1010.03 Q477.883 1010.03 479.101 1008.67 Q480.319 1007.31 480.905 1005.04 Q482.357 999.58 482.919 997.144 Q483.481 994.684 483.481 993.63 Q483.481 992.647 483.223 991.967 Q482.966 991.288 482.521 990.984 Q482.099 990.656 481.701 990.539 Q481.326 990.422 480.905 990.422 Q480.202 990.422 479.406 990.703 Q478.633 990.984 477.696 991.64 Q476.782 992.272 475.916 993.584 Q475.049 994.895 474.463 996.699 Q474.346 997.238 473.831 997.238 Q473.269 997.214 473.269 996.746 Q473.269 996.347 473.573 995.528 Q473.901 994.684 474.557 993.63 Q475.236 992.576 476.103 991.64 Q476.993 990.679 478.281 990.023 Q479.593 989.368 480.998 989.368 Q481.631 989.368 482.24 989.508 Q482.872 989.625 483.622 989.977 Q484.395 990.328 485.074 991.101 Q485.753 991.874 486.175 992.998 Q486.456 992.459 486.83 991.944 Q487.229 991.429 487.838 990.796 Q488.47 990.141 489.337 989.766 Q490.227 989.368 491.21 989.368 Q492.171 989.368 493.108 989.625 Q494.045 989.859 494.841 990.632 Q495.661 991.382 495.661 992.53 Z" fill="#000000" fill-rule="nonzero" fill-opacity="1" /><path clip-path="url(#clip310)" d="M500.546 1005.22 L500.546 1004.17 Q504.579 1004.17 506.662 1002.02 Q507.236 1002.02 507.334 1002.15 Q507.432 1002.29 507.432 1002.89 L507.432 1021.73 Q507.432 1022.73 507.924 1023.04 Q508.416 1023.35 510.564 1023.35 L511.63 1023.35 L511.63 1024.39 Q510.449 1024.29 506.186 1024.29 Q501.923 1024.29 500.759 1024.39 L500.759 1023.35 L501.825 1023.35 Q503.94 1023.35 504.448 1023.06 Q504.957 1022.75 504.957 1021.73 L504.957 1004.34 Q503.202 1005.22 500.546 1005.22 Z" fill="#000000" fill-rule="nonzero" fill-opacity="1" /><path clip-path="url(#clip310)" d="M529.948 1003.28 Q529.995 1002.69 530.908 1002.69 L560.303 1002.69 Q561.685 1002.69 561.709 1003.23 Q561.709 1003.82 560.397 1003.8 L531.236 1003.8 Q529.948 1003.82 529.948 1003.28 M529.948 993.912 Q529.948 993.326 530.955 993.349 L560.256 993.349 Q561.685 993.349 561.709 993.912 Q561.709 994.45 560.491 994.45 L530.908 994.45 Q529.948 994.45 529.948 993.912 Z" fill="#000000" fill-rule="nonzero" fill-opacity="1" /><path clip-path="url(#clip310)" d="M580.211 995.223 Q580.211 988.173 581.991 984.332 Q584.473 978.617 590.329 978.617 Q591.571 978.617 592.859 978.968 Q594.17 979.296 595.81 980.584 Q597.473 981.872 598.48 983.98 Q600.401 988.056 600.401 995.223 Q600.401 1002.23 598.621 1006.04 Q596.021 1011.62 590.282 1011.62 Q588.127 1011.62 585.926 1010.52 Q583.747 1009.42 582.365 1006.77 Q580.211 1002.81 580.211 995.223 M584.192 994.638 Q584.192 1001.88 584.708 1004.76 Q585.293 1007.87 586.886 1009.23 Q588.502 1010.56 590.282 1010.56 Q592.203 1010.56 593.796 1009.14 Q595.412 1007.68 595.904 1004.57 Q596.442 1001.5 596.419 994.638 Q596.419 987.962 595.95 985.292 Q595.318 982.177 593.632 980.935 Q591.969 979.671 590.282 979.671 Q589.65 979.671 588.971 979.858 Q588.315 980.045 587.354 980.584 Q586.394 981.123 585.645 982.458 Q584.919 983.793 584.567 985.807 Q584.192 988.407 584.192 994.638 Z" fill="#000000" fill-rule="nonzero" fill-opacity="1" /><path clip-path="url(#clip310)" d="M604.645 1009.79 Q603.966 1009.02 603.966 1008.01 Q603.966 1007 604.622 1006.26 Q605.301 1005.48 606.519 1005.48 Q607.948 1005.48 608.767 1006.86 Q609.587 1008.22 609.587 1010.52 Q609.587 1013 608.58 1015.3 Q607.573 1017.62 606.589 1018.72 Q605.605 1019.82 605.207 1019.82 Q604.739 1019.82 604.739 1019.3 Q604.739 1019.11 605.067 1018.76 Q608.51 1015.06 608.533 1010.52 Q608.533 1009.79 608.44 1009.79 L608.322 1009.89 Q607.503 1010.56 606.519 1010.56 Q605.324 1010.56 604.645 1009.79 Z" fill="#000000" fill-rule="nonzero" fill-opacity="1" /><path clip-path="url(#clip310)" d="M648.615 992.53 Q648.615 993.841 647.795 994.591 Q646.975 995.317 646.038 995.317 Q645.148 995.317 644.68 994.802 Q644.211 994.286 644.211 993.63 Q644.211 992.74 644.867 991.967 Q645.523 991.195 646.507 991.031 Q645.546 990.422 644.118 990.422 Q643.181 990.422 642.361 990.913 Q641.564 991.405 641.073 992.038 Q640.604 992.67 640.183 993.584 Q639.784 994.474 639.62 995.012 Q639.48 995.528 639.363 996.09 L637.723 1002.65 Q636.927 1005.76 636.927 1006.86 Q636.927 1008.22 637.583 1009.14 Q638.239 1010.03 639.55 1010.03 Q640.065 1010.03 640.651 1009.89 Q641.237 1009.72 641.986 1009.3 Q642.759 1008.86 643.438 1008.2 Q644.141 1007.52 644.82 1006.37 Q645.499 1005.22 645.944 1003.75 Q646.085 1003.23 646.553 1003.23 Q647.139 1003.23 647.139 1003.7 Q647.139 1004.1 646.811 1004.94 Q646.507 1005.76 645.827 1006.84 Q645.172 1007.89 644.305 1008.86 Q643.438 1009.79 642.15 1010.45 Q640.862 1011.1 639.456 1011.1 Q637.442 1011.1 636.107 1010.03 Q634.772 1008.95 634.28 1007.45 Q634.163 1007.66 633.999 1007.94 Q633.835 1008.22 633.343 1008.86 Q632.875 1009.46 632.336 1009.93 Q631.797 1010.38 630.954 1010.73 Q630.134 1011.1 629.244 1011.1 Q628.12 1011.1 627.113 1010.78 Q626.129 1010.45 625.426 1009.7 Q624.724 1008.95 624.724 1007.92 Q624.724 1006.77 625.497 1005.97 Q626.293 1005.15 627.37 1005.15 Q628.05 1005.15 628.588 1005.55 Q629.151 1005.95 629.151 1006.82 Q629.151 1007.78 628.495 1008.5 Q627.839 1009.23 626.902 1009.42 Q627.862 1010.03 629.291 1010.03 Q630.837 1010.03 632.055 1008.67 Q633.273 1007.31 633.859 1005.04 Q635.311 999.58 635.873 997.144 Q636.435 994.684 636.435 993.63 Q636.435 992.647 636.177 991.967 Q635.92 991.288 635.475 990.984 Q635.053 990.656 634.655 990.539 Q634.28 990.422 633.859 990.422 Q633.156 990.422 632.359 990.703 Q631.587 990.984 630.65 991.64 Q629.736 992.272 628.87 993.584 Q628.003 994.895 627.417 996.699 Q627.3 997.238 626.785 997.238 Q626.223 997.214 626.223 996.746 Q626.223 996.347 626.527 995.528 Q626.855 994.684 627.511 993.63 Q628.19 992.576 629.057 991.64 Q629.947 990.679 631.235 990.023 Q632.547 989.368 633.952 989.368 Q634.585 989.368 635.194 989.508 Q635.826 989.625 636.576 989.977 Q637.348 990.328 638.028 991.101 Q638.707 991.874 639.129 992.998 Q639.41 992.459 639.784 991.944 Q640.183 991.429 640.792 990.796 Q641.424 990.141 642.291 989.766 Q643.181 989.368 644.164 989.368 Q645.125 989.368 646.062 989.625 Q646.999 989.859 647.795 990.632 Q648.615 991.382 648.615 992.53 Z" fill="#000000" fill-rule="nonzero" fill-opacity="1" /><path clip-path="url(#clip310)" d="M653.5 1024.39 Q653.5 1023.78 653.549 1023.6 Q653.615 1023.42 653.877 1023.14 L660.321 1015.96 Q663.846 1011.99 663.846 1008.53 Q663.846 1006.29 662.665 1004.68 Q661.501 1003.07 659.353 1003.07 Q657.878 1003.07 656.632 1003.97 Q655.386 1004.88 654.812 1006.48 Q654.91 1006.45 655.254 1006.45 Q656.091 1006.45 656.55 1006.98 Q657.025 1007.5 657.025 1008.2 Q657.025 1009.11 656.435 1009.55 Q655.861 1009.98 655.287 1009.98 Q655.058 1009.98 654.746 1009.93 Q654.451 1009.88 653.975 1009.42 Q653.5 1008.94 653.5 1008.11 Q653.5 1005.76 655.271 1003.89 Q657.058 1002.02 659.78 1002.02 Q662.862 1002.02 664.879 1003.86 Q666.912 1005.68 666.912 1008.53 Q666.912 1009.53 666.6 1010.45 Q666.305 1011.35 665.895 1012.06 Q665.502 1012.76 664.42 1013.89 Q663.337 1015.03 662.468 1015.83 Q661.599 1016.63 659.648 1018.34 L656.091 1021.8 L662.141 1021.8 Q665.092 1021.8 665.321 1021.53 Q665.649 1021.06 666.059 1018.55 L666.912 1018.55 L665.961 1024.39 L653.5 1024.39 Z" fill="#000000" fill-rule="nonzero" fill-opacity="1" /><path clip-path="url(#clip310)" d="M671.898 1021.46 L675.927 1021.46 L675.927 975.689 L671.898 975.689 L671.898 974.588 L679.136 974.588 L679.136 1022.56 L671.898 1022.56 L671.898 1021.46 Z" fill="#000000" fill-rule="nonzero" fill-opacity="1" /></svg>
