<?xml version="1.0" encoding="utf-8"?>
<svg xmlns="http://www.w3.org/2000/svg" xmlns:xlink="http://www.w3.org/1999/xlink" width="300" height="300" viewBox="0 0 1200 1200">
<defs>
  <clipPath id="clip120">
    <rect x="0" y="0" width="1200" height="1200"/>
  </clipPath>
</defs>
<path clip-path="url(#clip120)" d="M0 1200 L1200 1200 L1200 0 L0 0  Z" fill="#ffffff" fill-rule="evenodd" fill-opacity="1"/>
<defs>
  <clipPath id="clip121">
    <rect x="240" y="120" width="841" height="841"/>
  </clipPath>
</defs>
<defs>
  <clipPath id="clip122">
    <rect x="197" y="70" width="933" height="946"/>
  </clipPath>
</defs>
<path clip-path="url(#clip120)" d="M135.478 1073.17 L1152.76 1073.17 L1152.76 47.2441 L135.478 47.2441  Z" fill="#ffffff" fill-rule="evenodd" fill-opacity="1"/>
<defs>
  <clipPath id="clip123">
    <rect x="135" y="47" width="1018" height="1027"/>
  </clipPath>
</defs>
<polyline clip-path="url(#clip123)" style="stroke:#000000; stroke-linecap:round; stroke-linejoin:round; stroke-width:2; stroke-opacity:0.1; fill:none" points="164.269,1073.17 164.269,47.2441 "/>
<polyline clip-path="url(#clip123)" style="stroke:#000000; stroke-linecap:round; stroke-linejoin:round; stroke-width:2; stroke-opacity:0.1; fill:none" points="404.193,1073.17 404.193,47.2441 "/>
<polyline clip-path="url(#clip123)" style="stroke:#000000; stroke-linecap:round; stroke-linejoin:round; stroke-width:2; stroke-opacity:0.1; fill:none" points="644.117,1073.17 644.117,47.2441 "/>
<polyline clip-path="url(#clip123)" style="stroke:#000000; stroke-linecap:round; stroke-linejoin:round; stroke-width:2; stroke-opacity:0.1; fill:none" points="884.041,1073.17 884.041,47.2441 "/>
<polyline clip-path="url(#clip123)" style="stroke:#000000; stroke-linecap:round; stroke-linejoin:round; stroke-width:2; stroke-opacity:0.1; fill:none" points="1123.97,1073.17 1123.97,47.2441 "/>
<polyline clip-path="url(#clip120)" style="stroke:#000000; stroke-linecap:round; stroke-linejoin:round; stroke-width:4; stroke-opacity:1; fill:none" points="135.478,1073.17 1152.76,1073.17 "/>
<polyline clip-path="url(#clip120)" style="stroke:#000000; stroke-linecap:round; stroke-linejoin:round; stroke-width:4; stroke-opacity:1; fill:none" points="164.269,1073.17 164.269,1054.27 "/>
<polyline clip-path="url(#clip120)" style="stroke:#000000; stroke-linecap:round; stroke-linejoin:round; stroke-width:4; stroke-opacity:1; fill:none" points="404.193,1073.17 404.193,1054.27 "/>
<polyline clip-path="url(#clip120)" style="stroke:#000000; stroke-linecap:round; stroke-linejoin:round; stroke-width:4; stroke-opacity:1; fill:none" points="644.117,1073.17 644.117,1054.27 "/>
<polyline clip-path="url(#clip120)" style="stroke:#000000; stroke-linecap:round; stroke-linejoin:round; stroke-width:4; stroke-opacity:1; fill:none" points="884.041,1073.17 884.041,1054.27 "/>
<polyline clip-path="url(#clip120)" style="stroke:#000000; stroke-linecap:round; stroke-linejoin:round; stroke-width:4; stroke-opacity:1; fill:none" points="1123.97,1073.17 1123.97,1054.27 "/>
<path clip-path="url(#clip120)" d="M134.211 1109.14 L163.887 1109.14 L163.887 1113.07 L134.211 1113.07 L134.211 1109.14 Z" fill="#000000" fill-rule="nonzero" fill-opacity="1" /><path clip-path="url(#clip120)" d="M178.007 1122.03 L194.327 1122.03 L194.327 1125.97 L172.382 1125.97 L172.382 1122.03 Q175.044 1119.28 179.628 1114.65 Q184.234 1110 185.415 1108.65 Q187.66 1106.13 188.54 1104.39 Q189.442 1102.63 189.442 1100.94 Q189.442 1098.19 187.498 1096.45 Q185.577 1094.72 182.475 1094.72 Q180.276 1094.72 177.822 1095.48 Q175.391 1096.25 172.614 1097.8 L172.614 1093.07 Q175.438 1091.94 177.891 1091.36 Q180.345 1090.78 182.382 1090.78 Q187.752 1090.78 190.947 1093.47 Q194.141 1096.15 194.141 1100.64 Q194.141 1102.77 193.331 1104.69 Q192.544 1106.59 190.438 1109.19 Q189.859 1109.86 186.757 1113.07 Q183.655 1116.27 178.007 1122.03 Z" fill="#000000" fill-rule="nonzero" fill-opacity="1" /><path clip-path="url(#clip120)" d="M373.95 1109.14 L403.626 1109.14 L403.626 1113.07 L373.95 1113.07 L373.95 1109.14 Z" fill="#000000" fill-rule="nonzero" fill-opacity="1" /><path clip-path="url(#clip120)" d="M414.528 1122.03 L422.167 1122.03 L422.167 1095.67 L413.857 1097.33 L413.857 1093.07 L422.121 1091.41 L426.797 1091.41 L426.797 1122.03 L434.436 1122.03 L434.436 1125.97 L414.528 1125.97 L414.528 1122.03 Z" fill="#000000" fill-rule="nonzero" fill-opacity="1" /><path clip-path="url(#clip120)" d="M644.117 1094.49 Q640.506 1094.49 638.677 1098.05 Q636.872 1101.59 636.872 1108.72 Q636.872 1115.83 638.677 1119.39 Q640.506 1122.94 644.117 1122.94 Q647.751 1122.94 649.557 1119.39 Q651.385 1115.83 651.385 1108.72 Q651.385 1101.59 649.557 1098.05 Q647.751 1094.49 644.117 1094.49 M644.117 1090.78 Q649.927 1090.78 652.983 1095.39 Q656.061 1099.97 656.061 1108.72 Q656.061 1117.45 652.983 1122.06 Q649.927 1126.64 644.117 1126.64 Q638.307 1126.64 635.228 1122.06 Q632.173 1117.45 632.173 1108.72 Q632.173 1099.97 635.228 1095.39 Q638.307 1090.78 644.117 1090.78 Z" fill="#000000" fill-rule="nonzero" fill-opacity="1" /><path clip-path="url(#clip120)" d="M874.423 1122.03 L882.062 1122.03 L882.062 1095.67 L873.752 1097.33 L873.752 1093.07 L882.016 1091.41 L886.691 1091.41 L886.691 1122.03 L894.33 1122.03 L894.33 1125.97 L874.423 1125.97 L874.423 1122.03 Z" fill="#000000" fill-rule="nonzero" fill-opacity="1" /><path clip-path="url(#clip120)" d="M1118.62 1122.03 L1134.94 1122.03 L1134.94 1125.97 L1112.99 1125.97 L1112.99 1122.03 Q1115.65 1119.28 1120.24 1114.65 Q1124.84 1110 1126.03 1108.65 Q1128.27 1106.13 1129.15 1104.39 Q1130.05 1102.63 1130.05 1100.94 Q1130.05 1098.19 1128.11 1096.45 Q1126.19 1094.72 1123.09 1094.72 Q1120.89 1094.72 1118.43 1095.48 Q1116 1096.25 1113.22 1097.8 L1113.22 1093.07 Q1116.05 1091.94 1118.5 1091.36 Q1120.96 1090.78 1122.99 1090.78 Q1128.36 1090.78 1131.56 1093.47 Q1134.75 1096.15 1134.75 1100.64 Q1134.75 1102.77 1133.94 1104.69 Q1133.15 1106.59 1131.05 1109.19 Q1130.47 1109.86 1127.37 1113.07 Q1124.27 1116.27 1118.62 1122.03 Z" fill="#000000" fill-rule="nonzero" fill-opacity="1" /><polyline clip-path="url(#clip123)" style="stroke:#000000; stroke-linecap:round; stroke-linejoin:round; stroke-width:2; stroke-opacity:0.1; fill:none" points="135.478,944.261 1152.76,944.261 "/>
<polyline clip-path="url(#clip123)" style="stroke:#000000; stroke-linecap:round; stroke-linejoin:round; stroke-width:2; stroke-opacity:0.1; fill:none" points="135.478,807.355 1152.76,807.355 "/>
<polyline clip-path="url(#clip123)" style="stroke:#000000; stroke-linecap:round; stroke-linejoin:round; stroke-width:2; stroke-opacity:0.1; fill:none" points="135.478,670.449 1152.76,670.449 "/>
<polyline clip-path="url(#clip123)" style="stroke:#000000; stroke-linecap:round; stroke-linejoin:round; stroke-width:2; stroke-opacity:0.1; fill:none" points="135.478,533.542 1152.76,533.542 "/>
<polyline clip-path="url(#clip123)" style="stroke:#000000; stroke-linecap:round; stroke-linejoin:round; stroke-width:2; stroke-opacity:0.1; fill:none" points="135.478,396.636 1152.76,396.636 "/>
<polyline clip-path="url(#clip123)" style="stroke:#000000; stroke-linecap:round; stroke-linejoin:round; stroke-width:2; stroke-opacity:0.1; fill:none" points="135.478,259.729 1152.76,259.729 "/>
<polyline clip-path="url(#clip123)" style="stroke:#000000; stroke-linecap:round; stroke-linejoin:round; stroke-width:2; stroke-opacity:0.1; fill:none" points="135.478,122.823 1152.76,122.823 "/>
<polyline clip-path="url(#clip120)" style="stroke:#000000; stroke-linecap:round; stroke-linejoin:round; stroke-width:4; stroke-opacity:1; fill:none" points="135.478,1073.17 135.478,47.2441 "/>
<polyline clip-path="url(#clip120)" style="stroke:#000000; stroke-linecap:round; stroke-linejoin:round; stroke-width:4; stroke-opacity:1; fill:none" points="135.478,944.261 154.376,944.261 "/>
<polyline clip-path="url(#clip120)" style="stroke:#000000; stroke-linecap:round; stroke-linejoin:round; stroke-width:4; stroke-opacity:1; fill:none" points="135.478,807.355 154.376,807.355 "/>
<polyline clip-path="url(#clip120)" style="stroke:#000000; stroke-linecap:round; stroke-linejoin:round; stroke-width:4; stroke-opacity:1; fill:none" points="135.478,670.449 154.376,670.449 "/>
<polyline clip-path="url(#clip120)" style="stroke:#000000; stroke-linecap:round; stroke-linejoin:round; stroke-width:4; stroke-opacity:1; fill:none" points="135.478,533.542 154.376,533.542 "/>
<polyline clip-path="url(#clip120)" style="stroke:#000000; stroke-linecap:round; stroke-linejoin:round; stroke-width:4; stroke-opacity:1; fill:none" points="135.478,396.636 154.376,396.636 "/>
<polyline clip-path="url(#clip120)" style="stroke:#000000; stroke-linecap:round; stroke-linejoin:round; stroke-width:4; stroke-opacity:1; fill:none" points="135.478,259.729 154.376,259.729 "/>
<polyline clip-path="url(#clip120)" style="stroke:#000000; stroke-linecap:round; stroke-linejoin:round; stroke-width:4; stroke-opacity:1; fill:none" points="135.478,122.823 154.376,122.823 "/>
<path clip-path="url(#clip120)" d="M57.3625 944.713 L87.0383 944.713 L87.0383 948.648 L57.3625 948.648 L57.3625 944.713 Z" fill="#000000" fill-rule="nonzero" fill-opacity="1" /><path clip-path="url(#clip120)" d="M101.159 957.606 L117.478 957.606 L117.478 961.541 L95.5336 961.541 L95.5336 957.606 Q98.1956 954.852 102.779 950.222 Q107.385 945.569 108.566 944.227 Q110.811 941.704 111.691 939.967 Q112.594 938.208 112.594 936.518 Q112.594 933.764 110.649 932.028 Q108.728 930.292 105.626 930.292 Q103.427 930.292 100.973 931.055 Q98.5428 931.819 95.7651 933.37 L95.7651 928.648 Q98.5891 927.514 101.043 926.935 Q103.497 926.356 105.534 926.356 Q110.904 926.356 114.098 929.042 Q117.293 931.727 117.293 936.218 Q117.293 938.347 116.483 940.268 Q115.696 942.167 113.589 944.759 Q113.01 945.43 109.909 948.648 Q106.807 951.842 101.159 957.606 Z" fill="#000000" fill-rule="nonzero" fill-opacity="1" /><path clip-path="url(#clip120)" d="M56.9921 807.806 L86.6679 807.806 L86.6679 811.742 L56.9921 811.742 L56.9921 807.806 Z" fill="#000000" fill-rule="nonzero" fill-opacity="1" /><path clip-path="url(#clip120)" d="M97.5706 820.7 L105.209 820.7 L105.209 794.334 L96.8993 796.001 L96.8993 791.742 L105.163 790.075 L109.839 790.075 L109.839 820.7 L117.478 820.7 L117.478 824.635 L97.5706 824.635 L97.5706 820.7 Z" fill="#000000" fill-rule="nonzero" fill-opacity="1" /><path clip-path="url(#clip120)" d="M105.534 656.247 Q101.922 656.247 100.094 659.812 Q98.2882 663.354 98.2882 670.483 Q98.2882 677.59 100.094 681.155 Q101.922 684.696 105.534 684.696 Q109.168 684.696 110.973 681.155 Q112.802 677.59 112.802 670.483 Q112.802 663.354 110.973 659.812 Q109.168 656.247 105.534 656.247 M105.534 652.544 Q111.344 652.544 114.399 657.15 Q117.478 661.733 117.478 670.483 Q117.478 679.21 114.399 683.817 Q111.344 688.4 105.534 688.4 Q99.7234 688.4 96.6447 683.817 Q93.5892 679.21 93.5892 670.483 Q93.5892 661.733 96.6447 657.15 Q99.7234 652.544 105.534 652.544 Z" fill="#000000" fill-rule="nonzero" fill-opacity="1" /><path clip-path="url(#clip120)" d="M97.5706 546.887 L105.209 546.887 L105.209 520.521 L96.8993 522.188 L96.8993 517.929 L105.163 516.262 L109.839 516.262 L109.839 546.887 L117.478 546.887 L117.478 550.822 L97.5706 550.822 L97.5706 546.887 Z" fill="#000000" fill-rule="nonzero" fill-opacity="1" /><path clip-path="url(#clip120)" d="M101.159 409.98 L117.478 409.98 L117.478 413.916 L95.5336 413.916 L95.5336 409.98 Q98.1956 407.226 102.779 402.596 Q107.385 397.944 108.566 396.601 Q110.811 394.078 111.691 392.342 Q112.594 390.582 112.594 388.893 Q112.594 386.138 110.649 384.402 Q108.728 382.666 105.626 382.666 Q103.427 382.666 100.973 383.43 Q98.5428 384.194 95.7651 385.745 L95.7651 381.022 Q98.5891 379.888 101.043 379.309 Q103.497 378.731 105.534 378.731 Q110.904 378.731 114.098 381.416 Q117.293 384.101 117.293 388.592 Q117.293 390.721 116.483 392.643 Q115.696 394.541 113.589 397.133 Q113.01 397.805 109.909 401.022 Q106.807 404.217 101.159 409.98 Z" fill="#000000" fill-rule="nonzero" fill-opacity="1" /><path clip-path="url(#clip120)" d="M110.348 258.375 Q113.705 259.093 115.58 261.361 Q117.478 263.63 117.478 266.963 Q117.478 272.079 113.959 274.88 Q110.441 277.68 103.959 277.68 Q101.784 277.68 99.4688 277.241 Q97.1771 276.824 94.7234 275.968 L94.7234 271.454 Q96.6678 272.588 98.9826 273.167 Q101.297 273.745 103.821 273.745 Q108.219 273.745 110.51 272.009 Q112.825 270.273 112.825 266.963 Q112.825 263.907 110.672 262.194 Q108.543 260.458 104.723 260.458 L100.696 260.458 L100.696 256.616 L104.909 256.616 Q108.358 256.616 110.186 255.25 Q112.015 253.861 112.015 251.269 Q112.015 248.607 110.117 247.195 Q108.242 245.759 104.723 245.759 Q102.802 245.759 100.603 246.176 Q98.4039 246.593 95.7651 247.472 L95.7651 243.306 Q98.4271 242.565 100.742 242.195 Q103.08 241.824 105.14 241.824 Q110.464 241.824 113.566 244.255 Q116.668 246.662 116.668 250.782 Q116.668 253.653 115.024 255.644 Q113.381 257.611 110.348 258.375 Z" fill="#000000" fill-rule="nonzero" fill-opacity="1" /><path clip-path="url(#clip120)" d="M107.895 109.617 L96.0891 128.066 L107.895 128.066 L107.895 109.617 M106.668 105.543 L112.547 105.543 L112.547 128.066 L117.478 128.066 L117.478 131.955 L112.547 131.955 L112.547 140.103 L107.895 140.103 L107.895 131.955 L92.2929 131.955 L92.2929 127.441 L106.668 105.543 Z" fill="#000000" fill-rule="nonzero" fill-opacity="1" /><polyline clip-path="url(#clip123)" style="stroke:#009af9; stroke-linecap:round; stroke-linejoin:round; stroke-width:4; stroke-opacity:1; fill:none" points="164.269,76.2797 212.254,204.306 260.238,317.322 308.223,392.373 356.208,454.334 404.193,508.543 452.178,555.001 500.162,593.707 548.147,624.662 596.132,647.865 644.117,663.317 692.102,674.017 740.087,671.809 788.071,647.026 836.056,599.671 884.041,529.742 932.026,468.9 980.011,397.298 1028,314.916 1075.98,221.753 1123.97,117.809 "/>
<polyline clip-path="url(#clip123)" style="stroke:#e26f46; stroke-linecap:round; stroke-linejoin:round; stroke-width:4; stroke-opacity:1; fill:none" points="164.269,403.157 212.254,428.504 260.238,453.85 308.223,479.196 356.208,504.543 404.193,529.889 452.178,555.235 500.162,580.582 548.147,605.928 596.132,631.274 644.117,663.317 692.102,701.398 740.087,739.48 788.071,777.561 836.056,815.643 884.041,853.724 932.026,891.806 980.011,929.888 1028,967.969 1075.98,1006.05 1123.97,1044.13 "/>
<path clip-path="url(#clip120)" d="M169.387 1038.97 L628.357 1038.97 L628.357 883.45 L169.387 883.45  Z" fill="#ffffff" fill-rule="evenodd" fill-opacity="1"/>
<polyline clip-path="url(#clip120)" style="stroke:#000000; stroke-linecap:round; stroke-linejoin:round; stroke-width:4; stroke-opacity:1; fill:none" points="169.387,1038.97 628.357,1038.97 628.357,883.45 169.387,883.45 169.387,1038.97 "/>
<polyline clip-path="url(#clip120)" style="stroke:#009af9; stroke-linecap:round; stroke-linejoin:round; stroke-width:4; stroke-opacity:1; fill:none" points="180.69,935.29 248.509,935.29 "/>
<path clip-path="url(#clip120)" d="M274.997 924.252 Q274.279 923.836 273.423 923.65 Q272.59 923.442 271.571 923.442 Q267.96 923.442 266.016 925.803 Q264.094 928.141 264.094 932.539 L264.094 946.197 L259.812 946.197 L259.812 920.271 L264.094 920.271 L264.094 924.299 Q265.437 921.938 267.59 920.803 Q269.742 919.646 272.821 919.646 Q273.261 919.646 273.793 919.715 Q274.326 919.762 274.974 919.877 L274.997 924.252 Z" fill="#000000" fill-rule="nonzero" fill-opacity="1" /><path clip-path="url(#clip120)" d="M283.492 911.637 L283.492 924.484 L279.557 924.484 L279.557 911.637 L283.492 911.637 M292.242 911.637 L292.242 924.484 L288.307 924.484 L288.307 911.637 L292.242 911.637 Z" fill="#000000" fill-rule="nonzero" fill-opacity="1" /><path clip-path="url(#clip120)" d="M327.025 914.881 L326.064 923.172 Q325.994 923.922 325.877 924.156 Q325.76 924.367 325.385 924.367 Q325.104 924.367 324.94 924.203 Q324.799 924.016 324.799 923.805 Q324.799 923.688 324.823 923.383 Q324.846 923.079 324.846 922.938 Q325.057 921.486 325.057 920.385 Q325.057 918.347 324.448 917.247 Q323.839 916.122 322.27 915.607 Q320.701 915.068 317.749 915.068 L311.004 915.068 Q309.458 915.068 309.083 915.349 Q308.732 915.63 308.404 916.942 L305.523 928.489 L310.043 928.489 Q311.73 928.489 312.737 928.278 Q313.767 928.068 314.447 927.482 Q315.149 926.873 315.524 926.053 Q315.922 925.234 316.321 923.758 Q316.438 923.266 316.555 923.079 Q316.695 922.891 317 922.891 Q317.234 922.891 317.398 923.055 Q317.562 923.196 317.562 923.407 L314.822 934.626 Q314.681 935.188 314.54 935.399 Q314.4 935.586 314.119 935.586 Q313.814 935.586 313.65 935.422 Q313.486 935.258 313.486 935.071 Q313.486 934.884 313.627 934.532 Q313.978 933.01 313.978 932.19 Q313.978 931.722 313.931 931.487 Q313.908 931.253 313.697 930.925 Q313.51 930.574 313.088 930.41 Q312.667 930.246 311.87 930.129 Q311.074 929.988 309.879 929.988 L305.148 929.988 L301.869 943.081 Q301.635 943.948 301.635 944.182 Q301.635 944.44 301.752 944.534 Q301.892 944.604 302.267 944.651 Q302.689 944.721 303.321 944.721 L310.324 944.721 Q311.87 944.721 313.112 944.581 Q314.353 944.44 315.384 944.089 Q316.438 943.737 317.234 943.339 Q318.03 942.941 318.78 942.215 Q319.529 941.465 320.045 940.81 Q320.583 940.13 321.216 938.983 Q321.848 937.835 322.293 936.898 Q322.738 935.938 323.418 934.392 Q323.605 933.83 324.05 933.83 Q324.308 933.83 324.448 933.97 Q324.589 934.087 324.612 934.204 L324.612 934.345 Q324.472 934.79 324.378 935.024 L319.974 945.377 Q319.717 945.962 319.506 946.08 Q319.295 946.197 318.475 946.197 L293.577 946.197 Q293.015 946.197 292.781 946.173 Q292.57 946.15 292.406 946.033 Q292.242 945.892 292.242 945.611 Q292.242 945.166 292.43 944.979 Q292.617 944.768 292.828 944.744 Q293.039 944.721 293.577 944.721 Q294.748 944.721 295.451 944.651 Q296.154 944.581 296.599 944.487 Q297.067 944.37 297.302 944.042 Q297.559 943.714 297.676 943.433 Q297.793 943.128 297.957 942.449 L304.281 917.083 Q304.516 916.216 304.516 915.935 Q304.516 915.63 304.305 915.443 Q304.117 915.256 303.602 915.185 Q303.087 915.092 302.665 915.092 Q302.267 915.068 301.4 915.068 Q300.838 915.068 300.604 915.045 Q300.393 915.021 300.229 914.904 Q300.065 914.787 300.065 914.53 Q300.065 913.874 300.346 913.733 Q300.651 913.569 301.494 913.569 L325.713 913.569 Q326.673 913.569 326.884 913.78 Q327.118 913.967 327.025 914.881 Z" fill="#000000" fill-rule="nonzero" fill-opacity="1" /><path clip-path="url(#clip120)" d="M333.629 958.189 L333.629 910.22 L340.867 910.22 L340.867 911.321 L336.838 911.321 L336.838 957.088 L340.867 957.088 L340.867 958.189 L333.629 958.189 Z" fill="#000000" fill-rule="nonzero" fill-opacity="1" /><path clip-path="url(#clip120)" d="M364.163 926.826 Q364.163 927.154 363.952 927.927 L359.361 946.244 Q358.354 950.319 355.075 953.177 Q351.819 956.034 348.118 956.034 Q345.893 956.034 344.464 954.84 Q343.036 953.668 343.036 951.865 Q343.036 950.272 343.879 949.499 Q344.722 948.75 345.729 948.75 Q346.057 948.75 346.408 948.843 Q346.76 948.937 347.134 949.335 Q347.509 949.733 347.509 950.413 Q347.509 951.514 346.549 952.38 Q346.08 952.778 345.635 952.872 Q345.214 952.966 344.488 952.966 Q344.769 953.622 345.284 954.067 Q345.799 954.512 346.385 954.676 Q346.971 954.863 347.345 954.91 Q347.743 954.98 348.118 954.98 Q351.116 954.98 353.412 951.959 Q354.091 951.045 354.583 950.132 Q355.098 949.242 355.473 948.141 Q355.848 947.063 356.012 946.478 Q356.199 945.892 356.527 944.557 Q354.349 946.735 351.678 946.735 Q350.554 946.735 349.547 946.431 Q348.563 946.126 347.697 945.494 Q346.83 944.838 346.315 943.69 Q345.823 942.543 345.823 941.02 Q345.823 939.404 346.455 937.202 Q347.088 935.001 348.61 930.949 Q349.43 928.677 349.43 927.576 Q349.43 927.037 349.313 926.709 Q349.196 926.358 348.961 926.241 Q348.727 926.1 348.587 926.077 Q348.47 926.053 348.235 926.053 Q346.853 926.053 345.565 927.459 Q344.277 928.864 343.387 932.003 Q343.2 932.588 343.082 932.729 Q342.965 932.869 342.614 932.869 Q342.028 932.846 342.028 932.377 Q342.028 932.19 342.239 931.464 Q342.45 930.714 342.942 929.614 Q343.457 928.489 344.16 927.482 Q344.863 926.452 345.963 925.725 Q347.088 924.999 348.376 924.999 Q350.133 924.999 351.21 926.147 Q352.311 927.271 352.311 928.934 Q352.311 929.614 352.123 930.223 Q351.96 930.808 351.351 932.377 Q348.891 938.701 348.891 941.793 Q348.891 942.543 349.008 943.175 Q349.149 943.784 349.453 944.393 Q349.758 944.979 350.367 945.33 Q350.999 945.658 351.866 945.658 Q352.967 945.658 353.997 945.143 Q355.051 944.604 355.707 943.878 Q356.386 943.152 356.785 942.543 Q357.206 941.91 357.3 941.582 L359.455 932.963 L360.415 929.122 Q360.86 927.037 361.071 926.522 Q361.352 926.03 361.844 925.772 Q362.336 925.515 362.757 925.515 Q363.343 925.515 363.741 925.866 Q364.163 926.217 364.163 926.826 Z" fill="#000000" fill-rule="nonzero" fill-opacity="1" /><path clip-path="url(#clip120)" d="M371.247 956.713 L371.247 912.047 Q371.247 910.267 372.207 910.267 Q373.168 910.267 373.168 911.695 L373.168 956.362 Q373.168 958.142 372.207 958.142 Q371.247 958.142 371.247 956.713 Z" fill="#000000" fill-rule="nonzero" fill-opacity="1" /><path clip-path="url(#clip120)" d="M414.937 928.161 Q414.937 929.473 414.117 930.223 Q413.297 930.949 412.36 930.949 Q411.47 930.949 411.002 930.433 Q410.533 929.918 410.533 929.262 Q410.533 928.372 411.189 927.599 Q411.845 926.826 412.829 926.662 Q411.868 926.053 410.44 926.053 Q409.503 926.053 408.683 926.545 Q407.887 927.037 407.395 927.67 Q406.926 928.302 406.505 929.215 Q406.107 930.105 405.943 930.644 Q405.802 931.159 405.685 931.722 L404.045 938.28 Q403.249 941.395 403.249 942.496 Q403.249 943.854 403.905 944.768 Q404.561 945.658 405.872 945.658 Q406.388 945.658 406.973 945.517 Q407.559 945.353 408.308 944.932 Q409.081 944.487 409.76 943.831 Q410.463 943.152 411.142 942.004 Q411.822 940.856 412.267 939.381 Q412.407 938.865 412.876 938.865 Q413.461 938.865 413.461 939.334 Q413.461 939.732 413.133 940.575 Q412.829 941.395 412.15 942.472 Q411.494 943.527 410.627 944.487 Q409.76 945.424 408.472 946.08 Q407.184 946.735 405.779 946.735 Q403.764 946.735 402.429 945.658 Q401.094 944.581 400.602 943.081 Q400.485 943.292 400.321 943.573 Q400.157 943.854 399.665 944.487 Q399.197 945.096 398.658 945.564 Q398.12 946.009 397.276 946.361 Q396.457 946.735 395.566 946.735 Q394.442 946.735 393.435 946.407 Q392.451 946.08 391.749 945.33 Q391.046 944.581 391.046 943.55 Q391.046 942.402 391.819 941.606 Q392.615 940.786 393.693 940.786 Q394.372 940.786 394.911 941.184 Q395.473 941.582 395.473 942.449 Q395.473 943.409 394.817 944.135 Q394.161 944.862 393.224 945.049 Q394.185 945.658 395.613 945.658 Q397.159 945.658 398.377 944.299 Q399.595 942.941 400.181 940.669 Q401.633 935.212 402.195 932.776 Q402.757 930.316 402.757 929.262 Q402.757 928.278 402.5 927.599 Q402.242 926.92 401.797 926.616 Q401.375 926.288 400.977 926.17 Q400.602 926.053 400.181 926.053 Q399.478 926.053 398.682 926.334 Q397.909 926.616 396.972 927.271 Q396.058 927.904 395.192 929.215 Q394.325 930.527 393.74 932.331 Q393.622 932.869 393.107 932.869 Q392.545 932.846 392.545 932.377 Q392.545 931.979 392.849 931.159 Q393.177 930.316 393.833 929.262 Q394.512 928.208 395.379 927.271 Q396.269 926.311 397.557 925.655 Q398.869 924.999 400.274 924.999 Q400.907 924.999 401.516 925.14 Q402.148 925.257 402.898 925.608 Q403.671 925.96 404.35 926.733 Q405.029 927.506 405.451 928.63 Q405.732 928.091 406.107 927.576 Q406.505 927.061 407.114 926.428 Q407.746 925.772 408.613 925.398 Q409.503 924.999 410.487 924.999 Q411.447 924.999 412.384 925.257 Q413.321 925.491 414.117 926.264 Q414.937 927.014 414.937 928.161 Z" fill="#000000" fill-rule="nonzero" fill-opacity="1" /><path clip-path="url(#clip120)" d="M419.822 940.85 L419.822 939.801 Q423.856 939.801 425.938 937.653 Q426.512 937.653 426.61 937.784 Q426.708 937.916 426.708 938.522 L426.708 957.361 Q426.708 958.361 427.2 958.673 Q427.692 958.984 429.84 958.984 L430.906 958.984 L430.906 960.017 Q429.725 959.919 425.462 959.919 Q421.199 959.919 420.035 960.017 L420.035 958.984 L421.101 958.984 Q423.216 958.984 423.724 958.689 Q424.233 958.377 424.233 957.361 L424.233 939.965 Q422.478 940.85 419.822 940.85 Z" fill="#000000" fill-rule="nonzero" fill-opacity="1" /><path clip-path="url(#clip120)" d="M436.597 945.424 Q435.918 944.651 435.918 943.644 Q435.918 942.636 436.574 941.887 Q437.253 941.114 438.471 941.114 Q439.9 941.114 440.72 942.496 Q441.539 943.854 441.539 946.15 Q441.539 948.633 440.532 950.928 Q439.525 953.247 438.541 954.348 Q437.558 955.449 437.159 955.449 Q436.691 955.449 436.691 954.933 Q436.691 954.746 437.019 954.395 Q440.462 950.694 440.485 946.15 Q440.485 945.424 440.392 945.424 L440.275 945.517 Q439.455 946.197 438.471 946.197 Q437.276 946.197 436.597 945.424 Z" fill="#000000" fill-rule="nonzero" fill-opacity="1" /><path clip-path="url(#clip120)" d="M480.566 928.161 Q480.566 929.473 479.746 930.223 Q478.926 930.949 477.989 930.949 Q477.099 930.949 476.631 930.433 Q476.162 929.918 476.162 929.262 Q476.162 928.372 476.818 927.599 Q477.474 926.826 478.458 926.662 Q477.497 926.053 476.069 926.053 Q475.132 926.053 474.312 926.545 Q473.515 927.037 473.024 927.67 Q472.555 928.302 472.134 929.215 Q471.735 930.105 471.571 930.644 Q471.431 931.159 471.314 931.722 L469.674 938.28 Q468.878 941.395 468.878 942.496 Q468.878 943.854 469.534 944.768 Q470.189 945.658 471.501 945.658 Q472.016 945.658 472.602 945.517 Q473.188 945.353 473.937 944.932 Q474.71 944.487 475.389 943.831 Q476.092 943.152 476.771 942.004 Q477.45 940.856 477.895 939.381 Q478.036 938.865 478.504 938.865 Q479.09 938.865 479.09 939.334 Q479.09 939.732 478.762 940.575 Q478.458 941.395 477.778 942.472 Q477.123 943.527 476.256 944.487 Q475.389 945.424 474.101 946.08 Q472.813 946.735 471.407 946.735 Q469.393 946.735 468.058 945.658 Q466.723 944.581 466.231 943.081 Q466.114 943.292 465.95 943.573 Q465.786 943.854 465.294 944.487 Q464.826 945.096 464.287 945.564 Q463.748 946.009 462.905 946.361 Q462.085 946.735 461.195 946.735 Q460.071 946.735 459.064 946.407 Q458.08 946.08 457.377 945.33 Q456.675 944.581 456.675 943.55 Q456.675 942.402 457.448 941.606 Q458.244 940.786 459.321 940.786 Q460.001 940.786 460.539 941.184 Q461.102 941.582 461.102 942.449 Q461.102 943.409 460.446 944.135 Q459.79 944.862 458.853 945.049 Q459.813 945.658 461.242 945.658 Q462.788 945.658 464.006 944.299 Q465.224 942.941 465.809 940.669 Q467.262 935.212 467.824 932.776 Q468.386 930.316 468.386 929.262 Q468.386 928.278 468.128 927.599 Q467.871 926.92 467.426 926.616 Q467.004 926.288 466.606 926.17 Q466.231 926.053 465.809 926.053 Q465.107 926.053 464.31 926.334 Q463.538 926.616 462.601 927.271 Q461.687 927.904 460.821 929.215 Q459.954 930.527 459.368 932.331 Q459.251 932.869 458.736 932.869 Q458.174 932.846 458.174 932.377 Q458.174 931.979 458.478 931.159 Q458.806 930.316 459.462 929.262 Q460.141 928.208 461.008 927.271 Q461.898 926.311 463.186 925.655 Q464.498 924.999 465.903 924.999 Q466.536 924.999 467.145 925.14 Q467.777 925.257 468.526 925.608 Q469.299 925.96 469.979 926.733 Q470.658 927.506 471.08 928.63 Q471.361 928.091 471.735 927.576 Q472.134 927.061 472.743 926.428 Q473.375 925.772 474.242 925.398 Q475.132 924.999 476.115 924.999 Q477.076 924.999 478.013 925.257 Q478.949 925.491 479.746 926.264 Q480.566 927.014 480.566 928.161 Z" fill="#000000" fill-rule="nonzero" fill-opacity="1" /><path clip-path="url(#clip120)" d="M485.451 960.017 Q485.451 959.41 485.5 959.23 Q485.566 959.05 485.828 958.771 L492.272 951.59 Q495.797 947.622 495.797 944.162 Q495.797 941.916 494.616 940.309 Q493.452 938.703 491.304 938.703 Q489.829 938.703 488.583 939.604 Q487.336 940.506 486.763 942.113 Q486.861 942.08 487.205 942.08 Q488.042 942.08 488.501 942.605 Q488.976 943.129 488.976 943.834 Q488.976 944.736 488.386 945.179 Q487.812 945.605 487.238 945.605 Q487.009 945.605 486.697 945.556 Q486.402 945.507 485.926 945.048 Q485.451 944.572 485.451 943.736 Q485.451 941.391 487.222 939.522 Q489.009 937.653 491.731 937.653 Q494.813 937.653 496.83 939.49 Q498.863 941.309 498.863 944.162 Q498.863 945.162 498.551 946.081 Q498.256 946.982 497.846 947.687 Q497.453 948.392 496.371 949.524 Q495.288 950.655 494.419 951.458 Q493.55 952.262 491.599 953.967 L488.042 957.426 L494.092 957.426 Q497.043 957.426 497.272 957.164 Q497.6 956.689 498.01 954.18 L498.863 954.18 L497.912 960.017 L485.451 960.017 Z" fill="#000000" fill-rule="nonzero" fill-opacity="1" /><path clip-path="url(#clip120)" d="M517.156 938.912 Q517.203 938.327 518.116 938.327 L547.512 938.327 Q548.894 938.327 548.917 938.865 Q548.917 939.451 547.605 939.428 L518.444 939.428 Q517.156 939.451 517.156 938.912 M517.156 929.543 Q517.156 928.958 518.163 928.981 L547.465 928.981 Q548.894 928.981 548.917 929.543 Q548.917 930.082 547.699 930.082 L518.116 930.082 Q517.156 930.082 517.156 929.543 Z" fill="#000000" fill-rule="nonzero" fill-opacity="1" /><path clip-path="url(#clip120)" d="M567.416 930.855 Q567.416 923.805 569.196 919.964 Q571.679 914.248 577.535 914.248 Q578.776 914.248 580.064 914.6 Q581.376 914.928 583.016 916.216 Q584.679 917.504 585.686 919.612 Q587.606 923.688 587.606 930.855 Q587.606 937.858 585.826 941.676 Q583.226 947.251 577.488 947.251 Q575.333 947.251 573.131 946.15 Q570.953 945.049 569.571 942.402 Q567.416 938.444 567.416 930.855 M571.398 930.269 Q571.398 937.507 571.913 940.388 Q572.499 943.503 574.092 944.862 Q575.708 946.197 577.488 946.197 Q579.408 946.197 581.001 944.768 Q582.617 943.316 583.109 940.201 Q583.648 937.132 583.624 930.269 Q583.624 923.594 583.156 920.924 Q582.524 917.809 580.837 916.567 Q579.174 915.302 577.488 915.302 Q576.855 915.302 576.176 915.49 Q575.52 915.677 574.56 916.216 Q573.6 916.755 572.85 918.09 Q572.124 919.425 571.773 921.439 Q571.398 924.039 571.398 930.269 Z" fill="#000000" fill-rule="nonzero" fill-opacity="1" /><path clip-path="url(#clip120)" d="M590.402 957.088 L594.431 957.088 L594.431 911.321 L590.402 911.321 L590.402 910.22 L597.64 910.22 L597.64 958.189 L590.402 958.189 L590.402 957.088 Z" fill="#000000" fill-rule="nonzero" fill-opacity="1" /><path clip-path="url(#clip120)" d="M607.536 911.637 L607.536 924.484 L603.601 924.484 L603.601 911.637 L607.536 911.637 M616.286 911.637 L616.286 924.484 L612.351 924.484 L612.351 911.637 L616.286 911.637 Z" fill="#000000" fill-rule="nonzero" fill-opacity="1" /><polyline clip-path="url(#clip120)" style="stroke:#e26f46; stroke-linecap:round; stroke-linejoin:round; stroke-width:4; stroke-opacity:1; fill:none" points="180.69,987.13 248.509,987.13 "/>
<path clip-path="url(#clip120)" d="M274.997 976.092 Q274.279 975.676 273.423 975.49 Q272.59 975.282 271.571 975.282 Q267.96 975.282 266.016 977.643 Q264.094 979.981 264.094 984.379 L264.094 998.037 L259.812 998.037 L259.812 972.111 L264.094 972.111 L264.094 976.139 Q265.437 973.778 267.59 972.643 Q269.742 971.486 272.821 971.486 Q273.261 971.486 273.793 971.555 Q274.326 971.602 274.974 971.717 L274.997 976.092 Z" fill="#000000" fill-rule="nonzero" fill-opacity="1" /><path clip-path="url(#clip120)" d="M283.492 963.477 L283.492 976.324 L279.557 976.324 L279.557 963.477 L283.492 963.477 M292.242 963.477 L292.242 976.324 L288.307 976.324 L288.307 963.477 L292.242 963.477 Z" fill="#000000" fill-rule="nonzero" fill-opacity="1" /><path clip-path="url(#clip120)" d="M327.025 966.721 L326.064 975.012 Q325.994 975.762 325.877 975.996 Q325.76 976.207 325.385 976.207 Q325.104 976.207 324.94 976.043 Q324.799 975.856 324.799 975.645 Q324.799 975.528 324.823 975.223 Q324.846 974.919 324.846 974.778 Q325.057 973.326 325.057 972.225 Q325.057 970.187 324.448 969.087 Q323.839 967.962 322.27 967.447 Q320.701 966.908 317.749 966.908 L311.004 966.908 Q309.458 966.908 309.083 967.189 Q308.732 967.47 308.404 968.782 L305.523 980.329 L310.043 980.329 Q311.73 980.329 312.737 980.118 Q313.767 979.908 314.447 979.322 Q315.149 978.713 315.524 977.893 Q315.922 977.074 316.321 975.598 Q316.438 975.106 316.555 974.919 Q316.695 974.731 317 974.731 Q317.234 974.731 317.398 974.895 Q317.562 975.036 317.562 975.247 L314.822 986.466 Q314.681 987.028 314.54 987.239 Q314.4 987.426 314.119 987.426 Q313.814 987.426 313.65 987.262 Q313.486 987.098 313.486 986.911 Q313.486 986.724 313.627 986.372 Q313.978 984.85 313.978 984.03 Q313.978 983.562 313.931 983.327 Q313.908 983.093 313.697 982.765 Q313.51 982.414 313.088 982.25 Q312.667 982.086 311.87 981.969 Q311.074 981.828 309.879 981.828 L305.148 981.828 L301.869 994.921 Q301.635 995.788 301.635 996.022 Q301.635 996.28 301.752 996.374 Q301.892 996.444 302.267 996.491 Q302.689 996.561 303.321 996.561 L310.324 996.561 Q311.87 996.561 313.112 996.421 Q314.353 996.28 315.384 995.929 Q316.438 995.577 317.234 995.179 Q318.03 994.781 318.78 994.055 Q319.529 993.305 320.045 992.65 Q320.583 991.97 321.216 990.823 Q321.848 989.675 322.293 988.738 Q322.738 987.778 323.418 986.232 Q323.605 985.67 324.05 985.67 Q324.308 985.67 324.448 985.81 Q324.589 985.927 324.612 986.044 L324.612 986.185 Q324.472 986.63 324.378 986.864 L319.974 997.217 Q319.717 997.802 319.506 997.92 Q319.295 998.037 318.475 998.037 L293.577 998.037 Q293.015 998.037 292.781 998.013 Q292.57 997.99 292.406 997.873 Q292.242 997.732 292.242 997.451 Q292.242 997.006 292.43 996.819 Q292.617 996.608 292.828 996.584 Q293.039 996.561 293.577 996.561 Q294.748 996.561 295.451 996.491 Q296.154 996.421 296.599 996.327 Q297.067 996.21 297.302 995.882 Q297.559 995.554 297.676 995.273 Q297.793 994.968 297.957 994.289 L304.281 968.923 Q304.516 968.056 304.516 967.775 Q304.516 967.47 304.305 967.283 Q304.117 967.096 303.602 967.025 Q303.087 966.932 302.665 966.932 Q302.267 966.908 301.4 966.908 Q300.838 966.908 300.604 966.885 Q300.393 966.861 300.229 966.744 Q300.065 966.627 300.065 966.37 Q300.065 965.714 300.346 965.573 Q300.651 965.409 301.494 965.409 L325.713 965.409 Q326.673 965.409 326.884 965.62 Q327.118 965.807 327.025 966.721 Z" fill="#000000" fill-rule="nonzero" fill-opacity="1" /><path clip-path="url(#clip120)" d="M333.629 1010.03 L333.629 962.06 L340.867 962.06 L340.867 963.161 L336.838 963.161 L336.838 1008.93 L340.867 1008.93 L340.867 1010.03 L333.629 1010.03 Z" fill="#000000" fill-rule="nonzero" fill-opacity="1" /><path clip-path="url(#clip120)" d="M364.163 978.666 Q364.163 978.994 363.952 979.767 L359.361 998.084 Q358.354 1002.16 355.075 1005.02 Q351.819 1007.87 348.118 1007.87 Q345.893 1007.87 344.464 1006.68 Q343.036 1005.51 343.036 1003.7 Q343.036 1002.11 343.879 1001.34 Q344.722 1000.59 345.729 1000.59 Q346.057 1000.59 346.408 1000.68 Q346.76 1000.78 347.134 1001.18 Q347.509 1001.57 347.509 1002.25 Q347.509 1003.35 346.549 1004.22 Q346.08 1004.62 345.635 1004.71 Q345.214 1004.81 344.488 1004.81 Q344.769 1005.46 345.284 1005.91 Q345.799 1006.35 346.385 1006.52 Q346.971 1006.7 347.345 1006.75 Q347.743 1006.82 348.118 1006.82 Q351.116 1006.82 353.412 1003.8 Q354.091 1002.89 354.583 1001.97 Q355.098 1001.08 355.473 999.981 Q355.848 998.903 356.012 998.318 Q356.199 997.732 356.527 996.397 Q354.349 998.575 351.678 998.575 Q350.554 998.575 349.547 998.271 Q348.563 997.966 347.697 997.334 Q346.83 996.678 346.315 995.53 Q345.823 994.383 345.823 992.86 Q345.823 991.244 346.455 989.042 Q347.088 986.841 348.61 982.789 Q349.43 980.517 349.43 979.416 Q349.43 978.877 349.313 978.549 Q349.196 978.198 348.961 978.081 Q348.727 977.94 348.587 977.917 Q348.47 977.893 348.235 977.893 Q346.853 977.893 345.565 979.299 Q344.277 980.704 343.387 983.843 Q343.2 984.428 343.082 984.569 Q342.965 984.709 342.614 984.709 Q342.028 984.686 342.028 984.217 Q342.028 984.03 342.239 983.304 Q342.45 982.554 342.942 981.454 Q343.457 980.329 344.16 979.322 Q344.863 978.292 345.963 977.565 Q347.088 976.839 348.376 976.839 Q350.133 976.839 351.21 977.987 Q352.311 979.111 352.311 980.774 Q352.311 981.454 352.123 982.063 Q351.96 982.648 351.351 984.217 Q348.891 990.541 348.891 993.633 Q348.891 994.383 349.008 995.015 Q349.149 995.624 349.453 996.233 Q349.758 996.819 350.367 997.17 Q350.999 997.498 351.866 997.498 Q352.967 997.498 353.997 996.983 Q355.051 996.444 355.707 995.718 Q356.386 994.992 356.785 994.383 Q357.206 993.75 357.3 993.422 L359.455 984.803 L360.415 980.962 Q360.86 978.877 361.071 978.362 Q361.352 977.87 361.844 977.612 Q362.336 977.355 362.757 977.355 Q363.343 977.355 363.741 977.706 Q364.163 978.057 364.163 978.666 Z" fill="#000000" fill-rule="nonzero" fill-opacity="1" /><path clip-path="url(#clip120)" d="M371.247 1008.55 L371.247 963.887 Q371.247 962.107 372.207 962.107 Q373.168 962.107 373.168 963.535 L373.168 1008.2 Q373.168 1009.98 372.207 1009.98 Q371.247 1009.98 371.247 1008.55 Z" fill="#000000" fill-rule="nonzero" fill-opacity="1" /><path clip-path="url(#clip120)" d="M414.937 980.001 Q414.937 981.313 414.117 982.063 Q413.297 982.789 412.36 982.789 Q411.47 982.789 411.002 982.273 Q410.533 981.758 410.533 981.102 Q410.533 980.212 411.189 979.439 Q411.845 978.666 412.829 978.502 Q411.868 977.893 410.44 977.893 Q409.503 977.893 408.683 978.385 Q407.887 978.877 407.395 979.51 Q406.926 980.142 406.505 981.055 Q406.107 981.945 405.943 982.484 Q405.802 982.999 405.685 983.562 L404.045 990.12 Q403.249 993.235 403.249 994.336 Q403.249 995.694 403.905 996.608 Q404.561 997.498 405.872 997.498 Q406.388 997.498 406.973 997.357 Q407.559 997.193 408.308 996.772 Q409.081 996.327 409.76 995.671 Q410.463 994.992 411.142 993.844 Q411.822 992.696 412.267 991.221 Q412.407 990.705 412.876 990.705 Q413.461 990.705 413.461 991.174 Q413.461 991.572 413.133 992.415 Q412.829 993.235 412.15 994.312 Q411.494 995.367 410.627 996.327 Q409.76 997.264 408.472 997.92 Q407.184 998.575 405.779 998.575 Q403.764 998.575 402.429 997.498 Q401.094 996.421 400.602 994.921 Q400.485 995.132 400.321 995.413 Q400.157 995.694 399.665 996.327 Q399.197 996.936 398.658 997.404 Q398.12 997.849 397.276 998.201 Q396.457 998.575 395.566 998.575 Q394.442 998.575 393.435 998.247 Q392.451 997.92 391.749 997.17 Q391.046 996.421 391.046 995.39 Q391.046 994.242 391.819 993.446 Q392.615 992.626 393.693 992.626 Q394.372 992.626 394.911 993.024 Q395.473 993.422 395.473 994.289 Q395.473 995.249 394.817 995.975 Q394.161 996.702 393.224 996.889 Q394.185 997.498 395.613 997.498 Q397.159 997.498 398.377 996.139 Q399.595 994.781 400.181 992.509 Q401.633 987.052 402.195 984.616 Q402.757 982.156 402.757 981.102 Q402.757 980.118 402.5 979.439 Q402.242 978.76 401.797 978.456 Q401.375 978.128 400.977 978.01 Q400.602 977.893 400.181 977.893 Q399.478 977.893 398.682 978.174 Q397.909 978.456 396.972 979.111 Q396.058 979.744 395.192 981.055 Q394.325 982.367 393.74 984.171 Q393.622 984.709 393.107 984.709 Q392.545 984.686 392.545 984.217 Q392.545 983.819 392.849 982.999 Q393.177 982.156 393.833 981.102 Q394.512 980.048 395.379 979.111 Q396.269 978.151 397.557 977.495 Q398.869 976.839 400.274 976.839 Q400.907 976.839 401.516 976.98 Q402.148 977.097 402.898 977.448 Q403.671 977.8 404.35 978.573 Q405.029 979.346 405.451 980.47 Q405.732 979.931 406.107 979.416 Q406.505 978.901 407.114 978.268 Q407.746 977.612 408.613 977.238 Q409.503 976.839 410.487 976.839 Q411.447 976.839 412.384 977.097 Q413.321 977.331 414.117 978.104 Q414.937 978.854 414.937 980.001 Z" fill="#000000" fill-rule="nonzero" fill-opacity="1" /><path clip-path="url(#clip120)" d="M419.822 992.69 L419.822 991.641 Q423.856 991.641 425.938 989.493 Q426.512 989.493 426.61 989.624 Q426.708 989.756 426.708 990.362 L426.708 1009.2 Q426.708 1010.2 427.2 1010.51 Q427.692 1010.82 429.84 1010.82 L430.906 1010.82 L430.906 1011.86 Q429.725 1011.76 425.462 1011.76 Q421.199 1011.76 420.035 1011.86 L420.035 1010.82 L421.101 1010.82 Q423.216 1010.82 423.724 1010.53 Q424.233 1010.22 424.233 1009.2 L424.233 991.805 Q422.478 992.69 419.822 992.69 Z" fill="#000000" fill-rule="nonzero" fill-opacity="1" /><path clip-path="url(#clip120)" d="M449.225 990.752 Q449.272 990.167 450.185 990.167 L479.58 990.167 Q480.962 990.167 480.986 990.705 Q480.986 991.291 479.674 991.268 L450.513 991.268 Q449.225 991.291 449.225 990.752 M449.225 981.383 Q449.225 980.798 450.232 980.821 L479.534 980.821 Q480.962 980.821 480.986 981.383 Q480.986 981.922 479.768 981.922 L450.185 981.922 Q449.225 981.922 449.225 981.383 Z" fill="#000000" fill-rule="nonzero" fill-opacity="1" /><path clip-path="url(#clip120)" d="M499.485 982.695 Q499.485 975.645 501.265 971.804 Q503.748 966.088 509.604 966.088 Q510.845 966.088 512.133 966.44 Q513.445 966.768 515.084 968.056 Q516.747 969.344 517.755 971.452 Q519.675 975.528 519.675 982.695 Q519.675 989.698 517.895 993.516 Q515.295 999.091 509.557 999.091 Q507.402 999.091 505.2 997.99 Q503.022 996.889 501.64 994.242 Q499.485 990.284 499.485 982.695 M503.467 982.109 Q503.467 989.347 503.982 992.228 Q504.568 995.343 506.16 996.702 Q507.777 998.037 509.557 998.037 Q511.477 998.037 513.07 996.608 Q514.686 995.156 515.178 992.041 Q515.717 988.972 515.693 982.109 Q515.693 975.434 515.225 972.764 Q514.592 969.649 512.906 968.407 Q511.243 967.142 509.557 967.142 Q508.924 967.142 508.245 967.33 Q507.589 967.517 506.629 968.056 Q505.669 968.595 504.919 969.93 Q504.193 971.265 503.842 973.279 Q503.467 975.879 503.467 982.109 Z" fill="#000000" fill-rule="nonzero" fill-opacity="1" /><path clip-path="url(#clip120)" d="M523.918 997.264 Q523.239 996.491 523.239 995.484 Q523.239 994.476 523.895 993.727 Q524.574 992.954 525.792 992.954 Q527.221 992.954 528.041 994.336 Q528.86 995.694 528.86 997.99 Q528.86 1000.47 527.853 1002.77 Q526.846 1005.09 525.862 1006.19 Q524.878 1007.29 524.48 1007.29 Q524.012 1007.29 524.012 1006.77 Q524.012 1006.59 524.34 1006.23 Q527.783 1002.53 527.806 997.99 Q527.806 997.264 527.713 997.264 L527.595 997.357 Q526.776 998.037 525.792 998.037 Q524.597 998.037 523.918 997.264 Z" fill="#000000" fill-rule="nonzero" fill-opacity="1" /><path clip-path="url(#clip120)" d="M567.887 980.001 Q567.887 981.313 567.067 982.063 Q566.247 982.789 565.31 982.789 Q564.42 982.789 563.952 982.273 Q563.483 981.758 563.483 981.102 Q563.483 980.212 564.139 979.439 Q564.795 978.666 565.779 978.502 Q564.818 977.893 563.389 977.893 Q562.453 977.893 561.633 978.385 Q560.836 978.877 560.345 979.51 Q559.876 980.142 559.455 981.055 Q559.056 981.945 558.892 982.484 Q558.752 982.999 558.635 983.562 L556.995 990.12 Q556.199 993.235 556.199 994.336 Q556.199 995.694 556.855 996.608 Q557.51 997.498 558.822 997.498 Q559.337 997.498 559.923 997.357 Q560.509 997.193 561.258 996.772 Q562.031 996.327 562.71 995.671 Q563.413 994.992 564.092 993.844 Q564.771 992.696 565.216 991.221 Q565.357 990.705 565.825 990.705 Q566.411 990.705 566.411 991.174 Q566.411 991.572 566.083 992.415 Q565.779 993.235 565.099 994.312 Q564.443 995.367 563.577 996.327 Q562.71 997.264 561.422 997.92 Q560.134 998.575 558.728 998.575 Q556.714 998.575 555.379 997.498 Q554.044 996.421 553.552 994.921 Q553.435 995.132 553.271 995.413 Q553.107 995.694 552.615 996.327 Q552.147 996.936 551.608 997.404 Q551.069 997.849 550.226 998.201 Q549.406 998.575 548.516 998.575 Q547.392 998.575 546.385 998.247 Q545.401 997.92 544.698 997.17 Q543.996 996.421 543.996 995.39 Q543.996 994.242 544.769 993.446 Q545.565 992.626 546.642 992.626 Q547.322 992.626 547.86 993.024 Q548.423 993.422 548.423 994.289 Q548.423 995.249 547.767 995.975 Q547.111 996.702 546.174 996.889 Q547.134 997.498 548.563 997.498 Q550.109 997.498 551.327 996.139 Q552.545 994.781 553.13 992.509 Q554.583 987.052 555.145 984.616 Q555.707 982.156 555.707 981.102 Q555.707 980.118 555.449 979.439 Q555.192 978.76 554.747 978.456 Q554.325 978.128 553.927 978.01 Q553.552 977.893 553.13 977.893 Q552.428 977.893 551.631 978.174 Q550.858 978.456 549.922 979.111 Q549.008 979.744 548.141 981.055 Q547.275 982.367 546.689 984.171 Q546.572 984.709 546.057 984.709 Q545.495 984.686 545.495 984.217 Q545.495 983.819 545.799 982.999 Q546.127 982.156 546.783 981.102 Q547.462 980.048 548.329 979.111 Q549.219 978.151 550.507 977.495 Q551.819 976.839 553.224 976.839 Q553.857 976.839 554.466 976.98 Q555.098 977.097 555.847 977.448 Q556.62 977.8 557.3 978.573 Q557.979 979.346 558.4 980.47 Q558.682 979.931 559.056 979.416 Q559.455 978.901 560.063 978.268 Q560.696 977.612 561.563 977.238 Q562.453 976.839 563.436 976.839 Q564.397 976.839 565.334 977.097 Q566.27 977.331 567.067 978.104 Q567.887 978.854 567.887 980.001 Z" fill="#000000" fill-rule="nonzero" fill-opacity="1" /><path clip-path="url(#clip120)" d="M572.772 1011.86 Q572.772 1011.25 572.821 1011.07 Q572.887 1010.89 573.149 1010.61 L579.593 1003.43 Q583.118 999.462 583.118 996.002 Q583.118 993.756 581.937 992.149 Q580.773 990.543 578.625 990.543 Q577.15 990.543 575.904 991.444 Q574.657 992.346 574.084 993.953 Q574.182 993.92 574.526 993.92 Q575.362 993.92 575.822 994.445 Q576.297 994.969 576.297 995.674 Q576.297 996.576 575.707 997.019 Q575.133 997.445 574.559 997.445 Q574.33 997.445 574.018 997.396 Q573.723 997.347 573.247 996.888 Q572.772 996.412 572.772 995.576 Q572.772 993.231 574.543 991.362 Q576.33 989.493 579.051 989.493 Q582.134 989.493 584.151 991.33 Q586.184 993.149 586.184 996.002 Q586.184 997.002 585.872 997.921 Q585.577 998.822 585.167 999.527 Q584.774 1000.23 583.691 1001.36 Q582.609 1002.5 581.74 1003.3 Q580.871 1004.1 578.92 1005.81 L575.362 1009.27 L581.412 1009.27 Q584.364 1009.27 584.593 1009 Q584.921 1008.53 585.331 1006.02 L586.184 1006.02 L585.233 1011.86 L572.772 1011.86 Z" fill="#000000" fill-rule="nonzero" fill-opacity="1" /><path clip-path="url(#clip120)" d="M591.17 1008.93 L595.199 1008.93 L595.199 963.161 L591.17 963.161 L591.17 962.06 L598.408 962.06 L598.408 1010.03 L591.17 1010.03 L591.17 1008.93 Z" fill="#000000" fill-rule="nonzero" fill-opacity="1" /><path clip-path="url(#clip120)" d="M608.304 963.477 L608.304 976.324 L604.369 976.324 L604.369 963.477 L608.304 963.477 M617.054 963.477 L617.054 976.324 L613.119 976.324 L613.119 963.477 L617.054 963.477 Z" fill="#000000" fill-rule="nonzero" fill-opacity="1" /></svg>
