<?xml version="1.0" encoding="utf-8"?>
<svg xmlns="http://www.w3.org/2000/svg" xmlns:xlink="http://www.w3.org/1999/xlink" width="200" height="200" viewBox="0 0 800 800">
<defs>
  <clipPath id="clip090">
    <rect x="0" y="0" width="800" height="800"/>
  </clipPath>
</defs>
<path clip-path="url(#clip090)" d="M0 800 L800 800 L800 0 L0 0  Z" fill="#ffffff" fill-rule="evenodd" fill-opacity="1"/>
<defs>
  <clipPath id="clip091">
    <rect x="160" y="80" width="561" height="561"/>
  </clipPath>
</defs>
<path clip-path="url(#clip090)" d="M131.478 677.168 L752.756 677.168 L752.756 47.2441 L131.478 47.2441  Z" fill="#ffffff" fill-rule="evenodd" fill-opacity="1"/>
<defs>
  <clipPath id="clip092">
    <rect x="131" y="47" width="622" height="631"/>
  </clipPath>
</defs>
<polyline clip-path="url(#clip092)" style="stroke:#000000; stroke-linecap:round; stroke-linejoin:round; stroke-width:2; stroke-opacity:0.1; fill:none" points="149.061,677.168 149.061,47.2441 "/>
<polyline clip-path="url(#clip092)" style="stroke:#000000; stroke-linecap:round; stroke-linejoin:round; stroke-width:2; stroke-opacity:0.1; fill:none" points="295.589,677.168 295.589,47.2441 "/>
<polyline clip-path="url(#clip092)" style="stroke:#000000; stroke-linecap:round; stroke-linejoin:round; stroke-width:2; stroke-opacity:0.1; fill:none" points="442.117,677.168 442.117,47.2441 "/>
<polyline clip-path="url(#clip092)" style="stroke:#000000; stroke-linecap:round; stroke-linejoin:round; stroke-width:2; stroke-opacity:0.1; fill:none" points="588.645,677.168 588.645,47.2441 "/>
<polyline clip-path="url(#clip092)" style="stroke:#000000; stroke-linecap:round; stroke-linejoin:round; stroke-width:2; stroke-opacity:0.1; fill:none" points="735.173,677.168 735.173,47.2441 "/>
<polyline clip-path="url(#clip090)" style="stroke:#000000; stroke-linecap:round; stroke-linejoin:round; stroke-width:4; stroke-opacity:1; fill:none" points="131.478,677.168 752.756,677.168 "/>
<polyline clip-path="url(#clip090)" style="stroke:#000000; stroke-linecap:round; stroke-linejoin:round; stroke-width:4; stroke-opacity:1; fill:none" points="149.061,677.168 149.061,658.27 "/>
<polyline clip-path="url(#clip090)" style="stroke:#000000; stroke-linecap:round; stroke-linejoin:round; stroke-width:4; stroke-opacity:1; fill:none" points="295.589,677.168 295.589,658.27 "/>
<polyline clip-path="url(#clip090)" style="stroke:#000000; stroke-linecap:round; stroke-linejoin:round; stroke-width:4; stroke-opacity:1; fill:none" points="442.117,677.168 442.117,658.27 "/>
<polyline clip-path="url(#clip090)" style="stroke:#000000; stroke-linecap:round; stroke-linejoin:round; stroke-width:4; stroke-opacity:1; fill:none" points="588.645,677.168 588.645,658.27 "/>
<polyline clip-path="url(#clip090)" style="stroke:#000000; stroke-linecap:round; stroke-linejoin:round; stroke-width:4; stroke-opacity:1; fill:none" points="735.173,677.168 735.173,658.27 "/>
<path clip-path="url(#clip090)" d="M119.004 709.939 L148.679 709.939 L148.679 713.874 L119.004 713.874 L119.004 709.939 Z" fill="#000000" fill-rule="nonzero" fill-opacity="1" /><path clip-path="url(#clip090)" d="M162.8 722.833 L179.119 722.833 L179.119 726.768 L157.175 726.768 L157.175 722.833 Q159.837 720.078 164.42 715.448 Q169.026 710.796 170.207 709.453 Q172.452 706.93 173.332 705.194 Q174.235 703.435 174.235 701.745 Q174.235 698.99 172.29 697.254 Q170.369 695.518 167.267 695.518 Q165.068 695.518 162.614 696.282 Q160.184 697.046 157.406 698.597 L157.406 693.875 Q160.23 692.74 162.684 692.162 Q165.138 691.583 167.175 691.583 Q172.545 691.583 175.739 694.268 Q178.934 696.953 178.934 701.444 Q178.934 703.574 178.124 705.495 Q177.337 707.393 175.23 709.986 Q174.651 710.657 171.55 713.874 Q168.448 717.069 162.8 722.833 Z" fill="#000000" fill-rule="nonzero" fill-opacity="1" /><path clip-path="url(#clip090)" d="M265.346 709.939 L295.022 709.939 L295.022 713.874 L265.346 713.874 L265.346 709.939 Z" fill="#000000" fill-rule="nonzero" fill-opacity="1" /><path clip-path="url(#clip090)" d="M305.925 722.833 L313.564 722.833 L313.564 696.467 L305.253 698.134 L305.253 693.875 L313.517 692.208 L318.193 692.208 L318.193 722.833 L325.832 722.833 L325.832 726.768 L305.925 726.768 L305.925 722.833 Z" fill="#000000" fill-rule="nonzero" fill-opacity="1" /><path clip-path="url(#clip090)" d="M442.117 695.287 Q438.506 695.287 436.677 698.851 Q434.872 702.393 434.872 709.523 Q434.872 716.629 436.677 720.194 Q438.506 723.735 442.117 723.735 Q445.751 723.735 447.557 720.194 Q449.385 716.629 449.385 709.523 Q449.385 702.393 447.557 698.851 Q445.751 695.287 442.117 695.287 M442.117 691.583 Q447.927 691.583 450.983 696.189 Q454.061 700.773 454.061 709.523 Q454.061 718.249 450.983 722.856 Q447.927 727.439 442.117 727.439 Q436.307 727.439 433.228 722.856 Q430.173 718.249 430.173 709.523 Q430.173 700.773 433.228 696.189 Q436.307 691.583 442.117 691.583 Z" fill="#000000" fill-rule="nonzero" fill-opacity="1" /><path clip-path="url(#clip090)" d="M579.027 722.833 L586.666 722.833 L586.666 696.467 L578.355 698.134 L578.355 693.875 L586.619 692.208 L591.295 692.208 L591.295 722.833 L598.934 722.833 L598.934 726.768 L579.027 726.768 L579.027 722.833 Z" fill="#000000" fill-rule="nonzero" fill-opacity="1" /><path clip-path="url(#clip090)" d="M729.825 722.833 L746.145 722.833 L746.145 726.768 L724.2 726.768 L724.2 722.833 Q726.862 720.078 731.446 715.448 Q736.052 710.796 737.233 709.453 Q739.478 706.93 740.358 705.194 Q741.26 703.435 741.26 701.745 Q741.26 698.99 739.316 697.254 Q737.395 695.518 734.293 695.518 Q732.094 695.518 729.64 696.282 Q727.21 697.046 724.432 698.597 L724.432 693.875 Q727.256 692.74 729.71 692.162 Q732.163 691.583 734.2 691.583 Q739.571 691.583 742.765 694.268 Q745.96 696.953 745.96 701.444 Q745.96 703.574 745.149 705.495 Q744.362 707.393 742.256 709.986 Q741.677 710.657 738.575 713.874 Q735.473 717.069 729.825 722.833 Z" fill="#000000" fill-rule="nonzero" fill-opacity="1" /><polyline clip-path="url(#clip092)" style="stroke:#000000; stroke-linecap:round; stroke-linejoin:round; stroke-width:2; stroke-opacity:0.1; fill:none" points="131.478,566.746 752.756,566.746 "/>
<polyline clip-path="url(#clip092)" style="stroke:#000000; stroke-linecap:round; stroke-linejoin:round; stroke-width:2; stroke-opacity:0.1; fill:none" points="131.478,439.816 752.756,439.816 "/>
<polyline clip-path="url(#clip092)" style="stroke:#000000; stroke-linecap:round; stroke-linejoin:round; stroke-width:2; stroke-opacity:0.1; fill:none" points="131.478,312.886 752.756,312.886 "/>
<polyline clip-path="url(#clip092)" style="stroke:#000000; stroke-linecap:round; stroke-linejoin:round; stroke-width:2; stroke-opacity:0.1; fill:none" points="131.478,185.956 752.756,185.956 "/>
<polyline clip-path="url(#clip092)" style="stroke:#000000; stroke-linecap:round; stroke-linejoin:round; stroke-width:2; stroke-opacity:0.1; fill:none" points="131.478,59.0256 752.756,59.0256 "/>
<polyline clip-path="url(#clip090)" style="stroke:#000000; stroke-linecap:round; stroke-linejoin:round; stroke-width:4; stroke-opacity:1; fill:none" points="131.478,677.168 131.478,47.2441 "/>
<polyline clip-path="url(#clip090)" style="stroke:#000000; stroke-linecap:round; stroke-linejoin:round; stroke-width:4; stroke-opacity:1; fill:none" points="131.478,566.746 150.376,566.746 "/>
<polyline clip-path="url(#clip090)" style="stroke:#000000; stroke-linecap:round; stroke-linejoin:round; stroke-width:4; stroke-opacity:1; fill:none" points="131.478,439.816 150.376,439.816 "/>
<polyline clip-path="url(#clip090)" style="stroke:#000000; stroke-linecap:round; stroke-linejoin:round; stroke-width:4; stroke-opacity:1; fill:none" points="131.478,312.886 150.376,312.886 "/>
<polyline clip-path="url(#clip090)" style="stroke:#000000; stroke-linecap:round; stroke-linejoin:round; stroke-width:4; stroke-opacity:1; fill:none" points="131.478,185.956 150.376,185.956 "/>
<polyline clip-path="url(#clip090)" style="stroke:#000000; stroke-linecap:round; stroke-linejoin:round; stroke-width:4; stroke-opacity:1; fill:none" points="131.478,59.0256 150.376,59.0256 "/>
<path clip-path="url(#clip090)" d="M59.3625 567.198 L89.0383 567.198 L89.0383 571.133 L59.3625 571.133 L59.3625 567.198 Z" fill="#000000" fill-rule="nonzero" fill-opacity="1" /><path clip-path="url(#clip090)" d="M103.159 580.091 L119.478 580.091 L119.478 584.026 L97.5336 584.026 L97.5336 580.091 Q100.196 577.337 104.779 572.707 Q109.385 568.054 110.566 566.712 Q112.811 564.189 113.691 562.453 Q114.594 560.693 114.594 559.003 Q114.594 556.249 112.649 554.513 Q110.728 552.777 107.626 552.777 Q105.427 552.777 102.973 553.541 Q100.543 554.304 97.7651 555.855 L97.7651 551.133 Q100.589 549.999 103.043 549.42 Q105.497 548.841 107.534 548.841 Q112.904 548.841 116.098 551.527 Q119.293 554.212 119.293 558.703 Q119.293 560.832 118.483 562.753 Q117.696 564.652 115.589 567.244 Q115.01 567.915 111.909 571.133 Q108.807 574.327 103.159 580.091 Z" fill="#000000" fill-rule="nonzero" fill-opacity="1" /><path clip-path="url(#clip090)" d="M58.9921 440.268 L88.6679 440.268 L88.6679 444.203 L58.9921 444.203 L58.9921 440.268 Z" fill="#000000" fill-rule="nonzero" fill-opacity="1" /><path clip-path="url(#clip090)" d="M99.5706 453.161 L107.209 453.161 L107.209 426.796 L98.8993 428.462 L98.8993 424.203 L107.163 422.536 L111.839 422.536 L111.839 453.161 L119.478 453.161 L119.478 457.096 L99.5706 457.096 L99.5706 453.161 Z" fill="#000000" fill-rule="nonzero" fill-opacity="1" /><path clip-path="url(#clip090)" d="M107.534 298.685 Q103.922 298.685 102.094 302.25 Q100.288 305.791 100.288 312.921 Q100.288 320.027 102.094 323.592 Q103.922 327.134 107.534 327.134 Q111.168 327.134 112.973 323.592 Q114.802 320.027 114.802 312.921 Q114.802 305.791 112.973 302.25 Q111.168 298.685 107.534 298.685 M107.534 294.981 Q113.344 294.981 116.399 299.588 Q119.478 304.171 119.478 312.921 Q119.478 321.648 116.399 326.254 Q113.344 330.837 107.534 330.837 Q101.723 330.837 98.6447 326.254 Q95.5892 321.648 95.5892 312.921 Q95.5892 304.171 98.6447 299.588 Q101.723 294.981 107.534 294.981 Z" fill="#000000" fill-rule="nonzero" fill-opacity="1" /><path clip-path="url(#clip090)" d="M99.5706 199.301 L107.209 199.301 L107.209 172.935 L98.8993 174.602 L98.8993 170.343 L107.163 168.676 L111.839 168.676 L111.839 199.301 L119.478 199.301 L119.478 203.236 L99.5706 203.236 L99.5706 199.301 Z" fill="#000000" fill-rule="nonzero" fill-opacity="1" /><path clip-path="url(#clip090)" d="M103.159 72.3705 L119.478 72.3705 L119.478 76.3056 L97.5336 76.3056 L97.5336 72.3705 Q100.196 69.6159 104.779 64.9863 Q109.385 60.3335 110.566 58.9909 Q112.811 56.4678 113.691 54.7317 Q114.594 52.9724 114.594 51.2826 Q114.594 48.528 112.649 46.7919 Q110.728 45.0558 107.626 45.0558 Q105.427 45.0558 102.973 45.8197 Q100.543 46.5836 97.7651 48.1345 L97.7651 43.4123 Q100.589 42.278 103.043 41.6993 Q105.497 41.1206 107.534 41.1206 Q112.904 41.1206 116.098 43.8058 Q119.293 46.491 119.293 50.9817 Q119.293 53.1113 118.483 55.0326 Q117.696 56.9307 115.589 59.5233 Q115.01 60.1946 111.909 63.4122 Q108.807 66.6066 103.159 72.3705 Z" fill="#000000" fill-rule="nonzero" fill-opacity="1" /><polyline clip-path="url(#clip092)" style="stroke:#009af9; stroke-linecap:round; stroke-linejoin:round; stroke-width:4; stroke-opacity:1; fill:none" points="149.061,65.0721 178.367,88.5715 207.672,112.071 236.978,135.57 266.284,159.07 295.589,182.569 324.895,206.068 354.2,229.568 383.506,253.067 412.811,276.566 442.117,306.274 471.422,341.58 500.728,376.887 530.034,412.194 559.339,447.5 588.645,482.807 617.95,518.113 647.256,553.42 676.561,588.727 705.867,624.033 735.173,659.34 "/>
<path clip-path="url(#clip090)" d="M617.489 171.922 L732.047 171.922 L732.047 68.2416 L617.489 68.2416  Z" fill="#ffffff" fill-rule="evenodd" fill-opacity="1"/>
<polyline clip-path="url(#clip090)" style="stroke:#000000; stroke-linecap:round; stroke-linejoin:round; stroke-width:4; stroke-opacity:1; fill:none" points="617.489,171.922 732.047,171.922 732.047,68.2416 617.489,68.2416 617.489,171.922 "/>
<polyline clip-path="url(#clip090)" style="stroke:#009af9; stroke-linecap:round; stroke-linejoin:round; stroke-width:4; stroke-opacity:1; fill:none" points="624.392,120.082 665.81,120.082 "/>
<path clip-path="url(#clip090)" d="M686.556 139.769 Q684.75 144.399 683.037 145.811 Q681.324 147.223 678.454 147.223 L675.051 147.223 L675.051 143.658 L677.551 143.658 Q679.31 143.658 680.283 142.824 Q681.255 141.991 682.435 138.889 L683.199 136.945 L672.713 111.436 L677.227 111.436 L685.329 131.713 L693.431 111.436 L697.945 111.436 L686.556 139.769 Z" fill="#000000" fill-rule="nonzero" fill-opacity="1" /><path clip-path="url(#clip090)" d="M705.236 133.426 L712.875 133.426 L712.875 107.061 L704.565 108.727 L704.565 104.468 L712.829 102.802 L717.505 102.802 L717.505 133.426 L725.144 133.426 L725.144 137.362 L705.236 137.362 L705.236 133.426 Z" fill="#000000" fill-rule="nonzero" fill-opacity="1" /></svg>
